  0
SECTION
  2
HEADER
  9
$ACADVER
  1
AC1009
  9
$EXTMIN
 10
0.0
 20
0.0
 30
0.0
  9
$EXTMAX
 10
1000.0
 20
1000.0
 30
0.0
  9
$FILLMODE
 70
 0
  9
$SPLFRAME
 70
 1
  0
ENDSEC
  0
SECTION
  2
TABLES
  0
TABLE
  2
LAYER
 70
1
  0
LAYER
  2
0
 70
     0
 62
     7
  6
CONTINUOUS
  0
ENDTAB
  0
ENDSEC
  0
SECTION
  2
ENTITIES
  0
LINE
  8
0
 62
     0
 10
372.759
 20
154.069
 30
0.0
 11
373.151
 21
154.054
 31
0.0
  0
LINE
  8
0
 62
     0
 10
373.151
 20
154.054
 30
0.0
 11
373.542
 21
154.007
 31
0.0
  0
LINE
  8
0
 62
     0
 10
373.542
 20
154.007
 30
0.0
 11
373.927
 21
153.931
 31
0.0
  0
LINE
  8
0
 62
     0
 10
373.927
 20
153.931
 30
0.0
 11
374.304
 21
153.825
 31
0.0
  0
LINE
  8
0
 62
     0
 10
374.304
 20
153.825
 30
0.0
 11
374.671
 21
153.688
 31
0.0
  0
LINE
  8
0
 62
     0
 10
374.671
 20
153.688
 30
0.0
 11
375.027
 21
153.525
 31
0.0
  0
LINE
  8
0
 62
     0
 10
375.027
 20
153.525
 30
0.0
 11
375.37
 21
153.333
 31
0.0
  0
LINE
  8
0
 62
     0
 10
375.37
 20
153.333
 30
0.0
 11
375.698
 21
153.114
 31
0.0
  0
LINE
  8
0
 62
     0
 10
375.698
 20
153.114
 30
0.0
 11
376.005
 21
152.871
 31
0.0
  0
LINE
  8
0
 62
     0
 10
376.005
 20
152.871
 30
0.0
 11
376.294
 21
152.604
 31
0.0
  0
LINE
  8
0
 62
     0
 10
376.294
 20
152.604
 30
0.0
 11
376.559
 21
152.316
 31
0.0
  0
LINE
  8
0
 62
     0
 10
376.559
 20
152.316
 30
0.0
 11
376.805
 21
152.007
 31
0.0
  0
LINE
  8
0
 62
     0
 10
376.805
 20
152.007
 30
0.0
 11
377.021
 21
151.682
 31
0.0
  0
LINE
  8
0
 62
     0
 10
377.021
 20
151.682
 30
0.0
 11
377.215
 21
151.339
 31
0.0
  0
LINE
  8
0
 62
     0
 10
377.215
 20
151.339
 30
0.0
 11
377.377
 21
150.982
 31
0.0
  0
LINE
  8
0
 62
     0
 10
377.377
 20
150.982
 30
0.0
 11
377.515
 21
150.614
 31
0.0
  0
LINE
  8
0
 62
     0
 10
377.515
 20
150.614
 30
0.0
 11
377.62
 21
150.236
 31
0.0
  0
LINE
  8
0
 62
     0
 10
377.62
 20
150.236
 30
0.0
 11
377.698
 21
149.852
 31
0.0
  0
LINE
  8
0
 62
     0
 10
377.698
 20
149.852
 30
0.0
 11
377.744
 21
149.462
 31
0.0
  0
LINE
  8
0
 62
     0
 10
377.744
 20
149.462
 30
0.0
 11
377.758
 21
149.068
 31
0.0
  0
LINE
  8
0
 62
     0
 10
377.758
 20
149.068
 30
0.0
 11
377.758
 21
5.24207
 31
0.0
  0
LINE
  8
0
 62
     0
 10
377.758
 20
5.24207
 30
0.0
 11
377.744
 21
4.85069
 31
0.0
  0
LINE
  8
0
 62
     0
 10
377.744
 20
4.85069
 30
0.0
 11
377.698
 21
4.4607
 31
0.0
  0
LINE
  8
0
 62
     0
 10
377.698
 20
4.4607
 30
0.0
 11
377.62
 21
4.07487
 31
0.0
  0
LINE
  8
0
 62
     0
 10
377.62
 20
4.07487
 30
0.0
 11
377.515
 21
3.69729
 31
0.0
  0
LINE
  8
0
 62
     0
 10
377.515
 20
3.69729
 30
0.0
 11
377.377
 21
3.32934
 31
0.0
  0
LINE
  8
0
 62
     0
 10
377.377
 20
3.32934
 30
0.0
 11
377.215
 21
2.97381
 31
0.0
  0
LINE
  8
0
 62
     0
 10
377.215
 20
2.97381
 30
0.0
 11
377.021
 21
2.63067
 31
0.0
  0
LINE
  8
0
 62
     0
 10
377.021
 20
2.63067
 30
0.0
 11
376.805
 21
2.30408
 31
0.0
  0
LINE
  8
0
 62
     0
 10
376.805
 20
2.30408
 30
0.0
 11
376.559
 21
1.9954
 31
0.0
  0
LINE
  8
0
 62
     0
 10
376.559
 20
1.9954
 30
0.0
 11
376.294
 21
1.70739
 31
0.0
  0
LINE
  8
0
 62
     0
 10
376.294
 20
1.70739
 30
0.0
 11
376.005
 21
1.44005
 31
0.0
  0
LINE
  8
0
 62
     0
 10
376.005
 20
1.44005
 30
0.0
 11
375.698
 21
1.19751
 31
0.0
  0
LINE
  8
0
 62
     0
 10
375.698
 20
1.19751
 30
0.0
 11
375.37
 21
0.979784
 31
0.0
  0
LINE
  8
0
 62
     0
 10
375.37
 20
0.979784
 30
0.0
 11
375.027
 21
0.78686
 31
0.0
  0
LINE
  8
0
 62
     0
 10
375.027
 20
0.78686
 30
0.0
 11
374.671
 21
0.622875
 31
0.0
  0
LINE
  8
0
 62
     0
 10
374.671
 20
0.622875
 30
0.0
 11
374.304
 21
0.487825
 31
0.0
  0
LINE
  8
0
 62
     0
 10
374.304
 20
0.487825
 30
0.0
 11
373.927
 21
0.381716
 31
0.0
  0
LINE
  8
0
 62
     0
 10
373.927
 20
0.381716
 30
0.0
 11
373.542
 21
0.304546
 31
0.0
  0
LINE
  8
0
 62
     0
 10
373.542
 20
0.304546
 30
0.0
 11
373.151
 21
0.259071
 31
0.0
  0
LINE
  8
0
 62
     0
 10
373.151
 20
0.259071
 30
0.0
 11
372.759
 21
0.242535
 31
0.0
  0
LINE
  8
0
 62
     0
 10
372.759
 20
0.242535
 30
0.0
 11
5.09598
 21
0.242535
 31
0.0
  0
LINE
  8
0
 62
     0
 10
5.09598
 20
0.242535
 30
0.0
 11
4.70186
 21
0.259071
 31
0.0
  0
LINE
  8
0
 62
     0
 10
4.70186
 20
0.259071
 30
0.0
 11
4.3119
 21
0.304546
 31
0.0
  0
LINE
  8
0
 62
     0
 10
4.3119
 20
0.304546
 30
0.0
 11
3.9274
 21
0.381716
 31
0.0
  0
LINE
  8
0
 62
     0
 10
3.9274
 20
0.381716
 30
0.0
 11
3.54983
 21
0.487825
 31
0.0
  0
LINE
  8
0
 62
     0
 10
3.54983
 20
0.487825
 30
0.0
 11
3.18189
 21
0.622875
 31
0.0
  0
LINE
  8
0
 62
     0
 10
3.18189
 20
0.622875
 30
0.0
 11
2.82498
 21
0.78686
 31
0.0
  0
LINE
  8
0
 62
     0
 10
2.82498
 20
0.78686
 30
0.0
 11
2.48185
 21
0.979784
 31
0.0
  0
LINE
  8
0
 62
     0
 10
2.48185
 20
0.979784
 30
0.0
 11
2.15663
 21
1.19751
 31
0.0
  0
LINE
  8
0
 62
     0
 10
2.15663
 20
1.19751
 30
0.0
 11
1.84795
 21
1.44005
 31
0.0
  0
LINE
  8
0
 62
     0
 10
1.84795
 20
1.44005
 30
0.0
 11
1.55994
 21
1.70739
 31
0.0
  0
LINE
  8
0
 62
     0
 10
1.55994
 20
1.70739
 30
0.0
 11
1.2926
 21
1.9954
 31
0.0
  0
LINE
  8
0
 62
     0
 10
1.2926
 20
1.9954
 30
0.0
 11
1.05006
 21
2.30408
 31
0.0
  0
LINE
  8
0
 62
     0
 10
1.05006
 20
2.30408
 30
0.0
 11
0.830957
 21
2.63067
 31
0.0
  0
LINE
  8
0
 62
     0
 10
0.830957
 20
2.63067
 30
0.0
 11
0.63941
 21
2.97381
 31
0.0
  0
LINE
  8
0
 62
     0
 10
0.63941
 20
2.97381
 30
0.0
 11
0.475424
 21
3.32934
 31
0.0
  0
LINE
  8
0
 62
     0
 10
0.475424
 20
3.32934
 30
0.0
 11
0.338998
 21
3.69729
 31
0.0
  0
LINE
  8
0
 62
     0
 10
0.338998
 20
3.69729
 30
0.0
 11
0.232888
 21
4.07487
 31
0.0
  0
LINE
  8
0
 62
     0
 10
0.232888
 20
4.07487
 30
0.0
 11
0.157097
 21
4.4607
 31
0.0
  0
LINE
  8
0
 62
     0
 10
0.157097
 20
4.4607
 30
0.0
 11
0.110243
 21
4.85069
 31
0.0
  0
LINE
  8
0
 62
     0
 10
0.110243
 20
4.85069
 30
0.0
 11
0.0950846
 21
5.24207
 31
0.0
  0
LINE
  8
0
 62
     0
 10
0.0950846
 20
5.24207
 30
0.0
 11
0.0950846
 21
149.068
 31
0.0
  0
LINE
  8
0
 62
     0
 10
0.0950846
 20
149.068
 30
0.0
 11
0.110243
 21
149.462
 31
0.0
  0
LINE
  8
0
 62
     0
 10
0.110243
 20
149.462
 30
0.0
 11
0.157097
 21
149.852
 31
0.0
  0
LINE
  8
0
 62
     0
 10
0.157097
 20
149.852
 30
0.0
 11
0.232888
 21
150.236
 31
0.0
  0
LINE
  8
0
 62
     0
 10
0.232888
 20
150.236
 30
0.0
 11
0.338998
 21
150.614
 31
0.0
  0
LINE
  8
0
 62
     0
 10
0.338998
 20
150.614
 30
0.0
 11
0.475424
 21
150.982
 31
0.0
  0
LINE
  8
0
 62
     0
 10
0.475424
 20
150.982
 30
0.0
 11
0.63941
 21
151.339
 31
0.0
  0
LINE
  8
0
 62
     0
 10
0.63941
 20
151.339
 30
0.0
 11
0.830957
 21
151.682
 31
0.0
  0
LINE
  8
0
 62
     0
 10
0.830957
 20
151.682
 30
0.0
 11
1.05006
 21
152.007
 31
0.0
  0
LINE
  8
0
 62
     0
 10
1.05006
 20
152.007
 30
0.0
 11
1.2926
 21
152.316
 31
0.0
  0
LINE
  8
0
 62
     0
 10
1.2926
 20
152.316
 30
0.0
 11
1.55994
 21
152.604
 31
0.0
  0
LINE
  8
0
 62
     0
 10
1.55994
 20
152.604
 30
0.0
 11
1.84795
 21
152.871
 31
0.0
  0
LINE
  8
0
 62
     0
 10
1.84795
 20
152.871
 30
0.0
 11
2.15663
 21
153.114
 31
0.0
  0
LINE
  8
0
 62
     0
 10
2.15663
 20
153.114
 30
0.0
 11
2.48185
 21
153.333
 31
0.0
  0
LINE
  8
0
 62
     0
 10
2.48185
 20
153.333
 30
0.0
 11
2.82498
 21
153.525
 31
0.0
  0
LINE
  8
0
 62
     0
 10
2.82498
 20
153.525
 30
0.0
 11
3.18189
 21
153.688
 31
0.0
  0
LINE
  8
0
 62
     0
 10
3.18189
 20
153.688
 30
0.0
 11
3.54983
 21
153.825
 31
0.0
  0
LINE
  8
0
 62
     0
 10
3.54983
 20
153.825
 30
0.0
 11
3.9274
 21
153.931
 31
0.0
  0
LINE
  8
0
 62
     0
 10
3.9274
 20
153.931
 30
0.0
 11
4.3119
 21
154.007
 31
0.0
  0
LINE
  8
0
 62
     0
 10
4.3119
 20
154.007
 30
0.0
 11
4.70186
 21
154.054
 31
0.0
  0
LINE
  8
0
 62
     0
 10
4.70186
 20
154.054
 30
0.0
 11
5.09598
 21
154.069
 31
0.0
  0
LINE
  8
0
 62
     0
 10
5.09598
 20
154.069
 30
0.0
 11
372.759
 21
154.069
 31
0.0
  0
LINE
  8
0
 62
     0
 10
6.97699
 20
9.64487
 30
0.0
 11
6.4189
 21
9.36103
 31
0.0
  0
LINE
  8
0
 62
     0
 10
6.4189
 20
9.36103
 30
0.0
 11
5.97655
 21
8.91868
 31
0.0
  0
LINE
  8
0
 62
     0
 10
5.97655
 20
8.91868
 30
0.0
 11
5.69267
 21
8.36193
 31
0.0
  0
LINE
  8
0
 62
     0
 10
5.69267
 20
8.36193
 30
0.0
 11
5.59484
 21
7.74181
 31
0.0
  0
LINE
  8
0
 62
     0
 10
5.59484
 20
7.74181
 30
0.0
 11
5.69267
 21
7.12445
 31
0.0
  0
LINE
  8
0
 62
     0
 10
5.69267
 20
7.12445
 30
0.0
 11
5.97655
 21
6.56773
 31
0.0
  0
LINE
  8
0
 62
     0
 10
5.97655
 20
6.56773
 30
0.0
 11
6.4189
 21
6.12401
 31
0.0
  0
LINE
  8
0
 62
     0
 10
6.4189
 20
6.12401
 30
0.0
 11
6.97699
 21
5.84013
 31
0.0
  0
LINE
  8
0
 62
     0
 10
6.97699
 20
5.84013
 30
0.0
 11
7.59576
 21
5.74227
 31
0.0
  0
LINE
  8
0
 62
     0
 10
7.59576
 20
5.74227
 30
0.0
 11
8.21313
 21
5.84013
 31
0.0
  0
LINE
  8
0
 62
     0
 10
8.21313
 20
5.84013
 30
0.0
 11
8.76984
 21
6.12401
 31
0.0
  0
LINE
  8
0
 62
     0
 10
8.76984
 20
6.12401
 30
0.0
 11
9.21357
 21
6.56773
 31
0.0
  0
LINE
  8
0
 62
     0
 10
9.21357
 20
6.56773
 30
0.0
 11
9.49745
 21
7.12445
 31
0.0
  0
LINE
  8
0
 62
     0
 10
9.49745
 20
7.12445
 30
0.0
 11
9.59527
 21
7.74181
 31
0.0
  0
LINE
  8
0
 62
     0
 10
9.59527
 20
7.74181
 30
0.0
 11
9.49745
 21
8.36193
 31
0.0
  0
LINE
  8
0
 62
     0
 10
9.49745
 20
8.36193
 30
0.0
 11
9.21357
 21
8.91868
 31
0.0
  0
LINE
  8
0
 62
     0
 10
9.21357
 20
8.91868
 30
0.0
 11
8.76984
 21
9.36103
 31
0.0
  0
LINE
  8
0
 62
     0
 10
8.76984
 20
9.36103
 30
0.0
 11
8.21313
 21
9.64487
 31
0.0
  0
LINE
  8
0
 62
     0
 10
8.21313
 20
9.64487
 30
0.0
 11
7.59576
 21
9.74273
 31
0.0
  0
LINE
  8
0
 62
     0
 10
7.59576
 20
9.74273
 30
0.0
 11
6.97699
 21
9.64487
 31
0.0
  0
LINE
  8
0
 62
     0
 10
127.864
 20
9.64487
 30
0.0
 11
127.307
 21
9.36103
 31
0.0
  0
LINE
  8
0
 62
     0
 10
127.307
 20
9.36103
 30
0.0
 11
126.865
 21
8.91868
 31
0.0
  0
LINE
  8
0
 62
     0
 10
126.865
 20
8.91868
 30
0.0
 11
126.581
 21
8.36193
 31
0.0
  0
LINE
  8
0
 62
     0
 10
126.581
 20
8.36193
 30
0.0
 11
126.482
 21
7.74181
 31
0.0
  0
LINE
  8
0
 62
     0
 10
126.482
 20
7.74181
 30
0.0
 11
126.581
 21
7.12445
 31
0.0
  0
LINE
  8
0
 62
     0
 10
126.581
 20
7.12445
 30
0.0
 11
126.865
 21
6.56773
 31
0.0
  0
LINE
  8
0
 62
     0
 10
126.865
 20
6.56773
 30
0.0
 11
127.307
 21
6.12401
 31
0.0
  0
LINE
  8
0
 62
     0
 10
127.307
 20
6.12401
 30
0.0
 11
127.864
 21
5.84013
 31
0.0
  0
LINE
  8
0
 62
     0
 10
127.864
 20
5.84013
 30
0.0
 11
128.483
 21
5.74227
 31
0.0
  0
LINE
  8
0
 62
     0
 10
128.483
 20
5.74227
 30
0.0
 11
129.1
 21
5.84013
 31
0.0
  0
LINE
  8
0
 62
     0
 10
129.1
 20
5.84013
 30
0.0
 11
129.658
 21
6.12401
 31
0.0
  0
LINE
  8
0
 62
     0
 10
129.658
 20
6.12401
 30
0.0
 11
130.101
 21
6.56773
 31
0.0
  0
LINE
  8
0
 62
     0
 10
130.101
 20
6.56773
 30
0.0
 11
130.385
 21
7.12445
 31
0.0
  0
LINE
  8
0
 62
     0
 10
130.385
 20
7.12445
 30
0.0
 11
130.482
 21
7.74181
 31
0.0
  0
LINE
  8
0
 62
     0
 10
130.482
 20
7.74181
 30
0.0
 11
130.385
 21
8.36193
 31
0.0
  0
LINE
  8
0
 62
     0
 10
130.385
 20
8.36193
 30
0.0
 11
130.101
 21
8.91868
 31
0.0
  0
LINE
  8
0
 62
     0
 10
130.101
 20
8.91868
 30
0.0
 11
129.658
 21
9.36103
 31
0.0
  0
LINE
  8
0
 62
     0
 10
129.658
 20
9.36103
 30
0.0
 11
129.1
 21
9.64487
 31
0.0
  0
LINE
  8
0
 62
     0
 10
129.1
 20
9.64487
 30
0.0
 11
128.483
 21
9.74273
 31
0.0
  0
LINE
  8
0
 62
     0
 10
128.483
 20
9.74273
 30
0.0
 11
127.864
 21
9.64487
 31
0.0
  0
LINE
  8
0
 62
     0
 10
248.752
 20
9.64487
 30
0.0
 11
248.196
 21
9.36103
 31
0.0
  0
LINE
  8
0
 62
     0
 10
248.196
 20
9.36103
 30
0.0
 11
247.752
 21
8.91868
 31
0.0
  0
LINE
  8
0
 62
     0
 10
247.752
 20
8.91868
 30
0.0
 11
247.468
 21
8.36193
 31
0.0
  0
LINE
  8
0
 62
     0
 10
247.468
 20
8.36193
 30
0.0
 11
247.37
 21
7.74181
 31
0.0
  0
LINE
  8
0
 62
     0
 10
247.37
 20
7.74181
 30
0.0
 11
247.468
 21
7.12445
 31
0.0
  0
LINE
  8
0
 62
     0
 10
247.468
 20
7.12445
 30
0.0
 11
247.752
 21
6.56773
 31
0.0
  0
LINE
  8
0
 62
     0
 10
247.752
 20
6.56773
 30
0.0
 11
248.196
 21
6.12401
 31
0.0
  0
LINE
  8
0
 62
     0
 10
248.196
 20
6.12401
 30
0.0
 11
248.752
 21
5.84013
 31
0.0
  0
LINE
  8
0
 62
     0
 10
248.752
 20
5.84013
 30
0.0
 11
249.371
 21
5.74227
 31
0.0
  0
LINE
  8
0
 62
     0
 10
249.371
 20
5.74227
 30
0.0
 11
249.989
 21
5.84013
 31
0.0
  0
LINE
  8
0
 62
     0
 10
249.989
 20
5.84013
 30
0.0
 11
250.547
 21
6.12401
 31
0.0
  0
LINE
  8
0
 62
     0
 10
250.547
 20
6.12401
 30
0.0
 11
250.989
 21
6.56773
 31
0.0
  0
LINE
  8
0
 62
     0
 10
250.989
 20
6.56773
 30
0.0
 11
251.273
 21
7.12445
 31
0.0
  0
LINE
  8
0
 62
     0
 10
251.273
 20
7.12445
 30
0.0
 11
251.369
 21
7.74181
 31
0.0
  0
LINE
  8
0
 62
     0
 10
251.369
 20
7.74181
 30
0.0
 11
251.273
 21
8.36193
 31
0.0
  0
LINE
  8
0
 62
     0
 10
251.273
 20
8.36193
 30
0.0
 11
250.989
 21
8.91868
 31
0.0
  0
LINE
  8
0
 62
     0
 10
250.989
 20
8.91868
 30
0.0
 11
250.547
 21
9.36103
 31
0.0
  0
LINE
  8
0
 62
     0
 10
250.547
 20
9.36103
 30
0.0
 11
249.989
 21
9.64487
 31
0.0
  0
LINE
  8
0
 62
     0
 10
249.989
 20
9.64487
 30
0.0
 11
249.371
 21
9.74273
 31
0.0
  0
LINE
  8
0
 62
     0
 10
249.371
 20
9.74273
 30
0.0
 11
248.752
 21
9.64487
 31
0.0
  0
LINE
  8
0
 62
     0
 10
369.641
 20
9.64487
 30
0.0
 11
369.083
 21
9.36103
 31
0.0
  0
LINE
  8
0
 62
     0
 10
369.083
 20
9.36103
 30
0.0
 11
368.639
 21
8.91868
 31
0.0
  0
LINE
  8
0
 62
     0
 10
368.639
 20
8.91868
 30
0.0
 11
368.356
 21
8.36193
 31
0.0
  0
LINE
  8
0
 62
     0
 10
368.356
 20
8.36193
 30
0.0
 11
368.258
 21
7.74181
 31
0.0
  0
LINE
  8
0
 62
     0
 10
368.258
 20
7.74181
 30
0.0
 11
368.356
 21
7.12445
 31
0.0
  0
LINE
  8
0
 62
     0
 10
368.356
 20
7.12445
 30
0.0
 11
368.639
 21
6.56773
 31
0.0
  0
LINE
  8
0
 62
     0
 10
368.639
 20
6.56773
 30
0.0
 11
369.083
 21
6.12401
 31
0.0
  0
LINE
  8
0
 62
     0
 10
369.083
 20
6.12401
 30
0.0
 11
369.641
 21
5.84013
 31
0.0
  0
LINE
  8
0
 62
     0
 10
369.641
 20
5.84013
 30
0.0
 11
370.258
 21
5.74227
 31
0.0
  0
LINE
  8
0
 62
     0
 10
370.258
 20
5.74227
 30
0.0
 11
370.875
 21
5.84013
 31
0.0
  0
LINE
  8
0
 62
     0
 10
370.875
 20
5.84013
 30
0.0
 11
371.436
 21
6.12401
 31
0.0
  0
LINE
  8
0
 62
     0
 10
371.436
 20
6.12401
 30
0.0
 11
371.877
 21
6.56773
 31
0.0
  0
LINE
  8
0
 62
     0
 10
371.877
 20
6.56773
 30
0.0
 11
372.159
 21
7.12445
 31
0.0
  0
LINE
  8
0
 62
     0
 10
372.159
 20
7.12445
 30
0.0
 11
372.258
 21
7.74181
 31
0.0
  0
LINE
  8
0
 62
     0
 10
372.258
 20
7.74181
 30
0.0
 11
372.159
 21
8.36193
 31
0.0
  0
LINE
  8
0
 62
     0
 10
372.159
 20
8.36193
 30
0.0
 11
371.877
 21
8.91868
 31
0.0
  0
LINE
  8
0
 62
     0
 10
371.877
 20
8.91868
 30
0.0
 11
371.436
 21
9.36103
 31
0.0
  0
LINE
  8
0
 62
     0
 10
371.436
 20
9.36103
 30
0.0
 11
370.875
 21
9.64487
 31
0.0
  0
LINE
  8
0
 62
     0
 10
370.875
 20
9.64487
 30
0.0
 11
370.258
 21
9.74273
 31
0.0
  0
LINE
  8
0
 62
     0
 10
370.258
 20
9.74273
 30
0.0
 11
369.641
 21
9.64487
 31
0.0
  0
LINE
  8
0
 62
     0
 10
15.095
 20
139.069
 30
0.0
 11
362.758
 21
139.069
 31
0.0
  0
LINE
  8
0
 62
     0
 10
362.758
 20
139.069
 30
0.0
 11
362.758
 21
15.2425
 31
0.0
  0
LINE
  8
0
 62
     0
 10
362.758
 20
15.2425
 30
0.0
 11
15.095
 21
15.2425
 31
0.0
  0
LINE
  8
0
 62
     0
 10
15.095
 20
15.2425
 30
0.0
 11
15.095
 21
139.069
 31
0.0
  0
LINE
  8
0
 62
     0
 10
6.97699
 20
148.471
 30
0.0
 11
6.4189
 21
148.187
 31
0.0
  0
LINE
  8
0
 62
     0
 10
6.4189
 20
148.187
 30
0.0
 11
5.97655
 21
147.745
 31
0.0
  0
LINE
  8
0
 62
     0
 10
5.97655
 20
147.745
 30
0.0
 11
5.69267
 21
147.187
 31
0.0
  0
LINE
  8
0
 62
     0
 10
5.69267
 20
147.187
 30
0.0
 11
5.59484
 21
146.568
 31
0.0
  0
LINE
  8
0
 62
     0
 10
5.59484
 20
146.568
 30
0.0
 11
5.69267
 21
145.951
 31
0.0
  0
LINE
  8
0
 62
     0
 10
5.69267
 20
145.951
 30
0.0
 11
5.97655
 21
145.394
 31
0.0
  0
LINE
  8
0
 62
     0
 10
5.97655
 20
145.394
 30
0.0
 11
6.4189
 21
144.95
 31
0.0
  0
LINE
  8
0
 62
     0
 10
6.4189
 20
144.95
 30
0.0
 11
6.97699
 21
144.666
 31
0.0
  0
LINE
  8
0
 62
     0
 10
6.97699
 20
144.666
 30
0.0
 11
7.59576
 21
144.569
 31
0.0
  0
LINE
  8
0
 62
     0
 10
7.59576
 20
144.569
 30
0.0
 11
8.21313
 21
144.666
 31
0.0
  0
LINE
  8
0
 62
     0
 10
8.21313
 20
144.666
 30
0.0
 11
8.76984
 21
144.95
 31
0.0
  0
LINE
  8
0
 62
     0
 10
8.76984
 20
144.95
 30
0.0
 11
9.21357
 21
145.394
 31
0.0
  0
LINE
  8
0
 62
     0
 10
9.21357
 20
145.394
 30
0.0
 11
9.49745
 21
145.951
 31
0.0
  0
LINE
  8
0
 62
     0
 10
9.49745
 20
145.951
 30
0.0
 11
9.59527
 21
146.568
 31
0.0
  0
LINE
  8
0
 62
     0
 10
9.59527
 20
146.568
 30
0.0
 11
9.49745
 21
147.187
 31
0.0
  0
LINE
  8
0
 62
     0
 10
9.49745
 20
147.187
 30
0.0
 11
9.21357
 21
147.745
 31
0.0
  0
LINE
  8
0
 62
     0
 10
9.21357
 20
147.745
 30
0.0
 11
8.76984
 21
148.187
 31
0.0
  0
LINE
  8
0
 62
     0
 10
8.76984
 20
148.187
 30
0.0
 11
8.21313
 21
148.471
 31
0.0
  0
LINE
  8
0
 62
     0
 10
8.21313
 20
148.471
 30
0.0
 11
7.59576
 21
148.569
 31
0.0
  0
LINE
  8
0
 62
     0
 10
7.59576
 20
148.569
 30
0.0
 11
6.97699
 21
148.471
 31
0.0
  0
LINE
  8
0
 62
     0
 10
369.641
 20
148.471
 30
0.0
 11
369.083
 21
148.187
 31
0.0
  0
LINE
  8
0
 62
     0
 10
369.083
 20
148.187
 30
0.0
 11
368.639
 21
147.745
 31
0.0
  0
LINE
  8
0
 62
     0
 10
368.639
 20
147.745
 30
0.0
 11
368.356
 21
147.187
 31
0.0
  0
LINE
  8
0
 62
     0
 10
368.356
 20
147.187
 30
0.0
 11
368.258
 21
146.568
 31
0.0
  0
LINE
  8
0
 62
     0
 10
368.258
 20
146.568
 30
0.0
 11
368.356
 21
145.951
 31
0.0
  0
LINE
  8
0
 62
     0
 10
368.356
 20
145.951
 30
0.0
 11
368.639
 21
145.394
 31
0.0
  0
LINE
  8
0
 62
     0
 10
368.639
 20
145.394
 30
0.0
 11
369.083
 21
144.95
 31
0.0
  0
LINE
  8
0
 62
     0
 10
369.083
 20
144.95
 30
0.0
 11
369.641
 21
144.666
 31
0.0
  0
LINE
  8
0
 62
     0
 10
369.641
 20
144.666
 30
0.0
 11
370.258
 21
144.569
 31
0.0
  0
LINE
  8
0
 62
     0
 10
370.258
 20
144.569
 30
0.0
 11
370.875
 21
144.666
 31
0.0
  0
LINE
  8
0
 62
     0
 10
370.875
 20
144.666
 30
0.0
 11
371.436
 21
144.95
 31
0.0
  0
LINE
  8
0
 62
     0
 10
371.436
 20
144.95
 30
0.0
 11
371.877
 21
145.394
 31
0.0
  0
LINE
  8
0
 62
     0
 10
371.877
 20
145.394
 30
0.0
 11
372.159
 21
145.951
 31
0.0
  0
LINE
  8
0
 62
     0
 10
372.159
 20
145.951
 30
0.0
 11
372.258
 21
146.568
 31
0.0
  0
LINE
  8
0
 62
     0
 10
372.258
 20
146.568
 30
0.0
 11
372.159
 21
147.187
 31
0.0
  0
LINE
  8
0
 62
     0
 10
372.159
 20
147.187
 30
0.0
 11
371.877
 21
147.745
 31
0.0
  0
LINE
  8
0
 62
     0
 10
371.877
 20
147.745
 30
0.0
 11
371.436
 21
148.187
 31
0.0
  0
LINE
  8
0
 62
     0
 10
371.436
 20
148.187
 30
0.0
 11
370.875
 21
148.471
 31
0.0
  0
LINE
  8
0
 62
     0
 10
370.875
 20
148.471
 30
0.0
 11
370.258
 21
148.569
 31
0.0
  0
LINE
  8
0
 62
     0
 10
370.258
 20
148.569
 30
0.0
 11
369.641
 21
148.471
 31
0.0
  0
LINE
  8
0
 62
     0
 10
248.752
 20
148.471
 30
0.0
 11
248.196
 21
148.187
 31
0.0
  0
LINE
  8
0
 62
     0
 10
248.196
 20
148.187
 30
0.0
 11
247.752
 21
147.745
 31
0.0
  0
LINE
  8
0
 62
     0
 10
247.752
 20
147.745
 30
0.0
 11
247.468
 21
147.187
 31
0.0
  0
LINE
  8
0
 62
     0
 10
247.468
 20
147.187
 30
0.0
 11
247.37
 21
146.568
 31
0.0
  0
LINE
  8
0
 62
     0
 10
247.37
 20
146.568
 30
0.0
 11
247.468
 21
145.951
 31
0.0
  0
LINE
  8
0
 62
     0
 10
247.468
 20
145.951
 30
0.0
 11
247.752
 21
145.394
 31
0.0
  0
LINE
  8
0
 62
     0
 10
247.752
 20
145.394
 30
0.0
 11
248.196
 21
144.95
 31
0.0
  0
LINE
  8
0
 62
     0
 10
248.196
 20
144.95
 30
0.0
 11
248.752
 21
144.666
 31
0.0
  0
LINE
  8
0
 62
     0
 10
248.752
 20
144.666
 30
0.0
 11
249.371
 21
144.569
 31
0.0
  0
LINE
  8
0
 62
     0
 10
249.371
 20
144.569
 30
0.0
 11
249.989
 21
144.666
 31
0.0
  0
LINE
  8
0
 62
     0
 10
249.989
 20
144.666
 30
0.0
 11
250.547
 21
144.95
 31
0.0
  0
LINE
  8
0
 62
     0
 10
250.547
 20
144.95
 30
0.0
 11
250.989
 21
145.394
 31
0.0
  0
LINE
  8
0
 62
     0
 10
250.989
 20
145.394
 30
0.0
 11
251.273
 21
145.951
 31
0.0
  0
LINE
  8
0
 62
     0
 10
251.273
 20
145.951
 30
0.0
 11
251.369
 21
146.568
 31
0.0
  0
LINE
  8
0
 62
     0
 10
251.369
 20
146.568
 30
0.0
 11
251.273
 21
147.187
 31
0.0
  0
LINE
  8
0
 62
     0
 10
251.273
 20
147.187
 30
0.0
 11
250.989
 21
147.745
 31
0.0
  0
LINE
  8
0
 62
     0
 10
250.989
 20
147.745
 30
0.0
 11
250.547
 21
148.187
 31
0.0
  0
LINE
  8
0
 62
     0
 10
250.547
 20
148.187
 30
0.0
 11
249.989
 21
148.471
 31
0.0
  0
LINE
  8
0
 62
     0
 10
249.989
 20
148.471
 30
0.0
 11
249.371
 21
148.569
 31
0.0
  0
LINE
  8
0
 62
     0
 10
249.371
 20
148.569
 30
0.0
 11
248.752
 21
148.471
 31
0.0
  0
LINE
  8
0
 62
     0
 10
127.864
 20
148.471
 30
0.0
 11
127.307
 21
148.187
 31
0.0
  0
LINE
  8
0
 62
     0
 10
127.307
 20
148.187
 30
0.0
 11
126.865
 21
147.745
 31
0.0
  0
LINE
  8
0
 62
     0
 10
126.865
 20
147.745
 30
0.0
 11
126.581
 21
147.187
 31
0.0
  0
LINE
  8
0
 62
     0
 10
126.581
 20
147.187
 30
0.0
 11
126.482
 21
146.568
 31
0.0
  0
LINE
  8
0
 62
     0
 10
126.482
 20
146.568
 30
0.0
 11
126.581
 21
145.951
 31
0.0
  0
LINE
  8
0
 62
     0
 10
126.581
 20
145.951
 30
0.0
 11
126.865
 21
145.394
 31
0.0
  0
LINE
  8
0
 62
     0
 10
126.865
 20
145.394
 30
0.0
 11
127.307
 21
144.95
 31
0.0
  0
LINE
  8
0
 62
     0
 10
127.307
 20
144.95
 30
0.0
 11
127.864
 21
144.666
 31
0.0
  0
LINE
  8
0
 62
     0
 10
127.864
 20
144.666
 30
0.0
 11
128.483
 21
144.569
 31
0.0
  0
LINE
  8
0
 62
     0
 10
128.483
 20
144.569
 30
0.0
 11
129.1
 21
144.666
 31
0.0
  0
LINE
  8
0
 62
     0
 10
129.1
 20
144.666
 30
0.0
 11
129.658
 21
144.95
 31
0.0
  0
LINE
  8
0
 62
     0
 10
129.658
 20
144.95
 30
0.0
 11
130.101
 21
145.394
 31
0.0
  0
LINE
  8
0
 62
     0
 10
130.101
 20
145.394
 30
0.0
 11
130.385
 21
145.951
 31
0.0
  0
LINE
  8
0
 62
     0
 10
130.385
 20
145.951
 30
0.0
 11
130.482
 21
146.568
 31
0.0
  0
LINE
  8
0
 62
     0
 10
130.482
 20
146.568
 30
0.0
 11
130.385
 21
147.187
 31
0.0
  0
LINE
  8
0
 62
     0
 10
130.385
 20
147.187
 30
0.0
 11
130.101
 21
147.745
 31
0.0
  0
LINE
  8
0
 62
     0
 10
130.101
 20
147.745
 30
0.0
 11
129.658
 21
148.187
 31
0.0
  0
LINE
  8
0
 62
     0
 10
129.658
 20
148.187
 30
0.0
 11
129.1
 21
148.471
 31
0.0
  0
LINE
  8
0
 62
     0
 10
129.1
 20
148.471
 30
0.0
 11
128.483
 21
148.569
 31
0.0
  0
LINE
  8
0
 62
     0
 10
128.483
 20
148.569
 30
0.0
 11
127.864
 21
148.471
 31
0.0
  0
ENDSEC
  0
EOF
