%TF.GenerationSoftware,KiCad,Pcbnew,5.1.6-c6e7f7d~87~ubuntu20.04.1*%
%TF.CreationDate,2020-07-24T11:56:05+02:00*%
%TF.ProjectId,Keyboard-ISO,4b657962-6f61-4726-942d-49534f2e6b69,rev?*%
%TF.SameCoordinates,Original*%
%TF.FileFunction,Copper,L2,Bot*%
%TF.FilePolarity,Positive*%
%FSLAX46Y46*%
G04 Gerber Fmt 4.6, Leading zero omitted, Abs format (unit mm)*
G04 Created by KiCad (PCBNEW 5.1.6-c6e7f7d~87~ubuntu20.04.1) date 2020-07-24 11:56:05*
%MOMM*%
%LPD*%
G01*
G04 APERTURE LIST*
%TA.AperFunction,ComponentPad*%
%ADD10R,1.800000X1.800000*%
%TD*%
%TA.AperFunction,ComponentPad*%
%ADD11O,1.800000X1.800000*%
%TD*%
%TA.AperFunction,ComponentPad*%
%ADD12C,2.200000*%
%TD*%
%TA.AperFunction,ComponentPad*%
%ADD13O,3.200000X3.200000*%
%TD*%
%TA.AperFunction,ComponentPad*%
%ADD14R,3.200000X3.200000*%
%TD*%
%TA.AperFunction,ComponentPad*%
%ADD15R,1.600000X1.600000*%
%TD*%
%TA.AperFunction,ComponentPad*%
%ADD16C,1.600000*%
%TD*%
%TA.AperFunction,ComponentPad*%
%ADD17C,4.000000*%
%TD*%
%TA.AperFunction,ComponentPad*%
%ADD18C,9.000000*%
%TD*%
%TA.AperFunction,ViaPad*%
%ADD19C,0.800000*%
%TD*%
%TA.AperFunction,Conductor*%
%ADD20C,0.250000*%
%TD*%
G04 APERTURE END LIST*
D10*
%TO.P,D4,1*%
%TO.N,COL1*%
X45380000Y-97500000D03*
D11*
%TO.P,D4,2*%
%TO.N,Net-(D4-Pad2)*%
X53000000Y-97500000D03*
%TD*%
D10*
%TO.P,D5,1*%
%TO.N,COL2*%
X83380000Y-97500000D03*
D11*
%TO.P,D5,2*%
%TO.N,Net-(D5-Pad2)*%
X91000000Y-97500000D03*
%TD*%
%TO.P,D6,2*%
%TO.N,Net-(D6-Pad2)*%
X111000000Y-97500000D03*
D10*
%TO.P,D6,1*%
%TO.N,COL3*%
X103380000Y-97500000D03*
%TD*%
%TO.P,D7,1*%
%TO.N,COL4*%
X122880000Y-97500000D03*
D11*
%TO.P,D7,2*%
%TO.N,Net-(D7-Pad2)*%
X130500000Y-97500000D03*
%TD*%
%TO.P,D8,2*%
%TO.N,Net-(D8-Pad2)*%
X149500000Y-97500000D03*
D10*
%TO.P,D8,1*%
%TO.N,COL5*%
X141880000Y-97500000D03*
%TD*%
%TO.P,D9,1*%
%TO.N,COL6*%
X169500000Y-98500000D03*
D11*
%TO.P,D9,2*%
%TO.N,Net-(D9-Pad2)*%
X177120000Y-98500000D03*
%TD*%
D10*
%TO.P,D10,1*%
%TO.N,COL7*%
X189000000Y-98500000D03*
D11*
%TO.P,D10,2*%
%TO.N,Net-(D10-Pad2)*%
X196620000Y-98500000D03*
%TD*%
%TO.P,D11,2*%
%TO.N,Net-(D11-Pad2)*%
X216620000Y-99000000D03*
D10*
%TO.P,D11,1*%
%TO.N,COL8*%
X209000000Y-99000000D03*
%TD*%
%TO.P,D12,1*%
%TO.N,COL9*%
X228500000Y-99000000D03*
D11*
%TO.P,D12,2*%
%TO.N,Net-(D12-Pad2)*%
X236120000Y-99000000D03*
%TD*%
%TO.P,D13,2*%
%TO.N,Net-(D13-Pad2)*%
X262620000Y-99000000D03*
D10*
%TO.P,D13,1*%
%TO.N,COL10*%
X255000000Y-99000000D03*
%TD*%
D11*
%TO.P,D14,2*%
%TO.N,Net-(D14-Pad2)*%
X282120000Y-99000000D03*
D10*
%TO.P,D14,1*%
%TO.N,COL11*%
X274500000Y-99000000D03*
%TD*%
D11*
%TO.P,D15,2*%
%TO.N,Net-(D15-Pad2)*%
X303620000Y-99000000D03*
D10*
%TO.P,D15,1*%
%TO.N,COL12*%
X296000000Y-99000000D03*
%TD*%
D11*
%TO.P,D16,2*%
%TO.N,Net-(D16-Pad2)*%
X322620000Y-99000000D03*
D10*
%TO.P,D16,1*%
%TO.N,COL13*%
X315000000Y-99000000D03*
%TD*%
%TO.P,D17,1*%
%TO.N,COL14*%
X335000000Y-99000000D03*
D11*
%TO.P,D17,2*%
%TO.N,Net-(D17-Pad2)*%
X342620000Y-99000000D03*
%TD*%
%TO.P,D18,2*%
%TO.N,Net-(D18-Pad2)*%
X361620000Y-99000000D03*
D10*
%TO.P,D18,1*%
%TO.N,COL15*%
X354000000Y-99000000D03*
%TD*%
%TO.P,D19,1*%
%TO.N,COL16*%
X374000000Y-99000000D03*
D11*
%TO.P,D19,2*%
%TO.N,Net-(D19-Pad2)*%
X381620000Y-99000000D03*
%TD*%
%TO.P,D20,2*%
%TO.N,Net-(D20-Pad2)*%
X57120000Y-122500000D03*
D10*
%TO.P,D20,1*%
%TO.N,COL1*%
X49500000Y-122500000D03*
%TD*%
D11*
%TO.P,D21,2*%
%TO.N,Net-(D21-Pad2)*%
X82000000Y-122500000D03*
D10*
%TO.P,D21,1*%
%TO.N,COL2*%
X74380000Y-122500000D03*
%TD*%
D11*
%TO.P,D22,2*%
%TO.N,Net-(D22-Pad2)*%
X97120000Y-122500000D03*
D10*
%TO.P,D22,1*%
%TO.N,COL3*%
X89500000Y-122500000D03*
%TD*%
%TO.P,D23,1*%
%TO.N,COL4*%
X109880000Y-122500000D03*
D11*
%TO.P,D23,2*%
%TO.N,Net-(D23-Pad2)*%
X117500000Y-122500000D03*
%TD*%
%TO.P,D24,2*%
%TO.N,Net-(D24-Pad2)*%
X137500000Y-122500000D03*
D10*
%TO.P,D24,1*%
%TO.N,COL5*%
X129880000Y-122500000D03*
%TD*%
%TO.P,D25,1*%
%TO.N,COL6*%
X149880000Y-122500000D03*
D11*
%TO.P,D25,2*%
%TO.N,Net-(D25-Pad2)*%
X157500000Y-122500000D03*
%TD*%
D10*
%TO.P,D26,1*%
%TO.N,COL7*%
X169880000Y-122500000D03*
D11*
%TO.P,D26,2*%
%TO.N,Net-(D26-Pad2)*%
X177500000Y-122500000D03*
%TD*%
D10*
%TO.P,D27,1*%
%TO.N,COL8*%
X188880000Y-122500000D03*
D11*
%TO.P,D27,2*%
%TO.N,Net-(D27-Pad2)*%
X196500000Y-122500000D03*
%TD*%
D10*
%TO.P,D28,1*%
%TO.N,COL9*%
X209880000Y-122500000D03*
D11*
%TO.P,D28,2*%
%TO.N,Net-(D28-Pad2)*%
X217500000Y-122500000D03*
%TD*%
%TO.P,D29,2*%
%TO.N,Net-(D29-Pad2)*%
X236500000Y-122500000D03*
D10*
%TO.P,D29,1*%
%TO.N,COL10*%
X228880000Y-122500000D03*
%TD*%
%TO.P,D30,1*%
%TO.N,COL11*%
X249880000Y-122500000D03*
D11*
%TO.P,D30,2*%
%TO.N,Net-(D30-Pad2)*%
X257500000Y-122500000D03*
%TD*%
D10*
%TO.P,D31,1*%
%TO.N,COL12*%
X268880000Y-122500000D03*
D11*
%TO.P,D31,2*%
%TO.N,Net-(D31-Pad2)*%
X276500000Y-122500000D03*
%TD*%
%TO.P,D32,2*%
%TO.N,Net-(D32-Pad2)*%
X306500000Y-122000000D03*
D10*
%TO.P,D32,1*%
%TO.N,COL13*%
X298880000Y-122000000D03*
%TD*%
D11*
%TO.P,D33,2*%
%TO.N,Net-(D33-Pad2)*%
X343000000Y-123000000D03*
D10*
%TO.P,D33,1*%
%TO.N,COL14*%
X335380000Y-123000000D03*
%TD*%
D11*
%TO.P,D34,2*%
%TO.N,Net-(D34-Pad2)*%
X362000000Y-123000000D03*
D10*
%TO.P,D34,1*%
%TO.N,COL15*%
X354380000Y-123000000D03*
%TD*%
%TO.P,D35,1*%
%TO.N,COL16*%
X374000000Y-123000000D03*
D11*
%TO.P,D35,2*%
%TO.N,Net-(D35-Pad2)*%
X381620000Y-123000000D03*
%TD*%
D10*
%TO.P,D36,1*%
%TO.N,COL1*%
X51000000Y-146500000D03*
D11*
%TO.P,D36,2*%
%TO.N,Net-(D36-Pad2)*%
X58620000Y-146500000D03*
%TD*%
%TO.P,D37,2*%
%TO.N,Net-(D37-Pad2)*%
X81620000Y-146500000D03*
D10*
%TO.P,D37,1*%
%TO.N,COL2*%
X74000000Y-146500000D03*
%TD*%
D11*
%TO.P,D38,2*%
%TO.N,Net-(D38-Pad2)*%
X101620000Y-146500000D03*
D10*
%TO.P,D38,1*%
%TO.N,COL3*%
X94000000Y-146500000D03*
%TD*%
D11*
%TO.P,D39,2*%
%TO.N,Net-(D39-Pad2)*%
X121120000Y-146500000D03*
D10*
%TO.P,D39,1*%
%TO.N,COL4*%
X113500000Y-146500000D03*
%TD*%
D11*
%TO.P,D40,2*%
%TO.N,Net-(D40-Pad2)*%
X141000000Y-146500000D03*
D10*
%TO.P,D40,1*%
%TO.N,COL5*%
X133380000Y-146500000D03*
%TD*%
D11*
%TO.P,D41,2*%
%TO.N,Net-(D41-Pad2)*%
X160620000Y-146500000D03*
D10*
%TO.P,D41,1*%
%TO.N,COL6*%
X153000000Y-146500000D03*
%TD*%
%TO.P,D42,1*%
%TO.N,COL7*%
X174000000Y-146500000D03*
D11*
%TO.P,D42,2*%
%TO.N,Net-(D42-Pad2)*%
X181620000Y-146500000D03*
%TD*%
D10*
%TO.P,D43,1*%
%TO.N,COL8*%
X194000000Y-146500000D03*
D11*
%TO.P,D43,2*%
%TO.N,Net-(D43-Pad2)*%
X201620000Y-146500000D03*
%TD*%
D10*
%TO.P,D44,1*%
%TO.N,COL9*%
X213000000Y-146500000D03*
D11*
%TO.P,D44,2*%
%TO.N,Net-(D44-Pad2)*%
X220620000Y-146500000D03*
%TD*%
D10*
%TO.P,D45,1*%
%TO.N,COL10*%
X234000000Y-146500000D03*
D11*
%TO.P,D45,2*%
%TO.N,Net-(D45-Pad2)*%
X241620000Y-146500000D03*
%TD*%
D10*
%TO.P,D46,1*%
%TO.N,COL11*%
X254000000Y-146500000D03*
D11*
%TO.P,D46,2*%
%TO.N,Net-(D46-Pad2)*%
X261620000Y-146500000D03*
%TD*%
D10*
%TO.P,D47,1*%
%TO.N,COL12*%
X274000000Y-146500000D03*
D11*
%TO.P,D47,2*%
%TO.N,Net-(D47-Pad2)*%
X281620000Y-146500000D03*
%TD*%
%TO.P,D48,2*%
%TO.N,Net-(D48-Pad2)*%
X309000000Y-165000000D03*
D10*
%TO.P,D48,1*%
%TO.N,COL13*%
X301380000Y-165000000D03*
%TD*%
%TO.P,D49,1*%
%TO.N,COL14*%
X335000000Y-147000000D03*
D11*
%TO.P,D49,2*%
%TO.N,Net-(D49-Pad2)*%
X342620000Y-147000000D03*
%TD*%
%TO.P,D50,2*%
%TO.N,Net-(D50-Pad2)*%
X361620000Y-147000000D03*
D10*
%TO.P,D50,1*%
%TO.N,COL15*%
X354000000Y-147000000D03*
%TD*%
D11*
%TO.P,D51,2*%
%TO.N,Net-(D51-Pad2)*%
X382620000Y-147000000D03*
D10*
%TO.P,D51,1*%
%TO.N,COL16*%
X375000000Y-147000000D03*
%TD*%
D11*
%TO.P,D52,2*%
%TO.N,Net-(D52-Pad2)*%
X66620000Y-169500000D03*
D10*
%TO.P,D52,1*%
%TO.N,COL1*%
X59000000Y-169500000D03*
%TD*%
D11*
%TO.P,D53,2*%
%TO.N,Net-(D53-Pad2)*%
X86620000Y-169500000D03*
D10*
%TO.P,D53,1*%
%TO.N,COL2*%
X79000000Y-169500000D03*
%TD*%
%TO.P,D54,1*%
%TO.N,COL3*%
X98000000Y-169500000D03*
D11*
%TO.P,D54,2*%
%TO.N,Net-(D54-Pad2)*%
X105620000Y-169500000D03*
%TD*%
D10*
%TO.P,D55,1*%
%TO.N,COL4*%
X118000000Y-169500000D03*
D11*
%TO.P,D55,2*%
%TO.N,Net-(D55-Pad2)*%
X125620000Y-169500000D03*
%TD*%
%TO.P,D56,2*%
%TO.N,Net-(D56-Pad2)*%
X145620000Y-169500000D03*
D10*
%TO.P,D56,1*%
%TO.N,COL5*%
X138000000Y-169500000D03*
%TD*%
D11*
%TO.P,D57,2*%
%TO.N,Net-(D57-Pad2)*%
X165620000Y-169500000D03*
D10*
%TO.P,D57,1*%
%TO.N,COL6*%
X158000000Y-169500000D03*
%TD*%
D11*
%TO.P,D58,2*%
%TO.N,Net-(D58-Pad2)*%
X185620000Y-169500000D03*
D10*
%TO.P,D58,1*%
%TO.N,COL7*%
X178000000Y-169500000D03*
%TD*%
D11*
%TO.P,D59,2*%
%TO.N,Net-(D59-Pad2)*%
X205620000Y-169500000D03*
D10*
%TO.P,D59,1*%
%TO.N,COL8*%
X198000000Y-169500000D03*
%TD*%
%TO.P,D60,1*%
%TO.N,COL9*%
X218000000Y-169500000D03*
D11*
%TO.P,D60,2*%
%TO.N,Net-(D60-Pad2)*%
X225620000Y-169500000D03*
%TD*%
D10*
%TO.P,D65,1*%
%TO.N,COL2*%
X88500000Y-191500000D03*
D11*
%TO.P,D65,2*%
%TO.N,Net-(D65-Pad2)*%
X96120000Y-191500000D03*
%TD*%
%TO.P,D66,2*%
%TO.N,Net-(D66-Pad2)*%
X116120000Y-191500000D03*
D10*
%TO.P,D66,1*%
%TO.N,COL3*%
X108500000Y-191500000D03*
%TD*%
%TO.P,D67,1*%
%TO.N,COL4*%
X128500000Y-191500000D03*
D11*
%TO.P,D67,2*%
%TO.N,Net-(D67-Pad2)*%
X136120000Y-191500000D03*
%TD*%
D10*
%TO.P,D68,1*%
%TO.N,COL5*%
X149500000Y-191500000D03*
D11*
%TO.P,D68,2*%
%TO.N,Net-(D68-Pad2)*%
X157120000Y-191500000D03*
%TD*%
%TO.P,D69,2*%
%TO.N,Net-(D69-Pad2)*%
X176120000Y-191500000D03*
D10*
%TO.P,D69,1*%
%TO.N,COL6*%
X168500000Y-191500000D03*
%TD*%
D11*
%TO.P,D70,2*%
%TO.N,Net-(D70-Pad2)*%
X196120000Y-191500000D03*
D10*
%TO.P,D70,1*%
%TO.N,COL7*%
X188500000Y-191500000D03*
%TD*%
D11*
%TO.P,D71,2*%
%TO.N,Net-(D71-Pad2)*%
X216120000Y-191500000D03*
D10*
%TO.P,D71,1*%
%TO.N,COL8*%
X208500000Y-191500000D03*
%TD*%
%TO.P,D72,1*%
%TO.N,COL9*%
X228500000Y-191500000D03*
D11*
%TO.P,D72,2*%
%TO.N,Net-(D72-Pad2)*%
X236120000Y-191500000D03*
%TD*%
D10*
%TO.P,D73,1*%
%TO.N,COL10*%
X248500000Y-191500000D03*
D11*
%TO.P,D73,2*%
%TO.N,Net-(D73-Pad2)*%
X256120000Y-191500000D03*
%TD*%
D10*
%TO.P,D74,1*%
%TO.N,COL11*%
X268500000Y-191500000D03*
D11*
%TO.P,D74,2*%
%TO.N,Net-(D74-Pad2)*%
X276120000Y-191500000D03*
%TD*%
D10*
%TO.P,D75,1*%
%TO.N,COL12*%
X294880000Y-191500000D03*
D11*
%TO.P,D75,2*%
%TO.N,Net-(D75-Pad2)*%
X302500000Y-191500000D03*
%TD*%
%TO.P,D76,2*%
%TO.N,Net-(D76-Pad2)*%
X363120000Y-169000000D03*
D10*
%TO.P,D76,1*%
%TO.N,COL13*%
X355500000Y-169000000D03*
%TD*%
D11*
%TO.P,D77,2*%
%TO.N,Net-(D77-Pad2)*%
X75500000Y-215500000D03*
D10*
%TO.P,D77,1*%
%TO.N,COL1*%
X67880000Y-215500000D03*
%TD*%
%TO.P,D81,1*%
%TO.N,COL5*%
X252500000Y-215500000D03*
D11*
%TO.P,D81,2*%
%TO.N,Net-(D81-Pad2)*%
X260120000Y-215500000D03*
%TD*%
D10*
%TO.P,D82,1*%
%TO.N,COL6*%
X274000000Y-215500000D03*
D11*
%TO.P,D82,2*%
%TO.N,Net-(D82-Pad2)*%
X281620000Y-215500000D03*
%TD*%
%TO.P,D83,2*%
%TO.N,Net-(D83-Pad2)*%
X305620000Y-215500000D03*
D10*
%TO.P,D83,1*%
%TO.N,COL7*%
X298000000Y-215500000D03*
%TD*%
D11*
%TO.P,D84,2*%
%TO.N,Net-(D84-Pad2)*%
X342620000Y-191500000D03*
D10*
%TO.P,D84,1*%
%TO.N,COL8*%
X335000000Y-191500000D03*
%TD*%
D11*
%TO.P,D85,2*%
%TO.N,Net-(D85-Pad2)*%
X362120000Y-191500000D03*
D10*
%TO.P,D85,1*%
%TO.N,COL9*%
X354500000Y-191500000D03*
%TD*%
%TO.P,D86,1*%
%TO.N,COL10*%
X374380000Y-191500000D03*
D11*
%TO.P,D86,2*%
%TO.N,Net-(D86-Pad2)*%
X382000000Y-191500000D03*
%TD*%
D12*
%TO.P,SW1,1*%
%TO.N,ROW1*%
X51500000Y-80500000D03*
%TO.P,SW1,2*%
%TO.N,Net-(D4-Pad2)*%
X45150000Y-83040000D03*
%TD*%
%TO.P,SW2,2*%
%TO.N,Net-(D5-Pad2)*%
X82190000Y-83040000D03*
%TO.P,SW2,1*%
%TO.N,ROW1*%
X88540000Y-80500000D03*
%TD*%
%TO.P,SW3,1*%
%TO.N,ROW1*%
X108500000Y-80500000D03*
%TO.P,SW3,2*%
%TO.N,Net-(D6-Pad2)*%
X102150000Y-83040000D03*
%TD*%
%TO.P,SW4,1*%
%TO.N,ROW1*%
X128500000Y-80500000D03*
%TO.P,SW4,2*%
%TO.N,Net-(D7-Pad2)*%
X122150000Y-83040000D03*
%TD*%
%TO.P,SW5,2*%
%TO.N,Net-(D8-Pad2)*%
X142190000Y-82960000D03*
%TO.P,SW5,1*%
%TO.N,ROW1*%
X148540000Y-80420000D03*
%TD*%
%TO.P,SW6,1*%
%TO.N,ROW1*%
X175040000Y-80500000D03*
%TO.P,SW6,2*%
%TO.N,Net-(D9-Pad2)*%
X168690000Y-83040000D03*
%TD*%
%TO.P,SW7,2*%
%TO.N,Net-(D10-Pad2)*%
X188650000Y-83040000D03*
%TO.P,SW7,1*%
%TO.N,ROW1*%
X195000000Y-80500000D03*
%TD*%
%TO.P,SW8,1*%
%TO.N,ROW1*%
X215000000Y-80500000D03*
%TO.P,SW8,2*%
%TO.N,Net-(D11-Pad2)*%
X208650000Y-83040000D03*
%TD*%
%TO.P,SW9,2*%
%TO.N,Net-(D12-Pad2)*%
X228150000Y-83040000D03*
%TO.P,SW9,1*%
%TO.N,ROW1*%
X234500000Y-80500000D03*
%TD*%
%TO.P,SW10,2*%
%TO.N,Net-(D13-Pad2)*%
X255150000Y-83040000D03*
%TO.P,SW10,1*%
%TO.N,ROW1*%
X261500000Y-80500000D03*
%TD*%
%TO.P,SW11,1*%
%TO.N,ROW1*%
X281500000Y-80500000D03*
%TO.P,SW11,2*%
%TO.N,Net-(D14-Pad2)*%
X275150000Y-83040000D03*
%TD*%
%TO.P,SW12,2*%
%TO.N,Net-(D15-Pad2)*%
X295190000Y-83040000D03*
%TO.P,SW12,1*%
%TO.N,ROW1*%
X301540000Y-80500000D03*
%TD*%
%TO.P,SW13,1*%
%TO.N,ROW1*%
X321540000Y-80420000D03*
%TO.P,SW13,2*%
%TO.N,Net-(D16-Pad2)*%
X315190000Y-82960000D03*
%TD*%
%TO.P,SW14,1*%
%TO.N,ROW1*%
X341540000Y-80420000D03*
%TO.P,SW14,2*%
%TO.N,Net-(D17-Pad2)*%
X335190000Y-82960000D03*
%TD*%
%TO.P,SW15,2*%
%TO.N,Net-(D18-Pad2)*%
X354770000Y-82960000D03*
%TO.P,SW15,1*%
%TO.N,ROW1*%
X361120000Y-80420000D03*
%TD*%
%TO.P,SW16,1*%
%TO.N,ROW1*%
X381120000Y-80420000D03*
%TO.P,SW16,2*%
%TO.N,Net-(D19-Pad2)*%
X374770000Y-82960000D03*
%TD*%
%TO.P,SW19,2*%
%TO.N,Net-(D22-Pad2)*%
X94150000Y-108040000D03*
%TO.P,SW19,1*%
%TO.N,ROW2*%
X100500000Y-105500000D03*
%TD*%
%TO.P,SW20,2*%
%TO.N,Net-(D23-Pad2)*%
X114150000Y-108040000D03*
%TO.P,SW20,1*%
%TO.N,ROW2*%
X120500000Y-105500000D03*
%TD*%
%TO.P,SW21,2*%
%TO.N,Net-(D24-Pad2)*%
X134150000Y-108040000D03*
%TO.P,SW21,1*%
%TO.N,ROW2*%
X140500000Y-105500000D03*
%TD*%
%TO.P,SW22,1*%
%TO.N,ROW2*%
X160500000Y-105500000D03*
%TO.P,SW22,2*%
%TO.N,Net-(D25-Pad2)*%
X154150000Y-108040000D03*
%TD*%
%TO.P,SW23,2*%
%TO.N,Net-(D26-Pad2)*%
X174150000Y-108040000D03*
%TO.P,SW23,1*%
%TO.N,ROW2*%
X180500000Y-105500000D03*
%TD*%
%TO.P,SW24,1*%
%TO.N,ROW2*%
X200500000Y-105500000D03*
%TO.P,SW24,2*%
%TO.N,Net-(D27-Pad2)*%
X194150000Y-108040000D03*
%TD*%
%TO.P,SW25,2*%
%TO.N,Net-(D28-Pad2)*%
X214150000Y-108040000D03*
%TO.P,SW25,1*%
%TO.N,ROW2*%
X220500000Y-105500000D03*
%TD*%
%TO.P,SW26,1*%
%TO.N,ROW2*%
X240500000Y-105500000D03*
%TO.P,SW26,2*%
%TO.N,Net-(D29-Pad2)*%
X234150000Y-108040000D03*
%TD*%
%TO.P,SW27,2*%
%TO.N,Net-(D30-Pad2)*%
X254150000Y-108040000D03*
%TO.P,SW27,1*%
%TO.N,ROW2*%
X260500000Y-105500000D03*
%TD*%
%TO.P,SW28,1*%
%TO.N,ROW2*%
X280500000Y-105500000D03*
%TO.P,SW28,2*%
%TO.N,Net-(D31-Pad2)*%
X274150000Y-108040000D03*
%TD*%
%TO.P,SW31,1*%
%TO.N,ROW2*%
X361000000Y-106000000D03*
%TO.P,SW31,2*%
%TO.N,Net-(D34-Pad2)*%
X354650000Y-108540000D03*
%TD*%
%TO.P,SW32,2*%
%TO.N,Net-(D35-Pad2)*%
X374650000Y-108540000D03*
%TO.P,SW32,1*%
%TO.N,ROW2*%
X381000000Y-106000000D03*
%TD*%
%TO.P,SW35,1*%
%TO.N,ROW3*%
X100000000Y-129500000D03*
%TO.P,SW35,2*%
%TO.N,Net-(D38-Pad2)*%
X93650000Y-132040000D03*
%TD*%
%TO.P,SW36,1*%
%TO.N,ROW3*%
X120000000Y-129500000D03*
%TO.P,SW36,2*%
%TO.N,Net-(D39-Pad2)*%
X113650000Y-132040000D03*
%TD*%
%TO.P,SW37,2*%
%TO.N,Net-(D40-Pad2)*%
X133650000Y-132040000D03*
%TO.P,SW37,1*%
%TO.N,ROW3*%
X140000000Y-129500000D03*
%TD*%
%TO.P,SW38,1*%
%TO.N,ROW3*%
X160000000Y-129500000D03*
%TO.P,SW38,2*%
%TO.N,Net-(D41-Pad2)*%
X153650000Y-132040000D03*
%TD*%
%TO.P,SW39,2*%
%TO.N,Net-(D42-Pad2)*%
X173650000Y-132040000D03*
%TO.P,SW39,1*%
%TO.N,ROW3*%
X180000000Y-129500000D03*
%TD*%
%TO.P,SW40,1*%
%TO.N,ROW3*%
X200000000Y-129500000D03*
%TO.P,SW40,2*%
%TO.N,Net-(D43-Pad2)*%
X193650000Y-132040000D03*
%TD*%
%TO.P,SW41,2*%
%TO.N,Net-(D44-Pad2)*%
X213650000Y-132040000D03*
%TO.P,SW41,1*%
%TO.N,ROW3*%
X220000000Y-129500000D03*
%TD*%
%TO.P,SW42,2*%
%TO.N,Net-(D45-Pad2)*%
X233650000Y-132040000D03*
%TO.P,SW42,1*%
%TO.N,ROW3*%
X240000000Y-129500000D03*
%TD*%
%TO.P,SW43,1*%
%TO.N,ROW3*%
X260000000Y-129500000D03*
%TO.P,SW43,2*%
%TO.N,Net-(D46-Pad2)*%
X253650000Y-132040000D03*
%TD*%
%TO.P,SW44,2*%
%TO.N,Net-(D47-Pad2)*%
X273650000Y-132040000D03*
%TO.P,SW44,1*%
%TO.N,ROW3*%
X280000000Y-129500000D03*
%TD*%
%TO.P,SW46,1*%
%TO.N,ROW3*%
X341000000Y-130000000D03*
%TO.P,SW46,2*%
%TO.N,Net-(D49-Pad2)*%
X334650000Y-132540000D03*
%TD*%
%TO.P,SW47,2*%
%TO.N,Net-(D50-Pad2)*%
X354650000Y-132540000D03*
%TO.P,SW47,1*%
%TO.N,ROW3*%
X361000000Y-130000000D03*
%TD*%
%TO.P,SW48,1*%
%TO.N,ROW3*%
X381000000Y-130000000D03*
%TO.P,SW48,2*%
%TO.N,Net-(D51-Pad2)*%
X374650000Y-132540000D03*
%TD*%
%TO.P,SW49,2*%
%TO.N,Net-(D52-Pad2)*%
X58190000Y-155540000D03*
%TO.P,SW49,1*%
%TO.N,ROW4*%
X64540000Y-153000000D03*
%TD*%
%TO.P,SW50,2*%
%TO.N,Net-(D53-Pad2)*%
X78150000Y-155540000D03*
%TO.P,SW50,1*%
%TO.N,ROW4*%
X84500000Y-153000000D03*
%TD*%
%TO.P,SW51,2*%
%TO.N,Net-(D54-Pad2)*%
X98150000Y-155540000D03*
%TO.P,SW51,1*%
%TO.N,ROW4*%
X104500000Y-153000000D03*
%TD*%
%TO.P,SW52,2*%
%TO.N,Net-(D55-Pad2)*%
X118150000Y-155540000D03*
%TO.P,SW52,1*%
%TO.N,ROW4*%
X124500000Y-153000000D03*
%TD*%
%TO.P,SW53,1*%
%TO.N,ROW4*%
X144500000Y-153000000D03*
%TO.P,SW53,2*%
%TO.N,Net-(D56-Pad2)*%
X138150000Y-155540000D03*
%TD*%
%TO.P,SW54,2*%
%TO.N,Net-(D57-Pad2)*%
X158150000Y-155540000D03*
%TO.P,SW54,1*%
%TO.N,ROW4*%
X164500000Y-153000000D03*
%TD*%
%TO.P,SW55,1*%
%TO.N,ROW4*%
X184500000Y-153000000D03*
%TO.P,SW55,2*%
%TO.N,Net-(D58-Pad2)*%
X178150000Y-155540000D03*
%TD*%
%TO.P,SW56,2*%
%TO.N,Net-(D59-Pad2)*%
X198150000Y-155540000D03*
%TO.P,SW56,1*%
%TO.N,ROW4*%
X204500000Y-153000000D03*
%TD*%
%TO.P,SW57,1*%
%TO.N,ROW4*%
X224500000Y-153000000D03*
%TO.P,SW57,2*%
%TO.N,Net-(D60-Pad2)*%
X218150000Y-155540000D03*
%TD*%
%TO.P,SW58,1*%
%TO.N,ROW4*%
X244500000Y-153000000D03*
%TO.P,SW58,2*%
%TO.N,Net-(D61-Pad2)*%
X238150000Y-155540000D03*
%TD*%
%TO.P,SW59,2*%
%TO.N,Net-(D62-Pad2)*%
X258150000Y-155540000D03*
%TO.P,SW59,1*%
%TO.N,ROW4*%
X264500000Y-153000000D03*
%TD*%
%TO.P,SW60,1*%
%TO.N,ROW4*%
X284500000Y-153000000D03*
%TO.P,SW60,2*%
%TO.N,Net-(D63-Pad2)*%
X278150000Y-155540000D03*
%TD*%
%TO.P,SW65,1*%
%TO.N,ROW5*%
X155040000Y-175420000D03*
%TO.P,SW65,2*%
%TO.N,Net-(D68-Pad2)*%
X148690000Y-177960000D03*
%TD*%
%TO.P,SW66,2*%
%TO.N,Net-(D69-Pad2)*%
X168690000Y-177960000D03*
%TO.P,SW66,1*%
%TO.N,ROW5*%
X175040000Y-175420000D03*
%TD*%
%TO.P,SW67,2*%
%TO.N,Net-(D70-Pad2)*%
X188690000Y-177960000D03*
%TO.P,SW67,1*%
%TO.N,ROW5*%
X195040000Y-175420000D03*
%TD*%
%TO.P,SW68,1*%
%TO.N,ROW5*%
X215000000Y-175500000D03*
%TO.P,SW68,2*%
%TO.N,Net-(D71-Pad2)*%
X208650000Y-178040000D03*
%TD*%
%TO.P,SW69,2*%
%TO.N,Net-(D72-Pad2)*%
X228650000Y-178040000D03*
%TO.P,SW69,1*%
%TO.N,ROW5*%
X235000000Y-175500000D03*
%TD*%
%TO.P,SW70,2*%
%TO.N,Net-(D73-Pad2)*%
X248650000Y-178040000D03*
%TO.P,SW70,1*%
%TO.N,ROW5*%
X255000000Y-175500000D03*
%TD*%
%TO.P,SW71,2*%
%TO.N,Net-(D74-Pad2)*%
X268650000Y-178040000D03*
%TO.P,SW71,1*%
%TO.N,ROW5*%
X275000000Y-175500000D03*
%TD*%
%TO.P,SW76,1*%
%TO.N,ROW6*%
X119000000Y-198420000D03*
%TO.P,SW76,2*%
%TO.N,Net-(D79-Pad2)*%
X112650000Y-200960000D03*
%TD*%
%TO.P,SW82,2*%
%TO.N,Net-(D85-Pad2)*%
X354690000Y-200460000D03*
%TO.P,SW82,1*%
%TO.N,ROW6*%
X361040000Y-197920000D03*
%TD*%
%TO.P,SW83,2*%
%TO.N,Net-(D86-Pad2)*%
X374690000Y-200460000D03*
%TO.P,SW83,1*%
%TO.N,ROW6*%
X381040000Y-197920000D03*
%TD*%
D11*
%TO.P,D61,2*%
%TO.N,Net-(D61-Pad2)*%
X245620000Y-169500000D03*
D10*
%TO.P,D61,1*%
%TO.N,COL10*%
X238000000Y-169500000D03*
%TD*%
%TO.P,D62,1*%
%TO.N,COL11*%
X258000000Y-169500000D03*
D11*
%TO.P,D62,2*%
%TO.N,Net-(D62-Pad2)*%
X265620000Y-169500000D03*
%TD*%
D10*
%TO.P,D63,1*%
%TO.N,COL12*%
X278000000Y-169500000D03*
D11*
%TO.P,D63,2*%
%TO.N,Net-(D63-Pad2)*%
X285620000Y-169500000D03*
%TD*%
D10*
%TO.P,D64,1*%
%TO.N,COL1*%
X67500000Y-191500000D03*
D11*
%TO.P,D64,2*%
%TO.N,Net-(D64-Pad2)*%
X75120000Y-191500000D03*
%TD*%
D10*
%TO.P,D78,1*%
%TO.N,COL2*%
X92500000Y-215500000D03*
D11*
%TO.P,D78,2*%
%TO.N,Net-(D78-Pad2)*%
X100120000Y-215500000D03*
%TD*%
%TO.P,D79,2*%
%TO.N,Net-(D79-Pad2)*%
X120000000Y-215000000D03*
D10*
%TO.P,D79,1*%
%TO.N,COL3*%
X112380000Y-215000000D03*
%TD*%
D11*
%TO.P,D80,2*%
%TO.N,Net-(D80-Pad2)*%
X190500000Y-215500000D03*
D10*
%TO.P,D80,1*%
%TO.N,COL4*%
X182880000Y-215500000D03*
%TD*%
D12*
%TO.P,SW61,2*%
%TO.N,Net-(D64-Pad2)*%
X68690000Y-177960000D03*
%TO.P,SW61,1*%
%TO.N,ROW5*%
X75040000Y-175420000D03*
%TD*%
%TO.P,SW62,1*%
%TO.N,ROW5*%
X95040000Y-175420000D03*
%TO.P,SW62,2*%
%TO.N,Net-(D65-Pad2)*%
X88690000Y-177960000D03*
%TD*%
%TO.P,SW63,2*%
%TO.N,Net-(D66-Pad2)*%
X108690000Y-177960000D03*
%TO.P,SW63,1*%
%TO.N,ROW5*%
X115040000Y-175420000D03*
%TD*%
%TO.P,SW64,1*%
%TO.N,ROW5*%
X135040000Y-175420000D03*
%TO.P,SW64,2*%
%TO.N,Net-(D67-Pad2)*%
X128690000Y-177960000D03*
%TD*%
%TO.P,SW79,1*%
%TO.N,ROW6*%
X280040000Y-198420000D03*
%TO.P,SW79,2*%
%TO.N,Net-(D82-Pad2)*%
X273690000Y-200960000D03*
%TD*%
D13*
%TO.P,D1,2*%
%TO.N,Net-(D1-Pad2)*%
X342620000Y-69500000D03*
D14*
%TO.P,D1,1*%
%TO.N,/GND*%
X335000000Y-69500000D03*
%TD*%
%TO.P,D2,1*%
%TO.N,/GND*%
X354000000Y-69500000D03*
D13*
%TO.P,D2,2*%
%TO.N,Net-(D2-Pad2)*%
X361620000Y-69500000D03*
%TD*%
D14*
%TO.P,D3,1*%
%TO.N,/GND*%
X375000000Y-69500000D03*
D13*
%TO.P,D3,2*%
%TO.N,Net-(D3-Pad2)*%
X382620000Y-69500000D03*
%TD*%
D12*
%TO.P,SW45,1*%
%TO.N,ROW3*%
X307000000Y-139000000D03*
%TO.P,SW45,2*%
%TO.N,Net-(D48-Pad2)*%
X300650000Y-141540000D03*
%TD*%
D15*
%TO.P,J1,1*%
%TO.N,ROW1*%
X398420000Y-151070000D03*
D16*
%TO.P,J1,2*%
%TO.N,ROW2*%
X398420000Y-148300000D03*
%TO.P,J1,3*%
%TO.N,ROW3*%
X398420000Y-145530000D03*
%TO.P,J1,4*%
%TO.N,ROW4*%
X398420000Y-142760000D03*
%TO.P,J1,5*%
%TO.N,ROW5*%
X398420000Y-139990000D03*
%TO.P,J1,6*%
%TO.N,ROW6*%
X398420000Y-137220000D03*
%TO.P,J1,7*%
%TO.N,COL7*%
X398420000Y-134450000D03*
%TO.P,J1,8*%
%TO.N,COL9*%
X398420000Y-131680000D03*
%TO.P,J1,9*%
%TO.N,COL11*%
X398420000Y-128910000D03*
%TO.P,J1,10*%
%TO.N,COL13*%
X398420000Y-126140000D03*
%TO.P,J1,11*%
%TO.N,COL15*%
X398420000Y-123370000D03*
%TO.P,J1,12*%
%TO.N,Net-(D1-Pad2)*%
X398420000Y-120600000D03*
%TO.P,J1,13*%
%TO.N,Net-(D3-Pad2)*%
X398420000Y-117830000D03*
%TO.P,J1,14*%
%TO.N,COL1*%
X395580000Y-149685000D03*
%TO.P,J1,15*%
%TO.N,COL2*%
X395580000Y-146915000D03*
%TO.P,J1,16*%
%TO.N,COL3*%
X395580000Y-144145000D03*
%TO.P,J1,17*%
%TO.N,COL4*%
X395580000Y-141375000D03*
%TO.P,J1,18*%
%TO.N,COL5*%
X395580000Y-138605000D03*
%TO.P,J1,19*%
%TO.N,COL6*%
X395580000Y-135835000D03*
%TO.P,J1,20*%
%TO.N,COL8*%
X395580000Y-133065000D03*
%TO.P,J1,21*%
%TO.N,COL10*%
X395580000Y-130295000D03*
%TO.P,J1,22*%
%TO.N,COL12*%
X395580000Y-127525000D03*
%TO.P,J1,23*%
%TO.N,COL14*%
X395580000Y-124755000D03*
%TO.P,J1,24*%
%TO.N,COL16*%
X395580000Y-121985000D03*
%TO.P,J1,25*%
%TO.N,Net-(D2-Pad2)*%
X395580000Y-119215000D03*
D17*
%TO.P,J1,0*%
%TO.N,/GND*%
X397000000Y-110900000D03*
X397000000Y-158000000D03*
%TD*%
D18*
%TO.P,J3,1*%
%TO.N,/GND*%
X32500000Y-68500000D03*
%TD*%
%TO.P,J5,1*%
%TO.N,/GND*%
X32500000Y-216500000D03*
%TD*%
%TO.P,J2,1*%
%TO.N,/GND*%
X395000000Y-68500000D03*
%TD*%
%TO.P,J4,1*%
%TO.N,/GND*%
X395000000Y-216500000D03*
%TD*%
D12*
%TO.P,SW80,1*%
%TO.N,ROW6*%
X304540000Y-198420000D03*
%TO.P,SW80,2*%
%TO.N,Net-(D83-Pad2)*%
X298190000Y-200960000D03*
%TD*%
%TO.P,SW77,1*%
%TO.N,ROW6*%
X189040000Y-198420000D03*
%TO.P,SW77,2*%
%TO.N,Net-(D80-Pad2)*%
X182690000Y-200960000D03*
%TD*%
%TO.P,SW78,1*%
%TO.N,ROW6*%
X259040000Y-198420000D03*
%TO.P,SW78,2*%
%TO.N,Net-(D81-Pad2)*%
X252690000Y-200960000D03*
%TD*%
%TO.P,SW74,1*%
%TO.N,ROW6*%
X74540000Y-198420000D03*
%TO.P,SW74,2*%
%TO.N,Net-(D77-Pad2)*%
X68190000Y-200960000D03*
%TD*%
%TO.P,SW75,1*%
%TO.N,ROW6*%
X99040000Y-198420000D03*
%TO.P,SW75,2*%
%TO.N,Net-(D78-Pad2)*%
X92690000Y-200960000D03*
%TD*%
%TO.P,SW17,1*%
%TO.N,ROW2*%
X56000000Y-105500000D03*
%TO.P,SW17,2*%
%TO.N,Net-(D20-Pad2)*%
X49650000Y-108040000D03*
%TD*%
%TO.P,SW18,1*%
%TO.N,ROW2*%
X80540000Y-105500000D03*
%TO.P,SW18,2*%
%TO.N,Net-(D21-Pad2)*%
X74190000Y-108040000D03*
%TD*%
%TO.P,SW29,2*%
%TO.N,Net-(D32-Pad2)*%
X298690000Y-107960000D03*
%TO.P,SW29,1*%
%TO.N,ROW2*%
X305040000Y-105420000D03*
%TD*%
%TO.P,SW30,1*%
%TO.N,ROW2*%
X341000000Y-106000000D03*
%TO.P,SW30,2*%
%TO.N,Net-(D33-Pad2)*%
X334650000Y-108540000D03*
%TD*%
%TO.P,SW81,1*%
%TO.N,ROW6*%
X341040000Y-198000000D03*
%TO.P,SW81,2*%
%TO.N,Net-(D84-Pad2)*%
X334690000Y-200540000D03*
%TD*%
%TO.P,SW72,1*%
%TO.N,ROW5*%
X302040000Y-175500000D03*
%TO.P,SW72,2*%
%TO.N,Net-(D75-Pad2)*%
X295690000Y-178040000D03*
%TD*%
%TO.P,SW33,1*%
%TO.N,ROW3*%
X55040000Y-129420000D03*
%TO.P,SW33,2*%
%TO.N,Net-(D36-Pad2)*%
X48690000Y-131960000D03*
%TD*%
%TO.P,SW34,1*%
%TO.N,ROW3*%
X80000000Y-129500000D03*
%TO.P,SW34,2*%
%TO.N,Net-(D37-Pad2)*%
X73650000Y-132040000D03*
%TD*%
%TO.P,SW73,1*%
%TO.N,ROW5*%
X361040000Y-175420000D03*
%TO.P,SW73,2*%
%TO.N,Net-(D76-Pad2)*%
X354690000Y-177960000D03*
%TD*%
D19*
%TO.N,COL10*%
X372308300Y-154560300D03*
%TO.N,ROW5*%
X394168800Y-140828500D03*
%TD*%
D20*
%TO.N,COL1*%
X67500000Y-191500000D02*
X67500000Y-190274700D01*
X59000000Y-169500000D02*
X59000000Y-181774700D01*
X59000000Y-181774700D02*
X67500000Y-190274700D01*
X67880000Y-215500000D02*
X67880000Y-214274700D01*
X67500000Y-191500000D02*
X67500000Y-192725300D01*
X67500000Y-192725300D02*
X65743600Y-194481700D01*
X65743600Y-194481700D02*
X65743600Y-212138300D01*
X65743600Y-212138300D02*
X67880000Y-214274700D01*
X49500000Y-122500000D02*
X49500000Y-121274700D01*
X49500000Y-121274700D02*
X45380000Y-117154700D01*
X45380000Y-117154700D02*
X45380000Y-97500000D01*
%TO.N,Net-(D4-Pad2)*%
X53000000Y-97500000D02*
X53000000Y-96274700D01*
X45150000Y-83040000D02*
X45150000Y-88424700D01*
X45150000Y-88424700D02*
X53000000Y-96274700D01*
%TO.N,Net-(D5-Pad2)*%
X91000000Y-97500000D02*
X91000000Y-96274700D01*
X82190000Y-83040000D02*
X82190000Y-87464700D01*
X82190000Y-87464700D02*
X91000000Y-96274700D01*
%TO.N,Net-(D6-Pad2)*%
X111000000Y-97500000D02*
X111000000Y-96274700D01*
X102150000Y-83040000D02*
X102150000Y-87424700D01*
X102150000Y-87424700D02*
X111000000Y-96274700D01*
%TO.N,COL2*%
X74380000Y-122500000D02*
X74380000Y-123725300D01*
X74000000Y-146500000D02*
X74000000Y-145274700D01*
X74000000Y-145274700D02*
X71148100Y-142422800D01*
X71148100Y-142422800D02*
X71148100Y-126957200D01*
X71148100Y-126957200D02*
X74380000Y-123725300D01*
X79000000Y-168274700D02*
X74000000Y-163274700D01*
X74000000Y-163274700D02*
X74000000Y-146500000D01*
X83380000Y-97500000D02*
X82154700Y-97500000D01*
X74380000Y-122500000D02*
X74380000Y-121274700D01*
X74380000Y-121274700D02*
X71710500Y-118605200D01*
X71710500Y-118605200D02*
X71710500Y-107944200D01*
X71710500Y-107944200D02*
X82154700Y-97500000D01*
X88500000Y-191500000D02*
X88500000Y-190274700D01*
X79000000Y-169500000D02*
X79000000Y-180774700D01*
X79000000Y-180774700D02*
X88500000Y-190274700D01*
X79000000Y-168887300D02*
X79000000Y-169500000D01*
X79000000Y-168887300D02*
X79000000Y-168274700D01*
X92500000Y-215500000D02*
X92500000Y-214274700D01*
X92500000Y-214274700D02*
X88500000Y-210274700D01*
X88500000Y-210274700D02*
X88500000Y-191500000D01*
%TO.N,Net-(D7-Pad2)*%
X130500000Y-97500000D02*
X130500000Y-96274700D01*
X122150000Y-83040000D02*
X122150000Y-87924700D01*
X122150000Y-87924700D02*
X130500000Y-96274700D01*
%TO.N,Net-(D8-Pad2)*%
X149500000Y-97500000D02*
X149500000Y-96274700D01*
X142190000Y-82960000D02*
X142190000Y-88964700D01*
X142190000Y-88964700D02*
X149500000Y-96274700D01*
%TO.N,Net-(D9-Pad2)*%
X177120000Y-98500000D02*
X177120000Y-97274700D01*
X168690000Y-83040000D02*
X168690000Y-88844700D01*
X168690000Y-88844700D02*
X177120000Y-97274700D01*
%TO.N,Net-(D10-Pad2)*%
X196620000Y-98500000D02*
X196620000Y-97274700D01*
X188650000Y-83040000D02*
X188650000Y-89304700D01*
X188650000Y-89304700D02*
X196620000Y-97274700D01*
%TO.N,Net-(D11-Pad2)*%
X216620000Y-99000000D02*
X216620000Y-97774700D01*
X208650000Y-83040000D02*
X208650000Y-89804700D01*
X208650000Y-89804700D02*
X216620000Y-97774700D01*
%TO.N,Net-(D12-Pad2)*%
X236120000Y-99000000D02*
X236120000Y-97774700D01*
X228150000Y-83040000D02*
X228150000Y-89804700D01*
X228150000Y-89804700D02*
X236120000Y-97774700D01*
%TO.N,Net-(D13-Pad2)*%
X262620000Y-99000000D02*
X262620000Y-97774700D01*
X255150000Y-83040000D02*
X255150000Y-90304700D01*
X255150000Y-90304700D02*
X262620000Y-97774700D01*
%TO.N,COL3*%
X103380000Y-97500000D02*
X102154700Y-97500000D01*
X89500000Y-122500000D02*
X89500000Y-110154700D01*
X89500000Y-110154700D02*
X102154700Y-97500000D01*
X94000000Y-145274700D02*
X89500000Y-140774700D01*
X89500000Y-140774700D02*
X89500000Y-122500000D01*
X94000000Y-146500000D02*
X94000000Y-145274700D01*
X94000000Y-146500000D02*
X94000000Y-164274700D01*
X94000000Y-164274700D02*
X98000000Y-168274700D01*
X98000000Y-169500000D02*
X98000000Y-168274700D01*
X108500000Y-191500000D02*
X108500000Y-190274700D01*
X108500000Y-190274700D02*
X106208200Y-187982900D01*
X106208200Y-187982900D02*
X106208200Y-178933500D01*
X106208200Y-178933500D02*
X98000000Y-170725300D01*
X112380000Y-213774700D02*
X108500000Y-209894700D01*
X108500000Y-209894700D02*
X108500000Y-191500000D01*
X98000000Y-169500000D02*
X98000000Y-170725300D01*
X112380000Y-215000000D02*
X112380000Y-213774700D01*
%TO.N,Net-(D14-Pad2)*%
X282120000Y-99000000D02*
X282120000Y-97774700D01*
X275150000Y-83040000D02*
X275150000Y-90804700D01*
X275150000Y-90804700D02*
X282120000Y-97774700D01*
%TO.N,Net-(D15-Pad2)*%
X303620000Y-99000000D02*
X303620000Y-97774700D01*
X295190000Y-83040000D02*
X295190000Y-89344700D01*
X295190000Y-89344700D02*
X303620000Y-97774700D01*
%TO.N,Net-(D16-Pad2)*%
X322620000Y-99000000D02*
X322620000Y-97774700D01*
X315190000Y-82960000D02*
X315190000Y-90344700D01*
X315190000Y-90344700D02*
X322620000Y-97774700D01*
%TO.N,Net-(D17-Pad2)*%
X342620000Y-99000000D02*
X342620000Y-97774700D01*
X335190000Y-82960000D02*
X335190000Y-90344700D01*
X335190000Y-90344700D02*
X342620000Y-97774700D01*
%TO.N,Net-(D18-Pad2)*%
X361620000Y-99000000D02*
X361620000Y-97774700D01*
X354770000Y-82960000D02*
X354770000Y-90924700D01*
X354770000Y-90924700D02*
X361620000Y-97774700D01*
%TO.N,COL4*%
X182880000Y-215500000D02*
X184105300Y-215500000D01*
X395580000Y-141375000D02*
X363108000Y-173847000D01*
X363108000Y-173847000D02*
X363108000Y-175372200D01*
X363108000Y-175372200D02*
X361412800Y-177067400D01*
X361412800Y-177067400D02*
X358577800Y-177067400D01*
X358577800Y-177067400D02*
X346334200Y-189311000D01*
X346334200Y-189311000D02*
X341394600Y-189311000D01*
X341394600Y-189311000D02*
X334537300Y-196168300D01*
X334537300Y-196168300D02*
X299218700Y-196168300D01*
X299218700Y-196168300D02*
X278165000Y-217222000D01*
X278165000Y-217222000D02*
X185827300Y-217222000D01*
X185827300Y-217222000D02*
X184105300Y-215500000D01*
X128500000Y-191500000D02*
X129725300Y-191500000D01*
X129725300Y-191500000D02*
X129725300Y-192342400D01*
X129725300Y-192342400D02*
X152882900Y-215500000D01*
X152882900Y-215500000D02*
X182880000Y-215500000D01*
X128500000Y-190999900D02*
X128500000Y-191500000D01*
X128500000Y-190999900D02*
X128500000Y-190274700D01*
X122880000Y-97500000D02*
X121654700Y-97500000D01*
X109880000Y-122500000D02*
X109880000Y-109274700D01*
X109880000Y-109274700D02*
X121654700Y-97500000D01*
X113500000Y-145274700D02*
X109880000Y-141654700D01*
X109880000Y-141654700D02*
X109880000Y-122500000D01*
X113500000Y-146500000D02*
X113500000Y-145274700D01*
X113500000Y-146500000D02*
X113500000Y-163774700D01*
X113500000Y-163774700D02*
X118000000Y-168274700D01*
X118000000Y-169500000D02*
X118000000Y-170725300D01*
X128500000Y-190274700D02*
X119225300Y-181000000D01*
X119225300Y-181000000D02*
X119225300Y-171950600D01*
X119225300Y-171950600D02*
X118000000Y-170725300D01*
X118000000Y-169500000D02*
X118000000Y-168274700D01*
%TO.N,Net-(D19-Pad2)*%
X381620000Y-97774700D02*
X374770000Y-90924700D01*
X374770000Y-90924700D02*
X374770000Y-82960000D01*
X381620000Y-99000000D02*
X381620000Y-97774700D01*
%TO.N,Net-(D20-Pad2)*%
X57120000Y-122500000D02*
X57120000Y-121274700D01*
X49650000Y-108040000D02*
X49650000Y-113804700D01*
X49650000Y-113804700D02*
X57120000Y-121274700D01*
%TO.N,Net-(D21-Pad2)*%
X82000000Y-122500000D02*
X82000000Y-121274700D01*
X74190000Y-108040000D02*
X74190000Y-113464700D01*
X74190000Y-113464700D02*
X82000000Y-121274700D01*
%TO.N,Net-(D22-Pad2)*%
X97120000Y-122500000D02*
X97120000Y-121274700D01*
X94150000Y-108040000D02*
X94150000Y-118304700D01*
X94150000Y-118304700D02*
X97120000Y-121274700D01*
%TO.N,Net-(D23-Pad2)*%
X117500000Y-122500000D02*
X117500000Y-121274700D01*
X114150000Y-108040000D02*
X114150000Y-117924700D01*
X114150000Y-117924700D02*
X117500000Y-121274700D01*
%TO.N,Net-(D24-Pad2)*%
X137500000Y-122500000D02*
X137500000Y-121274700D01*
X134150000Y-108040000D02*
X134150000Y-117924700D01*
X134150000Y-117924700D02*
X137500000Y-121274700D01*
%TO.N,COL5*%
X395580000Y-138605000D02*
X395366600Y-138605000D01*
X395366600Y-138605000D02*
X370615100Y-163356500D01*
X370615100Y-163356500D02*
X366486800Y-163356500D01*
X366486800Y-163356500D02*
X334687500Y-195155800D01*
X334687500Y-195155800D02*
X298090400Y-195155800D01*
X298090400Y-195155800D02*
X276520900Y-216725300D01*
X276520900Y-216725300D02*
X254950600Y-216725300D01*
X254950600Y-216725300D02*
X253725300Y-215500000D01*
X252500000Y-215500000D02*
X253725300Y-215500000D01*
X150725300Y-191500000D02*
X153985000Y-194759700D01*
X153985000Y-194759700D02*
X230534400Y-194759700D01*
X230534400Y-194759700D02*
X251274700Y-215500000D01*
X138000000Y-169500000D02*
X138000000Y-170725300D01*
X150112700Y-191500000D02*
X139225300Y-180612600D01*
X139225300Y-180612600D02*
X139225300Y-171950600D01*
X139225300Y-171950600D02*
X138000000Y-170725300D01*
X150112700Y-191500000D02*
X150725300Y-191500000D01*
X149500000Y-191500000D02*
X150112700Y-191500000D01*
X251887400Y-215500000D02*
X252500000Y-215500000D01*
X251887400Y-215500000D02*
X251274700Y-215500000D01*
X141880000Y-97500000D02*
X141880000Y-98725300D01*
X141880000Y-98725300D02*
X141420500Y-98725300D01*
X141420500Y-98725300D02*
X129880000Y-110265800D01*
X129880000Y-110265800D02*
X129880000Y-122500000D01*
X138000000Y-168887300D02*
X138000000Y-169500000D01*
X138000000Y-168887300D02*
X138000000Y-168274700D01*
X133380000Y-146500000D02*
X133380000Y-145274700D01*
X133380000Y-145274700D02*
X129880000Y-141774700D01*
X129880000Y-141774700D02*
X129880000Y-122500000D01*
X138000000Y-168274700D02*
X133380000Y-163654700D01*
X133380000Y-163654700D02*
X133380000Y-146500000D01*
%TO.N,Net-(D25-Pad2)*%
X157500000Y-122500000D02*
X157500000Y-121274700D01*
X154150000Y-108040000D02*
X154150000Y-117924700D01*
X154150000Y-117924700D02*
X157500000Y-121274700D01*
%TO.N,Net-(D26-Pad2)*%
X177500000Y-122500000D02*
X177500000Y-121274700D01*
X174150000Y-108040000D02*
X174150000Y-117924700D01*
X174150000Y-117924700D02*
X177500000Y-121274700D01*
%TO.N,Net-(D27-Pad2)*%
X196500000Y-122500000D02*
X196500000Y-121274700D01*
X194150000Y-108040000D02*
X194150000Y-118924700D01*
X194150000Y-118924700D02*
X196500000Y-121274700D01*
%TO.N,Net-(D28-Pad2)*%
X217500000Y-122500000D02*
X217500000Y-121274700D01*
X214150000Y-108040000D02*
X214150000Y-117924700D01*
X214150000Y-117924700D02*
X217500000Y-121274700D01*
%TO.N,Net-(D29-Pad2)*%
X236500000Y-122500000D02*
X236500000Y-121274700D01*
X234150000Y-108040000D02*
X234150000Y-118924700D01*
X234150000Y-118924700D02*
X236500000Y-121274700D01*
%TO.N,Net-(D30-Pad2)*%
X257500000Y-122500000D02*
X257500000Y-121274700D01*
X254150000Y-108040000D02*
X254150000Y-117924700D01*
X254150000Y-117924700D02*
X257500000Y-121274700D01*
%TO.N,COL6*%
X395580000Y-135835000D02*
X386761300Y-144653700D01*
X386761300Y-144653700D02*
X386761300Y-146539100D01*
X386761300Y-146539100D02*
X382818200Y-150482200D01*
X382818200Y-150482200D02*
X378631100Y-150482200D01*
X378631100Y-150482200D02*
X334407900Y-194705400D01*
X334407900Y-194705400D02*
X296019800Y-194705400D01*
X296019800Y-194705400D02*
X296019800Y-194705500D01*
X296019800Y-194705500D02*
X275225300Y-215500000D01*
X274000000Y-215500000D02*
X275225300Y-215500000D01*
X168500000Y-190887300D02*
X170338000Y-192725300D01*
X170338000Y-192725300D02*
X249030800Y-192725300D01*
X249030800Y-192725300D02*
X271805500Y-215500000D01*
X271805500Y-215500000D02*
X274000000Y-215500000D01*
X168500000Y-190887300D02*
X168500000Y-190274700D01*
X168500000Y-191500000D02*
X168500000Y-190887300D01*
X149880000Y-122500000D02*
X149880000Y-110283900D01*
X149880000Y-110283900D02*
X161663900Y-98500000D01*
X161663900Y-98500000D02*
X169500000Y-98500000D01*
X153000000Y-145274700D02*
X149880000Y-142154700D01*
X149880000Y-142154700D02*
X149880000Y-122500000D01*
X153000000Y-146500000D02*
X153000000Y-145274700D01*
X158000000Y-170112600D02*
X153000000Y-165112600D01*
X153000000Y-165112600D02*
X153000000Y-146500000D01*
X158000000Y-170112600D02*
X158000000Y-170725300D01*
X158000000Y-169500000D02*
X158000000Y-170112600D01*
X168500000Y-190274700D02*
X159225300Y-181000000D01*
X159225300Y-181000000D02*
X159225300Y-171950600D01*
X159225300Y-171950600D02*
X158000000Y-170725300D01*
%TO.N,Net-(D31-Pad2)*%
X276500000Y-122500000D02*
X276500000Y-121274700D01*
X274150000Y-108040000D02*
X274150000Y-118924700D01*
X274150000Y-118924700D02*
X276500000Y-121274700D01*
%TO.N,Net-(D32-Pad2)*%
X306500000Y-122000000D02*
X306500000Y-120774700D01*
X298690000Y-107960000D02*
X298690000Y-112964700D01*
X298690000Y-112964700D02*
X306500000Y-120774700D01*
%TO.N,Net-(D33-Pad2)*%
X343000000Y-123000000D02*
X343000000Y-121774700D01*
X334650000Y-108540000D02*
X334650000Y-113424700D01*
X334650000Y-113424700D02*
X343000000Y-121774700D01*
%TO.N,Net-(D34-Pad2)*%
X362000000Y-123000000D02*
X362000000Y-121774700D01*
X354650000Y-108540000D02*
X354650000Y-114424700D01*
X354650000Y-114424700D02*
X362000000Y-121774700D01*
%TO.N,Net-(D35-Pad2)*%
X381620000Y-123000000D02*
X381620000Y-121774700D01*
X374650000Y-108540000D02*
X374650000Y-114804700D01*
X374650000Y-114804700D02*
X381620000Y-121774700D01*
%TO.N,Net-(D36-Pad2)*%
X58620000Y-146500000D02*
X58620000Y-145274700D01*
X48690000Y-131960000D02*
X48690000Y-135344700D01*
X48690000Y-135344700D02*
X58620000Y-145274700D01*
%TO.N,Net-(D37-Pad2)*%
X81620000Y-146500000D02*
X81620000Y-145274700D01*
X73650000Y-132040000D02*
X73650000Y-137304700D01*
X73650000Y-137304700D02*
X81620000Y-145274700D01*
%TO.N,Net-(D38-Pad2)*%
X101620000Y-146500000D02*
X101620000Y-145274700D01*
X93650000Y-132040000D02*
X93650000Y-137304700D01*
X93650000Y-137304700D02*
X101620000Y-145274700D01*
%TO.N,Net-(D39-Pad2)*%
X121120000Y-146500000D02*
X121120000Y-145274700D01*
X113650000Y-132040000D02*
X113650000Y-137804700D01*
X113650000Y-137804700D02*
X121120000Y-145274700D01*
%TO.N,COL7*%
X169880000Y-122500000D02*
X169880000Y-110292100D01*
X169880000Y-110292100D02*
X181672100Y-98500000D01*
X181672100Y-98500000D02*
X189000000Y-98500000D01*
X174000000Y-145274700D02*
X169880000Y-141154700D01*
X169880000Y-141154700D02*
X169880000Y-122500000D01*
X174000000Y-146500000D02*
X174000000Y-145274700D01*
X178000000Y-170112600D02*
X174000000Y-166112600D01*
X174000000Y-166112600D02*
X174000000Y-146500000D01*
X178000000Y-170112600D02*
X178000000Y-170725300D01*
X178000000Y-169500000D02*
X178000000Y-170112600D01*
X188500000Y-191500000D02*
X188500000Y-190274700D01*
X188500000Y-190274700D02*
X179225300Y-181000000D01*
X179225300Y-181000000D02*
X179225300Y-171950600D01*
X179225300Y-171950600D02*
X178000000Y-170725300D01*
%TO.N,Net-(D40-Pad2)*%
X141000000Y-146500000D02*
X141000000Y-145274700D01*
X133650000Y-132040000D02*
X133650000Y-137924700D01*
X133650000Y-137924700D02*
X141000000Y-145274700D01*
%TO.N,Net-(D41-Pad2)*%
X160620000Y-146500000D02*
X160620000Y-145274700D01*
X153650000Y-132040000D02*
X153650000Y-138304700D01*
X153650000Y-138304700D02*
X160620000Y-145274700D01*
%TO.N,Net-(D42-Pad2)*%
X181620000Y-146500000D02*
X181620000Y-145274700D01*
X173650000Y-132040000D02*
X173650000Y-137304700D01*
X173650000Y-137304700D02*
X181620000Y-145274700D01*
%TO.N,COL8*%
X336225300Y-191500000D02*
X336394400Y-191500000D01*
X336394400Y-191500000D02*
X377862500Y-150031900D01*
X377862500Y-150031900D02*
X382631600Y-150031900D01*
X382631600Y-150031900D02*
X385408800Y-147254700D01*
X385408800Y-147254700D02*
X385408800Y-143236200D01*
X385408800Y-143236200D02*
X395580000Y-133065000D01*
X335000000Y-191500000D02*
X336225300Y-191500000D01*
X194000000Y-146500000D02*
X194000000Y-145274700D01*
X194000000Y-145274700D02*
X188880000Y-140154700D01*
X188880000Y-140154700D02*
X188880000Y-122500000D01*
X198000000Y-170112600D02*
X194000000Y-166112600D01*
X194000000Y-166112600D02*
X194000000Y-146500000D01*
X209000000Y-99000000D02*
X201154200Y-99000000D01*
X201154200Y-99000000D02*
X188880000Y-111274200D01*
X188880000Y-111274200D02*
X188880000Y-122500000D01*
X198000000Y-170112600D02*
X198000000Y-170725300D01*
X198000000Y-169500000D02*
X198000000Y-170112600D01*
X208500000Y-191500000D02*
X208500000Y-190274700D01*
X208500000Y-190274700D02*
X199225300Y-181000000D01*
X199225300Y-181000000D02*
X199225300Y-171950600D01*
X199225300Y-171950600D02*
X198000000Y-170725300D01*
%TO.N,Net-(D43-Pad2)*%
X201620000Y-146500000D02*
X201620000Y-145274700D01*
X193650000Y-132040000D02*
X193650000Y-137304700D01*
X193650000Y-137304700D02*
X201620000Y-145274700D01*
%TO.N,Net-(D44-Pad2)*%
X220620000Y-146500000D02*
X220620000Y-145274700D01*
X213650000Y-132040000D02*
X213650000Y-138304700D01*
X213650000Y-138304700D02*
X220620000Y-145274700D01*
%TO.N,Net-(D45-Pad2)*%
X241620000Y-146500000D02*
X241620000Y-145274700D01*
X233650000Y-132040000D02*
X233650000Y-137304700D01*
X233650000Y-137304700D02*
X241620000Y-145274700D01*
%TO.N,Net-(D46-Pad2)*%
X261620000Y-146500000D02*
X261620000Y-145274700D01*
X253650000Y-132040000D02*
X253650000Y-137304700D01*
X253650000Y-137304700D02*
X261620000Y-145274700D01*
%TO.N,Net-(D47-Pad2)*%
X281620000Y-146500000D02*
X281620000Y-145274700D01*
X273650000Y-132040000D02*
X274450400Y-132840400D01*
X274450400Y-132840400D02*
X274450400Y-138105100D01*
X274450400Y-138105100D02*
X281620000Y-145274700D01*
%TO.N,Net-(D48-Pad2)*%
X309000000Y-165000000D02*
X309000000Y-163774700D01*
X300650000Y-141540000D02*
X300650000Y-155424700D01*
X300650000Y-155424700D02*
X309000000Y-163774700D01*
%TO.N,COL9*%
X354500000Y-191500000D02*
X354500000Y-190274700D01*
X398420000Y-131680000D02*
X396844200Y-133255800D01*
X396844200Y-133255800D02*
X396844200Y-141715300D01*
X396844200Y-141715300D02*
X395799500Y-142760000D01*
X395799500Y-142760000D02*
X395338400Y-142760000D01*
X395338400Y-142760000D02*
X386830200Y-151268200D01*
X386830200Y-151268200D02*
X386830200Y-158940100D01*
X386830200Y-158940100D02*
X355495600Y-190274700D01*
X355495600Y-190274700D02*
X354500000Y-190274700D01*
X209880000Y-122500000D02*
X209880000Y-110265000D01*
X209880000Y-110265000D02*
X221145000Y-99000000D01*
X221145000Y-99000000D02*
X228500000Y-99000000D01*
X213000000Y-145274700D02*
X209880000Y-142154700D01*
X209880000Y-142154700D02*
X209880000Y-122500000D01*
X213000000Y-146500000D02*
X213000000Y-145274700D01*
X218000000Y-170112600D02*
X213000000Y-165112600D01*
X213000000Y-165112600D02*
X213000000Y-146500000D01*
X218000000Y-170112600D02*
X218000000Y-170725300D01*
X218000000Y-169500000D02*
X218000000Y-170112600D01*
X228500000Y-191500000D02*
X228500000Y-190274700D01*
X228500000Y-190274700D02*
X219225300Y-181000000D01*
X219225300Y-181000000D02*
X219225300Y-171950600D01*
X219225300Y-171950600D02*
X218000000Y-170725300D01*
%TO.N,Net-(D49-Pad2)*%
X342620000Y-145774700D02*
X335100300Y-138255000D01*
X335100300Y-138255000D02*
X335100300Y-132990300D01*
X335100300Y-132990300D02*
X334650000Y-132540000D01*
X342620000Y-147000000D02*
X342620000Y-145774700D01*
%TO.N,Net-(D50-Pad2)*%
X361620000Y-147000000D02*
X361620000Y-145774700D01*
X354650000Y-132540000D02*
X354650000Y-138804700D01*
X354650000Y-138804700D02*
X361620000Y-145774700D01*
%TO.N,Net-(D51-Pad2)*%
X382620000Y-147000000D02*
X382620000Y-145774700D01*
X374650000Y-132540000D02*
X374650000Y-137804700D01*
X374650000Y-137804700D02*
X382620000Y-145774700D01*
%TO.N,Net-(D52-Pad2)*%
X66620000Y-169500000D02*
X66620000Y-168274700D01*
X58190000Y-155540000D02*
X58190000Y-159844700D01*
X58190000Y-159844700D02*
X66620000Y-168274700D01*
%TO.N,Net-(D53-Pad2)*%
X86620000Y-169500000D02*
X86620000Y-168274700D01*
X78150000Y-155540000D02*
X78150000Y-159804700D01*
X78150000Y-159804700D02*
X86620000Y-168274700D01*
%TO.N,Net-(D54-Pad2)*%
X105620000Y-169500000D02*
X105620000Y-168274700D01*
X98150000Y-155540000D02*
X98150000Y-160804700D01*
X98150000Y-160804700D02*
X105620000Y-168274700D01*
%TO.N,COL10*%
X395580000Y-130295000D02*
X384958500Y-140916500D01*
X384958500Y-140916500D02*
X384958500Y-147068100D01*
X384958500Y-147068100D02*
X382604300Y-149422300D01*
X382604300Y-149422300D02*
X377446300Y-149422300D01*
X377446300Y-149422300D02*
X372308300Y-154560300D01*
X228880000Y-122500000D02*
X228880000Y-123725300D01*
X231200000Y-125399900D02*
X235402000Y-125399900D01*
X235402000Y-125399900D02*
X251530900Y-109271000D01*
X251530900Y-109271000D02*
X251530900Y-103694400D01*
X251530900Y-103694400D02*
X255000000Y-100225300D01*
X228880000Y-123725300D02*
X229525400Y-123725300D01*
X229525400Y-123725300D02*
X231200000Y-125399900D01*
X231200000Y-125399900D02*
X231200000Y-142474700D01*
X231200000Y-142474700D02*
X234000000Y-145274700D01*
X255000000Y-99000000D02*
X255000000Y-100225300D01*
X238000000Y-169500000D02*
X238000000Y-170725300D01*
X248500000Y-191500000D02*
X248500000Y-190274700D01*
X248500000Y-190274700D02*
X239225300Y-181000000D01*
X239225300Y-181000000D02*
X239225300Y-171950600D01*
X239225300Y-171950600D02*
X238000000Y-170725300D01*
X234000000Y-146500000D02*
X234000000Y-145274700D01*
X238000000Y-169500000D02*
X238000000Y-168274700D01*
X238000000Y-168274700D02*
X234000000Y-164274700D01*
X234000000Y-164274700D02*
X234000000Y-146500000D01*
%TO.N,Net-(D55-Pad2)*%
X125620000Y-169500000D02*
X125620000Y-168274700D01*
X118150000Y-155540000D02*
X118150000Y-160804700D01*
X118150000Y-160804700D02*
X125620000Y-168274700D01*
%TO.N,Net-(D56-Pad2)*%
X145620000Y-169500000D02*
X145620000Y-168274700D01*
X138150000Y-155540000D02*
X138150000Y-160804700D01*
X138150000Y-160804700D02*
X145620000Y-168274700D01*
%TO.N,Net-(D57-Pad2)*%
X165620000Y-169500000D02*
X165620000Y-168274700D01*
X158150000Y-155540000D02*
X158150000Y-160804700D01*
X158150000Y-160804700D02*
X165620000Y-168274700D01*
%TO.N,Net-(D58-Pad2)*%
X185620000Y-169500000D02*
X185620000Y-168274700D01*
X178150000Y-155540000D02*
X178150000Y-160804700D01*
X178150000Y-160804700D02*
X185620000Y-168274700D01*
%TO.N,Net-(D59-Pad2)*%
X205620000Y-169500000D02*
X205620000Y-168274700D01*
X198150000Y-155540000D02*
X198150000Y-160804700D01*
X198150000Y-160804700D02*
X205620000Y-168274700D01*
%TO.N,Net-(D60-Pad2)*%
X225620000Y-169500000D02*
X225620000Y-168274700D01*
X218150000Y-155540000D02*
X218150000Y-160804700D01*
X218150000Y-160804700D02*
X225620000Y-168274700D01*
%TO.N,Net-(D61-Pad2)*%
X245620000Y-169500000D02*
X245620000Y-168274700D01*
X245620000Y-168274700D02*
X238150000Y-160804700D01*
X238150000Y-160804700D02*
X238150000Y-155540000D01*
%TO.N,COL11*%
X254000000Y-146500000D02*
X254000000Y-145274700D01*
X252330600Y-123725300D02*
X251105300Y-122500000D01*
X274500000Y-100225300D02*
X267423500Y-107301800D01*
X267423500Y-107301800D02*
X267423500Y-114374300D01*
X267423500Y-114374300D02*
X258072500Y-123725300D01*
X258072500Y-123725300D02*
X252330600Y-123725300D01*
X254000000Y-145274700D02*
X251171300Y-142446000D01*
X251171300Y-142446000D02*
X251171300Y-124884600D01*
X251171300Y-124884600D02*
X252330600Y-123725300D01*
X258000000Y-168274700D02*
X254000000Y-164274700D01*
X254000000Y-164274700D02*
X254000000Y-146500000D01*
X258000000Y-169500000D02*
X258000000Y-170725300D01*
X268500000Y-191500000D02*
X268500000Y-190274700D01*
X268500000Y-190274700D02*
X259225300Y-181000000D01*
X259225300Y-181000000D02*
X259225300Y-171950600D01*
X259225300Y-171950600D02*
X258000000Y-170725300D01*
X249880000Y-122500000D02*
X251105300Y-122500000D01*
X274500000Y-99000000D02*
X274500000Y-100225300D01*
X258000000Y-169500000D02*
X258000000Y-168274700D01*
%TO.N,Net-(D62-Pad2)*%
X265620000Y-169500000D02*
X265620000Y-168274700D01*
X265620000Y-168274700D02*
X258150000Y-160804700D01*
X258150000Y-160804700D02*
X258150000Y-155540000D01*
%TO.N,Net-(D63-Pad2)*%
X285620000Y-169500000D02*
X285620000Y-168274700D01*
X285620000Y-168274700D02*
X278150000Y-160804700D01*
X278150000Y-160804700D02*
X278150000Y-155540000D01*
%TO.N,Net-(D64-Pad2)*%
X75120000Y-191500000D02*
X75120000Y-190274700D01*
X75120000Y-190274700D02*
X68690000Y-183844700D01*
X68690000Y-183844700D02*
X68690000Y-177960000D01*
%TO.N,Net-(D65-Pad2)*%
X96120000Y-191500000D02*
X96120000Y-190274700D01*
X88690000Y-177960000D02*
X88690000Y-182844700D01*
X88690000Y-182844700D02*
X96120000Y-190274700D01*
%TO.N,Net-(D66-Pad2)*%
X116120000Y-191500000D02*
X116120000Y-190274700D01*
X108690000Y-177960000D02*
X108690000Y-182844700D01*
X108690000Y-182844700D02*
X116120000Y-190274700D01*
%TO.N,COL12*%
X272214600Y-123725300D02*
X271330600Y-123725300D01*
X271330600Y-123725300D02*
X270105300Y-122500000D01*
X296000000Y-99000000D02*
X296000000Y-104794000D01*
X296000000Y-104794000D02*
X277068700Y-123725300D01*
X277068700Y-123725300D02*
X272214600Y-123725300D01*
X274000000Y-145274700D02*
X274000000Y-134530700D01*
X274000000Y-134530700D02*
X272214600Y-132745300D01*
X272214600Y-132745300D02*
X272214600Y-123725300D01*
X274000000Y-146500000D02*
X274000000Y-145274700D01*
X278000000Y-168274700D02*
X274000000Y-164274700D01*
X274000000Y-164274700D02*
X274000000Y-146500000D01*
X294880000Y-191500000D02*
X294880000Y-190274700D01*
X294880000Y-190274700D02*
X278000000Y-173394700D01*
X278000000Y-173394700D02*
X278000000Y-169500000D01*
X268880000Y-122500000D02*
X270105300Y-122500000D01*
X278000000Y-169500000D02*
X278000000Y-168274700D01*
%TO.N,Net-(D67-Pad2)*%
X136120000Y-191500000D02*
X136120000Y-190274700D01*
X128690000Y-177960000D02*
X128690000Y-182844700D01*
X128690000Y-182844700D02*
X136120000Y-190274700D01*
%TO.N,Net-(D68-Pad2)*%
X157120000Y-191500000D02*
X157120000Y-190274700D01*
X148690000Y-177960000D02*
X148690000Y-181844700D01*
X148690000Y-181844700D02*
X157120000Y-190274700D01*
%TO.N,Net-(D69-Pad2)*%
X176120000Y-191500000D02*
X176120000Y-190274700D01*
X168690000Y-177960000D02*
X168690000Y-182844700D01*
X168690000Y-182844700D02*
X176120000Y-190274700D01*
%TO.N,Net-(D70-Pad2)*%
X196120000Y-191500000D02*
X196120000Y-190274700D01*
X188690000Y-177960000D02*
X188690000Y-182844700D01*
X188690000Y-182844700D02*
X196120000Y-190274700D01*
%TO.N,Net-(D71-Pad2)*%
X216120000Y-191500000D02*
X216120000Y-190274700D01*
X208650000Y-178040000D02*
X208650000Y-182804700D01*
X208650000Y-182804700D02*
X216120000Y-190274700D01*
%TO.N,COL13*%
X355500000Y-169000000D02*
X356725300Y-169000000D01*
X398420000Y-126140000D02*
X398420000Y-126350200D01*
X398420000Y-126350200D02*
X395860200Y-128910000D01*
X395860200Y-128910000D02*
X395330300Y-128910000D01*
X395330300Y-128910000D02*
X384308900Y-139931400D01*
X384308900Y-139931400D02*
X384308900Y-147050600D01*
X384308900Y-147050600D02*
X382556400Y-148803100D01*
X382556400Y-148803100D02*
X376922200Y-148803100D01*
X376922200Y-148803100D02*
X356725300Y-169000000D01*
X298880000Y-123225300D02*
X307058800Y-123225300D01*
X307058800Y-123225300D02*
X315000000Y-115284100D01*
X315000000Y-115284100D02*
X315000000Y-99000000D01*
X298880000Y-123112700D02*
X298880000Y-123225300D01*
X298880000Y-122000000D02*
X298880000Y-123112700D01*
X301380000Y-165000000D02*
X301380000Y-163774700D01*
X301380000Y-163774700D02*
X295583700Y-157978400D01*
X295583700Y-157978400D02*
X295583700Y-126521600D01*
X295583700Y-126521600D02*
X298880000Y-123225300D01*
%TO.N,Net-(D73-Pad2)*%
X256120000Y-191500000D02*
X256120000Y-190274700D01*
X248650000Y-178040000D02*
X248650000Y-182804700D01*
X248650000Y-182804700D02*
X256120000Y-190274700D01*
%TO.N,Net-(D74-Pad2)*%
X276120000Y-191500000D02*
X276120000Y-190274700D01*
X268650000Y-178040000D02*
X268650000Y-182804700D01*
X268650000Y-182804700D02*
X276120000Y-190274700D01*
%TO.N,Net-(D75-Pad2)*%
X302500000Y-191500000D02*
X302500000Y-190274700D01*
X295690000Y-178040000D02*
X295690000Y-183464700D01*
X295690000Y-183464700D02*
X302500000Y-190274700D01*
%TO.N,Net-(D76-Pad2)*%
X363120000Y-169000000D02*
X363120000Y-170225300D01*
X354690000Y-177960000D02*
X362424700Y-170225300D01*
X362424700Y-170225300D02*
X363120000Y-170225300D01*
%TO.N,Net-(D77-Pad2)*%
X75500000Y-215500000D02*
X75500000Y-214274700D01*
X68190000Y-200960000D02*
X68190000Y-206964700D01*
X68190000Y-206964700D02*
X75500000Y-214274700D01*
%TO.N,Net-(D78-Pad2)*%
X100120000Y-215500000D02*
X100120000Y-214274700D01*
X100120000Y-214274700D02*
X92690000Y-206844700D01*
X92690000Y-206844700D02*
X92690000Y-200960000D01*
%TO.N,COL14*%
X335000000Y-99000000D02*
X335000000Y-100225300D01*
X335380000Y-123000000D02*
X335380000Y-121774700D01*
X335380000Y-121774700D02*
X332198200Y-118592900D01*
X332198200Y-118592900D02*
X332198200Y-103027100D01*
X332198200Y-103027100D02*
X335000000Y-100225300D01*
X335380000Y-123612600D02*
X335380000Y-123000000D01*
X335380000Y-123612600D02*
X335380000Y-124225300D01*
X335000000Y-147000000D02*
X335000000Y-145774700D01*
X335380000Y-124225300D02*
X333213800Y-126391500D01*
X333213800Y-126391500D02*
X333213800Y-133251500D01*
X333213800Y-133251500D02*
X334584100Y-134621800D01*
X334584100Y-134621800D02*
X334584100Y-145358800D01*
X334584100Y-145358800D02*
X335000000Y-145774700D01*
%TO.N,Net-(D79-Pad2)*%
X120000000Y-215000000D02*
X120000000Y-213774700D01*
X120000000Y-213774700D02*
X112650000Y-206424700D01*
X112650000Y-206424700D02*
X112650000Y-200960000D01*
%TO.N,Net-(D80-Pad2)*%
X190500000Y-215500000D02*
X190500000Y-214274700D01*
X182690000Y-200960000D02*
X182690000Y-206464700D01*
X182690000Y-206464700D02*
X190500000Y-214274700D01*
%TO.N,Net-(D81-Pad2)*%
X260120000Y-215500000D02*
X260120000Y-214274700D01*
X252690000Y-200960000D02*
X252690000Y-206844700D01*
X252690000Y-206844700D02*
X260120000Y-214274700D01*
%TO.N,Net-(D83-Pad2)*%
X305620000Y-215500000D02*
X305620000Y-214274700D01*
X298190000Y-200960000D02*
X298190000Y-206844700D01*
X298190000Y-206844700D02*
X305620000Y-214274700D01*
%TO.N,Net-(D85-Pad2)*%
X354690000Y-200460000D02*
X362120000Y-193030000D01*
X362120000Y-193030000D02*
X362120000Y-191500000D01*
%TO.N,COL15*%
X354380000Y-123000000D02*
X354380000Y-124225300D01*
X354000000Y-147000000D02*
X354000000Y-145774700D01*
X354000000Y-145774700D02*
X352196800Y-143971500D01*
X352196800Y-143971500D02*
X352196800Y-126408500D01*
X352196800Y-126408500D02*
X354380000Y-124225300D01*
X354000000Y-99000000D02*
X354000000Y-100225300D01*
X354380000Y-123000000D02*
X354380000Y-121774700D01*
X354380000Y-121774700D02*
X352204600Y-119599300D01*
X352204600Y-119599300D02*
X352204600Y-102020700D01*
X352204600Y-102020700D02*
X354000000Y-100225300D01*
%TO.N,Net-(D86-Pad2)*%
X382000000Y-191500000D02*
X382000000Y-192725300D01*
X374690000Y-200460000D02*
X374690000Y-200035300D01*
X374690000Y-200035300D02*
X382000000Y-192725300D01*
%TO.N,COL16*%
X374000000Y-123000000D02*
X374000000Y-124225300D01*
X375000000Y-147000000D02*
X375000000Y-145774700D01*
X375000000Y-145774700D02*
X372180100Y-142954800D01*
X372180100Y-142954800D02*
X372180100Y-126045200D01*
X372180100Y-126045200D02*
X374000000Y-124225300D01*
X374000000Y-99000000D02*
X374000000Y-100225300D01*
X374000000Y-123000000D02*
X374000000Y-121774700D01*
X374000000Y-121774700D02*
X372155500Y-119930200D01*
X372155500Y-119930200D02*
X372155500Y-102069800D01*
X372155500Y-102069800D02*
X374000000Y-100225300D01*
%TO.N,ROW5*%
X361040000Y-175420000D02*
X361040000Y-173957300D01*
X361040000Y-173957300D02*
X394168800Y-140828500D01*
%TO.N,ROW6*%
X304540000Y-198420000D02*
X340620000Y-198420000D01*
X340620000Y-198420000D02*
X341040000Y-198000000D01*
X381040000Y-197920000D02*
X394439000Y-184521000D01*
X394439000Y-184521000D02*
X394439000Y-153890400D01*
X394439000Y-153890400D02*
X397294600Y-151034800D01*
X397294600Y-151034800D02*
X397294600Y-138345400D01*
X397294600Y-138345400D02*
X398420000Y-137220000D01*
%TO.N,ROW1*%
X398420000Y-149944700D02*
X400031500Y-148333200D01*
X400031500Y-148333200D02*
X400031500Y-120620000D01*
X400031500Y-120620000D02*
X398785800Y-119374300D01*
X398785800Y-119374300D02*
X398318800Y-119374300D01*
X398318800Y-119374300D02*
X386168500Y-107224000D01*
X386168500Y-107224000D02*
X386168500Y-85468500D01*
X386168500Y-85468500D02*
X381120000Y-80420000D01*
X398420000Y-151070000D02*
X398420000Y-149944700D01*
%TO.N,ROW2*%
X305040000Y-105420000D02*
X297394600Y-97774600D01*
X297394600Y-97774600D02*
X288225400Y-97774600D01*
X288225400Y-97774600D02*
X280500000Y-105500000D01*
X398420000Y-148300000D02*
X399577200Y-147142800D01*
X399577200Y-147142800D02*
X399577200Y-125677600D01*
X399577200Y-125677600D02*
X398654600Y-124755000D01*
X398654600Y-124755000D02*
X397509200Y-124755000D01*
X397509200Y-124755000D02*
X395964800Y-123210600D01*
X395964800Y-123210600D02*
X395214200Y-123210600D01*
X395214200Y-123210600D02*
X386333700Y-114330100D01*
X386333700Y-114330100D02*
X386333700Y-111333700D01*
X386333700Y-111333700D02*
X381000000Y-106000000D01*
%TO.N,Net-(D1-Pad2)*%
X398420000Y-120600000D02*
X395356800Y-120600000D01*
X395356800Y-120600000D02*
X388814300Y-114057500D01*
X388814300Y-114057500D02*
X388814300Y-111521500D01*
X388814300Y-111521500D02*
X373435700Y-96142900D01*
X373435700Y-96142900D02*
X372627200Y-96142900D01*
X372627200Y-96142900D02*
X345984300Y-69500000D01*
X345984300Y-69500000D02*
X342620000Y-69500000D01*
%TO.N,Net-(D2-Pad2)*%
X361620000Y-69500000D02*
X361620000Y-71425300D01*
X395580000Y-119215000D02*
X395580000Y-117650300D01*
X395580000Y-117650300D02*
X370831500Y-92901800D01*
X370831500Y-92901800D02*
X370831500Y-80636800D01*
X370831500Y-80636800D02*
X361620000Y-71425300D01*
%TO.N,Net-(D3-Pad2)*%
X382620000Y-69500000D02*
X382620000Y-71425300D01*
X398420000Y-117830000D02*
X386879600Y-106289600D01*
X386879600Y-106289600D02*
X386879600Y-75684900D01*
X386879600Y-75684900D02*
X382620000Y-71425300D01*
%TO.N,/GND*%
X397000000Y-158000000D02*
X400526200Y-154473800D01*
X400526200Y-154473800D02*
X400526200Y-114426200D01*
X400526200Y-114426200D02*
X397000000Y-110900000D01*
X395000000Y-216500000D02*
X395000000Y-160000000D01*
X395000000Y-160000000D02*
X397000000Y-158000000D01*
X397000000Y-110900000D02*
X397000000Y-70500000D01*
X397000000Y-70500000D02*
X395000000Y-68500000D01*
%TD*%
M02*
