M48
; DRILL file {KiCad 5.1.6-c6e7f7d~87~ubuntu20.04.1} date Mon Jul 27 11:14:40 2020
; FORMAT={-:-/ absolute / metric / decimal}
; #@! TF.CreationDate,2020-07-27T11:14:40+02:00
; #@! TF.GenerationSoftware,Kicad,Pcbnew,5.1.6-c6e7f7d~87~ubuntu20.04.1
; #@! TF.FileFunction,Plated,1,2,PTH
FMAT,2
METRIC
T1C0.400
T2C0.700
T3C0.900
T4C1.100
T5C1.500
T6C1.600
T7C4.500
%
G90
G05
T1
X192.0Y-195.5
X195.5Y-199.5
X214.0Y-211.0
X233.0Y-191.5
X243.0Y-211.0
X251.5Y-211.5
X262.5Y-191.5
X263.5Y-211.5
X266.5Y-147.0
X284.5Y-191.5
X285.5Y-210.0
X287.5Y-147.0
X289.5Y-211.5
X299.0Y-147.5
X322.0Y-191.5
X324.0Y-67.5
X347.0Y-191.5
X350.094Y-162.667
X351.859Y-164.941
X368.0Y-192.0
T2
X317.5Y-67.0
X317.5Y-72.08
X321.0Y-67.0
X321.0Y-72.08
X313.5Y-67.0
X313.5Y-72.08
T3
X133.38Y-146.5
X141.0Y-146.5
X108.5Y-191.5
X116.12Y-191.5
X129.88Y-122.5
X137.5Y-122.5
X158.0Y-169.5
X165.62Y-169.5
X128.5Y-191.5
X136.12Y-191.5
X109.88Y-122.5
X117.5Y-122.5
X178.0Y-169.5
X185.62Y-169.5
X122.88Y-97.5
X130.5Y-97.5
X149.5Y-191.5
X157.12Y-191.5
X67.88Y-215.5
X75.5Y-215.5
X315.0Y-99.0
X322.62Y-99.0
X335.0Y-147.0
X342.62Y-147.0
X274.0Y-146.5
X281.62Y-146.5
X94.0Y-146.5
X101.62Y-146.5
X198.0Y-169.5
X205.62Y-169.5
X213.0Y-146.5
X220.62Y-146.5
X354.0Y-147.0
X361.62Y-147.0
X218.0Y-169.5
X225.62Y-169.5
X354.38Y-123.0
X362.0Y-123.0
X169.5Y-98.5
X177.12Y-98.5
X301.38Y-165.0
X309.0Y-165.0
X168.5Y-191.5
X176.12Y-191.5
X252.5Y-215.5
X260.12Y-215.5
X354.0Y-99.0
X361.62Y-99.0
X89.5Y-122.5
X97.12Y-122.5
X188.5Y-191.5
X196.12Y-191.5
X274.0Y-215.5
X281.62Y-215.5
X258.0Y-169.5
X265.62Y-169.5
X375.0Y-147.0
X382.62Y-147.0
X228.5Y-191.5
X236.12Y-191.5
X209.88Y-122.5
X217.5Y-122.5
X88.5Y-191.5
X96.12Y-191.5
X208.5Y-191.5
X216.12Y-191.5
X298.0Y-215.5
X305.62Y-215.5
X45.38Y-97.5
X53.0Y-97.5
X51.0Y-146.5
X58.62Y-146.5
X113.5Y-146.5
X121.12Y-146.5
X103.38Y-97.5
X111.0Y-97.5
X153.0Y-146.5
X160.62Y-146.5
X268.88Y-122.5
X276.5Y-122.5
X74.38Y-122.5
X82.0Y-122.5
X228.5Y-99.0
X236.12Y-99.0
X59.0Y-169.5
X66.62Y-169.5
X335.0Y-191.5
X342.62Y-191.5
X278.0Y-169.5
X285.62Y-169.5
X79.0Y-169.5
X86.62Y-169.5
X169.88Y-122.5
X177.5Y-122.5
X335.38Y-123.0
X343.0Y-123.0
X335.0Y-99.0
X342.62Y-99.0
X354.5Y-191.5
X362.12Y-191.5
X228.88Y-122.5
X236.5Y-122.5
X298.88Y-122.0
X306.5Y-122.0
X67.5Y-191.5
X75.12Y-191.5
X49.5Y-122.5
X57.12Y-122.5
X83.38Y-97.5
X91.0Y-97.5
X141.88Y-97.5
X149.5Y-97.5
X374.38Y-191.5
X382.0Y-191.5
X249.88Y-122.5
X257.5Y-122.5
X274.5Y-99.0
X282.12Y-99.0
X92.5Y-215.5
X100.12Y-215.5
X74.0Y-146.5
X81.62Y-146.5
X149.88Y-122.5
X157.5Y-122.5
X98.0Y-169.5
X105.62Y-169.5
X248.5Y-191.5
X256.12Y-191.5
X234.0Y-146.5
X241.62Y-146.5
X118.0Y-169.5
X125.62Y-169.5
X112.38Y-215.0
X120.0Y-215.0
X182.88Y-215.5
X190.5Y-215.5
X268.5Y-191.5
X276.12Y-191.5
X188.88Y-122.5
X196.5Y-122.5
X189.0Y-98.5
X196.62Y-98.5
X209.0Y-99.0
X216.62Y-99.0
X138.0Y-169.5
X145.62Y-169.5
X374.0Y-99.0
X381.62Y-99.0
X238.0Y-169.5
X245.62Y-169.5
X294.88Y-191.5
X302.5Y-191.5
X174.0Y-146.5
X181.62Y-146.5
X255.0Y-99.0
X262.62Y-99.0
X296.0Y-99.0
X303.62Y-99.0
X335.5Y-186.5
X343.12Y-186.5
X194.0Y-146.5
X201.62Y-146.5
X374.0Y-123.0
X381.62Y-123.0
X254.0Y-146.5
X261.62Y-146.5
T4
X352.37Y-153.38
X352.37Y-158.46
X352.37Y-161.0
X352.37Y-163.54
X352.37Y-168.62
X354.91Y-153.38
X354.91Y-168.62
X357.45Y-153.38
X357.45Y-168.62
X359.99Y-153.38
X359.99Y-168.62
X362.53Y-153.38
X362.53Y-168.62
X365.07Y-153.38
X365.07Y-168.62
X367.61Y-153.38
X367.61Y-168.62
X370.15Y-153.38
X370.15Y-168.62
X372.69Y-153.38
X372.69Y-168.62
X375.23Y-153.38
X375.23Y-168.62
X377.77Y-153.38
X377.77Y-168.62
X380.31Y-153.38
X380.31Y-168.62
X382.85Y-153.38
X382.85Y-168.62
X385.39Y-153.38
X385.39Y-168.62
X387.93Y-153.38
X387.93Y-168.62
X390.47Y-153.38
X390.47Y-168.62
X393.01Y-153.38
X393.01Y-168.62
X395.55Y-153.38
X395.55Y-168.62
X398.09Y-153.38
X398.09Y-168.62
X400.63Y-153.38
X400.63Y-168.62
T5
X275.15Y-83.04
X281.5Y-80.5
X234.15Y-108.04
X240.5Y-105.5
X334.65Y-108.54
X341.0Y-106.0
X134.15Y-108.04
X140.5Y-105.5
X198.15Y-155.54
X204.5Y-153.0
X374.69Y-200.46
X381.04Y-197.92
X73.65Y-132.04
X80.0Y-129.5
X268.65Y-178.04
X275.0Y-175.5
X208.65Y-178.04
X215.0Y-175.5
X213.65Y-132.04
X220.0Y-129.5
X88.69Y-177.96
X95.04Y-175.42
X153.65Y-132.04
X160.0Y-129.5
X182.69Y-200.96
X189.04Y-198.42
X93.65Y-132.04
X100.0Y-129.5
X138.15Y-155.54
X144.5Y-153.0
X78.15Y-155.54
X84.5Y-153.0
X354.65Y-132.54
X361.0Y-130.0
X148.69Y-177.96
X155.04Y-175.42
X252.69Y-200.96
X259.04Y-198.42
X374.77Y-82.96
X381.12Y-80.42
X315.19Y-82.96
X321.54Y-80.42
X298.69Y-107.96
X305.04Y-105.42
X255.15Y-83.04
X261.5Y-80.5
X208.65Y-83.04
X215.0Y-80.5
X253.65Y-132.04
X260.0Y-129.5
X238.15Y-155.54
X244.5Y-153.0
X48.69Y-131.96
X55.04Y-129.42
X274.15Y-108.04
X280.5Y-105.5
X214.15Y-108.04
X220.5Y-105.5
X128.69Y-177.96
X135.04Y-175.42
X114.15Y-108.04
X120.5Y-105.5
X178.15Y-155.54
X184.5Y-153.0
X118.15Y-155.54
X124.5Y-153.0
X82.19Y-83.04
X88.54Y-80.5
X354.69Y-200.46
X361.04Y-197.92
X248.65Y-178.04
X255.0Y-175.5
X188.69Y-177.96
X195.04Y-175.42
X188.65Y-83.04
X195.0Y-80.5
X45.15Y-83.04
X51.5Y-80.5
X74.19Y-108.04
X80.54Y-105.5
X68.19Y-200.96
X74.54Y-198.42
X133.65Y-132.04
X140.0Y-129.5
X374.65Y-108.54
X381.0Y-106.0
X58.19Y-155.54
X64.54Y-153.0
X334.65Y-132.54
X341.0Y-130.0
X295.69Y-178.04
X302.04Y-175.5
X278.15Y-155.54
X284.5Y-153.0
X193.65Y-132.04
X200.0Y-129.5
X102.15Y-83.04
X108.5Y-80.5
X174.15Y-108.04
X180.5Y-105.5
X354.77Y-82.96
X361.12Y-80.42
X295.19Y-83.04
X301.54Y-80.5
X254.15Y-108.04
X260.5Y-105.5
X298.19Y-200.96
X304.54Y-198.42
X233.65Y-132.04
X240.0Y-129.5
X122.15Y-83.04
X128.5Y-80.5
X154.15Y-108.04
X160.5Y-105.5
X218.15Y-155.54
X224.5Y-153.0
X194.15Y-108.04
X200.5Y-105.5
X68.69Y-177.96
X75.04Y-175.42
X112.65Y-200.96
X119.0Y-198.42
X142.19Y-82.96
X148.54Y-80.42
X49.65Y-108.04
X56.0Y-105.5
X108.69Y-177.96
X115.04Y-175.42
X228.15Y-83.04
X234.5Y-80.5
X173.65Y-132.04
X180.0Y-129.5
X168.69Y-83.04
X175.04Y-80.5
X98.15Y-155.54
X104.5Y-153.0
X334.69Y-200.54
X341.04Y-198.0
X300.65Y-141.54
X307.0Y-139.0
X228.65Y-178.04
X235.0Y-175.5
X168.69Y-177.96
X175.04Y-175.42
X354.69Y-177.96
X361.04Y-175.42
X94.15Y-108.04
X100.5Y-105.5
X113.65Y-132.04
X120.0Y-129.5
X158.15Y-155.54
X164.5Y-153.0
X374.65Y-132.54
X381.0Y-130.0
X273.65Y-132.04
X280.0Y-129.5
X273.69Y-200.96
X280.04Y-198.42
X258.15Y-155.54
X264.5Y-153.0
X92.69Y-200.96
X99.04Y-198.42
X335.19Y-82.96
X341.54Y-80.42
X354.65Y-108.54
X361.0Y-106.0
T6
X375.0Y-69.5
X382.62Y-69.5
X335.0Y-69.5
X342.62Y-69.5
X354.0Y-69.5
X361.62Y-69.5
T7
X32.5Y-68.5
X32.5Y-216.5
X395.0Y-68.5
X395.0Y-216.5
T0
M30
