%FSLAX45Y45*%
G04 Gerber Fmt 4.5, Leading zero omitted, Abs format (unit mm)*
G04 Created by KiCad (PCBNEW 5.1.6-c6e7f7d~87~ubuntu20.04.1) date 2020-07-27 11:14:37*
%MOMM*%
%LPD*%
G01*
G04 APERTURE LIST*
%TA.AperFunction,Profile*%
%ADD10C,0.050000*%
%TD*%
%ADD11C,0.200000*%
%ADD12C,0.300000*%
G04 APERTURE END LIST*
D10*
X40200000Y-21500000D02*
X40200000Y-6100000D01*
X2500000Y-22350000D02*
X2500000Y-21500000D01*
X40200000Y-21500000D02*
X40200000Y-22350000D01*
X2500000Y-22350000D02*
X40200000Y-22350000D01*
X40200000Y-6100000D02*
X2500000Y-6100000D01*
X2500000Y-6100000D02*
X2500000Y-21500000D01*
D11*
X27203000Y-10973000D02*
X27373000Y-11143000D01*
X27373000Y-10973000D02*
X27203000Y-11143000D01*
X28219000Y-10973000D02*
X28389000Y-11143000D01*
X28389000Y-10973000D02*
X28219000Y-11143000D01*
X21203000Y-10973000D02*
X21373000Y-11143000D01*
X21373000Y-10973000D02*
X21203000Y-11143000D01*
X22219000Y-10973000D02*
X22389000Y-11143000D01*
X22389000Y-10973000D02*
X22219000Y-11143000D01*
X12657000Y-17965000D02*
X12827000Y-18135000D01*
X12827000Y-17965000D02*
X12657000Y-18135000D01*
X13673000Y-17965000D02*
X13843000Y-18135000D01*
X13843000Y-17965000D02*
X13673000Y-18135000D01*
X11203000Y-10973000D02*
X11373000Y-11143000D01*
X11373000Y-10973000D02*
X11203000Y-11143000D01*
X12219000Y-10973000D02*
X12389000Y-11143000D01*
X12389000Y-10973000D02*
X12219000Y-11143000D01*
X17603000Y-15723000D02*
X17773000Y-15893000D01*
X17773000Y-15723000D02*
X17603000Y-15893000D01*
X18619000Y-15723000D02*
X18789000Y-15893000D01*
X18789000Y-15723000D02*
X18619000Y-15893000D01*
X11603000Y-15723000D02*
X11773000Y-15893000D01*
X11773000Y-15723000D02*
X11603000Y-15893000D01*
X12619000Y-15723000D02*
X12789000Y-15893000D01*
X12789000Y-15723000D02*
X12619000Y-15893000D01*
X8007000Y-8473000D02*
X8177000Y-8643000D01*
X8177000Y-8473000D02*
X8007000Y-8643000D01*
X9023000Y-8473000D02*
X9193000Y-8643000D01*
X9193000Y-8473000D02*
X9023000Y-8643000D01*
X35257000Y-20215000D02*
X35427000Y-20385000D01*
X35427000Y-20215000D02*
X35257000Y-20385000D01*
X36273000Y-20215000D02*
X36443000Y-20385000D01*
X36443000Y-20215000D02*
X36273000Y-20385000D01*
X24653000Y-17973000D02*
X24823000Y-18143000D01*
X24823000Y-17973000D02*
X24653000Y-18143000D01*
X25669000Y-17973000D02*
X25839000Y-18143000D01*
X25839000Y-17973000D02*
X25669000Y-18143000D01*
X18657000Y-17965000D02*
X18827000Y-18135000D01*
X18827000Y-17965000D02*
X18657000Y-18135000D01*
X19673000Y-17965000D02*
X19843000Y-18135000D01*
X19843000Y-17965000D02*
X19673000Y-18135000D01*
X18653000Y-8473000D02*
X18823000Y-8643000D01*
X18823000Y-8473000D02*
X18653000Y-8643000D01*
X19669000Y-8473000D02*
X19839000Y-8643000D01*
X19839000Y-8473000D02*
X19669000Y-8643000D01*
X4303000Y-8473000D02*
X4473000Y-8643000D01*
X4473000Y-8473000D02*
X4303000Y-8643000D01*
X5319000Y-8473000D02*
X5489000Y-8643000D01*
X5489000Y-8473000D02*
X5319000Y-8643000D01*
X7207000Y-10973000D02*
X7377000Y-11143000D01*
X7377000Y-10973000D02*
X7207000Y-11143000D01*
X8223000Y-10973000D02*
X8393000Y-11143000D01*
X8393000Y-10973000D02*
X8223000Y-11143000D01*
X6607000Y-20265000D02*
X6777000Y-20435000D01*
X6777000Y-20265000D02*
X6607000Y-20435000D01*
X7623000Y-20265000D02*
X7793000Y-20435000D01*
X7793000Y-20265000D02*
X7623000Y-20435000D01*
X13153000Y-13373000D02*
X13323000Y-13543000D01*
X13323000Y-13373000D02*
X13153000Y-13543000D01*
X14169000Y-13373000D02*
X14339000Y-13543000D01*
X14339000Y-13373000D02*
X14169000Y-13543000D01*
X37253000Y-11023000D02*
X37423000Y-11193000D01*
X37423000Y-11023000D02*
X37253000Y-11193000D01*
X38269000Y-11023000D02*
X38439000Y-11193000D01*
X38439000Y-11023000D02*
X38269000Y-11193000D01*
X5607000Y-15723000D02*
X5777000Y-15893000D01*
X5777000Y-15723000D02*
X5607000Y-15893000D01*
X6623000Y-15723000D02*
X6793000Y-15893000D01*
X6793000Y-15723000D02*
X6623000Y-15893000D01*
X33253000Y-13423000D02*
X33423000Y-13593000D01*
X33423000Y-13423000D02*
X33253000Y-13593000D01*
X34269000Y-13423000D02*
X34439000Y-13593000D01*
X34439000Y-13423000D02*
X34269000Y-13593000D01*
X29357000Y-17973000D02*
X29527000Y-18143000D01*
X29527000Y-17973000D02*
X29357000Y-18143000D01*
X30373000Y-17973000D02*
X30543000Y-18143000D01*
X30543000Y-17973000D02*
X30373000Y-18143000D01*
X27603000Y-15723000D02*
X27773000Y-15893000D01*
X27773000Y-15723000D02*
X27603000Y-15893000D01*
X28619000Y-15723000D02*
X28789000Y-15893000D01*
X28789000Y-15723000D02*
X28619000Y-15893000D01*
X19153000Y-13373000D02*
X19323000Y-13543000D01*
X19323000Y-13373000D02*
X19153000Y-13543000D01*
X20169000Y-13373000D02*
X20339000Y-13543000D01*
X20339000Y-13373000D02*
X20169000Y-13543000D01*
X10003000Y-8473000D02*
X10173000Y-8643000D01*
X10173000Y-8473000D02*
X10003000Y-8643000D01*
X11019000Y-8473000D02*
X11189000Y-8643000D01*
X11189000Y-8473000D02*
X11019000Y-8643000D01*
X17203000Y-10973000D02*
X17373000Y-11143000D01*
X17373000Y-10973000D02*
X17203000Y-11143000D01*
X18219000Y-10973000D02*
X18389000Y-11143000D01*
X18389000Y-10973000D02*
X18219000Y-11143000D01*
X35265000Y-8465000D02*
X35435000Y-8635000D01*
X35435000Y-8465000D02*
X35265000Y-8635000D01*
X36281000Y-8465000D02*
X36451000Y-8635000D01*
X36451000Y-8465000D02*
X36281000Y-8635000D01*
X29307000Y-8473000D02*
X29477000Y-8643000D01*
X29477000Y-8473000D02*
X29307000Y-8643000D01*
X30323000Y-8473000D02*
X30493000Y-8643000D01*
X30493000Y-8473000D02*
X30323000Y-8643000D01*
X25203000Y-10973000D02*
X25373000Y-11143000D01*
X25373000Y-10973000D02*
X25203000Y-11143000D01*
X26219000Y-10973000D02*
X26389000Y-11143000D01*
X26389000Y-10973000D02*
X26219000Y-11143000D01*
X29607000Y-20265000D02*
X29777000Y-20435000D01*
X29777000Y-20265000D02*
X29607000Y-20435000D01*
X30623000Y-20265000D02*
X30793000Y-20435000D01*
X30793000Y-20265000D02*
X30623000Y-20435000D01*
X23153000Y-13373000D02*
X23323000Y-13543000D01*
X23323000Y-13373000D02*
X23153000Y-13543000D01*
X24169000Y-13373000D02*
X24339000Y-13543000D01*
X24339000Y-13373000D02*
X24169000Y-13543000D01*
X12003000Y-8473000D02*
X12173000Y-8643000D01*
X12173000Y-8473000D02*
X12003000Y-8643000D01*
X13019000Y-8473000D02*
X13189000Y-8643000D01*
X13189000Y-8473000D02*
X13019000Y-8643000D01*
X15203000Y-10973000D02*
X15373000Y-11143000D01*
X15373000Y-10973000D02*
X15203000Y-11143000D01*
X16219000Y-10973000D02*
X16389000Y-11143000D01*
X16389000Y-10973000D02*
X16219000Y-11143000D01*
X21603000Y-15723000D02*
X21773000Y-15893000D01*
X21773000Y-15723000D02*
X21603000Y-15893000D01*
X22619000Y-15723000D02*
X22789000Y-15893000D01*
X22789000Y-15723000D02*
X22619000Y-15893000D01*
X19203000Y-10973000D02*
X19373000Y-11143000D01*
X19373000Y-10973000D02*
X19203000Y-11143000D01*
X20219000Y-10973000D02*
X20389000Y-11143000D01*
X20389000Y-10973000D02*
X20219000Y-11143000D01*
X6657000Y-17965000D02*
X6827000Y-18135000D01*
X6827000Y-17965000D02*
X6657000Y-18135000D01*
X7673000Y-17965000D02*
X7843000Y-18135000D01*
X7843000Y-17965000D02*
X7673000Y-18135000D01*
X11053000Y-20265000D02*
X11223000Y-20435000D01*
X11223000Y-20265000D02*
X11053000Y-20435000D01*
X12069000Y-20265000D02*
X12239000Y-20435000D01*
X12239000Y-20265000D02*
X12069000Y-20435000D01*
X14007000Y-8465000D02*
X14177000Y-8635000D01*
X14177000Y-8465000D02*
X14007000Y-8635000D01*
X15023000Y-8465000D02*
X15193000Y-8635000D01*
X15193000Y-8465000D02*
X15023000Y-8635000D01*
X4753000Y-10973000D02*
X4923000Y-11143000D01*
X4923000Y-10973000D02*
X4753000Y-11143000D01*
X5769000Y-10973000D02*
X5939000Y-11143000D01*
X5939000Y-10973000D02*
X5769000Y-11143000D01*
X10657000Y-17965000D02*
X10827000Y-18135000D01*
X10827000Y-17965000D02*
X10657000Y-18135000D01*
X11673000Y-17965000D02*
X11843000Y-18135000D01*
X11843000Y-17965000D02*
X11673000Y-18135000D01*
X22603000Y-8473000D02*
X22773000Y-8643000D01*
X22773000Y-8473000D02*
X22603000Y-8643000D01*
X23619000Y-8473000D02*
X23789000Y-8643000D01*
X23789000Y-8473000D02*
X23619000Y-8643000D01*
X17153000Y-13373000D02*
X17323000Y-13543000D01*
X17323000Y-13373000D02*
X17153000Y-13543000D01*
X18169000Y-13373000D02*
X18339000Y-13543000D01*
X18339000Y-13373000D02*
X18169000Y-13543000D01*
X16657000Y-8473000D02*
X16827000Y-8643000D01*
X16827000Y-8473000D02*
X16657000Y-8643000D01*
X17673000Y-8473000D02*
X17843000Y-8643000D01*
X17843000Y-8473000D02*
X17673000Y-8643000D01*
X9603000Y-15723000D02*
X9773000Y-15893000D01*
X9773000Y-15723000D02*
X9603000Y-15893000D01*
X10619000Y-15723000D02*
X10789000Y-15893000D01*
X10789000Y-15723000D02*
X10619000Y-15893000D01*
X33257000Y-20223000D02*
X33427000Y-20393000D01*
X33427000Y-20223000D02*
X33257000Y-20393000D01*
X34273000Y-20223000D02*
X34443000Y-20393000D01*
X34443000Y-20223000D02*
X34273000Y-20393000D01*
X29853000Y-14323000D02*
X30023000Y-14493000D01*
X30023000Y-14323000D02*
X29853000Y-14493000D01*
X30869000Y-14323000D02*
X31039000Y-14493000D01*
X31039000Y-14323000D02*
X30869000Y-14493000D01*
X22653000Y-17973000D02*
X22823000Y-18143000D01*
X22823000Y-17973000D02*
X22653000Y-18143000D01*
X23669000Y-17973000D02*
X23839000Y-18143000D01*
X23839000Y-17973000D02*
X23669000Y-18143000D01*
X16657000Y-17965000D02*
X16827000Y-18135000D01*
X16827000Y-17965000D02*
X16657000Y-18135000D01*
X17673000Y-17965000D02*
X17843000Y-18135000D01*
X17843000Y-17965000D02*
X17673000Y-18135000D01*
X35257000Y-17965000D02*
X35427000Y-18135000D01*
X35427000Y-17965000D02*
X35257000Y-18135000D01*
X36273000Y-17965000D02*
X36443000Y-18135000D01*
X36443000Y-17965000D02*
X36273000Y-18135000D01*
X9203000Y-10973000D02*
X9373000Y-11143000D01*
X9373000Y-10973000D02*
X9203000Y-11143000D01*
X10219000Y-10973000D02*
X10389000Y-11143000D01*
X10389000Y-10973000D02*
X10219000Y-11143000D01*
X11153000Y-13373000D02*
X11323000Y-13543000D01*
X11323000Y-13373000D02*
X11153000Y-13543000D01*
X12169000Y-13373000D02*
X12339000Y-13543000D01*
X12339000Y-13373000D02*
X12169000Y-13543000D01*
X15603000Y-15723000D02*
X15773000Y-15893000D01*
X15773000Y-15723000D02*
X15603000Y-15893000D01*
X16619000Y-15723000D02*
X16789000Y-15893000D01*
X16789000Y-15723000D02*
X16619000Y-15893000D01*
X37253000Y-13423000D02*
X37423000Y-13593000D01*
X37423000Y-13423000D02*
X37253000Y-13593000D01*
X38269000Y-13423000D02*
X38439000Y-13593000D01*
X38439000Y-13423000D02*
X38269000Y-13593000D01*
X27153000Y-13373000D02*
X27323000Y-13543000D01*
X27323000Y-13373000D02*
X27153000Y-13543000D01*
X28169000Y-13373000D02*
X28339000Y-13543000D01*
X28339000Y-13373000D02*
X28169000Y-13543000D01*
X27157000Y-20265000D02*
X27327000Y-20435000D01*
X27327000Y-20265000D02*
X27157000Y-20435000D01*
X28173000Y-20265000D02*
X28343000Y-20435000D01*
X28343000Y-20265000D02*
X28173000Y-20435000D01*
X25603000Y-15723000D02*
X25773000Y-15893000D01*
X25773000Y-15723000D02*
X25603000Y-15893000D01*
X26619000Y-15723000D02*
X26789000Y-15893000D01*
X26789000Y-15723000D02*
X26619000Y-15893000D01*
X9057000Y-20265000D02*
X9227000Y-20435000D01*
X9227000Y-20265000D02*
X9057000Y-20435000D01*
X10073000Y-20265000D02*
X10243000Y-20435000D01*
X10243000Y-20265000D02*
X10073000Y-20435000D01*
X33307000Y-8465000D02*
X33477000Y-8635000D01*
X33477000Y-8465000D02*
X33307000Y-8635000D01*
X34323000Y-8465000D02*
X34493000Y-8635000D01*
X34493000Y-8465000D02*
X34323000Y-8635000D01*
X35253000Y-11023000D02*
X35423000Y-11193000D01*
X35423000Y-11023000D02*
X35253000Y-11193000D01*
X36269000Y-11023000D02*
X36439000Y-11193000D01*
X36439000Y-11023000D02*
X36269000Y-11193000D01*
X27303000Y-8473000D02*
X27473000Y-8643000D01*
X27473000Y-8473000D02*
X27303000Y-8643000D01*
X28319000Y-8473000D02*
X28489000Y-8643000D01*
X28489000Y-8473000D02*
X28319000Y-8643000D01*
X23203000Y-10973000D02*
X23373000Y-11143000D01*
X23373000Y-10973000D02*
X23203000Y-11143000D01*
X24219000Y-10973000D02*
X24389000Y-11143000D01*
X24389000Y-10973000D02*
X24219000Y-11143000D01*
X33253000Y-11023000D02*
X33423000Y-11193000D01*
X33423000Y-11023000D02*
X33253000Y-11193000D01*
X34269000Y-11023000D02*
X34439000Y-11193000D01*
X34439000Y-11023000D02*
X34269000Y-11193000D01*
X13203000Y-10973000D02*
X13373000Y-11143000D01*
X13373000Y-10973000D02*
X13203000Y-11143000D01*
X14219000Y-10973000D02*
X14389000Y-11143000D01*
X14389000Y-10973000D02*
X14219000Y-11143000D01*
X19603000Y-15723000D02*
X19773000Y-15893000D01*
X19773000Y-15723000D02*
X19603000Y-15893000D01*
X20619000Y-15723000D02*
X20789000Y-15893000D01*
X20789000Y-15723000D02*
X20619000Y-15893000D01*
X37257000Y-20215000D02*
X37427000Y-20385000D01*
X37427000Y-20215000D02*
X37257000Y-20385000D01*
X38273000Y-20215000D02*
X38443000Y-20385000D01*
X38443000Y-20215000D02*
X38273000Y-20385000D01*
X7153000Y-13373000D02*
X7323000Y-13543000D01*
X7323000Y-13373000D02*
X7153000Y-13543000D01*
X8169000Y-13373000D02*
X8339000Y-13543000D01*
X8339000Y-13373000D02*
X8169000Y-13543000D01*
X26653000Y-17973000D02*
X26823000Y-18143000D01*
X26823000Y-17973000D02*
X26653000Y-18143000D01*
X27669000Y-17973000D02*
X27839000Y-18143000D01*
X27839000Y-17973000D02*
X27669000Y-18143000D01*
X20653000Y-17973000D02*
X20823000Y-18143000D01*
X20823000Y-17973000D02*
X20653000Y-18143000D01*
X21669000Y-17973000D02*
X21839000Y-18143000D01*
X21839000Y-17973000D02*
X21669000Y-18143000D01*
X21153000Y-13373000D02*
X21323000Y-13543000D01*
X21323000Y-13373000D02*
X21153000Y-13543000D01*
X22169000Y-13373000D02*
X22339000Y-13543000D01*
X22339000Y-13373000D02*
X22169000Y-13543000D01*
X8657000Y-17965000D02*
X8827000Y-18135000D01*
X8827000Y-17965000D02*
X8657000Y-18135000D01*
X9673000Y-17965000D02*
X9843000Y-18135000D01*
X9843000Y-17965000D02*
X9673000Y-18135000D01*
X15153000Y-13373000D02*
X15323000Y-13543000D01*
X15323000Y-13373000D02*
X15153000Y-13543000D01*
X16169000Y-13373000D02*
X16339000Y-13543000D01*
X16339000Y-13373000D02*
X16169000Y-13543000D01*
X18057000Y-20265000D02*
X18227000Y-20435000D01*
X18227000Y-20265000D02*
X18057000Y-20435000D01*
X19073000Y-20265000D02*
X19243000Y-20435000D01*
X19243000Y-20265000D02*
X19073000Y-20435000D01*
X9153000Y-13373000D02*
X9323000Y-13543000D01*
X9323000Y-13373000D02*
X9153000Y-13543000D01*
X10169000Y-13373000D02*
X10339000Y-13543000D01*
X10339000Y-13373000D02*
X10169000Y-13543000D01*
X13603000Y-15723000D02*
X13773000Y-15893000D01*
X13773000Y-15723000D02*
X13603000Y-15893000D01*
X14619000Y-15723000D02*
X14789000Y-15893000D01*
X14789000Y-15723000D02*
X14619000Y-15893000D01*
X7603000Y-15723000D02*
X7773000Y-15893000D01*
X7773000Y-15723000D02*
X7603000Y-15893000D01*
X8619000Y-15723000D02*
X8789000Y-15893000D01*
X8789000Y-15723000D02*
X8619000Y-15893000D01*
X35253000Y-13423000D02*
X35423000Y-13593000D01*
X35423000Y-13423000D02*
X35253000Y-13593000D01*
X36269000Y-13423000D02*
X36439000Y-13593000D01*
X36439000Y-13423000D02*
X36269000Y-13593000D01*
X14657000Y-17965000D02*
X14827000Y-18135000D01*
X14827000Y-17965000D02*
X14657000Y-18135000D01*
X15673000Y-17965000D02*
X15843000Y-18135000D01*
X15843000Y-17965000D02*
X15673000Y-18135000D01*
X25057000Y-20265000D02*
X25227000Y-20435000D01*
X25227000Y-20265000D02*
X25057000Y-20435000D01*
X26073000Y-20265000D02*
X26243000Y-20435000D01*
X26243000Y-20265000D02*
X26073000Y-20435000D01*
X37265000Y-8465000D02*
X37435000Y-8635000D01*
X37435000Y-8465000D02*
X37265000Y-8635000D01*
X38281000Y-8465000D02*
X38451000Y-8635000D01*
X38451000Y-8465000D02*
X38281000Y-8635000D01*
X31307000Y-8465000D02*
X31477000Y-8635000D01*
X31477000Y-8465000D02*
X31307000Y-8635000D01*
X32323000Y-8465000D02*
X32493000Y-8635000D01*
X32493000Y-8465000D02*
X32323000Y-8635000D01*
X29657000Y-10965000D02*
X29827000Y-11135000D01*
X29827000Y-10965000D02*
X29657000Y-11135000D01*
X30673000Y-10965000D02*
X30843000Y-11135000D01*
X30843000Y-10965000D02*
X30673000Y-11135000D01*
X25303000Y-8473000D02*
X25473000Y-8643000D01*
X25473000Y-8473000D02*
X25303000Y-8643000D01*
X26319000Y-8473000D02*
X26489000Y-8643000D01*
X26489000Y-8473000D02*
X26319000Y-8643000D01*
X20653000Y-8473000D02*
X20823000Y-8643000D01*
X20823000Y-8473000D02*
X20653000Y-8643000D01*
X21669000Y-8473000D02*
X21839000Y-8643000D01*
X21839000Y-8473000D02*
X21669000Y-8643000D01*
X25153000Y-13373000D02*
X25323000Y-13543000D01*
X25323000Y-13373000D02*
X25153000Y-13543000D01*
X26169000Y-13373000D02*
X26339000Y-13543000D01*
X26339000Y-13373000D02*
X26169000Y-13543000D01*
X23603000Y-15723000D02*
X23773000Y-15893000D01*
X23773000Y-15723000D02*
X23603000Y-15893000D01*
X24619000Y-15723000D02*
X24789000Y-15893000D01*
X24789000Y-15723000D02*
X24619000Y-15893000D01*
X4657000Y-13365000D02*
X4827000Y-13535000D01*
X4827000Y-13365000D02*
X4657000Y-13535000D01*
X5673000Y-13365000D02*
X5843000Y-13535000D01*
X5843000Y-13365000D02*
X5673000Y-13535000D01*
X29898500Y-13218000D02*
G75*
G03*
X29898500Y-13218000I-152500J0D01*
G01*
X29898500Y-15598000D02*
G75*
G03*
X29898500Y-15598000I-152500J0D01*
G01*
X13802500Y-19650000D02*
G75*
G03*
X13802500Y-19650000I-152500J0D01*
G01*
X23802500Y-19650000D02*
G75*
G03*
X23802500Y-19650000I-152500J0D01*
G01*
X23746000Y-13258000D02*
X23746000Y-13658000D01*
X23546000Y-13458000D02*
X23946000Y-13458000D01*
X12596000Y-8358000D02*
X12596000Y-8758000D01*
X12396000Y-8558000D02*
X12796000Y-8558000D01*
X15796000Y-10858000D02*
X15796000Y-11258000D01*
X15596000Y-11058000D02*
X15996000Y-11058000D01*
X22196000Y-15608000D02*
X22196000Y-16008000D01*
X21996000Y-15808000D02*
X22396000Y-15808000D01*
X19796000Y-10858000D02*
X19796000Y-11258000D01*
X19596000Y-11058000D02*
X19996000Y-11058000D01*
X7250000Y-17850000D02*
X7250000Y-18250000D01*
X7050000Y-18050000D02*
X7450000Y-18050000D01*
X11646000Y-20150000D02*
X11646000Y-20550000D01*
X11446000Y-20350000D02*
X11846000Y-20350000D01*
X14600000Y-8350000D02*
X14600000Y-8750000D01*
X14400000Y-8550000D02*
X14800000Y-8550000D01*
X5346000Y-10858000D02*
X5346000Y-11258000D01*
X5146000Y-11058000D02*
X5546000Y-11058000D01*
X11250000Y-17850000D02*
X11250000Y-18250000D01*
X11050000Y-18050000D02*
X11450000Y-18050000D01*
X23196000Y-8358000D02*
X23196000Y-8758000D01*
X22996000Y-8558000D02*
X23396000Y-8558000D01*
X17746000Y-13258000D02*
X17746000Y-13658000D01*
X17546000Y-13458000D02*
X17946000Y-13458000D01*
X17250000Y-8358000D02*
X17250000Y-8758000D01*
X17050000Y-8558000D02*
X17450000Y-8558000D01*
X10196000Y-15608000D02*
X10196000Y-16008000D01*
X9996000Y-15808000D02*
X10396000Y-15808000D01*
X33850000Y-20108000D02*
X33850000Y-20508000D01*
X33650000Y-20308000D02*
X34050000Y-20308000D01*
X30446000Y-14208000D02*
X30446000Y-14608000D01*
X30246000Y-14408000D02*
X30646000Y-14408000D01*
X31270000Y-13018000D02*
X31270000Y-13418000D01*
X31070000Y-13218000D02*
X31470000Y-13218000D01*
X31270000Y-15398000D02*
X31270000Y-15798000D01*
X31070000Y-15598000D02*
X31470000Y-15598000D01*
X23246000Y-17858000D02*
X23246000Y-18258000D01*
X23046000Y-18058000D02*
X23446000Y-18058000D01*
X17250000Y-17850000D02*
X17250000Y-18250000D01*
X17050000Y-18050000D02*
X17450000Y-18050000D01*
X35850000Y-17850000D02*
X35850000Y-18250000D01*
X35650000Y-18050000D02*
X36050000Y-18050000D01*
X9796000Y-10858000D02*
X9796000Y-11258000D01*
X9596000Y-11058000D02*
X9996000Y-11058000D01*
X11746000Y-13258000D02*
X11746000Y-13658000D01*
X11546000Y-13458000D02*
X11946000Y-13458000D01*
X16196000Y-15608000D02*
X16196000Y-16008000D01*
X15996000Y-15808000D02*
X16396000Y-15808000D01*
X37846000Y-13308000D02*
X37846000Y-13708000D01*
X37646000Y-13508000D02*
X38046000Y-13508000D01*
X27746000Y-13258000D02*
X27746000Y-13658000D01*
X27546000Y-13458000D02*
X27946000Y-13458000D01*
X27750000Y-20150000D02*
X27750000Y-20550000D01*
X27550000Y-20350000D02*
X27950000Y-20350000D01*
X26196000Y-15608000D02*
X26196000Y-16008000D01*
X25996000Y-15808000D02*
X26396000Y-15808000D01*
X9650000Y-20150000D02*
X9650000Y-20550000D01*
X9450000Y-20350000D02*
X9850000Y-20350000D01*
X33900000Y-8350000D02*
X33900000Y-8750000D01*
X33700000Y-8550000D02*
X34100000Y-8550000D01*
X35846000Y-10908000D02*
X35846000Y-11308000D01*
X35646000Y-11108000D02*
X36046000Y-11108000D01*
X27896000Y-8358000D02*
X27896000Y-8758000D01*
X27696000Y-8558000D02*
X28096000Y-8558000D01*
X23796000Y-10858000D02*
X23796000Y-11258000D01*
X23596000Y-11058000D02*
X23996000Y-11058000D01*
X33846000Y-10908000D02*
X33846000Y-11308000D01*
X33646000Y-11108000D02*
X34046000Y-11108000D01*
X13796000Y-10858000D02*
X13796000Y-11258000D01*
X13596000Y-11058000D02*
X13996000Y-11058000D01*
X20196000Y-15608000D02*
X20196000Y-16008000D01*
X19996000Y-15808000D02*
X20396000Y-15808000D01*
X37850000Y-20100000D02*
X37850000Y-20500000D01*
X37650000Y-20300000D02*
X38050000Y-20300000D01*
X7746000Y-13258000D02*
X7746000Y-13658000D01*
X7546000Y-13458000D02*
X7946000Y-13458000D01*
X27246000Y-17858000D02*
X27246000Y-18258000D01*
X27046000Y-18058000D02*
X27446000Y-18058000D01*
X21246000Y-17858000D02*
X21246000Y-18258000D01*
X21046000Y-18058000D02*
X21446000Y-18058000D01*
X21746000Y-13258000D02*
X21746000Y-13658000D01*
X21546000Y-13458000D02*
X21946000Y-13458000D01*
X9250000Y-17850000D02*
X9250000Y-18250000D01*
X9050000Y-18050000D02*
X9450000Y-18050000D01*
X15746000Y-13258000D02*
X15746000Y-13658000D01*
X15546000Y-13458000D02*
X15946000Y-13458000D01*
X13650000Y-20974000D02*
X13650000Y-21374000D01*
X13450000Y-21174000D02*
X13850000Y-21174000D01*
X18650000Y-20150000D02*
X18650000Y-20550000D01*
X18450000Y-20350000D02*
X18850000Y-20350000D01*
X23650000Y-20974000D02*
X23650000Y-21374000D01*
X23450000Y-21174000D02*
X23850000Y-21174000D01*
X9746000Y-13258000D02*
X9746000Y-13658000D01*
X9546000Y-13458000D02*
X9946000Y-13458000D01*
X14196000Y-15608000D02*
X14196000Y-16008000D01*
X13996000Y-15808000D02*
X14396000Y-15808000D01*
X8196000Y-15608000D02*
X8196000Y-16008000D01*
X7996000Y-15808000D02*
X8396000Y-15808000D01*
X35846000Y-13308000D02*
X35846000Y-13708000D01*
X35646000Y-13508000D02*
X36046000Y-13508000D01*
X15250000Y-17850000D02*
X15250000Y-18250000D01*
X15050000Y-18050000D02*
X15450000Y-18050000D01*
X25650000Y-20150000D02*
X25650000Y-20550000D01*
X25450000Y-20350000D02*
X25850000Y-20350000D01*
X37858000Y-8350000D02*
X37858000Y-8750000D01*
X37658000Y-8550000D02*
X38058000Y-8550000D01*
X31900000Y-8350000D02*
X31900000Y-8750000D01*
X31700000Y-8550000D02*
X32100000Y-8550000D01*
X30250000Y-10850000D02*
X30250000Y-11250000D01*
X30050000Y-11050000D02*
X30450000Y-11050000D01*
X25896000Y-8358000D02*
X25896000Y-8758000D01*
X25696000Y-8558000D02*
X26096000Y-8558000D01*
X21246000Y-8358000D02*
X21246000Y-8758000D01*
X21046000Y-8558000D02*
X21446000Y-8558000D01*
X25746000Y-13258000D02*
X25746000Y-13658000D01*
X25546000Y-13458000D02*
X25946000Y-13458000D01*
X24196000Y-15608000D02*
X24196000Y-16008000D01*
X23996000Y-15808000D02*
X24396000Y-15808000D01*
X5250000Y-13250000D02*
X5250000Y-13650000D01*
X5050000Y-13450000D02*
X5450000Y-13450000D01*
X27796000Y-10858000D02*
X27796000Y-11258000D01*
X27596000Y-11058000D02*
X27996000Y-11058000D01*
X21796000Y-10858000D02*
X21796000Y-11258000D01*
X21596000Y-11058000D02*
X21996000Y-11058000D01*
X13250000Y-17850000D02*
X13250000Y-18250000D01*
X13050000Y-18050000D02*
X13450000Y-18050000D01*
X11796000Y-10858000D02*
X11796000Y-11258000D01*
X11596000Y-11058000D02*
X11996000Y-11058000D01*
X18196000Y-15608000D02*
X18196000Y-16008000D01*
X17996000Y-15808000D02*
X18396000Y-15808000D01*
X12196000Y-15608000D02*
X12196000Y-16008000D01*
X11996000Y-15808000D02*
X12396000Y-15808000D01*
X8600000Y-8358000D02*
X8600000Y-8758000D01*
X8400000Y-8558000D02*
X8800000Y-8558000D01*
X35850000Y-20100000D02*
X35850000Y-20500000D01*
X35650000Y-20300000D02*
X36050000Y-20300000D01*
X25246000Y-17858000D02*
X25246000Y-18258000D01*
X25046000Y-18058000D02*
X25446000Y-18058000D01*
X19250000Y-17850000D02*
X19250000Y-18250000D01*
X19050000Y-18050000D02*
X19450000Y-18050000D01*
X19246000Y-8358000D02*
X19246000Y-8758000D01*
X19046000Y-8558000D02*
X19446000Y-8558000D01*
X4896000Y-8358000D02*
X4896000Y-8758000D01*
X4696000Y-8558000D02*
X5096000Y-8558000D01*
X7800000Y-10858000D02*
X7800000Y-11258000D01*
X7600000Y-11058000D02*
X8000000Y-11058000D01*
X7200000Y-20150000D02*
X7200000Y-20550000D01*
X7000000Y-20350000D02*
X7400000Y-20350000D01*
X13746000Y-13258000D02*
X13746000Y-13658000D01*
X13546000Y-13458000D02*
X13946000Y-13458000D01*
X37846000Y-10908000D02*
X37846000Y-11308000D01*
X37646000Y-11108000D02*
X38046000Y-11108000D01*
X6200000Y-15608000D02*
X6200000Y-16008000D01*
X6000000Y-15808000D02*
X6400000Y-15808000D01*
X33846000Y-13308000D02*
X33846000Y-13708000D01*
X33646000Y-13508000D02*
X34046000Y-13508000D01*
X29950000Y-17858000D02*
X29950000Y-18258000D01*
X29750000Y-18058000D02*
X30150000Y-18058000D01*
X28196000Y-15608000D02*
X28196000Y-16008000D01*
X27996000Y-15808000D02*
X28396000Y-15808000D01*
X19746000Y-13258000D02*
X19746000Y-13658000D01*
X19546000Y-13458000D02*
X19946000Y-13458000D01*
X10596000Y-8358000D02*
X10596000Y-8758000D01*
X10396000Y-8558000D02*
X10796000Y-8558000D01*
X17796000Y-10858000D02*
X17796000Y-11258000D01*
X17596000Y-11058000D02*
X17996000Y-11058000D01*
X35858000Y-8350000D02*
X35858000Y-8750000D01*
X35658000Y-8550000D02*
X36058000Y-8550000D01*
X29900000Y-8358000D02*
X29900000Y-8758000D01*
X29700000Y-8558000D02*
X30100000Y-8558000D01*
X25796000Y-10858000D02*
X25796000Y-11258000D01*
X25596000Y-11058000D02*
X25996000Y-11058000D01*
X30200000Y-20150000D02*
X30200000Y-20550000D01*
X30000000Y-20350000D02*
X30400000Y-20350000D01*
D12*
X2783928Y-22818214D02*
X2783928Y-22518214D01*
X2855357Y-22518214D01*
X2898214Y-22532500D01*
X2926786Y-22561071D01*
X2941071Y-22589643D01*
X2955357Y-22646786D01*
X2955357Y-22689643D01*
X2941071Y-22746786D01*
X2926786Y-22775357D01*
X2898214Y-22803929D01*
X2855357Y-22818214D01*
X2783928Y-22818214D01*
X3083928Y-22818214D02*
X3083928Y-22618214D01*
X3083928Y-22675357D02*
X3098214Y-22646786D01*
X3112500Y-22632500D01*
X3141071Y-22618214D01*
X3169643Y-22618214D01*
X3269643Y-22818214D02*
X3269643Y-22618214D01*
X3269643Y-22518214D02*
X3255357Y-22532500D01*
X3269643Y-22546786D01*
X3283928Y-22532500D01*
X3269643Y-22518214D01*
X3269643Y-22546786D01*
X3455357Y-22818214D02*
X3426786Y-22803929D01*
X3412500Y-22775357D01*
X3412500Y-22518214D01*
X3612500Y-22818214D02*
X3583928Y-22803929D01*
X3569643Y-22775357D01*
X3569643Y-22518214D01*
X3955357Y-22818214D02*
X3955357Y-22518214D01*
X4055357Y-22732500D01*
X4155357Y-22518214D01*
X4155357Y-22818214D01*
X4426786Y-22818214D02*
X4426786Y-22661071D01*
X4412500Y-22632500D01*
X4383928Y-22618214D01*
X4326786Y-22618214D01*
X4298214Y-22632500D01*
X4426786Y-22803929D02*
X4398214Y-22818214D01*
X4326786Y-22818214D01*
X4298214Y-22803929D01*
X4283928Y-22775357D01*
X4283928Y-22746786D01*
X4298214Y-22718214D01*
X4326786Y-22703929D01*
X4398214Y-22703929D01*
X4426786Y-22689643D01*
X4569643Y-22618214D02*
X4569643Y-22918214D01*
X4569643Y-22632500D02*
X4598214Y-22618214D01*
X4655357Y-22618214D01*
X4683928Y-22632500D01*
X4698214Y-22646786D01*
X4712500Y-22675357D01*
X4712500Y-22761071D01*
X4698214Y-22789643D01*
X4683928Y-22803929D01*
X4655357Y-22818214D01*
X4598214Y-22818214D01*
X4569643Y-22803929D01*
X4841071Y-22789643D02*
X4855357Y-22803929D01*
X4841071Y-22818214D01*
X4826786Y-22803929D01*
X4841071Y-22789643D01*
X4841071Y-22818214D01*
X4841071Y-22632500D02*
X4855357Y-22646786D01*
X4841071Y-22661071D01*
X4826786Y-22646786D01*
X4841071Y-22632500D01*
X4841071Y-22661071D01*
X2327500Y-23227500D02*
X2497500Y-23397500D01*
X2497500Y-23227500D02*
X2327500Y-23397500D01*
X2941071Y-23448214D02*
X2769643Y-23448214D01*
X2855357Y-23448214D02*
X2855357Y-23148214D01*
X2826786Y-23191071D01*
X2798214Y-23219643D01*
X2769643Y-23233929D01*
X3069643Y-23419643D02*
X3083928Y-23433929D01*
X3069643Y-23448214D01*
X3055357Y-23433929D01*
X3069643Y-23419643D01*
X3069643Y-23448214D01*
X3183928Y-23148214D02*
X3383928Y-23148214D01*
X3255357Y-23448214D01*
X3555357Y-23148214D02*
X3583928Y-23148214D01*
X3612500Y-23162500D01*
X3626786Y-23176786D01*
X3641071Y-23205357D01*
X3655357Y-23262500D01*
X3655357Y-23333929D01*
X3641071Y-23391071D01*
X3626786Y-23419643D01*
X3612500Y-23433929D01*
X3583928Y-23448214D01*
X3555357Y-23448214D01*
X3526786Y-23433929D01*
X3512500Y-23419643D01*
X3498214Y-23391071D01*
X3483928Y-23333929D01*
X3483928Y-23262500D01*
X3498214Y-23205357D01*
X3512500Y-23176786D01*
X3526786Y-23162500D01*
X3555357Y-23148214D01*
X3783928Y-23448214D02*
X3783928Y-23248214D01*
X3783928Y-23276786D02*
X3798214Y-23262500D01*
X3826786Y-23248214D01*
X3869643Y-23248214D01*
X3898214Y-23262500D01*
X3912500Y-23291071D01*
X3912500Y-23448214D01*
X3912500Y-23291071D02*
X3926786Y-23262500D01*
X3955357Y-23248214D01*
X3998214Y-23248214D01*
X4026786Y-23262500D01*
X4041071Y-23291071D01*
X4041071Y-23448214D01*
X4183928Y-23448214D02*
X4183928Y-23248214D01*
X4183928Y-23276786D02*
X4198214Y-23262500D01*
X4226786Y-23248214D01*
X4269643Y-23248214D01*
X4298214Y-23262500D01*
X4312500Y-23291071D01*
X4312500Y-23448214D01*
X4312500Y-23291071D02*
X4326786Y-23262500D01*
X4355357Y-23248214D01*
X4398214Y-23248214D01*
X4426786Y-23262500D01*
X4441071Y-23291071D01*
X4441071Y-23448214D01*
X5026786Y-23133929D02*
X4769643Y-23519643D01*
X5412500Y-23148214D02*
X5441071Y-23148214D01*
X5469643Y-23162500D01*
X5483928Y-23176786D01*
X5498214Y-23205357D01*
X5512500Y-23262500D01*
X5512500Y-23333929D01*
X5498214Y-23391071D01*
X5483928Y-23419643D01*
X5469643Y-23433929D01*
X5441071Y-23448214D01*
X5412500Y-23448214D01*
X5383928Y-23433929D01*
X5369643Y-23419643D01*
X5355357Y-23391071D01*
X5341071Y-23333929D01*
X5341071Y-23262500D01*
X5355357Y-23205357D01*
X5369643Y-23176786D01*
X5383928Y-23162500D01*
X5412500Y-23148214D01*
X5641071Y-23419643D02*
X5655357Y-23433929D01*
X5641071Y-23448214D01*
X5626786Y-23433929D01*
X5641071Y-23419643D01*
X5641071Y-23448214D01*
X5841071Y-23148214D02*
X5869643Y-23148214D01*
X5898214Y-23162500D01*
X5912500Y-23176786D01*
X5926786Y-23205357D01*
X5941071Y-23262500D01*
X5941071Y-23333929D01*
X5926786Y-23391071D01*
X5912500Y-23419643D01*
X5898214Y-23433929D01*
X5869643Y-23448214D01*
X5841071Y-23448214D01*
X5812500Y-23433929D01*
X5798214Y-23419643D01*
X5783928Y-23391071D01*
X5769643Y-23333929D01*
X5769643Y-23262500D01*
X5783928Y-23205357D01*
X5798214Y-23176786D01*
X5812500Y-23162500D01*
X5841071Y-23148214D01*
X6198214Y-23148214D02*
X6141071Y-23148214D01*
X6112500Y-23162500D01*
X6098214Y-23176786D01*
X6069643Y-23219643D01*
X6055357Y-23276786D01*
X6055357Y-23391071D01*
X6069643Y-23419643D01*
X6083928Y-23433929D01*
X6112500Y-23448214D01*
X6169643Y-23448214D01*
X6198214Y-23433929D01*
X6212500Y-23419643D01*
X6226786Y-23391071D01*
X6226786Y-23319643D01*
X6212500Y-23291071D01*
X6198214Y-23276786D01*
X6169643Y-23262500D01*
X6112500Y-23262500D01*
X6083928Y-23276786D01*
X6069643Y-23291071D01*
X6055357Y-23319643D01*
X6326786Y-23148214D02*
X6526786Y-23148214D01*
X6398214Y-23448214D01*
X6626786Y-23148214D02*
X6626786Y-23205357D01*
X6741071Y-23148214D02*
X6741071Y-23205357D01*
X7183928Y-23562500D02*
X7169643Y-23548214D01*
X7141071Y-23505357D01*
X7126786Y-23476786D01*
X7112500Y-23433929D01*
X7098214Y-23362500D01*
X7098214Y-23305357D01*
X7112500Y-23233929D01*
X7126786Y-23191071D01*
X7141071Y-23162500D01*
X7169643Y-23119643D01*
X7183928Y-23105357D01*
X7455357Y-23448214D02*
X7283928Y-23448214D01*
X7369643Y-23448214D02*
X7369643Y-23148214D01*
X7341071Y-23191071D01*
X7312500Y-23219643D01*
X7283928Y-23233929D01*
X7712500Y-23148214D02*
X7655357Y-23148214D01*
X7626786Y-23162500D01*
X7612500Y-23176786D01*
X7583928Y-23219643D01*
X7569643Y-23276786D01*
X7569643Y-23391071D01*
X7583928Y-23419643D01*
X7598214Y-23433929D01*
X7626786Y-23448214D01*
X7683928Y-23448214D01*
X7712500Y-23433929D01*
X7726786Y-23419643D01*
X7741071Y-23391071D01*
X7741071Y-23319643D01*
X7726786Y-23291071D01*
X7712500Y-23276786D01*
X7683928Y-23262500D01*
X7626786Y-23262500D01*
X7598214Y-23276786D01*
X7583928Y-23291071D01*
X7569643Y-23319643D01*
X7998214Y-23148214D02*
X7941071Y-23148214D01*
X7912500Y-23162500D01*
X7898214Y-23176786D01*
X7869643Y-23219643D01*
X7855357Y-23276786D01*
X7855357Y-23391071D01*
X7869643Y-23419643D01*
X7883928Y-23433929D01*
X7912500Y-23448214D01*
X7969643Y-23448214D01*
X7998214Y-23433929D01*
X8012500Y-23419643D01*
X8026786Y-23391071D01*
X8026786Y-23319643D01*
X8012500Y-23291071D01*
X7998214Y-23276786D01*
X7969643Y-23262500D01*
X7912500Y-23262500D01*
X7883928Y-23276786D01*
X7869643Y-23291071D01*
X7855357Y-23319643D01*
X8383928Y-23448214D02*
X8383928Y-23148214D01*
X8512500Y-23448214D02*
X8512500Y-23291071D01*
X8498214Y-23262500D01*
X8469643Y-23248214D01*
X8426786Y-23248214D01*
X8398214Y-23262500D01*
X8383928Y-23276786D01*
X8698214Y-23448214D02*
X8669643Y-23433929D01*
X8655357Y-23419643D01*
X8641071Y-23391071D01*
X8641071Y-23305357D01*
X8655357Y-23276786D01*
X8669643Y-23262500D01*
X8698214Y-23248214D01*
X8741071Y-23248214D01*
X8769643Y-23262500D01*
X8783928Y-23276786D01*
X8798214Y-23305357D01*
X8798214Y-23391071D01*
X8783928Y-23419643D01*
X8769643Y-23433929D01*
X8741071Y-23448214D01*
X8698214Y-23448214D01*
X8969643Y-23448214D02*
X8941071Y-23433929D01*
X8926786Y-23405357D01*
X8926786Y-23148214D01*
X9198214Y-23433929D02*
X9169643Y-23448214D01*
X9112500Y-23448214D01*
X9083928Y-23433929D01*
X9069643Y-23405357D01*
X9069643Y-23291071D01*
X9083928Y-23262500D01*
X9112500Y-23248214D01*
X9169643Y-23248214D01*
X9198214Y-23262500D01*
X9212500Y-23291071D01*
X9212500Y-23319643D01*
X9069643Y-23348214D01*
X9326786Y-23433929D02*
X9355357Y-23448214D01*
X9412500Y-23448214D01*
X9441071Y-23433929D01*
X9455357Y-23405357D01*
X9455357Y-23391071D01*
X9441071Y-23362500D01*
X9412500Y-23348214D01*
X9369643Y-23348214D01*
X9341071Y-23333929D01*
X9326786Y-23305357D01*
X9326786Y-23291071D01*
X9341071Y-23262500D01*
X9369643Y-23248214D01*
X9412500Y-23248214D01*
X9441071Y-23262500D01*
X9555357Y-23562500D02*
X9569643Y-23548214D01*
X9598214Y-23505357D01*
X9612500Y-23476786D01*
X9626786Y-23433929D01*
X9641071Y-23362500D01*
X9641071Y-23305357D01*
X9626786Y-23233929D01*
X9612500Y-23191071D01*
X9598214Y-23162500D01*
X9569643Y-23119643D01*
X9555357Y-23105357D01*
X10098214Y-23562500D02*
X10083928Y-23548214D01*
X10055357Y-23505357D01*
X10041071Y-23476786D01*
X10026786Y-23433929D01*
X10012500Y-23362500D01*
X10012500Y-23305357D01*
X10026786Y-23233929D01*
X10041071Y-23191071D01*
X10055357Y-23162500D01*
X10083928Y-23119643D01*
X10098214Y-23105357D01*
X10212500Y-23248214D02*
X10212500Y-23448214D01*
X10212500Y-23276786D02*
X10226786Y-23262500D01*
X10255357Y-23248214D01*
X10298214Y-23248214D01*
X10326786Y-23262500D01*
X10341071Y-23291071D01*
X10341071Y-23448214D01*
X10526786Y-23448214D02*
X10498214Y-23433929D01*
X10483928Y-23419643D01*
X10469643Y-23391071D01*
X10469643Y-23305357D01*
X10483928Y-23276786D01*
X10498214Y-23262500D01*
X10526786Y-23248214D01*
X10569643Y-23248214D01*
X10598214Y-23262500D01*
X10612500Y-23276786D01*
X10626786Y-23305357D01*
X10626786Y-23391071D01*
X10612500Y-23419643D01*
X10598214Y-23433929D01*
X10569643Y-23448214D01*
X10526786Y-23448214D01*
X10712500Y-23248214D02*
X10826786Y-23248214D01*
X10755357Y-23148214D02*
X10755357Y-23405357D01*
X10769643Y-23433929D01*
X10798214Y-23448214D01*
X10826786Y-23448214D01*
X11155357Y-23248214D02*
X11155357Y-23548214D01*
X11155357Y-23262500D02*
X11183928Y-23248214D01*
X11241071Y-23248214D01*
X11269643Y-23262500D01*
X11283928Y-23276786D01*
X11298214Y-23305357D01*
X11298214Y-23391071D01*
X11283928Y-23419643D01*
X11269643Y-23433929D01*
X11241071Y-23448214D01*
X11183928Y-23448214D01*
X11155357Y-23433929D01*
X11469643Y-23448214D02*
X11441071Y-23433929D01*
X11426786Y-23405357D01*
X11426786Y-23148214D01*
X11712500Y-23448214D02*
X11712500Y-23291071D01*
X11698214Y-23262500D01*
X11669643Y-23248214D01*
X11612500Y-23248214D01*
X11583928Y-23262500D01*
X11712500Y-23433929D02*
X11683928Y-23448214D01*
X11612500Y-23448214D01*
X11583928Y-23433929D01*
X11569643Y-23405357D01*
X11569643Y-23376786D01*
X11583928Y-23348214D01*
X11612500Y-23333929D01*
X11683928Y-23333929D01*
X11712500Y-23319643D01*
X11812500Y-23248214D02*
X11926786Y-23248214D01*
X11855357Y-23148214D02*
X11855357Y-23405357D01*
X11869643Y-23433929D01*
X11898214Y-23448214D01*
X11926786Y-23448214D01*
X12141071Y-23433929D02*
X12112500Y-23448214D01*
X12055357Y-23448214D01*
X12026786Y-23433929D01*
X12012500Y-23405357D01*
X12012500Y-23291071D01*
X12026786Y-23262500D01*
X12055357Y-23248214D01*
X12112500Y-23248214D01*
X12141071Y-23262500D01*
X12155357Y-23291071D01*
X12155357Y-23319643D01*
X12012500Y-23348214D01*
X12412500Y-23448214D02*
X12412500Y-23148214D01*
X12412500Y-23433929D02*
X12383928Y-23448214D01*
X12326786Y-23448214D01*
X12298214Y-23433929D01*
X12283928Y-23419643D01*
X12269643Y-23391071D01*
X12269643Y-23305357D01*
X12283928Y-23276786D01*
X12298214Y-23262500D01*
X12326786Y-23248214D01*
X12383928Y-23248214D01*
X12412500Y-23262500D01*
X12526786Y-23562500D02*
X12541071Y-23548214D01*
X12569643Y-23505357D01*
X12583928Y-23476786D01*
X12598214Y-23433929D01*
X12612500Y-23362500D01*
X12612500Y-23305357D01*
X12598214Y-23233929D01*
X12583928Y-23191071D01*
X12569643Y-23162500D01*
X12541071Y-23119643D01*
X12526786Y-23105357D01*
X2497500Y-23708500D02*
G75*
G03*
X2497500Y-23708500I-152500J0D01*
G01*
X2755357Y-23544214D02*
X2941071Y-23544214D01*
X2841071Y-23658500D01*
X2883928Y-23658500D01*
X2912500Y-23672786D01*
X2926786Y-23687071D01*
X2941071Y-23715643D01*
X2941071Y-23787071D01*
X2926786Y-23815643D01*
X2912500Y-23829929D01*
X2883928Y-23844214D01*
X2798214Y-23844214D01*
X2769643Y-23829929D01*
X2755357Y-23815643D01*
X3069643Y-23815643D02*
X3083928Y-23829929D01*
X3069643Y-23844214D01*
X3055357Y-23829929D01*
X3069643Y-23815643D01*
X3069643Y-23844214D01*
X3269643Y-23544214D02*
X3298214Y-23544214D01*
X3326786Y-23558500D01*
X3341071Y-23572786D01*
X3355357Y-23601357D01*
X3369643Y-23658500D01*
X3369643Y-23729929D01*
X3355357Y-23787071D01*
X3341071Y-23815643D01*
X3326786Y-23829929D01*
X3298214Y-23844214D01*
X3269643Y-23844214D01*
X3241071Y-23829929D01*
X3226786Y-23815643D01*
X3212500Y-23787071D01*
X3198214Y-23729929D01*
X3198214Y-23658500D01*
X3212500Y-23601357D01*
X3226786Y-23572786D01*
X3241071Y-23558500D01*
X3269643Y-23544214D01*
X3641071Y-23544214D02*
X3498214Y-23544214D01*
X3483928Y-23687071D01*
X3498214Y-23672786D01*
X3526786Y-23658500D01*
X3598214Y-23658500D01*
X3626786Y-23672786D01*
X3641071Y-23687071D01*
X3655357Y-23715643D01*
X3655357Y-23787071D01*
X3641071Y-23815643D01*
X3626786Y-23829929D01*
X3598214Y-23844214D01*
X3526786Y-23844214D01*
X3498214Y-23829929D01*
X3483928Y-23815643D01*
X3783928Y-23844214D02*
X3783928Y-23644214D01*
X3783928Y-23672786D02*
X3798214Y-23658500D01*
X3826786Y-23644214D01*
X3869643Y-23644214D01*
X3898214Y-23658500D01*
X3912500Y-23687071D01*
X3912500Y-23844214D01*
X3912500Y-23687071D02*
X3926786Y-23658500D01*
X3955357Y-23644214D01*
X3998214Y-23644214D01*
X4026786Y-23658500D01*
X4041071Y-23687071D01*
X4041071Y-23844214D01*
X4183928Y-23844214D02*
X4183928Y-23644214D01*
X4183928Y-23672786D02*
X4198214Y-23658500D01*
X4226786Y-23644214D01*
X4269643Y-23644214D01*
X4298214Y-23658500D01*
X4312500Y-23687071D01*
X4312500Y-23844214D01*
X4312500Y-23687071D02*
X4326786Y-23658500D01*
X4355357Y-23644214D01*
X4398214Y-23644214D01*
X4426786Y-23658500D01*
X4441071Y-23687071D01*
X4441071Y-23844214D01*
X5026786Y-23529929D02*
X4769643Y-23915643D01*
X5412500Y-23544214D02*
X5441071Y-23544214D01*
X5469643Y-23558500D01*
X5483928Y-23572786D01*
X5498214Y-23601357D01*
X5512500Y-23658500D01*
X5512500Y-23729929D01*
X5498214Y-23787071D01*
X5483928Y-23815643D01*
X5469643Y-23829929D01*
X5441071Y-23844214D01*
X5412500Y-23844214D01*
X5383928Y-23829929D01*
X5369643Y-23815643D01*
X5355357Y-23787071D01*
X5341071Y-23729929D01*
X5341071Y-23658500D01*
X5355357Y-23601357D01*
X5369643Y-23572786D01*
X5383928Y-23558500D01*
X5412500Y-23544214D01*
X5641071Y-23815643D02*
X5655357Y-23829929D01*
X5641071Y-23844214D01*
X5626786Y-23829929D01*
X5641071Y-23815643D01*
X5641071Y-23844214D01*
X5941071Y-23844214D02*
X5769643Y-23844214D01*
X5855357Y-23844214D02*
X5855357Y-23544214D01*
X5826786Y-23587071D01*
X5798214Y-23615643D01*
X5769643Y-23629929D01*
X6055357Y-23572786D02*
X6069643Y-23558500D01*
X6098214Y-23544214D01*
X6169643Y-23544214D01*
X6198214Y-23558500D01*
X6212500Y-23572786D01*
X6226786Y-23601357D01*
X6226786Y-23629929D01*
X6212500Y-23672786D01*
X6041071Y-23844214D01*
X6226786Y-23844214D01*
X6412500Y-23544214D02*
X6441071Y-23544214D01*
X6469643Y-23558500D01*
X6483928Y-23572786D01*
X6498214Y-23601357D01*
X6512500Y-23658500D01*
X6512500Y-23729929D01*
X6498214Y-23787071D01*
X6483928Y-23815643D01*
X6469643Y-23829929D01*
X6441071Y-23844214D01*
X6412500Y-23844214D01*
X6383928Y-23829929D01*
X6369643Y-23815643D01*
X6355357Y-23787071D01*
X6341071Y-23729929D01*
X6341071Y-23658500D01*
X6355357Y-23601357D01*
X6369643Y-23572786D01*
X6383928Y-23558500D01*
X6412500Y-23544214D01*
X6626786Y-23544214D02*
X6626786Y-23601357D01*
X6741071Y-23544214D02*
X6741071Y-23601357D01*
X7183928Y-23958500D02*
X7169643Y-23944214D01*
X7141071Y-23901357D01*
X7126786Y-23872786D01*
X7112500Y-23829929D01*
X7098214Y-23758500D01*
X7098214Y-23701357D01*
X7112500Y-23629929D01*
X7126786Y-23587071D01*
X7141071Y-23558500D01*
X7169643Y-23515643D01*
X7183928Y-23501357D01*
X7426786Y-23644214D02*
X7426786Y-23844214D01*
X7355357Y-23529929D02*
X7283928Y-23744214D01*
X7469643Y-23744214D01*
X7812500Y-23844214D02*
X7812500Y-23544214D01*
X7941071Y-23844214D02*
X7941071Y-23687071D01*
X7926786Y-23658500D01*
X7898214Y-23644214D01*
X7855357Y-23644214D01*
X7826786Y-23658500D01*
X7812500Y-23672786D01*
X8126786Y-23844214D02*
X8098214Y-23829929D01*
X8083928Y-23815643D01*
X8069643Y-23787071D01*
X8069643Y-23701357D01*
X8083928Y-23672786D01*
X8098214Y-23658500D01*
X8126786Y-23644214D01*
X8169643Y-23644214D01*
X8198214Y-23658500D01*
X8212500Y-23672786D01*
X8226786Y-23701357D01*
X8226786Y-23787071D01*
X8212500Y-23815643D01*
X8198214Y-23829929D01*
X8169643Y-23844214D01*
X8126786Y-23844214D01*
X8398214Y-23844214D02*
X8369643Y-23829929D01*
X8355357Y-23801357D01*
X8355357Y-23544214D01*
X8626786Y-23829929D02*
X8598214Y-23844214D01*
X8541071Y-23844214D01*
X8512500Y-23829929D01*
X8498214Y-23801357D01*
X8498214Y-23687071D01*
X8512500Y-23658500D01*
X8541071Y-23644214D01*
X8598214Y-23644214D01*
X8626786Y-23658500D01*
X8641071Y-23687071D01*
X8641071Y-23715643D01*
X8498214Y-23744214D01*
X8755357Y-23829929D02*
X8783928Y-23844214D01*
X8841071Y-23844214D01*
X8869643Y-23829929D01*
X8883928Y-23801357D01*
X8883928Y-23787071D01*
X8869643Y-23758500D01*
X8841071Y-23744214D01*
X8798214Y-23744214D01*
X8769643Y-23729929D01*
X8755357Y-23701357D01*
X8755357Y-23687071D01*
X8769643Y-23658500D01*
X8798214Y-23644214D01*
X8841071Y-23644214D01*
X8869643Y-23658500D01*
X8983928Y-23958500D02*
X8998214Y-23944214D01*
X9026786Y-23901357D01*
X9041071Y-23872786D01*
X9055357Y-23829929D01*
X9069643Y-23758500D01*
X9069643Y-23701357D01*
X9055357Y-23629929D01*
X9041071Y-23587071D01*
X9026786Y-23558500D01*
X8998214Y-23515643D01*
X8983928Y-23501357D01*
X9526786Y-23958500D02*
X9512500Y-23944214D01*
X9483928Y-23901357D01*
X9469643Y-23872786D01*
X9455357Y-23829929D01*
X9441071Y-23758500D01*
X9441071Y-23701357D01*
X9455357Y-23629929D01*
X9469643Y-23587071D01*
X9483928Y-23558500D01*
X9512500Y-23515643D01*
X9526786Y-23501357D01*
X9641071Y-23644214D02*
X9641071Y-23844214D01*
X9641071Y-23672786D02*
X9655357Y-23658500D01*
X9683928Y-23644214D01*
X9726786Y-23644214D01*
X9755357Y-23658500D01*
X9769643Y-23687071D01*
X9769643Y-23844214D01*
X9955357Y-23844214D02*
X9926786Y-23829929D01*
X9912500Y-23815643D01*
X9898214Y-23787071D01*
X9898214Y-23701357D01*
X9912500Y-23672786D01*
X9926786Y-23658500D01*
X9955357Y-23644214D01*
X9998214Y-23644214D01*
X10026786Y-23658500D01*
X10041071Y-23672786D01*
X10055357Y-23701357D01*
X10055357Y-23787071D01*
X10041071Y-23815643D01*
X10026786Y-23829929D01*
X9998214Y-23844214D01*
X9955357Y-23844214D01*
X10141071Y-23644214D02*
X10255357Y-23644214D01*
X10183928Y-23544214D02*
X10183928Y-23801357D01*
X10198214Y-23829929D01*
X10226786Y-23844214D01*
X10255357Y-23844214D01*
X10583928Y-23644214D02*
X10583928Y-23944214D01*
X10583928Y-23658500D02*
X10612500Y-23644214D01*
X10669643Y-23644214D01*
X10698214Y-23658500D01*
X10712500Y-23672786D01*
X10726786Y-23701357D01*
X10726786Y-23787071D01*
X10712500Y-23815643D01*
X10698214Y-23829929D01*
X10669643Y-23844214D01*
X10612500Y-23844214D01*
X10583928Y-23829929D01*
X10898214Y-23844214D02*
X10869643Y-23829929D01*
X10855357Y-23801357D01*
X10855357Y-23544214D01*
X11141071Y-23844214D02*
X11141071Y-23687071D01*
X11126786Y-23658500D01*
X11098214Y-23644214D01*
X11041071Y-23644214D01*
X11012500Y-23658500D01*
X11141071Y-23829929D02*
X11112500Y-23844214D01*
X11041071Y-23844214D01*
X11012500Y-23829929D01*
X10998214Y-23801357D01*
X10998214Y-23772786D01*
X11012500Y-23744214D01*
X11041071Y-23729929D01*
X11112500Y-23729929D01*
X11141071Y-23715643D01*
X11241071Y-23644214D02*
X11355357Y-23644214D01*
X11283928Y-23544214D02*
X11283928Y-23801357D01*
X11298214Y-23829929D01*
X11326786Y-23844214D01*
X11355357Y-23844214D01*
X11569643Y-23829929D02*
X11541071Y-23844214D01*
X11483928Y-23844214D01*
X11455357Y-23829929D01*
X11441071Y-23801357D01*
X11441071Y-23687071D01*
X11455357Y-23658500D01*
X11483928Y-23644214D01*
X11541071Y-23644214D01*
X11569643Y-23658500D01*
X11583928Y-23687071D01*
X11583928Y-23715643D01*
X11441071Y-23744214D01*
X11841071Y-23844214D02*
X11841071Y-23544214D01*
X11841071Y-23829929D02*
X11812500Y-23844214D01*
X11755357Y-23844214D01*
X11726786Y-23829929D01*
X11712500Y-23815643D01*
X11698214Y-23787071D01*
X11698214Y-23701357D01*
X11712500Y-23672786D01*
X11726786Y-23658500D01*
X11755357Y-23644214D01*
X11812500Y-23644214D01*
X11841071Y-23658500D01*
X11955357Y-23958500D02*
X11969643Y-23944214D01*
X11998214Y-23901357D01*
X12012500Y-23872786D01*
X12026786Y-23829929D01*
X12041071Y-23758500D01*
X12041071Y-23701357D01*
X12026786Y-23629929D01*
X12012500Y-23587071D01*
X11998214Y-23558500D01*
X11969643Y-23515643D01*
X11955357Y-23501357D01*
X2297500Y-23943500D02*
X2297500Y-24343500D01*
X2097500Y-24143500D02*
X2497500Y-24143500D01*
X2912500Y-24079214D02*
X2912500Y-24279214D01*
X2841071Y-23964929D02*
X2769643Y-24179214D01*
X2955357Y-24179214D01*
X3069643Y-24250643D02*
X3083928Y-24264929D01*
X3069643Y-24279214D01*
X3055357Y-24264929D01*
X3069643Y-24250643D01*
X3069643Y-24279214D01*
X3269643Y-23979214D02*
X3298214Y-23979214D01*
X3326786Y-23993500D01*
X3341071Y-24007786D01*
X3355357Y-24036357D01*
X3369643Y-24093500D01*
X3369643Y-24164929D01*
X3355357Y-24222071D01*
X3341071Y-24250643D01*
X3326786Y-24264929D01*
X3298214Y-24279214D01*
X3269643Y-24279214D01*
X3241071Y-24264929D01*
X3226786Y-24250643D01*
X3212500Y-24222071D01*
X3198214Y-24164929D01*
X3198214Y-24093500D01*
X3212500Y-24036357D01*
X3226786Y-24007786D01*
X3241071Y-23993500D01*
X3269643Y-23979214D01*
X3555357Y-23979214D02*
X3583928Y-23979214D01*
X3612500Y-23993500D01*
X3626786Y-24007786D01*
X3641071Y-24036357D01*
X3655357Y-24093500D01*
X3655357Y-24164929D01*
X3641071Y-24222071D01*
X3626786Y-24250643D01*
X3612500Y-24264929D01*
X3583928Y-24279214D01*
X3555357Y-24279214D01*
X3526786Y-24264929D01*
X3512500Y-24250643D01*
X3498214Y-24222071D01*
X3483928Y-24164929D01*
X3483928Y-24093500D01*
X3498214Y-24036357D01*
X3512500Y-24007786D01*
X3526786Y-23993500D01*
X3555357Y-23979214D01*
X3783928Y-24279214D02*
X3783928Y-24079214D01*
X3783928Y-24107786D02*
X3798214Y-24093500D01*
X3826786Y-24079214D01*
X3869643Y-24079214D01*
X3898214Y-24093500D01*
X3912500Y-24122071D01*
X3912500Y-24279214D01*
X3912500Y-24122071D02*
X3926786Y-24093500D01*
X3955357Y-24079214D01*
X3998214Y-24079214D01*
X4026786Y-24093500D01*
X4041071Y-24122071D01*
X4041071Y-24279214D01*
X4183928Y-24279214D02*
X4183928Y-24079214D01*
X4183928Y-24107786D02*
X4198214Y-24093500D01*
X4226786Y-24079214D01*
X4269643Y-24079214D01*
X4298214Y-24093500D01*
X4312500Y-24122071D01*
X4312500Y-24279214D01*
X4312500Y-24122071D02*
X4326786Y-24093500D01*
X4355357Y-24079214D01*
X4398214Y-24079214D01*
X4426786Y-24093500D01*
X4441071Y-24122071D01*
X4441071Y-24279214D01*
X5026786Y-23964929D02*
X4769643Y-24350643D01*
X5412500Y-23979214D02*
X5441071Y-23979214D01*
X5469643Y-23993500D01*
X5483928Y-24007786D01*
X5498214Y-24036357D01*
X5512500Y-24093500D01*
X5512500Y-24164929D01*
X5498214Y-24222071D01*
X5483928Y-24250643D01*
X5469643Y-24264929D01*
X5441071Y-24279214D01*
X5412500Y-24279214D01*
X5383928Y-24264929D01*
X5369643Y-24250643D01*
X5355357Y-24222071D01*
X5341071Y-24164929D01*
X5341071Y-24093500D01*
X5355357Y-24036357D01*
X5369643Y-24007786D01*
X5383928Y-23993500D01*
X5412500Y-23979214D01*
X5641071Y-24250643D02*
X5655357Y-24264929D01*
X5641071Y-24279214D01*
X5626786Y-24264929D01*
X5641071Y-24250643D01*
X5641071Y-24279214D01*
X5941071Y-24279214D02*
X5769643Y-24279214D01*
X5855357Y-24279214D02*
X5855357Y-23979214D01*
X5826786Y-24022071D01*
X5798214Y-24050643D01*
X5769643Y-24064929D01*
X6212500Y-23979214D02*
X6069643Y-23979214D01*
X6055357Y-24122071D01*
X6069643Y-24107786D01*
X6098214Y-24093500D01*
X6169643Y-24093500D01*
X6198214Y-24107786D01*
X6212500Y-24122071D01*
X6226786Y-24150643D01*
X6226786Y-24222071D01*
X6212500Y-24250643D01*
X6198214Y-24264929D01*
X6169643Y-24279214D01*
X6098214Y-24279214D01*
X6069643Y-24264929D01*
X6055357Y-24250643D01*
X6326786Y-23979214D02*
X6526786Y-23979214D01*
X6398214Y-24279214D01*
X6626786Y-23979214D02*
X6626786Y-24036357D01*
X6741071Y-23979214D02*
X6741071Y-24036357D01*
X7183928Y-24393500D02*
X7169643Y-24379214D01*
X7141071Y-24336357D01*
X7126786Y-24307786D01*
X7112500Y-24264929D01*
X7098214Y-24193500D01*
X7098214Y-24136357D01*
X7112500Y-24064929D01*
X7126786Y-24022071D01*
X7141071Y-23993500D01*
X7169643Y-23950643D01*
X7183928Y-23936357D01*
X7341071Y-24107786D02*
X7312500Y-24093500D01*
X7298214Y-24079214D01*
X7283928Y-24050643D01*
X7283928Y-24036357D01*
X7298214Y-24007786D01*
X7312500Y-23993500D01*
X7341071Y-23979214D01*
X7398214Y-23979214D01*
X7426786Y-23993500D01*
X7441071Y-24007786D01*
X7455357Y-24036357D01*
X7455357Y-24050643D01*
X7441071Y-24079214D01*
X7426786Y-24093500D01*
X7398214Y-24107786D01*
X7341071Y-24107786D01*
X7312500Y-24122071D01*
X7298214Y-24136357D01*
X7283928Y-24164929D01*
X7283928Y-24222071D01*
X7298214Y-24250643D01*
X7312500Y-24264929D01*
X7341071Y-24279214D01*
X7398214Y-24279214D01*
X7426786Y-24264929D01*
X7441071Y-24250643D01*
X7455357Y-24222071D01*
X7455357Y-24164929D01*
X7441071Y-24136357D01*
X7426786Y-24122071D01*
X7398214Y-24107786D01*
X7555357Y-23979214D02*
X7755357Y-23979214D01*
X7626786Y-24279214D01*
X8098214Y-24279214D02*
X8098214Y-23979214D01*
X8226786Y-24279214D02*
X8226786Y-24122071D01*
X8212500Y-24093500D01*
X8183928Y-24079214D01*
X8141071Y-24079214D01*
X8112500Y-24093500D01*
X8098214Y-24107786D01*
X8412500Y-24279214D02*
X8383928Y-24264929D01*
X8369643Y-24250643D01*
X8355357Y-24222071D01*
X8355357Y-24136357D01*
X8369643Y-24107786D01*
X8383928Y-24093500D01*
X8412500Y-24079214D01*
X8455357Y-24079214D01*
X8483928Y-24093500D01*
X8498214Y-24107786D01*
X8512500Y-24136357D01*
X8512500Y-24222071D01*
X8498214Y-24250643D01*
X8483928Y-24264929D01*
X8455357Y-24279214D01*
X8412500Y-24279214D01*
X8683928Y-24279214D02*
X8655357Y-24264929D01*
X8641071Y-24236357D01*
X8641071Y-23979214D01*
X8912500Y-24264929D02*
X8883928Y-24279214D01*
X8826786Y-24279214D01*
X8798214Y-24264929D01*
X8783928Y-24236357D01*
X8783928Y-24122071D01*
X8798214Y-24093500D01*
X8826786Y-24079214D01*
X8883928Y-24079214D01*
X8912500Y-24093500D01*
X8926786Y-24122071D01*
X8926786Y-24150643D01*
X8783928Y-24179214D01*
X9041071Y-24264929D02*
X9069643Y-24279214D01*
X9126786Y-24279214D01*
X9155357Y-24264929D01*
X9169643Y-24236357D01*
X9169643Y-24222071D01*
X9155357Y-24193500D01*
X9126786Y-24179214D01*
X9083928Y-24179214D01*
X9055357Y-24164929D01*
X9041071Y-24136357D01*
X9041071Y-24122071D01*
X9055357Y-24093500D01*
X9083928Y-24079214D01*
X9126786Y-24079214D01*
X9155357Y-24093500D01*
X9269643Y-24393500D02*
X9283928Y-24379214D01*
X9312500Y-24336357D01*
X9326786Y-24307786D01*
X9341071Y-24264929D01*
X9355357Y-24193500D01*
X9355357Y-24136357D01*
X9341071Y-24064929D01*
X9326786Y-24022071D01*
X9312500Y-23993500D01*
X9283928Y-23950643D01*
X9269643Y-23936357D01*
X9812500Y-24393500D02*
X9798214Y-24379214D01*
X9769643Y-24336357D01*
X9755357Y-24307786D01*
X9741071Y-24264929D01*
X9726786Y-24193500D01*
X9726786Y-24136357D01*
X9741071Y-24064929D01*
X9755357Y-24022071D01*
X9769643Y-23993500D01*
X9798214Y-23950643D01*
X9812500Y-23936357D01*
X9926786Y-24079214D02*
X9926786Y-24279214D01*
X9926786Y-24107786D02*
X9941071Y-24093500D01*
X9969643Y-24079214D01*
X10012500Y-24079214D01*
X10041071Y-24093500D01*
X10055357Y-24122071D01*
X10055357Y-24279214D01*
X10241071Y-24279214D02*
X10212500Y-24264929D01*
X10198214Y-24250643D01*
X10183928Y-24222071D01*
X10183928Y-24136357D01*
X10198214Y-24107786D01*
X10212500Y-24093500D01*
X10241071Y-24079214D01*
X10283928Y-24079214D01*
X10312500Y-24093500D01*
X10326786Y-24107786D01*
X10341071Y-24136357D01*
X10341071Y-24222071D01*
X10326786Y-24250643D01*
X10312500Y-24264929D01*
X10283928Y-24279214D01*
X10241071Y-24279214D01*
X10426786Y-24079214D02*
X10541071Y-24079214D01*
X10469643Y-23979214D02*
X10469643Y-24236357D01*
X10483928Y-24264929D01*
X10512500Y-24279214D01*
X10541071Y-24279214D01*
X10869643Y-24079214D02*
X10869643Y-24379214D01*
X10869643Y-24093500D02*
X10898214Y-24079214D01*
X10955357Y-24079214D01*
X10983928Y-24093500D01*
X10998214Y-24107786D01*
X11012500Y-24136357D01*
X11012500Y-24222071D01*
X10998214Y-24250643D01*
X10983928Y-24264929D01*
X10955357Y-24279214D01*
X10898214Y-24279214D01*
X10869643Y-24264929D01*
X11183928Y-24279214D02*
X11155357Y-24264929D01*
X11141071Y-24236357D01*
X11141071Y-23979214D01*
X11426786Y-24279214D02*
X11426786Y-24122071D01*
X11412500Y-24093500D01*
X11383928Y-24079214D01*
X11326786Y-24079214D01*
X11298214Y-24093500D01*
X11426786Y-24264929D02*
X11398214Y-24279214D01*
X11326786Y-24279214D01*
X11298214Y-24264929D01*
X11283928Y-24236357D01*
X11283928Y-24207786D01*
X11298214Y-24179214D01*
X11326786Y-24164929D01*
X11398214Y-24164929D01*
X11426786Y-24150643D01*
X11526786Y-24079214D02*
X11641071Y-24079214D01*
X11569643Y-23979214D02*
X11569643Y-24236357D01*
X11583928Y-24264929D01*
X11612500Y-24279214D01*
X11641071Y-24279214D01*
X11855357Y-24264929D02*
X11826786Y-24279214D01*
X11769643Y-24279214D01*
X11741071Y-24264929D01*
X11726786Y-24236357D01*
X11726786Y-24122071D01*
X11741071Y-24093500D01*
X11769643Y-24079214D01*
X11826786Y-24079214D01*
X11855357Y-24093500D01*
X11869643Y-24122071D01*
X11869643Y-24150643D01*
X11726786Y-24179214D01*
X12126786Y-24279214D02*
X12126786Y-23979214D01*
X12126786Y-24264929D02*
X12098214Y-24279214D01*
X12041071Y-24279214D01*
X12012500Y-24264929D01*
X11998214Y-24250643D01*
X11983928Y-24222071D01*
X11983928Y-24136357D01*
X11998214Y-24107786D01*
X12012500Y-24093500D01*
X12041071Y-24079214D01*
X12098214Y-24079214D01*
X12126786Y-24093500D01*
X12241071Y-24393500D02*
X12255357Y-24379214D01*
X12283928Y-24336357D01*
X12298214Y-24307786D01*
X12312500Y-24264929D01*
X12326786Y-24193500D01*
X12326786Y-24136357D01*
X12312500Y-24064929D01*
X12298214Y-24022071D01*
X12283928Y-23993500D01*
X12255357Y-23950643D01*
X12241071Y-23936357D01*
M02*
