%FSLAX45Y45*%
G04 Gerber Fmt 4.5, Leading zero omitted, Abs format (unit mm)*
G04 Created by KiCad (PCBNEW 5.1.6-c6e7f7d~87~ubuntu20.04.1) date 2020-07-24 00:41:25*
%MOMM*%
%LPD*%
G01*
G04 APERTURE LIST*
%TA.AperFunction,Profile*%
%ADD10C,0.050000*%
%TD*%
%ADD11C,0.200000*%
%ADD12C,0.300000*%
G04 APERTURE END LIST*
D10*
X42500000Y-16100000D02*
X40200000Y-21500000D01*
X42500000Y-10600000D02*
X42500000Y-16100000D01*
X40250000Y-6100000D02*
X42500000Y-10600000D01*
X2500000Y-21500000D02*
X40200000Y-21500000D01*
X40250000Y-6100000D02*
X2500000Y-6100000D01*
X2500000Y-6100000D02*
X2500000Y-21500000D01*
D11*
X15153000Y-13373000D02*
X15323000Y-13543000D01*
X15323000Y-13373000D02*
X15153000Y-13543000D01*
X16169000Y-13373000D02*
X16339000Y-13543000D01*
X16339000Y-13373000D02*
X16169000Y-13543000D01*
X6857000Y-20265000D02*
X7027000Y-20435000D01*
X7027000Y-20265000D02*
X6857000Y-20435000D01*
X7873000Y-20265000D02*
X8043000Y-20435000D01*
X8043000Y-20265000D02*
X7873000Y-20435000D01*
X9153000Y-13373000D02*
X9323000Y-13543000D01*
X9323000Y-13373000D02*
X9153000Y-13543000D01*
X10169000Y-13373000D02*
X10339000Y-13543000D01*
X10339000Y-13373000D02*
X10169000Y-13543000D01*
X29403000Y-17973000D02*
X29573000Y-18143000D01*
X29573000Y-17973000D02*
X29403000Y-18143000D01*
X30419000Y-17973000D02*
X30589000Y-18143000D01*
X30589000Y-17973000D02*
X30419000Y-18143000D01*
X8007000Y-8473000D02*
X8177000Y-8643000D01*
X8177000Y-8473000D02*
X8007000Y-8643000D01*
X9023000Y-8473000D02*
X9193000Y-8643000D01*
X9193000Y-8473000D02*
X9023000Y-8643000D01*
X27603000Y-15723000D02*
X27773000Y-15893000D01*
X27773000Y-15723000D02*
X27603000Y-15893000D01*
X28619000Y-15723000D02*
X28789000Y-15893000D01*
X28789000Y-15723000D02*
X28619000Y-15893000D01*
X4303000Y-8473000D02*
X4473000Y-8643000D01*
X4473000Y-8473000D02*
X4303000Y-8643000D01*
X5319000Y-8473000D02*
X5489000Y-8643000D01*
X5489000Y-8473000D02*
X5319000Y-8643000D01*
X10003000Y-8473000D02*
X10173000Y-8643000D01*
X10173000Y-8473000D02*
X10003000Y-8643000D01*
X11019000Y-8473000D02*
X11189000Y-8643000D01*
X11189000Y-8473000D02*
X11019000Y-8643000D01*
X37253000Y-10973000D02*
X37423000Y-11143000D01*
X37423000Y-10973000D02*
X37253000Y-11143000D01*
X38269000Y-10973000D02*
X38439000Y-11143000D01*
X38439000Y-10973000D02*
X38269000Y-11143000D01*
X21603000Y-17973000D02*
X21773000Y-18143000D01*
X21773000Y-17973000D02*
X21603000Y-18143000D01*
X22619000Y-17973000D02*
X22789000Y-18143000D01*
X22789000Y-17973000D02*
X22619000Y-18143000D01*
X4807000Y-17965000D02*
X4977000Y-18135000D01*
X4977000Y-17965000D02*
X4807000Y-18135000D01*
X5823000Y-17965000D02*
X5993000Y-18135000D01*
X5993000Y-17965000D02*
X5823000Y-18135000D01*
X29953000Y-10973000D02*
X30123000Y-11143000D01*
X30123000Y-10973000D02*
X29953000Y-11143000D01*
X30969000Y-10973000D02*
X31139000Y-11143000D01*
X31139000Y-10973000D02*
X30969000Y-11143000D01*
X4203000Y-10973000D02*
X4373000Y-11143000D01*
X4373000Y-10973000D02*
X4203000Y-11143000D01*
X5219000Y-10973000D02*
X5389000Y-11143000D01*
X5389000Y-10973000D02*
X5219000Y-11143000D01*
X22203000Y-10973000D02*
X22373000Y-11143000D01*
X22373000Y-10973000D02*
X22203000Y-11143000D01*
X23219000Y-10973000D02*
X23389000Y-11143000D01*
X23389000Y-10973000D02*
X23219000Y-11143000D01*
X33103000Y-8473000D02*
X33273000Y-8643000D01*
X33273000Y-8473000D02*
X33103000Y-8643000D01*
X34119000Y-8473000D02*
X34289000Y-8643000D01*
X34289000Y-8473000D02*
X34119000Y-8643000D01*
X9603000Y-15723000D02*
X9773000Y-15893000D01*
X9773000Y-15723000D02*
X9603000Y-15893000D01*
X10619000Y-15723000D02*
X10789000Y-15893000D01*
X10789000Y-15723000D02*
X10619000Y-15893000D01*
X14203000Y-10973000D02*
X14373000Y-11143000D01*
X14373000Y-10973000D02*
X14203000Y-11143000D01*
X15219000Y-10973000D02*
X15389000Y-11143000D01*
X15389000Y-10973000D02*
X15219000Y-11143000D01*
X16203000Y-10973000D02*
X16373000Y-11143000D01*
X16373000Y-10973000D02*
X16203000Y-11143000D01*
X17219000Y-10973000D02*
X17389000Y-11143000D01*
X17389000Y-10973000D02*
X17219000Y-11143000D01*
X27253000Y-8473000D02*
X27423000Y-8643000D01*
X27423000Y-8473000D02*
X27253000Y-8643000D01*
X28269000Y-8473000D02*
X28439000Y-8643000D01*
X28439000Y-8473000D02*
X28269000Y-8643000D01*
X25153000Y-13373000D02*
X25323000Y-13543000D01*
X25323000Y-13373000D02*
X25153000Y-13543000D01*
X26169000Y-13373000D02*
X26339000Y-13543000D01*
X26339000Y-13373000D02*
X26169000Y-13543000D01*
X19153000Y-13373000D02*
X19323000Y-13543000D01*
X19323000Y-13373000D02*
X19153000Y-13543000D01*
X20169000Y-13373000D02*
X20339000Y-13543000D01*
X20339000Y-13373000D02*
X20169000Y-13543000D01*
X16507000Y-20173000D02*
X16677000Y-20343000D01*
X16677000Y-20173000D02*
X16507000Y-20343000D01*
X17523000Y-20173000D02*
X17693000Y-20343000D01*
X17693000Y-20173000D02*
X17523000Y-20343000D01*
X29407000Y-20215000D02*
X29577000Y-20385000D01*
X29577000Y-20215000D02*
X29407000Y-20385000D01*
X30423000Y-20215000D02*
X30593000Y-20385000D01*
X30593000Y-20215000D02*
X30423000Y-20385000D01*
X12003000Y-8473000D02*
X12173000Y-8643000D01*
X12173000Y-8473000D02*
X12003000Y-8643000D01*
X13019000Y-8473000D02*
X13189000Y-8643000D01*
X13189000Y-8473000D02*
X13019000Y-8643000D01*
X4857000Y-20265000D02*
X5027000Y-20435000D01*
X5027000Y-20265000D02*
X4857000Y-20435000D01*
X5873000Y-20265000D02*
X6043000Y-20435000D01*
X6043000Y-20265000D02*
X5873000Y-20435000D01*
X11607000Y-17965000D02*
X11777000Y-18135000D01*
X11777000Y-17965000D02*
X11607000Y-18135000D01*
X12623000Y-17965000D02*
X12793000Y-18135000D01*
X12793000Y-17965000D02*
X12623000Y-18135000D01*
X16657000Y-8473000D02*
X16827000Y-8643000D01*
X16827000Y-8473000D02*
X16657000Y-8643000D01*
X17673000Y-8473000D02*
X17843000Y-8643000D01*
X17843000Y-8473000D02*
X17673000Y-8643000D01*
X37353000Y-13373000D02*
X37523000Y-13543000D01*
X37523000Y-13373000D02*
X37353000Y-13543000D01*
X38369000Y-13373000D02*
X38539000Y-13543000D01*
X38539000Y-13373000D02*
X38369000Y-13543000D01*
X10203000Y-10973000D02*
X10373000Y-11143000D01*
X10373000Y-10973000D02*
X10203000Y-11143000D01*
X11219000Y-10973000D02*
X11389000Y-11143000D01*
X11389000Y-10973000D02*
X11219000Y-11143000D01*
X15607000Y-17965000D02*
X15777000Y-18135000D01*
X15777000Y-17965000D02*
X15607000Y-18135000D01*
X16623000Y-17965000D02*
X16793000Y-18135000D01*
X16793000Y-17965000D02*
X16623000Y-18135000D01*
X14007000Y-8465000D02*
X14177000Y-8635000D01*
X14177000Y-8465000D02*
X14007000Y-8635000D01*
X15023000Y-8465000D02*
X15193000Y-8635000D01*
X15193000Y-8465000D02*
X15023000Y-8635000D01*
X19603000Y-15723000D02*
X19773000Y-15893000D01*
X19773000Y-15723000D02*
X19603000Y-15893000D01*
X20619000Y-15723000D02*
X20789000Y-15893000D01*
X20789000Y-15723000D02*
X20619000Y-15893000D01*
X13603000Y-15723000D02*
X13773000Y-15893000D01*
X13773000Y-15723000D02*
X13603000Y-15893000D01*
X14619000Y-15723000D02*
X14789000Y-15893000D01*
X14789000Y-15723000D02*
X14619000Y-15893000D01*
X7153000Y-13373000D02*
X7323000Y-13543000D01*
X7323000Y-13373000D02*
X7153000Y-13543000D01*
X8169000Y-13373000D02*
X8339000Y-13543000D01*
X8339000Y-13373000D02*
X8169000Y-13543000D01*
X25603000Y-17973000D02*
X25773000Y-18143000D01*
X25773000Y-17973000D02*
X25603000Y-18143000D01*
X26619000Y-17973000D02*
X26789000Y-18143000D01*
X26789000Y-17973000D02*
X26619000Y-18143000D01*
X8203000Y-10973000D02*
X8373000Y-11143000D01*
X8373000Y-10973000D02*
X8203000Y-11143000D01*
X9219000Y-10973000D02*
X9389000Y-11143000D01*
X9389000Y-10973000D02*
X9219000Y-11143000D01*
X25603000Y-15723000D02*
X25773000Y-15893000D01*
X25773000Y-15723000D02*
X25603000Y-15893000D01*
X26619000Y-15723000D02*
X26789000Y-15893000D01*
X26789000Y-15723000D02*
X26619000Y-15893000D01*
X13153000Y-13373000D02*
X13323000Y-13543000D01*
X13323000Y-13373000D02*
X13153000Y-13543000D01*
X14169000Y-13373000D02*
X14339000Y-13543000D01*
X14339000Y-13373000D02*
X14169000Y-13543000D01*
X35253000Y-10973000D02*
X35423000Y-11143000D01*
X35423000Y-10973000D02*
X35253000Y-11143000D01*
X36269000Y-10973000D02*
X36439000Y-11143000D01*
X36439000Y-10973000D02*
X36269000Y-11143000D01*
X19603000Y-17973000D02*
X19773000Y-18143000D01*
X19773000Y-17973000D02*
X19603000Y-18143000D01*
X20619000Y-17973000D02*
X20789000Y-18143000D01*
X20789000Y-17973000D02*
X20619000Y-18143000D01*
X26203000Y-10973000D02*
X26373000Y-11143000D01*
X26373000Y-10973000D02*
X26203000Y-11143000D01*
X27219000Y-10973000D02*
X27389000Y-11143000D01*
X27389000Y-10973000D02*
X27219000Y-11143000D01*
X37103000Y-8473000D02*
X37273000Y-8643000D01*
X37273000Y-8473000D02*
X37103000Y-8643000D01*
X38119000Y-8473000D02*
X38289000Y-8643000D01*
X38289000Y-8473000D02*
X38119000Y-8643000D01*
X20203000Y-10973000D02*
X20373000Y-11143000D01*
X20373000Y-10973000D02*
X20203000Y-11143000D01*
X21219000Y-10973000D02*
X21389000Y-11143000D01*
X21389000Y-10973000D02*
X21219000Y-11143000D01*
X31257000Y-8465000D02*
X31427000Y-8635000D01*
X31427000Y-8465000D02*
X31257000Y-8635000D01*
X32273000Y-8465000D02*
X32443000Y-8635000D01*
X32443000Y-8465000D02*
X32273000Y-8635000D01*
X33353000Y-13373000D02*
X33523000Y-13543000D01*
X33523000Y-13373000D02*
X33353000Y-13543000D01*
X34369000Y-13373000D02*
X34539000Y-13543000D01*
X34539000Y-13373000D02*
X34369000Y-13543000D01*
X25253000Y-8473000D02*
X25423000Y-8643000D01*
X25423000Y-8473000D02*
X25253000Y-8643000D01*
X26269000Y-8473000D02*
X26439000Y-8643000D01*
X26439000Y-8473000D02*
X26269000Y-8643000D01*
X26857000Y-20173000D02*
X27027000Y-20343000D01*
X27027000Y-20173000D02*
X26857000Y-20343000D01*
X27873000Y-20173000D02*
X28043000Y-20343000D01*
X28043000Y-20173000D02*
X27873000Y-20343000D01*
X7603000Y-15723000D02*
X7773000Y-15893000D01*
X7773000Y-15723000D02*
X7603000Y-15893000D01*
X8619000Y-15723000D02*
X8789000Y-15893000D01*
X8789000Y-15723000D02*
X8619000Y-15893000D01*
X22603000Y-8473000D02*
X22773000Y-8643000D01*
X22773000Y-8473000D02*
X22603000Y-8643000D01*
X23619000Y-8473000D02*
X23789000Y-8643000D01*
X23789000Y-8473000D02*
X23619000Y-8643000D01*
X13607000Y-17965000D02*
X13777000Y-18135000D01*
X13777000Y-17965000D02*
X13607000Y-18135000D01*
X14623000Y-17965000D02*
X14793000Y-18135000D01*
X14793000Y-17965000D02*
X14623000Y-18135000D01*
X23153000Y-13373000D02*
X23323000Y-13543000D01*
X23323000Y-13373000D02*
X23153000Y-13543000D01*
X24169000Y-13373000D02*
X24339000Y-13543000D01*
X24339000Y-13373000D02*
X24169000Y-13543000D01*
X17153000Y-13373000D02*
X17323000Y-13543000D01*
X17323000Y-13373000D02*
X17153000Y-13543000D01*
X18169000Y-13373000D02*
X18339000Y-13543000D01*
X18339000Y-13373000D02*
X18169000Y-13543000D01*
X8853000Y-20273000D02*
X9023000Y-20443000D01*
X9023000Y-20273000D02*
X8853000Y-20443000D01*
X9869000Y-20273000D02*
X10039000Y-20443000D01*
X10039000Y-20273000D02*
X9869000Y-20443000D01*
X35257000Y-20215000D02*
X35427000Y-20385000D01*
X35427000Y-20215000D02*
X35257000Y-20385000D01*
X36273000Y-20215000D02*
X36443000Y-20385000D01*
X36443000Y-20215000D02*
X36273000Y-20385000D01*
X7607000Y-17965000D02*
X7777000Y-18135000D01*
X7777000Y-17965000D02*
X7607000Y-18135000D01*
X8623000Y-17965000D02*
X8793000Y-18135000D01*
X8793000Y-17965000D02*
X8623000Y-18135000D01*
X11153000Y-13373000D02*
X11323000Y-13543000D01*
X11323000Y-13373000D02*
X11153000Y-13543000D01*
X12169000Y-13373000D02*
X12339000Y-13543000D01*
X12339000Y-13373000D02*
X12169000Y-13543000D01*
X35257000Y-17965000D02*
X35427000Y-18135000D01*
X35427000Y-17965000D02*
X35257000Y-18135000D01*
X36273000Y-17965000D02*
X36443000Y-18135000D01*
X36443000Y-17965000D02*
X36273000Y-18135000D01*
X37257000Y-20215000D02*
X37427000Y-20385000D01*
X37427000Y-20215000D02*
X37257000Y-20385000D01*
X38273000Y-20215000D02*
X38443000Y-20385000D01*
X38443000Y-20215000D02*
X38273000Y-20385000D01*
X9607000Y-17965000D02*
X9777000Y-18135000D01*
X9777000Y-17965000D02*
X9607000Y-18135000D01*
X10623000Y-17965000D02*
X10793000Y-18135000D01*
X10793000Y-17965000D02*
X10623000Y-18135000D01*
X17603000Y-15723000D02*
X17773000Y-15893000D01*
X17773000Y-15723000D02*
X17603000Y-15893000D01*
X18619000Y-15723000D02*
X18789000Y-15893000D01*
X18789000Y-15723000D02*
X18619000Y-15893000D01*
X11603000Y-15723000D02*
X11773000Y-15893000D01*
X11773000Y-15723000D02*
X11603000Y-15893000D01*
X12619000Y-15723000D02*
X12789000Y-15893000D01*
X12789000Y-15723000D02*
X12619000Y-15893000D01*
X4853000Y-13373000D02*
X5023000Y-13543000D01*
X5023000Y-13373000D02*
X4853000Y-13543000D01*
X5869000Y-13373000D02*
X6039000Y-13543000D01*
X6039000Y-13373000D02*
X5869000Y-13543000D01*
X23603000Y-17973000D02*
X23773000Y-18143000D01*
X23773000Y-17973000D02*
X23603000Y-18143000D01*
X24619000Y-17973000D02*
X24789000Y-18143000D01*
X24789000Y-17973000D02*
X24619000Y-18143000D01*
X30703000Y-14223000D02*
X30873000Y-14393000D01*
X30873000Y-14223000D02*
X30703000Y-14393000D01*
X31719000Y-14223000D02*
X31889000Y-14393000D01*
X31889000Y-14223000D02*
X31719000Y-14393000D01*
X33253000Y-10973000D02*
X33423000Y-11143000D01*
X33423000Y-10973000D02*
X33253000Y-11143000D01*
X34269000Y-10973000D02*
X34439000Y-11143000D01*
X34439000Y-10973000D02*
X34269000Y-11143000D01*
X6203000Y-10973000D02*
X6373000Y-11143000D01*
X6373000Y-10973000D02*
X6203000Y-11143000D01*
X7219000Y-10973000D02*
X7389000Y-11143000D01*
X7389000Y-10973000D02*
X7219000Y-11143000D01*
X24203000Y-10973000D02*
X24373000Y-11143000D01*
X24373000Y-10973000D02*
X24203000Y-11143000D01*
X25219000Y-10973000D02*
X25389000Y-11143000D01*
X25389000Y-10973000D02*
X25219000Y-11143000D01*
X35353000Y-13373000D02*
X35523000Y-13543000D01*
X35523000Y-13373000D02*
X35353000Y-13543000D01*
X36369000Y-13373000D02*
X36539000Y-13543000D01*
X36539000Y-13373000D02*
X36369000Y-13543000D01*
X20653000Y-8473000D02*
X20823000Y-8643000D01*
X20823000Y-8473000D02*
X20653000Y-8643000D01*
X21669000Y-8473000D02*
X21839000Y-8643000D01*
X21839000Y-8473000D02*
X21669000Y-8643000D01*
X23603000Y-15723000D02*
X23773000Y-15893000D01*
X23773000Y-15723000D02*
X23603000Y-15893000D01*
X24619000Y-15723000D02*
X24789000Y-15893000D01*
X24789000Y-15723000D02*
X24619000Y-15893000D01*
X17607000Y-17965000D02*
X17777000Y-18135000D01*
X17777000Y-17965000D02*
X17607000Y-18135000D01*
X18623000Y-17965000D02*
X18793000Y-18135000D01*
X18793000Y-17965000D02*
X18623000Y-18135000D01*
X35103000Y-8473000D02*
X35273000Y-8643000D01*
X35273000Y-8473000D02*
X35103000Y-8643000D01*
X36119000Y-8473000D02*
X36289000Y-8643000D01*
X36289000Y-8473000D02*
X36119000Y-8643000D01*
X18203000Y-10973000D02*
X18373000Y-11143000D01*
X18373000Y-10973000D02*
X18203000Y-11143000D01*
X19219000Y-10973000D02*
X19389000Y-11143000D01*
X19389000Y-10973000D02*
X19219000Y-11143000D01*
X29257000Y-8473000D02*
X29427000Y-8643000D01*
X29427000Y-8473000D02*
X29257000Y-8643000D01*
X30273000Y-8473000D02*
X30443000Y-8643000D01*
X30443000Y-8473000D02*
X30273000Y-8643000D01*
X27153000Y-13373000D02*
X27323000Y-13543000D01*
X27323000Y-13373000D02*
X27153000Y-13543000D01*
X28169000Y-13373000D02*
X28339000Y-13543000D01*
X28339000Y-13373000D02*
X28169000Y-13543000D01*
X33257000Y-20223000D02*
X33427000Y-20393000D01*
X33427000Y-20223000D02*
X33257000Y-20393000D01*
X34273000Y-20223000D02*
X34443000Y-20393000D01*
X34443000Y-20223000D02*
X34273000Y-20393000D01*
X24507000Y-20173000D02*
X24677000Y-20343000D01*
X24677000Y-20173000D02*
X24507000Y-20343000D01*
X25523000Y-20173000D02*
X25693000Y-20343000D01*
X25693000Y-20173000D02*
X25523000Y-20343000D01*
X4853000Y-15723000D02*
X5023000Y-15893000D01*
X5023000Y-15723000D02*
X4853000Y-15893000D01*
X5869000Y-15723000D02*
X6039000Y-15893000D01*
X6039000Y-15723000D02*
X5869000Y-15893000D01*
X12203000Y-10973000D02*
X12373000Y-11143000D01*
X12373000Y-10973000D02*
X12203000Y-11143000D01*
X13219000Y-10973000D02*
X13389000Y-11143000D01*
X13389000Y-10973000D02*
X13219000Y-11143000D01*
X21603000Y-15723000D02*
X21773000Y-15893000D01*
X21773000Y-15723000D02*
X21603000Y-15893000D01*
X22619000Y-15723000D02*
X22789000Y-15893000D01*
X22789000Y-15723000D02*
X22619000Y-15893000D01*
X18653000Y-8473000D02*
X18823000Y-8643000D01*
X18823000Y-8473000D02*
X18653000Y-8643000D01*
X19669000Y-8473000D02*
X19839000Y-8643000D01*
X19839000Y-8473000D02*
X19669000Y-8643000D01*
X15603000Y-15723000D02*
X15773000Y-15893000D01*
X15773000Y-15723000D02*
X15603000Y-15893000D01*
X16619000Y-15723000D02*
X16789000Y-15893000D01*
X16789000Y-15723000D02*
X16619000Y-15893000D01*
X21153000Y-13373000D02*
X21323000Y-13543000D01*
X21323000Y-13373000D02*
X21153000Y-13543000D01*
X22169000Y-13373000D02*
X22339000Y-13543000D01*
X22339000Y-13373000D02*
X22169000Y-13543000D01*
X30748500Y-13118000D02*
G75*
G03*
X30748500Y-13118000I-152500J0D01*
G01*
X30748500Y-15498000D02*
G75*
G03*
X30748500Y-15498000I-152500J0D01*
G01*
X10796000Y-10858000D02*
X10796000Y-11258000D01*
X10596000Y-11058000D02*
X10996000Y-11058000D01*
X16200000Y-17850000D02*
X16200000Y-18250000D01*
X16000000Y-18050000D02*
X16400000Y-18050000D01*
X14600000Y-8350000D02*
X14600000Y-8750000D01*
X14400000Y-8550000D02*
X14800000Y-8550000D01*
X20196000Y-15608000D02*
X20196000Y-16008000D01*
X19996000Y-15808000D02*
X20396000Y-15808000D01*
X14196000Y-15608000D02*
X14196000Y-16008000D01*
X13996000Y-15808000D02*
X14396000Y-15808000D01*
X7746000Y-13258000D02*
X7746000Y-13658000D01*
X7546000Y-13458000D02*
X7946000Y-13458000D01*
X26196000Y-17858000D02*
X26196000Y-18258000D01*
X25996000Y-18058000D02*
X26396000Y-18058000D01*
X8796000Y-10858000D02*
X8796000Y-11258000D01*
X8596000Y-11058000D02*
X8996000Y-11058000D01*
X26196000Y-15608000D02*
X26196000Y-16008000D01*
X25996000Y-15808000D02*
X26396000Y-15808000D01*
X13746000Y-13258000D02*
X13746000Y-13658000D01*
X13546000Y-13458000D02*
X13946000Y-13458000D01*
X35846000Y-10858000D02*
X35846000Y-11258000D01*
X35646000Y-11058000D02*
X36046000Y-11058000D01*
X20196000Y-17858000D02*
X20196000Y-18258000D01*
X19996000Y-18058000D02*
X20396000Y-18058000D01*
X26796000Y-10858000D02*
X26796000Y-11258000D01*
X26596000Y-11058000D02*
X26996000Y-11058000D01*
X37696000Y-8358000D02*
X37696000Y-8758000D01*
X37496000Y-8558000D02*
X37896000Y-8558000D01*
X20796000Y-10858000D02*
X20796000Y-11258000D01*
X20596000Y-11058000D02*
X20996000Y-11058000D01*
X31850000Y-8350000D02*
X31850000Y-8750000D01*
X31650000Y-8550000D02*
X32050000Y-8550000D01*
X33946000Y-13258000D02*
X33946000Y-13658000D01*
X33746000Y-13458000D02*
X34146000Y-13458000D01*
X25846000Y-8358000D02*
X25846000Y-8758000D01*
X25646000Y-8558000D02*
X26046000Y-8558000D01*
X27450000Y-20058000D02*
X27450000Y-20458000D01*
X27250000Y-20258000D02*
X27650000Y-20258000D01*
X8196000Y-15608000D02*
X8196000Y-16008000D01*
X7996000Y-15808000D02*
X8396000Y-15808000D01*
X23196000Y-8358000D02*
X23196000Y-8758000D01*
X22996000Y-8558000D02*
X23396000Y-8558000D01*
X14200000Y-17850000D02*
X14200000Y-18250000D01*
X14000000Y-18050000D02*
X14400000Y-18050000D01*
X23746000Y-13258000D02*
X23746000Y-13658000D01*
X23546000Y-13458000D02*
X23946000Y-13458000D01*
X17746000Y-13258000D02*
X17746000Y-13658000D01*
X17546000Y-13458000D02*
X17946000Y-13458000D01*
X9446000Y-20158000D02*
X9446000Y-20558000D01*
X9246000Y-20358000D02*
X9646000Y-20358000D01*
X35850000Y-20100000D02*
X35850000Y-20500000D01*
X35650000Y-20300000D02*
X36050000Y-20300000D01*
X8200000Y-17850000D02*
X8200000Y-18250000D01*
X8000000Y-18050000D02*
X8400000Y-18050000D01*
X11746000Y-13258000D02*
X11746000Y-13658000D01*
X11546000Y-13458000D02*
X11946000Y-13458000D01*
X35850000Y-17850000D02*
X35850000Y-18250000D01*
X35650000Y-18050000D02*
X36050000Y-18050000D01*
X37850000Y-20100000D02*
X37850000Y-20500000D01*
X37650000Y-20300000D02*
X38050000Y-20300000D01*
X10200000Y-17850000D02*
X10200000Y-18250000D01*
X10000000Y-18050000D02*
X10400000Y-18050000D01*
X18196000Y-15608000D02*
X18196000Y-16008000D01*
X17996000Y-15808000D02*
X18396000Y-15808000D01*
X12196000Y-15608000D02*
X12196000Y-16008000D01*
X11996000Y-15808000D02*
X12396000Y-15808000D01*
X5446000Y-13258000D02*
X5446000Y-13658000D01*
X5246000Y-13458000D02*
X5646000Y-13458000D01*
X24196000Y-17858000D02*
X24196000Y-18258000D01*
X23996000Y-18058000D02*
X24396000Y-18058000D01*
X31296000Y-14108000D02*
X31296000Y-14508000D01*
X31096000Y-14308000D02*
X31496000Y-14308000D01*
X32120000Y-12918000D02*
X32120000Y-13318000D01*
X31920000Y-13118000D02*
X32320000Y-13118000D01*
X32120000Y-15298000D02*
X32120000Y-15698000D01*
X31920000Y-15498000D02*
X32320000Y-15498000D01*
X33846000Y-10858000D02*
X33846000Y-11258000D01*
X33646000Y-11058000D02*
X34046000Y-11058000D01*
X6796000Y-10858000D02*
X6796000Y-11258000D01*
X6596000Y-11058000D02*
X6996000Y-11058000D01*
X24796000Y-10858000D02*
X24796000Y-11258000D01*
X24596000Y-11058000D02*
X24996000Y-11058000D01*
X35946000Y-13258000D02*
X35946000Y-13658000D01*
X35746000Y-13458000D02*
X36146000Y-13458000D01*
X21246000Y-8358000D02*
X21246000Y-8758000D01*
X21046000Y-8558000D02*
X21446000Y-8558000D01*
X24196000Y-15608000D02*
X24196000Y-16008000D01*
X23996000Y-15808000D02*
X24396000Y-15808000D01*
X18200000Y-17850000D02*
X18200000Y-18250000D01*
X18000000Y-18050000D02*
X18400000Y-18050000D01*
X35696000Y-8358000D02*
X35696000Y-8758000D01*
X35496000Y-8558000D02*
X35896000Y-8558000D01*
X18796000Y-10858000D02*
X18796000Y-11258000D01*
X18596000Y-11058000D02*
X18996000Y-11058000D01*
X29850000Y-8358000D02*
X29850000Y-8758000D01*
X29650000Y-8558000D02*
X30050000Y-8558000D01*
X27746000Y-13258000D02*
X27746000Y-13658000D01*
X27546000Y-13458000D02*
X27946000Y-13458000D01*
X33850000Y-20108000D02*
X33850000Y-20508000D01*
X33650000Y-20308000D02*
X34050000Y-20308000D01*
X25100000Y-20058000D02*
X25100000Y-20458000D01*
X24900000Y-20258000D02*
X25300000Y-20258000D01*
X5446000Y-15608000D02*
X5446000Y-16008000D01*
X5246000Y-15808000D02*
X5646000Y-15808000D01*
X12796000Y-10858000D02*
X12796000Y-11258000D01*
X12596000Y-11058000D02*
X12996000Y-11058000D01*
X22196000Y-15608000D02*
X22196000Y-16008000D01*
X21996000Y-15808000D02*
X22396000Y-15808000D01*
X19246000Y-8358000D02*
X19246000Y-8758000D01*
X19046000Y-8558000D02*
X19446000Y-8558000D01*
X16196000Y-15608000D02*
X16196000Y-16008000D01*
X15996000Y-15808000D02*
X16396000Y-15808000D01*
X21746000Y-13258000D02*
X21746000Y-13658000D01*
X21546000Y-13458000D02*
X21946000Y-13458000D01*
X15746000Y-13258000D02*
X15746000Y-13658000D01*
X15546000Y-13458000D02*
X15946000Y-13458000D01*
X7450000Y-20150000D02*
X7450000Y-20550000D01*
X7250000Y-20350000D02*
X7650000Y-20350000D01*
X9746000Y-13258000D02*
X9746000Y-13658000D01*
X9546000Y-13458000D02*
X9946000Y-13458000D01*
X29996000Y-17858000D02*
X29996000Y-18258000D01*
X29796000Y-18058000D02*
X30196000Y-18058000D01*
X8600000Y-8358000D02*
X8600000Y-8758000D01*
X8400000Y-8558000D02*
X8800000Y-8558000D01*
X28196000Y-15608000D02*
X28196000Y-16008000D01*
X27996000Y-15808000D02*
X28396000Y-15808000D01*
X4896000Y-8358000D02*
X4896000Y-8758000D01*
X4696000Y-8558000D02*
X5096000Y-8558000D01*
X10596000Y-8358000D02*
X10596000Y-8758000D01*
X10396000Y-8558000D02*
X10796000Y-8558000D01*
X37846000Y-10858000D02*
X37846000Y-11258000D01*
X37646000Y-11058000D02*
X38046000Y-11058000D01*
X22196000Y-17858000D02*
X22196000Y-18258000D01*
X21996000Y-18058000D02*
X22396000Y-18058000D01*
X5400000Y-17850000D02*
X5400000Y-18250000D01*
X5200000Y-18050000D02*
X5600000Y-18050000D01*
X30546000Y-10858000D02*
X30546000Y-11258000D01*
X30346000Y-11058000D02*
X30746000Y-11058000D01*
X4796000Y-10858000D02*
X4796000Y-11258000D01*
X4596000Y-11058000D02*
X4996000Y-11058000D01*
X22796000Y-10858000D02*
X22796000Y-11258000D01*
X22596000Y-11058000D02*
X22996000Y-11058000D01*
X33696000Y-8358000D02*
X33696000Y-8758000D01*
X33496000Y-8558000D02*
X33896000Y-8558000D01*
X10196000Y-15608000D02*
X10196000Y-16008000D01*
X9996000Y-15808000D02*
X10396000Y-15808000D01*
X14796000Y-10858000D02*
X14796000Y-11258000D01*
X14596000Y-11058000D02*
X14996000Y-11058000D01*
X16796000Y-10858000D02*
X16796000Y-11258000D01*
X16596000Y-11058000D02*
X16996000Y-11058000D01*
X27846000Y-8358000D02*
X27846000Y-8758000D01*
X27646000Y-8558000D02*
X28046000Y-8558000D01*
X25746000Y-13258000D02*
X25746000Y-13658000D01*
X25546000Y-13458000D02*
X25946000Y-13458000D01*
X19746000Y-13258000D02*
X19746000Y-13658000D01*
X19546000Y-13458000D02*
X19946000Y-13458000D01*
X17100000Y-20058000D02*
X17100000Y-20458000D01*
X16900000Y-20258000D02*
X17300000Y-20258000D01*
X30000000Y-20100000D02*
X30000000Y-20500000D01*
X29800000Y-20300000D02*
X30200000Y-20300000D01*
X12596000Y-8358000D02*
X12596000Y-8758000D01*
X12396000Y-8558000D02*
X12796000Y-8558000D01*
X5450000Y-20150000D02*
X5450000Y-20550000D01*
X5250000Y-20350000D02*
X5650000Y-20350000D01*
X12200000Y-17850000D02*
X12200000Y-18250000D01*
X12000000Y-18050000D02*
X12400000Y-18050000D01*
X17250000Y-8358000D02*
X17250000Y-8758000D01*
X17050000Y-8558000D02*
X17450000Y-8558000D01*
X37946000Y-13258000D02*
X37946000Y-13658000D01*
X37746000Y-13458000D02*
X38146000Y-13458000D01*
D12*
X2783928Y-21968214D02*
X2783928Y-21668214D01*
X2855357Y-21668214D01*
X2898214Y-21682500D01*
X2926786Y-21711072D01*
X2941071Y-21739643D01*
X2955357Y-21796786D01*
X2955357Y-21839643D01*
X2941071Y-21896786D01*
X2926786Y-21925357D01*
X2898214Y-21953929D01*
X2855357Y-21968214D01*
X2783928Y-21968214D01*
X3083928Y-21968214D02*
X3083928Y-21768214D01*
X3083928Y-21825357D02*
X3098214Y-21796786D01*
X3112500Y-21782500D01*
X3141071Y-21768214D01*
X3169643Y-21768214D01*
X3269643Y-21968214D02*
X3269643Y-21768214D01*
X3269643Y-21668214D02*
X3255357Y-21682500D01*
X3269643Y-21696786D01*
X3283928Y-21682500D01*
X3269643Y-21668214D01*
X3269643Y-21696786D01*
X3455357Y-21968214D02*
X3426786Y-21953929D01*
X3412500Y-21925357D01*
X3412500Y-21668214D01*
X3612500Y-21968214D02*
X3583928Y-21953929D01*
X3569643Y-21925357D01*
X3569643Y-21668214D01*
X3955357Y-21968214D02*
X3955357Y-21668214D01*
X4055357Y-21882500D01*
X4155357Y-21668214D01*
X4155357Y-21968214D01*
X4426786Y-21968214D02*
X4426786Y-21811072D01*
X4412500Y-21782500D01*
X4383928Y-21768214D01*
X4326786Y-21768214D01*
X4298214Y-21782500D01*
X4426786Y-21953929D02*
X4398214Y-21968214D01*
X4326786Y-21968214D01*
X4298214Y-21953929D01*
X4283928Y-21925357D01*
X4283928Y-21896786D01*
X4298214Y-21868214D01*
X4326786Y-21853929D01*
X4398214Y-21853929D01*
X4426786Y-21839643D01*
X4569643Y-21768214D02*
X4569643Y-22068214D01*
X4569643Y-21782500D02*
X4598214Y-21768214D01*
X4655357Y-21768214D01*
X4683928Y-21782500D01*
X4698214Y-21796786D01*
X4712500Y-21825357D01*
X4712500Y-21911072D01*
X4698214Y-21939643D01*
X4683928Y-21953929D01*
X4655357Y-21968214D01*
X4598214Y-21968214D01*
X4569643Y-21953929D01*
X4841071Y-21939643D02*
X4855357Y-21953929D01*
X4841071Y-21968214D01*
X4826786Y-21953929D01*
X4841071Y-21939643D01*
X4841071Y-21968214D01*
X4841071Y-21782500D02*
X4855357Y-21796786D01*
X4841071Y-21811072D01*
X4826786Y-21796786D01*
X4841071Y-21782500D01*
X4841071Y-21811072D01*
X2327500Y-22377500D02*
X2497500Y-22547500D01*
X2497500Y-22377500D02*
X2327500Y-22547500D01*
X2941071Y-22598214D02*
X2769643Y-22598214D01*
X2855357Y-22598214D02*
X2855357Y-22298214D01*
X2826786Y-22341072D01*
X2798214Y-22369643D01*
X2769643Y-22383929D01*
X3069643Y-22569643D02*
X3083928Y-22583929D01*
X3069643Y-22598214D01*
X3055357Y-22583929D01*
X3069643Y-22569643D01*
X3069643Y-22598214D01*
X3183928Y-22298214D02*
X3383928Y-22298214D01*
X3255357Y-22598214D01*
X3555357Y-22298214D02*
X3583928Y-22298214D01*
X3612500Y-22312500D01*
X3626786Y-22326786D01*
X3641071Y-22355357D01*
X3655357Y-22412500D01*
X3655357Y-22483929D01*
X3641071Y-22541071D01*
X3626786Y-22569643D01*
X3612500Y-22583929D01*
X3583928Y-22598214D01*
X3555357Y-22598214D01*
X3526786Y-22583929D01*
X3512500Y-22569643D01*
X3498214Y-22541071D01*
X3483928Y-22483929D01*
X3483928Y-22412500D01*
X3498214Y-22355357D01*
X3512500Y-22326786D01*
X3526786Y-22312500D01*
X3555357Y-22298214D01*
X3783928Y-22598214D02*
X3783928Y-22398214D01*
X3783928Y-22426786D02*
X3798214Y-22412500D01*
X3826786Y-22398214D01*
X3869643Y-22398214D01*
X3898214Y-22412500D01*
X3912500Y-22441071D01*
X3912500Y-22598214D01*
X3912500Y-22441071D02*
X3926786Y-22412500D01*
X3955357Y-22398214D01*
X3998214Y-22398214D01*
X4026786Y-22412500D01*
X4041071Y-22441071D01*
X4041071Y-22598214D01*
X4183928Y-22598214D02*
X4183928Y-22398214D01*
X4183928Y-22426786D02*
X4198214Y-22412500D01*
X4226786Y-22398214D01*
X4269643Y-22398214D01*
X4298214Y-22412500D01*
X4312500Y-22441071D01*
X4312500Y-22598214D01*
X4312500Y-22441071D02*
X4326786Y-22412500D01*
X4355357Y-22398214D01*
X4398214Y-22398214D01*
X4426786Y-22412500D01*
X4441071Y-22441071D01*
X4441071Y-22598214D01*
X5026786Y-22283929D02*
X4769643Y-22669643D01*
X5412500Y-22298214D02*
X5441071Y-22298214D01*
X5469643Y-22312500D01*
X5483928Y-22326786D01*
X5498214Y-22355357D01*
X5512500Y-22412500D01*
X5512500Y-22483929D01*
X5498214Y-22541071D01*
X5483928Y-22569643D01*
X5469643Y-22583929D01*
X5441071Y-22598214D01*
X5412500Y-22598214D01*
X5383928Y-22583929D01*
X5369643Y-22569643D01*
X5355357Y-22541071D01*
X5341071Y-22483929D01*
X5341071Y-22412500D01*
X5355357Y-22355357D01*
X5369643Y-22326786D01*
X5383928Y-22312500D01*
X5412500Y-22298214D01*
X5641071Y-22569643D02*
X5655357Y-22583929D01*
X5641071Y-22598214D01*
X5626786Y-22583929D01*
X5641071Y-22569643D01*
X5641071Y-22598214D01*
X5841071Y-22298214D02*
X5869643Y-22298214D01*
X5898214Y-22312500D01*
X5912500Y-22326786D01*
X5926786Y-22355357D01*
X5941071Y-22412500D01*
X5941071Y-22483929D01*
X5926786Y-22541071D01*
X5912500Y-22569643D01*
X5898214Y-22583929D01*
X5869643Y-22598214D01*
X5841071Y-22598214D01*
X5812500Y-22583929D01*
X5798214Y-22569643D01*
X5783928Y-22541071D01*
X5769643Y-22483929D01*
X5769643Y-22412500D01*
X5783928Y-22355357D01*
X5798214Y-22326786D01*
X5812500Y-22312500D01*
X5841071Y-22298214D01*
X6198214Y-22298214D02*
X6141071Y-22298214D01*
X6112500Y-22312500D01*
X6098214Y-22326786D01*
X6069643Y-22369643D01*
X6055357Y-22426786D01*
X6055357Y-22541071D01*
X6069643Y-22569643D01*
X6083928Y-22583929D01*
X6112500Y-22598214D01*
X6169643Y-22598214D01*
X6198214Y-22583929D01*
X6212500Y-22569643D01*
X6226786Y-22541071D01*
X6226786Y-22469643D01*
X6212500Y-22441071D01*
X6198214Y-22426786D01*
X6169643Y-22412500D01*
X6112500Y-22412500D01*
X6083928Y-22426786D01*
X6069643Y-22441071D01*
X6055357Y-22469643D01*
X6326786Y-22298214D02*
X6526786Y-22298214D01*
X6398214Y-22598214D01*
X6626786Y-22298214D02*
X6626786Y-22355357D01*
X6741071Y-22298214D02*
X6741071Y-22355357D01*
X7183928Y-22712500D02*
X7169643Y-22698214D01*
X7141071Y-22655357D01*
X7126786Y-22626786D01*
X7112500Y-22583929D01*
X7098214Y-22512500D01*
X7098214Y-22455357D01*
X7112500Y-22383929D01*
X7126786Y-22341072D01*
X7141071Y-22312500D01*
X7169643Y-22269643D01*
X7183928Y-22255357D01*
X7455357Y-22598214D02*
X7283928Y-22598214D01*
X7369643Y-22598214D02*
X7369643Y-22298214D01*
X7341071Y-22341072D01*
X7312500Y-22369643D01*
X7283928Y-22383929D01*
X7712500Y-22298214D02*
X7655357Y-22298214D01*
X7626786Y-22312500D01*
X7612500Y-22326786D01*
X7583928Y-22369643D01*
X7569643Y-22426786D01*
X7569643Y-22541071D01*
X7583928Y-22569643D01*
X7598214Y-22583929D01*
X7626786Y-22598214D01*
X7683928Y-22598214D01*
X7712500Y-22583929D01*
X7726786Y-22569643D01*
X7741071Y-22541071D01*
X7741071Y-22469643D01*
X7726786Y-22441071D01*
X7712500Y-22426786D01*
X7683928Y-22412500D01*
X7626786Y-22412500D01*
X7598214Y-22426786D01*
X7583928Y-22441071D01*
X7569643Y-22469643D01*
X7998214Y-22298214D02*
X7941071Y-22298214D01*
X7912500Y-22312500D01*
X7898214Y-22326786D01*
X7869643Y-22369643D01*
X7855357Y-22426786D01*
X7855357Y-22541071D01*
X7869643Y-22569643D01*
X7883928Y-22583929D01*
X7912500Y-22598214D01*
X7969643Y-22598214D01*
X7998214Y-22583929D01*
X8012500Y-22569643D01*
X8026786Y-22541071D01*
X8026786Y-22469643D01*
X8012500Y-22441071D01*
X7998214Y-22426786D01*
X7969643Y-22412500D01*
X7912500Y-22412500D01*
X7883928Y-22426786D01*
X7869643Y-22441071D01*
X7855357Y-22469643D01*
X8383928Y-22598214D02*
X8383928Y-22298214D01*
X8512500Y-22598214D02*
X8512500Y-22441071D01*
X8498214Y-22412500D01*
X8469643Y-22398214D01*
X8426786Y-22398214D01*
X8398214Y-22412500D01*
X8383928Y-22426786D01*
X8698214Y-22598214D02*
X8669643Y-22583929D01*
X8655357Y-22569643D01*
X8641071Y-22541071D01*
X8641071Y-22455357D01*
X8655357Y-22426786D01*
X8669643Y-22412500D01*
X8698214Y-22398214D01*
X8741071Y-22398214D01*
X8769643Y-22412500D01*
X8783928Y-22426786D01*
X8798214Y-22455357D01*
X8798214Y-22541071D01*
X8783928Y-22569643D01*
X8769643Y-22583929D01*
X8741071Y-22598214D01*
X8698214Y-22598214D01*
X8969643Y-22598214D02*
X8941071Y-22583929D01*
X8926786Y-22555357D01*
X8926786Y-22298214D01*
X9198214Y-22583929D02*
X9169643Y-22598214D01*
X9112500Y-22598214D01*
X9083928Y-22583929D01*
X9069643Y-22555357D01*
X9069643Y-22441071D01*
X9083928Y-22412500D01*
X9112500Y-22398214D01*
X9169643Y-22398214D01*
X9198214Y-22412500D01*
X9212500Y-22441071D01*
X9212500Y-22469643D01*
X9069643Y-22498214D01*
X9326786Y-22583929D02*
X9355357Y-22598214D01*
X9412500Y-22598214D01*
X9441071Y-22583929D01*
X9455357Y-22555357D01*
X9455357Y-22541071D01*
X9441071Y-22512500D01*
X9412500Y-22498214D01*
X9369643Y-22498214D01*
X9341071Y-22483929D01*
X9326786Y-22455357D01*
X9326786Y-22441071D01*
X9341071Y-22412500D01*
X9369643Y-22398214D01*
X9412500Y-22398214D01*
X9441071Y-22412500D01*
X9555357Y-22712500D02*
X9569643Y-22698214D01*
X9598214Y-22655357D01*
X9612500Y-22626786D01*
X9626786Y-22583929D01*
X9641071Y-22512500D01*
X9641071Y-22455357D01*
X9626786Y-22383929D01*
X9612500Y-22341072D01*
X9598214Y-22312500D01*
X9569643Y-22269643D01*
X9555357Y-22255357D01*
X10098214Y-22712500D02*
X10083928Y-22698214D01*
X10055357Y-22655357D01*
X10041071Y-22626786D01*
X10026786Y-22583929D01*
X10012500Y-22512500D01*
X10012500Y-22455357D01*
X10026786Y-22383929D01*
X10041071Y-22341072D01*
X10055357Y-22312500D01*
X10083928Y-22269643D01*
X10098214Y-22255357D01*
X10212500Y-22398214D02*
X10212500Y-22598214D01*
X10212500Y-22426786D02*
X10226786Y-22412500D01*
X10255357Y-22398214D01*
X10298214Y-22398214D01*
X10326786Y-22412500D01*
X10341071Y-22441071D01*
X10341071Y-22598214D01*
X10526786Y-22598214D02*
X10498214Y-22583929D01*
X10483928Y-22569643D01*
X10469643Y-22541071D01*
X10469643Y-22455357D01*
X10483928Y-22426786D01*
X10498214Y-22412500D01*
X10526786Y-22398214D01*
X10569643Y-22398214D01*
X10598214Y-22412500D01*
X10612500Y-22426786D01*
X10626786Y-22455357D01*
X10626786Y-22541071D01*
X10612500Y-22569643D01*
X10598214Y-22583929D01*
X10569643Y-22598214D01*
X10526786Y-22598214D01*
X10712500Y-22398214D02*
X10826786Y-22398214D01*
X10755357Y-22298214D02*
X10755357Y-22555357D01*
X10769643Y-22583929D01*
X10798214Y-22598214D01*
X10826786Y-22598214D01*
X11155357Y-22398214D02*
X11155357Y-22698214D01*
X11155357Y-22412500D02*
X11183928Y-22398214D01*
X11241071Y-22398214D01*
X11269643Y-22412500D01*
X11283928Y-22426786D01*
X11298214Y-22455357D01*
X11298214Y-22541071D01*
X11283928Y-22569643D01*
X11269643Y-22583929D01*
X11241071Y-22598214D01*
X11183928Y-22598214D01*
X11155357Y-22583929D01*
X11469643Y-22598214D02*
X11441071Y-22583929D01*
X11426786Y-22555357D01*
X11426786Y-22298214D01*
X11712500Y-22598214D02*
X11712500Y-22441071D01*
X11698214Y-22412500D01*
X11669643Y-22398214D01*
X11612500Y-22398214D01*
X11583928Y-22412500D01*
X11712500Y-22583929D02*
X11683928Y-22598214D01*
X11612500Y-22598214D01*
X11583928Y-22583929D01*
X11569643Y-22555357D01*
X11569643Y-22526786D01*
X11583928Y-22498214D01*
X11612500Y-22483929D01*
X11683928Y-22483929D01*
X11712500Y-22469643D01*
X11812500Y-22398214D02*
X11926786Y-22398214D01*
X11855357Y-22298214D02*
X11855357Y-22555357D01*
X11869643Y-22583929D01*
X11898214Y-22598214D01*
X11926786Y-22598214D01*
X12141071Y-22583929D02*
X12112500Y-22598214D01*
X12055357Y-22598214D01*
X12026786Y-22583929D01*
X12012500Y-22555357D01*
X12012500Y-22441071D01*
X12026786Y-22412500D01*
X12055357Y-22398214D01*
X12112500Y-22398214D01*
X12141071Y-22412500D01*
X12155357Y-22441071D01*
X12155357Y-22469643D01*
X12012500Y-22498214D01*
X12412500Y-22598214D02*
X12412500Y-22298214D01*
X12412500Y-22583929D02*
X12383928Y-22598214D01*
X12326786Y-22598214D01*
X12298214Y-22583929D01*
X12283928Y-22569643D01*
X12269643Y-22541071D01*
X12269643Y-22455357D01*
X12283928Y-22426786D01*
X12298214Y-22412500D01*
X12326786Y-22398214D01*
X12383928Y-22398214D01*
X12412500Y-22412500D01*
X12526786Y-22712500D02*
X12541071Y-22698214D01*
X12569643Y-22655357D01*
X12583928Y-22626786D01*
X12598214Y-22583929D01*
X12612500Y-22512500D01*
X12612500Y-22455357D01*
X12598214Y-22383929D01*
X12583928Y-22341072D01*
X12569643Y-22312500D01*
X12541071Y-22269643D01*
X12526786Y-22255357D01*
X2497500Y-22858500D02*
G75*
G03*
X2497500Y-22858500I-152500J0D01*
G01*
X2755357Y-22694214D02*
X2941071Y-22694214D01*
X2841071Y-22808500D01*
X2883928Y-22808500D01*
X2912500Y-22822786D01*
X2926786Y-22837071D01*
X2941071Y-22865643D01*
X2941071Y-22937071D01*
X2926786Y-22965643D01*
X2912500Y-22979929D01*
X2883928Y-22994214D01*
X2798214Y-22994214D01*
X2769643Y-22979929D01*
X2755357Y-22965643D01*
X3069643Y-22965643D02*
X3083928Y-22979929D01*
X3069643Y-22994214D01*
X3055357Y-22979929D01*
X3069643Y-22965643D01*
X3069643Y-22994214D01*
X3269643Y-22694214D02*
X3298214Y-22694214D01*
X3326786Y-22708500D01*
X3341071Y-22722786D01*
X3355357Y-22751357D01*
X3369643Y-22808500D01*
X3369643Y-22879929D01*
X3355357Y-22937071D01*
X3341071Y-22965643D01*
X3326786Y-22979929D01*
X3298214Y-22994214D01*
X3269643Y-22994214D01*
X3241071Y-22979929D01*
X3226786Y-22965643D01*
X3212500Y-22937071D01*
X3198214Y-22879929D01*
X3198214Y-22808500D01*
X3212500Y-22751357D01*
X3226786Y-22722786D01*
X3241071Y-22708500D01*
X3269643Y-22694214D01*
X3641071Y-22694214D02*
X3498214Y-22694214D01*
X3483928Y-22837071D01*
X3498214Y-22822786D01*
X3526786Y-22808500D01*
X3598214Y-22808500D01*
X3626786Y-22822786D01*
X3641071Y-22837071D01*
X3655357Y-22865643D01*
X3655357Y-22937071D01*
X3641071Y-22965643D01*
X3626786Y-22979929D01*
X3598214Y-22994214D01*
X3526786Y-22994214D01*
X3498214Y-22979929D01*
X3483928Y-22965643D01*
X3783928Y-22994214D02*
X3783928Y-22794214D01*
X3783928Y-22822786D02*
X3798214Y-22808500D01*
X3826786Y-22794214D01*
X3869643Y-22794214D01*
X3898214Y-22808500D01*
X3912500Y-22837071D01*
X3912500Y-22994214D01*
X3912500Y-22837071D02*
X3926786Y-22808500D01*
X3955357Y-22794214D01*
X3998214Y-22794214D01*
X4026786Y-22808500D01*
X4041071Y-22837071D01*
X4041071Y-22994214D01*
X4183928Y-22994214D02*
X4183928Y-22794214D01*
X4183928Y-22822786D02*
X4198214Y-22808500D01*
X4226786Y-22794214D01*
X4269643Y-22794214D01*
X4298214Y-22808500D01*
X4312500Y-22837071D01*
X4312500Y-22994214D01*
X4312500Y-22837071D02*
X4326786Y-22808500D01*
X4355357Y-22794214D01*
X4398214Y-22794214D01*
X4426786Y-22808500D01*
X4441071Y-22837071D01*
X4441071Y-22994214D01*
X5026786Y-22679929D02*
X4769643Y-23065643D01*
X5412500Y-22694214D02*
X5441071Y-22694214D01*
X5469643Y-22708500D01*
X5483928Y-22722786D01*
X5498214Y-22751357D01*
X5512500Y-22808500D01*
X5512500Y-22879929D01*
X5498214Y-22937071D01*
X5483928Y-22965643D01*
X5469643Y-22979929D01*
X5441071Y-22994214D01*
X5412500Y-22994214D01*
X5383928Y-22979929D01*
X5369643Y-22965643D01*
X5355357Y-22937071D01*
X5341071Y-22879929D01*
X5341071Y-22808500D01*
X5355357Y-22751357D01*
X5369643Y-22722786D01*
X5383928Y-22708500D01*
X5412500Y-22694214D01*
X5641071Y-22965643D02*
X5655357Y-22979929D01*
X5641071Y-22994214D01*
X5626786Y-22979929D01*
X5641071Y-22965643D01*
X5641071Y-22994214D01*
X5941071Y-22994214D02*
X5769643Y-22994214D01*
X5855357Y-22994214D02*
X5855357Y-22694214D01*
X5826786Y-22737071D01*
X5798214Y-22765643D01*
X5769643Y-22779929D01*
X6055357Y-22722786D02*
X6069643Y-22708500D01*
X6098214Y-22694214D01*
X6169643Y-22694214D01*
X6198214Y-22708500D01*
X6212500Y-22722786D01*
X6226786Y-22751357D01*
X6226786Y-22779929D01*
X6212500Y-22822786D01*
X6041071Y-22994214D01*
X6226786Y-22994214D01*
X6412500Y-22694214D02*
X6441071Y-22694214D01*
X6469643Y-22708500D01*
X6483928Y-22722786D01*
X6498214Y-22751357D01*
X6512500Y-22808500D01*
X6512500Y-22879929D01*
X6498214Y-22937071D01*
X6483928Y-22965643D01*
X6469643Y-22979929D01*
X6441071Y-22994214D01*
X6412500Y-22994214D01*
X6383928Y-22979929D01*
X6369643Y-22965643D01*
X6355357Y-22937071D01*
X6341071Y-22879929D01*
X6341071Y-22808500D01*
X6355357Y-22751357D01*
X6369643Y-22722786D01*
X6383928Y-22708500D01*
X6412500Y-22694214D01*
X6626786Y-22694214D02*
X6626786Y-22751357D01*
X6741071Y-22694214D02*
X6741071Y-22751357D01*
X7183928Y-23108500D02*
X7169643Y-23094214D01*
X7141071Y-23051357D01*
X7126786Y-23022786D01*
X7112500Y-22979929D01*
X7098214Y-22908500D01*
X7098214Y-22851357D01*
X7112500Y-22779929D01*
X7126786Y-22737071D01*
X7141071Y-22708500D01*
X7169643Y-22665643D01*
X7183928Y-22651357D01*
X7283928Y-22722786D02*
X7298214Y-22708500D01*
X7326786Y-22694214D01*
X7398214Y-22694214D01*
X7426786Y-22708500D01*
X7441071Y-22722786D01*
X7455357Y-22751357D01*
X7455357Y-22779929D01*
X7441071Y-22822786D01*
X7269643Y-22994214D01*
X7455357Y-22994214D01*
X7812500Y-22994214D02*
X7812500Y-22694214D01*
X7941071Y-22994214D02*
X7941071Y-22837071D01*
X7926786Y-22808500D01*
X7898214Y-22794214D01*
X7855357Y-22794214D01*
X7826786Y-22808500D01*
X7812500Y-22822786D01*
X8126786Y-22994214D02*
X8098214Y-22979929D01*
X8083928Y-22965643D01*
X8069643Y-22937071D01*
X8069643Y-22851357D01*
X8083928Y-22822786D01*
X8098214Y-22808500D01*
X8126786Y-22794214D01*
X8169643Y-22794214D01*
X8198214Y-22808500D01*
X8212500Y-22822786D01*
X8226786Y-22851357D01*
X8226786Y-22937071D01*
X8212500Y-22965643D01*
X8198214Y-22979929D01*
X8169643Y-22994214D01*
X8126786Y-22994214D01*
X8398214Y-22994214D02*
X8369643Y-22979929D01*
X8355357Y-22951357D01*
X8355357Y-22694214D01*
X8626786Y-22979929D02*
X8598214Y-22994214D01*
X8541071Y-22994214D01*
X8512500Y-22979929D01*
X8498214Y-22951357D01*
X8498214Y-22837071D01*
X8512500Y-22808500D01*
X8541071Y-22794214D01*
X8598214Y-22794214D01*
X8626786Y-22808500D01*
X8641071Y-22837071D01*
X8641071Y-22865643D01*
X8498214Y-22894214D01*
X8755357Y-22979929D02*
X8783928Y-22994214D01*
X8841071Y-22994214D01*
X8869643Y-22979929D01*
X8883928Y-22951357D01*
X8883928Y-22937071D01*
X8869643Y-22908500D01*
X8841071Y-22894214D01*
X8798214Y-22894214D01*
X8769643Y-22879929D01*
X8755357Y-22851357D01*
X8755357Y-22837071D01*
X8769643Y-22808500D01*
X8798214Y-22794214D01*
X8841071Y-22794214D01*
X8869643Y-22808500D01*
X8983928Y-23108500D02*
X8998214Y-23094214D01*
X9026786Y-23051357D01*
X9041071Y-23022786D01*
X9055357Y-22979929D01*
X9069643Y-22908500D01*
X9069643Y-22851357D01*
X9055357Y-22779929D01*
X9041071Y-22737071D01*
X9026786Y-22708500D01*
X8998214Y-22665643D01*
X8983928Y-22651357D01*
X9526786Y-23108500D02*
X9512500Y-23094214D01*
X9483928Y-23051357D01*
X9469643Y-23022786D01*
X9455357Y-22979929D01*
X9441071Y-22908500D01*
X9441071Y-22851357D01*
X9455357Y-22779929D01*
X9469643Y-22737071D01*
X9483928Y-22708500D01*
X9512500Y-22665643D01*
X9526786Y-22651357D01*
X9641071Y-22794214D02*
X9641071Y-22994214D01*
X9641071Y-22822786D02*
X9655357Y-22808500D01*
X9683928Y-22794214D01*
X9726786Y-22794214D01*
X9755357Y-22808500D01*
X9769643Y-22837071D01*
X9769643Y-22994214D01*
X9955357Y-22994214D02*
X9926786Y-22979929D01*
X9912500Y-22965643D01*
X9898214Y-22937071D01*
X9898214Y-22851357D01*
X9912500Y-22822786D01*
X9926786Y-22808500D01*
X9955357Y-22794214D01*
X9998214Y-22794214D01*
X10026786Y-22808500D01*
X10041071Y-22822786D01*
X10055357Y-22851357D01*
X10055357Y-22937071D01*
X10041071Y-22965643D01*
X10026786Y-22979929D01*
X9998214Y-22994214D01*
X9955357Y-22994214D01*
X10141071Y-22794214D02*
X10255357Y-22794214D01*
X10183928Y-22694214D02*
X10183928Y-22951357D01*
X10198214Y-22979929D01*
X10226786Y-22994214D01*
X10255357Y-22994214D01*
X10583928Y-22794214D02*
X10583928Y-23094214D01*
X10583928Y-22808500D02*
X10612500Y-22794214D01*
X10669643Y-22794214D01*
X10698214Y-22808500D01*
X10712500Y-22822786D01*
X10726786Y-22851357D01*
X10726786Y-22937071D01*
X10712500Y-22965643D01*
X10698214Y-22979929D01*
X10669643Y-22994214D01*
X10612500Y-22994214D01*
X10583928Y-22979929D01*
X10898214Y-22994214D02*
X10869643Y-22979929D01*
X10855357Y-22951357D01*
X10855357Y-22694214D01*
X11141071Y-22994214D02*
X11141071Y-22837071D01*
X11126786Y-22808500D01*
X11098214Y-22794214D01*
X11041071Y-22794214D01*
X11012500Y-22808500D01*
X11141071Y-22979929D02*
X11112500Y-22994214D01*
X11041071Y-22994214D01*
X11012500Y-22979929D01*
X10998214Y-22951357D01*
X10998214Y-22922786D01*
X11012500Y-22894214D01*
X11041071Y-22879929D01*
X11112500Y-22879929D01*
X11141071Y-22865643D01*
X11241071Y-22794214D02*
X11355357Y-22794214D01*
X11283928Y-22694214D02*
X11283928Y-22951357D01*
X11298214Y-22979929D01*
X11326786Y-22994214D01*
X11355357Y-22994214D01*
X11569643Y-22979929D02*
X11541071Y-22994214D01*
X11483928Y-22994214D01*
X11455357Y-22979929D01*
X11441071Y-22951357D01*
X11441071Y-22837071D01*
X11455357Y-22808500D01*
X11483928Y-22794214D01*
X11541071Y-22794214D01*
X11569643Y-22808500D01*
X11583928Y-22837071D01*
X11583928Y-22865643D01*
X11441071Y-22894214D01*
X11841071Y-22994214D02*
X11841071Y-22694214D01*
X11841071Y-22979929D02*
X11812500Y-22994214D01*
X11755357Y-22994214D01*
X11726786Y-22979929D01*
X11712500Y-22965643D01*
X11698214Y-22937071D01*
X11698214Y-22851357D01*
X11712500Y-22822786D01*
X11726786Y-22808500D01*
X11755357Y-22794214D01*
X11812500Y-22794214D01*
X11841071Y-22808500D01*
X11955357Y-23108500D02*
X11969643Y-23094214D01*
X11998214Y-23051357D01*
X12012500Y-23022786D01*
X12026786Y-22979929D01*
X12041071Y-22908500D01*
X12041071Y-22851357D01*
X12026786Y-22779929D01*
X12012500Y-22737071D01*
X11998214Y-22708500D01*
X11969643Y-22665643D01*
X11955357Y-22651357D01*
X2297500Y-23093500D02*
X2297500Y-23493500D01*
X2097500Y-23293500D02*
X2497500Y-23293500D01*
X2912500Y-23229214D02*
X2912500Y-23429214D01*
X2841071Y-23114929D02*
X2769643Y-23329214D01*
X2955357Y-23329214D01*
X3069643Y-23400643D02*
X3083928Y-23414929D01*
X3069643Y-23429214D01*
X3055357Y-23414929D01*
X3069643Y-23400643D01*
X3069643Y-23429214D01*
X3269643Y-23129214D02*
X3298214Y-23129214D01*
X3326786Y-23143500D01*
X3341071Y-23157786D01*
X3355357Y-23186357D01*
X3369643Y-23243500D01*
X3369643Y-23314929D01*
X3355357Y-23372071D01*
X3341071Y-23400643D01*
X3326786Y-23414929D01*
X3298214Y-23429214D01*
X3269643Y-23429214D01*
X3241071Y-23414929D01*
X3226786Y-23400643D01*
X3212500Y-23372071D01*
X3198214Y-23314929D01*
X3198214Y-23243500D01*
X3212500Y-23186357D01*
X3226786Y-23157786D01*
X3241071Y-23143500D01*
X3269643Y-23129214D01*
X3555357Y-23129214D02*
X3583928Y-23129214D01*
X3612500Y-23143500D01*
X3626786Y-23157786D01*
X3641071Y-23186357D01*
X3655357Y-23243500D01*
X3655357Y-23314929D01*
X3641071Y-23372071D01*
X3626786Y-23400643D01*
X3612500Y-23414929D01*
X3583928Y-23429214D01*
X3555357Y-23429214D01*
X3526786Y-23414929D01*
X3512500Y-23400643D01*
X3498214Y-23372071D01*
X3483928Y-23314929D01*
X3483928Y-23243500D01*
X3498214Y-23186357D01*
X3512500Y-23157786D01*
X3526786Y-23143500D01*
X3555357Y-23129214D01*
X3783928Y-23429214D02*
X3783928Y-23229214D01*
X3783928Y-23257786D02*
X3798214Y-23243500D01*
X3826786Y-23229214D01*
X3869643Y-23229214D01*
X3898214Y-23243500D01*
X3912500Y-23272071D01*
X3912500Y-23429214D01*
X3912500Y-23272071D02*
X3926786Y-23243500D01*
X3955357Y-23229214D01*
X3998214Y-23229214D01*
X4026786Y-23243500D01*
X4041071Y-23272071D01*
X4041071Y-23429214D01*
X4183928Y-23429214D02*
X4183928Y-23229214D01*
X4183928Y-23257786D02*
X4198214Y-23243500D01*
X4226786Y-23229214D01*
X4269643Y-23229214D01*
X4298214Y-23243500D01*
X4312500Y-23272071D01*
X4312500Y-23429214D01*
X4312500Y-23272071D02*
X4326786Y-23243500D01*
X4355357Y-23229214D01*
X4398214Y-23229214D01*
X4426786Y-23243500D01*
X4441071Y-23272071D01*
X4441071Y-23429214D01*
X5026786Y-23114929D02*
X4769643Y-23500643D01*
X5412500Y-23129214D02*
X5441071Y-23129214D01*
X5469643Y-23143500D01*
X5483928Y-23157786D01*
X5498214Y-23186357D01*
X5512500Y-23243500D01*
X5512500Y-23314929D01*
X5498214Y-23372071D01*
X5483928Y-23400643D01*
X5469643Y-23414929D01*
X5441071Y-23429214D01*
X5412500Y-23429214D01*
X5383928Y-23414929D01*
X5369643Y-23400643D01*
X5355357Y-23372071D01*
X5341071Y-23314929D01*
X5341071Y-23243500D01*
X5355357Y-23186357D01*
X5369643Y-23157786D01*
X5383928Y-23143500D01*
X5412500Y-23129214D01*
X5641071Y-23400643D02*
X5655357Y-23414929D01*
X5641071Y-23429214D01*
X5626786Y-23414929D01*
X5641071Y-23400643D01*
X5641071Y-23429214D01*
X5941071Y-23429214D02*
X5769643Y-23429214D01*
X5855357Y-23429214D02*
X5855357Y-23129214D01*
X5826786Y-23172071D01*
X5798214Y-23200643D01*
X5769643Y-23214929D01*
X6212500Y-23129214D02*
X6069643Y-23129214D01*
X6055357Y-23272071D01*
X6069643Y-23257786D01*
X6098214Y-23243500D01*
X6169643Y-23243500D01*
X6198214Y-23257786D01*
X6212500Y-23272071D01*
X6226786Y-23300643D01*
X6226786Y-23372071D01*
X6212500Y-23400643D01*
X6198214Y-23414929D01*
X6169643Y-23429214D01*
X6098214Y-23429214D01*
X6069643Y-23414929D01*
X6055357Y-23400643D01*
X6326786Y-23129214D02*
X6526786Y-23129214D01*
X6398214Y-23429214D01*
X6626786Y-23129214D02*
X6626786Y-23186357D01*
X6741071Y-23129214D02*
X6741071Y-23186357D01*
X7183928Y-23543500D02*
X7169643Y-23529214D01*
X7141071Y-23486357D01*
X7126786Y-23457786D01*
X7112500Y-23414929D01*
X7098214Y-23343500D01*
X7098214Y-23286357D01*
X7112500Y-23214929D01*
X7126786Y-23172071D01*
X7141071Y-23143500D01*
X7169643Y-23100643D01*
X7183928Y-23086357D01*
X7341071Y-23257786D02*
X7312500Y-23243500D01*
X7298214Y-23229214D01*
X7283928Y-23200643D01*
X7283928Y-23186357D01*
X7298214Y-23157786D01*
X7312500Y-23143500D01*
X7341071Y-23129214D01*
X7398214Y-23129214D01*
X7426786Y-23143500D01*
X7441071Y-23157786D01*
X7455357Y-23186357D01*
X7455357Y-23200643D01*
X7441071Y-23229214D01*
X7426786Y-23243500D01*
X7398214Y-23257786D01*
X7341071Y-23257786D01*
X7312500Y-23272071D01*
X7298214Y-23286357D01*
X7283928Y-23314929D01*
X7283928Y-23372071D01*
X7298214Y-23400643D01*
X7312500Y-23414929D01*
X7341071Y-23429214D01*
X7398214Y-23429214D01*
X7426786Y-23414929D01*
X7441071Y-23400643D01*
X7455357Y-23372071D01*
X7455357Y-23314929D01*
X7441071Y-23286357D01*
X7426786Y-23272071D01*
X7398214Y-23257786D01*
X7726786Y-23129214D02*
X7583928Y-23129214D01*
X7569643Y-23272071D01*
X7583928Y-23257786D01*
X7612500Y-23243500D01*
X7683928Y-23243500D01*
X7712500Y-23257786D01*
X7726786Y-23272071D01*
X7741071Y-23300643D01*
X7741071Y-23372071D01*
X7726786Y-23400643D01*
X7712500Y-23414929D01*
X7683928Y-23429214D01*
X7612500Y-23429214D01*
X7583928Y-23414929D01*
X7569643Y-23400643D01*
X8098214Y-23429214D02*
X8098214Y-23129214D01*
X8226786Y-23429214D02*
X8226786Y-23272071D01*
X8212500Y-23243500D01*
X8183928Y-23229214D01*
X8141071Y-23229214D01*
X8112500Y-23243500D01*
X8098214Y-23257786D01*
X8412500Y-23429214D02*
X8383928Y-23414929D01*
X8369643Y-23400643D01*
X8355357Y-23372071D01*
X8355357Y-23286357D01*
X8369643Y-23257786D01*
X8383928Y-23243500D01*
X8412500Y-23229214D01*
X8455357Y-23229214D01*
X8483928Y-23243500D01*
X8498214Y-23257786D01*
X8512500Y-23286357D01*
X8512500Y-23372071D01*
X8498214Y-23400643D01*
X8483928Y-23414929D01*
X8455357Y-23429214D01*
X8412500Y-23429214D01*
X8683928Y-23429214D02*
X8655357Y-23414929D01*
X8641071Y-23386357D01*
X8641071Y-23129214D01*
X8912500Y-23414929D02*
X8883928Y-23429214D01*
X8826786Y-23429214D01*
X8798214Y-23414929D01*
X8783928Y-23386357D01*
X8783928Y-23272071D01*
X8798214Y-23243500D01*
X8826786Y-23229214D01*
X8883928Y-23229214D01*
X8912500Y-23243500D01*
X8926786Y-23272071D01*
X8926786Y-23300643D01*
X8783928Y-23329214D01*
X9041071Y-23414929D02*
X9069643Y-23429214D01*
X9126786Y-23429214D01*
X9155357Y-23414929D01*
X9169643Y-23386357D01*
X9169643Y-23372071D01*
X9155357Y-23343500D01*
X9126786Y-23329214D01*
X9083928Y-23329214D01*
X9055357Y-23314929D01*
X9041071Y-23286357D01*
X9041071Y-23272071D01*
X9055357Y-23243500D01*
X9083928Y-23229214D01*
X9126786Y-23229214D01*
X9155357Y-23243500D01*
X9269643Y-23543500D02*
X9283928Y-23529214D01*
X9312500Y-23486357D01*
X9326786Y-23457786D01*
X9341071Y-23414929D01*
X9355357Y-23343500D01*
X9355357Y-23286357D01*
X9341071Y-23214929D01*
X9326786Y-23172071D01*
X9312500Y-23143500D01*
X9283928Y-23100643D01*
X9269643Y-23086357D01*
X9812500Y-23543500D02*
X9798214Y-23529214D01*
X9769643Y-23486357D01*
X9755357Y-23457786D01*
X9741071Y-23414929D01*
X9726786Y-23343500D01*
X9726786Y-23286357D01*
X9741071Y-23214929D01*
X9755357Y-23172071D01*
X9769643Y-23143500D01*
X9798214Y-23100643D01*
X9812500Y-23086357D01*
X9926786Y-23229214D02*
X9926786Y-23429214D01*
X9926786Y-23257786D02*
X9941071Y-23243500D01*
X9969643Y-23229214D01*
X10012500Y-23229214D01*
X10041071Y-23243500D01*
X10055357Y-23272071D01*
X10055357Y-23429214D01*
X10241071Y-23429214D02*
X10212500Y-23414929D01*
X10198214Y-23400643D01*
X10183928Y-23372071D01*
X10183928Y-23286357D01*
X10198214Y-23257786D01*
X10212500Y-23243500D01*
X10241071Y-23229214D01*
X10283928Y-23229214D01*
X10312500Y-23243500D01*
X10326786Y-23257786D01*
X10341071Y-23286357D01*
X10341071Y-23372071D01*
X10326786Y-23400643D01*
X10312500Y-23414929D01*
X10283928Y-23429214D01*
X10241071Y-23429214D01*
X10426786Y-23229214D02*
X10541071Y-23229214D01*
X10469643Y-23129214D02*
X10469643Y-23386357D01*
X10483928Y-23414929D01*
X10512500Y-23429214D01*
X10541071Y-23429214D01*
X10869643Y-23229214D02*
X10869643Y-23529214D01*
X10869643Y-23243500D02*
X10898214Y-23229214D01*
X10955357Y-23229214D01*
X10983928Y-23243500D01*
X10998214Y-23257786D01*
X11012500Y-23286357D01*
X11012500Y-23372071D01*
X10998214Y-23400643D01*
X10983928Y-23414929D01*
X10955357Y-23429214D01*
X10898214Y-23429214D01*
X10869643Y-23414929D01*
X11183928Y-23429214D02*
X11155357Y-23414929D01*
X11141071Y-23386357D01*
X11141071Y-23129214D01*
X11426786Y-23429214D02*
X11426786Y-23272071D01*
X11412500Y-23243500D01*
X11383928Y-23229214D01*
X11326786Y-23229214D01*
X11298214Y-23243500D01*
X11426786Y-23414929D02*
X11398214Y-23429214D01*
X11326786Y-23429214D01*
X11298214Y-23414929D01*
X11283928Y-23386357D01*
X11283928Y-23357786D01*
X11298214Y-23329214D01*
X11326786Y-23314929D01*
X11398214Y-23314929D01*
X11426786Y-23300643D01*
X11526786Y-23229214D02*
X11641071Y-23229214D01*
X11569643Y-23129214D02*
X11569643Y-23386357D01*
X11583928Y-23414929D01*
X11612500Y-23429214D01*
X11641071Y-23429214D01*
X11855357Y-23414929D02*
X11826786Y-23429214D01*
X11769643Y-23429214D01*
X11741071Y-23414929D01*
X11726786Y-23386357D01*
X11726786Y-23272071D01*
X11741071Y-23243500D01*
X11769643Y-23229214D01*
X11826786Y-23229214D01*
X11855357Y-23243500D01*
X11869643Y-23272071D01*
X11869643Y-23300643D01*
X11726786Y-23329214D01*
X12126786Y-23429214D02*
X12126786Y-23129214D01*
X12126786Y-23414929D02*
X12098214Y-23429214D01*
X12041071Y-23429214D01*
X12012500Y-23414929D01*
X11998214Y-23400643D01*
X11983928Y-23372071D01*
X11983928Y-23286357D01*
X11998214Y-23257786D01*
X12012500Y-23243500D01*
X12041071Y-23229214D01*
X12098214Y-23229214D01*
X12126786Y-23243500D01*
X12241071Y-23543500D02*
X12255357Y-23529214D01*
X12283928Y-23486357D01*
X12298214Y-23457786D01*
X12312500Y-23414929D01*
X12326786Y-23343500D01*
X12326786Y-23286357D01*
X12312500Y-23214929D01*
X12298214Y-23172071D01*
X12283928Y-23143500D01*
X12255357Y-23100643D01*
X12241071Y-23086357D01*
M02*
