%TF.GenerationSoftware,KiCad,Pcbnew,5.1.6-c6e7f7d~87~ubuntu20.04.1*%
%TF.CreationDate,2020-07-24T00:41:04+02:00*%
%TF.ProjectId,Keyboard-ISO,4b657962-6f61-4726-942d-49534f2e6b69,rev?*%
%TF.SameCoordinates,Original*%
%TF.FileFunction,Copper,L2,Bot*%
%TF.FilePolarity,Positive*%
%FSLAX46Y46*%
G04 Gerber Fmt 4.6, Leading zero omitted, Abs format (unit mm)*
G04 Created by KiCad (PCBNEW 5.1.6-c6e7f7d~87~ubuntu20.04.1) date 2020-07-24 00:41:04*
%MOMM*%
%LPD*%
G01*
G04 APERTURE LIST*
%TA.AperFunction,ComponentPad*%
%ADD10R,1.800000X1.800000*%
%TD*%
%TA.AperFunction,ComponentPad*%
%ADD11O,1.800000X1.800000*%
%TD*%
%TA.AperFunction,ComponentPad*%
%ADD12C,2.200000*%
%TD*%
%TA.AperFunction,ComponentPad*%
%ADD13O,3.200000X3.200000*%
%TD*%
%TA.AperFunction,ComponentPad*%
%ADD14R,3.200000X3.200000*%
%TD*%
%TA.AperFunction,ComponentPad*%
%ADD15R,1.600000X1.600000*%
%TD*%
%TA.AperFunction,ComponentPad*%
%ADD16C,1.600000*%
%TD*%
%TA.AperFunction,ComponentPad*%
%ADD17C,4.000000*%
%TD*%
%TA.AperFunction,ComponentPad*%
%ADD18C,9.000000*%
%TD*%
%TA.AperFunction,Conductor*%
%ADD19C,0.250000*%
%TD*%
G04 APERTURE END LIST*
D10*
%TO.P,D4,1*%
%TO.N,COL1*%
X43880000Y-97500000D03*
D11*
%TO.P,D4,2*%
%TO.N,Net-(D4-Pad2)*%
X51500000Y-97500000D03*
%TD*%
D10*
%TO.P,D5,1*%
%TO.N,COL2*%
X81880000Y-97500000D03*
D11*
%TO.P,D5,2*%
%TO.N,Net-(D5-Pad2)*%
X89500000Y-97500000D03*
%TD*%
%TO.P,D6,2*%
%TO.N,Net-(D6-Pad2)*%
X109500000Y-97500000D03*
D10*
%TO.P,D6,1*%
%TO.N,COL3*%
X101880000Y-97500000D03*
%TD*%
%TO.P,D7,1*%
%TO.N,COL4*%
X121380000Y-97500000D03*
D11*
%TO.P,D7,2*%
%TO.N,Net-(D7-Pad2)*%
X129000000Y-97500000D03*
%TD*%
%TO.P,D8,2*%
%TO.N,Net-(D8-Pad2)*%
X148000000Y-97500000D03*
D10*
%TO.P,D8,1*%
%TO.N,COL5*%
X140380000Y-97500000D03*
%TD*%
%TO.P,D9,1*%
%TO.N,COL6*%
X168000000Y-98500000D03*
D11*
%TO.P,D9,2*%
%TO.N,Net-(D9-Pad2)*%
X175620000Y-98500000D03*
%TD*%
D10*
%TO.P,D10,1*%
%TO.N,COL7*%
X187500000Y-98500000D03*
D11*
%TO.P,D10,2*%
%TO.N,Net-(D10-Pad2)*%
X195120000Y-98500000D03*
%TD*%
%TO.P,D11,2*%
%TO.N,Net-(D11-Pad2)*%
X215120000Y-99000000D03*
D10*
%TO.P,D11,1*%
%TO.N,COL8*%
X207500000Y-99000000D03*
%TD*%
%TO.P,D12,1*%
%TO.N,COL9*%
X227000000Y-99000000D03*
D11*
%TO.P,D12,2*%
%TO.N,Net-(D12-Pad2)*%
X234620000Y-99000000D03*
%TD*%
%TO.P,D13,2*%
%TO.N,Net-(D13-Pad2)*%
X261120000Y-99000000D03*
D10*
%TO.P,D13,1*%
%TO.N,COL10*%
X253500000Y-99000000D03*
%TD*%
D11*
%TO.P,D14,2*%
%TO.N,Net-(D14-Pad2)*%
X280620000Y-99000000D03*
D10*
%TO.P,D14,1*%
%TO.N,COL11*%
X273000000Y-99000000D03*
%TD*%
D11*
%TO.P,D15,2*%
%TO.N,Net-(D15-Pad2)*%
X302120000Y-99000000D03*
D10*
%TO.P,D15,1*%
%TO.N,COL12*%
X294500000Y-99000000D03*
%TD*%
D11*
%TO.P,D16,2*%
%TO.N,Net-(D16-Pad2)*%
X321120000Y-99000000D03*
D10*
%TO.P,D16,1*%
%TO.N,COL13*%
X313500000Y-99000000D03*
%TD*%
%TO.P,D17,1*%
%TO.N,COL14*%
X333500000Y-99000000D03*
D11*
%TO.P,D17,2*%
%TO.N,Net-(D17-Pad2)*%
X341120000Y-99000000D03*
%TD*%
%TO.P,D18,2*%
%TO.N,Net-(D18-Pad2)*%
X360120000Y-99000000D03*
D10*
%TO.P,D18,1*%
%TO.N,COL15*%
X352500000Y-99000000D03*
%TD*%
%TO.P,D19,1*%
%TO.N,COL16*%
X372500000Y-99000000D03*
D11*
%TO.P,D19,2*%
%TO.N,Net-(D19-Pad2)*%
X380120000Y-99000000D03*
%TD*%
%TO.P,D20,2*%
%TO.N,Net-(D20-Pad2)*%
X51620000Y-122500000D03*
D10*
%TO.P,D20,1*%
%TO.N,COL1*%
X44000000Y-122500000D03*
%TD*%
D11*
%TO.P,D21,2*%
%TO.N,Net-(D21-Pad2)*%
X71620000Y-122500000D03*
D10*
%TO.P,D21,1*%
%TO.N,COL2*%
X64000000Y-122500000D03*
%TD*%
D11*
%TO.P,D22,2*%
%TO.N,Net-(D22-Pad2)*%
X91620000Y-122500000D03*
D10*
%TO.P,D22,1*%
%TO.N,COL3*%
X84000000Y-122500000D03*
%TD*%
%TO.P,D23,1*%
%TO.N,COL4*%
X104380000Y-122500000D03*
D11*
%TO.P,D23,2*%
%TO.N,Net-(D23-Pad2)*%
X112000000Y-122500000D03*
%TD*%
%TO.P,D24,2*%
%TO.N,Net-(D24-Pad2)*%
X132000000Y-122500000D03*
D10*
%TO.P,D24,1*%
%TO.N,COL5*%
X124380000Y-122500000D03*
%TD*%
%TO.P,D25,1*%
%TO.N,COL6*%
X144380000Y-122500000D03*
D11*
%TO.P,D25,2*%
%TO.N,Net-(D25-Pad2)*%
X152000000Y-122500000D03*
%TD*%
D10*
%TO.P,D26,1*%
%TO.N,COL7*%
X164380000Y-122500000D03*
D11*
%TO.P,D26,2*%
%TO.N,Net-(D26-Pad2)*%
X172000000Y-122500000D03*
%TD*%
D10*
%TO.P,D27,1*%
%TO.N,COL8*%
X183380000Y-122500000D03*
D11*
%TO.P,D27,2*%
%TO.N,Net-(D27-Pad2)*%
X191000000Y-122500000D03*
%TD*%
D10*
%TO.P,D28,1*%
%TO.N,COL9*%
X204380000Y-122500000D03*
D11*
%TO.P,D28,2*%
%TO.N,Net-(D28-Pad2)*%
X212000000Y-122500000D03*
%TD*%
%TO.P,D29,2*%
%TO.N,Net-(D29-Pad2)*%
X231000000Y-122500000D03*
D10*
%TO.P,D29,1*%
%TO.N,COL10*%
X223380000Y-122500000D03*
%TD*%
%TO.P,D30,1*%
%TO.N,COL11*%
X244380000Y-122500000D03*
D11*
%TO.P,D30,2*%
%TO.N,Net-(D30-Pad2)*%
X252000000Y-122500000D03*
%TD*%
D10*
%TO.P,D31,1*%
%TO.N,COL12*%
X263380000Y-122500000D03*
D11*
%TO.P,D31,2*%
%TO.N,Net-(D31-Pad2)*%
X271000000Y-122500000D03*
%TD*%
%TO.P,D32,2*%
%TO.N,Net-(D32-Pad2)*%
X309000000Y-121500000D03*
D10*
%TO.P,D32,1*%
%TO.N,COL13*%
X301380000Y-121500000D03*
%TD*%
D11*
%TO.P,D33,2*%
%TO.N,Net-(D33-Pad2)*%
X343000000Y-122500000D03*
D10*
%TO.P,D33,1*%
%TO.N,COL14*%
X335380000Y-122500000D03*
%TD*%
D11*
%TO.P,D34,2*%
%TO.N,Net-(D34-Pad2)*%
X362000000Y-122500000D03*
D10*
%TO.P,D34,1*%
%TO.N,COL15*%
X354380000Y-122500000D03*
%TD*%
%TO.P,D35,1*%
%TO.N,COL16*%
X374000000Y-122500000D03*
D11*
%TO.P,D35,2*%
%TO.N,Net-(D35-Pad2)*%
X381620000Y-122500000D03*
%TD*%
D10*
%TO.P,D36,1*%
%TO.N,COL1*%
X51000000Y-146500000D03*
D11*
%TO.P,D36,2*%
%TO.N,Net-(D36-Pad2)*%
X58620000Y-146500000D03*
%TD*%
%TO.P,D37,2*%
%TO.N,Net-(D37-Pad2)*%
X81620000Y-146500000D03*
D10*
%TO.P,D37,1*%
%TO.N,COL2*%
X74000000Y-146500000D03*
%TD*%
D11*
%TO.P,D38,2*%
%TO.N,Net-(D38-Pad2)*%
X101620000Y-146500000D03*
D10*
%TO.P,D38,1*%
%TO.N,COL3*%
X94000000Y-146500000D03*
%TD*%
D11*
%TO.P,D39,2*%
%TO.N,Net-(D39-Pad2)*%
X121120000Y-146500000D03*
D10*
%TO.P,D39,1*%
%TO.N,COL4*%
X113500000Y-146500000D03*
%TD*%
D11*
%TO.P,D40,2*%
%TO.N,Net-(D40-Pad2)*%
X141000000Y-146500000D03*
D10*
%TO.P,D40,1*%
%TO.N,COL5*%
X133380000Y-146500000D03*
%TD*%
D11*
%TO.P,D41,2*%
%TO.N,Net-(D41-Pad2)*%
X160620000Y-146500000D03*
D10*
%TO.P,D41,1*%
%TO.N,COL6*%
X153000000Y-146500000D03*
%TD*%
%TO.P,D42,1*%
%TO.N,COL7*%
X174000000Y-146500000D03*
D11*
%TO.P,D42,2*%
%TO.N,Net-(D42-Pad2)*%
X181620000Y-146500000D03*
%TD*%
D10*
%TO.P,D43,1*%
%TO.N,COL8*%
X194000000Y-146500000D03*
D11*
%TO.P,D43,2*%
%TO.N,Net-(D43-Pad2)*%
X201620000Y-146500000D03*
%TD*%
D10*
%TO.P,D44,1*%
%TO.N,COL9*%
X213000000Y-146500000D03*
D11*
%TO.P,D44,2*%
%TO.N,Net-(D44-Pad2)*%
X220620000Y-146500000D03*
%TD*%
D10*
%TO.P,D45,1*%
%TO.N,COL10*%
X234000000Y-146500000D03*
D11*
%TO.P,D45,2*%
%TO.N,Net-(D45-Pad2)*%
X241620000Y-146500000D03*
%TD*%
D10*
%TO.P,D46,1*%
%TO.N,COL11*%
X254000000Y-146500000D03*
D11*
%TO.P,D46,2*%
%TO.N,Net-(D46-Pad2)*%
X261620000Y-146500000D03*
%TD*%
D10*
%TO.P,D47,1*%
%TO.N,COL12*%
X274000000Y-146500000D03*
D11*
%TO.P,D47,2*%
%TO.N,Net-(D47-Pad2)*%
X281620000Y-146500000D03*
%TD*%
%TO.P,D48,2*%
%TO.N,Net-(D48-Pad2)*%
X298620000Y-146500000D03*
D10*
%TO.P,D48,1*%
%TO.N,COL13*%
X291000000Y-146500000D03*
%TD*%
%TO.P,D49,1*%
%TO.N,COL14*%
X336000000Y-146500000D03*
D11*
%TO.P,D49,2*%
%TO.N,Net-(D49-Pad2)*%
X343620000Y-146500000D03*
%TD*%
%TO.P,D50,2*%
%TO.N,Net-(D50-Pad2)*%
X362620000Y-146500000D03*
D10*
%TO.P,D50,1*%
%TO.N,COL15*%
X355000000Y-146500000D03*
%TD*%
D11*
%TO.P,D51,2*%
%TO.N,Net-(D51-Pad2)*%
X383620000Y-146500000D03*
D10*
%TO.P,D51,1*%
%TO.N,COL16*%
X376000000Y-146500000D03*
%TD*%
D11*
%TO.P,D52,2*%
%TO.N,Net-(D52-Pad2)*%
X58620000Y-169500000D03*
D10*
%TO.P,D52,1*%
%TO.N,COL1*%
X51000000Y-169500000D03*
%TD*%
D11*
%TO.P,D53,2*%
%TO.N,Net-(D53-Pad2)*%
X86620000Y-169500000D03*
D10*
%TO.P,D53,1*%
%TO.N,COL2*%
X79000000Y-169500000D03*
%TD*%
%TO.P,D54,1*%
%TO.N,COL3*%
X98000000Y-169500000D03*
D11*
%TO.P,D54,2*%
%TO.N,Net-(D54-Pad2)*%
X105620000Y-169500000D03*
%TD*%
D10*
%TO.P,D55,1*%
%TO.N,COL4*%
X118000000Y-169500000D03*
D11*
%TO.P,D55,2*%
%TO.N,Net-(D55-Pad2)*%
X125620000Y-169500000D03*
%TD*%
%TO.P,D56,2*%
%TO.N,Net-(D56-Pad2)*%
X145620000Y-169500000D03*
D10*
%TO.P,D56,1*%
%TO.N,COL5*%
X138000000Y-169500000D03*
%TD*%
D11*
%TO.P,D57,2*%
%TO.N,Net-(D57-Pad2)*%
X165620000Y-169500000D03*
D10*
%TO.P,D57,1*%
%TO.N,COL6*%
X158000000Y-169500000D03*
%TD*%
D11*
%TO.P,D58,2*%
%TO.N,Net-(D58-Pad2)*%
X185620000Y-169500000D03*
D10*
%TO.P,D58,1*%
%TO.N,COL7*%
X178000000Y-169500000D03*
%TD*%
D11*
%TO.P,D59,2*%
%TO.N,Net-(D59-Pad2)*%
X205620000Y-169500000D03*
D10*
%TO.P,D59,1*%
%TO.N,COL8*%
X198000000Y-169500000D03*
%TD*%
%TO.P,D60,1*%
%TO.N,COL9*%
X218000000Y-169500000D03*
D11*
%TO.P,D60,2*%
%TO.N,Net-(D60-Pad2)*%
X225620000Y-169500000D03*
%TD*%
D10*
%TO.P,D65,1*%
%TO.N,COL2*%
X78000000Y-191500000D03*
D11*
%TO.P,D65,2*%
%TO.N,Net-(D65-Pad2)*%
X85620000Y-191500000D03*
%TD*%
%TO.P,D66,2*%
%TO.N,Net-(D66-Pad2)*%
X105620000Y-191500000D03*
D10*
%TO.P,D66,1*%
%TO.N,COL3*%
X98000000Y-191500000D03*
%TD*%
%TO.P,D67,1*%
%TO.N,COL4*%
X118000000Y-191500000D03*
D11*
%TO.P,D67,2*%
%TO.N,Net-(D67-Pad2)*%
X125620000Y-191500000D03*
%TD*%
D10*
%TO.P,D68,1*%
%TO.N,COL5*%
X139000000Y-191500000D03*
D11*
%TO.P,D68,2*%
%TO.N,Net-(D68-Pad2)*%
X146620000Y-191500000D03*
%TD*%
%TO.P,D69,2*%
%TO.N,Net-(D69-Pad2)*%
X165620000Y-191500000D03*
D10*
%TO.P,D69,1*%
%TO.N,COL6*%
X158000000Y-191500000D03*
%TD*%
D11*
%TO.P,D70,2*%
%TO.N,Net-(D70-Pad2)*%
X185620000Y-191500000D03*
D10*
%TO.P,D70,1*%
%TO.N,COL7*%
X178000000Y-191500000D03*
%TD*%
D11*
%TO.P,D71,2*%
%TO.N,Net-(D71-Pad2)*%
X205620000Y-191500000D03*
D10*
%TO.P,D71,1*%
%TO.N,COL8*%
X198000000Y-191500000D03*
%TD*%
%TO.P,D72,1*%
%TO.N,COL9*%
X218000000Y-191500000D03*
D11*
%TO.P,D72,2*%
%TO.N,Net-(D72-Pad2)*%
X225620000Y-191500000D03*
%TD*%
D10*
%TO.P,D73,1*%
%TO.N,COL10*%
X238000000Y-191500000D03*
D11*
%TO.P,D73,2*%
%TO.N,Net-(D73-Pad2)*%
X245620000Y-191500000D03*
%TD*%
D10*
%TO.P,D74,1*%
%TO.N,COL11*%
X258000000Y-191500000D03*
D11*
%TO.P,D74,2*%
%TO.N,Net-(D74-Pad2)*%
X265620000Y-191500000D03*
%TD*%
D10*
%TO.P,D75,1*%
%TO.N,COL12*%
X296000000Y-191500000D03*
D11*
%TO.P,D75,2*%
%TO.N,Net-(D75-Pad2)*%
X303620000Y-191500000D03*
%TD*%
%TO.P,D76,2*%
%TO.N,Net-(D76-Pad2)*%
X346000000Y-184500000D03*
D10*
%TO.P,D76,1*%
%TO.N,COL13*%
X346000000Y-176880000D03*
%TD*%
D11*
%TO.P,D77,2*%
%TO.N,Net-(D77-Pad2)*%
X43000000Y-207500000D03*
D10*
%TO.P,D77,1*%
%TO.N,COL1*%
X43000000Y-199880000D03*
%TD*%
%TO.P,D81,1*%
%TO.N,COL5*%
X239000000Y-206500000D03*
D11*
%TO.P,D81,2*%
%TO.N,Net-(D81-Pad2)*%
X239000000Y-198880000D03*
%TD*%
D10*
%TO.P,D82,1*%
%TO.N,COL6*%
X262000000Y-205500000D03*
D11*
%TO.P,D82,2*%
%TO.N,Net-(D82-Pad2)*%
X262000000Y-197880000D03*
%TD*%
%TO.P,D83,2*%
%TO.N,Net-(D83-Pad2)*%
X287000000Y-197880000D03*
D10*
%TO.P,D83,1*%
%TO.N,COL7*%
X287000000Y-205500000D03*
%TD*%
D11*
%TO.P,D84,2*%
%TO.N,Net-(D84-Pad2)*%
X342620000Y-191500000D03*
D10*
%TO.P,D84,1*%
%TO.N,COL8*%
X335000000Y-191500000D03*
%TD*%
D11*
%TO.P,D85,2*%
%TO.N,Net-(D85-Pad2)*%
X363000000Y-191500000D03*
D10*
%TO.P,D85,1*%
%TO.N,COL9*%
X355380000Y-191500000D03*
%TD*%
%TO.P,D86,1*%
%TO.N,COL10*%
X374380000Y-191500000D03*
D11*
%TO.P,D86,2*%
%TO.N,Net-(D86-Pad2)*%
X382000000Y-191500000D03*
%TD*%
D12*
%TO.P,SW2,1*%
%TO.N,ROW1*%
X51500000Y-80500000D03*
%TO.P,SW2,2*%
%TO.N,Net-(D4-Pad2)*%
X45150000Y-83040000D03*
%TD*%
%TO.P,SW3,2*%
%TO.N,Net-(D5-Pad2)*%
X82190000Y-83040000D03*
%TO.P,SW3,1*%
%TO.N,ROW1*%
X88540000Y-80500000D03*
%TD*%
%TO.P,SW4,1*%
%TO.N,ROW1*%
X108500000Y-80500000D03*
%TO.P,SW4,2*%
%TO.N,Net-(D6-Pad2)*%
X102150000Y-83040000D03*
%TD*%
%TO.P,SW5,1*%
%TO.N,ROW1*%
X128500000Y-80500000D03*
%TO.P,SW5,2*%
%TO.N,Net-(D7-Pad2)*%
X122150000Y-83040000D03*
%TD*%
%TO.P,SW6,2*%
%TO.N,Net-(D8-Pad2)*%
X142190000Y-82960000D03*
%TO.P,SW6,1*%
%TO.N,ROW1*%
X148540000Y-80420000D03*
%TD*%
%TO.P,SW7,1*%
%TO.N,ROW1*%
X175040000Y-80500000D03*
%TO.P,SW7,2*%
%TO.N,Net-(D9-Pad2)*%
X168690000Y-83040000D03*
%TD*%
%TO.P,SW8,2*%
%TO.N,Net-(D10-Pad2)*%
X188650000Y-83040000D03*
%TO.P,SW8,1*%
%TO.N,ROW1*%
X195000000Y-80500000D03*
%TD*%
%TO.P,SW9,1*%
%TO.N,ROW1*%
X215000000Y-80500000D03*
%TO.P,SW9,2*%
%TO.N,Net-(D11-Pad2)*%
X208650000Y-83040000D03*
%TD*%
%TO.P,SW10,2*%
%TO.N,Net-(D12-Pad2)*%
X228150000Y-83040000D03*
%TO.P,SW10,1*%
%TO.N,ROW1*%
X234500000Y-80500000D03*
%TD*%
%TO.P,SW11,2*%
%TO.N,Net-(D13-Pad2)*%
X254650000Y-83040000D03*
%TO.P,SW11,1*%
%TO.N,ROW1*%
X261000000Y-80500000D03*
%TD*%
%TO.P,SW12,1*%
%TO.N,ROW1*%
X281000000Y-80500000D03*
%TO.P,SW12,2*%
%TO.N,Net-(D14-Pad2)*%
X274650000Y-83040000D03*
%TD*%
%TO.P,SW13,2*%
%TO.N,Net-(D15-Pad2)*%
X294690000Y-83040000D03*
%TO.P,SW13,1*%
%TO.N,ROW1*%
X301040000Y-80500000D03*
%TD*%
%TO.P,SW14,1*%
%TO.N,ROW1*%
X321040000Y-80420000D03*
%TO.P,SW14,2*%
%TO.N,Net-(D16-Pad2)*%
X314690000Y-82960000D03*
%TD*%
%TO.P,SW15,1*%
%TO.N,ROW1*%
X339500000Y-80500000D03*
%TO.P,SW15,2*%
%TO.N,Net-(D17-Pad2)*%
X333150000Y-83040000D03*
%TD*%
%TO.P,SW16,2*%
%TO.N,Net-(D18-Pad2)*%
X353150000Y-83040000D03*
%TO.P,SW16,1*%
%TO.N,ROW1*%
X359500000Y-80500000D03*
%TD*%
%TO.P,SW17,1*%
%TO.N,ROW1*%
X379500000Y-80500000D03*
%TO.P,SW17,2*%
%TO.N,Net-(D19-Pad2)*%
X373150000Y-83040000D03*
%TD*%
%TO.P,SW18,2*%
%TO.N,Net-(D20-Pad2)*%
X44150000Y-108040000D03*
%TO.P,SW18,1*%
%TO.N,ROW2*%
X50500000Y-105500000D03*
%TD*%
%TO.P,SW19,1*%
%TO.N,ROW2*%
X70500000Y-105500000D03*
%TO.P,SW19,2*%
%TO.N,Net-(D21-Pad2)*%
X64150000Y-108040000D03*
%TD*%
%TO.P,SW20,2*%
%TO.N,Net-(D22-Pad2)*%
X84150000Y-108040000D03*
%TO.P,SW20,1*%
%TO.N,ROW2*%
X90500000Y-105500000D03*
%TD*%
%TO.P,SW21,2*%
%TO.N,Net-(D23-Pad2)*%
X104150000Y-108040000D03*
%TO.P,SW21,1*%
%TO.N,ROW2*%
X110500000Y-105500000D03*
%TD*%
%TO.P,SW22,2*%
%TO.N,Net-(D24-Pad2)*%
X124150000Y-108040000D03*
%TO.P,SW22,1*%
%TO.N,ROW2*%
X130500000Y-105500000D03*
%TD*%
%TO.P,SW23,1*%
%TO.N,ROW2*%
X150500000Y-105500000D03*
%TO.P,SW23,2*%
%TO.N,Net-(D25-Pad2)*%
X144150000Y-108040000D03*
%TD*%
%TO.P,SW24,2*%
%TO.N,Net-(D26-Pad2)*%
X164150000Y-108040000D03*
%TO.P,SW24,1*%
%TO.N,ROW2*%
X170500000Y-105500000D03*
%TD*%
%TO.P,SW25,1*%
%TO.N,ROW2*%
X190500000Y-105500000D03*
%TO.P,SW25,2*%
%TO.N,Net-(D27-Pad2)*%
X184150000Y-108040000D03*
%TD*%
%TO.P,SW26,2*%
%TO.N,Net-(D28-Pad2)*%
X204150000Y-108040000D03*
%TO.P,SW26,1*%
%TO.N,ROW2*%
X210500000Y-105500000D03*
%TD*%
%TO.P,SW27,1*%
%TO.N,ROW2*%
X230500000Y-105500000D03*
%TO.P,SW27,2*%
%TO.N,Net-(D29-Pad2)*%
X224150000Y-108040000D03*
%TD*%
%TO.P,SW28,2*%
%TO.N,Net-(D30-Pad2)*%
X244150000Y-108040000D03*
%TO.P,SW28,1*%
%TO.N,ROW2*%
X250500000Y-105500000D03*
%TD*%
%TO.P,SW29,1*%
%TO.N,ROW2*%
X270500000Y-105500000D03*
%TO.P,SW29,2*%
%TO.N,Net-(D31-Pad2)*%
X264150000Y-108040000D03*
%TD*%
%TO.P,SW30,2*%
%TO.N,Net-(D32-Pad2)*%
X301650000Y-108040000D03*
%TO.P,SW30,1*%
%TO.N,ROW2*%
X308000000Y-105500000D03*
%TD*%
%TO.P,SW31,1*%
%TO.N,ROW2*%
X341000000Y-105500000D03*
%TO.P,SW31,2*%
%TO.N,Net-(D33-Pad2)*%
X334650000Y-108040000D03*
%TD*%
%TO.P,SW32,1*%
%TO.N,ROW2*%
X361000000Y-105500000D03*
%TO.P,SW32,2*%
%TO.N,Net-(D34-Pad2)*%
X354650000Y-108040000D03*
%TD*%
%TO.P,SW33,2*%
%TO.N,Net-(D35-Pad2)*%
X374650000Y-108040000D03*
%TO.P,SW33,1*%
%TO.N,ROW2*%
X381000000Y-105500000D03*
%TD*%
%TO.P,SW34,1*%
%TO.N,ROW3*%
X57000000Y-129500000D03*
%TO.P,SW34,2*%
%TO.N,Net-(D36-Pad2)*%
X50650000Y-132040000D03*
%TD*%
%TO.P,SW35,2*%
%TO.N,Net-(D37-Pad2)*%
X73650000Y-132040000D03*
%TO.P,SW35,1*%
%TO.N,ROW3*%
X80000000Y-129500000D03*
%TD*%
%TO.P,SW36,1*%
%TO.N,ROW3*%
X100000000Y-129500000D03*
%TO.P,SW36,2*%
%TO.N,Net-(D38-Pad2)*%
X93650000Y-132040000D03*
%TD*%
%TO.P,SW37,1*%
%TO.N,ROW3*%
X120000000Y-129500000D03*
%TO.P,SW37,2*%
%TO.N,Net-(D39-Pad2)*%
X113650000Y-132040000D03*
%TD*%
%TO.P,SW38,2*%
%TO.N,Net-(D40-Pad2)*%
X133650000Y-132040000D03*
%TO.P,SW38,1*%
%TO.N,ROW3*%
X140000000Y-129500000D03*
%TD*%
%TO.P,SW39,1*%
%TO.N,ROW3*%
X160000000Y-129500000D03*
%TO.P,SW39,2*%
%TO.N,Net-(D41-Pad2)*%
X153650000Y-132040000D03*
%TD*%
%TO.P,SW40,2*%
%TO.N,Net-(D42-Pad2)*%
X173650000Y-132040000D03*
%TO.P,SW40,1*%
%TO.N,ROW3*%
X180000000Y-129500000D03*
%TD*%
%TO.P,SW41,1*%
%TO.N,ROW3*%
X200000000Y-129500000D03*
%TO.P,SW41,2*%
%TO.N,Net-(D43-Pad2)*%
X193650000Y-132040000D03*
%TD*%
%TO.P,SW42,2*%
%TO.N,Net-(D44-Pad2)*%
X213650000Y-132040000D03*
%TO.P,SW42,1*%
%TO.N,ROW3*%
X220000000Y-129500000D03*
%TD*%
%TO.P,SW43,2*%
%TO.N,Net-(D45-Pad2)*%
X233650000Y-132040000D03*
%TO.P,SW43,1*%
%TO.N,ROW3*%
X240000000Y-129500000D03*
%TD*%
%TO.P,SW44,1*%
%TO.N,ROW3*%
X260000000Y-129500000D03*
%TO.P,SW44,2*%
%TO.N,Net-(D46-Pad2)*%
X253650000Y-132040000D03*
%TD*%
%TO.P,SW45,2*%
%TO.N,Net-(D47-Pad2)*%
X273650000Y-132040000D03*
%TO.P,SW45,1*%
%TO.N,ROW3*%
X280000000Y-129500000D03*
%TD*%
%TO.P,SW47,1*%
%TO.N,ROW3*%
X342000000Y-129500000D03*
%TO.P,SW47,2*%
%TO.N,Net-(D49-Pad2)*%
X335650000Y-132040000D03*
%TD*%
%TO.P,SW48,2*%
%TO.N,Net-(D50-Pad2)*%
X355650000Y-132040000D03*
%TO.P,SW48,1*%
%TO.N,ROW3*%
X362000000Y-129500000D03*
%TD*%
%TO.P,SW49,1*%
%TO.N,ROW3*%
X382000000Y-129500000D03*
%TO.P,SW49,2*%
%TO.N,Net-(D51-Pad2)*%
X375650000Y-132040000D03*
%TD*%
%TO.P,SW50,2*%
%TO.N,Net-(D52-Pad2)*%
X50650000Y-155540000D03*
%TO.P,SW50,1*%
%TO.N,ROW4*%
X57000000Y-153000000D03*
%TD*%
%TO.P,SW51,2*%
%TO.N,Net-(D53-Pad2)*%
X78150000Y-155540000D03*
%TO.P,SW51,1*%
%TO.N,ROW4*%
X84500000Y-153000000D03*
%TD*%
%TO.P,SW52,2*%
%TO.N,Net-(D54-Pad2)*%
X98150000Y-155540000D03*
%TO.P,SW52,1*%
%TO.N,ROW4*%
X104500000Y-153000000D03*
%TD*%
%TO.P,SW53,2*%
%TO.N,Net-(D55-Pad2)*%
X118150000Y-155540000D03*
%TO.P,SW53,1*%
%TO.N,ROW4*%
X124500000Y-153000000D03*
%TD*%
%TO.P,SW54,1*%
%TO.N,ROW4*%
X144500000Y-153000000D03*
%TO.P,SW54,2*%
%TO.N,Net-(D56-Pad2)*%
X138150000Y-155540000D03*
%TD*%
%TO.P,SW55,2*%
%TO.N,Net-(D57-Pad2)*%
X158150000Y-155540000D03*
%TO.P,SW55,1*%
%TO.N,ROW4*%
X164500000Y-153000000D03*
%TD*%
%TO.P,SW56,1*%
%TO.N,ROW4*%
X184500000Y-153000000D03*
%TO.P,SW56,2*%
%TO.N,Net-(D58-Pad2)*%
X178150000Y-155540000D03*
%TD*%
%TO.P,SW57,2*%
%TO.N,Net-(D59-Pad2)*%
X198150000Y-155540000D03*
%TO.P,SW57,1*%
%TO.N,ROW4*%
X204500000Y-153000000D03*
%TD*%
%TO.P,SW58,1*%
%TO.N,ROW4*%
X224500000Y-153000000D03*
%TO.P,SW58,2*%
%TO.N,Net-(D60-Pad2)*%
X218150000Y-155540000D03*
%TD*%
%TO.P,SW59,1*%
%TO.N,ROW4*%
X244500000Y-153000000D03*
%TO.P,SW59,2*%
%TO.N,Net-(D61-Pad2)*%
X238150000Y-155540000D03*
%TD*%
%TO.P,SW60,2*%
%TO.N,Net-(D62-Pad2)*%
X258150000Y-155540000D03*
%TO.P,SW60,1*%
%TO.N,ROW4*%
X264500000Y-153000000D03*
%TD*%
%TO.P,SW61,1*%
%TO.N,ROW4*%
X284500000Y-153000000D03*
%TO.P,SW61,2*%
%TO.N,Net-(D63-Pad2)*%
X278150000Y-155540000D03*
%TD*%
%TO.P,SW66,1*%
%TO.N,ROW5*%
X144540000Y-175420000D03*
%TO.P,SW66,2*%
%TO.N,Net-(D68-Pad2)*%
X138190000Y-177960000D03*
%TD*%
%TO.P,SW67,2*%
%TO.N,Net-(D69-Pad2)*%
X158190000Y-177960000D03*
%TO.P,SW67,1*%
%TO.N,ROW5*%
X164540000Y-175420000D03*
%TD*%
%TO.P,SW68,2*%
%TO.N,Net-(D70-Pad2)*%
X178190000Y-177960000D03*
%TO.P,SW68,1*%
%TO.N,ROW5*%
X184540000Y-175420000D03*
%TD*%
%TO.P,SW69,1*%
%TO.N,ROW5*%
X204500000Y-175500000D03*
%TO.P,SW69,2*%
%TO.N,Net-(D71-Pad2)*%
X198150000Y-178040000D03*
%TD*%
%TO.P,SW70,2*%
%TO.N,Net-(D72-Pad2)*%
X218150000Y-178040000D03*
%TO.P,SW70,1*%
%TO.N,ROW5*%
X224500000Y-175500000D03*
%TD*%
%TO.P,SW71,2*%
%TO.N,Net-(D73-Pad2)*%
X238150000Y-178040000D03*
%TO.P,SW71,1*%
%TO.N,ROW5*%
X244500000Y-175500000D03*
%TD*%
%TO.P,SW72,2*%
%TO.N,Net-(D74-Pad2)*%
X258150000Y-178040000D03*
%TO.P,SW72,1*%
%TO.N,ROW5*%
X264500000Y-175500000D03*
%TD*%
%TO.P,SW73,1*%
%TO.N,ROW5*%
X302500000Y-175500000D03*
%TO.P,SW73,2*%
%TO.N,Net-(D75-Pad2)*%
X296150000Y-178040000D03*
%TD*%
%TO.P,SW74,2*%
%TO.N,Net-(D76-Pad2)*%
X354690000Y-177960000D03*
%TO.P,SW74,1*%
%TO.N,ROW5*%
X361040000Y-175420000D03*
%TD*%
%TO.P,SW75,1*%
%TO.N,ROW6*%
X57040000Y-198420000D03*
%TO.P,SW75,2*%
%TO.N,Net-(D77-Pad2)*%
X50690000Y-200960000D03*
%TD*%
%TO.P,SW76,2*%
%TO.N,Net-(D78-Pad2)*%
X70690000Y-200960000D03*
%TO.P,SW76,1*%
%TO.N,ROW6*%
X77040000Y-198420000D03*
%TD*%
%TO.P,SW77,1*%
%TO.N,ROW6*%
X97000000Y-198500000D03*
%TO.P,SW77,2*%
%TO.N,Net-(D79-Pad2)*%
X90650000Y-201040000D03*
%TD*%
%TO.P,SW78,1*%
%TO.N,ROW6*%
X173540000Y-197500000D03*
%TO.P,SW78,2*%
%TO.N,Net-(D80-Pad2)*%
X167190000Y-200040000D03*
%TD*%
%TO.P,SW82,1*%
%TO.N,ROW6*%
X341040000Y-198000000D03*
%TO.P,SW82,2*%
%TO.N,Net-(D84-Pad2)*%
X334690000Y-200540000D03*
%TD*%
%TO.P,SW83,2*%
%TO.N,Net-(D85-Pad2)*%
X354690000Y-200460000D03*
%TO.P,SW83,1*%
%TO.N,ROW6*%
X361040000Y-197920000D03*
%TD*%
%TO.P,SW84,2*%
%TO.N,Net-(D86-Pad2)*%
X374690000Y-200460000D03*
%TO.P,SW84,1*%
%TO.N,ROW6*%
X381040000Y-197920000D03*
%TD*%
D11*
%TO.P,D61,2*%
%TO.N,Net-(D61-Pad2)*%
X245620000Y-169500000D03*
D10*
%TO.P,D61,1*%
%TO.N,COL10*%
X238000000Y-169500000D03*
%TD*%
%TO.P,D62,1*%
%TO.N,COL11*%
X258000000Y-169500000D03*
D11*
%TO.P,D62,2*%
%TO.N,Net-(D62-Pad2)*%
X265620000Y-169500000D03*
%TD*%
D10*
%TO.P,D63,1*%
%TO.N,COL12*%
X278000000Y-169500000D03*
D11*
%TO.P,D63,2*%
%TO.N,Net-(D63-Pad2)*%
X285620000Y-169500000D03*
%TD*%
D10*
%TO.P,D64,1*%
%TO.N,COL1*%
X49000000Y-191500000D03*
D11*
%TO.P,D64,2*%
%TO.N,Net-(D64-Pad2)*%
X56620000Y-191500000D03*
%TD*%
D10*
%TO.P,D78,1*%
%TO.N,COL2*%
X64000000Y-191500000D03*
D11*
%TO.P,D78,2*%
%TO.N,Net-(D78-Pad2)*%
X71620000Y-191500000D03*
%TD*%
%TO.P,D79,2*%
%TO.N,Net-(D79-Pad2)*%
X106000000Y-208120000D03*
D10*
%TO.P,D79,1*%
%TO.N,COL3*%
X106000000Y-200500000D03*
%TD*%
D11*
%TO.P,D80,2*%
%TO.N,Net-(D80-Pad2)*%
X159000000Y-205120000D03*
D10*
%TO.P,D80,1*%
%TO.N,COL4*%
X159000000Y-197500000D03*
%TD*%
D12*
%TO.P,SW62,2*%
%TO.N,Net-(D64-Pad2)*%
X50190000Y-177960000D03*
%TO.P,SW62,1*%
%TO.N,ROW5*%
X56540000Y-175420000D03*
%TD*%
%TO.P,SW63,1*%
%TO.N,ROW5*%
X84540000Y-175420000D03*
%TO.P,SW63,2*%
%TO.N,Net-(D65-Pad2)*%
X78190000Y-177960000D03*
%TD*%
%TO.P,SW64,2*%
%TO.N,Net-(D66-Pad2)*%
X98190000Y-177960000D03*
%TO.P,SW64,1*%
%TO.N,ROW5*%
X104540000Y-175420000D03*
%TD*%
%TO.P,SW65,1*%
%TO.N,ROW5*%
X124540000Y-175420000D03*
%TO.P,SW65,2*%
%TO.N,Net-(D67-Pad2)*%
X118190000Y-177960000D03*
%TD*%
%TO.P,SW79,2*%
%TO.N,Net-(D81-Pad2)*%
X247190000Y-200040000D03*
%TO.P,SW79,1*%
%TO.N,ROW6*%
X253540000Y-197500000D03*
%TD*%
%TO.P,SW80,1*%
%TO.N,ROW6*%
X277040000Y-197500000D03*
%TO.P,SW80,2*%
%TO.N,Net-(D82-Pad2)*%
X270690000Y-200040000D03*
%TD*%
%TO.P,SW81,1*%
%TO.N,ROW6*%
X302540000Y-197920000D03*
%TO.P,SW81,2*%
%TO.N,Net-(D83-Pad2)*%
X296190000Y-200460000D03*
%TD*%
D13*
%TO.P,D1,2*%
%TO.N,Net-(D1-Pad2)*%
X342620000Y-69500000D03*
D14*
%TO.P,D1,1*%
%TO.N,/GND*%
X335000000Y-69500000D03*
%TD*%
%TO.P,D2,1*%
%TO.N,/GND*%
X354000000Y-69500000D03*
D13*
%TO.P,D2,2*%
%TO.N,Net-(D2-Pad2)*%
X361620000Y-69500000D03*
%TD*%
D14*
%TO.P,D3,1*%
%TO.N,/GND*%
X375000000Y-69500000D03*
D13*
%TO.P,D3,2*%
%TO.N,Net-(D3-Pad2)*%
X382620000Y-69500000D03*
%TD*%
D12*
%TO.P,SW46,1*%
%TO.N,ROW3*%
X315500000Y-138000000D03*
%TO.P,SW46,2*%
%TO.N,Net-(D48-Pad2)*%
X309150000Y-140540000D03*
%TD*%
D15*
%TO.P,J1,1*%
%TO.N,ROW1*%
X417500000Y-150120000D03*
D16*
%TO.P,J1,2*%
%TO.N,ROW2*%
X417500000Y-147350000D03*
%TO.P,J1,3*%
%TO.N,ROW3*%
X417500000Y-144580000D03*
%TO.P,J1,4*%
%TO.N,ROW4*%
X417500000Y-141810000D03*
%TO.P,J1,5*%
%TO.N,ROW5*%
X417500000Y-139040000D03*
%TO.P,J1,6*%
%TO.N,ROW6*%
X417500000Y-136270000D03*
%TO.P,J1,7*%
%TO.N,COL7*%
X417500000Y-133500000D03*
%TO.P,J1,8*%
%TO.N,COL9*%
X417500000Y-130730000D03*
%TO.P,J1,9*%
%TO.N,COL11*%
X417500000Y-127960000D03*
%TO.P,J1,10*%
%TO.N,COL13*%
X417500000Y-125190000D03*
%TO.P,J1,11*%
%TO.N,COL15*%
X417500000Y-122420000D03*
%TO.P,J1,12*%
%TO.N,Net-(D1-Pad2)*%
X417500000Y-119650000D03*
%TO.P,J1,13*%
%TO.N,Net-(D3-Pad2)*%
X417500000Y-116880000D03*
%TO.P,J1,14*%
%TO.N,COL1*%
X414660000Y-148735000D03*
%TO.P,J1,15*%
%TO.N,COL2*%
X414660000Y-145965000D03*
%TO.P,J1,16*%
%TO.N,COL3*%
X414660000Y-143195000D03*
%TO.P,J1,17*%
%TO.N,COL4*%
X414660000Y-140425000D03*
%TO.P,J1,18*%
%TO.N,COL5*%
X414660000Y-137655000D03*
%TO.P,J1,19*%
%TO.N,COL6*%
X414660000Y-134885000D03*
%TO.P,J1,20*%
%TO.N,COL8*%
X414660000Y-132115000D03*
%TO.P,J1,21*%
%TO.N,COL10*%
X414660000Y-129345000D03*
%TO.P,J1,22*%
%TO.N,COL12*%
X414660000Y-126575000D03*
%TO.P,J1,23*%
%TO.N,COL14*%
X414660000Y-123805000D03*
%TO.P,J1,24*%
%TO.N,COL16*%
X414660000Y-121035000D03*
%TO.P,J1,25*%
%TO.N,Net-(D2-Pad2)*%
X414660000Y-118265000D03*
D17*
%TO.P,J1,0*%
%TO.N,/GND*%
X416080000Y-109950000D03*
X416080000Y-157050000D03*
%TD*%
D18*
%TO.P,J2,1*%
%TO.N,/GND*%
X32500000Y-68500000D03*
%TD*%
%TO.P,J3,1*%
%TO.N,/GND*%
X32500000Y-206000000D03*
%TD*%
%TO.P,J4,1*%
%TO.N,/GND*%
X395000000Y-68500000D03*
%TD*%
%TO.P,J5,1*%
%TO.N,/GND*%
X395000000Y-206000000D03*
%TD*%
D19*
%TO.N,COL1*%
X51000000Y-146500000D02*
X51000000Y-145274700D01*
X51000000Y-145274700D02*
X44000000Y-138274700D01*
X44000000Y-138274700D02*
X44000000Y-122500000D01*
X49000000Y-191500000D02*
X49000000Y-192725300D01*
X43000000Y-199880000D02*
X43000000Y-198654700D01*
X49000000Y-192725300D02*
X48929400Y-192725300D01*
X48929400Y-192725300D02*
X43000000Y-198654700D01*
%TO.N,Net-(D4-Pad2)*%
X51500000Y-97500000D02*
X51500000Y-96274700D01*
X45150000Y-83040000D02*
X45150000Y-89924700D01*
X45150000Y-89924700D02*
X51500000Y-96274700D01*
%TO.N,Net-(D5-Pad2)*%
X89500000Y-97500000D02*
X89500000Y-96274700D01*
X82190000Y-83040000D02*
X82190000Y-88964700D01*
X82190000Y-88964700D02*
X89500000Y-96274700D01*
%TO.N,Net-(D6-Pad2)*%
X109500000Y-97500000D02*
X109500000Y-96274700D01*
X102150000Y-83040000D02*
X102150000Y-88924700D01*
X102150000Y-88924700D02*
X109500000Y-96274700D01*
%TO.N,COL2*%
X64000000Y-122500000D02*
X65225300Y-122500000D01*
X71149300Y-123771800D02*
X72158200Y-123771800D01*
X72158200Y-123771800D02*
X80654700Y-115275300D01*
X80654700Y-115275300D02*
X80654700Y-99950600D01*
X80654700Y-99950600D02*
X81880000Y-98725300D01*
X65225300Y-122500000D02*
X66497100Y-123771800D01*
X66497100Y-123771800D02*
X71149300Y-123771800D01*
X71149300Y-123771800D02*
X71149300Y-142424000D01*
X71149300Y-142424000D02*
X74000000Y-145274700D01*
X81880000Y-97500000D02*
X81880000Y-98725300D01*
X74000000Y-146500000D02*
X74000000Y-145274700D01*
X79000000Y-169500000D02*
X79000000Y-168274700D01*
X74000000Y-146500000D02*
X74000000Y-163274700D01*
X74000000Y-163274700D02*
X79000000Y-168274700D01*
X75549400Y-190274700D02*
X76774700Y-191500000D01*
X65225300Y-191500000D02*
X66450600Y-190274700D01*
X66450600Y-190274700D02*
X75549400Y-190274700D01*
X79000000Y-170725300D02*
X75549400Y-174175900D01*
X75549400Y-174175900D02*
X75549400Y-190274700D01*
X79000000Y-169500000D02*
X79000000Y-170725300D01*
X78000000Y-191500000D02*
X76774700Y-191500000D01*
X64000000Y-191500000D02*
X65225300Y-191500000D01*
%TO.N,Net-(D7-Pad2)*%
X129000000Y-97500000D02*
X129000000Y-96274700D01*
X122150000Y-83040000D02*
X122150000Y-89424700D01*
X122150000Y-89424700D02*
X129000000Y-96274700D01*
%TO.N,Net-(D8-Pad2)*%
X148000000Y-97500000D02*
X148000000Y-96274700D01*
X142190000Y-82960000D02*
X142190000Y-90464700D01*
X142190000Y-90464700D02*
X148000000Y-96274700D01*
%TO.N,Net-(D9-Pad2)*%
X175620000Y-98500000D02*
X175620000Y-97274700D01*
X168690000Y-83040000D02*
X168690000Y-90344700D01*
X168690000Y-90344700D02*
X175620000Y-97274700D01*
%TO.N,Net-(D10-Pad2)*%
X195120000Y-98500000D02*
X195120000Y-97274700D01*
X188650000Y-83040000D02*
X188650000Y-90804700D01*
X188650000Y-90804700D02*
X195120000Y-97274700D01*
%TO.N,Net-(D11-Pad2)*%
X215120000Y-99000000D02*
X215120000Y-97774700D01*
X208650000Y-83040000D02*
X208650000Y-91304700D01*
X208650000Y-91304700D02*
X215120000Y-97774700D01*
%TO.N,Net-(D12-Pad2)*%
X234620000Y-99000000D02*
X234620000Y-97774700D01*
X228150000Y-83040000D02*
X228150000Y-91304700D01*
X228150000Y-91304700D02*
X234620000Y-97774700D01*
%TO.N,Net-(D13-Pad2)*%
X261120000Y-99000000D02*
X261120000Y-97774700D01*
X254650000Y-83040000D02*
X254650000Y-91304700D01*
X254650000Y-91304700D02*
X261120000Y-97774700D01*
%TO.N,COL3*%
X84000000Y-122500000D02*
X85225300Y-122500000D01*
X91149300Y-123771800D02*
X92158200Y-123771800D01*
X92158200Y-123771800D02*
X100654700Y-115275300D01*
X100654700Y-115275300D02*
X100654700Y-99950600D01*
X100654700Y-99950600D02*
X101880000Y-98725300D01*
X85225300Y-122500000D02*
X86497100Y-123771800D01*
X86497100Y-123771800D02*
X91149300Y-123771800D01*
X94000000Y-145274700D02*
X91149300Y-142424000D01*
X91149300Y-142424000D02*
X91149300Y-123771800D01*
X101880000Y-97500000D02*
X101880000Y-98725300D01*
X94000000Y-146500000D02*
X94000000Y-145274700D01*
X94000000Y-146500000D02*
X94000000Y-164274700D01*
X94000000Y-164274700D02*
X98000000Y-168274700D01*
X98000000Y-169500000D02*
X98000000Y-168274700D01*
X98000000Y-169500000D02*
X98000000Y-170725300D01*
X98000000Y-191500000D02*
X98000000Y-190274700D01*
X98000000Y-190274700D02*
X95722500Y-187997200D01*
X95722500Y-187997200D02*
X95722500Y-173002800D01*
X95722500Y-173002800D02*
X98000000Y-170725300D01*
X98612700Y-191500000D02*
X98000000Y-191500000D01*
X98612700Y-191500000D02*
X99225300Y-191500000D01*
X106000000Y-200500000D02*
X106000000Y-199274700D01*
X106000000Y-199274700D02*
X99225300Y-192500000D01*
X99225300Y-192500000D02*
X99225300Y-191500000D01*
%TO.N,Net-(D14-Pad2)*%
X280620000Y-99000000D02*
X280620000Y-97774700D01*
X274650000Y-83040000D02*
X274650000Y-91804700D01*
X274650000Y-91804700D02*
X280620000Y-97774700D01*
%TO.N,Net-(D15-Pad2)*%
X302120000Y-99000000D02*
X302120000Y-97774700D01*
X294690000Y-83040000D02*
X294690000Y-90344700D01*
X294690000Y-90344700D02*
X302120000Y-97774700D01*
%TO.N,Net-(D16-Pad2)*%
X321120000Y-99000000D02*
X321120000Y-97774700D01*
X314690000Y-82960000D02*
X314690000Y-91344700D01*
X314690000Y-91344700D02*
X321120000Y-97774700D01*
%TO.N,Net-(D17-Pad2)*%
X341120000Y-99000000D02*
X341120000Y-97774700D01*
X333150000Y-83040000D02*
X333150000Y-89804700D01*
X333150000Y-89804700D02*
X341120000Y-97774700D01*
%TO.N,Net-(D18-Pad2)*%
X360120000Y-99000000D02*
X360120000Y-97774700D01*
X353150000Y-83040000D02*
X353150000Y-90804700D01*
X353150000Y-90804700D02*
X360120000Y-97774700D01*
%TO.N,COL4*%
X159000000Y-197500000D02*
X160225300Y-197500000D01*
X414660000Y-140425000D02*
X376300500Y-178784500D01*
X376300500Y-178784500D02*
X376300500Y-191847100D01*
X376300500Y-191847100D02*
X368580200Y-199567400D01*
X368580200Y-199567400D02*
X358492600Y-199567400D01*
X358492600Y-199567400D02*
X356108900Y-201951100D01*
X356108900Y-201951100D02*
X354165300Y-201951100D01*
X354165300Y-201951100D02*
X353996700Y-201782500D01*
X353996700Y-201782500D02*
X352436700Y-201782500D01*
X352436700Y-201782500D02*
X346493800Y-207725400D01*
X346493800Y-207725400D02*
X182894600Y-207725400D01*
X182894600Y-207725400D02*
X175917400Y-200748200D01*
X175917400Y-200748200D02*
X174135600Y-200748200D01*
X174135600Y-200748200D02*
X170887400Y-197500000D01*
X170887400Y-197500000D02*
X160225300Y-197500000D01*
X118000000Y-169500000D02*
X118000000Y-170725300D01*
X118000000Y-191500000D02*
X118000000Y-190274700D01*
X118000000Y-190274700D02*
X115704700Y-187979400D01*
X115704700Y-187979400D02*
X115704700Y-173020600D01*
X115704700Y-173020600D02*
X118000000Y-170725300D01*
X104380000Y-122500000D02*
X105605300Y-122500000D01*
X111148700Y-123735100D02*
X112505900Y-123735100D01*
X112505900Y-123735100D02*
X121380000Y-114861000D01*
X121380000Y-114861000D02*
X121380000Y-97500000D01*
X105605300Y-122500000D02*
X106840400Y-123735100D01*
X106840400Y-123735100D02*
X111148700Y-123735100D01*
X113500000Y-145274700D02*
X111148700Y-142923400D01*
X111148700Y-142923400D02*
X111148700Y-123735100D01*
X113500000Y-146500000D02*
X113500000Y-145274700D01*
X113500000Y-146500000D02*
X113500000Y-163774700D01*
X113500000Y-163774700D02*
X118000000Y-168274700D01*
X118000000Y-169500000D02*
X118000000Y-168274700D01*
%TO.N,Net-(D19-Pad2)*%
X380120000Y-99000000D02*
X380120000Y-97774700D01*
X373150000Y-83040000D02*
X373150000Y-90804700D01*
X373150000Y-90804700D02*
X380120000Y-97774700D01*
%TO.N,Net-(D20-Pad2)*%
X51620000Y-122500000D02*
X51620000Y-121274700D01*
X44150000Y-108040000D02*
X44150000Y-113804700D01*
X44150000Y-113804700D02*
X51620000Y-121274700D01*
%TO.N,Net-(D21-Pad2)*%
X71620000Y-122500000D02*
X71620000Y-121274700D01*
X64150000Y-108040000D02*
X64150000Y-113804700D01*
X64150000Y-113804700D02*
X71620000Y-121274700D01*
%TO.N,Net-(D22-Pad2)*%
X91620000Y-122500000D02*
X91620000Y-121274700D01*
X84150000Y-108040000D02*
X84150000Y-113804700D01*
X84150000Y-113804700D02*
X91620000Y-121274700D01*
%TO.N,Net-(D23-Pad2)*%
X112000000Y-122500000D02*
X112000000Y-121274700D01*
X104150000Y-108040000D02*
X104150000Y-113424700D01*
X104150000Y-113424700D02*
X112000000Y-121274700D01*
%TO.N,Net-(D24-Pad2)*%
X132000000Y-122500000D02*
X132000000Y-121274700D01*
X124150000Y-108040000D02*
X124150000Y-113424700D01*
X124150000Y-113424700D02*
X132000000Y-121274700D01*
%TO.N,COL5*%
X237774700Y-206500000D02*
X230422200Y-199147500D01*
X230422200Y-199147500D02*
X173171800Y-199147500D01*
X173171800Y-199147500D02*
X166749600Y-192725300D01*
X166749600Y-192725300D02*
X141450600Y-192725300D01*
X141450600Y-192725300D02*
X140225300Y-191500000D01*
X239000000Y-206500000D02*
X240225300Y-206500000D01*
X414660000Y-137655000D02*
X345109900Y-207205100D01*
X345109900Y-207205100D02*
X240930400Y-207205100D01*
X240930400Y-207205100D02*
X240225300Y-206500000D01*
X139000000Y-191500000D02*
X140225300Y-191500000D01*
X239000000Y-206500000D02*
X237774700Y-206500000D01*
X138000000Y-169500000D02*
X138000000Y-170725300D01*
X139000000Y-191500000D02*
X139000000Y-190274700D01*
X139000000Y-190274700D02*
X139621500Y-189653200D01*
X139621500Y-189653200D02*
X139621500Y-172346800D01*
X139621500Y-172346800D02*
X138000000Y-170725300D01*
X124380000Y-122500000D02*
X125605300Y-122500000D01*
X131200300Y-123741700D02*
X132558200Y-123741700D01*
X132558200Y-123741700D02*
X140380000Y-115919900D01*
X140380000Y-115919900D02*
X140380000Y-97500000D01*
X125605300Y-122500000D02*
X126847000Y-123741700D01*
X126847000Y-123741700D02*
X131200300Y-123741700D01*
X133380000Y-145274700D02*
X131200300Y-143095000D01*
X131200300Y-143095000D02*
X131200300Y-123741700D01*
X133380000Y-146500000D02*
X133380000Y-145274700D01*
X133380000Y-146500000D02*
X133380000Y-163654700D01*
X133380000Y-163654700D02*
X138000000Y-168274700D01*
X138000000Y-169500000D02*
X138000000Y-168274700D01*
%TO.N,Net-(D25-Pad2)*%
X152000000Y-122500000D02*
X152000000Y-121274700D01*
X144150000Y-108040000D02*
X144150000Y-113424700D01*
X144150000Y-113424700D02*
X152000000Y-121274700D01*
%TO.N,Net-(D26-Pad2)*%
X172000000Y-122500000D02*
X172000000Y-121274700D01*
X164150000Y-108040000D02*
X164150000Y-113424700D01*
X164150000Y-113424700D02*
X172000000Y-121274700D01*
%TO.N,Net-(D28-Pad2)*%
X212000000Y-122500000D02*
X212000000Y-121274700D01*
X204150000Y-108040000D02*
X204150000Y-113424700D01*
X204150000Y-113424700D02*
X212000000Y-121274700D01*
%TO.N,Net-(D29-Pad2)*%
X231000000Y-122500000D02*
X231000000Y-121274700D01*
X224150000Y-108040000D02*
X224150000Y-114424700D01*
X224150000Y-114424700D02*
X231000000Y-121274700D01*
%TO.N,COL6*%
X414660000Y-134885000D02*
X342819700Y-206725300D01*
X342819700Y-206725300D02*
X264450600Y-206725300D01*
X264450600Y-206725300D02*
X263225300Y-205500000D01*
X262000000Y-205500000D02*
X263225300Y-205500000D01*
X158000000Y-169500000D02*
X158000000Y-170725300D01*
X158000000Y-191500000D02*
X158000000Y-190274700D01*
X158000000Y-190274700D02*
X155739200Y-188013900D01*
X155739200Y-188013900D02*
X155739200Y-172986100D01*
X155739200Y-172986100D02*
X158000000Y-170725300D01*
X144380000Y-122500000D02*
X145605300Y-122500000D01*
X151181700Y-123762500D02*
X152505700Y-123762500D01*
X152505700Y-123762500D02*
X154712000Y-121556200D01*
X154712000Y-121556200D02*
X154712000Y-113013300D01*
X154712000Y-113013300D02*
X168000000Y-99725300D01*
X145605300Y-122500000D02*
X146867800Y-123762500D01*
X146867800Y-123762500D02*
X151181700Y-123762500D01*
X153000000Y-145274700D02*
X151181700Y-143456400D01*
X151181700Y-143456400D02*
X151181700Y-123762500D01*
X168000000Y-98500000D02*
X168000000Y-99725300D01*
X153000000Y-146500000D02*
X153000000Y-145274700D01*
X158000000Y-168274700D02*
X153000000Y-163274700D01*
X153000000Y-163274700D02*
X153000000Y-146500000D01*
X158000000Y-169500000D02*
X158000000Y-168274700D01*
%TO.N,Net-(D31-Pad2)*%
X271000000Y-122500000D02*
X271000000Y-121274700D01*
X264150000Y-108040000D02*
X264150000Y-114424700D01*
X264150000Y-114424700D02*
X271000000Y-121274700D01*
%TO.N,Net-(D32-Pad2)*%
X309000000Y-121500000D02*
X309000000Y-120274700D01*
X301650000Y-108040000D02*
X301650000Y-112924700D01*
X301650000Y-112924700D02*
X309000000Y-120274700D01*
%TO.N,Net-(D33-Pad2)*%
X343000000Y-122500000D02*
X343000000Y-121274700D01*
X334650000Y-108040000D02*
X334650000Y-112924700D01*
X334650000Y-112924700D02*
X343000000Y-121274700D01*
%TO.N,Net-(D34-Pad2)*%
X362000000Y-122500000D02*
X362000000Y-121274700D01*
X354650000Y-108040000D02*
X354650000Y-113924700D01*
X354650000Y-113924700D02*
X362000000Y-121274700D01*
%TO.N,Net-(D35-Pad2)*%
X381620000Y-122500000D02*
X381620000Y-121274700D01*
X374650000Y-108040000D02*
X374650000Y-114304700D01*
X374650000Y-114304700D02*
X381620000Y-121274700D01*
%TO.N,Net-(D36-Pad2)*%
X58620000Y-146500000D02*
X58620000Y-145274700D01*
X50650000Y-132040000D02*
X50650000Y-137304700D01*
X50650000Y-137304700D02*
X58620000Y-145274700D01*
%TO.N,Net-(D37-Pad2)*%
X81620000Y-146500000D02*
X81620000Y-145274700D01*
X73650000Y-132040000D02*
X73650000Y-137304700D01*
X73650000Y-137304700D02*
X81620000Y-145274700D01*
%TO.N,Net-(D38-Pad2)*%
X101620000Y-146500000D02*
X101620000Y-145274700D01*
X93650000Y-132040000D02*
X93650000Y-137304700D01*
X93650000Y-137304700D02*
X101620000Y-145274700D01*
%TO.N,Net-(D39-Pad2)*%
X121120000Y-146500000D02*
X121120000Y-145274700D01*
X113650000Y-132040000D02*
X113650000Y-137804700D01*
X113650000Y-137804700D02*
X121120000Y-145274700D01*
%TO.N,COL7*%
X288225300Y-205500000D02*
X291942800Y-201782500D01*
X291942800Y-201782500D02*
X295496700Y-201782500D01*
X295496700Y-201782500D02*
X295665300Y-201951100D01*
X295665300Y-201951100D02*
X297608900Y-201951100D01*
X297608900Y-201951100D02*
X299992600Y-199567400D01*
X299992600Y-199567400D02*
X304386000Y-199567400D01*
X304386000Y-199567400D02*
X324673100Y-179280300D01*
X324673100Y-179280300D02*
X347763000Y-179280300D01*
X347763000Y-179280300D02*
X364460700Y-162582600D01*
X364460700Y-162582600D02*
X376057600Y-162582600D01*
X376057600Y-162582600D02*
X407718600Y-130921600D01*
X407718600Y-130921600D02*
X415131800Y-130921600D01*
X415131800Y-130921600D02*
X417500000Y-133289800D01*
X417500000Y-133289800D02*
X417500000Y-133500000D01*
X287000000Y-205500000D02*
X288225300Y-205500000D01*
X164380000Y-122500000D02*
X165605300Y-122500000D01*
X169060200Y-127180100D02*
X181088200Y-115152100D01*
X181088200Y-115152100D02*
X181088200Y-106137100D01*
X181088200Y-106137100D02*
X187500000Y-99725300D01*
X174000000Y-145274700D02*
X169060100Y-140334800D01*
X169060100Y-140334800D02*
X169060100Y-127180200D01*
X169060100Y-127180200D02*
X169060200Y-127180100D01*
X165605300Y-122500000D02*
X165605300Y-123725300D01*
X165605300Y-123725300D02*
X169060200Y-127180100D01*
X187500000Y-98500000D02*
X187500000Y-99725300D01*
X174000000Y-146500000D02*
X174000000Y-145274700D01*
X178000000Y-168274700D02*
X174000000Y-164274700D01*
X174000000Y-164274700D02*
X174000000Y-146500000D01*
X178000000Y-169500000D02*
X178000000Y-170725300D01*
X178000000Y-191500000D02*
X178000000Y-190274700D01*
X178000000Y-190274700D02*
X175739200Y-188013900D01*
X175739200Y-188013900D02*
X175739200Y-172986100D01*
X175739200Y-172986100D02*
X178000000Y-170725300D01*
X178000000Y-169500000D02*
X178000000Y-168274700D01*
%TO.N,Net-(D40-Pad2)*%
X141000000Y-146500000D02*
X141000000Y-145274700D01*
X133650000Y-132040000D02*
X133650000Y-137924700D01*
X133650000Y-137924700D02*
X141000000Y-145274700D01*
%TO.N,Net-(D41-Pad2)*%
X160620000Y-146500000D02*
X160620000Y-145274700D01*
X153650000Y-132040000D02*
X153650000Y-138304700D01*
X153650000Y-138304700D02*
X160620000Y-145274700D01*
%TO.N,Net-(D42-Pad2)*%
X181620000Y-146500000D02*
X181620000Y-145274700D01*
X173650000Y-132040000D02*
X173650000Y-137304700D01*
X173650000Y-137304700D02*
X181620000Y-145274700D01*
%TO.N,COL8*%
X335000000Y-191500000D02*
X336225300Y-191500000D01*
X414660000Y-132115000D02*
X382596000Y-164179000D01*
X382596000Y-164179000D02*
X363546300Y-164179000D01*
X363546300Y-164179000D02*
X336225300Y-191500000D01*
X198000000Y-169500000D02*
X198000000Y-170725300D01*
X198000000Y-191500000D02*
X198000000Y-190274700D01*
X198000000Y-190274700D02*
X195641200Y-187915900D01*
X195641200Y-187915900D02*
X195641200Y-173084100D01*
X195641200Y-173084100D02*
X198000000Y-170725300D01*
X183380000Y-122500000D02*
X183380000Y-121274700D01*
X207500000Y-99000000D02*
X206274700Y-99000000D01*
X206274700Y-99000000D02*
X206274700Y-99075700D01*
X206274700Y-99075700D02*
X184075700Y-121274700D01*
X184075700Y-121274700D02*
X183380000Y-121274700D01*
X183380000Y-122500000D02*
X183380000Y-123725300D01*
X194000000Y-146500000D02*
X194000000Y-145274700D01*
X194000000Y-145274700D02*
X184605300Y-135880000D01*
X184605300Y-135880000D02*
X184605300Y-124950600D01*
X184605300Y-124950600D02*
X183380000Y-123725300D01*
X198000000Y-168274700D02*
X194000000Y-164274700D01*
X194000000Y-164274700D02*
X194000000Y-146500000D01*
X198000000Y-169500000D02*
X198000000Y-168274700D01*
%TO.N,Net-(D43-Pad2)*%
X201620000Y-146500000D02*
X201620000Y-145274700D01*
X193650000Y-132040000D02*
X193650000Y-137304700D01*
X193650000Y-137304700D02*
X201620000Y-145274700D01*
%TO.N,Net-(D44-Pad2)*%
X220620000Y-146500000D02*
X220620000Y-145274700D01*
X213650000Y-132040000D02*
X213650000Y-138304700D01*
X213650000Y-138304700D02*
X220620000Y-145274700D01*
%TO.N,Net-(D45-Pad2)*%
X241620000Y-146500000D02*
X241620000Y-145274700D01*
X233650000Y-132040000D02*
X233650000Y-137304700D01*
X233650000Y-137304700D02*
X241620000Y-145274700D01*
%TO.N,Net-(D46-Pad2)*%
X261620000Y-146500000D02*
X261620000Y-145274700D01*
X253650000Y-132040000D02*
X253650000Y-137304700D01*
X253650000Y-137304700D02*
X261620000Y-145274700D01*
%TO.N,Net-(D47-Pad2)*%
X281620000Y-146500000D02*
X281620000Y-145274700D01*
X273650000Y-132040000D02*
X273650000Y-137304700D01*
X273650000Y-137304700D02*
X281620000Y-145274700D01*
%TO.N,Net-(D48-Pad2)*%
X298620000Y-146500000D02*
X299845300Y-146500000D01*
X309150000Y-140540000D02*
X305805300Y-140540000D01*
X305805300Y-140540000D02*
X299845300Y-146500000D01*
%TO.N,COL9*%
X355380000Y-191500000D02*
X356605300Y-191500000D01*
X417500000Y-130730000D02*
X418665600Y-131895600D01*
X418665600Y-131895600D02*
X418665600Y-133955500D01*
X418665600Y-133955500D02*
X417987400Y-134633700D01*
X417987400Y-134633700D02*
X416704600Y-134633700D01*
X416704600Y-134633700D02*
X415782300Y-133711400D01*
X415782300Y-133711400D02*
X414185200Y-133711400D01*
X414185200Y-133711400D02*
X356605300Y-191291300D01*
X356605300Y-191291300D02*
X356605300Y-191500000D01*
X218000000Y-169500000D02*
X218000000Y-170725300D01*
X218000000Y-191500000D02*
X218000000Y-190274700D01*
X218000000Y-190274700D02*
X215641200Y-187915900D01*
X215641200Y-187915900D02*
X215641200Y-173084100D01*
X215641200Y-173084100D02*
X218000000Y-170725300D01*
X204380000Y-122500000D02*
X205605300Y-122500000D01*
X211181700Y-123762500D02*
X212505700Y-123762500D01*
X212505700Y-123762500D02*
X214712000Y-121556200D01*
X214712000Y-121556200D02*
X214712000Y-112513300D01*
X214712000Y-112513300D02*
X227000000Y-100225300D01*
X205605300Y-122500000D02*
X206867800Y-123762500D01*
X206867800Y-123762500D02*
X211181700Y-123762500D01*
X213000000Y-145274700D02*
X211181700Y-143456400D01*
X211181700Y-143456400D02*
X211181700Y-123762500D01*
X227000000Y-99000000D02*
X227000000Y-100225300D01*
X213000000Y-146500000D02*
X213000000Y-145274700D01*
X218000000Y-168274700D02*
X213000000Y-163274700D01*
X213000000Y-163274700D02*
X213000000Y-146500000D01*
X218000000Y-169500000D02*
X218000000Y-168274700D01*
%TO.N,Net-(D49-Pad2)*%
X343620000Y-146500000D02*
X343620000Y-145274700D01*
X335650000Y-132040000D02*
X335650000Y-137304700D01*
X335650000Y-137304700D02*
X343620000Y-145274700D01*
%TO.N,Net-(D50-Pad2)*%
X362620000Y-146500000D02*
X362620000Y-145274700D01*
X355650000Y-132040000D02*
X355650000Y-138304700D01*
X355650000Y-138304700D02*
X362620000Y-145274700D01*
%TO.N,Net-(D51-Pad2)*%
X383620000Y-146500000D02*
X383620000Y-145274700D01*
X375650000Y-132040000D02*
X375650000Y-137304700D01*
X375650000Y-137304700D02*
X383620000Y-145274700D01*
%TO.N,Net-(D52-Pad2)*%
X58620000Y-169500000D02*
X58620000Y-168274700D01*
X50650000Y-155540000D02*
X50650000Y-160304700D01*
X50650000Y-160304700D02*
X58620000Y-168274700D01*
%TO.N,Net-(D53-Pad2)*%
X86620000Y-169500000D02*
X86620000Y-168274700D01*
X78150000Y-155540000D02*
X78150000Y-159804700D01*
X78150000Y-159804700D02*
X86620000Y-168274700D01*
%TO.N,Net-(D54-Pad2)*%
X105620000Y-169500000D02*
X105620000Y-168274700D01*
X98150000Y-155540000D02*
X98150000Y-160804700D01*
X98150000Y-160804700D02*
X105620000Y-168274700D01*
%TO.N,COL10*%
X414660000Y-129345000D02*
X417716900Y-129345000D01*
X417716900Y-129345000D02*
X419116000Y-130744100D01*
X419116000Y-130744100D02*
X419116000Y-134159400D01*
X419116000Y-134159400D02*
X418191300Y-135084100D01*
X418191300Y-135084100D02*
X417091700Y-135084100D01*
X417091700Y-135084100D02*
X415830400Y-136345400D01*
X415830400Y-136345400D02*
X415830400Y-138126600D01*
X415830400Y-138126600D02*
X414917000Y-139040000D01*
X414917000Y-139040000D02*
X414437200Y-139040000D01*
X414437200Y-139040000D02*
X374380000Y-179097200D01*
X374380000Y-179097200D02*
X374380000Y-191500000D01*
X230229200Y-125022200D02*
X248425400Y-106826000D01*
X248425400Y-106826000D02*
X248425400Y-105299900D01*
X248425400Y-105299900D02*
X253500000Y-100225300D01*
X223380000Y-123725300D02*
X224676900Y-125022200D01*
X224676900Y-125022200D02*
X230229200Y-125022200D01*
X230229200Y-125022200D02*
X230229200Y-141503900D01*
X230229200Y-141503900D02*
X234000000Y-145274700D01*
X253500000Y-99000000D02*
X253500000Y-100225300D01*
X223380000Y-122500000D02*
X223380000Y-123725300D01*
X234000000Y-146500000D02*
X234000000Y-145274700D01*
X238000000Y-168274700D02*
X234000000Y-164274700D01*
X234000000Y-164274700D02*
X234000000Y-146500000D01*
X238000000Y-169500000D02*
X238000000Y-168274700D01*
X238000000Y-169500000D02*
X238000000Y-170725300D01*
X238000000Y-191500000D02*
X238000000Y-190274700D01*
X238000000Y-190274700D02*
X235672300Y-187947000D01*
X235672300Y-187947000D02*
X235672300Y-173053000D01*
X235672300Y-173053000D02*
X238000000Y-170725300D01*
%TO.N,Net-(D55-Pad2)*%
X125620000Y-169500000D02*
X125620000Y-168274700D01*
X118150000Y-155540000D02*
X118150000Y-160804700D01*
X118150000Y-160804700D02*
X125620000Y-168274700D01*
%TO.N,Net-(D56-Pad2)*%
X145620000Y-169500000D02*
X145620000Y-168274700D01*
X138150000Y-155540000D02*
X138150000Y-160804700D01*
X138150000Y-160804700D02*
X145620000Y-168274700D01*
%TO.N,Net-(D57-Pad2)*%
X165620000Y-169500000D02*
X165620000Y-168274700D01*
X158150000Y-155540000D02*
X158150000Y-160804700D01*
X158150000Y-160804700D02*
X165620000Y-168274700D01*
%TO.N,Net-(D58-Pad2)*%
X185620000Y-169500000D02*
X185620000Y-168274700D01*
X178150000Y-155540000D02*
X178150000Y-160804700D01*
X178150000Y-160804700D02*
X185620000Y-168274700D01*
%TO.N,Net-(D59-Pad2)*%
X205620000Y-169500000D02*
X205620000Y-168274700D01*
X198150000Y-155540000D02*
X198150000Y-160804700D01*
X198150000Y-160804700D02*
X205620000Y-168274700D01*
%TO.N,Net-(D60-Pad2)*%
X225620000Y-169500000D02*
X225620000Y-168274700D01*
X218150000Y-155540000D02*
X218150000Y-160804700D01*
X218150000Y-160804700D02*
X225620000Y-168274700D01*
%TO.N,Net-(D61-Pad2)*%
X245620000Y-169500000D02*
X245620000Y-168274700D01*
X245620000Y-168274700D02*
X238150000Y-160804700D01*
X238150000Y-160804700D02*
X238150000Y-155540000D01*
%TO.N,COL11*%
X254000000Y-146500000D02*
X254000000Y-145274700D01*
X254000000Y-145274700D02*
X245605300Y-136880000D01*
X245605300Y-136880000D02*
X245605300Y-122500000D01*
X258000000Y-168274700D02*
X254000000Y-164274700D01*
X254000000Y-164274700D02*
X254000000Y-146500000D01*
X244380000Y-122500000D02*
X245605300Y-122500000D01*
X273000000Y-99000000D02*
X269105300Y-99000000D01*
X269105300Y-99000000D02*
X245605300Y-122500000D01*
X258000000Y-169500000D02*
X258000000Y-168274700D01*
X258000000Y-170112600D02*
X258000000Y-169500000D01*
X258000000Y-170112600D02*
X258000000Y-170725300D01*
X258000000Y-191500000D02*
X258000000Y-190274700D01*
X258000000Y-170725300D02*
X255676000Y-173049300D01*
X255676000Y-173049300D02*
X255676000Y-187950700D01*
X255676000Y-187950700D02*
X258000000Y-190274700D01*
%TO.N,Net-(D62-Pad2)*%
X265620000Y-169500000D02*
X265620000Y-168274700D01*
X265620000Y-168274700D02*
X258150000Y-160804700D01*
X258150000Y-160804700D02*
X258150000Y-155540000D01*
%TO.N,Net-(D63-Pad2)*%
X285620000Y-169500000D02*
X285620000Y-168274700D01*
X285620000Y-168274700D02*
X278150000Y-160804700D01*
X278150000Y-160804700D02*
X278150000Y-155540000D01*
%TO.N,Net-(D64-Pad2)*%
X56620000Y-191500000D02*
X56620000Y-190274700D01*
X56620000Y-190274700D02*
X50190000Y-183844700D01*
X50190000Y-183844700D02*
X50190000Y-177960000D01*
%TO.N,Net-(D65-Pad2)*%
X85620000Y-191500000D02*
X85620000Y-190274700D01*
X78190000Y-177960000D02*
X78190000Y-182844700D01*
X78190000Y-182844700D02*
X85620000Y-190274700D01*
%TO.N,Net-(D66-Pad2)*%
X105620000Y-191500000D02*
X105620000Y-190274700D01*
X98190000Y-177960000D02*
X98190000Y-182844700D01*
X98190000Y-182844700D02*
X105620000Y-190274700D01*
%TO.N,COL12*%
X274000000Y-146500000D02*
X274000000Y-145274700D01*
X274000000Y-145274700D02*
X271167500Y-142442200D01*
X271167500Y-142442200D02*
X271167500Y-123725300D01*
X271167500Y-123725300D02*
X265830600Y-123725300D01*
X265830600Y-123725300D02*
X264605300Y-122500000D01*
X294500000Y-99000000D02*
X294500000Y-100764600D01*
X294500000Y-100764600D02*
X271539300Y-123725300D01*
X271539300Y-123725300D02*
X271167500Y-123725300D01*
X278000000Y-168274700D02*
X274000000Y-164274700D01*
X274000000Y-164274700D02*
X274000000Y-146500000D01*
X263380000Y-122500000D02*
X264605300Y-122500000D01*
X296000000Y-191500000D02*
X296000000Y-190274700D01*
X296000000Y-190274700D02*
X278000000Y-172274700D01*
X278000000Y-172274700D02*
X278000000Y-169500000D01*
X278000000Y-169500000D02*
X278000000Y-168274700D01*
%TO.N,Net-(D67-Pad2)*%
X125620000Y-191500000D02*
X125620000Y-190274700D01*
X118190000Y-177960000D02*
X118190000Y-182844700D01*
X118190000Y-182844700D02*
X125620000Y-190274700D01*
%TO.N,Net-(D69-Pad2)*%
X165620000Y-191500000D02*
X165620000Y-190274700D01*
X158190000Y-177960000D02*
X158190000Y-182844700D01*
X158190000Y-182844700D02*
X165620000Y-190274700D01*
%TO.N,Net-(D70-Pad2)*%
X185620000Y-191500000D02*
X185620000Y-190274700D01*
X178190000Y-177960000D02*
X178190000Y-182844700D01*
X178190000Y-182844700D02*
X185620000Y-190274700D01*
%TO.N,Net-(D71-Pad2)*%
X205620000Y-191500000D02*
X205620000Y-190274700D01*
X198150000Y-178040000D02*
X198150000Y-182804700D01*
X198150000Y-182804700D02*
X205620000Y-190274700D01*
%TO.N,Net-(D72-Pad2)*%
X225620000Y-191500000D02*
X225620000Y-190274700D01*
X218150000Y-178040000D02*
X218150000Y-182804700D01*
X218150000Y-182804700D02*
X225620000Y-190274700D01*
%TO.N,COL13*%
X301380000Y-122749800D02*
X301380000Y-121500000D01*
X301380000Y-136732700D02*
X301380000Y-122749800D01*
X301380000Y-122749800D02*
X309512600Y-122749800D01*
X309512600Y-122749800D02*
X313500000Y-118762400D01*
X313500000Y-118762400D02*
X313500000Y-99000000D01*
X346612700Y-173404800D02*
X309940600Y-136732700D01*
X309940600Y-136732700D02*
X301380000Y-136732700D01*
X346612700Y-176880000D02*
X346612700Y-173404800D01*
X417500000Y-125190000D02*
X407324000Y-125190000D01*
X407324000Y-125190000D02*
X378874000Y-153640000D01*
X378874000Y-153640000D02*
X366377500Y-153640000D01*
X366377500Y-153640000D02*
X346612700Y-173404800D01*
X291612700Y-146500000D02*
X301380000Y-136732700D01*
X346000000Y-176880000D02*
X346612700Y-176880000D01*
X291000000Y-146500000D02*
X291612700Y-146500000D01*
%TO.N,Net-(D73-Pad2)*%
X245620000Y-191500000D02*
X245620000Y-190274700D01*
X238150000Y-178040000D02*
X238150000Y-182804700D01*
X238150000Y-182804700D02*
X245620000Y-190274700D01*
%TO.N,Net-(D74-Pad2)*%
X265620000Y-191500000D02*
X265620000Y-190274700D01*
X258150000Y-178040000D02*
X258150000Y-182804700D01*
X258150000Y-182804700D02*
X265620000Y-190274700D01*
%TO.N,Net-(D75-Pad2)*%
X303620000Y-191500000D02*
X303620000Y-190274700D01*
X296150000Y-178040000D02*
X296150000Y-182804700D01*
X296150000Y-182804700D02*
X303620000Y-190274700D01*
%TO.N,Net-(D76-Pad2)*%
X346000000Y-184500000D02*
X347225300Y-184500000D01*
X354690000Y-177960000D02*
X353765300Y-177960000D01*
X353765300Y-177960000D02*
X347225300Y-184500000D01*
%TO.N,Net-(D77-Pad2)*%
X43000000Y-207500000D02*
X44225300Y-207500000D01*
X50690000Y-200960000D02*
X50258800Y-200960000D01*
X50258800Y-200960000D02*
X44225300Y-206993500D01*
X44225300Y-206993500D02*
X44225300Y-207500000D01*
%TO.N,Net-(D78-Pad2)*%
X71620000Y-191500000D02*
X71620000Y-200030000D01*
X71620000Y-200030000D02*
X70690000Y-200960000D01*
%TO.N,COL14*%
X335380000Y-122500000D02*
X335380000Y-123725300D01*
X336000000Y-146500000D02*
X336000000Y-145274700D01*
X336000000Y-145274700D02*
X333196700Y-142471400D01*
X333196700Y-142471400D02*
X333196700Y-125908600D01*
X333196700Y-125908600D02*
X335380000Y-123725300D01*
X333500000Y-99000000D02*
X333500000Y-100225300D01*
X335380000Y-122500000D02*
X335380000Y-121274700D01*
X335380000Y-121274700D02*
X332194300Y-118089000D01*
X332194300Y-118089000D02*
X332194300Y-101531000D01*
X332194300Y-101531000D02*
X333500000Y-100225300D01*
%TO.N,Net-(D79-Pad2)*%
X106000000Y-208120000D02*
X104774700Y-208120000D01*
X104774700Y-208120000D02*
X104774700Y-207124400D01*
X104774700Y-207124400D02*
X98690300Y-201040000D01*
X98690300Y-201040000D02*
X90650000Y-201040000D01*
%TO.N,Net-(D80-Pad2)*%
X159000000Y-205120000D02*
X160225300Y-205120000D01*
X160225300Y-205120000D02*
X165305300Y-200040000D01*
X165305300Y-200040000D02*
X167190000Y-200040000D01*
%TO.N,Net-(D82-Pad2)*%
X262000000Y-197880000D02*
X263225300Y-197880000D01*
X270690000Y-200040000D02*
X265385300Y-200040000D01*
X265385300Y-200040000D02*
X263225300Y-197880000D01*
%TO.N,Net-(D83-Pad2)*%
X287000000Y-197880000D02*
X288225300Y-197880000D01*
X296190000Y-200460000D02*
X290805300Y-200460000D01*
X290805300Y-200460000D02*
X288225300Y-197880000D01*
%TO.N,Net-(D84-Pad2)*%
X342620000Y-191500000D02*
X342620000Y-192725300D01*
X334690000Y-200540000D02*
X342504700Y-192725300D01*
X342504700Y-192725300D02*
X342620000Y-192725300D01*
%TO.N,Net-(D85-Pad2)*%
X363000000Y-191500000D02*
X363000000Y-192725300D01*
X354690000Y-200460000D02*
X362424700Y-192725300D01*
X362424700Y-192725300D02*
X363000000Y-192725300D01*
%TO.N,COL15*%
X352500000Y-99000000D02*
X352500000Y-100225300D01*
X354380000Y-123112600D02*
X352184400Y-120917000D01*
X352184400Y-120917000D02*
X352184400Y-100540900D01*
X352184400Y-100540900D02*
X352500000Y-100225300D01*
X354380000Y-123112600D02*
X354380000Y-123725300D01*
X354380000Y-122500000D02*
X354380000Y-123112600D01*
X355000000Y-146500000D02*
X355000000Y-145274700D01*
X354380000Y-123725300D02*
X353182400Y-124922900D01*
X353182400Y-124922900D02*
X353182400Y-143457100D01*
X353182400Y-143457100D02*
X355000000Y-145274700D01*
%TO.N,Net-(D86-Pad2)*%
X382000000Y-191500000D02*
X382000000Y-192725300D01*
X374690000Y-200460000D02*
X374690000Y-200035300D01*
X374690000Y-200035300D02*
X382000000Y-192725300D01*
%TO.N,COL16*%
X374000000Y-122500000D02*
X374000000Y-123725300D01*
X376000000Y-146500000D02*
X376000000Y-145274700D01*
X376000000Y-145274700D02*
X373158000Y-142432700D01*
X373158000Y-142432700D02*
X373158000Y-124567300D01*
X373158000Y-124567300D02*
X374000000Y-123725300D01*
X372500000Y-99000000D02*
X372500000Y-100225300D01*
X374000000Y-122500000D02*
X374000000Y-121274700D01*
X374000000Y-121274700D02*
X372184400Y-119459100D01*
X372184400Y-119459100D02*
X372184400Y-100540900D01*
X372184400Y-100540900D02*
X372500000Y-100225300D01*
%TO.N,ROW6*%
X381040000Y-197920000D02*
X388018400Y-190941600D01*
X388018400Y-190941600D02*
X388018400Y-168228800D01*
X388018400Y-168228800D02*
X414437200Y-141810000D01*
X414437200Y-141810000D02*
X414917000Y-141810000D01*
X414917000Y-141810000D02*
X416280800Y-140446200D01*
X416280800Y-140446200D02*
X416280800Y-137489200D01*
X416280800Y-137489200D02*
X417500000Y-136270000D01*
X253540000Y-197500000D02*
X173540000Y-197500000D01*
%TO.N,ROW1*%
X417500000Y-150120000D02*
X417500000Y-148994700D01*
X417500000Y-148994700D02*
X420025800Y-146468900D01*
X420025800Y-146468900D02*
X420025800Y-120584300D01*
X420025800Y-120584300D02*
X417706500Y-118265000D01*
X417706500Y-118265000D02*
X417265000Y-118265000D01*
X417265000Y-118265000D02*
X379500000Y-80500000D01*
%TO.N,ROW2*%
X417500000Y-147350000D02*
X419566300Y-145283700D01*
X419566300Y-145283700D02*
X419566300Y-125657100D01*
X419566300Y-125657100D02*
X417873500Y-123964300D01*
X417873500Y-123964300D02*
X417115200Y-123964300D01*
X417115200Y-123964300D02*
X415570900Y-122420000D01*
X415570900Y-122420000D02*
X397920000Y-122420000D01*
X397920000Y-122420000D02*
X381000000Y-105500000D01*
X308000000Y-105500000D02*
X304399100Y-105500000D01*
X304399100Y-105500000D02*
X296666200Y-97767100D01*
X296666200Y-97767100D02*
X287722900Y-97767100D01*
X287722900Y-97767100D02*
X279990000Y-105500000D01*
X279990000Y-105500000D02*
X270500000Y-105500000D01*
%TO.N,Net-(D1-Pad2)*%
X417500000Y-119650000D02*
X398990300Y-119650000D01*
X398990300Y-119650000D02*
X362594900Y-83254600D01*
X362594900Y-83254600D02*
X358299900Y-83254600D01*
X358299900Y-83254600D02*
X344545300Y-69500000D01*
X342620000Y-69500000D02*
X344545300Y-69500000D01*
%TO.N,Net-(D2-Pad2)*%
X414660000Y-118265000D02*
X413060600Y-118265000D01*
X413060600Y-118265000D02*
X364295600Y-69500000D01*
X364295600Y-69500000D02*
X361620000Y-69500000D01*
%TO.N,Net-(D3-Pad2)*%
X417500000Y-116880000D02*
X382620000Y-82000000D01*
X382620000Y-82000000D02*
X382620000Y-69500000D01*
%TD*%
M02*
