M48
; DRILL file {KiCad 5.1.6-c6e7f7d~87~ubuntu20.04.1} date Fri Jul 24 00:41:23 2020
; FORMAT={-:-/ absolute / metric / decimal}
; #@! TF.CreationDate,2020-07-24T00:41:23+02:00
; #@! TF.GenerationSoftware,Kicad,Pcbnew,5.1.6-c6e7f7d~87~ubuntu20.04.1
; #@! TF.FileFunction,NonPlated,1,2,NPTH
FMAT,2
METRIC
T1C1.700
T2C3.050
T3C4.000
%
G90
G05
T1
X152.38Y-134.58
X162.54Y-134.58
X69.42Y-203.5
X79.58Y-203.5
X92.38Y-134.58
X102.54Y-134.58
X294.88Y-180.58
X305.04Y-180.58
X80.92Y-85.58
X91.08Y-85.58
X276.88Y-158.08
X287.04Y-158.08
X43.88Y-85.58
X54.04Y-85.58
X100.88Y-85.58
X111.04Y-85.58
X373.38Y-110.58
X383.54Y-110.58
X216.88Y-180.58
X227.04Y-180.58
X48.92Y-180.5
X59.08Y-180.5
X300.38Y-110.58
X310.54Y-110.58
X42.88Y-110.58
X53.04Y-110.58
X222.88Y-110.58
X233.04Y-110.58
X331.88Y-85.58
X342.04Y-85.58
X96.88Y-158.08
X107.04Y-158.08
X142.88Y-110.58
X153.04Y-110.58
X162.88Y-110.58
X173.04Y-110.58
X273.38Y-85.58
X283.54Y-85.58
X252.38Y-134.58
X262.54Y-134.58
X192.38Y-134.58
X202.54Y-134.58
X165.92Y-202.58
X176.08Y-202.58
X294.92Y-203.0
X305.08Y-203.0
X120.88Y-85.58
X131.04Y-85.58
X49.42Y-203.5
X59.58Y-203.5
X116.92Y-180.5
X127.08Y-180.5
X167.42Y-85.58
X177.58Y-85.58
X374.38Y-134.58
X384.54Y-134.58
X102.88Y-110.58
X113.04Y-110.58
X156.92Y-180.5
X167.08Y-180.5
X140.92Y-85.5
X151.08Y-85.5
X196.88Y-158.08
X207.04Y-158.08
X136.88Y-158.08
X147.04Y-158.08
X72.38Y-134.58
X82.54Y-134.58
X256.88Y-180.58
X267.04Y-180.58
X82.88Y-110.58
X93.04Y-110.58
X256.88Y-158.08
X267.04Y-158.08
X132.38Y-134.58
X142.54Y-134.58
X353.38Y-110.58
X363.54Y-110.58
X196.88Y-180.58
X207.04Y-180.58
X262.88Y-110.58
X273.04Y-110.58
X371.88Y-85.58
X382.04Y-85.58
X202.88Y-110.58
X213.04Y-110.58
X313.42Y-85.5
X323.58Y-85.5
X334.38Y-134.58
X344.54Y-134.58
X253.38Y-85.58
X263.54Y-85.58
X269.42Y-202.58
X279.58Y-202.58
X76.88Y-158.08
X87.04Y-158.08
X226.88Y-85.58
X237.04Y-85.58
X136.92Y-180.5
X147.08Y-180.5
X232.38Y-134.58
X242.54Y-134.58
X172.38Y-134.58
X182.54Y-134.58
X89.38Y-203.58
X99.54Y-203.58
X353.42Y-203.0
X363.58Y-203.0
X76.92Y-180.5
X87.08Y-180.5
X112.38Y-134.58
X122.54Y-134.58
X353.42Y-180.5
X363.58Y-180.5
X373.42Y-203.0
X383.58Y-203.0
X96.92Y-180.5
X107.08Y-180.5
X176.88Y-158.08
X187.04Y-158.08
X116.88Y-158.08
X127.04Y-158.08
X49.38Y-134.58
X59.54Y-134.58
X236.88Y-180.58
X247.04Y-180.58
X307.88Y-143.08
X318.04Y-143.08
X333.38Y-110.58
X343.54Y-110.58
X62.88Y-110.58
X73.04Y-110.58
X242.88Y-110.58
X253.04Y-110.58
X354.38Y-134.58
X364.54Y-134.58
X207.38Y-85.58
X217.54Y-85.58
X236.88Y-158.08
X247.04Y-158.08
X176.92Y-180.5
X187.08Y-180.5
X351.88Y-85.58
X362.04Y-85.58
X182.88Y-110.58
X193.04Y-110.58
X293.42Y-85.58
X303.58Y-85.58
X272.38Y-134.58
X282.54Y-134.58
X333.42Y-203.08
X343.58Y-203.08
X245.92Y-202.58
X256.08Y-202.58
X49.38Y-158.08
X59.54Y-158.08
X122.88Y-110.58
X133.04Y-110.58
X216.88Y-158.08
X227.04Y-158.08
X187.38Y-85.58
X197.54Y-85.58
X156.88Y-158.08
X167.04Y-158.08
X212.38Y-134.58
X222.54Y-134.58
T2
X305.96Y-131.18
X305.96Y-154.98
T3
X107.96Y-110.58
X162.0Y-180.5
X146.0Y-85.5
X201.96Y-158.08
X141.96Y-158.08
X77.46Y-134.58
X261.96Y-180.58
X87.96Y-110.58
X261.96Y-158.08
X137.46Y-134.58
X358.46Y-110.58
X201.96Y-180.58
X267.96Y-110.58
X376.96Y-85.58
X207.96Y-110.58
X318.5Y-85.5
X339.46Y-134.58
X258.46Y-85.58
X274.5Y-202.58
X81.96Y-158.08
X231.96Y-85.58
X142.0Y-180.5
X237.46Y-134.58
X177.46Y-134.58
X94.46Y-203.58
X358.5Y-203.0
X82.0Y-180.5
X117.46Y-134.58
X358.5Y-180.5
X378.5Y-203.0
X102.0Y-180.5
X181.96Y-158.08
X121.96Y-158.08
X54.46Y-134.58
X241.96Y-180.58
X312.96Y-143.08
X321.2Y-131.18
X321.2Y-154.98
X338.46Y-110.58
X67.96Y-110.58
X247.96Y-110.58
X359.46Y-134.58
X212.46Y-85.58
X241.96Y-158.08
X182.0Y-180.5
X356.96Y-85.58
X187.96Y-110.58
X298.5Y-85.58
X277.46Y-134.58
X338.5Y-203.08
X251.0Y-202.58
X54.46Y-158.08
X127.96Y-110.58
X221.96Y-158.08
X192.46Y-85.58
X161.96Y-158.08
X217.46Y-134.58
X157.46Y-134.58
X74.5Y-203.5
X97.46Y-134.58
X299.96Y-180.58
X86.0Y-85.58
X281.96Y-158.08
X48.96Y-85.58
X105.96Y-85.58
X378.46Y-110.58
X221.96Y-180.58
X54.0Y-180.5
X305.46Y-110.58
X47.96Y-110.58
X227.96Y-110.58
X336.96Y-85.58
X101.96Y-158.08
X147.96Y-110.58
X167.96Y-110.58
X278.46Y-85.58
X257.46Y-134.58
X197.46Y-134.58
X171.0Y-202.58
X300.0Y-203.0
X125.96Y-85.58
X54.5Y-203.5
X122.0Y-180.5
X172.5Y-85.58
X379.46Y-134.58
T0
M30
