%FSLAX45Y45*%
G04 Gerber Fmt 4.5, Leading zero omitted, Abs format (unit mm)*
G04 Created by KiCad (PCBNEW 5.1.6-c6e7f7d~87~ubuntu20.04.1) date 2020-07-30 11:04:41*
%MOMM*%
%LPD*%
G01*
G04 APERTURE LIST*
%TA.AperFunction,Profile*%
%ADD10C,0.050000*%
%TD*%
%ADD11C,0.200000*%
%ADD12C,0.300000*%
G04 APERTURE END LIST*
D10*
X40200000Y-21500000D02*
X40200000Y-6100000D01*
X2500000Y-22350000D02*
X2500000Y-21500000D01*
X40200000Y-21500000D02*
X40200000Y-22350000D01*
X2500000Y-22350000D02*
X40200000Y-22350000D01*
X40200000Y-6100000D02*
X2500000Y-6100000D01*
X2500000Y-6100000D02*
X2500000Y-21500000D01*
D11*
X19180000Y-19530000D02*
X19220000Y-19570000D01*
X19220000Y-19530000D02*
X19180000Y-19570000D01*
X19530000Y-19930000D02*
X19570000Y-19970000D01*
X19570000Y-19930000D02*
X19530000Y-19970000D01*
X21380000Y-21080000D02*
X21420000Y-21120000D01*
X21420000Y-21080000D02*
X21380000Y-21120000D01*
X23280000Y-19130000D02*
X23320000Y-19170000D01*
X23320000Y-19130000D02*
X23280000Y-19170000D01*
X24280000Y-21080000D02*
X24320000Y-21120000D01*
X24320000Y-21080000D02*
X24280000Y-21120000D01*
X25130000Y-21130000D02*
X25170000Y-21170000D01*
X25170000Y-21130000D02*
X25130000Y-21170000D01*
X26230000Y-19130000D02*
X26270000Y-19170000D01*
X26270000Y-19130000D02*
X26230000Y-19170000D01*
X26330000Y-21130000D02*
X26370000Y-21170000D01*
X26370000Y-21130000D02*
X26330000Y-21170000D01*
X26630000Y-14680000D02*
X26670000Y-14720000D01*
X26670000Y-14680000D02*
X26630000Y-14720000D01*
X26630000Y-21530000D02*
X26670000Y-21570000D01*
X26670000Y-21530000D02*
X26630000Y-21570000D01*
X28430000Y-19130000D02*
X28470000Y-19170000D01*
X28470000Y-19130000D02*
X28430000Y-19170000D01*
X28530000Y-20980000D02*
X28570000Y-21020000D01*
X28570000Y-20980000D02*
X28530000Y-21020000D01*
X28730000Y-14680000D02*
X28770000Y-14720000D01*
X28770000Y-14680000D02*
X28730000Y-14720000D01*
X28930000Y-21130000D02*
X28970000Y-21170000D01*
X28970000Y-21130000D02*
X28930000Y-21170000D01*
X29880000Y-14730000D02*
X29920000Y-14770000D01*
X29920000Y-14730000D02*
X29880000Y-14770000D01*
X31180000Y-19130000D02*
X31220000Y-19170000D01*
X31220000Y-19130000D02*
X31180000Y-19170000D01*
X31180000Y-20530000D02*
X31220000Y-20570000D01*
X31220000Y-20530000D02*
X31180000Y-20570000D01*
X32180000Y-19130000D02*
X32220000Y-19170000D01*
X32220000Y-19130000D02*
X32180000Y-19170000D01*
X32230000Y-20680000D02*
X32270000Y-20720000D01*
X32270000Y-20680000D02*
X32230000Y-20720000D01*
X32330000Y-7730000D02*
X32370000Y-7770000D01*
X32370000Y-7730000D02*
X32330000Y-7770000D01*
X32380000Y-6730000D02*
X32420000Y-6770000D01*
X32420000Y-6730000D02*
X32380000Y-6770000D01*
X33030000Y-8280000D02*
X33070000Y-8320000D01*
X33070000Y-8280000D02*
X33030000Y-8320000D01*
X33430000Y-19680000D02*
X33470000Y-19720000D01*
X33470000Y-19680000D02*
X33430000Y-19720000D01*
X33580000Y-9280000D02*
X33620000Y-9320000D01*
X33620000Y-9280000D02*
X33580000Y-9320000D01*
X34180000Y-17830000D02*
X34220000Y-17870000D01*
X34220000Y-17830000D02*
X34180000Y-17870000D01*
X34680000Y-19130000D02*
X34720000Y-19170000D01*
X34720000Y-19130000D02*
X34680000Y-19170000D01*
X34730000Y-17230000D02*
X34770000Y-17270000D01*
X34770000Y-17230000D02*
X34730000Y-17270000D01*
X34989350Y-16246660D02*
X35029350Y-16286660D01*
X35029350Y-16246660D02*
X34989350Y-16286660D01*
X35165950Y-16474060D02*
X35205950Y-16514060D01*
X35205950Y-16474060D02*
X35165950Y-16514060D01*
X35330000Y-12730000D02*
X35370000Y-12770000D01*
X35370000Y-12730000D02*
X35330000Y-12770000D01*
X35330000Y-14080000D02*
X35370000Y-14120000D01*
X35370000Y-14080000D02*
X35330000Y-14120000D01*
X35330000Y-18480000D02*
X35370000Y-18520000D01*
X35370000Y-18480000D02*
X35330000Y-18520000D01*
X35580000Y-15180000D02*
X35620000Y-15220000D01*
X35620000Y-15180000D02*
X35580000Y-15220000D01*
X35630000Y-14980000D02*
X35670000Y-15020000D01*
X35670000Y-14980000D02*
X35630000Y-15020000D01*
X35980000Y-16080000D02*
X36020000Y-16120000D01*
X36020000Y-16080000D02*
X35980000Y-16120000D01*
X36180000Y-17830000D02*
X36220000Y-17870000D01*
X36220000Y-17830000D02*
X36180000Y-17870000D01*
X36780000Y-19180000D02*
X36820000Y-19220000D01*
X36820000Y-19180000D02*
X36780000Y-19220000D01*
X31785000Y-6700000D02*
G75*
G03*
X31785000Y-6700000I-35000J0D01*
G01*
X31785000Y-7208000D02*
G75*
G03*
X31785000Y-7208000I-35000J0D01*
G01*
X31385000Y-6700000D02*
G75*
G03*
X31385000Y-6700000I-35000J0D01*
G01*
X31385000Y-7208000D02*
G75*
G03*
X31385000Y-7208000I-35000J0D01*
G01*
X32135000Y-6700000D02*
G75*
G03*
X32135000Y-6700000I-35000J0D01*
G01*
X32135000Y-7208000D02*
G75*
G03*
X32135000Y-7208000I-35000J0D01*
G01*
X17800000Y-16905000D02*
X17800000Y-16995000D01*
X17755000Y-16950000D02*
X17845000Y-16950000D01*
X18562000Y-16905000D02*
X18562000Y-16995000D01*
X18517000Y-16950000D02*
X18607000Y-16950000D01*
X33500000Y-14655000D02*
X33500000Y-14745000D01*
X33455000Y-14700000D02*
X33545000Y-14700000D01*
X34262000Y-14655000D02*
X34262000Y-14745000D01*
X34217000Y-14700000D02*
X34307000Y-14700000D01*
X6750000Y-19105000D02*
X6750000Y-19195000D01*
X6705000Y-19150000D02*
X6795000Y-19150000D01*
X7512000Y-19105000D02*
X7512000Y-19195000D01*
X7467000Y-19150000D02*
X7557000Y-19150000D01*
X31500000Y-9855000D02*
X31500000Y-9945000D01*
X31455000Y-9900000D02*
X31545000Y-9900000D01*
X32262000Y-9855000D02*
X32262000Y-9945000D01*
X32217000Y-9900000D02*
X32307000Y-9900000D01*
X18850000Y-19105000D02*
X18850000Y-19195000D01*
X18805000Y-19150000D02*
X18895000Y-19150000D01*
X19612000Y-19105000D02*
X19612000Y-19195000D01*
X19567000Y-19150000D02*
X19657000Y-19150000D01*
X19800000Y-16905000D02*
X19800000Y-16995000D01*
X19755000Y-16950000D02*
X19845000Y-16950000D01*
X20562000Y-16905000D02*
X20562000Y-16995000D01*
X20517000Y-16950000D02*
X20607000Y-16950000D01*
X10988000Y-12205000D02*
X10988000Y-12295000D01*
X10943000Y-12250000D02*
X11033000Y-12250000D01*
X11750000Y-12205000D02*
X11750000Y-12295000D01*
X11705000Y-12250000D02*
X11795000Y-12250000D01*
X22850000Y-19105000D02*
X22850000Y-19195000D01*
X22805000Y-19150000D02*
X22895000Y-19150000D01*
X23612000Y-19105000D02*
X23612000Y-19195000D01*
X23567000Y-19150000D02*
X23657000Y-19150000D01*
X12988000Y-12205000D02*
X12988000Y-12295000D01*
X12943000Y-12250000D02*
X13033000Y-12250000D01*
X13750000Y-12205000D02*
X13750000Y-12295000D01*
X13705000Y-12250000D02*
X13795000Y-12250000D01*
X35400000Y-14655000D02*
X35400000Y-14745000D01*
X35355000Y-14700000D02*
X35445000Y-14700000D01*
X36162000Y-14655000D02*
X36162000Y-14745000D01*
X36117000Y-14700000D02*
X36207000Y-14700000D01*
X26850000Y-19105000D02*
X26850000Y-19195000D01*
X26805000Y-19150000D02*
X26895000Y-19150000D01*
X27612000Y-19105000D02*
X27612000Y-19195000D01*
X27567000Y-19150000D02*
X27657000Y-19150000D01*
X29600000Y-9855000D02*
X29600000Y-9945000D01*
X29555000Y-9900000D02*
X29645000Y-9900000D01*
X30362000Y-9855000D02*
X30362000Y-9945000D01*
X30317000Y-9900000D02*
X30407000Y-9900000D01*
X9250000Y-21505000D02*
X9250000Y-21595000D01*
X9205000Y-21550000D02*
X9295000Y-21550000D01*
X10012000Y-21505000D02*
X10012000Y-21595000D01*
X9967000Y-21550000D02*
X10057000Y-21550000D01*
X4950000Y-12205000D02*
X4950000Y-12295000D01*
X4905000Y-12250000D02*
X4995000Y-12250000D01*
X5712000Y-12205000D02*
X5712000Y-12295000D01*
X5667000Y-12250000D02*
X5757000Y-12250000D01*
X20850000Y-19105000D02*
X20850000Y-19195000D01*
X20805000Y-19150000D02*
X20895000Y-19150000D01*
X21612000Y-19105000D02*
X21612000Y-19195000D01*
X21567000Y-19150000D02*
X21657000Y-19150000D01*
X21800000Y-16905000D02*
X21800000Y-16995000D01*
X21755000Y-16950000D02*
X21845000Y-16950000D01*
X22562000Y-16905000D02*
X22562000Y-16995000D01*
X22517000Y-16950000D02*
X22607000Y-16950000D01*
X20988000Y-12205000D02*
X20988000Y-12295000D01*
X20943000Y-12250000D02*
X21033000Y-12250000D01*
X21750000Y-12205000D02*
X21750000Y-12295000D01*
X21705000Y-12250000D02*
X21795000Y-12250000D01*
X19400000Y-14605000D02*
X19400000Y-14695000D01*
X19355000Y-14650000D02*
X19445000Y-14650000D01*
X20162000Y-14605000D02*
X20162000Y-14695000D01*
X20117000Y-14650000D02*
X20207000Y-14650000D01*
X9400000Y-14605000D02*
X9400000Y-14695000D01*
X9355000Y-14650000D02*
X9445000Y-14650000D01*
X10162000Y-14605000D02*
X10162000Y-14695000D01*
X10117000Y-14650000D02*
X10207000Y-14650000D01*
X29488000Y-19105000D02*
X29488000Y-19195000D01*
X29443000Y-19150000D02*
X29533000Y-19150000D01*
X30250000Y-19105000D02*
X30250000Y-19195000D01*
X30205000Y-19150000D02*
X30295000Y-19150000D01*
X22888000Y-12205000D02*
X22888000Y-12295000D01*
X22843000Y-12250000D02*
X22933000Y-12250000D01*
X23650000Y-12205000D02*
X23650000Y-12295000D01*
X23605000Y-12250000D02*
X23695000Y-12250000D01*
X7438000Y-12205000D02*
X7438000Y-12295000D01*
X7393000Y-12250000D02*
X7483000Y-12250000D01*
X8200000Y-12205000D02*
X8200000Y-12295000D01*
X8155000Y-12250000D02*
X8245000Y-12250000D01*
X33550000Y-18605000D02*
X33550000Y-18695000D01*
X33505000Y-18650000D02*
X33595000Y-18650000D01*
X34312000Y-18605000D02*
X34312000Y-18695000D01*
X34267000Y-18650000D02*
X34357000Y-18650000D01*
X18888000Y-12205000D02*
X18888000Y-12295000D01*
X18843000Y-12250000D02*
X18933000Y-12250000D01*
X19650000Y-12205000D02*
X19650000Y-12295000D01*
X19605000Y-12250000D02*
X19695000Y-12250000D01*
X37500000Y-14655000D02*
X37500000Y-14745000D01*
X37455000Y-14700000D02*
X37545000Y-14700000D01*
X38262000Y-14655000D02*
X38262000Y-14745000D01*
X38217000Y-14700000D02*
X38307000Y-14700000D01*
X13338000Y-14605000D02*
X13338000Y-14695000D01*
X13293000Y-14650000D02*
X13383000Y-14650000D01*
X14100000Y-14605000D02*
X14100000Y-14695000D01*
X14055000Y-14650000D02*
X14145000Y-14650000D01*
X11238000Y-21455000D02*
X11238000Y-21545000D01*
X11193000Y-21500000D02*
X11283000Y-21500000D01*
X12000000Y-21455000D02*
X12000000Y-21545000D01*
X11955000Y-21500000D02*
X12045000Y-21500000D01*
X35400000Y-9855000D02*
X35400000Y-9945000D01*
X35355000Y-9900000D02*
X35445000Y-9900000D01*
X36162000Y-9855000D02*
X36162000Y-9945000D01*
X36117000Y-9900000D02*
X36207000Y-9900000D01*
X18288000Y-21505000D02*
X18288000Y-21595000D01*
X18243000Y-21550000D02*
X18333000Y-21550000D01*
X19050000Y-21505000D02*
X19050000Y-21595000D01*
X19005000Y-21550000D02*
X19095000Y-21550000D01*
X33500000Y-9855000D02*
X33500000Y-9945000D01*
X33455000Y-9900000D02*
X33545000Y-9900000D01*
X34262000Y-9855000D02*
X34262000Y-9945000D01*
X34217000Y-9900000D02*
X34307000Y-9900000D01*
X14188000Y-9705000D02*
X14188000Y-9795000D01*
X14143000Y-9750000D02*
X14233000Y-9750000D01*
X14950000Y-9705000D02*
X14950000Y-9795000D01*
X14905000Y-9750000D02*
X14995000Y-9750000D01*
X7400000Y-14605000D02*
X7400000Y-14695000D01*
X7355000Y-14650000D02*
X7445000Y-14650000D01*
X8162000Y-14605000D02*
X8162000Y-14695000D01*
X8117000Y-14650000D02*
X8207000Y-14650000D01*
X8850000Y-19105000D02*
X8850000Y-19195000D01*
X8805000Y-19150000D02*
X8895000Y-19150000D01*
X9612000Y-19105000D02*
X9612000Y-19195000D01*
X9567000Y-19150000D02*
X9657000Y-19150000D01*
X6788000Y-21505000D02*
X6788000Y-21595000D01*
X6743000Y-21550000D02*
X6833000Y-21550000D01*
X7550000Y-21505000D02*
X7550000Y-21595000D01*
X7505000Y-21550000D02*
X7595000Y-21550000D01*
X5900000Y-16905000D02*
X5900000Y-16995000D01*
X5855000Y-16950000D02*
X5945000Y-16950000D01*
X6662000Y-16905000D02*
X6662000Y-16995000D01*
X6617000Y-16950000D02*
X6707000Y-16950000D01*
X24988000Y-12205000D02*
X24988000Y-12295000D01*
X24943000Y-12250000D02*
X25033000Y-12250000D01*
X25750000Y-12205000D02*
X25750000Y-12295000D01*
X25705000Y-12250000D02*
X25795000Y-12250000D01*
X16988000Y-12205000D02*
X16988000Y-12295000D01*
X16943000Y-12250000D02*
X17033000Y-12250000D01*
X17750000Y-12205000D02*
X17750000Y-12295000D01*
X17705000Y-12250000D02*
X17795000Y-12250000D01*
X35438000Y-12255000D02*
X35438000Y-12345000D01*
X35393000Y-12300000D02*
X35483000Y-12300000D01*
X36200000Y-12255000D02*
X36200000Y-12345000D01*
X36155000Y-12300000D02*
X36245000Y-12300000D01*
X7900000Y-16905000D02*
X7900000Y-16995000D01*
X7855000Y-16950000D02*
X7945000Y-16950000D01*
X8662000Y-16905000D02*
X8662000Y-16995000D01*
X8617000Y-16950000D02*
X8707000Y-16950000D01*
X22850000Y-9855000D02*
X22850000Y-9945000D01*
X22805000Y-9900000D02*
X22895000Y-9900000D01*
X23612000Y-9855000D02*
X23612000Y-9945000D01*
X23567000Y-9900000D02*
X23657000Y-9900000D01*
X25250000Y-21505000D02*
X25250000Y-21595000D01*
X25205000Y-21550000D02*
X25295000Y-21550000D01*
X26012000Y-21505000D02*
X26012000Y-21595000D01*
X25967000Y-21550000D02*
X26057000Y-21550000D01*
X23800000Y-16905000D02*
X23800000Y-16995000D01*
X23755000Y-16950000D02*
X23845000Y-16950000D01*
X24562000Y-16905000D02*
X24562000Y-16995000D01*
X24517000Y-16950000D02*
X24607000Y-16950000D01*
X15300000Y-14605000D02*
X15300000Y-14695000D01*
X15255000Y-14650000D02*
X15345000Y-14650000D01*
X16062000Y-14605000D02*
X16062000Y-14695000D01*
X16017000Y-14650000D02*
X16107000Y-14650000D01*
X27400000Y-21505000D02*
X27400000Y-21595000D01*
X27355000Y-21550000D02*
X27445000Y-21550000D01*
X28162000Y-21505000D02*
X28162000Y-21595000D01*
X28117000Y-21550000D02*
X28207000Y-21550000D01*
X21300000Y-14605000D02*
X21300000Y-14695000D01*
X21255000Y-14650000D02*
X21345000Y-14650000D01*
X22062000Y-14605000D02*
X22062000Y-14695000D01*
X22017000Y-14650000D02*
X22107000Y-14650000D01*
X11350000Y-14605000D02*
X11350000Y-14695000D01*
X11305000Y-14650000D02*
X11395000Y-14650000D01*
X12112000Y-14605000D02*
X12112000Y-14695000D01*
X12067000Y-14650000D02*
X12157000Y-14650000D01*
X9800000Y-16905000D02*
X9800000Y-16995000D01*
X9755000Y-16950000D02*
X9845000Y-16950000D01*
X10562000Y-16905000D02*
X10562000Y-16995000D01*
X10517000Y-16950000D02*
X10607000Y-16950000D01*
X25400000Y-14605000D02*
X25400000Y-14695000D01*
X25355000Y-14650000D02*
X25445000Y-14650000D01*
X26162000Y-14605000D02*
X26162000Y-14695000D01*
X26117000Y-14650000D02*
X26207000Y-14650000D01*
X29800000Y-21505000D02*
X29800000Y-21595000D01*
X29755000Y-21550000D02*
X29845000Y-21550000D01*
X30562000Y-21505000D02*
X30562000Y-21595000D01*
X30517000Y-21550000D02*
X30607000Y-21550000D01*
X8338000Y-9705000D02*
X8338000Y-9795000D01*
X8293000Y-9750000D02*
X8383000Y-9750000D01*
X9100000Y-9705000D02*
X9100000Y-9795000D01*
X9055000Y-9750000D02*
X9145000Y-9750000D01*
X14988000Y-12205000D02*
X14988000Y-12295000D01*
X14943000Y-12250000D02*
X15033000Y-12250000D01*
X15750000Y-12205000D02*
X15750000Y-12295000D01*
X15705000Y-12250000D02*
X15795000Y-12250000D01*
X4538000Y-9705000D02*
X4538000Y-9795000D01*
X4493000Y-9750000D02*
X4583000Y-9750000D01*
X5300000Y-9705000D02*
X5300000Y-9795000D01*
X5255000Y-9750000D02*
X5345000Y-9750000D01*
X10850000Y-19105000D02*
X10850000Y-19195000D01*
X10805000Y-19150000D02*
X10895000Y-19150000D01*
X11612000Y-19105000D02*
X11612000Y-19195000D01*
X11567000Y-19150000D02*
X11657000Y-19150000D01*
X27450000Y-9855000D02*
X27450000Y-9945000D01*
X27405000Y-9900000D02*
X27495000Y-9900000D01*
X28212000Y-9855000D02*
X28212000Y-9945000D01*
X28167000Y-9900000D02*
X28257000Y-9900000D01*
X20900000Y-9855000D02*
X20900000Y-9945000D01*
X20855000Y-9900000D02*
X20945000Y-9900000D01*
X21662000Y-9855000D02*
X21662000Y-9945000D01*
X21617000Y-9900000D02*
X21707000Y-9900000D01*
X5100000Y-14605000D02*
X5100000Y-14695000D01*
X5055000Y-14650000D02*
X5145000Y-14650000D01*
X5862000Y-14605000D02*
X5862000Y-14695000D01*
X5817000Y-14650000D02*
X5907000Y-14650000D01*
X11800000Y-16905000D02*
X11800000Y-16995000D01*
X11755000Y-16950000D02*
X11845000Y-16950000D01*
X12562000Y-16905000D02*
X12562000Y-16995000D01*
X12517000Y-16950000D02*
X12607000Y-16950000D01*
X37400000Y-9855000D02*
X37400000Y-9945000D01*
X37355000Y-9900000D02*
X37445000Y-9900000D01*
X38162000Y-9855000D02*
X38162000Y-9945000D01*
X38117000Y-9900000D02*
X38207000Y-9900000D01*
X25500000Y-9855000D02*
X25500000Y-9945000D01*
X25455000Y-9900000D02*
X25545000Y-9900000D01*
X26262000Y-9855000D02*
X26262000Y-9945000D01*
X26217000Y-9900000D02*
X26307000Y-9900000D01*
X33538000Y-12255000D02*
X33538000Y-12345000D01*
X33493000Y-12300000D02*
X33583000Y-12300000D01*
X34300000Y-12255000D02*
X34300000Y-12345000D01*
X34255000Y-12300000D02*
X34345000Y-12300000D01*
X23400000Y-14605000D02*
X23400000Y-14695000D01*
X23355000Y-14650000D02*
X23445000Y-14650000D01*
X24162000Y-14605000D02*
X24162000Y-14695000D01*
X24117000Y-14650000D02*
X24207000Y-14650000D01*
X16950000Y-9805000D02*
X16950000Y-9895000D01*
X16905000Y-9850000D02*
X16995000Y-9850000D01*
X17712000Y-9805000D02*
X17712000Y-9895000D01*
X17667000Y-9850000D02*
X17757000Y-9850000D01*
X17400000Y-14605000D02*
X17400000Y-14695000D01*
X17355000Y-14650000D02*
X17445000Y-14650000D01*
X18162000Y-14605000D02*
X18162000Y-14695000D01*
X18117000Y-14650000D02*
X18207000Y-14650000D01*
X33500000Y-19105000D02*
X33500000Y-19195000D01*
X33455000Y-19150000D02*
X33545000Y-19150000D01*
X34262000Y-19105000D02*
X34262000Y-19195000D01*
X34217000Y-19150000D02*
X34307000Y-19150000D01*
X12288000Y-9705000D02*
X12288000Y-9795000D01*
X12243000Y-9750000D02*
X12333000Y-9750000D01*
X13050000Y-9705000D02*
X13050000Y-9795000D01*
X13005000Y-9750000D02*
X13095000Y-9750000D01*
X10338000Y-9705000D02*
X10338000Y-9795000D01*
X10293000Y-9750000D02*
X10383000Y-9750000D01*
X11100000Y-9705000D02*
X11100000Y-9795000D01*
X11055000Y-9750000D02*
X11145000Y-9750000D01*
X12850000Y-19105000D02*
X12850000Y-19195000D01*
X12805000Y-19150000D02*
X12895000Y-19150000D01*
X13612000Y-19105000D02*
X13612000Y-19195000D01*
X13567000Y-19150000D02*
X13657000Y-19150000D01*
X13800000Y-16905000D02*
X13800000Y-16995000D01*
X13755000Y-16950000D02*
X13845000Y-16950000D01*
X14562000Y-16905000D02*
X14562000Y-16995000D01*
X14517000Y-16950000D02*
X14607000Y-16950000D01*
X35450000Y-19105000D02*
X35450000Y-19195000D01*
X35405000Y-19150000D02*
X35495000Y-19150000D01*
X36212000Y-19105000D02*
X36212000Y-19195000D01*
X36167000Y-19150000D02*
X36257000Y-19150000D01*
X27400000Y-14605000D02*
X27400000Y-14695000D01*
X27355000Y-14650000D02*
X27445000Y-14650000D01*
X28162000Y-14605000D02*
X28162000Y-14695000D01*
X28117000Y-14650000D02*
X28207000Y-14650000D01*
X14950000Y-19105000D02*
X14950000Y-19195000D01*
X14905000Y-19150000D02*
X14995000Y-19150000D01*
X15712000Y-19105000D02*
X15712000Y-19195000D01*
X15667000Y-19150000D02*
X15757000Y-19150000D01*
X26888000Y-12205000D02*
X26888000Y-12295000D01*
X26843000Y-12250000D02*
X26933000Y-12250000D01*
X27650000Y-12205000D02*
X27650000Y-12295000D01*
X27605000Y-12250000D02*
X27695000Y-12250000D01*
X37438000Y-19105000D02*
X37438000Y-19195000D01*
X37393000Y-19150000D02*
X37483000Y-19150000D01*
X38200000Y-19105000D02*
X38200000Y-19195000D01*
X38155000Y-19150000D02*
X38245000Y-19150000D01*
X30138000Y-16455000D02*
X30138000Y-16545000D01*
X30093000Y-16500000D02*
X30183000Y-16500000D01*
X30900000Y-16455000D02*
X30900000Y-16545000D01*
X30855000Y-16500000D02*
X30945000Y-16500000D01*
X25800000Y-16905000D02*
X25800000Y-16995000D01*
X25755000Y-16950000D02*
X25845000Y-16950000D01*
X26562000Y-16905000D02*
X26562000Y-16995000D01*
X26517000Y-16950000D02*
X26607000Y-16950000D01*
X24850000Y-19105000D02*
X24850000Y-19195000D01*
X24805000Y-19150000D02*
X24895000Y-19150000D01*
X25612000Y-19105000D02*
X25612000Y-19195000D01*
X25567000Y-19150000D02*
X25657000Y-19150000D01*
X18900000Y-9805000D02*
X18900000Y-9895000D01*
X18855000Y-9850000D02*
X18945000Y-9850000D01*
X19662000Y-9805000D02*
X19662000Y-9895000D01*
X19617000Y-9850000D02*
X19707000Y-9850000D01*
X29888000Y-12155000D02*
X29888000Y-12245000D01*
X29843000Y-12200000D02*
X29933000Y-12200000D01*
X30650000Y-12155000D02*
X30650000Y-12245000D01*
X30605000Y-12200000D02*
X30695000Y-12200000D01*
X15800000Y-16905000D02*
X15800000Y-16995000D01*
X15755000Y-16950000D02*
X15845000Y-16950000D01*
X16562000Y-16905000D02*
X16562000Y-16995000D01*
X16517000Y-16950000D02*
X16607000Y-16950000D01*
X8950000Y-12205000D02*
X8950000Y-12295000D01*
X8905000Y-12250000D02*
X8995000Y-12250000D01*
X9712000Y-12205000D02*
X9712000Y-12295000D01*
X9667000Y-12250000D02*
X9757000Y-12250000D01*
X37400000Y-12255000D02*
X37400000Y-12345000D01*
X37355000Y-12300000D02*
X37445000Y-12300000D01*
X38162000Y-12255000D02*
X38162000Y-12345000D01*
X38117000Y-12300000D02*
X38207000Y-12300000D01*
X27800000Y-16905000D02*
X27800000Y-16995000D01*
X27755000Y-16950000D02*
X27845000Y-16950000D01*
X28562000Y-16905000D02*
X28562000Y-16995000D01*
X28517000Y-16950000D02*
X28607000Y-16950000D01*
X16850000Y-19105000D02*
X16850000Y-19195000D01*
X16805000Y-19150000D02*
X16895000Y-19150000D01*
X17612000Y-19105000D02*
X17612000Y-19195000D01*
X17567000Y-19150000D02*
X17657000Y-19150000D01*
X35275891Y-15376891D02*
X35275891Y-15299109D01*
X35198109Y-15299109D01*
X35198109Y-15376891D01*
X35275891Y-15376891D01*
X35275891Y-15884891D02*
X35275891Y-15807109D01*
X35198109Y-15807109D01*
X35198109Y-15884891D01*
X35275891Y-15884891D01*
X35275891Y-16138891D02*
X35275891Y-16061109D01*
X35198109Y-16061109D01*
X35198109Y-16138891D01*
X35275891Y-16138891D01*
X35275891Y-16392891D02*
X35275891Y-16315109D01*
X35198109Y-16315109D01*
X35198109Y-16392891D01*
X35275891Y-16392891D01*
X35275891Y-16900891D02*
X35275891Y-16823109D01*
X35198109Y-16823109D01*
X35198109Y-16900891D01*
X35275891Y-16900891D01*
X35529891Y-15376891D02*
X35529891Y-15299109D01*
X35452109Y-15299109D01*
X35452109Y-15376891D01*
X35529891Y-15376891D01*
X35529891Y-16900891D02*
X35529891Y-16823109D01*
X35452109Y-16823109D01*
X35452109Y-16900891D01*
X35529891Y-16900891D01*
X35783891Y-15376891D02*
X35783891Y-15299109D01*
X35706109Y-15299109D01*
X35706109Y-15376891D01*
X35783891Y-15376891D01*
X35783891Y-16900891D02*
X35783891Y-16823109D01*
X35706109Y-16823109D01*
X35706109Y-16900891D01*
X35783891Y-16900891D01*
X36037891Y-15376891D02*
X36037891Y-15299109D01*
X35960109Y-15299109D01*
X35960109Y-15376891D01*
X36037891Y-15376891D01*
X36037891Y-16900891D02*
X36037891Y-16823109D01*
X35960109Y-16823109D01*
X35960109Y-16900891D01*
X36037891Y-16900891D01*
X36291891Y-15376891D02*
X36291891Y-15299109D01*
X36214109Y-15299109D01*
X36214109Y-15376891D01*
X36291891Y-15376891D01*
X36291891Y-16900891D02*
X36291891Y-16823109D01*
X36214109Y-16823109D01*
X36214109Y-16900891D01*
X36291891Y-16900891D01*
X36545891Y-15376891D02*
X36545891Y-15299109D01*
X36468109Y-15299109D01*
X36468109Y-15376891D01*
X36545891Y-15376891D01*
X36545891Y-16900891D02*
X36545891Y-16823109D01*
X36468109Y-16823109D01*
X36468109Y-16900891D01*
X36545891Y-16900891D01*
X36799891Y-15376891D02*
X36799891Y-15299109D01*
X36722109Y-15299109D01*
X36722109Y-15376891D01*
X36799891Y-15376891D01*
X36799891Y-16900891D02*
X36799891Y-16823109D01*
X36722109Y-16823109D01*
X36722109Y-16900891D01*
X36799891Y-16900891D01*
X37053891Y-15376891D02*
X37053891Y-15299109D01*
X36976109Y-15299109D01*
X36976109Y-15376891D01*
X37053891Y-15376891D01*
X37053891Y-16900891D02*
X37053891Y-16823109D01*
X36976109Y-16823109D01*
X36976109Y-16900891D01*
X37053891Y-16900891D01*
X37307891Y-15376891D02*
X37307891Y-15299109D01*
X37230109Y-15299109D01*
X37230109Y-15376891D01*
X37307891Y-15376891D01*
X37307891Y-16900891D02*
X37307891Y-16823109D01*
X37230109Y-16823109D01*
X37230109Y-16900891D01*
X37307891Y-16900891D01*
X37561891Y-15376891D02*
X37561891Y-15299109D01*
X37484109Y-15299109D01*
X37484109Y-15376891D01*
X37561891Y-15376891D01*
X37561891Y-16900891D02*
X37561891Y-16823109D01*
X37484109Y-16823109D01*
X37484109Y-16900891D01*
X37561891Y-16900891D01*
X37815891Y-15376891D02*
X37815891Y-15299109D01*
X37738109Y-15299109D01*
X37738109Y-15376891D01*
X37815891Y-15376891D01*
X37815891Y-16900891D02*
X37815891Y-16823109D01*
X37738109Y-16823109D01*
X37738109Y-16900891D01*
X37815891Y-16900891D01*
X38069891Y-15376891D02*
X38069891Y-15299109D01*
X37992109Y-15299109D01*
X37992109Y-15376891D01*
X38069891Y-15376891D01*
X38069891Y-16900891D02*
X38069891Y-16823109D01*
X37992109Y-16823109D01*
X37992109Y-16900891D01*
X38069891Y-16900891D01*
X38323891Y-15376891D02*
X38323891Y-15299109D01*
X38246109Y-15299109D01*
X38246109Y-15376891D01*
X38323891Y-15376891D01*
X38323891Y-16900891D02*
X38323891Y-16823109D01*
X38246109Y-16823109D01*
X38246109Y-16900891D01*
X38323891Y-16900891D01*
X38577891Y-15376891D02*
X38577891Y-15299109D01*
X38500109Y-15299109D01*
X38500109Y-15376891D01*
X38577891Y-15376891D01*
X38577891Y-16900891D02*
X38577891Y-16823109D01*
X38500109Y-16823109D01*
X38500109Y-16900891D01*
X38577891Y-16900891D01*
X38831891Y-15376891D02*
X38831891Y-15299109D01*
X38754109Y-15299109D01*
X38754109Y-15376891D01*
X38831891Y-15376891D01*
X38831891Y-16900891D02*
X38831891Y-16823109D01*
X38754109Y-16823109D01*
X38754109Y-16900891D01*
X38831891Y-16900891D01*
X39085891Y-15376891D02*
X39085891Y-15299109D01*
X39008109Y-15299109D01*
X39008109Y-15376891D01*
X39085891Y-15376891D01*
X39085891Y-16900891D02*
X39085891Y-16823109D01*
X39008109Y-16823109D01*
X39008109Y-16900891D01*
X39085891Y-16900891D01*
X39339891Y-15376891D02*
X39339891Y-15299109D01*
X39262109Y-15299109D01*
X39262109Y-15376891D01*
X39339891Y-15376891D01*
X39339891Y-16900891D02*
X39339891Y-16823109D01*
X39262109Y-16823109D01*
X39262109Y-16900891D01*
X39339891Y-16900891D01*
X39593891Y-15376891D02*
X39593891Y-15299109D01*
X39516109Y-15299109D01*
X39516109Y-15376891D01*
X39593891Y-15376891D01*
X39593891Y-16900891D02*
X39593891Y-16823109D01*
X39516109Y-16823109D01*
X39516109Y-16900891D01*
X39593891Y-16900891D01*
X39847891Y-15376891D02*
X39847891Y-15299109D01*
X39770109Y-15299109D01*
X39770109Y-15376891D01*
X39847891Y-15376891D01*
X39847891Y-16900891D02*
X39847891Y-16823109D01*
X39770109Y-16823109D01*
X39770109Y-16900891D01*
X39847891Y-16900891D01*
X40101891Y-15376891D02*
X40101891Y-15299109D01*
X40024109Y-15299109D01*
X40024109Y-15376891D01*
X40101891Y-15376891D01*
X40101891Y-16900891D02*
X40101891Y-16823109D01*
X40024109Y-16823109D01*
X40024109Y-16900891D01*
X40101891Y-16900891D01*
X23365000Y-13279000D02*
X23440000Y-13204000D01*
X23365000Y-13129000D01*
X23290000Y-13204000D01*
X23365000Y-13279000D01*
X24000000Y-13025000D02*
X24075000Y-12950000D01*
X24000000Y-12875000D01*
X23925000Y-12950000D01*
X24000000Y-13025000D01*
X30065000Y-14229000D02*
X30140000Y-14154000D01*
X30065000Y-14079000D01*
X29990000Y-14154000D01*
X30065000Y-14229000D01*
X30700000Y-13975000D02*
X30775000Y-13900000D01*
X30700000Y-13825000D01*
X30625000Y-13900000D01*
X30700000Y-13975000D01*
X21815000Y-15629000D02*
X21890000Y-15554000D01*
X21815000Y-15479000D01*
X21740000Y-15554000D01*
X21815000Y-15629000D01*
X22450000Y-15375000D02*
X22525000Y-15300000D01*
X22450000Y-15225000D01*
X22375000Y-15300000D01*
X22450000Y-15375000D01*
X35465000Y-10929000D02*
X35540000Y-10854000D01*
X35465000Y-10779000D01*
X35390000Y-10854000D01*
X35465000Y-10929000D01*
X36100000Y-10675000D02*
X36175000Y-10600000D01*
X36100000Y-10525000D01*
X36025000Y-10600000D01*
X36100000Y-10675000D01*
X6819000Y-20171000D02*
X6894000Y-20096000D01*
X6819000Y-20021000D01*
X6744000Y-20096000D01*
X6819000Y-20171000D01*
X7454000Y-19917000D02*
X7529000Y-19842000D01*
X7454000Y-19767000D01*
X7379000Y-19842000D01*
X7454000Y-19917000D01*
X23415000Y-10879000D02*
X23490000Y-10804000D01*
X23415000Y-10729000D01*
X23340000Y-10804000D01*
X23415000Y-10879000D01*
X24050000Y-10625000D02*
X24125000Y-10550000D01*
X24050000Y-10475000D01*
X23975000Y-10550000D01*
X24050000Y-10625000D01*
X11265000Y-20171000D02*
X11340000Y-20096000D01*
X11265000Y-20021000D01*
X11190000Y-20096000D01*
X11265000Y-20171000D01*
X11900000Y-19917000D02*
X11975000Y-19842000D01*
X11900000Y-19767000D01*
X11825000Y-19842000D01*
X11900000Y-19917000D01*
X11415000Y-10879000D02*
X11490000Y-10804000D01*
X11415000Y-10729000D01*
X11340000Y-10804000D01*
X11415000Y-10879000D01*
X12050000Y-10625000D02*
X12125000Y-10550000D01*
X12050000Y-10475000D01*
X11975000Y-10550000D01*
X12050000Y-10625000D01*
X27369000Y-20171000D02*
X27444000Y-20096000D01*
X27369000Y-20021000D01*
X27294000Y-20096000D01*
X27369000Y-20171000D01*
X28004000Y-19917000D02*
X28079000Y-19842000D01*
X28004000Y-19767000D01*
X27929000Y-19842000D01*
X28004000Y-19917000D01*
X7419000Y-10879000D02*
X7494000Y-10804000D01*
X7419000Y-10729000D01*
X7344000Y-10804000D01*
X7419000Y-10879000D01*
X8054000Y-10625000D02*
X8129000Y-10550000D01*
X8054000Y-10475000D01*
X7979000Y-10550000D01*
X8054000Y-10625000D01*
X9815000Y-15629000D02*
X9890000Y-15554000D01*
X9815000Y-15479000D01*
X9740000Y-15554000D01*
X9815000Y-15629000D01*
X10450000Y-15375000D02*
X10525000Y-15300000D01*
X10450000Y-15225000D01*
X10375000Y-15300000D01*
X10450000Y-15375000D01*
X19415000Y-10879000D02*
X19490000Y-10804000D01*
X19415000Y-10729000D01*
X19340000Y-10804000D01*
X19415000Y-10879000D01*
X20050000Y-10625000D02*
X20125000Y-10550000D01*
X20050000Y-10475000D01*
X19975000Y-10550000D01*
X20050000Y-10625000D01*
X22865000Y-17879000D02*
X22940000Y-17804000D01*
X22865000Y-17729000D01*
X22790000Y-17804000D01*
X22865000Y-17879000D01*
X23500000Y-17625000D02*
X23575000Y-17550000D01*
X23500000Y-17475000D01*
X23425000Y-17550000D01*
X23500000Y-17625000D01*
X16869000Y-17871000D02*
X16944000Y-17796000D01*
X16869000Y-17721000D01*
X16794000Y-17796000D01*
X16869000Y-17871000D01*
X17504000Y-17617000D02*
X17579000Y-17542000D01*
X17504000Y-17467000D01*
X17429000Y-17542000D01*
X17504000Y-17617000D01*
X29569000Y-17879000D02*
X29644000Y-17804000D01*
X29569000Y-17729000D01*
X29494000Y-17804000D01*
X29569000Y-17879000D01*
X30204000Y-17625000D02*
X30279000Y-17550000D01*
X30204000Y-17475000D01*
X30129000Y-17550000D01*
X30204000Y-17625000D01*
X15365000Y-13279000D02*
X15440000Y-13204000D01*
X15365000Y-13129000D01*
X15290000Y-13204000D01*
X15365000Y-13279000D01*
X16000000Y-13025000D02*
X16075000Y-12950000D01*
X16000000Y-12875000D01*
X15925000Y-12950000D01*
X16000000Y-13025000D01*
X9365000Y-13279000D02*
X9440000Y-13204000D01*
X9365000Y-13129000D01*
X9290000Y-13204000D01*
X9365000Y-13279000D01*
X10000000Y-13025000D02*
X10075000Y-12950000D01*
X10000000Y-12875000D01*
X9925000Y-12950000D01*
X10000000Y-13025000D01*
X15815000Y-15629000D02*
X15890000Y-15554000D01*
X15815000Y-15479000D01*
X15740000Y-15554000D01*
X15815000Y-15629000D01*
X16450000Y-15375000D02*
X16525000Y-15300000D01*
X16450000Y-15225000D01*
X16375000Y-15300000D01*
X16450000Y-15375000D01*
X37465000Y-13329000D02*
X37540000Y-13254000D01*
X37465000Y-13179000D01*
X37390000Y-13254000D01*
X37465000Y-13329000D01*
X38100000Y-13075000D02*
X38175000Y-13000000D01*
X38100000Y-12925000D01*
X38025000Y-13000000D01*
X38100000Y-13075000D01*
X27365000Y-13279000D02*
X27440000Y-13204000D01*
X27365000Y-13129000D01*
X27290000Y-13204000D01*
X27365000Y-13279000D01*
X28000000Y-13025000D02*
X28075000Y-12950000D01*
X28000000Y-12875000D01*
X27925000Y-12950000D01*
X28000000Y-13025000D01*
X17415000Y-10879000D02*
X17490000Y-10804000D01*
X17415000Y-10729000D01*
X17340000Y-10804000D01*
X17415000Y-10879000D01*
X18050000Y-10625000D02*
X18125000Y-10550000D01*
X18050000Y-10475000D01*
X17975000Y-10550000D01*
X18050000Y-10625000D01*
X25815000Y-15629000D02*
X25890000Y-15554000D01*
X25815000Y-15479000D01*
X25740000Y-15554000D01*
X25815000Y-15629000D01*
X26450000Y-15375000D02*
X26525000Y-15300000D01*
X26450000Y-15225000D01*
X26375000Y-15300000D01*
X26450000Y-15375000D01*
X35477000Y-8371000D02*
X35552000Y-8296000D01*
X35477000Y-8221000D01*
X35402000Y-8296000D01*
X35477000Y-8371000D01*
X36112000Y-8117000D02*
X36187000Y-8042000D01*
X36112000Y-7967000D01*
X36037000Y-8042000D01*
X36112000Y-8117000D01*
X29519000Y-8379000D02*
X29594000Y-8304000D01*
X29519000Y-8229000D01*
X29444000Y-8304000D01*
X29519000Y-8379000D01*
X30154000Y-8125000D02*
X30229000Y-8050000D01*
X30154000Y-7975000D01*
X30079000Y-8050000D01*
X30154000Y-8125000D01*
X8869000Y-17871000D02*
X8944000Y-17796000D01*
X8869000Y-17721000D01*
X8794000Y-17796000D01*
X8869000Y-17871000D01*
X9504000Y-17617000D02*
X9579000Y-17542000D01*
X9504000Y-17467000D01*
X9429000Y-17542000D01*
X9504000Y-17617000D01*
X15415000Y-10879000D02*
X15490000Y-10804000D01*
X15415000Y-10729000D01*
X15340000Y-10804000D01*
X15415000Y-10879000D01*
X16050000Y-10625000D02*
X16125000Y-10550000D01*
X16050000Y-10475000D01*
X15975000Y-10550000D01*
X16050000Y-10625000D01*
X4965000Y-10879000D02*
X5040000Y-10804000D01*
X4965000Y-10729000D01*
X4890000Y-10804000D01*
X4965000Y-10879000D01*
X5600000Y-10625000D02*
X5675000Y-10550000D01*
X5600000Y-10475000D01*
X5525000Y-10550000D01*
X5600000Y-10625000D01*
X19815000Y-15629000D02*
X19890000Y-15554000D01*
X19815000Y-15479000D01*
X19740000Y-15554000D01*
X19815000Y-15629000D01*
X20450000Y-15375000D02*
X20525000Y-15300000D01*
X20450000Y-15225000D01*
X20375000Y-15300000D01*
X20450000Y-15375000D01*
X8219000Y-8379000D02*
X8294000Y-8304000D01*
X8219000Y-8229000D01*
X8144000Y-8304000D01*
X8219000Y-8379000D01*
X8854000Y-8125000D02*
X8929000Y-8050000D01*
X8854000Y-7975000D01*
X8779000Y-8050000D01*
X8854000Y-8125000D01*
X27415000Y-10879000D02*
X27490000Y-10804000D01*
X27415000Y-10729000D01*
X27340000Y-10804000D01*
X27415000Y-10879000D01*
X28050000Y-10625000D02*
X28125000Y-10550000D01*
X28050000Y-10475000D01*
X27975000Y-10550000D01*
X28050000Y-10625000D01*
X37469000Y-20121000D02*
X37544000Y-20046000D01*
X37469000Y-19971000D01*
X37394000Y-20046000D01*
X37469000Y-20121000D01*
X38104000Y-19867000D02*
X38179000Y-19792000D01*
X38104000Y-19717000D01*
X38029000Y-19792000D01*
X38104000Y-19867000D01*
X21415000Y-10879000D02*
X21490000Y-10804000D01*
X21415000Y-10729000D01*
X21340000Y-10804000D01*
X21415000Y-10879000D01*
X22050000Y-10625000D02*
X22125000Y-10550000D01*
X22050000Y-10475000D01*
X21975000Y-10550000D01*
X22050000Y-10625000D01*
X26865000Y-17879000D02*
X26940000Y-17804000D01*
X26865000Y-17729000D01*
X26790000Y-17804000D01*
X26865000Y-17879000D01*
X27500000Y-17625000D02*
X27575000Y-17550000D01*
X27500000Y-17475000D01*
X27425000Y-17550000D01*
X27500000Y-17625000D01*
X33469000Y-20129000D02*
X33544000Y-20054000D01*
X33469000Y-19979000D01*
X33394000Y-20054000D01*
X33469000Y-20129000D01*
X34104000Y-19875000D02*
X34179000Y-19800000D01*
X34104000Y-19725000D01*
X34029000Y-19800000D01*
X34104000Y-19875000D01*
X20865000Y-17879000D02*
X20940000Y-17804000D01*
X20865000Y-17729000D01*
X20790000Y-17804000D01*
X20865000Y-17879000D01*
X21500000Y-17625000D02*
X21575000Y-17550000D01*
X21500000Y-17475000D01*
X21425000Y-17550000D01*
X21500000Y-17625000D01*
X22815000Y-8379000D02*
X22890000Y-8304000D01*
X22815000Y-8229000D01*
X22740000Y-8304000D01*
X22815000Y-8379000D01*
X23450000Y-8125000D02*
X23525000Y-8050000D01*
X23450000Y-7975000D01*
X23375000Y-8050000D01*
X23450000Y-8125000D01*
X18865000Y-8379000D02*
X18940000Y-8304000D01*
X18865000Y-8229000D01*
X18790000Y-8304000D01*
X18865000Y-8379000D01*
X19500000Y-8125000D02*
X19575000Y-8050000D01*
X19500000Y-7975000D01*
X19425000Y-8050000D01*
X19500000Y-8125000D01*
X21365000Y-13279000D02*
X21440000Y-13204000D01*
X21365000Y-13129000D01*
X21290000Y-13204000D01*
X21365000Y-13279000D01*
X22000000Y-13025000D02*
X22075000Y-12950000D01*
X22000000Y-12875000D01*
X21925000Y-12950000D01*
X22000000Y-13025000D01*
X4515000Y-8379000D02*
X4590000Y-8304000D01*
X4515000Y-8229000D01*
X4440000Y-8304000D01*
X4515000Y-8379000D01*
X5150000Y-8125000D02*
X5225000Y-8050000D01*
X5150000Y-7975000D01*
X5075000Y-8050000D01*
X5150000Y-8125000D01*
X35469000Y-17871000D02*
X35544000Y-17796000D01*
X35469000Y-17721000D01*
X35394000Y-17796000D01*
X35469000Y-17871000D01*
X36104000Y-17617000D02*
X36179000Y-17542000D01*
X36104000Y-17467000D01*
X36029000Y-17542000D01*
X36104000Y-17617000D01*
X13815000Y-15629000D02*
X13890000Y-15554000D01*
X13815000Y-15479000D01*
X13740000Y-15554000D01*
X13815000Y-15629000D01*
X14450000Y-15375000D02*
X14525000Y-15300000D01*
X14450000Y-15225000D01*
X14375000Y-15300000D01*
X14450000Y-15375000D01*
X7815000Y-15629000D02*
X7890000Y-15554000D01*
X7815000Y-15479000D01*
X7740000Y-15554000D01*
X7815000Y-15629000D01*
X8450000Y-15375000D02*
X8525000Y-15300000D01*
X8450000Y-15225000D01*
X8375000Y-15300000D01*
X8450000Y-15375000D01*
X35465000Y-13329000D02*
X35540000Y-13254000D01*
X35465000Y-13179000D01*
X35390000Y-13254000D01*
X35465000Y-13329000D01*
X36100000Y-13075000D02*
X36175000Y-13000000D01*
X36100000Y-12925000D01*
X36025000Y-13000000D01*
X36100000Y-13075000D01*
X14869000Y-17871000D02*
X14944000Y-17796000D01*
X14869000Y-17721000D01*
X14794000Y-17796000D01*
X14869000Y-17871000D01*
X15504000Y-17617000D02*
X15579000Y-17542000D01*
X15504000Y-17467000D01*
X15429000Y-17542000D01*
X15504000Y-17617000D01*
X9415000Y-10879000D02*
X9490000Y-10804000D01*
X9415000Y-10729000D01*
X9340000Y-10804000D01*
X9415000Y-10879000D01*
X10050000Y-10625000D02*
X10125000Y-10550000D01*
X10050000Y-10475000D01*
X9975000Y-10550000D01*
X10050000Y-10625000D01*
X13365000Y-13279000D02*
X13440000Y-13204000D01*
X13365000Y-13129000D01*
X13290000Y-13204000D01*
X13365000Y-13279000D01*
X14000000Y-13025000D02*
X14075000Y-12950000D01*
X14000000Y-12875000D01*
X13925000Y-12950000D01*
X14000000Y-13025000D01*
X12869000Y-17871000D02*
X12944000Y-17796000D01*
X12869000Y-17721000D01*
X12794000Y-17796000D01*
X12869000Y-17871000D01*
X13504000Y-17617000D02*
X13579000Y-17542000D01*
X13504000Y-17467000D01*
X13429000Y-17542000D01*
X13504000Y-17617000D01*
X10215000Y-8379000D02*
X10290000Y-8304000D01*
X10215000Y-8229000D01*
X10140000Y-8304000D01*
X10215000Y-8379000D01*
X10850000Y-8125000D02*
X10925000Y-8050000D01*
X10850000Y-7975000D01*
X10775000Y-8050000D01*
X10850000Y-8125000D01*
X37465000Y-10929000D02*
X37540000Y-10854000D01*
X37465000Y-10779000D01*
X37390000Y-10854000D01*
X37465000Y-10929000D01*
X38100000Y-10675000D02*
X38175000Y-10600000D01*
X38100000Y-10525000D01*
X38025000Y-10600000D01*
X38100000Y-10675000D01*
X9269000Y-20171000D02*
X9344000Y-20096000D01*
X9269000Y-20021000D01*
X9194000Y-20096000D01*
X9269000Y-20171000D01*
X9904000Y-19917000D02*
X9979000Y-19842000D01*
X9904000Y-19767000D01*
X9829000Y-19842000D01*
X9904000Y-19917000D01*
X25365000Y-13279000D02*
X25440000Y-13204000D01*
X25365000Y-13129000D01*
X25290000Y-13204000D01*
X25365000Y-13279000D01*
X26000000Y-13025000D02*
X26075000Y-12950000D01*
X26000000Y-12875000D01*
X25925000Y-12950000D01*
X26000000Y-13025000D01*
X12215000Y-8379000D02*
X12290000Y-8304000D01*
X12215000Y-8229000D01*
X12140000Y-8304000D01*
X12215000Y-8379000D01*
X12850000Y-8125000D02*
X12925000Y-8050000D01*
X12850000Y-7975000D01*
X12775000Y-8050000D01*
X12850000Y-8125000D01*
X23815000Y-15629000D02*
X23890000Y-15554000D01*
X23815000Y-15479000D01*
X23740000Y-15554000D01*
X23815000Y-15629000D01*
X24450000Y-15375000D02*
X24525000Y-15300000D01*
X24450000Y-15225000D01*
X24375000Y-15300000D01*
X24450000Y-15375000D01*
X33519000Y-8371000D02*
X33594000Y-8296000D01*
X33519000Y-8221000D01*
X33444000Y-8296000D01*
X33519000Y-8371000D01*
X34154000Y-8117000D02*
X34229000Y-8042000D01*
X34154000Y-7967000D01*
X34079000Y-8042000D01*
X34154000Y-8117000D01*
X33465000Y-10929000D02*
X33540000Y-10854000D01*
X33465000Y-10779000D01*
X33390000Y-10854000D01*
X33465000Y-10929000D01*
X34100000Y-10675000D02*
X34175000Y-10600000D01*
X34100000Y-10525000D01*
X34025000Y-10600000D01*
X34100000Y-10675000D01*
X27515000Y-8379000D02*
X27590000Y-8304000D01*
X27515000Y-8229000D01*
X27440000Y-8304000D01*
X27515000Y-8379000D01*
X28150000Y-8125000D02*
X28225000Y-8050000D01*
X28150000Y-7975000D01*
X28075000Y-8050000D01*
X28150000Y-8125000D01*
X25415000Y-10879000D02*
X25490000Y-10804000D01*
X25415000Y-10729000D01*
X25340000Y-10804000D01*
X25415000Y-10879000D01*
X26050000Y-10625000D02*
X26125000Y-10550000D01*
X26050000Y-10475000D01*
X25975000Y-10550000D01*
X26050000Y-10625000D01*
X14219000Y-8371000D02*
X14294000Y-8296000D01*
X14219000Y-8221000D01*
X14144000Y-8296000D01*
X14219000Y-8371000D01*
X14854000Y-8117000D02*
X14929000Y-8042000D01*
X14854000Y-7967000D01*
X14779000Y-8042000D01*
X14854000Y-8117000D01*
X7365000Y-13279000D02*
X7440000Y-13204000D01*
X7365000Y-13129000D01*
X7290000Y-13204000D01*
X7365000Y-13279000D01*
X8000000Y-13025000D02*
X8075000Y-12950000D01*
X8000000Y-12875000D01*
X7925000Y-12950000D01*
X8000000Y-13025000D01*
X13415000Y-10879000D02*
X13490000Y-10804000D01*
X13415000Y-10729000D01*
X13340000Y-10804000D01*
X13415000Y-10879000D01*
X14050000Y-10625000D02*
X14125000Y-10550000D01*
X14050000Y-10475000D01*
X13975000Y-10550000D01*
X14050000Y-10625000D01*
X18269000Y-20171000D02*
X18344000Y-20096000D01*
X18269000Y-20021000D01*
X18194000Y-20096000D01*
X18269000Y-20171000D01*
X18904000Y-19917000D02*
X18979000Y-19842000D01*
X18904000Y-19767000D01*
X18829000Y-19842000D01*
X18904000Y-19917000D01*
X17815000Y-15629000D02*
X17890000Y-15554000D01*
X17815000Y-15479000D01*
X17740000Y-15554000D01*
X17815000Y-15629000D01*
X18450000Y-15375000D02*
X18525000Y-15300000D01*
X18450000Y-15225000D01*
X18375000Y-15300000D01*
X18450000Y-15375000D01*
X16869000Y-8379000D02*
X16944000Y-8304000D01*
X16869000Y-8229000D01*
X16794000Y-8304000D01*
X16869000Y-8379000D01*
X17504000Y-8125000D02*
X17579000Y-8050000D01*
X17504000Y-7975000D01*
X17429000Y-8050000D01*
X17504000Y-8125000D01*
X11815000Y-15629000D02*
X11890000Y-15554000D01*
X11815000Y-15479000D01*
X11740000Y-15554000D01*
X11815000Y-15629000D01*
X12450000Y-15375000D02*
X12525000Y-15300000D01*
X12450000Y-15225000D01*
X12375000Y-15300000D01*
X12450000Y-15375000D01*
X29819000Y-20171000D02*
X29894000Y-20096000D01*
X29819000Y-20021000D01*
X29744000Y-20096000D01*
X29819000Y-20171000D01*
X30454000Y-19917000D02*
X30529000Y-19842000D01*
X30454000Y-19767000D01*
X30379000Y-19842000D01*
X30454000Y-19917000D01*
X35469000Y-20121000D02*
X35544000Y-20046000D01*
X35469000Y-19971000D01*
X35394000Y-20046000D01*
X35469000Y-20121000D01*
X36104000Y-19867000D02*
X36179000Y-19792000D01*
X36104000Y-19717000D01*
X36029000Y-19792000D01*
X36104000Y-19867000D01*
X25269000Y-20171000D02*
X25344000Y-20096000D01*
X25269000Y-20021000D01*
X25194000Y-20096000D01*
X25269000Y-20171000D01*
X25904000Y-19917000D02*
X25979000Y-19842000D01*
X25904000Y-19767000D01*
X25829000Y-19842000D01*
X25904000Y-19917000D01*
X24865000Y-17879000D02*
X24940000Y-17804000D01*
X24865000Y-17729000D01*
X24790000Y-17804000D01*
X24865000Y-17879000D01*
X25500000Y-17625000D02*
X25575000Y-17550000D01*
X25500000Y-17475000D01*
X25425000Y-17550000D01*
X25500000Y-17625000D01*
X18869000Y-17871000D02*
X18944000Y-17796000D01*
X18869000Y-17721000D01*
X18794000Y-17796000D01*
X18869000Y-17871000D01*
X19504000Y-17617000D02*
X19579000Y-17542000D01*
X19504000Y-17467000D01*
X19429000Y-17542000D01*
X19504000Y-17617000D01*
X17365000Y-13279000D02*
X17440000Y-13204000D01*
X17365000Y-13129000D01*
X17290000Y-13204000D01*
X17365000Y-13279000D01*
X18000000Y-13025000D02*
X18075000Y-12950000D01*
X18000000Y-12875000D01*
X17925000Y-12950000D01*
X18000000Y-13025000D01*
X5819000Y-15629000D02*
X5894000Y-15554000D01*
X5819000Y-15479000D01*
X5744000Y-15554000D01*
X5819000Y-15629000D01*
X6454000Y-15375000D02*
X6529000Y-15300000D01*
X6454000Y-15225000D01*
X6379000Y-15300000D01*
X6454000Y-15375000D01*
X33465000Y-13329000D02*
X33540000Y-13254000D01*
X33465000Y-13179000D01*
X33390000Y-13254000D01*
X33465000Y-13329000D01*
X34100000Y-13075000D02*
X34175000Y-13000000D01*
X34100000Y-12925000D01*
X34025000Y-13000000D01*
X34100000Y-13075000D01*
X6869000Y-17871000D02*
X6944000Y-17796000D01*
X6869000Y-17721000D01*
X6794000Y-17796000D01*
X6869000Y-17871000D01*
X7504000Y-17617000D02*
X7579000Y-17542000D01*
X7504000Y-17467000D01*
X7429000Y-17542000D01*
X7504000Y-17617000D01*
X29869000Y-10871000D02*
X29944000Y-10796000D01*
X29869000Y-10721000D01*
X29794000Y-10796000D01*
X29869000Y-10871000D01*
X30504000Y-10617000D02*
X30579000Y-10542000D01*
X30504000Y-10467000D01*
X30429000Y-10542000D01*
X30504000Y-10617000D01*
X27815000Y-15629000D02*
X27890000Y-15554000D01*
X27815000Y-15479000D01*
X27740000Y-15554000D01*
X27815000Y-15629000D01*
X28450000Y-15375000D02*
X28525000Y-15300000D01*
X28450000Y-15225000D01*
X28375000Y-15300000D01*
X28450000Y-15375000D01*
X37477000Y-8371000D02*
X37552000Y-8296000D01*
X37477000Y-8221000D01*
X37402000Y-8296000D01*
X37477000Y-8371000D01*
X38112000Y-8117000D02*
X38187000Y-8042000D01*
X38112000Y-7967000D01*
X38037000Y-8042000D01*
X38112000Y-8117000D01*
X31519000Y-8371000D02*
X31594000Y-8296000D01*
X31519000Y-8221000D01*
X31444000Y-8296000D01*
X31519000Y-8371000D01*
X32154000Y-8117000D02*
X32229000Y-8042000D01*
X32154000Y-7967000D01*
X32079000Y-8042000D01*
X32154000Y-8117000D01*
X19365000Y-13279000D02*
X19440000Y-13204000D01*
X19365000Y-13129000D01*
X19290000Y-13204000D01*
X19365000Y-13279000D01*
X20000000Y-13025000D02*
X20075000Y-12950000D01*
X20000000Y-12875000D01*
X19925000Y-12950000D01*
X20000000Y-13025000D01*
X25515000Y-8379000D02*
X25590000Y-8304000D01*
X25515000Y-8229000D01*
X25440000Y-8304000D01*
X25515000Y-8379000D01*
X26150000Y-8125000D02*
X26225000Y-8050000D01*
X26150000Y-7975000D01*
X26075000Y-8050000D01*
X26150000Y-8125000D01*
X11365000Y-13279000D02*
X11440000Y-13204000D01*
X11365000Y-13129000D01*
X11290000Y-13204000D01*
X11365000Y-13279000D01*
X12000000Y-13025000D02*
X12075000Y-12950000D01*
X12000000Y-12875000D01*
X11925000Y-12950000D01*
X12000000Y-13025000D01*
X10869000Y-17871000D02*
X10944000Y-17796000D01*
X10869000Y-17721000D01*
X10794000Y-17796000D01*
X10869000Y-17871000D01*
X11504000Y-17617000D02*
X11579000Y-17542000D01*
X11504000Y-17467000D01*
X11429000Y-17542000D01*
X11504000Y-17617000D01*
X20865000Y-8379000D02*
X20940000Y-8304000D01*
X20865000Y-8229000D01*
X20790000Y-8304000D01*
X20865000Y-8379000D01*
X21500000Y-8125000D02*
X21575000Y-8050000D01*
X21500000Y-7975000D01*
X21425000Y-8050000D01*
X21500000Y-8125000D01*
X4869000Y-13271000D02*
X4944000Y-13196000D01*
X4869000Y-13121000D01*
X4794000Y-13196000D01*
X4869000Y-13271000D01*
X5504000Y-13017000D02*
X5579000Y-12942000D01*
X5504000Y-12867000D01*
X5429000Y-12942000D01*
X5504000Y-13017000D01*
X37420000Y-6870000D02*
X37580000Y-7030000D01*
X37580000Y-6870000D02*
X37420000Y-7030000D01*
X37580000Y-6950000D02*
G75*
G03*
X37580000Y-6950000I-80000J0D01*
G01*
X38182000Y-6870000D02*
X38342000Y-7030000D01*
X38342000Y-6870000D02*
X38182000Y-7030000D01*
X38342000Y-6950000D02*
G75*
G03*
X38342000Y-6950000I-80000J0D01*
G01*
X33420000Y-6870000D02*
X33580000Y-7030000D01*
X33580000Y-6870000D02*
X33420000Y-7030000D01*
X33580000Y-6950000D02*
G75*
G03*
X33580000Y-6950000I-80000J0D01*
G01*
X34182000Y-6870000D02*
X34342000Y-7030000D01*
X34342000Y-6870000D02*
X34182000Y-7030000D01*
X34342000Y-6950000D02*
G75*
G03*
X34342000Y-6950000I-80000J0D01*
G01*
X35320000Y-6870000D02*
X35480000Y-7030000D01*
X35480000Y-6870000D02*
X35320000Y-7030000D01*
X35480000Y-6950000D02*
G75*
G03*
X35480000Y-6950000I-80000J0D01*
G01*
X36082000Y-6870000D02*
X36242000Y-7030000D01*
X36242000Y-6870000D02*
X36082000Y-7030000D01*
X36242000Y-6950000D02*
G75*
G03*
X36242000Y-6950000I-80000J0D01*
G01*
X3025000Y-6625000D02*
X3475000Y-7075000D01*
X3475000Y-6625000D02*
X3025000Y-7075000D01*
X3250000Y-6625000D02*
X3250000Y-7075000D01*
X3025000Y-6850000D02*
X3475000Y-6850000D01*
X3025000Y-21425000D02*
X3475000Y-21875000D01*
X3475000Y-21425000D02*
X3025000Y-21875000D01*
X3250000Y-21425000D02*
X3250000Y-21875000D01*
X3025000Y-21650000D02*
X3475000Y-21650000D01*
X39275000Y-6625000D02*
X39725000Y-7075000D01*
X39725000Y-6625000D02*
X39275000Y-7075000D01*
X39500000Y-6625000D02*
X39500000Y-7075000D01*
X39275000Y-6850000D02*
X39725000Y-6850000D01*
X39275000Y-21425000D02*
X39725000Y-21875000D01*
X39725000Y-21425000D02*
X39275000Y-21875000D01*
X39500000Y-21425000D02*
X39500000Y-21875000D01*
X39275000Y-21650000D02*
X39725000Y-21650000D01*
D12*
X2783928Y-22818214D02*
X2783928Y-22518214D01*
X2855357Y-22518214D01*
X2898214Y-22532500D01*
X2926786Y-22561071D01*
X2941071Y-22589643D01*
X2955357Y-22646786D01*
X2955357Y-22689643D01*
X2941071Y-22746786D01*
X2926786Y-22775357D01*
X2898214Y-22803929D01*
X2855357Y-22818214D01*
X2783928Y-22818214D01*
X3083928Y-22818214D02*
X3083928Y-22618214D01*
X3083928Y-22675357D02*
X3098214Y-22646786D01*
X3112500Y-22632500D01*
X3141071Y-22618214D01*
X3169643Y-22618214D01*
X3269643Y-22818214D02*
X3269643Y-22618214D01*
X3269643Y-22518214D02*
X3255357Y-22532500D01*
X3269643Y-22546786D01*
X3283928Y-22532500D01*
X3269643Y-22518214D01*
X3269643Y-22546786D01*
X3455357Y-22818214D02*
X3426786Y-22803929D01*
X3412500Y-22775357D01*
X3412500Y-22518214D01*
X3612500Y-22818214D02*
X3583928Y-22803929D01*
X3569643Y-22775357D01*
X3569643Y-22518214D01*
X3955357Y-22818214D02*
X3955357Y-22518214D01*
X4055357Y-22732500D01*
X4155357Y-22518214D01*
X4155357Y-22818214D01*
X4426786Y-22818214D02*
X4426786Y-22661071D01*
X4412500Y-22632500D01*
X4383928Y-22618214D01*
X4326786Y-22618214D01*
X4298214Y-22632500D01*
X4426786Y-22803929D02*
X4398214Y-22818214D01*
X4326786Y-22818214D01*
X4298214Y-22803929D01*
X4283928Y-22775357D01*
X4283928Y-22746786D01*
X4298214Y-22718214D01*
X4326786Y-22703929D01*
X4398214Y-22703929D01*
X4426786Y-22689643D01*
X4569643Y-22618214D02*
X4569643Y-22918214D01*
X4569643Y-22632500D02*
X4598214Y-22618214D01*
X4655357Y-22618214D01*
X4683928Y-22632500D01*
X4698214Y-22646786D01*
X4712500Y-22675357D01*
X4712500Y-22761071D01*
X4698214Y-22789643D01*
X4683928Y-22803929D01*
X4655357Y-22818214D01*
X4598214Y-22818214D01*
X4569643Y-22803929D01*
X4841071Y-22789643D02*
X4855357Y-22803929D01*
X4841071Y-22818214D01*
X4826786Y-22803929D01*
X4841071Y-22789643D01*
X4841071Y-22818214D01*
X4841071Y-22632500D02*
X4855357Y-22646786D01*
X4841071Y-22661071D01*
X4826786Y-22646786D01*
X4841071Y-22632500D01*
X4841071Y-22661071D01*
X2457500Y-23292500D02*
X2497500Y-23332500D01*
X2497500Y-23292500D02*
X2457500Y-23332500D01*
X2841071Y-23148214D02*
X2869643Y-23148214D01*
X2898214Y-23162500D01*
X2912500Y-23176786D01*
X2926786Y-23205357D01*
X2941071Y-23262500D01*
X2941071Y-23333929D01*
X2926786Y-23391071D01*
X2912500Y-23419643D01*
X2898214Y-23433929D01*
X2869643Y-23448214D01*
X2841071Y-23448214D01*
X2812500Y-23433929D01*
X2798214Y-23419643D01*
X2783928Y-23391071D01*
X2769643Y-23333929D01*
X2769643Y-23262500D01*
X2783928Y-23205357D01*
X2798214Y-23176786D01*
X2812500Y-23162500D01*
X2841071Y-23148214D01*
X3069643Y-23419643D02*
X3083928Y-23433929D01*
X3069643Y-23448214D01*
X3055357Y-23433929D01*
X3069643Y-23419643D01*
X3069643Y-23448214D01*
X3341071Y-23248214D02*
X3341071Y-23448214D01*
X3269643Y-23133929D02*
X3198214Y-23348214D01*
X3383928Y-23348214D01*
X3555357Y-23148214D02*
X3583928Y-23148214D01*
X3612500Y-23162500D01*
X3626786Y-23176786D01*
X3641071Y-23205357D01*
X3655357Y-23262500D01*
X3655357Y-23333929D01*
X3641071Y-23391071D01*
X3626786Y-23419643D01*
X3612500Y-23433929D01*
X3583928Y-23448214D01*
X3555357Y-23448214D01*
X3526786Y-23433929D01*
X3512500Y-23419643D01*
X3498214Y-23391071D01*
X3483928Y-23333929D01*
X3483928Y-23262500D01*
X3498214Y-23205357D01*
X3512500Y-23176786D01*
X3526786Y-23162500D01*
X3555357Y-23148214D01*
X3783928Y-23448214D02*
X3783928Y-23248214D01*
X3783928Y-23276786D02*
X3798214Y-23262500D01*
X3826786Y-23248214D01*
X3869643Y-23248214D01*
X3898214Y-23262500D01*
X3912500Y-23291071D01*
X3912500Y-23448214D01*
X3912500Y-23291071D02*
X3926786Y-23262500D01*
X3955357Y-23248214D01*
X3998214Y-23248214D01*
X4026786Y-23262500D01*
X4041071Y-23291071D01*
X4041071Y-23448214D01*
X4183928Y-23448214D02*
X4183928Y-23248214D01*
X4183928Y-23276786D02*
X4198214Y-23262500D01*
X4226786Y-23248214D01*
X4269643Y-23248214D01*
X4298214Y-23262500D01*
X4312500Y-23291071D01*
X4312500Y-23448214D01*
X4312500Y-23291071D02*
X4326786Y-23262500D01*
X4355357Y-23248214D01*
X4398214Y-23248214D01*
X4426786Y-23262500D01*
X4441071Y-23291071D01*
X4441071Y-23448214D01*
X5026786Y-23133929D02*
X4769643Y-23519643D01*
X5412500Y-23148214D02*
X5441071Y-23148214D01*
X5469643Y-23162500D01*
X5483928Y-23176786D01*
X5498214Y-23205357D01*
X5512500Y-23262500D01*
X5512500Y-23333929D01*
X5498214Y-23391071D01*
X5483928Y-23419643D01*
X5469643Y-23433929D01*
X5441071Y-23448214D01*
X5412500Y-23448214D01*
X5383928Y-23433929D01*
X5369643Y-23419643D01*
X5355357Y-23391071D01*
X5341071Y-23333929D01*
X5341071Y-23262500D01*
X5355357Y-23205357D01*
X5369643Y-23176786D01*
X5383928Y-23162500D01*
X5412500Y-23148214D01*
X5641071Y-23419643D02*
X5655357Y-23433929D01*
X5641071Y-23448214D01*
X5626786Y-23433929D01*
X5641071Y-23419643D01*
X5641071Y-23448214D01*
X5841071Y-23148214D02*
X5869643Y-23148214D01*
X5898214Y-23162500D01*
X5912500Y-23176786D01*
X5926786Y-23205357D01*
X5941071Y-23262500D01*
X5941071Y-23333929D01*
X5926786Y-23391071D01*
X5912500Y-23419643D01*
X5898214Y-23433929D01*
X5869643Y-23448214D01*
X5841071Y-23448214D01*
X5812500Y-23433929D01*
X5798214Y-23419643D01*
X5783928Y-23391071D01*
X5769643Y-23333929D01*
X5769643Y-23262500D01*
X5783928Y-23205357D01*
X5798214Y-23176786D01*
X5812500Y-23162500D01*
X5841071Y-23148214D01*
X6226786Y-23448214D02*
X6055357Y-23448214D01*
X6141071Y-23448214D02*
X6141071Y-23148214D01*
X6112500Y-23191071D01*
X6083928Y-23219643D01*
X6055357Y-23233929D01*
X6483928Y-23148214D02*
X6426786Y-23148214D01*
X6398214Y-23162500D01*
X6383928Y-23176786D01*
X6355357Y-23219643D01*
X6341071Y-23276786D01*
X6341071Y-23391071D01*
X6355357Y-23419643D01*
X6369643Y-23433929D01*
X6398214Y-23448214D01*
X6455357Y-23448214D01*
X6483928Y-23433929D01*
X6498214Y-23419643D01*
X6512500Y-23391071D01*
X6512500Y-23319643D01*
X6498214Y-23291071D01*
X6483928Y-23276786D01*
X6455357Y-23262500D01*
X6398214Y-23262500D01*
X6369643Y-23276786D01*
X6355357Y-23291071D01*
X6341071Y-23319643D01*
X6626786Y-23148214D02*
X6626786Y-23205357D01*
X6741071Y-23148214D02*
X6741071Y-23205357D01*
X7183928Y-23562500D02*
X7169643Y-23548214D01*
X7141071Y-23505357D01*
X7126786Y-23476786D01*
X7112500Y-23433929D01*
X7098214Y-23362500D01*
X7098214Y-23305357D01*
X7112500Y-23233929D01*
X7126786Y-23191071D01*
X7141071Y-23162500D01*
X7169643Y-23119643D01*
X7183928Y-23105357D01*
X7269643Y-23148214D02*
X7455357Y-23148214D01*
X7355357Y-23262500D01*
X7398214Y-23262500D01*
X7426786Y-23276786D01*
X7441071Y-23291071D01*
X7455357Y-23319643D01*
X7455357Y-23391071D01*
X7441071Y-23419643D01*
X7426786Y-23433929D01*
X7398214Y-23448214D01*
X7312500Y-23448214D01*
X7283928Y-23433929D01*
X7269643Y-23419643D01*
X7555357Y-23148214D02*
X7755357Y-23148214D01*
X7626786Y-23448214D01*
X8098214Y-23448214D02*
X8098214Y-23148214D01*
X8226786Y-23448214D02*
X8226786Y-23291071D01*
X8212500Y-23262500D01*
X8183928Y-23248214D01*
X8141071Y-23248214D01*
X8112500Y-23262500D01*
X8098214Y-23276786D01*
X8412500Y-23448214D02*
X8383928Y-23433929D01*
X8369643Y-23419643D01*
X8355357Y-23391071D01*
X8355357Y-23305357D01*
X8369643Y-23276786D01*
X8383928Y-23262500D01*
X8412500Y-23248214D01*
X8455357Y-23248214D01*
X8483928Y-23262500D01*
X8498214Y-23276786D01*
X8512500Y-23305357D01*
X8512500Y-23391071D01*
X8498214Y-23419643D01*
X8483928Y-23433929D01*
X8455357Y-23448214D01*
X8412500Y-23448214D01*
X8683928Y-23448214D02*
X8655357Y-23433929D01*
X8641071Y-23405357D01*
X8641071Y-23148214D01*
X8912500Y-23433929D02*
X8883928Y-23448214D01*
X8826786Y-23448214D01*
X8798214Y-23433929D01*
X8783928Y-23405357D01*
X8783928Y-23291071D01*
X8798214Y-23262500D01*
X8826786Y-23248214D01*
X8883928Y-23248214D01*
X8912500Y-23262500D01*
X8926786Y-23291071D01*
X8926786Y-23319643D01*
X8783928Y-23348214D01*
X9041071Y-23433929D02*
X9069643Y-23448214D01*
X9126786Y-23448214D01*
X9155357Y-23433929D01*
X9169643Y-23405357D01*
X9169643Y-23391071D01*
X9155357Y-23362500D01*
X9126786Y-23348214D01*
X9083928Y-23348214D01*
X9055357Y-23333929D01*
X9041071Y-23305357D01*
X9041071Y-23291071D01*
X9055357Y-23262500D01*
X9083928Y-23248214D01*
X9126786Y-23248214D01*
X9155357Y-23262500D01*
X9269643Y-23562500D02*
X9283928Y-23548214D01*
X9312500Y-23505357D01*
X9326786Y-23476786D01*
X9341071Y-23433929D01*
X9355357Y-23362500D01*
X9355357Y-23305357D01*
X9341071Y-23233929D01*
X9326786Y-23191071D01*
X9312500Y-23162500D01*
X9283928Y-23119643D01*
X9269643Y-23105357D01*
X2497500Y-23708500D02*
G75*
G03*
X2497500Y-23708500I-35000J0D01*
G01*
X2841071Y-23544214D02*
X2869643Y-23544214D01*
X2898214Y-23558500D01*
X2912500Y-23572786D01*
X2926786Y-23601357D01*
X2941071Y-23658500D01*
X2941071Y-23729929D01*
X2926786Y-23787071D01*
X2912500Y-23815643D01*
X2898214Y-23829929D01*
X2869643Y-23844214D01*
X2841071Y-23844214D01*
X2812500Y-23829929D01*
X2798214Y-23815643D01*
X2783928Y-23787071D01*
X2769643Y-23729929D01*
X2769643Y-23658500D01*
X2783928Y-23601357D01*
X2798214Y-23572786D01*
X2812500Y-23558500D01*
X2841071Y-23544214D01*
X3069643Y-23815643D02*
X3083928Y-23829929D01*
X3069643Y-23844214D01*
X3055357Y-23829929D01*
X3069643Y-23815643D01*
X3069643Y-23844214D01*
X3183928Y-23544214D02*
X3383928Y-23544214D01*
X3255357Y-23844214D01*
X3555357Y-23544214D02*
X3583928Y-23544214D01*
X3612500Y-23558500D01*
X3626786Y-23572786D01*
X3641071Y-23601357D01*
X3655357Y-23658500D01*
X3655357Y-23729929D01*
X3641071Y-23787071D01*
X3626786Y-23815643D01*
X3612500Y-23829929D01*
X3583928Y-23844214D01*
X3555357Y-23844214D01*
X3526786Y-23829929D01*
X3512500Y-23815643D01*
X3498214Y-23787071D01*
X3483928Y-23729929D01*
X3483928Y-23658500D01*
X3498214Y-23601357D01*
X3512500Y-23572786D01*
X3526786Y-23558500D01*
X3555357Y-23544214D01*
X3783928Y-23844214D02*
X3783928Y-23644214D01*
X3783928Y-23672786D02*
X3798214Y-23658500D01*
X3826786Y-23644214D01*
X3869643Y-23644214D01*
X3898214Y-23658500D01*
X3912500Y-23687071D01*
X3912500Y-23844214D01*
X3912500Y-23687071D02*
X3926786Y-23658500D01*
X3955357Y-23644214D01*
X3998214Y-23644214D01*
X4026786Y-23658500D01*
X4041071Y-23687071D01*
X4041071Y-23844214D01*
X4183928Y-23844214D02*
X4183928Y-23644214D01*
X4183928Y-23672786D02*
X4198214Y-23658500D01*
X4226786Y-23644214D01*
X4269643Y-23644214D01*
X4298214Y-23658500D01*
X4312500Y-23687071D01*
X4312500Y-23844214D01*
X4312500Y-23687071D02*
X4326786Y-23658500D01*
X4355357Y-23644214D01*
X4398214Y-23644214D01*
X4426786Y-23658500D01*
X4441071Y-23687071D01*
X4441071Y-23844214D01*
X5026786Y-23529929D02*
X4769643Y-23915643D01*
X5412500Y-23544214D02*
X5441071Y-23544214D01*
X5469643Y-23558500D01*
X5483928Y-23572786D01*
X5498214Y-23601357D01*
X5512500Y-23658500D01*
X5512500Y-23729929D01*
X5498214Y-23787071D01*
X5483928Y-23815643D01*
X5469643Y-23829929D01*
X5441071Y-23844214D01*
X5412500Y-23844214D01*
X5383928Y-23829929D01*
X5369643Y-23815643D01*
X5355357Y-23787071D01*
X5341071Y-23729929D01*
X5341071Y-23658500D01*
X5355357Y-23601357D01*
X5369643Y-23572786D01*
X5383928Y-23558500D01*
X5412500Y-23544214D01*
X5641071Y-23815643D02*
X5655357Y-23829929D01*
X5641071Y-23844214D01*
X5626786Y-23829929D01*
X5641071Y-23815643D01*
X5641071Y-23844214D01*
X5841071Y-23544214D02*
X5869643Y-23544214D01*
X5898214Y-23558500D01*
X5912500Y-23572786D01*
X5926786Y-23601357D01*
X5941071Y-23658500D01*
X5941071Y-23729929D01*
X5926786Y-23787071D01*
X5912500Y-23815643D01*
X5898214Y-23829929D01*
X5869643Y-23844214D01*
X5841071Y-23844214D01*
X5812500Y-23829929D01*
X5798214Y-23815643D01*
X5783928Y-23787071D01*
X5769643Y-23729929D01*
X5769643Y-23658500D01*
X5783928Y-23601357D01*
X5798214Y-23572786D01*
X5812500Y-23558500D01*
X5841071Y-23544214D01*
X6055357Y-23572786D02*
X6069643Y-23558500D01*
X6098214Y-23544214D01*
X6169643Y-23544214D01*
X6198214Y-23558500D01*
X6212500Y-23572786D01*
X6226786Y-23601357D01*
X6226786Y-23629929D01*
X6212500Y-23672786D01*
X6041071Y-23844214D01*
X6226786Y-23844214D01*
X6398214Y-23672786D02*
X6369643Y-23658500D01*
X6355357Y-23644214D01*
X6341071Y-23615643D01*
X6341071Y-23601357D01*
X6355357Y-23572786D01*
X6369643Y-23558500D01*
X6398214Y-23544214D01*
X6455357Y-23544214D01*
X6483928Y-23558500D01*
X6498214Y-23572786D01*
X6512500Y-23601357D01*
X6512500Y-23615643D01*
X6498214Y-23644214D01*
X6483928Y-23658500D01*
X6455357Y-23672786D01*
X6398214Y-23672786D01*
X6369643Y-23687071D01*
X6355357Y-23701357D01*
X6341071Y-23729929D01*
X6341071Y-23787071D01*
X6355357Y-23815643D01*
X6369643Y-23829929D01*
X6398214Y-23844214D01*
X6455357Y-23844214D01*
X6483928Y-23829929D01*
X6498214Y-23815643D01*
X6512500Y-23787071D01*
X6512500Y-23729929D01*
X6498214Y-23701357D01*
X6483928Y-23687071D01*
X6455357Y-23672786D01*
X6626786Y-23544214D02*
X6626786Y-23601357D01*
X6741071Y-23544214D02*
X6741071Y-23601357D01*
X7183928Y-23958500D02*
X7169643Y-23944214D01*
X7141071Y-23901357D01*
X7126786Y-23872786D01*
X7112500Y-23829929D01*
X7098214Y-23758500D01*
X7098214Y-23701357D01*
X7112500Y-23629929D01*
X7126786Y-23587071D01*
X7141071Y-23558500D01*
X7169643Y-23515643D01*
X7183928Y-23501357D01*
X7426786Y-23544214D02*
X7369643Y-23544214D01*
X7341071Y-23558500D01*
X7326786Y-23572786D01*
X7298214Y-23615643D01*
X7283928Y-23672786D01*
X7283928Y-23787071D01*
X7298214Y-23815643D01*
X7312500Y-23829929D01*
X7341071Y-23844214D01*
X7398214Y-23844214D01*
X7426786Y-23829929D01*
X7441071Y-23815643D01*
X7455357Y-23787071D01*
X7455357Y-23715643D01*
X7441071Y-23687071D01*
X7426786Y-23672786D01*
X7398214Y-23658500D01*
X7341071Y-23658500D01*
X7312500Y-23672786D01*
X7298214Y-23687071D01*
X7283928Y-23715643D01*
X7812500Y-23844214D02*
X7812500Y-23544214D01*
X7941071Y-23844214D02*
X7941071Y-23687071D01*
X7926786Y-23658500D01*
X7898214Y-23644214D01*
X7855357Y-23644214D01*
X7826786Y-23658500D01*
X7812500Y-23672786D01*
X8126786Y-23844214D02*
X8098214Y-23829929D01*
X8083928Y-23815643D01*
X8069643Y-23787071D01*
X8069643Y-23701357D01*
X8083928Y-23672786D01*
X8098214Y-23658500D01*
X8126786Y-23644214D01*
X8169643Y-23644214D01*
X8198214Y-23658500D01*
X8212500Y-23672786D01*
X8226786Y-23701357D01*
X8226786Y-23787071D01*
X8212500Y-23815643D01*
X8198214Y-23829929D01*
X8169643Y-23844214D01*
X8126786Y-23844214D01*
X8398214Y-23844214D02*
X8369643Y-23829929D01*
X8355357Y-23801357D01*
X8355357Y-23544214D01*
X8626786Y-23829929D02*
X8598214Y-23844214D01*
X8541071Y-23844214D01*
X8512500Y-23829929D01*
X8498214Y-23801357D01*
X8498214Y-23687071D01*
X8512500Y-23658500D01*
X8541071Y-23644214D01*
X8598214Y-23644214D01*
X8626786Y-23658500D01*
X8641071Y-23687071D01*
X8641071Y-23715643D01*
X8498214Y-23744214D01*
X8755357Y-23829929D02*
X8783928Y-23844214D01*
X8841071Y-23844214D01*
X8869643Y-23829929D01*
X8883928Y-23801357D01*
X8883928Y-23787071D01*
X8869643Y-23758500D01*
X8841071Y-23744214D01*
X8798214Y-23744214D01*
X8769643Y-23729929D01*
X8755357Y-23701357D01*
X8755357Y-23687071D01*
X8769643Y-23658500D01*
X8798214Y-23644214D01*
X8841071Y-23644214D01*
X8869643Y-23658500D01*
X8983928Y-23958500D02*
X8998214Y-23944214D01*
X9026786Y-23901357D01*
X9041071Y-23872786D01*
X9055357Y-23829929D01*
X9069643Y-23758500D01*
X9069643Y-23701357D01*
X9055357Y-23629929D01*
X9041071Y-23587071D01*
X9026786Y-23558500D01*
X8998214Y-23515643D01*
X8983928Y-23501357D01*
X2452500Y-24059500D02*
X2452500Y-24149500D01*
X2407500Y-24104500D02*
X2497500Y-24104500D01*
X2841071Y-23940214D02*
X2869643Y-23940214D01*
X2898214Y-23954500D01*
X2912500Y-23968786D01*
X2926786Y-23997357D01*
X2941071Y-24054500D01*
X2941071Y-24125929D01*
X2926786Y-24183071D01*
X2912500Y-24211643D01*
X2898214Y-24225929D01*
X2869643Y-24240214D01*
X2841071Y-24240214D01*
X2812500Y-24225929D01*
X2798214Y-24211643D01*
X2783928Y-24183071D01*
X2769643Y-24125929D01*
X2769643Y-24054500D01*
X2783928Y-23997357D01*
X2798214Y-23968786D01*
X2812500Y-23954500D01*
X2841071Y-23940214D01*
X3069643Y-24211643D02*
X3083928Y-24225929D01*
X3069643Y-24240214D01*
X3055357Y-24225929D01*
X3069643Y-24211643D01*
X3069643Y-24240214D01*
X3226786Y-24240214D02*
X3283928Y-24240214D01*
X3312500Y-24225929D01*
X3326786Y-24211643D01*
X3355357Y-24168786D01*
X3369643Y-24111643D01*
X3369643Y-23997357D01*
X3355357Y-23968786D01*
X3341071Y-23954500D01*
X3312500Y-23940214D01*
X3255357Y-23940214D01*
X3226786Y-23954500D01*
X3212500Y-23968786D01*
X3198214Y-23997357D01*
X3198214Y-24068786D01*
X3212500Y-24097357D01*
X3226786Y-24111643D01*
X3255357Y-24125929D01*
X3312500Y-24125929D01*
X3341071Y-24111643D01*
X3355357Y-24097357D01*
X3369643Y-24068786D01*
X3555357Y-23940214D02*
X3583928Y-23940214D01*
X3612500Y-23954500D01*
X3626786Y-23968786D01*
X3641071Y-23997357D01*
X3655357Y-24054500D01*
X3655357Y-24125929D01*
X3641071Y-24183071D01*
X3626786Y-24211643D01*
X3612500Y-24225929D01*
X3583928Y-24240214D01*
X3555357Y-24240214D01*
X3526786Y-24225929D01*
X3512500Y-24211643D01*
X3498214Y-24183071D01*
X3483928Y-24125929D01*
X3483928Y-24054500D01*
X3498214Y-23997357D01*
X3512500Y-23968786D01*
X3526786Y-23954500D01*
X3555357Y-23940214D01*
X3783928Y-24240214D02*
X3783928Y-24040214D01*
X3783928Y-24068786D02*
X3798214Y-24054500D01*
X3826786Y-24040214D01*
X3869643Y-24040214D01*
X3898214Y-24054500D01*
X3912500Y-24083071D01*
X3912500Y-24240214D01*
X3912500Y-24083071D02*
X3926786Y-24054500D01*
X3955357Y-24040214D01*
X3998214Y-24040214D01*
X4026786Y-24054500D01*
X4041071Y-24083071D01*
X4041071Y-24240214D01*
X4183928Y-24240214D02*
X4183928Y-24040214D01*
X4183928Y-24068786D02*
X4198214Y-24054500D01*
X4226786Y-24040214D01*
X4269643Y-24040214D01*
X4298214Y-24054500D01*
X4312500Y-24083071D01*
X4312500Y-24240214D01*
X4312500Y-24083071D02*
X4326786Y-24054500D01*
X4355357Y-24040214D01*
X4398214Y-24040214D01*
X4426786Y-24054500D01*
X4441071Y-24083071D01*
X4441071Y-24240214D01*
X5026786Y-23925929D02*
X4769643Y-24311643D01*
X5412500Y-23940214D02*
X5441071Y-23940214D01*
X5469643Y-23954500D01*
X5483928Y-23968786D01*
X5498214Y-23997357D01*
X5512500Y-24054500D01*
X5512500Y-24125929D01*
X5498214Y-24183071D01*
X5483928Y-24211643D01*
X5469643Y-24225929D01*
X5441071Y-24240214D01*
X5412500Y-24240214D01*
X5383928Y-24225929D01*
X5369643Y-24211643D01*
X5355357Y-24183071D01*
X5341071Y-24125929D01*
X5341071Y-24054500D01*
X5355357Y-23997357D01*
X5369643Y-23968786D01*
X5383928Y-23954500D01*
X5412500Y-23940214D01*
X5641071Y-24211643D02*
X5655357Y-24225929D01*
X5641071Y-24240214D01*
X5626786Y-24225929D01*
X5641071Y-24211643D01*
X5641071Y-24240214D01*
X5841071Y-23940214D02*
X5869643Y-23940214D01*
X5898214Y-23954500D01*
X5912500Y-23968786D01*
X5926786Y-23997357D01*
X5941071Y-24054500D01*
X5941071Y-24125929D01*
X5926786Y-24183071D01*
X5912500Y-24211643D01*
X5898214Y-24225929D01*
X5869643Y-24240214D01*
X5841071Y-24240214D01*
X5812500Y-24225929D01*
X5798214Y-24211643D01*
X5783928Y-24183071D01*
X5769643Y-24125929D01*
X5769643Y-24054500D01*
X5783928Y-23997357D01*
X5798214Y-23968786D01*
X5812500Y-23954500D01*
X5841071Y-23940214D01*
X6041071Y-23940214D02*
X6226786Y-23940214D01*
X6126786Y-24054500D01*
X6169643Y-24054500D01*
X6198214Y-24068786D01*
X6212500Y-24083071D01*
X6226786Y-24111643D01*
X6226786Y-24183071D01*
X6212500Y-24211643D01*
X6198214Y-24225929D01*
X6169643Y-24240214D01*
X6083928Y-24240214D01*
X6055357Y-24225929D01*
X6041071Y-24211643D01*
X6498214Y-23940214D02*
X6355357Y-23940214D01*
X6341071Y-24083071D01*
X6355357Y-24068786D01*
X6383928Y-24054500D01*
X6455357Y-24054500D01*
X6483928Y-24068786D01*
X6498214Y-24083071D01*
X6512500Y-24111643D01*
X6512500Y-24183071D01*
X6498214Y-24211643D01*
X6483928Y-24225929D01*
X6455357Y-24240214D01*
X6383928Y-24240214D01*
X6355357Y-24225929D01*
X6341071Y-24211643D01*
X6626786Y-23940214D02*
X6626786Y-23997357D01*
X6741071Y-23940214D02*
X6741071Y-23997357D01*
X7183928Y-24354500D02*
X7169643Y-24340214D01*
X7141071Y-24297357D01*
X7126786Y-24268786D01*
X7112500Y-24225929D01*
X7098214Y-24154500D01*
X7098214Y-24097357D01*
X7112500Y-24025929D01*
X7126786Y-23983071D01*
X7141071Y-23954500D01*
X7169643Y-23911643D01*
X7183928Y-23897357D01*
X7455357Y-24240214D02*
X7283928Y-24240214D01*
X7369643Y-24240214D02*
X7369643Y-23940214D01*
X7341071Y-23983071D01*
X7312500Y-24011643D01*
X7283928Y-24025929D01*
X7712500Y-23940214D02*
X7655357Y-23940214D01*
X7626786Y-23954500D01*
X7612500Y-23968786D01*
X7583928Y-24011643D01*
X7569643Y-24068786D01*
X7569643Y-24183071D01*
X7583928Y-24211643D01*
X7598214Y-24225929D01*
X7626786Y-24240214D01*
X7683928Y-24240214D01*
X7712500Y-24225929D01*
X7726786Y-24211643D01*
X7741071Y-24183071D01*
X7741071Y-24111643D01*
X7726786Y-24083071D01*
X7712500Y-24068786D01*
X7683928Y-24054500D01*
X7626786Y-24054500D01*
X7598214Y-24068786D01*
X7583928Y-24083071D01*
X7569643Y-24111643D01*
X7998214Y-23940214D02*
X7941071Y-23940214D01*
X7912500Y-23954500D01*
X7898214Y-23968786D01*
X7869643Y-24011643D01*
X7855357Y-24068786D01*
X7855357Y-24183071D01*
X7869643Y-24211643D01*
X7883928Y-24225929D01*
X7912500Y-24240214D01*
X7969643Y-24240214D01*
X7998214Y-24225929D01*
X8012500Y-24211643D01*
X8026786Y-24183071D01*
X8026786Y-24111643D01*
X8012500Y-24083071D01*
X7998214Y-24068786D01*
X7969643Y-24054500D01*
X7912500Y-24054500D01*
X7883928Y-24068786D01*
X7869643Y-24083071D01*
X7855357Y-24111643D01*
X8383928Y-24240214D02*
X8383928Y-23940214D01*
X8512500Y-24240214D02*
X8512500Y-24083071D01*
X8498214Y-24054500D01*
X8469643Y-24040214D01*
X8426786Y-24040214D01*
X8398214Y-24054500D01*
X8383928Y-24068786D01*
X8698214Y-24240214D02*
X8669643Y-24225929D01*
X8655357Y-24211643D01*
X8641071Y-24183071D01*
X8641071Y-24097357D01*
X8655357Y-24068786D01*
X8669643Y-24054500D01*
X8698214Y-24040214D01*
X8741071Y-24040214D01*
X8769643Y-24054500D01*
X8783928Y-24068786D01*
X8798214Y-24097357D01*
X8798214Y-24183071D01*
X8783928Y-24211643D01*
X8769643Y-24225929D01*
X8741071Y-24240214D01*
X8698214Y-24240214D01*
X8969643Y-24240214D02*
X8941071Y-24225929D01*
X8926786Y-24197357D01*
X8926786Y-23940214D01*
X9198214Y-24225929D02*
X9169643Y-24240214D01*
X9112500Y-24240214D01*
X9083928Y-24225929D01*
X9069643Y-24197357D01*
X9069643Y-24083071D01*
X9083928Y-24054500D01*
X9112500Y-24040214D01*
X9169643Y-24040214D01*
X9198214Y-24054500D01*
X9212500Y-24083071D01*
X9212500Y-24111643D01*
X9069643Y-24140214D01*
X9326786Y-24225929D02*
X9355357Y-24240214D01*
X9412500Y-24240214D01*
X9441071Y-24225929D01*
X9455357Y-24197357D01*
X9455357Y-24183071D01*
X9441071Y-24154500D01*
X9412500Y-24140214D01*
X9369643Y-24140214D01*
X9341071Y-24125929D01*
X9326786Y-24097357D01*
X9326786Y-24083071D01*
X9341071Y-24054500D01*
X9369643Y-24040214D01*
X9412500Y-24040214D01*
X9441071Y-24054500D01*
X9555357Y-24354500D02*
X9569643Y-24340214D01*
X9598214Y-24297357D01*
X9612500Y-24268786D01*
X9626786Y-24225929D01*
X9641071Y-24154500D01*
X9641071Y-24097357D01*
X9626786Y-24025929D01*
X9612500Y-23983071D01*
X9598214Y-23954500D01*
X9569643Y-23911643D01*
X9555357Y-23897357D01*
X2481391Y-24539391D02*
X2481391Y-24461609D01*
X2403609Y-24461609D01*
X2403609Y-24539391D01*
X2481391Y-24539391D01*
X2941071Y-24636214D02*
X2769643Y-24636214D01*
X2855357Y-24636214D02*
X2855357Y-24336214D01*
X2826786Y-24379071D01*
X2798214Y-24407643D01*
X2769643Y-24421929D01*
X3069643Y-24607643D02*
X3083928Y-24621929D01*
X3069643Y-24636214D01*
X3055357Y-24621929D01*
X3069643Y-24607643D01*
X3069643Y-24636214D01*
X3369643Y-24636214D02*
X3198214Y-24636214D01*
X3283928Y-24636214D02*
X3283928Y-24336214D01*
X3255357Y-24379071D01*
X3226786Y-24407643D01*
X3198214Y-24421929D01*
X3555357Y-24336214D02*
X3583928Y-24336214D01*
X3612500Y-24350500D01*
X3626786Y-24364786D01*
X3641071Y-24393357D01*
X3655357Y-24450500D01*
X3655357Y-24521929D01*
X3641071Y-24579071D01*
X3626786Y-24607643D01*
X3612500Y-24621929D01*
X3583928Y-24636214D01*
X3555357Y-24636214D01*
X3526786Y-24621929D01*
X3512500Y-24607643D01*
X3498214Y-24579071D01*
X3483928Y-24521929D01*
X3483928Y-24450500D01*
X3498214Y-24393357D01*
X3512500Y-24364786D01*
X3526786Y-24350500D01*
X3555357Y-24336214D01*
X3783928Y-24636214D02*
X3783928Y-24436214D01*
X3783928Y-24464786D02*
X3798214Y-24450500D01*
X3826786Y-24436214D01*
X3869643Y-24436214D01*
X3898214Y-24450500D01*
X3912500Y-24479071D01*
X3912500Y-24636214D01*
X3912500Y-24479071D02*
X3926786Y-24450500D01*
X3955357Y-24436214D01*
X3998214Y-24436214D01*
X4026786Y-24450500D01*
X4041071Y-24479071D01*
X4041071Y-24636214D01*
X4183928Y-24636214D02*
X4183928Y-24436214D01*
X4183928Y-24464786D02*
X4198214Y-24450500D01*
X4226786Y-24436214D01*
X4269643Y-24436214D01*
X4298214Y-24450500D01*
X4312500Y-24479071D01*
X4312500Y-24636214D01*
X4312500Y-24479071D02*
X4326786Y-24450500D01*
X4355357Y-24436214D01*
X4398214Y-24436214D01*
X4426786Y-24450500D01*
X4441071Y-24479071D01*
X4441071Y-24636214D01*
X5026786Y-24321929D02*
X4769643Y-24707643D01*
X5412500Y-24336214D02*
X5441071Y-24336214D01*
X5469643Y-24350500D01*
X5483928Y-24364786D01*
X5498214Y-24393357D01*
X5512500Y-24450500D01*
X5512500Y-24521929D01*
X5498214Y-24579071D01*
X5483928Y-24607643D01*
X5469643Y-24621929D01*
X5441071Y-24636214D01*
X5412500Y-24636214D01*
X5383928Y-24621929D01*
X5369643Y-24607643D01*
X5355357Y-24579071D01*
X5341071Y-24521929D01*
X5341071Y-24450500D01*
X5355357Y-24393357D01*
X5369643Y-24364786D01*
X5383928Y-24350500D01*
X5412500Y-24336214D01*
X5641071Y-24607643D02*
X5655357Y-24621929D01*
X5641071Y-24636214D01*
X5626786Y-24621929D01*
X5641071Y-24607643D01*
X5641071Y-24636214D01*
X5841071Y-24336214D02*
X5869643Y-24336214D01*
X5898214Y-24350500D01*
X5912500Y-24364786D01*
X5926786Y-24393357D01*
X5941071Y-24450500D01*
X5941071Y-24521929D01*
X5926786Y-24579071D01*
X5912500Y-24607643D01*
X5898214Y-24621929D01*
X5869643Y-24636214D01*
X5841071Y-24636214D01*
X5812500Y-24621929D01*
X5798214Y-24607643D01*
X5783928Y-24579071D01*
X5769643Y-24521929D01*
X5769643Y-24450500D01*
X5783928Y-24393357D01*
X5798214Y-24364786D01*
X5812500Y-24350500D01*
X5841071Y-24336214D01*
X6198214Y-24436214D02*
X6198214Y-24636214D01*
X6126786Y-24321929D02*
X6055357Y-24536214D01*
X6241071Y-24536214D01*
X6326786Y-24336214D02*
X6512500Y-24336214D01*
X6412500Y-24450500D01*
X6455357Y-24450500D01*
X6483928Y-24464786D01*
X6498214Y-24479071D01*
X6512500Y-24507643D01*
X6512500Y-24579071D01*
X6498214Y-24607643D01*
X6483928Y-24621929D01*
X6455357Y-24636214D01*
X6369643Y-24636214D01*
X6341071Y-24621929D01*
X6326786Y-24607643D01*
X6626786Y-24336214D02*
X6626786Y-24393357D01*
X6741071Y-24336214D02*
X6741071Y-24393357D01*
X7183928Y-24750500D02*
X7169643Y-24736214D01*
X7141071Y-24693357D01*
X7126786Y-24664786D01*
X7112500Y-24621929D01*
X7098214Y-24550500D01*
X7098214Y-24493357D01*
X7112500Y-24421929D01*
X7126786Y-24379071D01*
X7141071Y-24350500D01*
X7169643Y-24307643D01*
X7183928Y-24293357D01*
X7426786Y-24436214D02*
X7426786Y-24636214D01*
X7355357Y-24321929D02*
X7283928Y-24536214D01*
X7469643Y-24536214D01*
X7555357Y-24336214D02*
X7741071Y-24336214D01*
X7641071Y-24450500D01*
X7683928Y-24450500D01*
X7712500Y-24464786D01*
X7726786Y-24479071D01*
X7741071Y-24507643D01*
X7741071Y-24579071D01*
X7726786Y-24607643D01*
X7712500Y-24621929D01*
X7683928Y-24636214D01*
X7598214Y-24636214D01*
X7569643Y-24621929D01*
X7555357Y-24607643D01*
X8098214Y-24636214D02*
X8098214Y-24336214D01*
X8226786Y-24636214D02*
X8226786Y-24479071D01*
X8212500Y-24450500D01*
X8183928Y-24436214D01*
X8141071Y-24436214D01*
X8112500Y-24450500D01*
X8098214Y-24464786D01*
X8412500Y-24636214D02*
X8383928Y-24621929D01*
X8369643Y-24607643D01*
X8355357Y-24579071D01*
X8355357Y-24493357D01*
X8369643Y-24464786D01*
X8383928Y-24450500D01*
X8412500Y-24436214D01*
X8455357Y-24436214D01*
X8483928Y-24450500D01*
X8498214Y-24464786D01*
X8512500Y-24493357D01*
X8512500Y-24579071D01*
X8498214Y-24607643D01*
X8483928Y-24621929D01*
X8455357Y-24636214D01*
X8412500Y-24636214D01*
X8683928Y-24636214D02*
X8655357Y-24621929D01*
X8641071Y-24593357D01*
X8641071Y-24336214D01*
X8912500Y-24621929D02*
X8883928Y-24636214D01*
X8826786Y-24636214D01*
X8798214Y-24621929D01*
X8783928Y-24593357D01*
X8783928Y-24479071D01*
X8798214Y-24450500D01*
X8826786Y-24436214D01*
X8883928Y-24436214D01*
X8912500Y-24450500D01*
X8926786Y-24479071D01*
X8926786Y-24507643D01*
X8783928Y-24536214D01*
X9041071Y-24621929D02*
X9069643Y-24636214D01*
X9126786Y-24636214D01*
X9155357Y-24621929D01*
X9169643Y-24593357D01*
X9169643Y-24579071D01*
X9155357Y-24550500D01*
X9126786Y-24536214D01*
X9083928Y-24536214D01*
X9055357Y-24521929D01*
X9041071Y-24493357D01*
X9041071Y-24479071D01*
X9055357Y-24450500D01*
X9083928Y-24436214D01*
X9126786Y-24436214D01*
X9155357Y-24450500D01*
X9269643Y-24750500D02*
X9283928Y-24736214D01*
X9312500Y-24693357D01*
X9326786Y-24664786D01*
X9341071Y-24621929D01*
X9355357Y-24550500D01*
X9355357Y-24493357D01*
X9341071Y-24421929D01*
X9326786Y-24379071D01*
X9312500Y-24350500D01*
X9283928Y-24307643D01*
X9269643Y-24293357D01*
X2422500Y-24971500D02*
X2497500Y-24896500D01*
X2422500Y-24821500D01*
X2347500Y-24896500D01*
X2422500Y-24971500D01*
X2941071Y-25032214D02*
X2769643Y-25032214D01*
X2855357Y-25032214D02*
X2855357Y-24732214D01*
X2826786Y-24775071D01*
X2798214Y-24803643D01*
X2769643Y-24817929D01*
X3069643Y-25003643D02*
X3083928Y-25017929D01*
X3069643Y-25032214D01*
X3055357Y-25017929D01*
X3069643Y-25003643D01*
X3069643Y-25032214D01*
X3355357Y-24732214D02*
X3212500Y-24732214D01*
X3198214Y-24875071D01*
X3212500Y-24860786D01*
X3241071Y-24846500D01*
X3312500Y-24846500D01*
X3341071Y-24860786D01*
X3355357Y-24875071D01*
X3369643Y-24903643D01*
X3369643Y-24975071D01*
X3355357Y-25003643D01*
X3341071Y-25017929D01*
X3312500Y-25032214D01*
X3241071Y-25032214D01*
X3212500Y-25017929D01*
X3198214Y-25003643D01*
X3555357Y-24732214D02*
X3583928Y-24732214D01*
X3612500Y-24746500D01*
X3626786Y-24760786D01*
X3641071Y-24789357D01*
X3655357Y-24846500D01*
X3655357Y-24917929D01*
X3641071Y-24975071D01*
X3626786Y-25003643D01*
X3612500Y-25017929D01*
X3583928Y-25032214D01*
X3555357Y-25032214D01*
X3526786Y-25017929D01*
X3512500Y-25003643D01*
X3498214Y-24975071D01*
X3483928Y-24917929D01*
X3483928Y-24846500D01*
X3498214Y-24789357D01*
X3512500Y-24760786D01*
X3526786Y-24746500D01*
X3555357Y-24732214D01*
X3783928Y-25032214D02*
X3783928Y-24832214D01*
X3783928Y-24860786D02*
X3798214Y-24846500D01*
X3826786Y-24832214D01*
X3869643Y-24832214D01*
X3898214Y-24846500D01*
X3912500Y-24875071D01*
X3912500Y-25032214D01*
X3912500Y-24875071D02*
X3926786Y-24846500D01*
X3955357Y-24832214D01*
X3998214Y-24832214D01*
X4026786Y-24846500D01*
X4041071Y-24875071D01*
X4041071Y-25032214D01*
X4183928Y-25032214D02*
X4183928Y-24832214D01*
X4183928Y-24860786D02*
X4198214Y-24846500D01*
X4226786Y-24832214D01*
X4269643Y-24832214D01*
X4298214Y-24846500D01*
X4312500Y-24875071D01*
X4312500Y-25032214D01*
X4312500Y-24875071D02*
X4326786Y-24846500D01*
X4355357Y-24832214D01*
X4398214Y-24832214D01*
X4426786Y-24846500D01*
X4441071Y-24875071D01*
X4441071Y-25032214D01*
X5026786Y-24717929D02*
X4769643Y-25103643D01*
X5412500Y-24732214D02*
X5441071Y-24732214D01*
X5469643Y-24746500D01*
X5483928Y-24760786D01*
X5498214Y-24789357D01*
X5512500Y-24846500D01*
X5512500Y-24917929D01*
X5498214Y-24975071D01*
X5483928Y-25003643D01*
X5469643Y-25017929D01*
X5441071Y-25032214D01*
X5412500Y-25032214D01*
X5383928Y-25017929D01*
X5369643Y-25003643D01*
X5355357Y-24975071D01*
X5341071Y-24917929D01*
X5341071Y-24846500D01*
X5355357Y-24789357D01*
X5369643Y-24760786D01*
X5383928Y-24746500D01*
X5412500Y-24732214D01*
X5641071Y-25003643D02*
X5655357Y-25017929D01*
X5641071Y-25032214D01*
X5626786Y-25017929D01*
X5641071Y-25003643D01*
X5641071Y-25032214D01*
X5841071Y-24732214D02*
X5869643Y-24732214D01*
X5898214Y-24746500D01*
X5912500Y-24760786D01*
X5926786Y-24789357D01*
X5941071Y-24846500D01*
X5941071Y-24917929D01*
X5926786Y-24975071D01*
X5912500Y-25003643D01*
X5898214Y-25017929D01*
X5869643Y-25032214D01*
X5841071Y-25032214D01*
X5812500Y-25017929D01*
X5798214Y-25003643D01*
X5783928Y-24975071D01*
X5769643Y-24917929D01*
X5769643Y-24846500D01*
X5783928Y-24789357D01*
X5798214Y-24760786D01*
X5812500Y-24746500D01*
X5841071Y-24732214D01*
X6212500Y-24732214D02*
X6069643Y-24732214D01*
X6055357Y-24875071D01*
X6069643Y-24860786D01*
X6098214Y-24846500D01*
X6169643Y-24846500D01*
X6198214Y-24860786D01*
X6212500Y-24875071D01*
X6226786Y-24903643D01*
X6226786Y-24975071D01*
X6212500Y-25003643D01*
X6198214Y-25017929D01*
X6169643Y-25032214D01*
X6098214Y-25032214D01*
X6069643Y-25017929D01*
X6055357Y-25003643D01*
X6369643Y-25032214D02*
X6426786Y-25032214D01*
X6455357Y-25017929D01*
X6469643Y-25003643D01*
X6498214Y-24960786D01*
X6512500Y-24903643D01*
X6512500Y-24789357D01*
X6498214Y-24760786D01*
X6483928Y-24746500D01*
X6455357Y-24732214D01*
X6398214Y-24732214D01*
X6369643Y-24746500D01*
X6355357Y-24760786D01*
X6341071Y-24789357D01*
X6341071Y-24860786D01*
X6355357Y-24889357D01*
X6369643Y-24903643D01*
X6398214Y-24917929D01*
X6455357Y-24917929D01*
X6483928Y-24903643D01*
X6498214Y-24889357D01*
X6512500Y-24860786D01*
X6626786Y-24732214D02*
X6626786Y-24789357D01*
X6741071Y-24732214D02*
X6741071Y-24789357D01*
X7183928Y-25146500D02*
X7169643Y-25132214D01*
X7141071Y-25089357D01*
X7126786Y-25060786D01*
X7112500Y-25017929D01*
X7098214Y-24946500D01*
X7098214Y-24889357D01*
X7112500Y-24817929D01*
X7126786Y-24775071D01*
X7141071Y-24746500D01*
X7169643Y-24703643D01*
X7183928Y-24689357D01*
X7455357Y-25032214D02*
X7283928Y-25032214D01*
X7369643Y-25032214D02*
X7369643Y-24732214D01*
X7341071Y-24775071D01*
X7312500Y-24803643D01*
X7283928Y-24817929D01*
X7712500Y-24732214D02*
X7655357Y-24732214D01*
X7626786Y-24746500D01*
X7612500Y-24760786D01*
X7583928Y-24803643D01*
X7569643Y-24860786D01*
X7569643Y-24975071D01*
X7583928Y-25003643D01*
X7598214Y-25017929D01*
X7626786Y-25032214D01*
X7683928Y-25032214D01*
X7712500Y-25017929D01*
X7726786Y-25003643D01*
X7741071Y-24975071D01*
X7741071Y-24903643D01*
X7726786Y-24875071D01*
X7712500Y-24860786D01*
X7683928Y-24846500D01*
X7626786Y-24846500D01*
X7598214Y-24860786D01*
X7583928Y-24875071D01*
X7569643Y-24903643D01*
X7998214Y-24732214D02*
X7941071Y-24732214D01*
X7912500Y-24746500D01*
X7898214Y-24760786D01*
X7869643Y-24803643D01*
X7855357Y-24860786D01*
X7855357Y-24975071D01*
X7869643Y-25003643D01*
X7883928Y-25017929D01*
X7912500Y-25032214D01*
X7969643Y-25032214D01*
X7998214Y-25017929D01*
X8012500Y-25003643D01*
X8026786Y-24975071D01*
X8026786Y-24903643D01*
X8012500Y-24875071D01*
X7998214Y-24860786D01*
X7969643Y-24846500D01*
X7912500Y-24846500D01*
X7883928Y-24860786D01*
X7869643Y-24875071D01*
X7855357Y-24903643D01*
X8383928Y-25032214D02*
X8383928Y-24732214D01*
X8512500Y-25032214D02*
X8512500Y-24875071D01*
X8498214Y-24846500D01*
X8469643Y-24832214D01*
X8426786Y-24832214D01*
X8398214Y-24846500D01*
X8383928Y-24860786D01*
X8698214Y-25032214D02*
X8669643Y-25017929D01*
X8655357Y-25003643D01*
X8641071Y-24975071D01*
X8641071Y-24889357D01*
X8655357Y-24860786D01*
X8669643Y-24846500D01*
X8698214Y-24832214D01*
X8741071Y-24832214D01*
X8769643Y-24846500D01*
X8783928Y-24860786D01*
X8798214Y-24889357D01*
X8798214Y-24975071D01*
X8783928Y-25003643D01*
X8769643Y-25017929D01*
X8741071Y-25032214D01*
X8698214Y-25032214D01*
X8969643Y-25032214D02*
X8941071Y-25017929D01*
X8926786Y-24989357D01*
X8926786Y-24732214D01*
X9198214Y-25017929D02*
X9169643Y-25032214D01*
X9112500Y-25032214D01*
X9083928Y-25017929D01*
X9069643Y-24989357D01*
X9069643Y-24875071D01*
X9083928Y-24846500D01*
X9112500Y-24832214D01*
X9169643Y-24832214D01*
X9198214Y-24846500D01*
X9212500Y-24875071D01*
X9212500Y-24903643D01*
X9069643Y-24932214D01*
X9326786Y-25017929D02*
X9355357Y-25032214D01*
X9412500Y-25032214D01*
X9441071Y-25017929D01*
X9455357Y-24989357D01*
X9455357Y-24975071D01*
X9441071Y-24946500D01*
X9412500Y-24932214D01*
X9369643Y-24932214D01*
X9341071Y-24917929D01*
X9326786Y-24889357D01*
X9326786Y-24875071D01*
X9341071Y-24846500D01*
X9369643Y-24832214D01*
X9412500Y-24832214D01*
X9441071Y-24846500D01*
X9555357Y-25146500D02*
X9569643Y-25132214D01*
X9598214Y-25089357D01*
X9612500Y-25060786D01*
X9626786Y-25017929D01*
X9641071Y-24946500D01*
X9641071Y-24889357D01*
X9626786Y-24817929D01*
X9612500Y-24775071D01*
X9598214Y-24746500D01*
X9569643Y-24703643D01*
X9555357Y-24689357D01*
X2337500Y-25212500D02*
X2497500Y-25372500D01*
X2497500Y-25212500D02*
X2337500Y-25372500D01*
X2497500Y-25292500D02*
G75*
G03*
X2497500Y-25292500I-80000J0D01*
G01*
X2941071Y-25428214D02*
X2769643Y-25428214D01*
X2855357Y-25428214D02*
X2855357Y-25128214D01*
X2826786Y-25171071D01*
X2798214Y-25199643D01*
X2769643Y-25213929D01*
X3069643Y-25399643D02*
X3083928Y-25413929D01*
X3069643Y-25428214D01*
X3055357Y-25413929D01*
X3069643Y-25399643D01*
X3069643Y-25428214D01*
X3341071Y-25128214D02*
X3283928Y-25128214D01*
X3255357Y-25142500D01*
X3241071Y-25156786D01*
X3212500Y-25199643D01*
X3198214Y-25256786D01*
X3198214Y-25371071D01*
X3212500Y-25399643D01*
X3226786Y-25413929D01*
X3255357Y-25428214D01*
X3312500Y-25428214D01*
X3341071Y-25413929D01*
X3355357Y-25399643D01*
X3369643Y-25371071D01*
X3369643Y-25299643D01*
X3355357Y-25271071D01*
X3341071Y-25256786D01*
X3312500Y-25242500D01*
X3255357Y-25242500D01*
X3226786Y-25256786D01*
X3212500Y-25271071D01*
X3198214Y-25299643D01*
X3555357Y-25128214D02*
X3583928Y-25128214D01*
X3612500Y-25142500D01*
X3626786Y-25156786D01*
X3641071Y-25185357D01*
X3655357Y-25242500D01*
X3655357Y-25313929D01*
X3641071Y-25371071D01*
X3626786Y-25399643D01*
X3612500Y-25413929D01*
X3583928Y-25428214D01*
X3555357Y-25428214D01*
X3526786Y-25413929D01*
X3512500Y-25399643D01*
X3498214Y-25371071D01*
X3483928Y-25313929D01*
X3483928Y-25242500D01*
X3498214Y-25185357D01*
X3512500Y-25156786D01*
X3526786Y-25142500D01*
X3555357Y-25128214D01*
X3783928Y-25428214D02*
X3783928Y-25228214D01*
X3783928Y-25256786D02*
X3798214Y-25242500D01*
X3826786Y-25228214D01*
X3869643Y-25228214D01*
X3898214Y-25242500D01*
X3912500Y-25271071D01*
X3912500Y-25428214D01*
X3912500Y-25271071D02*
X3926786Y-25242500D01*
X3955357Y-25228214D01*
X3998214Y-25228214D01*
X4026786Y-25242500D01*
X4041071Y-25271071D01*
X4041071Y-25428214D01*
X4183928Y-25428214D02*
X4183928Y-25228214D01*
X4183928Y-25256786D02*
X4198214Y-25242500D01*
X4226786Y-25228214D01*
X4269643Y-25228214D01*
X4298214Y-25242500D01*
X4312500Y-25271071D01*
X4312500Y-25428214D01*
X4312500Y-25271071D02*
X4326786Y-25242500D01*
X4355357Y-25228214D01*
X4398214Y-25228214D01*
X4426786Y-25242500D01*
X4441071Y-25271071D01*
X4441071Y-25428214D01*
X5026786Y-25113929D02*
X4769643Y-25499643D01*
X5412500Y-25128214D02*
X5441071Y-25128214D01*
X5469643Y-25142500D01*
X5483928Y-25156786D01*
X5498214Y-25185357D01*
X5512500Y-25242500D01*
X5512500Y-25313929D01*
X5498214Y-25371071D01*
X5483928Y-25399643D01*
X5469643Y-25413929D01*
X5441071Y-25428214D01*
X5412500Y-25428214D01*
X5383928Y-25413929D01*
X5369643Y-25399643D01*
X5355357Y-25371071D01*
X5341071Y-25313929D01*
X5341071Y-25242500D01*
X5355357Y-25185357D01*
X5369643Y-25156786D01*
X5383928Y-25142500D01*
X5412500Y-25128214D01*
X5641071Y-25399643D02*
X5655357Y-25413929D01*
X5641071Y-25428214D01*
X5626786Y-25413929D01*
X5641071Y-25399643D01*
X5641071Y-25428214D01*
X5841071Y-25128214D02*
X5869643Y-25128214D01*
X5898214Y-25142500D01*
X5912500Y-25156786D01*
X5926786Y-25185357D01*
X5941071Y-25242500D01*
X5941071Y-25313929D01*
X5926786Y-25371071D01*
X5912500Y-25399643D01*
X5898214Y-25413929D01*
X5869643Y-25428214D01*
X5841071Y-25428214D01*
X5812500Y-25413929D01*
X5798214Y-25399643D01*
X5783928Y-25371071D01*
X5769643Y-25313929D01*
X5769643Y-25242500D01*
X5783928Y-25185357D01*
X5798214Y-25156786D01*
X5812500Y-25142500D01*
X5841071Y-25128214D01*
X6198214Y-25128214D02*
X6141071Y-25128214D01*
X6112500Y-25142500D01*
X6098214Y-25156786D01*
X6069643Y-25199643D01*
X6055357Y-25256786D01*
X6055357Y-25371071D01*
X6069643Y-25399643D01*
X6083928Y-25413929D01*
X6112500Y-25428214D01*
X6169643Y-25428214D01*
X6198214Y-25413929D01*
X6212500Y-25399643D01*
X6226786Y-25371071D01*
X6226786Y-25299643D01*
X6212500Y-25271071D01*
X6198214Y-25256786D01*
X6169643Y-25242500D01*
X6112500Y-25242500D01*
X6083928Y-25256786D01*
X6069643Y-25271071D01*
X6055357Y-25299643D01*
X6326786Y-25128214D02*
X6512500Y-25128214D01*
X6412500Y-25242500D01*
X6455357Y-25242500D01*
X6483928Y-25256786D01*
X6498214Y-25271071D01*
X6512500Y-25299643D01*
X6512500Y-25371071D01*
X6498214Y-25399643D01*
X6483928Y-25413929D01*
X6455357Y-25428214D01*
X6369643Y-25428214D01*
X6341071Y-25413929D01*
X6326786Y-25399643D01*
X6626786Y-25128214D02*
X6626786Y-25185357D01*
X6741071Y-25128214D02*
X6741071Y-25185357D01*
X7183928Y-25542500D02*
X7169643Y-25528214D01*
X7141071Y-25485357D01*
X7126786Y-25456786D01*
X7112500Y-25413929D01*
X7098214Y-25342500D01*
X7098214Y-25285357D01*
X7112500Y-25213929D01*
X7126786Y-25171071D01*
X7141071Y-25142500D01*
X7169643Y-25099643D01*
X7183928Y-25085357D01*
X7426786Y-25128214D02*
X7369643Y-25128214D01*
X7341071Y-25142500D01*
X7326786Y-25156786D01*
X7298214Y-25199643D01*
X7283928Y-25256786D01*
X7283928Y-25371071D01*
X7298214Y-25399643D01*
X7312500Y-25413929D01*
X7341071Y-25428214D01*
X7398214Y-25428214D01*
X7426786Y-25413929D01*
X7441071Y-25399643D01*
X7455357Y-25371071D01*
X7455357Y-25299643D01*
X7441071Y-25271071D01*
X7426786Y-25256786D01*
X7398214Y-25242500D01*
X7341071Y-25242500D01*
X7312500Y-25256786D01*
X7298214Y-25271071D01*
X7283928Y-25299643D01*
X7812500Y-25428214D02*
X7812500Y-25128214D01*
X7941071Y-25428214D02*
X7941071Y-25271071D01*
X7926786Y-25242500D01*
X7898214Y-25228214D01*
X7855357Y-25228214D01*
X7826786Y-25242500D01*
X7812500Y-25256786D01*
X8126786Y-25428214D02*
X8098214Y-25413929D01*
X8083928Y-25399643D01*
X8069643Y-25371071D01*
X8069643Y-25285357D01*
X8083928Y-25256786D01*
X8098214Y-25242500D01*
X8126786Y-25228214D01*
X8169643Y-25228214D01*
X8198214Y-25242500D01*
X8212500Y-25256786D01*
X8226786Y-25285357D01*
X8226786Y-25371071D01*
X8212500Y-25399643D01*
X8198214Y-25413929D01*
X8169643Y-25428214D01*
X8126786Y-25428214D01*
X8398214Y-25428214D02*
X8369643Y-25413929D01*
X8355357Y-25385357D01*
X8355357Y-25128214D01*
X8626786Y-25413929D02*
X8598214Y-25428214D01*
X8541071Y-25428214D01*
X8512500Y-25413929D01*
X8498214Y-25385357D01*
X8498214Y-25271071D01*
X8512500Y-25242500D01*
X8541071Y-25228214D01*
X8598214Y-25228214D01*
X8626786Y-25242500D01*
X8641071Y-25271071D01*
X8641071Y-25299643D01*
X8498214Y-25328214D01*
X8755357Y-25413929D02*
X8783928Y-25428214D01*
X8841071Y-25428214D01*
X8869643Y-25413929D01*
X8883928Y-25385357D01*
X8883928Y-25371071D01*
X8869643Y-25342500D01*
X8841071Y-25328214D01*
X8798214Y-25328214D01*
X8769643Y-25313929D01*
X8755357Y-25285357D01*
X8755357Y-25271071D01*
X8769643Y-25242500D01*
X8798214Y-25228214D01*
X8841071Y-25228214D01*
X8869643Y-25242500D01*
X8983928Y-25542500D02*
X8998214Y-25528214D01*
X9026786Y-25485357D01*
X9041071Y-25456786D01*
X9055357Y-25413929D01*
X9069643Y-25342500D01*
X9069643Y-25285357D01*
X9055357Y-25213929D01*
X9041071Y-25171071D01*
X9026786Y-25142500D01*
X8998214Y-25099643D01*
X8983928Y-25085357D01*
X2047500Y-25463500D02*
X2497500Y-25913500D01*
X2497500Y-25463500D02*
X2047500Y-25913500D01*
X2272500Y-25463500D02*
X2272500Y-25913500D01*
X2047500Y-25688500D02*
X2497500Y-25688500D01*
X2912500Y-25624214D02*
X2912500Y-25824214D01*
X2841071Y-25509929D02*
X2769643Y-25724214D01*
X2955357Y-25724214D01*
X3069643Y-25795643D02*
X3083928Y-25809929D01*
X3069643Y-25824214D01*
X3055357Y-25809929D01*
X3069643Y-25795643D01*
X3069643Y-25824214D01*
X3355357Y-25524214D02*
X3212500Y-25524214D01*
X3198214Y-25667071D01*
X3212500Y-25652786D01*
X3241071Y-25638500D01*
X3312500Y-25638500D01*
X3341071Y-25652786D01*
X3355357Y-25667071D01*
X3369643Y-25695643D01*
X3369643Y-25767071D01*
X3355357Y-25795643D01*
X3341071Y-25809929D01*
X3312500Y-25824214D01*
X3241071Y-25824214D01*
X3212500Y-25809929D01*
X3198214Y-25795643D01*
X3555357Y-25524214D02*
X3583928Y-25524214D01*
X3612500Y-25538500D01*
X3626786Y-25552786D01*
X3641071Y-25581357D01*
X3655357Y-25638500D01*
X3655357Y-25709929D01*
X3641071Y-25767071D01*
X3626786Y-25795643D01*
X3612500Y-25809929D01*
X3583928Y-25824214D01*
X3555357Y-25824214D01*
X3526786Y-25809929D01*
X3512500Y-25795643D01*
X3498214Y-25767071D01*
X3483928Y-25709929D01*
X3483928Y-25638500D01*
X3498214Y-25581357D01*
X3512500Y-25552786D01*
X3526786Y-25538500D01*
X3555357Y-25524214D01*
X3783928Y-25824214D02*
X3783928Y-25624214D01*
X3783928Y-25652786D02*
X3798214Y-25638500D01*
X3826786Y-25624214D01*
X3869643Y-25624214D01*
X3898214Y-25638500D01*
X3912500Y-25667071D01*
X3912500Y-25824214D01*
X3912500Y-25667071D02*
X3926786Y-25638500D01*
X3955357Y-25624214D01*
X3998214Y-25624214D01*
X4026786Y-25638500D01*
X4041071Y-25667071D01*
X4041071Y-25824214D01*
X4183928Y-25824214D02*
X4183928Y-25624214D01*
X4183928Y-25652786D02*
X4198214Y-25638500D01*
X4226786Y-25624214D01*
X4269643Y-25624214D01*
X4298214Y-25638500D01*
X4312500Y-25667071D01*
X4312500Y-25824214D01*
X4312500Y-25667071D02*
X4326786Y-25638500D01*
X4355357Y-25624214D01*
X4398214Y-25624214D01*
X4426786Y-25638500D01*
X4441071Y-25667071D01*
X4441071Y-25824214D01*
X5026786Y-25509929D02*
X4769643Y-25895643D01*
X5412500Y-25524214D02*
X5441071Y-25524214D01*
X5469643Y-25538500D01*
X5483928Y-25552786D01*
X5498214Y-25581357D01*
X5512500Y-25638500D01*
X5512500Y-25709929D01*
X5498214Y-25767071D01*
X5483928Y-25795643D01*
X5469643Y-25809929D01*
X5441071Y-25824214D01*
X5412500Y-25824214D01*
X5383928Y-25809929D01*
X5369643Y-25795643D01*
X5355357Y-25767071D01*
X5341071Y-25709929D01*
X5341071Y-25638500D01*
X5355357Y-25581357D01*
X5369643Y-25552786D01*
X5383928Y-25538500D01*
X5412500Y-25524214D01*
X5641071Y-25795643D02*
X5655357Y-25809929D01*
X5641071Y-25824214D01*
X5626786Y-25809929D01*
X5641071Y-25795643D01*
X5641071Y-25824214D01*
X5941071Y-25824214D02*
X5769643Y-25824214D01*
X5855357Y-25824214D02*
X5855357Y-25524214D01*
X5826786Y-25567071D01*
X5798214Y-25595643D01*
X5769643Y-25609929D01*
X6041071Y-25524214D02*
X6241071Y-25524214D01*
X6112500Y-25824214D01*
X6326786Y-25524214D02*
X6526786Y-25524214D01*
X6398214Y-25824214D01*
X6626786Y-25524214D02*
X6626786Y-25581357D01*
X6741071Y-25524214D02*
X6741071Y-25581357D01*
X7183928Y-25938500D02*
X7169643Y-25924214D01*
X7141071Y-25881357D01*
X7126786Y-25852786D01*
X7112500Y-25809929D01*
X7098214Y-25738500D01*
X7098214Y-25681357D01*
X7112500Y-25609929D01*
X7126786Y-25567071D01*
X7141071Y-25538500D01*
X7169643Y-25495643D01*
X7183928Y-25481357D01*
X7426786Y-25624214D02*
X7426786Y-25824214D01*
X7355357Y-25509929D02*
X7283928Y-25724214D01*
X7469643Y-25724214D01*
X7812500Y-25824214D02*
X7812500Y-25524214D01*
X7941071Y-25824214D02*
X7941071Y-25667071D01*
X7926786Y-25638500D01*
X7898214Y-25624214D01*
X7855357Y-25624214D01*
X7826786Y-25638500D01*
X7812500Y-25652786D01*
X8126786Y-25824214D02*
X8098214Y-25809929D01*
X8083928Y-25795643D01*
X8069643Y-25767071D01*
X8069643Y-25681357D01*
X8083928Y-25652786D01*
X8098214Y-25638500D01*
X8126786Y-25624214D01*
X8169643Y-25624214D01*
X8198214Y-25638500D01*
X8212500Y-25652786D01*
X8226786Y-25681357D01*
X8226786Y-25767071D01*
X8212500Y-25795643D01*
X8198214Y-25809929D01*
X8169643Y-25824214D01*
X8126786Y-25824214D01*
X8398214Y-25824214D02*
X8369643Y-25809929D01*
X8355357Y-25781357D01*
X8355357Y-25524214D01*
X8626786Y-25809929D02*
X8598214Y-25824214D01*
X8541071Y-25824214D01*
X8512500Y-25809929D01*
X8498214Y-25781357D01*
X8498214Y-25667071D01*
X8512500Y-25638500D01*
X8541071Y-25624214D01*
X8598214Y-25624214D01*
X8626786Y-25638500D01*
X8641071Y-25667071D01*
X8641071Y-25695643D01*
X8498214Y-25724214D01*
X8755357Y-25809929D02*
X8783928Y-25824214D01*
X8841071Y-25824214D01*
X8869643Y-25809929D01*
X8883928Y-25781357D01*
X8883928Y-25767071D01*
X8869643Y-25738500D01*
X8841071Y-25724214D01*
X8798214Y-25724214D01*
X8769643Y-25709929D01*
X8755357Y-25681357D01*
X8755357Y-25667071D01*
X8769643Y-25638500D01*
X8798214Y-25624214D01*
X8841071Y-25624214D01*
X8869643Y-25638500D01*
X8983928Y-25938500D02*
X8998214Y-25924214D01*
X9026786Y-25881357D01*
X9041071Y-25852786D01*
X9055357Y-25809929D01*
X9069643Y-25738500D01*
X9069643Y-25681357D01*
X9055357Y-25609929D01*
X9041071Y-25567071D01*
X9026786Y-25538500D01*
X8998214Y-25495643D01*
X8983928Y-25481357D01*
M02*
