M48
; DRILL file {KiCad 5.1.6-c6e7f7d~87~ubuntu20.04.1} date Fri Jul 24 11:21:47 2020
; FORMAT={-:-/ absolute / metric / decimal}
; #@! TF.CreationDate,2020-07-24T11:21:47+02:00
; #@! TF.GenerationSoftware,Kicad,Pcbnew,5.1.6-c6e7f7d~87~ubuntu20.04.1
; #@! TF.FileFunction,NonPlated,1,2,NPTH
FMAT,2
METRIC
T1C1.700
T2C3.050
T3C4.000
%
G90
G05
T1
X299.38Y-144.08
X309.54Y-144.08
X120.88Y-85.58
X131.04Y-85.58
X140.92Y-85.5
X151.08Y-85.5
X192.88Y-110.58
X203.04Y-110.58
X251.42Y-203.5
X261.58Y-203.5
X373.38Y-111.08
X383.54Y-111.08
X293.92Y-85.58
X304.08Y-85.58
X294.42Y-180.58
X304.58Y-180.58
X273.88Y-85.58
X284.04Y-85.58
X92.38Y-134.58
X102.54Y-134.58
X192.38Y-134.58
X202.54Y-134.58
X252.88Y-110.58
X263.04Y-110.58
X353.38Y-135.08
X363.54Y-135.08
X181.42Y-203.5
X191.58Y-203.5
X147.42Y-180.5
X157.58Y-180.5
X236.88Y-158.08
X247.04Y-158.08
X227.38Y-180.58
X237.54Y-180.58
X91.42Y-203.5
X101.58Y-203.5
X67.42Y-180.5
X77.58Y-180.5
X132.88Y-110.58
X143.04Y-110.58
X256.88Y-158.08
X267.04Y-158.08
X172.38Y-134.58
X182.54Y-134.58
X353.42Y-203.0
X363.58Y-203.0
X116.88Y-158.08
X127.04Y-158.08
X212.38Y-134.58
X222.54Y-134.58
X100.88Y-85.58
X111.04Y-85.58
X297.42Y-110.5
X307.58Y-110.5
X333.38Y-111.08
X343.54Y-111.08
X136.88Y-158.08
X147.04Y-158.08
X176.88Y-158.08
X187.04Y-158.08
X232.38Y-134.58
X242.54Y-134.58
X132.38Y-134.58
X142.54Y-134.58
X66.92Y-203.5
X77.08Y-203.5
X207.38Y-180.58
X217.54Y-180.58
X272.88Y-110.58
X283.04Y-110.58
X112.38Y-134.58
X122.54Y-134.58
X107.42Y-180.5
X117.58Y-180.5
X152.38Y-134.58
X162.54Y-134.58
X296.92Y-203.5
X307.08Y-203.5
X72.38Y-134.58
X82.54Y-134.58
X80.92Y-85.58
X91.08Y-85.58
X43.88Y-85.58
X54.04Y-85.58
X96.88Y-158.08
X107.04Y-158.08
X212.88Y-110.58
X223.04Y-110.58
X232.88Y-110.58
X243.04Y-110.58
X127.42Y-180.5
X137.58Y-180.5
X373.5Y-85.5
X383.66Y-85.5
X373.42Y-203.0
X383.58Y-203.0
X333.38Y-135.08
X343.54Y-135.08
X187.42Y-180.5
X197.58Y-180.5
X333.42Y-203.08
X343.58Y-203.08
X48.38Y-110.58
X58.54Y-110.58
X56.92Y-158.08
X67.08Y-158.08
X156.88Y-158.08
X167.04Y-158.08
X353.42Y-180.5
X363.58Y-180.5
X353.5Y-85.5
X363.66Y-85.5
X276.88Y-158.08
X287.04Y-158.08
X252.38Y-134.58
X262.54Y-134.58
X92.88Y-110.58
X103.04Y-110.58
X247.38Y-180.58
X257.54Y-180.58
X267.38Y-180.58
X277.54Y-180.58
X152.88Y-110.58
X163.04Y-110.58
X196.88Y-158.08
X207.04Y-158.08
X47.42Y-134.5
X57.58Y-134.5
X373.38Y-135.08
X383.54Y-135.08
X172.88Y-110.58
X183.04Y-110.58
X187.38Y-85.58
X197.54Y-85.58
X207.38Y-85.58
X217.54Y-85.58
X112.88Y-110.58
X123.04Y-110.58
X253.88Y-85.58
X264.04Y-85.58
X226.88Y-85.58
X237.04Y-85.58
X167.42Y-180.5
X177.58Y-180.5
X313.92Y-85.5
X324.08Y-85.5
X72.92Y-110.58
X83.08Y-110.58
X167.42Y-85.58
X177.58Y-85.58
X272.42Y-203.5
X282.58Y-203.5
X353.38Y-111.08
X363.54Y-111.08
X87.42Y-180.5
X97.58Y-180.5
X333.92Y-85.5
X344.08Y-85.5
X216.88Y-158.08
X227.04Y-158.08
X111.38Y-203.5
X121.54Y-203.5
X272.38Y-134.58
X282.54Y-134.58
X76.88Y-158.08
X87.04Y-158.08
T2
X297.46Y-132.18
X297.46Y-155.98
X136.5Y-196.5
X236.5Y-196.5
T3
X53.46Y-110.58
X62.0Y-158.08
X161.96Y-158.08
X358.5Y-180.5
X358.58Y-85.5
X281.96Y-158.08
X257.46Y-134.58
X97.96Y-110.58
X252.46Y-180.58
X272.46Y-180.58
X157.96Y-110.58
X201.96Y-158.08
X52.5Y-134.5
X378.46Y-135.08
X177.96Y-110.58
X192.46Y-85.58
X212.46Y-85.58
X117.96Y-110.58
X258.96Y-85.58
X231.96Y-85.58
X172.5Y-180.5
X319.0Y-85.5
X78.0Y-110.58
X172.5Y-85.58
X277.5Y-203.5
X358.46Y-111.08
X92.5Y-180.5
X339.0Y-85.5
X221.96Y-158.08
X116.46Y-203.5
X277.46Y-134.58
X81.96Y-158.08
X304.46Y-144.08
X312.7Y-132.18
X312.7Y-155.98
X125.96Y-85.58
X146.0Y-85.5
X197.96Y-110.58
X256.5Y-203.5
X378.46Y-111.08
X299.0Y-85.58
X299.5Y-180.58
X278.96Y-85.58
X97.46Y-134.58
X197.46Y-134.58
X257.96Y-110.58
X358.46Y-135.08
X136.5Y-211.74
X186.5Y-203.5
X236.5Y-211.74
X152.5Y-180.5
X241.96Y-158.08
X232.46Y-180.58
X96.5Y-203.5
X72.5Y-180.5
X137.96Y-110.58
X261.96Y-158.08
X177.46Y-134.58
X358.5Y-203.0
X121.96Y-158.08
X217.46Y-134.58
X105.96Y-85.58
X302.5Y-110.5
X338.46Y-111.08
X141.96Y-158.08
X181.96Y-158.08
X237.46Y-134.58
X137.46Y-134.58
X72.0Y-203.5
X212.46Y-180.58
X277.96Y-110.58
X117.46Y-134.58
X112.5Y-180.5
X157.46Y-134.58
X302.0Y-203.5
X77.46Y-134.58
X86.0Y-85.58
X48.96Y-85.58
X101.96Y-158.08
X217.96Y-110.58
X237.96Y-110.58
X132.5Y-180.5
X378.58Y-85.5
X378.5Y-203.0
X338.46Y-135.08
X192.5Y-180.5
X338.5Y-203.08
T0
M30
