M48
; DRILL file {KiCad 5.1.6-c6e7f7d~87~ubuntu20.04.1} date Fri Jul 24 00:41:23 2020
; FORMAT={-:-/ absolute / metric / decimal}
; #@! TF.CreationDate,2020-07-24T00:41:23+02:00
; #@! TF.GenerationSoftware,Kicad,Pcbnew,5.1.6-c6e7f7d~87~ubuntu20.04.1
; #@! TF.FileFunction,Plated,1,2,PTH
FMAT,2
METRIC
T1C0.900
T2C1.000
T3C1.500
T4C1.600
T5C3.200
T6C4.500
%
G90
G05
T1
X374.38Y-191.5
X382.0Y-191.5
X121.38Y-97.5
X129.0Y-97.5
X218.0Y-169.5
X225.62Y-169.5
X238.0Y-191.5
X245.62Y-191.5
X335.38Y-122.5
X343.0Y-122.5
X159.0Y-197.5
X159.0Y-205.12
X254.0Y-146.5
X261.62Y-146.5
X234.0Y-146.5
X241.62Y-146.5
X263.38Y-122.5
X271.0Y-122.5
X78.0Y-191.5
X85.62Y-191.5
X43.88Y-97.5
X51.5Y-97.5
X207.5Y-99.0
X215.12Y-99.0
X313.5Y-99.0
X321.12Y-99.0
X258.0Y-191.5
X265.62Y-191.5
X238.0Y-169.5
X245.62Y-169.5
X79.0Y-169.5
X86.62Y-169.5
X194.0Y-146.5
X201.62Y-146.5
X296.0Y-191.5
X303.62Y-191.5
X301.38Y-121.5
X309.0Y-121.5
X84.0Y-122.5
X91.62Y-122.5
X140.38Y-97.5
X148.0Y-97.5
X244.38Y-122.5
X252.0Y-122.5
X98.0Y-191.5
X105.62Y-191.5
X346.0Y-176.88
X346.0Y-184.5
X174.0Y-146.5
X181.62Y-146.5
X291.0Y-146.5
X298.62Y-146.5
X118.0Y-191.5
X125.62Y-191.5
X223.38Y-122.5
X231.0Y-122.5
X98.0Y-169.5
X105.62Y-169.5
X253.5Y-99.0
X261.12Y-99.0
X336.0Y-146.5
X343.62Y-146.5
X352.5Y-99.0
X360.12Y-99.0
X133.38Y-146.5
X141.0Y-146.5
X213.0Y-146.5
X220.62Y-146.5
X101.88Y-97.5
X109.5Y-97.5
X43.0Y-199.88
X43.0Y-207.5
X294.5Y-99.0
X302.12Y-99.0
X64.0Y-122.5
X71.62Y-122.5
X354.38Y-122.5
X362.0Y-122.5
X139.0Y-191.5
X146.62Y-191.5
X164.38Y-122.5
X172.0Y-122.5
X118.0Y-169.5
X125.62Y-169.5
X372.5Y-99.0
X380.12Y-99.0
X258.0Y-169.5
X265.62Y-169.5
X355.0Y-146.5
X362.62Y-146.5
X158.0Y-191.5
X165.62Y-191.5
X138.0Y-169.5
X145.62Y-169.5
X278.0Y-169.5
X285.62Y-169.5
X178.0Y-191.5
X185.62Y-191.5
X239.0Y-198.88
X239.0Y-206.5
X144.38Y-122.5
X152.0Y-122.5
X218.0Y-191.5
X225.62Y-191.5
X227.0Y-99.0
X234.62Y-99.0
X113.5Y-146.5
X121.12Y-146.5
X153.0Y-146.5
X160.62Y-146.5
X187.5Y-98.5
X195.12Y-98.5
X104.38Y-122.5
X112.0Y-122.5
X198.0Y-191.5
X205.62Y-191.5
X262.0Y-197.88
X262.0Y-205.5
X168.0Y-98.5
X175.62Y-98.5
X44.0Y-122.5
X51.62Y-122.5
X376.0Y-146.5
X383.62Y-146.5
X287.0Y-197.88
X287.0Y-205.5
X158.0Y-169.5
X165.62Y-169.5
X94.0Y-146.5
X101.62Y-146.5
X49.0Y-191.5
X56.62Y-191.5
X204.38Y-122.5
X212.0Y-122.5
X51.0Y-146.5
X58.62Y-146.5
X374.0Y-122.5
X381.62Y-122.5
X74.0Y-146.5
X81.62Y-146.5
X178.0Y-169.5
X185.62Y-169.5
X274.0Y-146.5
X281.62Y-146.5
X333.5Y-99.0
X341.12Y-99.0
X124.38Y-122.5
X132.0Y-122.5
X81.88Y-97.5
X89.5Y-97.5
X51.0Y-169.5
X58.62Y-169.5
X273.0Y-99.0
X280.62Y-99.0
X335.0Y-191.5
X342.62Y-191.5
X64.0Y-191.5
X71.62Y-191.5
X355.38Y-191.5
X363.0Y-191.5
X198.0Y-169.5
X205.62Y-169.5
X183.38Y-122.5
X191.0Y-122.5
X106.0Y-200.5
X106.0Y-208.12
T2
X414.66Y-118.265
X414.66Y-121.035
X414.66Y-123.805
X414.66Y-126.575
X414.66Y-129.345
X414.66Y-132.115
X414.66Y-134.885
X414.66Y-137.655
X414.66Y-140.425
X414.66Y-143.195
X414.66Y-145.965
X414.66Y-148.735
X417.5Y-116.88
X417.5Y-119.65
X417.5Y-122.42
X417.5Y-125.19
X417.5Y-127.96
X417.5Y-130.73
X417.5Y-133.5
X417.5Y-136.27
X417.5Y-139.04
X417.5Y-141.81
X417.5Y-144.58
X417.5Y-147.35
X417.5Y-150.12
T3
X354.69Y-200.46
X361.04Y-197.92
X78.19Y-177.96
X84.54Y-175.42
X113.65Y-132.04
X120.0Y-129.5
X354.69Y-177.96
X361.04Y-175.42
X374.69Y-200.46
X381.04Y-197.92
X98.19Y-177.96
X104.54Y-175.42
X178.15Y-155.54
X184.5Y-153.0
X118.15Y-155.54
X124.5Y-153.0
X50.65Y-132.04
X57.0Y-129.5
X238.15Y-178.04
X244.5Y-175.5
X309.15Y-140.54
X315.5Y-138.0
X334.65Y-108.04
X341.0Y-105.5
X64.15Y-108.04
X70.5Y-105.5
X244.15Y-108.04
X250.5Y-105.5
X355.65Y-132.04
X362.0Y-129.5
X208.65Y-83.04
X215.0Y-80.5
X238.15Y-155.54
X244.5Y-153.0
X178.19Y-177.96
X184.54Y-175.42
X353.15Y-83.04
X359.5Y-80.5
X184.15Y-108.04
X190.5Y-105.5
X294.69Y-83.04
X301.04Y-80.5
X273.65Y-132.04
X280.0Y-129.5
X334.69Y-200.54
X341.04Y-198.0
X247.19Y-200.04
X253.54Y-197.5
X50.65Y-155.54
X57.0Y-153.0
X124.15Y-108.04
X130.5Y-105.5
X218.15Y-155.54
X224.5Y-153.0
X188.65Y-83.04
X195.0Y-80.5
X158.15Y-155.54
X164.5Y-153.0
X213.65Y-132.04
X220.0Y-129.5
X153.65Y-132.04
X160.0Y-129.5
X70.69Y-200.96
X77.04Y-198.42
X93.65Y-132.04
X100.0Y-129.5
X296.15Y-178.04
X302.5Y-175.5
X82.19Y-83.04
X88.54Y-80.5
X278.15Y-155.54
X284.5Y-153.0
X45.15Y-83.04
X51.5Y-80.5
X102.15Y-83.04
X108.5Y-80.5
X374.65Y-108.04
X381.0Y-105.5
X218.15Y-178.04
X224.5Y-175.5
X50.19Y-177.96
X56.54Y-175.42
X301.65Y-108.04
X308.0Y-105.5
X44.15Y-108.04
X50.5Y-105.5
X224.15Y-108.04
X230.5Y-105.5
X333.15Y-83.04
X339.5Y-80.5
X98.15Y-155.54
X104.5Y-153.0
X144.15Y-108.04
X150.5Y-105.5
X164.15Y-108.04
X170.5Y-105.5
X274.65Y-83.04
X281.0Y-80.5
X253.65Y-132.04
X260.0Y-129.5
X193.65Y-132.04
X200.0Y-129.5
X167.19Y-200.04
X173.54Y-197.5
X296.19Y-200.46
X302.54Y-197.92
X122.15Y-83.04
X128.5Y-80.5
X50.69Y-200.96
X57.04Y-198.42
X118.19Y-177.96
X124.54Y-175.42
X168.69Y-83.04
X175.04Y-80.5
X375.65Y-132.04
X382.0Y-129.5
X104.15Y-108.04
X110.5Y-105.5
X158.19Y-177.96
X164.54Y-175.42
X142.19Y-82.96
X148.54Y-80.42
X198.15Y-155.54
X204.5Y-153.0
X138.15Y-155.54
X144.5Y-153.0
X73.65Y-132.04
X80.0Y-129.5
X258.15Y-178.04
X264.5Y-175.5
X84.15Y-108.04
X90.5Y-105.5
X258.15Y-155.54
X264.5Y-153.0
X133.65Y-132.04
X140.0Y-129.5
X354.65Y-108.04
X361.0Y-105.5
X198.15Y-178.04
X204.5Y-175.5
X264.15Y-108.04
X270.5Y-105.5
X373.15Y-83.04
X379.5Y-80.5
X204.15Y-108.04
X210.5Y-105.5
X314.69Y-82.96
X321.04Y-80.42
X335.65Y-132.04
X342.0Y-129.5
X254.65Y-83.04
X261.0Y-80.5
X270.69Y-200.04
X277.04Y-197.5
X78.15Y-155.54
X84.5Y-153.0
X228.15Y-83.04
X234.5Y-80.5
X138.19Y-177.96
X144.54Y-175.42
X233.65Y-132.04
X240.0Y-129.5
X173.65Y-132.04
X180.0Y-129.5
X90.65Y-201.04
X97.0Y-198.5
T4
X335.0Y-69.5
X342.62Y-69.5
X354.0Y-69.5
X361.62Y-69.5
X375.0Y-69.5
X382.62Y-69.5
T5
X416.08Y-109.95
X416.08Y-157.05
T6
X395.0Y-206.0
X32.5Y-68.5
X32.5Y-206.0
X395.0Y-68.5
T0
M30
