%TF.GenerationSoftware,KiCad,Pcbnew,5.1.6-c6e7f7d~87~ubuntu20.04.1*%
%TF.CreationDate,2020-07-24T00:41:04+02:00*%
%TF.ProjectId,Keyboard-ISO,4b657962-6f61-4726-942d-49534f2e6b69,rev?*%
%TF.SameCoordinates,Original*%
%TF.FileFunction,Soldermask,Bot*%
%TF.FilePolarity,Negative*%
%FSLAX46Y46*%
G04 Gerber Fmt 4.6, Leading zero omitted, Abs format (unit mm)*
G04 Created by KiCad (PCBNEW 5.1.6-c6e7f7d~87~ubuntu20.04.1) date 2020-07-24 00:41:04*
%MOMM*%
%LPD*%
G01*
G04 APERTURE LIST*
%ADD10R,1.900000X1.900000*%
%ADD11O,1.900000X1.900000*%
%ADD12C,2.300000*%
%ADD13C,4.100000*%
%ADD14C,1.800000*%
%ADD15O,3.300000X3.300000*%
%ADD16R,3.300000X3.300000*%
%ADD17C,3.150000*%
%ADD18R,1.700000X1.700000*%
%ADD19C,1.700000*%
%ADD20C,9.100000*%
G04 APERTURE END LIST*
D10*
%TO.C,D4*%
X43880000Y-97500000D03*
D11*
X51500000Y-97500000D03*
%TD*%
D10*
%TO.C,D5*%
X81880000Y-97500000D03*
D11*
X89500000Y-97500000D03*
%TD*%
%TO.C,D6*%
X109500000Y-97500000D03*
D10*
X101880000Y-97500000D03*
%TD*%
%TO.C,D7*%
X121380000Y-97500000D03*
D11*
X129000000Y-97500000D03*
%TD*%
%TO.C,D8*%
X148000000Y-97500000D03*
D10*
X140380000Y-97500000D03*
%TD*%
%TO.C,D9*%
X168000000Y-98500000D03*
D11*
X175620000Y-98500000D03*
%TD*%
D10*
%TO.C,D10*%
X187500000Y-98500000D03*
D11*
X195120000Y-98500000D03*
%TD*%
%TO.C,D11*%
X215120000Y-99000000D03*
D10*
X207500000Y-99000000D03*
%TD*%
%TO.C,D12*%
X227000000Y-99000000D03*
D11*
X234620000Y-99000000D03*
%TD*%
%TO.C,D13*%
X261120000Y-99000000D03*
D10*
X253500000Y-99000000D03*
%TD*%
D11*
%TO.C,D14*%
X280620000Y-99000000D03*
D10*
X273000000Y-99000000D03*
%TD*%
D11*
%TO.C,D15*%
X302120000Y-99000000D03*
D10*
X294500000Y-99000000D03*
%TD*%
D11*
%TO.C,D16*%
X321120000Y-99000000D03*
D10*
X313500000Y-99000000D03*
%TD*%
%TO.C,D17*%
X333500000Y-99000000D03*
D11*
X341120000Y-99000000D03*
%TD*%
%TO.C,D18*%
X360120000Y-99000000D03*
D10*
X352500000Y-99000000D03*
%TD*%
%TO.C,D19*%
X372500000Y-99000000D03*
D11*
X380120000Y-99000000D03*
%TD*%
%TO.C,D20*%
X51620000Y-122500000D03*
D10*
X44000000Y-122500000D03*
%TD*%
D11*
%TO.C,D21*%
X71620000Y-122500000D03*
D10*
X64000000Y-122500000D03*
%TD*%
D11*
%TO.C,D22*%
X91620000Y-122500000D03*
D10*
X84000000Y-122500000D03*
%TD*%
%TO.C,D23*%
X104380000Y-122500000D03*
D11*
X112000000Y-122500000D03*
%TD*%
%TO.C,D24*%
X132000000Y-122500000D03*
D10*
X124380000Y-122500000D03*
%TD*%
%TO.C,D25*%
X144380000Y-122500000D03*
D11*
X152000000Y-122500000D03*
%TD*%
D10*
%TO.C,D26*%
X164380000Y-122500000D03*
D11*
X172000000Y-122500000D03*
%TD*%
D10*
%TO.C,D27*%
X183380000Y-122500000D03*
D11*
X191000000Y-122500000D03*
%TD*%
D10*
%TO.C,D28*%
X204380000Y-122500000D03*
D11*
X212000000Y-122500000D03*
%TD*%
%TO.C,D29*%
X231000000Y-122500000D03*
D10*
X223380000Y-122500000D03*
%TD*%
%TO.C,D30*%
X244380000Y-122500000D03*
D11*
X252000000Y-122500000D03*
%TD*%
D10*
%TO.C,D31*%
X263380000Y-122500000D03*
D11*
X271000000Y-122500000D03*
%TD*%
%TO.C,D32*%
X309000000Y-121500000D03*
D10*
X301380000Y-121500000D03*
%TD*%
D11*
%TO.C,D33*%
X343000000Y-122500000D03*
D10*
X335380000Y-122500000D03*
%TD*%
D11*
%TO.C,D34*%
X362000000Y-122500000D03*
D10*
X354380000Y-122500000D03*
%TD*%
%TO.C,D35*%
X374000000Y-122500000D03*
D11*
X381620000Y-122500000D03*
%TD*%
D10*
%TO.C,D36*%
X51000000Y-146500000D03*
D11*
X58620000Y-146500000D03*
%TD*%
%TO.C,D37*%
X81620000Y-146500000D03*
D10*
X74000000Y-146500000D03*
%TD*%
D11*
%TO.C,D38*%
X101620000Y-146500000D03*
D10*
X94000000Y-146500000D03*
%TD*%
D11*
%TO.C,D39*%
X121120000Y-146500000D03*
D10*
X113500000Y-146500000D03*
%TD*%
D11*
%TO.C,D40*%
X141000000Y-146500000D03*
D10*
X133380000Y-146500000D03*
%TD*%
D11*
%TO.C,D41*%
X160620000Y-146500000D03*
D10*
X153000000Y-146500000D03*
%TD*%
%TO.C,D42*%
X174000000Y-146500000D03*
D11*
X181620000Y-146500000D03*
%TD*%
D10*
%TO.C,D43*%
X194000000Y-146500000D03*
D11*
X201620000Y-146500000D03*
%TD*%
D10*
%TO.C,D44*%
X213000000Y-146500000D03*
D11*
X220620000Y-146500000D03*
%TD*%
D10*
%TO.C,D45*%
X234000000Y-146500000D03*
D11*
X241620000Y-146500000D03*
%TD*%
D10*
%TO.C,D46*%
X254000000Y-146500000D03*
D11*
X261620000Y-146500000D03*
%TD*%
D10*
%TO.C,D47*%
X274000000Y-146500000D03*
D11*
X281620000Y-146500000D03*
%TD*%
%TO.C,D48*%
X298620000Y-146500000D03*
D10*
X291000000Y-146500000D03*
%TD*%
%TO.C,D49*%
X336000000Y-146500000D03*
D11*
X343620000Y-146500000D03*
%TD*%
%TO.C,D50*%
X362620000Y-146500000D03*
D10*
X355000000Y-146500000D03*
%TD*%
D11*
%TO.C,D51*%
X383620000Y-146500000D03*
D10*
X376000000Y-146500000D03*
%TD*%
D11*
%TO.C,D52*%
X58620000Y-169500000D03*
D10*
X51000000Y-169500000D03*
%TD*%
D11*
%TO.C,D53*%
X86620000Y-169500000D03*
D10*
X79000000Y-169500000D03*
%TD*%
%TO.C,D54*%
X98000000Y-169500000D03*
D11*
X105620000Y-169500000D03*
%TD*%
D10*
%TO.C,D55*%
X118000000Y-169500000D03*
D11*
X125620000Y-169500000D03*
%TD*%
%TO.C,D56*%
X145620000Y-169500000D03*
D10*
X138000000Y-169500000D03*
%TD*%
D11*
%TO.C,D57*%
X165620000Y-169500000D03*
D10*
X158000000Y-169500000D03*
%TD*%
D11*
%TO.C,D58*%
X185620000Y-169500000D03*
D10*
X178000000Y-169500000D03*
%TD*%
D11*
%TO.C,D59*%
X205620000Y-169500000D03*
D10*
X198000000Y-169500000D03*
%TD*%
%TO.C,D60*%
X218000000Y-169500000D03*
D11*
X225620000Y-169500000D03*
%TD*%
D10*
%TO.C,D65*%
X78000000Y-191500000D03*
D11*
X85620000Y-191500000D03*
%TD*%
%TO.C,D66*%
X105620000Y-191500000D03*
D10*
X98000000Y-191500000D03*
%TD*%
%TO.C,D67*%
X118000000Y-191500000D03*
D11*
X125620000Y-191500000D03*
%TD*%
D10*
%TO.C,D68*%
X139000000Y-191500000D03*
D11*
X146620000Y-191500000D03*
%TD*%
%TO.C,D69*%
X165620000Y-191500000D03*
D10*
X158000000Y-191500000D03*
%TD*%
D11*
%TO.C,D70*%
X185620000Y-191500000D03*
D10*
X178000000Y-191500000D03*
%TD*%
D11*
%TO.C,D71*%
X205620000Y-191500000D03*
D10*
X198000000Y-191500000D03*
%TD*%
%TO.C,D72*%
X218000000Y-191500000D03*
D11*
X225620000Y-191500000D03*
%TD*%
D10*
%TO.C,D73*%
X238000000Y-191500000D03*
D11*
X245620000Y-191500000D03*
%TD*%
D10*
%TO.C,D74*%
X258000000Y-191500000D03*
D11*
X265620000Y-191500000D03*
%TD*%
D10*
%TO.C,D75*%
X296000000Y-191500000D03*
D11*
X303620000Y-191500000D03*
%TD*%
%TO.C,D76*%
X346000000Y-184500000D03*
D10*
X346000000Y-176880000D03*
%TD*%
D11*
%TO.C,D77*%
X43000000Y-207500000D03*
D10*
X43000000Y-199880000D03*
%TD*%
%TO.C,D81*%
X239000000Y-206500000D03*
D11*
X239000000Y-198880000D03*
%TD*%
D10*
%TO.C,D82*%
X262000000Y-205500000D03*
D11*
X262000000Y-197880000D03*
%TD*%
%TO.C,D83*%
X287000000Y-197880000D03*
D10*
X287000000Y-205500000D03*
%TD*%
D11*
%TO.C,D84*%
X342620000Y-191500000D03*
D10*
X335000000Y-191500000D03*
%TD*%
D11*
%TO.C,D85*%
X363000000Y-191500000D03*
D10*
X355380000Y-191500000D03*
%TD*%
%TO.C,D86*%
X374380000Y-191500000D03*
D11*
X382000000Y-191500000D03*
%TD*%
D12*
%TO.C,SW2*%
X51500000Y-80500000D03*
X45150000Y-83040000D03*
D13*
X48960000Y-85580000D03*
D14*
X43880000Y-85580000D03*
X54040000Y-85580000D03*
%TD*%
%TO.C,SW3*%
X91080000Y-85580000D03*
X80920000Y-85580000D03*
D13*
X86000000Y-85580000D03*
D12*
X82190000Y-83040000D03*
X88540000Y-80500000D03*
%TD*%
%TO.C,SW4*%
X108500000Y-80500000D03*
X102150000Y-83040000D03*
D13*
X105960000Y-85580000D03*
D14*
X100880000Y-85580000D03*
X111040000Y-85580000D03*
%TD*%
D12*
%TO.C,SW5*%
X128500000Y-80500000D03*
X122150000Y-83040000D03*
D13*
X125960000Y-85580000D03*
D14*
X120880000Y-85580000D03*
X131040000Y-85580000D03*
%TD*%
%TO.C,SW6*%
X151080000Y-85500000D03*
X140920000Y-85500000D03*
D13*
X146000000Y-85500000D03*
D12*
X142190000Y-82960000D03*
X148540000Y-80420000D03*
%TD*%
%TO.C,SW7*%
X175040000Y-80500000D03*
X168690000Y-83040000D03*
D13*
X172500000Y-85580000D03*
D14*
X167420000Y-85580000D03*
X177580000Y-85580000D03*
%TD*%
%TO.C,SW8*%
X197540000Y-85580000D03*
X187380000Y-85580000D03*
D13*
X192460000Y-85580000D03*
D12*
X188650000Y-83040000D03*
X195000000Y-80500000D03*
%TD*%
%TO.C,SW9*%
X215000000Y-80500000D03*
X208650000Y-83040000D03*
D13*
X212460000Y-85580000D03*
D14*
X207380000Y-85580000D03*
X217540000Y-85580000D03*
%TD*%
%TO.C,SW10*%
X237040000Y-85580000D03*
X226880000Y-85580000D03*
D13*
X231960000Y-85580000D03*
D12*
X228150000Y-83040000D03*
X234500000Y-80500000D03*
%TD*%
D14*
%TO.C,SW11*%
X263540000Y-85580000D03*
X253380000Y-85580000D03*
D13*
X258460000Y-85580000D03*
D12*
X254650000Y-83040000D03*
X261000000Y-80500000D03*
%TD*%
%TO.C,SW12*%
X281000000Y-80500000D03*
X274650000Y-83040000D03*
D13*
X278460000Y-85580000D03*
D14*
X273380000Y-85580000D03*
X283540000Y-85580000D03*
%TD*%
%TO.C,SW13*%
X303580000Y-85580000D03*
X293420000Y-85580000D03*
D13*
X298500000Y-85580000D03*
D12*
X294690000Y-83040000D03*
X301040000Y-80500000D03*
%TD*%
%TO.C,SW14*%
X321040000Y-80420000D03*
X314690000Y-82960000D03*
D13*
X318500000Y-85500000D03*
D14*
X313420000Y-85500000D03*
X323580000Y-85500000D03*
%TD*%
D12*
%TO.C,SW15*%
X339500000Y-80500000D03*
X333150000Y-83040000D03*
D13*
X336960000Y-85580000D03*
D14*
X331880000Y-85580000D03*
X342040000Y-85580000D03*
%TD*%
%TO.C,SW16*%
X362040000Y-85580000D03*
X351880000Y-85580000D03*
D13*
X356960000Y-85580000D03*
D12*
X353150000Y-83040000D03*
X359500000Y-80500000D03*
%TD*%
%TO.C,SW17*%
X379500000Y-80500000D03*
X373150000Y-83040000D03*
D13*
X376960000Y-85580000D03*
D14*
X371880000Y-85580000D03*
X382040000Y-85580000D03*
%TD*%
%TO.C,SW18*%
X53040000Y-110580000D03*
X42880000Y-110580000D03*
D13*
X47960000Y-110580000D03*
D12*
X44150000Y-108040000D03*
X50500000Y-105500000D03*
%TD*%
%TO.C,SW19*%
X70500000Y-105500000D03*
X64150000Y-108040000D03*
D13*
X67960000Y-110580000D03*
D14*
X62880000Y-110580000D03*
X73040000Y-110580000D03*
%TD*%
%TO.C,SW20*%
X93040000Y-110580000D03*
X82880000Y-110580000D03*
D13*
X87960000Y-110580000D03*
D12*
X84150000Y-108040000D03*
X90500000Y-105500000D03*
%TD*%
D14*
%TO.C,SW21*%
X113040000Y-110580000D03*
X102880000Y-110580000D03*
D13*
X107960000Y-110580000D03*
D12*
X104150000Y-108040000D03*
X110500000Y-105500000D03*
%TD*%
D14*
%TO.C,SW22*%
X133040000Y-110580000D03*
X122880000Y-110580000D03*
D13*
X127960000Y-110580000D03*
D12*
X124150000Y-108040000D03*
X130500000Y-105500000D03*
%TD*%
%TO.C,SW23*%
X150500000Y-105500000D03*
X144150000Y-108040000D03*
D13*
X147960000Y-110580000D03*
D14*
X142880000Y-110580000D03*
X153040000Y-110580000D03*
%TD*%
%TO.C,SW24*%
X173040000Y-110580000D03*
X162880000Y-110580000D03*
D13*
X167960000Y-110580000D03*
D12*
X164150000Y-108040000D03*
X170500000Y-105500000D03*
%TD*%
%TO.C,SW25*%
X190500000Y-105500000D03*
X184150000Y-108040000D03*
D13*
X187960000Y-110580000D03*
D14*
X182880000Y-110580000D03*
X193040000Y-110580000D03*
%TD*%
%TO.C,SW26*%
X213040000Y-110580000D03*
X202880000Y-110580000D03*
D13*
X207960000Y-110580000D03*
D12*
X204150000Y-108040000D03*
X210500000Y-105500000D03*
%TD*%
%TO.C,SW27*%
X230500000Y-105500000D03*
X224150000Y-108040000D03*
D13*
X227960000Y-110580000D03*
D14*
X222880000Y-110580000D03*
X233040000Y-110580000D03*
%TD*%
%TO.C,SW28*%
X253040000Y-110580000D03*
X242880000Y-110580000D03*
D13*
X247960000Y-110580000D03*
D12*
X244150000Y-108040000D03*
X250500000Y-105500000D03*
%TD*%
%TO.C,SW29*%
X270500000Y-105500000D03*
X264150000Y-108040000D03*
D13*
X267960000Y-110580000D03*
D14*
X262880000Y-110580000D03*
X273040000Y-110580000D03*
%TD*%
%TO.C,SW30*%
X310540000Y-110580000D03*
X300380000Y-110580000D03*
D13*
X305460000Y-110580000D03*
D12*
X301650000Y-108040000D03*
X308000000Y-105500000D03*
%TD*%
%TO.C,SW31*%
X341000000Y-105500000D03*
X334650000Y-108040000D03*
D13*
X338460000Y-110580000D03*
D14*
X333380000Y-110580000D03*
X343540000Y-110580000D03*
%TD*%
D12*
%TO.C,SW32*%
X361000000Y-105500000D03*
X354650000Y-108040000D03*
D13*
X358460000Y-110580000D03*
D14*
X353380000Y-110580000D03*
X363540000Y-110580000D03*
%TD*%
%TO.C,SW33*%
X383540000Y-110580000D03*
X373380000Y-110580000D03*
D13*
X378460000Y-110580000D03*
D12*
X374650000Y-108040000D03*
X381000000Y-105500000D03*
%TD*%
%TO.C,SW34*%
X57000000Y-129500000D03*
X50650000Y-132040000D03*
D13*
X54460000Y-134580000D03*
D14*
X49380000Y-134580000D03*
X59540000Y-134580000D03*
%TD*%
%TO.C,SW35*%
X82540000Y-134580000D03*
X72380000Y-134580000D03*
D13*
X77460000Y-134580000D03*
D12*
X73650000Y-132040000D03*
X80000000Y-129500000D03*
%TD*%
%TO.C,SW36*%
X100000000Y-129500000D03*
X93650000Y-132040000D03*
D13*
X97460000Y-134580000D03*
D14*
X92380000Y-134580000D03*
X102540000Y-134580000D03*
%TD*%
D12*
%TO.C,SW37*%
X120000000Y-129500000D03*
X113650000Y-132040000D03*
D13*
X117460000Y-134580000D03*
D14*
X112380000Y-134580000D03*
X122540000Y-134580000D03*
%TD*%
%TO.C,SW38*%
X142540000Y-134580000D03*
X132380000Y-134580000D03*
D13*
X137460000Y-134580000D03*
D12*
X133650000Y-132040000D03*
X140000000Y-129500000D03*
%TD*%
%TO.C,SW39*%
X160000000Y-129500000D03*
X153650000Y-132040000D03*
D13*
X157460000Y-134580000D03*
D14*
X152380000Y-134580000D03*
X162540000Y-134580000D03*
%TD*%
%TO.C,SW40*%
X182540000Y-134580000D03*
X172380000Y-134580000D03*
D13*
X177460000Y-134580000D03*
D12*
X173650000Y-132040000D03*
X180000000Y-129500000D03*
%TD*%
%TO.C,SW41*%
X200000000Y-129500000D03*
X193650000Y-132040000D03*
D13*
X197460000Y-134580000D03*
D14*
X192380000Y-134580000D03*
X202540000Y-134580000D03*
%TD*%
%TO.C,SW42*%
X222540000Y-134580000D03*
X212380000Y-134580000D03*
D13*
X217460000Y-134580000D03*
D12*
X213650000Y-132040000D03*
X220000000Y-129500000D03*
%TD*%
D14*
%TO.C,SW43*%
X242540000Y-134580000D03*
X232380000Y-134580000D03*
D13*
X237460000Y-134580000D03*
D12*
X233650000Y-132040000D03*
X240000000Y-129500000D03*
%TD*%
%TO.C,SW44*%
X260000000Y-129500000D03*
X253650000Y-132040000D03*
D13*
X257460000Y-134580000D03*
D14*
X252380000Y-134580000D03*
X262540000Y-134580000D03*
%TD*%
%TO.C,SW45*%
X282540000Y-134580000D03*
X272380000Y-134580000D03*
D13*
X277460000Y-134580000D03*
D12*
X273650000Y-132040000D03*
X280000000Y-129500000D03*
%TD*%
%TO.C,SW47*%
X342000000Y-129500000D03*
X335650000Y-132040000D03*
D13*
X339460000Y-134580000D03*
D14*
X334380000Y-134580000D03*
X344540000Y-134580000D03*
%TD*%
%TO.C,SW48*%
X364540000Y-134580000D03*
X354380000Y-134580000D03*
D13*
X359460000Y-134580000D03*
D12*
X355650000Y-132040000D03*
X362000000Y-129500000D03*
%TD*%
%TO.C,SW49*%
X382000000Y-129500000D03*
X375650000Y-132040000D03*
D13*
X379460000Y-134580000D03*
D14*
X374380000Y-134580000D03*
X384540000Y-134580000D03*
%TD*%
%TO.C,SW50*%
X59540000Y-158080000D03*
X49380000Y-158080000D03*
D13*
X54460000Y-158080000D03*
D12*
X50650000Y-155540000D03*
X57000000Y-153000000D03*
%TD*%
D14*
%TO.C,SW51*%
X87040000Y-158080000D03*
X76880000Y-158080000D03*
D13*
X81960000Y-158080000D03*
D12*
X78150000Y-155540000D03*
X84500000Y-153000000D03*
%TD*%
D14*
%TO.C,SW52*%
X107040000Y-158080000D03*
X96880000Y-158080000D03*
D13*
X101960000Y-158080000D03*
D12*
X98150000Y-155540000D03*
X104500000Y-153000000D03*
%TD*%
D14*
%TO.C,SW53*%
X127040000Y-158080000D03*
X116880000Y-158080000D03*
D13*
X121960000Y-158080000D03*
D12*
X118150000Y-155540000D03*
X124500000Y-153000000D03*
%TD*%
%TO.C,SW54*%
X144500000Y-153000000D03*
X138150000Y-155540000D03*
D13*
X141960000Y-158080000D03*
D14*
X136880000Y-158080000D03*
X147040000Y-158080000D03*
%TD*%
%TO.C,SW55*%
X167040000Y-158080000D03*
X156880000Y-158080000D03*
D13*
X161960000Y-158080000D03*
D12*
X158150000Y-155540000D03*
X164500000Y-153000000D03*
%TD*%
%TO.C,SW56*%
X184500000Y-153000000D03*
X178150000Y-155540000D03*
D13*
X181960000Y-158080000D03*
D14*
X176880000Y-158080000D03*
X187040000Y-158080000D03*
%TD*%
%TO.C,SW57*%
X207040000Y-158080000D03*
X196880000Y-158080000D03*
D13*
X201960000Y-158080000D03*
D12*
X198150000Y-155540000D03*
X204500000Y-153000000D03*
%TD*%
%TO.C,SW58*%
X224500000Y-153000000D03*
X218150000Y-155540000D03*
D13*
X221960000Y-158080000D03*
D14*
X216880000Y-158080000D03*
X227040000Y-158080000D03*
%TD*%
D12*
%TO.C,SW59*%
X244500000Y-153000000D03*
X238150000Y-155540000D03*
D13*
X241960000Y-158080000D03*
D14*
X236880000Y-158080000D03*
X247040000Y-158080000D03*
%TD*%
%TO.C,SW60*%
X267040000Y-158080000D03*
X256880000Y-158080000D03*
D13*
X261960000Y-158080000D03*
D12*
X258150000Y-155540000D03*
X264500000Y-153000000D03*
%TD*%
%TO.C,SW61*%
X284500000Y-153000000D03*
X278150000Y-155540000D03*
D13*
X281960000Y-158080000D03*
D14*
X276880000Y-158080000D03*
X287040000Y-158080000D03*
%TD*%
D12*
%TO.C,SW66*%
X144540000Y-175420000D03*
X138190000Y-177960000D03*
D13*
X142000000Y-180500000D03*
D14*
X136920000Y-180500000D03*
X147080000Y-180500000D03*
%TD*%
%TO.C,SW67*%
X167080000Y-180500000D03*
X156920000Y-180500000D03*
D13*
X162000000Y-180500000D03*
D12*
X158190000Y-177960000D03*
X164540000Y-175420000D03*
%TD*%
D14*
%TO.C,SW68*%
X187080000Y-180500000D03*
X176920000Y-180500000D03*
D13*
X182000000Y-180500000D03*
D12*
X178190000Y-177960000D03*
X184540000Y-175420000D03*
%TD*%
%TO.C,SW69*%
X204500000Y-175500000D03*
X198150000Y-178040000D03*
D13*
X201960000Y-180580000D03*
D14*
X196880000Y-180580000D03*
X207040000Y-180580000D03*
%TD*%
%TO.C,SW70*%
X227040000Y-180580000D03*
X216880000Y-180580000D03*
D13*
X221960000Y-180580000D03*
D12*
X218150000Y-178040000D03*
X224500000Y-175500000D03*
%TD*%
D14*
%TO.C,SW71*%
X247040000Y-180580000D03*
X236880000Y-180580000D03*
D13*
X241960000Y-180580000D03*
D12*
X238150000Y-178040000D03*
X244500000Y-175500000D03*
%TD*%
D14*
%TO.C,SW72*%
X267040000Y-180580000D03*
X256880000Y-180580000D03*
D13*
X261960000Y-180580000D03*
D12*
X258150000Y-178040000D03*
X264500000Y-175500000D03*
%TD*%
%TO.C,SW73*%
X302500000Y-175500000D03*
X296150000Y-178040000D03*
D13*
X299960000Y-180580000D03*
D14*
X294880000Y-180580000D03*
X305040000Y-180580000D03*
%TD*%
%TO.C,SW74*%
X363580000Y-180500000D03*
X353420000Y-180500000D03*
D13*
X358500000Y-180500000D03*
D12*
X354690000Y-177960000D03*
X361040000Y-175420000D03*
%TD*%
%TO.C,SW75*%
X57040000Y-198420000D03*
X50690000Y-200960000D03*
D13*
X54500000Y-203500000D03*
D14*
X49420000Y-203500000D03*
X59580000Y-203500000D03*
%TD*%
%TO.C,SW76*%
X79580000Y-203500000D03*
X69420000Y-203500000D03*
D13*
X74500000Y-203500000D03*
D12*
X70690000Y-200960000D03*
X77040000Y-198420000D03*
%TD*%
%TO.C,SW77*%
X97000000Y-198500000D03*
X90650000Y-201040000D03*
D13*
X94460000Y-203580000D03*
D14*
X89380000Y-203580000D03*
X99540000Y-203580000D03*
%TD*%
D12*
%TO.C,SW78*%
X173540000Y-197500000D03*
X167190000Y-200040000D03*
D13*
X171000000Y-202580000D03*
D14*
X165920000Y-202580000D03*
X176080000Y-202580000D03*
%TD*%
D12*
%TO.C,SW82*%
X341040000Y-198000000D03*
X334690000Y-200540000D03*
D13*
X338500000Y-203080000D03*
D14*
X333420000Y-203080000D03*
X343580000Y-203080000D03*
%TD*%
%TO.C,SW83*%
X363580000Y-203000000D03*
X353420000Y-203000000D03*
D13*
X358500000Y-203000000D03*
D12*
X354690000Y-200460000D03*
X361040000Y-197920000D03*
%TD*%
D14*
%TO.C,SW84*%
X383580000Y-203000000D03*
X373420000Y-203000000D03*
D13*
X378500000Y-203000000D03*
D12*
X374690000Y-200460000D03*
X381040000Y-197920000D03*
%TD*%
D11*
%TO.C,D61*%
X245620000Y-169500000D03*
D10*
X238000000Y-169500000D03*
%TD*%
%TO.C,D62*%
X258000000Y-169500000D03*
D11*
X265620000Y-169500000D03*
%TD*%
D10*
%TO.C,D63*%
X278000000Y-169500000D03*
D11*
X285620000Y-169500000D03*
%TD*%
D10*
%TO.C,D64*%
X49000000Y-191500000D03*
D11*
X56620000Y-191500000D03*
%TD*%
D10*
%TO.C,D78*%
X64000000Y-191500000D03*
D11*
X71620000Y-191500000D03*
%TD*%
%TO.C,D79*%
X106000000Y-208120000D03*
D10*
X106000000Y-200500000D03*
%TD*%
D11*
%TO.C,D80*%
X159000000Y-205120000D03*
D10*
X159000000Y-197500000D03*
%TD*%
D14*
%TO.C,SW62*%
X59080000Y-180500000D03*
X48920000Y-180500000D03*
D13*
X54000000Y-180500000D03*
D12*
X50190000Y-177960000D03*
X56540000Y-175420000D03*
%TD*%
%TO.C,SW63*%
X84540000Y-175420000D03*
X78190000Y-177960000D03*
D13*
X82000000Y-180500000D03*
D14*
X76920000Y-180500000D03*
X87080000Y-180500000D03*
%TD*%
%TO.C,SW64*%
X107080000Y-180500000D03*
X96920000Y-180500000D03*
D13*
X102000000Y-180500000D03*
D12*
X98190000Y-177960000D03*
X104540000Y-175420000D03*
%TD*%
%TO.C,SW65*%
X124540000Y-175420000D03*
X118190000Y-177960000D03*
D13*
X122000000Y-180500000D03*
D14*
X116920000Y-180500000D03*
X127080000Y-180500000D03*
%TD*%
%TO.C,SW79*%
X256080000Y-202580000D03*
X245920000Y-202580000D03*
D13*
X251000000Y-202580000D03*
D12*
X247190000Y-200040000D03*
X253540000Y-197500000D03*
%TD*%
%TO.C,SW80*%
X277040000Y-197500000D03*
X270690000Y-200040000D03*
D13*
X274500000Y-202580000D03*
D14*
X269420000Y-202580000D03*
X279580000Y-202580000D03*
%TD*%
D12*
%TO.C,SW81*%
X302540000Y-197920000D03*
X296190000Y-200460000D03*
D13*
X300000000Y-203000000D03*
D14*
X294920000Y-203000000D03*
X305080000Y-203000000D03*
%TD*%
D15*
%TO.C,D1*%
X342620000Y-69500000D03*
D16*
X335000000Y-69500000D03*
%TD*%
%TO.C,D2*%
X354000000Y-69500000D03*
D15*
X361620000Y-69500000D03*
%TD*%
D16*
%TO.C,D3*%
X375000000Y-69500000D03*
D15*
X382620000Y-69500000D03*
%TD*%
D12*
%TO.C,SW46*%
X315500000Y-138000000D03*
X309150000Y-140540000D03*
D13*
X312960000Y-143080000D03*
D14*
X307880000Y-143080000D03*
X318040000Y-143080000D03*
D13*
X321200000Y-131180000D03*
X321200000Y-154980000D03*
D17*
X305960000Y-154980000D03*
X305960000Y-131180000D03*
%TD*%
D18*
%TO.C,J1*%
X417500000Y-150120000D03*
D19*
X417500000Y-147350000D03*
X417500000Y-144580000D03*
X417500000Y-141810000D03*
X417500000Y-139040000D03*
X417500000Y-136270000D03*
X417500000Y-133500000D03*
X417500000Y-130730000D03*
X417500000Y-127960000D03*
X417500000Y-125190000D03*
X417500000Y-122420000D03*
X417500000Y-119650000D03*
X417500000Y-116880000D03*
X414660000Y-148735000D03*
X414660000Y-145965000D03*
X414660000Y-143195000D03*
X414660000Y-140425000D03*
X414660000Y-137655000D03*
X414660000Y-134885000D03*
X414660000Y-132115000D03*
X414660000Y-129345000D03*
X414660000Y-126575000D03*
X414660000Y-123805000D03*
X414660000Y-121035000D03*
X414660000Y-118265000D03*
D13*
X416080000Y-109950000D03*
X416080000Y-157050000D03*
%TD*%
D20*
%TO.C,J2*%
X32500000Y-68500000D03*
%TD*%
%TO.C,J3*%
X32500000Y-206000000D03*
%TD*%
%TO.C,J4*%
X395000000Y-68500000D03*
%TD*%
%TO.C,J5*%
X395000000Y-206000000D03*
%TD*%
M02*
