  0
SECTION
  2
HEADER
  9
$ACADVER
  1
AC1009
  9
$EXTMIN
 10
0.0
 20
0.0
 30
0.0
  9
$EXTMAX
 10
1000.0
 20
1000.0
 30
0.0
  9
$FILLMODE
 70
 0
  9
$SPLFRAME
 70
 1
  0
ENDSEC
  0
SECTION
  2
TABLES
  0
TABLE
  2
LAYER
 70
1
  0
LAYER
  2
0
 70
     0
 62
     7
  6
CONTINUOUS
  0
ENDTAB
  0
ENDSEC
  0
SECTION
  2
ENTITIES
  0
LINE
  8
0
 62
     0
 10
362.758
 20
149.13
 30
0.0
 11
363.149
 21
149.115
 31
0.0
  0
LINE
  8
0
 62
     0
 10
363.149
 20
149.115
 30
0.0
 11
363.541
 21
149.068
 31
0.0
  0
LINE
  8
0
 62
     0
 10
363.541
 20
149.068
 30
0.0
 11
363.926
 21
148.992
 31
0.0
  0
LINE
  8
0
 62
     0
 10
363.926
 20
148.992
 30
0.0
 11
364.303
 21
148.886
 31
0.0
  0
LINE
  8
0
 62
     0
 10
364.303
 20
148.886
 30
0.0
 11
364.67
 21
148.749
 31
0.0
  0
LINE
  8
0
 62
     0
 10
364.67
 20
148.749
 30
0.0
 11
365.03
 21
148.586
 31
0.0
  0
LINE
  8
0
 62
     0
 10
365.03
 20
148.586
 30
0.0
 11
365.372
 21
148.394
 31
0.0
  0
LINE
  8
0
 62
     0
 10
365.372
 20
148.394
 30
0.0
 11
365.696
 21
148.175
 31
0.0
  0
LINE
  8
0
 62
     0
 10
365.696
 20
148.175
 30
0.0
 11
366.007
 21
147.932
 31
0.0
  0
LINE
  8
0
 62
     0
 10
366.007
 20
147.932
 30
0.0
 11
366.296
 21
147.665
 31
0.0
  0
LINE
  8
0
 62
     0
 10
366.296
 20
147.665
 30
0.0
 11
366.561
 21
147.377
 31
0.0
  0
LINE
  8
0
 62
     0
 10
366.561
 20
147.377
 30
0.0
 11
366.804
 21
147.068
 31
0.0
  0
LINE
  8
0
 62
     0
 10
366.804
 20
147.068
 30
0.0
 11
367.023
 21
146.743
 31
0.0
  0
LINE
  8
0
 62
     0
 10
367.023
 20
146.743
 30
0.0
 11
367.213
 21
146.4
 31
0.0
  0
LINE
  8
0
 62
     0
 10
367.213
 20
146.4
 30
0.0
 11
367.379
 21
146.043
 31
0.0
  0
LINE
  8
0
 62
     0
 10
367.379
 20
146.043
 30
0.0
 11
367.513
 21
145.675
 31
0.0
  0
LINE
  8
0
 62
     0
 10
367.513
 20
145.675
 30
0.0
 11
367.619
 21
145.298
 31
0.0
  0
LINE
  8
0
 62
     0
 10
367.619
 20
145.298
 30
0.0
 11
367.697
 21
144.913
 31
0.0
  0
LINE
  8
0
 62
     0
 10
367.697
 20
144.913
 30
0.0
 11
367.743
 21
144.523
 31
0.0
  0
LINE
  8
0
 62
     0
 10
367.743
 20
144.523
 30
0.0
 11
367.757
 21
144.129
 31
0.0
  0
LINE
  8
0
 62
     0
 10
367.757
 20
144.129
 30
0.0
 11
367.757
 21
5.30408
 31
0.0
  0
LINE
  8
0
 62
     0
 10
367.757
 20
5.30408
 30
0.0
 11
367.743
 21
4.91134
 31
0.0
  0
LINE
  8
0
 62
     0
 10
367.743
 20
4.91134
 30
0.0
 11
367.697
 21
4.52134
 31
0.0
  0
LINE
  8
0
 62
     0
 10
367.697
 20
4.52134
 30
0.0
 11
367.619
 21
4.13688
 31
0.0
  0
LINE
  8
0
 62
     0
 10
367.619
 20
4.13688
 30
0.0
 11
367.513
 21
3.75789
 31
0.0
  0
LINE
  8
0
 62
     0
 10
367.513
 20
3.75789
 30
0.0
 11
367.379
 21
3.38998
 31
0.0
  0
LINE
  8
0
 62
     0
 10
367.379
 20
3.38998
 30
0.0
 11
367.213
 21
3.03444
 31
0.0
  0
LINE
  8
0
 62
     0
 10
367.213
 20
3.03444
 30
0.0
 11
367.023
 21
2.69131
 31
0.0
  0
LINE
  8
0
 62
     0
 10
367.023
 20
2.69131
 30
0.0
 11
366.804
 21
2.36609
 31
0.0
  0
LINE
  8
0
 62
     0
 10
366.804
 20
2.36609
 30
0.0
 11
366.561
 21
2.05603
 31
0.0
  0
LINE
  8
0
 62
     0
 10
366.561
 20
2.05603
 30
0.0
 11
366.296
 21
1.76802
 31
0.0
  0
LINE
  8
0
 62
     0
 10
366.296
 20
1.76802
 30
0.0
 11
366.007
 21
1.50206
 31
0.0
  0
LINE
  8
0
 62
     0
 10
366.007
 20
1.50206
 30
0.0
 11
365.696
 21
1.25815
 31
0.0
  0
LINE
  8
0
 62
     0
 10
365.696
 20
1.25815
 30
0.0
 11
365.372
 21
1.04042
 31
0.0
  0
LINE
  8
0
 62
     0
 10
365.372
 20
1.04042
 30
0.0
 11
365.03
 21
0.848872
 31
0.0
  0
LINE
  8
0
 62
     0
 10
365.03
 20
0.848872
 30
0.0
 11
364.67
 21
0.684886
 31
0.0
  0
LINE
  8
0
 62
     0
 10
364.67
 20
0.684886
 30
0.0
 11
364.303
 21
0.54846
 31
0.0
  0
LINE
  8
0
 62
     0
 10
364.303
 20
0.54846
 30
0.0
 11
363.926
 21
0.442352
 31
0.0
  0
LINE
  8
0
 62
     0
 10
363.926
 20
0.442352
 30
0.0
 11
363.541
 21
0.365181
 31
0.0
  0
LINE
  8
0
 62
     0
 10
363.541
 20
0.365181
 30
0.0
 11
363.149
 21
0.319705
 31
0.0
  0
LINE
  8
0
 62
     0
 10
363.149
 20
0.319705
 30
0.0
 11
362.758
 21
0.303168
 31
0.0
  0
LINE
  8
0
 62
     0
 10
362.758
 20
0.303168
 30
0.0
 11
5.09598
 21
0.303168
 31
0.0
  0
LINE
  8
0
 62
     0
 10
5.09598
 20
0.303168
 30
0.0
 11
4.70186
 21
0.319705
 31
0.0
  0
LINE
  8
0
 62
     0
 10
4.70186
 20
0.319705
 30
0.0
 11
4.3119
 21
0.365181
 31
0.0
  0
LINE
  8
0
 62
     0
 10
4.3119
 20
0.365181
 30
0.0
 11
3.9274
 21
0.442352
 31
0.0
  0
LINE
  8
0
 62
     0
 10
3.9274
 20
0.442352
 30
0.0
 11
3.54983
 21
0.54846
 31
0.0
  0
LINE
  8
0
 62
     0
 10
3.54983
 20
0.54846
 30
0.0
 11
3.18189
 21
0.684886
 31
0.0
  0
LINE
  8
0
 62
     0
 10
3.18189
 20
0.684886
 30
0.0
 11
2.82498
 21
0.848872
 31
0.0
  0
LINE
  8
0
 62
     0
 10
2.82498
 20
0.848872
 30
0.0
 11
2.48185
 21
1.04042
 31
0.0
  0
LINE
  8
0
 62
     0
 10
2.48185
 20
1.04042
 30
0.0
 11
2.15663
 21
1.25815
 31
0.0
  0
LINE
  8
0
 62
     0
 10
2.15663
 20
1.25815
 30
0.0
 11
1.84795
 21
1.50206
 31
0.0
  0
LINE
  8
0
 62
     0
 10
1.84795
 20
1.50206
 30
0.0
 11
1.55994
 21
1.76802
 31
0.0
  0
LINE
  8
0
 62
     0
 10
1.55994
 20
1.76802
 30
0.0
 11
1.2926
 21
2.05603
 31
0.0
  0
LINE
  8
0
 62
     0
 10
1.2926
 20
2.05603
 30
0.0
 11
1.05006
 21
2.36609
 31
0.0
  0
LINE
  8
0
 62
     0
 10
1.05006
 20
2.36609
 30
0.0
 11
0.830957
 21
2.69131
 31
0.0
  0
LINE
  8
0
 62
     0
 10
0.830957
 20
2.69131
 30
0.0
 11
0.63941
 21
3.03444
 31
0.0
  0
LINE
  8
0
 62
     0
 10
0.63941
 20
3.03444
 30
0.0
 11
0.475424
 21
3.38998
 31
0.0
  0
LINE
  8
0
 62
     0
 10
0.475424
 20
3.38998
 30
0.0
 11
0.338998
 21
3.75789
 31
0.0
  0
LINE
  8
0
 62
     0
 10
0.338998
 20
3.75789
 30
0.0
 11
0.232888
 21
4.13688
 31
0.0
  0
LINE
  8
0
 62
     0
 10
0.232888
 20
4.13688
 30
0.0
 11
0.157097
 21
4.52134
 31
0.0
  0
LINE
  8
0
 62
     0
 10
0.157097
 20
4.52134
 30
0.0
 11
0.110243
 21
4.91134
 31
0.0
  0
LINE
  8
0
 62
     0
 10
0.110243
 20
4.91134
 30
0.0
 11
0.0950846
 21
5.30408
 31
0.0
  0
LINE
  8
0
 62
     0
 10
0.0950846
 20
5.30408
 30
0.0
 11
0.0950846
 21
144.129
 31
0.0
  0
LINE
  8
0
 62
     0
 10
0.0950846
 20
144.129
 30
0.0
 11
0.110243
 21
144.523
 31
0.0
  0
LINE
  8
0
 62
     0
 10
0.110243
 20
144.523
 30
0.0
 11
0.157097
 21
144.913
 31
0.0
  0
LINE
  8
0
 62
     0
 10
0.157097
 20
144.913
 30
0.0
 11
0.232888
 21
145.298
 31
0.0
  0
LINE
  8
0
 62
     0
 10
0.232888
 20
145.298
 30
0.0
 11
0.338998
 21
145.675
 31
0.0
  0
LINE
  8
0
 62
     0
 10
0.338998
 20
145.675
 30
0.0
 11
0.475424
 21
146.043
 31
0.0
  0
LINE
  8
0
 62
     0
 10
0.475424
 20
146.043
 30
0.0
 11
0.63941
 21
146.4
 31
0.0
  0
LINE
  8
0
 62
     0
 10
0.63941
 20
146.4
 30
0.0
 11
0.830957
 21
146.743
 31
0.0
  0
LINE
  8
0
 62
     0
 10
0.830957
 20
146.743
 30
0.0
 11
1.05006
 21
147.068
 31
0.0
  0
LINE
  8
0
 62
     0
 10
1.05006
 20
147.068
 30
0.0
 11
1.2926
 21
147.377
 31
0.0
  0
LINE
  8
0
 62
     0
 10
1.2926
 20
147.377
 30
0.0
 11
1.55994
 21
147.665
 31
0.0
  0
LINE
  8
0
 62
     0
 10
1.55994
 20
147.665
 30
0.0
 11
1.84795
 21
147.932
 31
0.0
  0
LINE
  8
0
 62
     0
 10
1.84795
 20
147.932
 30
0.0
 11
2.15663
 21
148.175
 31
0.0
  0
LINE
  8
0
 62
     0
 10
2.15663
 20
148.175
 30
0.0
 11
2.48185
 21
148.394
 31
0.0
  0
LINE
  8
0
 62
     0
 10
2.48185
 20
148.394
 30
0.0
 11
2.82498
 21
148.586
 31
0.0
  0
LINE
  8
0
 62
     0
 10
2.82498
 20
148.586
 30
0.0
 11
3.18189
 21
148.749
 31
0.0
  0
LINE
  8
0
 62
     0
 10
3.18189
 20
148.749
 30
0.0
 11
3.54983
 21
148.886
 31
0.0
  0
LINE
  8
0
 62
     0
 10
3.54983
 20
148.886
 30
0.0
 11
3.9274
 21
148.992
 31
0.0
  0
LINE
  8
0
 62
     0
 10
3.9274
 20
148.992
 30
0.0
 11
4.3119
 21
149.068
 31
0.0
  0
LINE
  8
0
 62
     0
 10
4.3119
 20
149.068
 30
0.0
 11
4.70186
 21
149.115
 31
0.0
  0
LINE
  8
0
 62
     0
 10
4.70186
 20
149.115
 30
0.0
 11
5.09598
 21
149.13
 31
0.0
  0
LINE
  8
0
 62
     0
 10
5.09598
 20
149.13
 30
0.0
 11
362.758
 21
149.13
 31
0.0
  0
LINE
  8
0
 62
     0
 10
4.63158
 20
6.73033
 30
0.0
 11
4.21404
 21
6.51813
 31
0.0
  0
LINE
  8
0
 62
     0
 10
4.21404
 20
6.51813
 30
0.0
 11
3.88193
 21
6.18603
 31
0.0
  0
LINE
  8
0
 62
     0
 10
3.88193
 20
6.18603
 30
0.0
 11
3.66832
 21
5.76711
 31
0.0
  0
LINE
  8
0
 62
     0
 10
3.66832
 20
5.76711
 30
0.0
 11
3.59392
 21
5.30408
 31
0.0
  0
LINE
  8
0
 62
     0
 10
3.59392
 20
5.30408
 30
0.0
 11
3.66832
 21
4.84106
 31
0.0
  0
LINE
  8
0
 62
     0
 10
3.66832
 20
4.84106
 30
0.0
 11
3.88193
 21
4.42214
 31
0.0
  0
LINE
  8
0
 62
     0
 10
3.88193
 20
4.42214
 30
0.0
 11
4.21404
 21
4.09003
 31
0.0
  0
LINE
  8
0
 62
     0
 10
4.21404
 20
4.09003
 30
0.0
 11
4.63158
 21
3.8778
 31
0.0
  0
LINE
  8
0
 62
     0
 10
4.63158
 20
3.8778
 30
0.0
 11
5.0946
 21
3.8034
 31
0.0
  0
LINE
  8
0
 62
     0
 10
5.0946
 20
3.8034
 30
0.0
 11
5.559
 21
3.8778
 31
0.0
  0
LINE
  8
0
 62
     0
 10
5.559
 20
3.8778
 30
0.0
 11
5.97655
 21
4.09003
 31
0.0
  0
LINE
  8
0
 62
     0
 10
5.97655
 20
4.09003
 30
0.0
 11
6.30865
 21
4.42214
 31
0.0
  0
LINE
  8
0
 62
     0
 10
6.30865
 20
4.42214
 30
0.0
 11
6.52089
 21
4.84106
 31
0.0
  0
LINE
  8
0
 62
     0
 10
6.52089
 20
4.84106
 30
0.0
 11
6.59391
 21
5.30408
 31
0.0
  0
LINE
  8
0
 62
     0
 10
6.59391
 20
5.30408
 30
0.0
 11
6.52089
 21
5.76711
 31
0.0
  0
LINE
  8
0
 62
     0
 10
6.52089
 20
5.76711
 30
0.0
 11
6.30865
 21
6.18603
 31
0.0
  0
LINE
  8
0
 62
     0
 10
6.30865
 20
6.18603
 30
0.0
 11
5.97655
 21
6.51813
 31
0.0
  0
LINE
  8
0
 62
     0
 10
5.97655
 20
6.51813
 30
0.0
 11
5.559
 21
6.73033
 31
0.0
  0
LINE
  8
0
 62
     0
 10
5.559
 20
6.73033
 30
0.0
 11
5.0946
 21
6.80339
 31
0.0
  0
LINE
  8
0
 62
     0
 10
5.0946
 20
6.80339
 30
0.0
 11
4.63158
 21
6.73033
 31
0.0
  0
LINE
  8
0
 62
     0
 10
123.853
 20
6.73033
 30
0.0
 11
123.435
 21
6.51813
 31
0.0
  0
LINE
  8
0
 62
     0
 10
123.435
 20
6.51813
 30
0.0
 11
123.103
 21
6.18603
 31
0.0
  0
LINE
  8
0
 62
     0
 10
123.103
 20
6.18603
 30
0.0
 11
122.889
 21
5.76711
 31
0.0
  0
LINE
  8
0
 62
     0
 10
122.889
 20
5.76711
 30
0.0
 11
122.816
 21
5.30408
 31
0.0
  0
LINE
  8
0
 62
     0
 10
122.816
 20
5.30408
 30
0.0
 11
122.889
 21
4.84106
 31
0.0
  0
LINE
  8
0
 62
     0
 10
122.889
 20
4.84106
 30
0.0
 11
123.103
 21
4.42214
 31
0.0
  0
LINE
  8
0
 62
     0
 10
123.103
 20
4.42214
 30
0.0
 11
123.435
 21
4.09003
 31
0.0
  0
LINE
  8
0
 62
     0
 10
123.435
 20
4.09003
 30
0.0
 11
123.853
 21
3.8778
 31
0.0
  0
LINE
  8
0
 62
     0
 10
123.853
 20
3.8778
 30
0.0
 11
124.317
 21
3.8034
 31
0.0
  0
LINE
  8
0
 62
     0
 10
124.317
 20
3.8034
 30
0.0
 11
124.78
 21
3.8778
 31
0.0
  0
LINE
  8
0
 62
     0
 10
124.78
 20
3.8778
 30
0.0
 11
125.198
 21
4.09003
 31
0.0
  0
LINE
  8
0
 62
     0
 10
125.198
 20
4.09003
 30
0.0
 11
125.53
 21
4.42214
 31
0.0
  0
LINE
  8
0
 62
     0
 10
125.53
 20
4.42214
 30
0.0
 11
125.741
 21
4.84106
 31
0.0
  0
LINE
  8
0
 62
     0
 10
125.741
 20
4.84106
 30
0.0
 11
125.816
 21
5.30408
 31
0.0
  0
LINE
  8
0
 62
     0
 10
125.816
 20
5.30408
 30
0.0
 11
125.741
 21
5.76711
 31
0.0
  0
LINE
  8
0
 62
     0
 10
125.741
 20
5.76711
 30
0.0
 11
125.53
 21
6.18603
 31
0.0
  0
LINE
  8
0
 62
     0
 10
125.53
 20
6.18603
 30
0.0
 11
125.198
 21
6.51813
 31
0.0
  0
LINE
  8
0
 62
     0
 10
125.198
 20
6.51813
 30
0.0
 11
124.78
 21
6.73033
 31
0.0
  0
LINE
  8
0
 62
     0
 10
124.78
 20
6.73033
 30
0.0
 11
124.317
 21
6.80339
 31
0.0
  0
LINE
  8
0
 62
     0
 10
124.317
 20
6.80339
 30
0.0
 11
123.853
 21
6.73033
 31
0.0
  0
LINE
  8
0
 62
     0
 10
243.073
 20
6.73033
 30
0.0
 11
242.656
 21
6.51813
 31
0.0
  0
LINE
  8
0
 62
     0
 10
242.656
 20
6.51813
 30
0.0
 11
242.324
 21
6.18603
 31
0.0
  0
LINE
  8
0
 62
     0
 10
242.324
 20
6.18603
 30
0.0
 11
242.11
 21
5.76711
 31
0.0
  0
LINE
  8
0
 62
     0
 10
242.11
 20
5.76711
 30
0.0
 11
242.037
 21
5.30408
 31
0.0
  0
LINE
  8
0
 62
     0
 10
242.037
 20
5.30408
 30
0.0
 11
242.11
 21
4.84106
 31
0.0
  0
LINE
  8
0
 62
     0
 10
242.11
 20
4.84106
 30
0.0
 11
242.324
 21
4.42214
 31
0.0
  0
LINE
  8
0
 62
     0
 10
242.324
 20
4.42214
 30
0.0
 11
242.656
 21
4.09003
 31
0.0
  0
LINE
  8
0
 62
     0
 10
242.656
 20
4.09003
 30
0.0
 11
243.073
 21
3.8778
 31
0.0
  0
LINE
  8
0
 62
     0
 10
243.073
 20
3.8778
 30
0.0
 11
243.538
 21
3.8034
 31
0.0
  0
LINE
  8
0
 62
     0
 10
243.538
 20
3.8034
 30
0.0
 11
244.001
 21
3.8778
 31
0.0
  0
LINE
  8
0
 62
     0
 10
244.001
 20
3.8778
 30
0.0
 11
244.42
 21
4.09003
 31
0.0
  0
LINE
  8
0
 62
     0
 10
244.42
 20
4.09003
 30
0.0
 11
244.751
 21
4.42214
 31
0.0
  0
LINE
  8
0
 62
     0
 10
244.751
 20
4.42214
 30
0.0
 11
244.963
 21
4.84106
 31
0.0
  0
LINE
  8
0
 62
     0
 10
244.963
 20
4.84106
 30
0.0
 11
245.037
 21
5.30408
 31
0.0
  0
LINE
  8
0
 62
     0
 10
245.037
 20
5.30408
 30
0.0
 11
244.963
 21
5.76711
 31
0.0
  0
LINE
  8
0
 62
     0
 10
244.963
 20
5.76711
 30
0.0
 11
244.751
 21
6.18603
 31
0.0
  0
LINE
  8
0
 62
     0
 10
244.751
 20
6.18603
 30
0.0
 11
244.42
 21
6.51813
 31
0.0
  0
LINE
  8
0
 62
     0
 10
244.42
 20
6.51813
 30
0.0
 11
244.001
 21
6.73033
 31
0.0
  0
LINE
  8
0
 62
     0
 10
244.001
 20
6.73033
 30
0.0
 11
243.538
 21
6.80339
 31
0.0
  0
LINE
  8
0
 62
     0
 10
243.538
 20
6.80339
 30
0.0
 11
243.073
 21
6.73033
 31
0.0
  0
LINE
  8
0
 62
     0
 10
362.296
 20
6.73033
 30
0.0
 11
361.876
 21
6.51813
 31
0.0
  0
LINE
  8
0
 62
     0
 10
361.876
 20
6.51813
 30
0.0
 11
361.544
 21
6.18603
 31
0.0
  0
LINE
  8
0
 62
     0
 10
361.544
 20
6.18603
 30
0.0
 11
361.333
 21
5.76711
 31
0.0
  0
LINE
  8
0
 62
     0
 10
361.333
 20
5.76711
 30
0.0
 11
361.259
 21
5.30408
 31
0.0
  0
LINE
  8
0
 62
     0
 10
361.259
 20
5.30408
 30
0.0
 11
361.333
 21
4.84106
 31
0.0
  0
LINE
  8
0
 62
     0
 10
361.333
 20
4.84106
 30
0.0
 11
361.544
 21
4.42214
 31
0.0
  0
LINE
  8
0
 62
     0
 10
361.544
 20
4.42214
 30
0.0
 11
361.876
 21
4.09003
 31
0.0
  0
LINE
  8
0
 62
     0
 10
361.876
 20
4.09003
 30
0.0
 11
362.296
 21
3.8778
 31
0.0
  0
LINE
  8
0
 62
     0
 10
362.296
 20
3.8778
 30
0.0
 11
362.758
 21
3.8034
 31
0.0
  0
LINE
  8
0
 62
     0
 10
362.758
 20
3.8034
 30
0.0
 11
363.224
 21
3.8778
 31
0.0
  0
LINE
  8
0
 62
     0
 10
363.224
 20
3.8778
 30
0.0
 11
363.64
 21
4.09003
 31
0.0
  0
LINE
  8
0
 62
     0
 10
363.64
 20
4.09003
 30
0.0
 11
363.971
 21
4.42214
 31
0.0
  0
LINE
  8
0
 62
     0
 10
363.971
 20
4.42214
 30
0.0
 11
364.187
 21
4.84106
 31
0.0
  0
LINE
  8
0
 62
     0
 10
364.187
 20
4.84106
 30
0.0
 11
364.257
 21
5.30408
 31
0.0
  0
LINE
  8
0
 62
     0
 10
364.257
 20
5.30408
 30
0.0
 11
364.187
 21
5.76711
 31
0.0
  0
LINE
  8
0
 62
     0
 10
364.187
 20
5.76711
 30
0.0
 11
363.971
 21
6.18603
 31
0.0
  0
LINE
  8
0
 62
     0
 10
363.971
 20
6.18603
 30
0.0
 11
363.64
 21
6.51813
 31
0.0
  0
LINE
  8
0
 62
     0
 10
363.64
 20
6.51813
 30
0.0
 11
363.224
 21
6.73033
 31
0.0
  0
LINE
  8
0
 62
     0
 10
363.224
 20
6.73033
 30
0.0
 11
362.758
 21
6.80339
 31
0.0
  0
LINE
  8
0
 62
     0
 10
362.758
 20
6.80339
 30
0.0
 11
362.296
 21
6.73033
 31
0.0
  0
LINE
  8
0
 62
     0
 10
4.63158
 20
145.557
 30
0.0
 11
4.21404
 21
145.343
 31
0.0
  0
LINE
  8
0
 62
     0
 10
4.21404
 20
145.343
 30
0.0
 11
3.88193
 21
145.011
 31
0.0
  0
LINE
  8
0
 62
     0
 10
3.88193
 20
145.011
 30
0.0
 11
3.66832
 21
144.593
 31
0.0
  0
LINE
  8
0
 62
     0
 10
3.66832
 20
144.593
 30
0.0
 11
3.59392
 21
144.129
 31
0.0
  0
LINE
  8
0
 62
     0
 10
3.59392
 20
144.129
 30
0.0
 11
3.66832
 21
143.666
 31
0.0
  0
LINE
  8
0
 62
     0
 10
3.66832
 20
143.666
 30
0.0
 11
3.88193
 21
143.249
 31
0.0
  0
LINE
  8
0
 62
     0
 10
3.88193
 20
143.249
 30
0.0
 11
4.21404
 21
142.916
 31
0.0
  0
LINE
  8
0
 62
     0
 10
4.21404
 20
142.916
 30
0.0
 11
4.63158
 21
142.704
 31
0.0
  0
LINE
  8
0
 62
     0
 10
4.63158
 20
142.704
 30
0.0
 11
5.0946
 21
142.63
 31
0.0
  0
LINE
  8
0
 62
     0
 10
5.0946
 20
142.63
 30
0.0
 11
5.559
 21
142.704
 31
0.0
  0
LINE
  8
0
 62
     0
 10
5.559
 20
142.704
 30
0.0
 11
5.97655
 21
142.916
 31
0.0
  0
LINE
  8
0
 62
     0
 10
5.97655
 20
142.916
 30
0.0
 11
6.30865
 21
143.249
 31
0.0
  0
LINE
  8
0
 62
     0
 10
6.30865
 20
143.249
 30
0.0
 11
6.52089
 21
143.666
 31
0.0
  0
LINE
  8
0
 62
     0
 10
6.52089
 20
143.666
 30
0.0
 11
6.59391
 21
144.129
 31
0.0
  0
LINE
  8
0
 62
     0
 10
6.59391
 20
144.129
 30
0.0
 11
6.52089
 21
144.593
 31
0.0
  0
LINE
  8
0
 62
     0
 10
6.52089
 20
144.593
 30
0.0
 11
6.30865
 21
145.011
 31
0.0
  0
LINE
  8
0
 62
     0
 10
6.30865
 20
145.011
 30
0.0
 11
5.97655
 21
145.343
 31
0.0
  0
LINE
  8
0
 62
     0
 10
5.97655
 20
145.343
 30
0.0
 11
5.559
 21
145.557
 31
0.0
  0
LINE
  8
0
 62
     0
 10
5.559
 20
145.557
 30
0.0
 11
5.0946
 21
145.63
 31
0.0
  0
LINE
  8
0
 62
     0
 10
5.0946
 20
145.63
 30
0.0
 11
4.63158
 21
145.557
 31
0.0
  0
LINE
  8
0
 62
     0
 10
362.296
 20
145.557
 30
0.0
 11
361.876
 21
145.343
 31
0.0
  0
LINE
  8
0
 62
     0
 10
361.876
 20
145.343
 30
0.0
 11
361.544
 21
145.011
 31
0.0
  0
LINE
  8
0
 62
     0
 10
361.544
 20
145.011
 30
0.0
 11
361.333
 21
144.593
 31
0.0
  0
LINE
  8
0
 62
     0
 10
361.333
 20
144.593
 30
0.0
 11
361.259
 21
144.129
 31
0.0
  0
LINE
  8
0
 62
     0
 10
361.259
 20
144.129
 30
0.0
 11
361.333
 21
143.666
 31
0.0
  0
LINE
  8
0
 62
     0
 10
361.333
 20
143.666
 30
0.0
 11
361.544
 21
143.249
 31
0.0
  0
LINE
  8
0
 62
     0
 10
361.544
 20
143.249
 30
0.0
 11
361.876
 21
142.916
 31
0.0
  0
LINE
  8
0
 62
     0
 10
361.876
 20
142.916
 30
0.0
 11
362.296
 21
142.704
 31
0.0
  0
LINE
  8
0
 62
     0
 10
362.296
 20
142.704
 30
0.0
 11
362.758
 21
142.63
 31
0.0
  0
LINE
  8
0
 62
     0
 10
362.758
 20
142.63
 30
0.0
 11
363.224
 21
142.704
 31
0.0
  0
LINE
  8
0
 62
     0
 10
363.224
 20
142.704
 30
0.0
 11
363.64
 21
142.916
 31
0.0
  0
LINE
  8
0
 62
     0
 10
363.64
 20
142.916
 30
0.0
 11
363.971
 21
143.249
 31
0.0
  0
LINE
  8
0
 62
     0
 10
363.971
 20
143.249
 30
0.0
 11
364.187
 21
143.666
 31
0.0
  0
LINE
  8
0
 62
     0
 10
364.187
 20
143.666
 30
0.0
 11
364.257
 21
144.129
 31
0.0
  0
LINE
  8
0
 62
     0
 10
364.257
 20
144.129
 30
0.0
 11
364.187
 21
144.593
 31
0.0
  0
LINE
  8
0
 62
     0
 10
364.187
 20
144.593
 30
0.0
 11
363.971
 21
145.011
 31
0.0
  0
LINE
  8
0
 62
     0
 10
363.971
 20
145.011
 30
0.0
 11
363.64
 21
145.343
 31
0.0
  0
LINE
  8
0
 62
     0
 10
363.64
 20
145.343
 30
0.0
 11
363.224
 21
145.557
 31
0.0
  0
LINE
  8
0
 62
     0
 10
363.224
 20
145.557
 30
0.0
 11
362.758
 21
145.63
 31
0.0
  0
LINE
  8
0
 62
     0
 10
362.758
 20
145.63
 30
0.0
 11
362.296
 21
145.557
 31
0.0
  0
LINE
  8
0
 62
     0
 10
243.073
 20
145.557
 30
0.0
 11
242.656
 21
145.343
 31
0.0
  0
LINE
  8
0
 62
     0
 10
242.656
 20
145.343
 30
0.0
 11
242.324
 21
145.011
 31
0.0
  0
LINE
  8
0
 62
     0
 10
242.324
 20
145.011
 30
0.0
 11
242.11
 21
144.593
 31
0.0
  0
LINE
  8
0
 62
     0
 10
242.11
 20
144.593
 30
0.0
 11
242.037
 21
144.129
 31
0.0
  0
LINE
  8
0
 62
     0
 10
242.037
 20
144.129
 30
0.0
 11
242.11
 21
143.666
 31
0.0
  0
LINE
  8
0
 62
     0
 10
242.11
 20
143.666
 30
0.0
 11
242.324
 21
143.249
 31
0.0
  0
LINE
  8
0
 62
     0
 10
242.324
 20
143.249
 30
0.0
 11
242.656
 21
142.916
 31
0.0
  0
LINE
  8
0
 62
     0
 10
242.656
 20
142.916
 30
0.0
 11
243.073
 21
142.704
 31
0.0
  0
LINE
  8
0
 62
     0
 10
243.073
 20
142.704
 30
0.0
 11
243.538
 21
142.63
 31
0.0
  0
LINE
  8
0
 62
     0
 10
243.538
 20
142.63
 30
0.0
 11
244.001
 21
142.704
 31
0.0
  0
LINE
  8
0
 62
     0
 10
244.001
 20
142.704
 30
0.0
 11
244.42
 21
142.916
 31
0.0
  0
LINE
  8
0
 62
     0
 10
244.42
 20
142.916
 30
0.0
 11
244.751
 21
143.249
 31
0.0
  0
LINE
  8
0
 62
     0
 10
244.751
 20
143.249
 30
0.0
 11
244.963
 21
143.666
 31
0.0
  0
LINE
  8
0
 62
     0
 10
244.963
 20
143.666
 30
0.0
 11
245.037
 21
144.129
 31
0.0
  0
LINE
  8
0
 62
     0
 10
245.037
 20
144.129
 30
0.0
 11
244.963
 21
144.593
 31
0.0
  0
LINE
  8
0
 62
     0
 10
244.963
 20
144.593
 30
0.0
 11
244.751
 21
145.011
 31
0.0
  0
LINE
  8
0
 62
     0
 10
244.751
 20
145.011
 30
0.0
 11
244.42
 21
145.343
 31
0.0
  0
LINE
  8
0
 62
     0
 10
244.42
 20
145.343
 30
0.0
 11
244.001
 21
145.557
 31
0.0
  0
LINE
  8
0
 62
     0
 10
244.001
 20
145.557
 30
0.0
 11
243.538
 21
145.63
 31
0.0
  0
LINE
  8
0
 62
     0
 10
243.538
 20
145.63
 30
0.0
 11
243.073
 21
145.557
 31
0.0
  0
LINE
  8
0
 62
     0
 10
123.853
 20
145.557
 30
0.0
 11
123.435
 21
145.343
 31
0.0
  0
LINE
  8
0
 62
     0
 10
123.435
 20
145.343
 30
0.0
 11
123.103
 21
145.011
 31
0.0
  0
LINE
  8
0
 62
     0
 10
123.103
 20
145.011
 30
0.0
 11
122.889
 21
144.593
 31
0.0
  0
LINE
  8
0
 62
     0
 10
122.889
 20
144.593
 30
0.0
 11
122.816
 21
144.129
 31
0.0
  0
LINE
  8
0
 62
     0
 10
122.816
 20
144.129
 30
0.0
 11
122.889
 21
143.666
 31
0.0
  0
LINE
  8
0
 62
     0
 10
122.889
 20
143.666
 30
0.0
 11
123.103
 21
143.249
 31
0.0
  0
LINE
  8
0
 62
     0
 10
123.103
 20
143.249
 30
0.0
 11
123.435
 21
142.916
 31
0.0
  0
LINE
  8
0
 62
     0
 10
123.435
 20
142.916
 30
0.0
 11
123.853
 21
142.704
 31
0.0
  0
LINE
  8
0
 62
     0
 10
123.853
 20
142.704
 30
0.0
 11
124.317
 21
142.63
 31
0.0
  0
LINE
  8
0
 62
     0
 10
124.317
 20
142.63
 30
0.0
 11
124.78
 21
142.704
 31
0.0
  0
LINE
  8
0
 62
     0
 10
124.78
 20
142.704
 30
0.0
 11
125.198
 21
142.916
 31
0.0
  0
LINE
  8
0
 62
     0
 10
125.198
 20
142.916
 30
0.0
 11
125.53
 21
143.249
 31
0.0
  0
LINE
  8
0
 62
     0
 10
125.53
 20
143.249
 30
0.0
 11
125.741
 21
143.666
 31
0.0
  0
LINE
  8
0
 62
     0
 10
125.741
 20
143.666
 30
0.0
 11
125.816
 21
144.129
 31
0.0
  0
LINE
  8
0
 62
     0
 10
125.816
 20
144.129
 30
0.0
 11
125.741
 21
144.593
 31
0.0
  0
LINE
  8
0
 62
     0
 10
125.741
 20
144.593
 30
0.0
 11
125.53
 21
145.011
 31
0.0
  0
LINE
  8
0
 62
     0
 10
125.53
 20
145.011
 30
0.0
 11
125.198
 21
145.343
 31
0.0
  0
LINE
  8
0
 62
     0
 10
125.198
 20
145.343
 30
0.0
 11
124.78
 21
145.557
 31
0.0
  0
LINE
  8
0
 62
     0
 10
124.78
 20
145.557
 30
0.0
 11
124.317
 21
145.63
 31
0.0
  0
LINE
  8
0
 62
     0
 10
124.317
 20
145.63
 30
0.0
 11
123.853
 21
145.557
 31
0.0
  0
ENDSEC
  0
EOF
