  0
SECTION
  2
HEADER
  9
$ACADVER
  1
AC1009
  9
$EXTMIN
 10
0.0
 20
0.0
 30
0.0
  9
$EXTMAX
 10
1000.0
 20
1000.0
 30
0.0
  9
$FILLMODE
 70
 0
  9
$SPLFRAME
 70
 1
  0
ENDSEC
  0
SECTION
  2
TABLES
  0
TABLE
  2
LAYER
 70
1
  0
LAYER
  2
0
 70
     0
 62
     7
  6
CONTINUOUS
  0
ENDTAB
  0
ENDSEC
  0
SECTION
  2
ENTITIES
  0
LINE
  8
0
 62
     0
 10
362.758
 20
149.13
 30
0.0
 11
363.149
 21
149.115
 31
0.0
  0
LINE
  8
0
 62
     0
 10
363.149
 20
149.115
 30
0.0
 11
363.541
 21
149.068
 31
0.0
  0
LINE
  8
0
 62
     0
 10
363.541
 20
149.068
 30
0.0
 11
363.926
 21
148.992
 31
0.0
  0
LINE
  8
0
 62
     0
 10
363.926
 20
148.992
 30
0.0
 11
364.303
 21
148.886
 31
0.0
  0
LINE
  8
0
 62
     0
 10
364.303
 20
148.886
 30
0.0
 11
364.67
 21
148.749
 31
0.0
  0
LINE
  8
0
 62
     0
 10
364.67
 20
148.749
 30
0.0
 11
365.03
 21
148.586
 31
0.0
  0
LINE
  8
0
 62
     0
 10
365.03
 20
148.586
 30
0.0
 11
365.372
 21
148.394
 31
0.0
  0
LINE
  8
0
 62
     0
 10
365.372
 20
148.394
 30
0.0
 11
365.696
 21
148.175
 31
0.0
  0
LINE
  8
0
 62
     0
 10
365.696
 20
148.175
 30
0.0
 11
366.007
 21
147.932
 31
0.0
  0
LINE
  8
0
 62
     0
 10
366.007
 20
147.932
 30
0.0
 11
366.296
 21
147.665
 31
0.0
  0
LINE
  8
0
 62
     0
 10
366.296
 20
147.665
 30
0.0
 11
366.561
 21
147.377
 31
0.0
  0
LINE
  8
0
 62
     0
 10
366.561
 20
147.377
 30
0.0
 11
366.804
 21
147.068
 31
0.0
  0
LINE
  8
0
 62
     0
 10
366.804
 20
147.068
 30
0.0
 11
367.023
 21
146.743
 31
0.0
  0
LINE
  8
0
 62
     0
 10
367.023
 20
146.743
 30
0.0
 11
367.213
 21
146.4
 31
0.0
  0
LINE
  8
0
 62
     0
 10
367.213
 20
146.4
 30
0.0
 11
367.379
 21
146.043
 31
0.0
  0
LINE
  8
0
 62
     0
 10
367.379
 20
146.043
 30
0.0
 11
367.513
 21
145.675
 31
0.0
  0
LINE
  8
0
 62
     0
 10
367.513
 20
145.675
 30
0.0
 11
367.619
 21
145.298
 31
0.0
  0
LINE
  8
0
 62
     0
 10
367.619
 20
145.298
 30
0.0
 11
367.697
 21
144.913
 31
0.0
  0
LINE
  8
0
 62
     0
 10
367.697
 20
144.913
 30
0.0
 11
367.743
 21
144.523
 31
0.0
  0
LINE
  8
0
 62
     0
 10
367.743
 20
144.523
 30
0.0
 11
367.757
 21
144.129
 31
0.0
  0
LINE
  8
0
 62
     0
 10
367.757
 20
144.129
 30
0.0
 11
367.757
 21
5.30408
 31
0.0
  0
LINE
  8
0
 62
     0
 10
367.757
 20
5.30408
 30
0.0
 11
367.743
 21
4.91134
 31
0.0
  0
LINE
  8
0
 62
     0
 10
367.743
 20
4.91134
 30
0.0
 11
367.697
 21
4.52134
 31
0.0
  0
LINE
  8
0
 62
     0
 10
367.697
 20
4.52134
 30
0.0
 11
367.619
 21
4.13688
 31
0.0
  0
LINE
  8
0
 62
     0
 10
367.619
 20
4.13688
 30
0.0
 11
367.513
 21
3.75789
 31
0.0
  0
LINE
  8
0
 62
     0
 10
367.513
 20
3.75789
 30
0.0
 11
367.379
 21
3.38998
 31
0.0
  0
LINE
  8
0
 62
     0
 10
367.379
 20
3.38998
 30
0.0
 11
367.213
 21
3.03444
 31
0.0
  0
LINE
  8
0
 62
     0
 10
367.213
 20
3.03444
 30
0.0
 11
367.023
 21
2.69131
 31
0.0
  0
LINE
  8
0
 62
     0
 10
367.023
 20
2.69131
 30
0.0
 11
366.804
 21
2.36609
 31
0.0
  0
LINE
  8
0
 62
     0
 10
366.804
 20
2.36609
 30
0.0
 11
366.561
 21
2.05603
 31
0.0
  0
LINE
  8
0
 62
     0
 10
366.561
 20
2.05603
 30
0.0
 11
366.296
 21
1.76802
 31
0.0
  0
LINE
  8
0
 62
     0
 10
366.296
 20
1.76802
 30
0.0
 11
366.007
 21
1.50206
 31
0.0
  0
LINE
  8
0
 62
     0
 10
366.007
 20
1.50206
 30
0.0
 11
365.696
 21
1.25815
 31
0.0
  0
LINE
  8
0
 62
     0
 10
365.696
 20
1.25815
 30
0.0
 11
365.372
 21
1.04042
 31
0.0
  0
LINE
  8
0
 62
     0
 10
365.372
 20
1.04042
 30
0.0
 11
365.03
 21
0.848872
 31
0.0
  0
LINE
  8
0
 62
     0
 10
365.03
 20
0.848872
 30
0.0
 11
364.67
 21
0.684886
 31
0.0
  0
LINE
  8
0
 62
     0
 10
364.67
 20
0.684886
 30
0.0
 11
364.303
 21
0.54846
 31
0.0
  0
LINE
  8
0
 62
     0
 10
364.303
 20
0.54846
 30
0.0
 11
363.926
 21
0.442352
 31
0.0
  0
LINE
  8
0
 62
     0
 10
363.926
 20
0.442352
 30
0.0
 11
363.541
 21
0.365181
 31
0.0
  0
LINE
  8
0
 62
     0
 10
363.541
 20
0.365181
 30
0.0
 11
363.149
 21
0.319705
 31
0.0
  0
LINE
  8
0
 62
     0
 10
363.149
 20
0.319705
 30
0.0
 11
362.758
 21
0.303168
 31
0.0
  0
LINE
  8
0
 62
     0
 10
362.758
 20
0.303168
 30
0.0
 11
5.09598
 21
0.303168
 31
0.0
  0
LINE
  8
0
 62
     0
 10
5.09598
 20
0.303168
 30
0.0
 11
4.70186
 21
0.319705
 31
0.0
  0
LINE
  8
0
 62
     0
 10
4.70186
 20
0.319705
 30
0.0
 11
4.3119
 21
0.365181
 31
0.0
  0
LINE
  8
0
 62
     0
 10
4.3119
 20
0.365181
 30
0.0
 11
3.9274
 21
0.442352
 31
0.0
  0
LINE
  8
0
 62
     0
 10
3.9274
 20
0.442352
 30
0.0
 11
3.54983
 21
0.54846
 31
0.0
  0
LINE
  8
0
 62
     0
 10
3.54983
 20
0.54846
 30
0.0
 11
3.18189
 21
0.684886
 31
0.0
  0
LINE
  8
0
 62
     0
 10
3.18189
 20
0.684886
 30
0.0
 11
2.82498
 21
0.848872
 31
0.0
  0
LINE
  8
0
 62
     0
 10
2.82498
 20
0.848872
 30
0.0
 11
2.48185
 21
1.04042
 31
0.0
  0
LINE
  8
0
 62
     0
 10
2.48185
 20
1.04042
 30
0.0
 11
2.15663
 21
1.25815
 31
0.0
  0
LINE
  8
0
 62
     0
 10
2.15663
 20
1.25815
 30
0.0
 11
1.84795
 21
1.50206
 31
0.0
  0
LINE
  8
0
 62
     0
 10
1.84795
 20
1.50206
 30
0.0
 11
1.55994
 21
1.76802
 31
0.0
  0
LINE
  8
0
 62
     0
 10
1.55994
 20
1.76802
 30
0.0
 11
1.2926
 21
2.05603
 31
0.0
  0
LINE
  8
0
 62
     0
 10
1.2926
 20
2.05603
 30
0.0
 11
1.05006
 21
2.36609
 31
0.0
  0
LINE
  8
0
 62
     0
 10
1.05006
 20
2.36609
 30
0.0
 11
0.830957
 21
2.69131
 31
0.0
  0
LINE
  8
0
 62
     0
 10
0.830957
 20
2.69131
 30
0.0
 11
0.63941
 21
3.03444
 31
0.0
  0
LINE
  8
0
 62
     0
 10
0.63941
 20
3.03444
 30
0.0
 11
0.475424
 21
3.38998
 31
0.0
  0
LINE
  8
0
 62
     0
 10
0.475424
 20
3.38998
 30
0.0
 11
0.338998
 21
3.75789
 31
0.0
  0
LINE
  8
0
 62
     0
 10
0.338998
 20
3.75789
 30
0.0
 11
0.232888
 21
4.13688
 31
0.0
  0
LINE
  8
0
 62
     0
 10
0.232888
 20
4.13688
 30
0.0
 11
0.157097
 21
4.52134
 31
0.0
  0
LINE
  8
0
 62
     0
 10
0.157097
 20
4.52134
 30
0.0
 11
0.110243
 21
4.91134
 31
0.0
  0
LINE
  8
0
 62
     0
 10
0.110243
 20
4.91134
 30
0.0
 11
0.0950846
 21
5.30408
 31
0.0
  0
LINE
  8
0
 62
     0
 10
0.0950846
 20
5.30408
 30
0.0
 11
0.0950846
 21
144.129
 31
0.0
  0
LINE
  8
0
 62
     0
 10
0.0950846
 20
144.129
 30
0.0
 11
0.110243
 21
144.523
 31
0.0
  0
LINE
  8
0
 62
     0
 10
0.110243
 20
144.523
 30
0.0
 11
0.157097
 21
144.913
 31
0.0
  0
LINE
  8
0
 62
     0
 10
0.157097
 20
144.913
 30
0.0
 11
0.232888
 21
145.298
 31
0.0
  0
LINE
  8
0
 62
     0
 10
0.232888
 20
145.298
 30
0.0
 11
0.338998
 21
145.675
 31
0.0
  0
LINE
  8
0
 62
     0
 10
0.338998
 20
145.675
 30
0.0
 11
0.475424
 21
146.043
 31
0.0
  0
LINE
  8
0
 62
     0
 10
0.475424
 20
146.043
 30
0.0
 11
0.63941
 21
146.4
 31
0.0
  0
LINE
  8
0
 62
     0
 10
0.63941
 20
146.4
 30
0.0
 11
0.830957
 21
146.743
 31
0.0
  0
LINE
  8
0
 62
     0
 10
0.830957
 20
146.743
 30
0.0
 11
1.05006
 21
147.068
 31
0.0
  0
LINE
  8
0
 62
     0
 10
1.05006
 20
147.068
 30
0.0
 11
1.2926
 21
147.377
 31
0.0
  0
LINE
  8
0
 62
     0
 10
1.2926
 20
147.377
 30
0.0
 11
1.55994
 21
147.665
 31
0.0
  0
LINE
  8
0
 62
     0
 10
1.55994
 20
147.665
 30
0.0
 11
1.84795
 21
147.932
 31
0.0
  0
LINE
  8
0
 62
     0
 10
1.84795
 20
147.932
 30
0.0
 11
2.15663
 21
148.175
 31
0.0
  0
LINE
  8
0
 62
     0
 10
2.15663
 20
148.175
 30
0.0
 11
2.48185
 21
148.394
 31
0.0
  0
LINE
  8
0
 62
     0
 10
2.48185
 20
148.394
 30
0.0
 11
2.82498
 21
148.586
 31
0.0
  0
LINE
  8
0
 62
     0
 10
2.82498
 20
148.586
 30
0.0
 11
3.18189
 21
148.749
 31
0.0
  0
LINE
  8
0
 62
     0
 10
3.18189
 20
148.749
 30
0.0
 11
3.54983
 21
148.886
 31
0.0
  0
LINE
  8
0
 62
     0
 10
3.54983
 20
148.886
 30
0.0
 11
3.9274
 21
148.992
 31
0.0
  0
LINE
  8
0
 62
     0
 10
3.9274
 20
148.992
 30
0.0
 11
4.3119
 21
149.068
 31
0.0
  0
LINE
  8
0
 62
     0
 10
4.3119
 20
149.068
 30
0.0
 11
4.70186
 21
149.115
 31
0.0
  0
LINE
  8
0
 62
     0
 10
4.70186
 20
149.115
 30
0.0
 11
5.09598
 21
149.13
 31
0.0
  0
LINE
  8
0
 62
     0
 10
5.09598
 20
149.13
 30
0.0
 11
362.758
 21
149.13
 31
0.0
  0
LINE
  8
0
 62
     0
 10
4.63158
 20
6.73033
 30
0.0
 11
4.21404
 21
6.51813
 31
0.0
  0
LINE
  8
0
 62
     0
 10
4.21404
 20
6.51813
 30
0.0
 11
3.88193
 21
6.18603
 31
0.0
  0
LINE
  8
0
 62
     0
 10
3.88193
 20
6.18603
 30
0.0
 11
3.66832
 21
5.76711
 31
0.0
  0
LINE
  8
0
 62
     0
 10
3.66832
 20
5.76711
 30
0.0
 11
3.59392
 21
5.30408
 31
0.0
  0
LINE
  8
0
 62
     0
 10
3.59392
 20
5.30408
 30
0.0
 11
3.66832
 21
4.84106
 31
0.0
  0
LINE
  8
0
 62
     0
 10
3.66832
 20
4.84106
 30
0.0
 11
3.88193
 21
4.42214
 31
0.0
  0
LINE
  8
0
 62
     0
 10
3.88193
 20
4.42214
 30
0.0
 11
4.21404
 21
4.09003
 31
0.0
  0
LINE
  8
0
 62
     0
 10
4.21404
 20
4.09003
 30
0.0
 11
4.63158
 21
3.8778
 31
0.0
  0
LINE
  8
0
 62
     0
 10
4.63158
 20
3.8778
 30
0.0
 11
5.0946
 21
3.8034
 31
0.0
  0
LINE
  8
0
 62
     0
 10
5.0946
 20
3.8034
 30
0.0
 11
5.559
 21
3.8778
 31
0.0
  0
LINE
  8
0
 62
     0
 10
5.559
 20
3.8778
 30
0.0
 11
5.97655
 21
4.09003
 31
0.0
  0
LINE
  8
0
 62
     0
 10
5.97655
 20
4.09003
 30
0.0
 11
6.30865
 21
4.42214
 31
0.0
  0
LINE
  8
0
 62
     0
 10
6.30865
 20
4.42214
 30
0.0
 11
6.52089
 21
4.84106
 31
0.0
  0
LINE
  8
0
 62
     0
 10
6.52089
 20
4.84106
 30
0.0
 11
6.59391
 21
5.30408
 31
0.0
  0
LINE
  8
0
 62
     0
 10
6.59391
 20
5.30408
 30
0.0
 11
6.52089
 21
5.76711
 31
0.0
  0
LINE
  8
0
 62
     0
 10
6.52089
 20
5.76711
 30
0.0
 11
6.30865
 21
6.18603
 31
0.0
  0
LINE
  8
0
 62
     0
 10
6.30865
 20
6.18603
 30
0.0
 11
5.97655
 21
6.51813
 31
0.0
  0
LINE
  8
0
 62
     0
 10
5.97655
 20
6.51813
 30
0.0
 11
5.559
 21
6.73033
 31
0.0
  0
LINE
  8
0
 62
     0
 10
5.559
 20
6.73033
 30
0.0
 11
5.0946
 21
6.80339
 31
0.0
  0
LINE
  8
0
 62
     0
 10
5.0946
 20
6.80339
 30
0.0
 11
4.63158
 21
6.73033
 31
0.0
  0
LINE
  8
0
 62
     0
 10
123.853
 20
6.73033
 30
0.0
 11
123.435
 21
6.51813
 31
0.0
  0
LINE
  8
0
 62
     0
 10
123.435
 20
6.51813
 30
0.0
 11
123.103
 21
6.18603
 31
0.0
  0
LINE
  8
0
 62
     0
 10
123.103
 20
6.18603
 30
0.0
 11
122.889
 21
5.76711
 31
0.0
  0
LINE
  8
0
 62
     0
 10
122.889
 20
5.76711
 30
0.0
 11
122.816
 21
5.30408
 31
0.0
  0
LINE
  8
0
 62
     0
 10
122.816
 20
5.30408
 30
0.0
 11
122.889
 21
4.84106
 31
0.0
  0
LINE
  8
0
 62
     0
 10
122.889
 20
4.84106
 30
0.0
 11
123.103
 21
4.42214
 31
0.0
  0
LINE
  8
0
 62
     0
 10
123.103
 20
4.42214
 30
0.0
 11
123.435
 21
4.09003
 31
0.0
  0
LINE
  8
0
 62
     0
 10
123.435
 20
4.09003
 30
0.0
 11
123.853
 21
3.8778
 31
0.0
  0
LINE
  8
0
 62
     0
 10
123.853
 20
3.8778
 30
0.0
 11
124.317
 21
3.8034
 31
0.0
  0
LINE
  8
0
 62
     0
 10
124.317
 20
3.8034
 30
0.0
 11
124.78
 21
3.8778
 31
0.0
  0
LINE
  8
0
 62
     0
 10
124.78
 20
3.8778
 30
0.0
 11
125.198
 21
4.09003
 31
0.0
  0
LINE
  8
0
 62
     0
 10
125.198
 20
4.09003
 30
0.0
 11
125.53
 21
4.42214
 31
0.0
  0
LINE
  8
0
 62
     0
 10
125.53
 20
4.42214
 30
0.0
 11
125.741
 21
4.84106
 31
0.0
  0
LINE
  8
0
 62
     0
 10
125.741
 20
4.84106
 30
0.0
 11
125.816
 21
5.30408
 31
0.0
  0
LINE
  8
0
 62
     0
 10
125.816
 20
5.30408
 30
0.0
 11
125.741
 21
5.76711
 31
0.0
  0
LINE
  8
0
 62
     0
 10
125.741
 20
5.76711
 30
0.0
 11
125.53
 21
6.18603
 31
0.0
  0
LINE
  8
0
 62
     0
 10
125.53
 20
6.18603
 30
0.0
 11
125.198
 21
6.51813
 31
0.0
  0
LINE
  8
0
 62
     0
 10
125.198
 20
6.51813
 30
0.0
 11
124.78
 21
6.73033
 31
0.0
  0
LINE
  8
0
 62
     0
 10
124.78
 20
6.73033
 30
0.0
 11
124.317
 21
6.80339
 31
0.0
  0
LINE
  8
0
 62
     0
 10
124.317
 20
6.80339
 30
0.0
 11
123.853
 21
6.73033
 31
0.0
  0
LINE
  8
0
 62
     0
 10
243.073
 20
6.73033
 30
0.0
 11
242.656
 21
6.51813
 31
0.0
  0
LINE
  8
0
 62
     0
 10
242.656
 20
6.51813
 30
0.0
 11
242.324
 21
6.18603
 31
0.0
  0
LINE
  8
0
 62
     0
 10
242.324
 20
6.18603
 30
0.0
 11
242.11
 21
5.76711
 31
0.0
  0
LINE
  8
0
 62
     0
 10
242.11
 20
5.76711
 30
0.0
 11
242.037
 21
5.30408
 31
0.0
  0
LINE
  8
0
 62
     0
 10
242.037
 20
5.30408
 30
0.0
 11
242.11
 21
4.84106
 31
0.0
  0
LINE
  8
0
 62
     0
 10
242.11
 20
4.84106
 30
0.0
 11
242.324
 21
4.42214
 31
0.0
  0
LINE
  8
0
 62
     0
 10
242.324
 20
4.42214
 30
0.0
 11
242.656
 21
4.09003
 31
0.0
  0
LINE
  8
0
 62
     0
 10
242.656
 20
4.09003
 30
0.0
 11
243.073
 21
3.8778
 31
0.0
  0
LINE
  8
0
 62
     0
 10
243.073
 20
3.8778
 30
0.0
 11
243.538
 21
3.8034
 31
0.0
  0
LINE
  8
0
 62
     0
 10
243.538
 20
3.8034
 30
0.0
 11
244.001
 21
3.8778
 31
0.0
  0
LINE
  8
0
 62
     0
 10
244.001
 20
3.8778
 30
0.0
 11
244.42
 21
4.09003
 31
0.0
  0
LINE
  8
0
 62
     0
 10
244.42
 20
4.09003
 30
0.0
 11
244.751
 21
4.42214
 31
0.0
  0
LINE
  8
0
 62
     0
 10
244.751
 20
4.42214
 30
0.0
 11
244.963
 21
4.84106
 31
0.0
  0
LINE
  8
0
 62
     0
 10
244.963
 20
4.84106
 30
0.0
 11
245.037
 21
5.30408
 31
0.0
  0
LINE
  8
0
 62
     0
 10
245.037
 20
5.30408
 30
0.0
 11
244.963
 21
5.76711
 31
0.0
  0
LINE
  8
0
 62
     0
 10
244.963
 20
5.76711
 30
0.0
 11
244.751
 21
6.18603
 31
0.0
  0
LINE
  8
0
 62
     0
 10
244.751
 20
6.18603
 30
0.0
 11
244.42
 21
6.51813
 31
0.0
  0
LINE
  8
0
 62
     0
 10
244.42
 20
6.51813
 30
0.0
 11
244.001
 21
6.73033
 31
0.0
  0
LINE
  8
0
 62
     0
 10
244.001
 20
6.73033
 30
0.0
 11
243.538
 21
6.80339
 31
0.0
  0
LINE
  8
0
 62
     0
 10
243.538
 20
6.80339
 30
0.0
 11
243.073
 21
6.73033
 31
0.0
  0
LINE
  8
0
 62
     0
 10
362.296
 20
6.73033
 30
0.0
 11
361.876
 21
6.51813
 31
0.0
  0
LINE
  8
0
 62
     0
 10
361.876
 20
6.51813
 30
0.0
 11
361.544
 21
6.18603
 31
0.0
  0
LINE
  8
0
 62
     0
 10
361.544
 20
6.18603
 30
0.0
 11
361.333
 21
5.76711
 31
0.0
  0
LINE
  8
0
 62
     0
 10
361.333
 20
5.76711
 30
0.0
 11
361.259
 21
5.30408
 31
0.0
  0
LINE
  8
0
 62
     0
 10
361.259
 20
5.30408
 30
0.0
 11
361.333
 21
4.84106
 31
0.0
  0
LINE
  8
0
 62
     0
 10
361.333
 20
4.84106
 30
0.0
 11
361.544
 21
4.42214
 31
0.0
  0
LINE
  8
0
 62
     0
 10
361.544
 20
4.42214
 30
0.0
 11
361.876
 21
4.09003
 31
0.0
  0
LINE
  8
0
 62
     0
 10
361.876
 20
4.09003
 30
0.0
 11
362.296
 21
3.8778
 31
0.0
  0
LINE
  8
0
 62
     0
 10
362.296
 20
3.8778
 30
0.0
 11
362.758
 21
3.8034
 31
0.0
  0
LINE
  8
0
 62
     0
 10
362.758
 20
3.8034
 30
0.0
 11
363.224
 21
3.8778
 31
0.0
  0
LINE
  8
0
 62
     0
 10
363.224
 20
3.8778
 30
0.0
 11
363.64
 21
4.09003
 31
0.0
  0
LINE
  8
0
 62
     0
 10
363.64
 20
4.09003
 30
0.0
 11
363.971
 21
4.42214
 31
0.0
  0
LINE
  8
0
 62
     0
 10
363.971
 20
4.42214
 30
0.0
 11
364.187
 21
4.84106
 31
0.0
  0
LINE
  8
0
 62
     0
 10
364.187
 20
4.84106
 30
0.0
 11
364.257
 21
5.30408
 31
0.0
  0
LINE
  8
0
 62
     0
 10
364.257
 20
5.30408
 30
0.0
 11
364.187
 21
5.76711
 31
0.0
  0
LINE
  8
0
 62
     0
 10
364.187
 20
5.76711
 30
0.0
 11
363.971
 21
6.18603
 31
0.0
  0
LINE
  8
0
 62
     0
 10
363.971
 20
6.18603
 30
0.0
 11
363.64
 21
6.51813
 31
0.0
  0
LINE
  8
0
 62
     0
 10
363.64
 20
6.51813
 30
0.0
 11
363.224
 21
6.73033
 31
0.0
  0
LINE
  8
0
 62
     0
 10
363.224
 20
6.73033
 30
0.0
 11
362.758
 21
6.80339
 31
0.0
  0
LINE
  8
0
 62
     0
 10
362.758
 20
6.80339
 30
0.0
 11
362.296
 21
6.73033
 31
0.0
  0
LINE
  8
0
 62
     0
 10
134.064
 20
26.829
 30
0.0
 11
134.064
 21
25.83
 31
0.0
  0
LINE
  8
0
 62
     0
 10
134.064
 20
25.83
 30
0.0
 11
133.263
 21
25.83
 31
0.0
  0
LINE
  8
0
 62
     0
 10
133.263
 20
25.83
 30
0.0
 11
133.263
 21
22.7294
 31
0.0
  0
LINE
  8
0
 62
     0
 10
133.263
 20
22.7294
 30
0.0
 11
134.064
 21
22.7294
 31
0.0
  0
LINE
  8
0
 62
     0
 10
134.064
 20
22.7294
 30
0.0
 11
134.064
 21
22.1299
 31
0.0
  0
LINE
  8
0
 62
     0
 10
134.064
 20
22.1299
 30
0.0
 11
94.4383
 21
22.1299
 31
0.0
  0
LINE
  8
0
 62
     0
 10
94.4383
 20
22.1299
 30
0.0
 11
94.4383
 21
25.36
 31
0.0
  0
LINE
  8
0
 62
     0
 10
94.4383
 20
25.36
 30
0.0
 11
87.6886
 21
25.36
 31
0.0
  0
LINE
  8
0
 62
     0
 10
87.6886
 20
25.36
 30
0.0
 11
87.6886
 21
22.1299
 31
0.0
  0
LINE
  8
0
 62
     0
 10
87.6886
 20
22.1299
 30
0.0
 11
86.8634
 21
22.1299
 31
0.0
  0
LINE
  8
0
 62
     0
 10
86.8634
 20
22.1299
 30
0.0
 11
86.8634
 21
19.3298
 31
0.0
  0
LINE
  8
0
 62
     0
 10
86.8634
 20
19.3298
 30
0.0
 11
87.6886
 21
19.3298
 31
0.0
  0
LINE
  8
0
 62
     0
 10
87.6886
 20
19.3298
 30
0.0
 11
87.6886
 21
13.0597
 31
0.0
  0
LINE
  8
0
 62
     0
 10
87.6886
 20
13.0597
 30
0.0
 11
89.414
 21
13.0597
 31
0.0
  0
LINE
  8
0
 62
     0
 10
89.414
 20
13.0597
 30
0.0
 11
89.414
 21
11.8594
 31
0.0
  0
LINE
  8
0
 62
     0
 10
89.414
 20
11.8594
 30
0.0
 11
92.7132
 21
11.8594
 31
0.0
  0
LINE
  8
0
 62
     0
 10
92.7132
 20
11.8594
 30
0.0
 11
92.7132
 21
13.0597
 31
0.0
  0
LINE
  8
0
 62
     0
 10
92.7132
 20
13.0597
 30
0.0
 11
94.4383
 21
13.0597
 31
0.0
  0
LINE
  8
0
 62
     0
 10
94.4383
 20
13.0597
 30
0.0
 11
94.4383
 21
17.53
 31
0.0
  0
LINE
  8
0
 62
     0
 10
94.4383
 20
17.53
 30
0.0
 11
134.064
 21
17.53
 31
0.0
  0
LINE
  8
0
 62
     0
 10
134.064
 20
17.53
 30
0.0
 11
134.064
 21
16.9292
 31
0.0
  0
LINE
  8
0
 62
     0
 10
134.064
 20
16.9292
 30
0.0
 11
133.263
 21
16.9292
 31
0.0
  0
LINE
  8
0
 62
     0
 10
133.263
 20
16.9292
 30
0.0
 11
133.263
 21
13.83
 31
0.0
  0
LINE
  8
0
 62
     0
 10
133.263
 20
13.83
 30
0.0
 11
134.064
 21
13.83
 31
0.0
  0
LINE
  8
0
 62
     0
 10
134.064
 20
13.83
 30
0.0
 11
134.064
 21
12.8295
 31
0.0
  0
LINE
  8
0
 62
     0
 10
134.064
 20
12.8295
 30
0.0
 11
148.063
 21
12.8295
 31
0.0
  0
LINE
  8
0
 62
     0
 10
148.063
 20
12.8295
 30
0.0
 11
148.063
 21
13.83
 31
0.0
  0
LINE
  8
0
 62
     0
 10
148.063
 20
13.83
 30
0.0
 11
148.864
 21
13.83
 31
0.0
  0
LINE
  8
0
 62
     0
 10
148.864
 20
13.83
 30
0.0
 11
148.864
 21
16.9292
 31
0.0
  0
LINE
  8
0
 62
     0
 10
148.864
 20
16.9292
 30
0.0
 11
148.063
 21
16.9292
 31
0.0
  0
LINE
  8
0
 62
     0
 10
148.063
 20
16.9292
 30
0.0
 11
148.063
 21
17.53
 31
0.0
  0
LINE
  8
0
 62
     0
 10
148.063
 20
17.53
 30
0.0
 11
187.689
 21
17.53
 31
0.0
  0
LINE
  8
0
 62
     0
 10
187.689
 20
17.53
 30
0.0
 11
187.689
 21
13.0597
 31
0.0
  0
LINE
  8
0
 62
     0
 10
187.689
 20
13.0597
 30
0.0
 11
189.414
 21
13.0597
 31
0.0
  0
LINE
  8
0
 62
     0
 10
189.414
 20
13.0597
 30
0.0
 11
189.414
 21
11.8594
 31
0.0
  0
LINE
  8
0
 62
     0
 10
189.414
 20
11.8594
 30
0.0
 11
192.713
 21
11.8594
 31
0.0
  0
LINE
  8
0
 62
     0
 10
192.713
 20
11.8594
 30
0.0
 11
192.713
 21
13.0597
 31
0.0
  0
LINE
  8
0
 62
     0
 10
192.713
 20
13.0597
 30
0.0
 11
194.438
 21
13.0597
 31
0.0
  0
LINE
  8
0
 62
     0
 10
194.438
 20
13.0597
 30
0.0
 11
194.438
 21
19.3298
 31
0.0
  0
LINE
  8
0
 62
     0
 10
194.438
 20
19.3298
 30
0.0
 11
195.264
 21
19.3298
 31
0.0
  0
LINE
  8
0
 62
     0
 10
195.264
 20
19.3298
 30
0.0
 11
195.264
 21
22.1299
 31
0.0
  0
LINE
  8
0
 62
     0
 10
195.264
 20
22.1299
 30
0.0
 11
194.438
 21
22.1299
 31
0.0
  0
LINE
  8
0
 62
     0
 10
194.438
 20
22.1299
 30
0.0
 11
194.438
 21
25.36
 31
0.0
  0
LINE
  8
0
 62
     0
 10
194.438
 20
25.36
 30
0.0
 11
187.689
 21
25.36
 31
0.0
  0
LINE
  8
0
 62
     0
 10
187.689
 20
25.36
 30
0.0
 11
187.689
 21
22.1299
 31
0.0
  0
LINE
  8
0
 62
     0
 10
187.689
 20
22.1299
 30
0.0
 11
148.063
 21
22.1299
 31
0.0
  0
LINE
  8
0
 62
     0
 10
148.063
 20
22.1299
 30
0.0
 11
148.063
 21
22.7294
 31
0.0
  0
LINE
  8
0
 62
     0
 10
148.063
 20
22.7294
 30
0.0
 11
148.864
 21
22.7294
 31
0.0
  0
LINE
  8
0
 62
     0
 10
148.864
 20
22.7294
 30
0.0
 11
148.864
 21
25.83
 31
0.0
  0
LINE
  8
0
 62
     0
 10
148.864
 20
25.83
 30
0.0
 11
148.063
 21
25.83
 31
0.0
  0
LINE
  8
0
 62
     0
 10
148.063
 20
25.83
 30
0.0
 11
148.063
 21
26.829
 31
0.0
  0
LINE
  8
0
 62
     0
 10
148.063
 20
26.829
 30
0.0
 11
134.064
 21
26.829
 31
0.0
  0
LINE
  8
0
 62
     0
 10
341.232
 20
26.829
 30
0.0
 11
341.232
 21
25.83
 31
0.0
  0
LINE
  8
0
 62
     0
 10
341.232
 20
25.83
 30
0.0
 11
340.432
 21
25.83
 31
0.0
  0
LINE
  8
0
 62
     0
 10
340.432
 20
25.83
 30
0.0
 11
340.432
 21
22.7294
 31
0.0
  0
LINE
  8
0
 62
     0
 10
340.432
 20
22.7294
 30
0.0
 11
341.232
 21
22.7294
 31
0.0
  0
LINE
  8
0
 62
     0
 10
341.232
 20
22.7294
 30
0.0
 11
341.232
 21
16.9292
 31
0.0
  0
LINE
  8
0
 62
     0
 10
341.232
 20
16.9292
 30
0.0
 11
340.432
 21
16.9292
 31
0.0
  0
LINE
  8
0
 62
     0
 10
340.432
 20
16.9292
 30
0.0
 11
340.432
 21
13.83
 31
0.0
  0
LINE
  8
0
 62
     0
 10
340.432
 20
13.83
 30
0.0
 11
341.232
 21
13.83
 31
0.0
  0
LINE
  8
0
 62
     0
 10
341.232
 20
13.83
 30
0.0
 11
341.232
 21
12.8295
 31
0.0
  0
LINE
  8
0
 62
     0
 10
341.232
 20
12.8295
 30
0.0
 11
355.233
 21
12.8295
 31
0.0
  0
LINE
  8
0
 62
     0
 10
355.233
 20
12.8295
 30
0.0
 11
355.233
 21
13.83
 31
0.0
  0
LINE
  8
0
 62
     0
 10
355.233
 20
13.83
 30
0.0
 11
356.034
 21
13.83
 31
0.0
  0
LINE
  8
0
 62
     0
 10
356.034
 20
13.83
 30
0.0
 11
356.034
 21
16.9292
 31
0.0
  0
LINE
  8
0
 62
     0
 10
356.034
 20
16.9292
 30
0.0
 11
355.233
 21
16.9292
 31
0.0
  0
LINE
  8
0
 62
     0
 10
355.233
 20
16.9292
 30
0.0
 11
355.233
 21
22.7294
 31
0.0
  0
LINE
  8
0
 62
     0
 10
355.233
 20
22.7294
 30
0.0
 11
356.034
 21
22.7294
 31
0.0
  0
LINE
  8
0
 62
     0
 10
356.034
 20
22.7294
 30
0.0
 11
356.034
 21
25.83
 31
0.0
  0
LINE
  8
0
 62
     0
 10
356.034
 20
25.83
 30
0.0
 11
355.233
 21
25.83
 31
0.0
  0
LINE
  8
0
 62
     0
 10
355.233
 20
25.83
 30
0.0
 11
355.233
 21
26.829
 31
0.0
  0
LINE
  8
0
 62
     0
 10
355.233
 20
26.829
 30
0.0
 11
341.232
 21
26.829
 31
0.0
  0
LINE
  8
0
 62
     0
 10
322.182
 20
26.829
 30
0.0
 11
322.182
 21
25.83
 31
0.0
  0
LINE
  8
0
 62
     0
 10
322.182
 20
25.83
 30
0.0
 11
321.382
 21
25.83
 31
0.0
  0
LINE
  8
0
 62
     0
 10
321.382
 20
25.83
 30
0.0
 11
321.382
 21
22.7294
 31
0.0
  0
LINE
  8
0
 62
     0
 10
321.382
 20
22.7294
 30
0.0
 11
322.182
 21
22.7294
 31
0.0
  0
LINE
  8
0
 62
     0
 10
322.182
 20
22.7294
 30
0.0
 11
322.182
 21
16.9292
 31
0.0
  0
LINE
  8
0
 62
     0
 10
322.182
 20
16.9292
 30
0.0
 11
321.382
 21
16.9292
 31
0.0
  0
LINE
  8
0
 62
     0
 10
321.382
 20
16.9292
 30
0.0
 11
321.382
 21
13.83
 31
0.0
  0
LINE
  8
0
 62
     0
 10
321.382
 20
13.83
 30
0.0
 11
322.182
 21
13.83
 31
0.0
  0
LINE
  8
0
 62
     0
 10
322.182
 20
13.83
 30
0.0
 11
322.182
 21
12.8295
 31
0.0
  0
LINE
  8
0
 62
     0
 10
322.182
 20
12.8295
 30
0.0
 11
336.182
 21
12.8295
 31
0.0
  0
LINE
  8
0
 62
     0
 10
336.182
 20
12.8295
 30
0.0
 11
336.182
 21
13.83
 31
0.0
  0
LINE
  8
0
 62
     0
 10
336.182
 20
13.83
 30
0.0
 11
336.983
 21
13.83
 31
0.0
  0
LINE
  8
0
 62
     0
 10
336.983
 20
13.83
 30
0.0
 11
336.983
 21
16.9292
 31
0.0
  0
LINE
  8
0
 62
     0
 10
336.983
 20
16.9292
 30
0.0
 11
336.182
 21
16.9292
 31
0.0
  0
LINE
  8
0
 62
     0
 10
336.182
 20
16.9292
 30
0.0
 11
336.182
 21
22.7294
 31
0.0
  0
LINE
  8
0
 62
     0
 10
336.182
 20
22.7294
 30
0.0
 11
336.983
 21
22.7294
 31
0.0
  0
LINE
  8
0
 62
     0
 10
336.983
 20
22.7294
 30
0.0
 11
336.983
 21
25.83
 31
0.0
  0
LINE
  8
0
 62
     0
 10
336.983
 20
25.83
 30
0.0
 11
336.182
 21
25.83
 31
0.0
  0
LINE
  8
0
 62
     0
 10
336.182
 20
25.83
 30
0.0
 11
336.182
 21
26.829
 31
0.0
  0
LINE
  8
0
 62
     0
 10
336.182
 20
26.829
 30
0.0
 11
322.182
 21
26.829
 31
0.0
  0
LINE
  8
0
 62
     0
 10
303.132
 20
26.829
 30
0.0
 11
303.132
 21
25.83
 31
0.0
  0
LINE
  8
0
 62
     0
 10
303.132
 20
25.83
 30
0.0
 11
302.332
 21
25.83
 31
0.0
  0
LINE
  8
0
 62
     0
 10
302.332
 20
25.83
 30
0.0
 11
302.332
 21
22.7294
 31
0.0
  0
LINE
  8
0
 62
     0
 10
302.332
 20
22.7294
 30
0.0
 11
303.132
 21
22.7294
 31
0.0
  0
LINE
  8
0
 62
     0
 10
303.132
 20
22.7294
 30
0.0
 11
303.132
 21
16.9292
 31
0.0
  0
LINE
  8
0
 62
     0
 10
303.132
 20
16.9292
 30
0.0
 11
302.332
 21
16.9292
 31
0.0
  0
LINE
  8
0
 62
     0
 10
302.332
 20
16.9292
 30
0.0
 11
302.332
 21
13.83
 31
0.0
  0
LINE
  8
0
 62
     0
 10
302.332
 20
13.83
 30
0.0
 11
303.132
 21
13.83
 31
0.0
  0
LINE
  8
0
 62
     0
 10
303.132
 20
13.83
 30
0.0
 11
303.132
 21
12.8295
 31
0.0
  0
LINE
  8
0
 62
     0
 10
303.132
 20
12.8295
 30
0.0
 11
317.132
 21
12.8295
 31
0.0
  0
LINE
  8
0
 62
     0
 10
317.132
 20
12.8295
 30
0.0
 11
317.132
 21
13.83
 31
0.0
  0
LINE
  8
0
 62
     0
 10
317.132
 20
13.83
 30
0.0
 11
317.933
 21
13.83
 31
0.0
  0
LINE
  8
0
 62
     0
 10
317.933
 20
13.83
 30
0.0
 11
317.933
 21
16.9292
 31
0.0
  0
LINE
  8
0
 62
     0
 10
317.933
 20
16.9292
 30
0.0
 11
317.132
 21
16.9292
 31
0.0
  0
LINE
  8
0
 62
     0
 10
317.132
 20
16.9292
 30
0.0
 11
317.132
 21
22.7294
 31
0.0
  0
LINE
  8
0
 62
     0
 10
317.132
 20
22.7294
 30
0.0
 11
317.933
 21
22.7294
 31
0.0
  0
LINE
  8
0
 62
     0
 10
317.933
 20
22.7294
 30
0.0
 11
317.933
 21
25.83
 31
0.0
  0
LINE
  8
0
 62
     0
 10
317.933
 20
25.83
 30
0.0
 11
317.132
 21
25.83
 31
0.0
  0
LINE
  8
0
 62
     0
 10
317.132
 20
25.83
 30
0.0
 11
317.132
 21
26.829
 31
0.0
  0
LINE
  8
0
 62
     0
 10
317.132
 20
26.829
 30
0.0
 11
303.132
 21
26.829
 31
0.0
  0
LINE
  8
0
 62
     0
 10
276.939
 20
26.829
 30
0.0
 11
276.939
 21
25.83
 31
0.0
  0
LINE
  8
0
 62
     0
 10
276.939
 20
25.83
 30
0.0
 11
276.138
 21
25.83
 31
0.0
  0
LINE
  8
0
 62
     0
 10
276.138
 20
25.83
 30
0.0
 11
276.138
 21
22.7294
 31
0.0
  0
LINE
  8
0
 62
     0
 10
276.138
 20
22.7294
 30
0.0
 11
276.939
 21
22.7294
 31
0.0
  0
LINE
  8
0
 62
     0
 10
276.939
 20
22.7294
 30
0.0
 11
276.939
 21
16.9292
 31
0.0
  0
LINE
  8
0
 62
     0
 10
276.939
 20
16.9292
 30
0.0
 11
276.138
 21
16.9292
 31
0.0
  0
LINE
  8
0
 62
     0
 10
276.138
 20
16.9292
 30
0.0
 11
276.138
 21
13.83
 31
0.0
  0
LINE
  8
0
 62
     0
 10
276.138
 20
13.83
 30
0.0
 11
276.939
 21
13.83
 31
0.0
  0
LINE
  8
0
 62
     0
 10
276.939
 20
13.83
 30
0.0
 11
276.939
 21
12.8295
 31
0.0
  0
LINE
  8
0
 62
     0
 10
276.939
 20
12.8295
 30
0.0
 11
290.938
 21
12.8295
 31
0.0
  0
LINE
  8
0
 62
     0
 10
290.938
 20
12.8295
 30
0.0
 11
290.938
 21
13.83
 31
0.0
  0
LINE
  8
0
 62
     0
 10
290.938
 20
13.83
 30
0.0
 11
291.739
 21
13.83
 31
0.0
  0
LINE
  8
0
 62
     0
 10
291.739
 20
13.83
 30
0.0
 11
291.739
 21
16.9292
 31
0.0
  0
LINE
  8
0
 62
     0
 10
291.739
 20
16.9292
 30
0.0
 11
290.938
 21
16.9292
 31
0.0
  0
LINE
  8
0
 62
     0
 10
290.938
 20
16.9292
 30
0.0
 11
290.938
 21
22.7294
 31
0.0
  0
LINE
  8
0
 62
     0
 10
290.938
 20
22.7294
 30
0.0
 11
291.739
 21
22.7294
 31
0.0
  0
LINE
  8
0
 62
     0
 10
291.739
 20
22.7294
 30
0.0
 11
291.739
 21
25.83
 31
0.0
  0
LINE
  8
0
 62
     0
 10
291.739
 20
25.83
 30
0.0
 11
290.938
 21
25.83
 31
0.0
  0
LINE
  8
0
 62
     0
 10
290.938
 20
25.83
 30
0.0
 11
290.938
 21
26.829
 31
0.0
  0
LINE
  8
0
 62
     0
 10
290.938
 20
26.829
 30
0.0
 11
276.939
 21
26.829
 31
0.0
  0
LINE
  8
0
 62
     0
 10
253.126
 20
26.829
 30
0.0
 11
253.126
 21
25.83
 31
0.0
  0
LINE
  8
0
 62
     0
 10
253.126
 20
25.83
 30
0.0
 11
252.327
 21
25.83
 31
0.0
  0
LINE
  8
0
 62
     0
 10
252.327
 20
25.83
 30
0.0
 11
252.327
 21
22.7294
 31
0.0
  0
LINE
  8
0
 62
     0
 10
252.327
 20
22.7294
 30
0.0
 11
253.126
 21
22.7294
 31
0.0
  0
LINE
  8
0
 62
     0
 10
253.126
 20
22.7294
 30
0.0
 11
253.126
 21
16.9292
 31
0.0
  0
LINE
  8
0
 62
     0
 10
253.126
 20
16.9292
 30
0.0
 11
252.327
 21
16.9292
 31
0.0
  0
LINE
  8
0
 62
     0
 10
252.327
 20
16.9292
 30
0.0
 11
252.327
 21
13.83
 31
0.0
  0
LINE
  8
0
 62
     0
 10
252.327
 20
13.83
 30
0.0
 11
253.126
 21
13.83
 31
0.0
  0
LINE
  8
0
 62
     0
 10
253.126
 20
13.83
 30
0.0
 11
253.126
 21
12.8295
 31
0.0
  0
LINE
  8
0
 62
     0
 10
253.126
 20
12.8295
 30
0.0
 11
267.126
 21
12.8295
 31
0.0
  0
LINE
  8
0
 62
     0
 10
267.126
 20
12.8295
 30
0.0
 11
267.126
 21
13.83
 31
0.0
  0
LINE
  8
0
 62
     0
 10
267.126
 20
13.83
 30
0.0
 11
267.927
 21
13.83
 31
0.0
  0
LINE
  8
0
 62
     0
 10
267.927
 20
13.83
 30
0.0
 11
267.927
 21
16.9292
 31
0.0
  0
LINE
  8
0
 62
     0
 10
267.927
 20
16.9292
 30
0.0
 11
267.126
 21
16.9292
 31
0.0
  0
LINE
  8
0
 62
     0
 10
267.126
 20
16.9292
 30
0.0
 11
267.126
 21
22.7294
 31
0.0
  0
LINE
  8
0
 62
     0
 10
267.126
 20
22.7294
 30
0.0
 11
267.927
 21
22.7294
 31
0.0
  0
LINE
  8
0
 62
     0
 10
267.927
 20
22.7294
 30
0.0
 11
267.927
 21
25.83
 31
0.0
  0
LINE
  8
0
 62
     0
 10
267.927
 20
25.83
 30
0.0
 11
267.126
 21
25.83
 31
0.0
  0
LINE
  8
0
 62
     0
 10
267.126
 20
25.83
 30
0.0
 11
267.126
 21
26.829
 31
0.0
  0
LINE
  8
0
 62
     0
 10
267.126
 20
26.829
 30
0.0
 11
253.126
 21
26.829
 31
0.0
  0
LINE
  8
0
 62
     0
 10
229.314
 20
26.829
 30
0.0
 11
229.314
 21
25.83
 31
0.0
  0
LINE
  8
0
 62
     0
 10
229.314
 20
25.83
 30
0.0
 11
228.513
 21
25.83
 31
0.0
  0
LINE
  8
0
 62
     0
 10
228.513
 20
25.83
 30
0.0
 11
228.513
 21
22.7294
 31
0.0
  0
LINE
  8
0
 62
     0
 10
228.513
 20
22.7294
 30
0.0
 11
229.314
 21
22.7294
 31
0.0
  0
LINE
  8
0
 62
     0
 10
229.314
 20
22.7294
 30
0.0
 11
229.314
 21
16.9292
 31
0.0
  0
LINE
  8
0
 62
     0
 10
229.314
 20
16.9292
 30
0.0
 11
228.513
 21
16.9292
 31
0.0
  0
LINE
  8
0
 62
     0
 10
228.513
 20
16.9292
 30
0.0
 11
228.513
 21
13.83
 31
0.0
  0
LINE
  8
0
 62
     0
 10
228.513
 20
13.83
 30
0.0
 11
229.314
 21
13.83
 31
0.0
  0
LINE
  8
0
 62
     0
 10
229.314
 20
13.83
 30
0.0
 11
229.314
 21
12.8295
 31
0.0
  0
LINE
  8
0
 62
     0
 10
229.314
 20
12.8295
 30
0.0
 11
243.313
 21
12.8295
 31
0.0
  0
LINE
  8
0
 62
     0
 10
243.313
 20
12.8295
 30
0.0
 11
243.313
 21
13.83
 31
0.0
  0
LINE
  8
0
 62
     0
 10
243.313
 20
13.83
 30
0.0
 11
244.114
 21
13.83
 31
0.0
  0
LINE
  8
0
 62
     0
 10
244.114
 20
13.83
 30
0.0
 11
244.114
 21
16.9292
 31
0.0
  0
LINE
  8
0
 62
     0
 10
244.114
 20
16.9292
 30
0.0
 11
243.313
 21
16.9292
 31
0.0
  0
LINE
  8
0
 62
     0
 10
243.313
 20
16.9292
 30
0.0
 11
243.313
 21
22.7294
 31
0.0
  0
LINE
  8
0
 62
     0
 10
243.313
 20
22.7294
 30
0.0
 11
244.114
 21
22.7294
 31
0.0
  0
LINE
  8
0
 62
     0
 10
244.114
 20
22.7294
 30
0.0
 11
244.114
 21
25.83
 31
0.0
  0
LINE
  8
0
 62
     0
 10
244.114
 20
25.83
 30
0.0
 11
243.313
 21
25.83
 31
0.0
  0
LINE
  8
0
 62
     0
 10
243.313
 20
25.83
 30
0.0
 11
243.313
 21
26.829
 31
0.0
  0
LINE
  8
0
 62
     0
 10
243.313
 20
26.829
 30
0.0
 11
229.314
 21
26.829
 31
0.0
  0
LINE
  8
0
 62
     0
 10
205.501
 20
26.829
 30
0.0
 11
205.501
 21
25.83
 31
0.0
  0
LINE
  8
0
 62
     0
 10
205.501
 20
25.83
 30
0.0
 11
204.702
 21
25.83
 31
0.0
  0
LINE
  8
0
 62
     0
 10
204.702
 20
25.83
 30
0.0
 11
204.702
 21
22.7294
 31
0.0
  0
LINE
  8
0
 62
     0
 10
204.702
 20
22.7294
 30
0.0
 11
205.501
 21
22.7294
 31
0.0
  0
LINE
  8
0
 62
     0
 10
205.501
 20
22.7294
 30
0.0
 11
205.501
 21
16.9292
 31
0.0
  0
LINE
  8
0
 62
     0
 10
205.501
 20
16.9292
 30
0.0
 11
204.702
 21
16.9292
 31
0.0
  0
LINE
  8
0
 62
     0
 10
204.702
 20
16.9292
 30
0.0
 11
204.702
 21
13.83
 31
0.0
  0
LINE
  8
0
 62
     0
 10
204.702
 20
13.83
 30
0.0
 11
205.501
 21
13.83
 31
0.0
  0
LINE
  8
0
 62
     0
 10
205.501
 20
13.83
 30
0.0
 11
205.501
 21
12.8295
 31
0.0
  0
LINE
  8
0
 62
     0
 10
205.501
 20
12.8295
 30
0.0
 11
219.501
 21
12.8295
 31
0.0
  0
LINE
  8
0
 62
     0
 10
219.501
 20
12.8295
 30
0.0
 11
219.501
 21
13.83
 31
0.0
  0
LINE
  8
0
 62
     0
 10
219.501
 20
13.83
 30
0.0
 11
220.302
 21
13.83
 31
0.0
  0
LINE
  8
0
 62
     0
 10
220.302
 20
13.83
 30
0.0
 11
220.302
 21
16.9292
 31
0.0
  0
LINE
  8
0
 62
     0
 10
220.302
 20
16.9292
 30
0.0
 11
219.501
 21
16.9292
 31
0.0
  0
LINE
  8
0
 62
     0
 10
219.501
 20
16.9292
 30
0.0
 11
219.501
 21
22.7294
 31
0.0
  0
LINE
  8
0
 62
     0
 10
219.501
 20
22.7294
 30
0.0
 11
220.302
 21
22.7294
 31
0.0
  0
LINE
  8
0
 62
     0
 10
220.302
 20
22.7294
 30
0.0
 11
220.302
 21
25.83
 31
0.0
  0
LINE
  8
0
 62
     0
 10
220.302
 20
25.83
 30
0.0
 11
219.501
 21
25.83
 31
0.0
  0
LINE
  8
0
 62
     0
 10
219.501
 20
25.83
 30
0.0
 11
219.501
 21
26.829
 31
0.0
  0
LINE
  8
0
 62
     0
 10
219.501
 20
26.829
 30
0.0
 11
205.501
 21
26.829
 31
0.0
  0
LINE
  8
0
 62
     0
 10
62.6262
 20
26.829
 30
0.0
 11
62.6262
 21
25.83
 31
0.0
  0
LINE
  8
0
 62
     0
 10
62.6262
 20
25.83
 30
0.0
 11
61.8271
 21
25.83
 31
0.0
  0
LINE
  8
0
 62
     0
 10
61.8271
 20
25.83
 30
0.0
 11
61.8271
 21
22.7294
 31
0.0
  0
LINE
  8
0
 62
     0
 10
61.8271
 20
22.7294
 30
0.0
 11
62.6262
 21
22.7294
 31
0.0
  0
LINE
  8
0
 62
     0
 10
62.6262
 20
22.7294
 30
0.0
 11
62.6262
 21
16.9292
 31
0.0
  0
LINE
  8
0
 62
     0
 10
62.6262
 20
16.9292
 30
0.0
 11
61.8271
 21
16.9292
 31
0.0
  0
LINE
  8
0
 62
     0
 10
61.8271
 20
16.9292
 30
0.0
 11
61.8271
 21
13.83
 31
0.0
  0
LINE
  8
0
 62
     0
 10
61.8271
 20
13.83
 30
0.0
 11
62.6262
 21
13.83
 31
0.0
  0
LINE
  8
0
 62
     0
 10
62.6262
 20
13.83
 30
0.0
 11
62.6262
 21
12.8295
 31
0.0
  0
LINE
  8
0
 62
     0
 10
62.6262
 20
12.8295
 30
0.0
 11
76.6258
 21
12.8295
 31
0.0
  0
LINE
  8
0
 62
     0
 10
76.6258
 20
12.8295
 30
0.0
 11
76.6258
 21
13.83
 31
0.0
  0
LINE
  8
0
 62
     0
 10
76.6258
 20
13.83
 30
0.0
 11
77.4266
 21
13.83
 31
0.0
  0
LINE
  8
0
 62
     0
 10
77.4266
 20
13.83
 30
0.0
 11
77.4266
 21
16.9292
 31
0.0
  0
LINE
  8
0
 62
     0
 10
77.4266
 20
16.9292
 30
0.0
 11
76.6258
 21
16.9292
 31
0.0
  0
LINE
  8
0
 62
     0
 10
76.6258
 20
16.9292
 30
0.0
 11
76.6258
 21
22.7294
 31
0.0
  0
LINE
  8
0
 62
     0
 10
76.6258
 20
22.7294
 30
0.0
 11
77.4266
 21
22.7294
 31
0.0
  0
LINE
  8
0
 62
     0
 10
77.4266
 20
22.7294
 30
0.0
 11
77.4266
 21
25.83
 31
0.0
  0
LINE
  8
0
 62
     0
 10
77.4266
 20
25.83
 30
0.0
 11
76.6258
 21
25.83
 31
0.0
  0
LINE
  8
0
 62
     0
 10
76.6258
 20
25.83
 30
0.0
 11
76.6258
 21
26.829
 31
0.0
  0
LINE
  8
0
 62
     0
 10
76.6258
 20
26.829
 30
0.0
 11
62.6262
 21
26.829
 31
0.0
  0
LINE
  8
0
 62
     0
 10
38.8137
 20
26.829
 30
0.0
 11
38.8137
 21
25.83
 31
0.0
  0
LINE
  8
0
 62
     0
 10
38.8137
 20
25.83
 30
0.0
 11
38.0132
 21
25.83
 31
0.0
  0
LINE
  8
0
 62
     0
 10
38.0132
 20
25.83
 30
0.0
 11
38.0132
 21
22.7294
 31
0.0
  0
LINE
  8
0
 62
     0
 10
38.0132
 20
22.7294
 30
0.0
 11
38.8137
 21
22.7294
 31
0.0
  0
LINE
  8
0
 62
     0
 10
38.8137
 20
22.7294
 30
0.0
 11
38.8137
 21
16.9292
 31
0.0
  0
LINE
  8
0
 62
     0
 10
38.8137
 20
16.9292
 30
0.0
 11
38.0132
 21
16.9292
 31
0.0
  0
LINE
  8
0
 62
     0
 10
38.0132
 20
16.9292
 30
0.0
 11
38.0132
 21
13.83
 31
0.0
  0
LINE
  8
0
 62
     0
 10
38.0132
 20
13.83
 30
0.0
 11
38.8137
 21
13.83
 31
0.0
  0
LINE
  8
0
 62
     0
 10
38.8137
 20
13.83
 30
0.0
 11
38.8137
 21
12.8295
 31
0.0
  0
LINE
  8
0
 62
     0
 10
38.8137
 20
12.8295
 30
0.0
 11
52.8133
 21
12.8295
 31
0.0
  0
LINE
  8
0
 62
     0
 10
52.8133
 20
12.8295
 30
0.0
 11
52.8133
 21
13.83
 31
0.0
  0
LINE
  8
0
 62
     0
 10
52.8133
 20
13.83
 30
0.0
 11
53.6141
 21
13.83
 31
0.0
  0
LINE
  8
0
 62
     0
 10
53.6141
 20
13.83
 30
0.0
 11
53.6141
 21
16.9292
 31
0.0
  0
LINE
  8
0
 62
     0
 10
53.6141
 20
16.9292
 30
0.0
 11
52.8133
 21
16.9292
 31
0.0
  0
LINE
  8
0
 62
     0
 10
52.8133
 20
16.9292
 30
0.0
 11
52.8133
 21
22.7294
 31
0.0
  0
LINE
  8
0
 62
     0
 10
52.8133
 20
22.7294
 30
0.0
 11
53.6141
 21
22.7294
 31
0.0
  0
LINE
  8
0
 62
     0
 10
53.6141
 20
22.7294
 30
0.0
 11
53.6141
 21
25.83
 31
0.0
  0
LINE
  8
0
 62
     0
 10
53.6141
 20
25.83
 30
0.0
 11
52.8133
 21
25.83
 31
0.0
  0
LINE
  8
0
 62
     0
 10
52.8133
 20
25.83
 30
0.0
 11
52.8133
 21
26.829
 31
0.0
  0
LINE
  8
0
 62
     0
 10
52.8133
 20
26.829
 30
0.0
 11
38.8137
 21
26.829
 31
0.0
  0
LINE
  8
0
 62
     0
 10
15.0013
 20
26.829
 30
0.0
 11
15.0013
 21
25.83
 31
0.0
  0
LINE
  8
0
 62
     0
 10
15.0013
 20
25.83
 30
0.0
 11
14.2021
 21
25.83
 31
0.0
  0
LINE
  8
0
 62
     0
 10
14.2021
 20
25.83
 30
0.0
 11
14.2021
 21
22.7294
 31
0.0
  0
LINE
  8
0
 62
     0
 10
14.2021
 20
22.7294
 30
0.0
 11
15.0013
 21
22.7294
 31
0.0
  0
LINE
  8
0
 62
     0
 10
15.0013
 20
22.7294
 30
0.0
 11
15.0013
 21
16.9292
 31
0.0
  0
LINE
  8
0
 62
     0
 10
15.0013
 20
16.9292
 30
0.0
 11
14.2021
 21
16.9292
 31
0.0
  0
LINE
  8
0
 62
     0
 10
14.2021
 20
16.9292
 30
0.0
 11
14.2021
 21
13.83
 31
0.0
  0
LINE
  8
0
 62
     0
 10
14.2021
 20
13.83
 30
0.0
 11
15.0013
 21
13.83
 31
0.0
  0
LINE
  8
0
 62
     0
 10
15.0013
 20
13.83
 30
0.0
 11
15.0013
 21
12.8295
 31
0.0
  0
LINE
  8
0
 62
     0
 10
15.0013
 20
12.8295
 30
0.0
 11
29.0008
 21
12.8295
 31
0.0
  0
LINE
  8
0
 62
     0
 10
29.0008
 20
12.8295
 30
0.0
 11
29.0008
 21
13.83
 31
0.0
  0
LINE
  8
0
 62
     0
 10
29.0008
 20
13.83
 30
0.0
 11
29.8015
 21
13.83
 31
0.0
  0
LINE
  8
0
 62
     0
 10
29.8015
 20
13.83
 30
0.0
 11
29.8015
 21
16.9292
 31
0.0
  0
LINE
  8
0
 62
     0
 10
29.8015
 20
16.9292
 30
0.0
 11
29.0008
 21
16.9292
 31
0.0
  0
LINE
  8
0
 62
     0
 10
29.0008
 20
16.9292
 30
0.0
 11
29.0008
 21
22.7294
 31
0.0
  0
LINE
  8
0
 62
     0
 10
29.0008
 20
22.7294
 30
0.0
 11
29.8015
 21
22.7294
 31
0.0
  0
LINE
  8
0
 62
     0
 10
29.8015
 20
22.7294
 30
0.0
 11
29.8015
 21
25.83
 31
0.0
  0
LINE
  8
0
 62
     0
 10
29.8015
 20
25.83
 30
0.0
 11
29.0008
 21
25.83
 31
0.0
  0
LINE
  8
0
 62
     0
 10
29.0008
 20
25.83
 30
0.0
 11
29.0008
 21
26.829
 31
0.0
  0
LINE
  8
0
 62
     0
 10
29.0008
 20
26.829
 30
0.0
 11
15.0013
 21
26.829
 31
0.0
  0
LINE
  8
0
 62
     0
 10
262.651
 20
45.8791
 30
0.0
 11
262.651
 21
44.88
 31
0.0
  0
LINE
  8
0
 62
     0
 10
262.651
 20
44.88
 30
0.0
 11
261.852
 21
44.88
 31
0.0
  0
LINE
  8
0
 62
     0
 10
261.852
 20
44.88
 30
0.0
 11
261.852
 21
41.7795
 31
0.0
  0
LINE
  8
0
 62
     0
 10
261.852
 20
41.7795
 30
0.0
 11
262.651
 21
41.7795
 31
0.0
  0
LINE
  8
0
 62
     0
 10
262.651
 20
41.7795
 30
0.0
 11
262.651
 21
41.1798
 31
0.0
  0
LINE
  8
0
 62
     0
 10
262.651
 20
41.1798
 30
0.0
 11
261.126
 21
41.1798
 31
0.0
  0
LINE
  8
0
 62
     0
 10
261.126
 20
41.1798
 30
0.0
 11
261.126
 21
44.4101
 31
0.0
  0
LINE
  8
0
 62
     0
 10
261.126
 20
44.4101
 30
0.0
 11
254.376
 21
44.4101
 31
0.0
  0
LINE
  8
0
 62
     0
 10
254.376
 20
44.4101
 30
0.0
 11
254.376
 21
41.1798
 31
0.0
  0
LINE
  8
0
 62
     0
 10
254.376
 20
41.1798
 30
0.0
 11
253.552
 21
41.1798
 31
0.0
  0
LINE
  8
0
 62
     0
 10
253.552
 20
41.1798
 30
0.0
 11
253.552
 21
38.3798
 31
0.0
  0
LINE
  8
0
 62
     0
 10
253.552
 20
38.3798
 30
0.0
 11
254.376
 21
38.3798
 31
0.0
  0
LINE
  8
0
 62
     0
 10
254.376
 20
38.3798
 30
0.0
 11
254.376
 21
32.1097
 31
0.0
  0
LINE
  8
0
 62
     0
 10
254.376
 20
32.1097
 30
0.0
 11
256.1
 21
32.1097
 31
0.0
  0
LINE
  8
0
 62
     0
 10
256.1
 20
32.1097
 30
0.0
 11
256.1
 21
30.9094
 31
0.0
  0
LINE
  8
0
 62
     0
 10
256.1
 20
30.9094
 30
0.0
 11
259.402
 21
30.9094
 31
0.0
  0
LINE
  8
0
 62
     0
 10
259.402
 20
30.9094
 30
0.0
 11
259.402
 21
32.1097
 31
0.0
  0
LINE
  8
0
 62
     0
 10
259.402
 20
32.1097
 30
0.0
 11
261.126
 21
32.1097
 31
0.0
  0
LINE
  8
0
 62
     0
 10
261.126
 20
32.1097
 30
0.0
 11
261.126
 21
36.5799
 31
0.0
  0
LINE
  8
0
 62
     0
 10
261.126
 20
36.5799
 30
0.0
 11
262.651
 21
36.5799
 31
0.0
  0
LINE
  8
0
 62
     0
 10
262.651
 20
36.5799
 30
0.0
 11
262.651
 21
35.9791
 31
0.0
  0
LINE
  8
0
 62
     0
 10
262.651
 20
35.9791
 30
0.0
 11
261.852
 21
35.9791
 31
0.0
  0
LINE
  8
0
 62
     0
 10
261.852
 20
35.9791
 30
0.0
 11
261.852
 21
32.88
 31
0.0
  0
LINE
  8
0
 62
     0
 10
261.852
 20
32.88
 30
0.0
 11
262.651
 21
32.88
 31
0.0
  0
LINE
  8
0
 62
     0
 10
262.651
 20
32.88
 30
0.0
 11
262.651
 21
31.8795
 31
0.0
  0
LINE
  8
0
 62
     0
 10
262.651
 20
31.8795
 30
0.0
 11
276.651
 21
31.8795
 31
0.0
  0
LINE
  8
0
 62
     0
 10
276.651
 20
31.8795
 30
0.0
 11
276.651
 21
32.88
 31
0.0
  0
LINE
  8
0
 62
     0
 10
276.651
 20
32.88
 30
0.0
 11
277.452
 21
32.88
 31
0.0
  0
LINE
  8
0
 62
     0
 10
277.452
 20
32.88
 30
0.0
 11
277.452
 21
35.9791
 31
0.0
  0
LINE
  8
0
 62
     0
 10
277.452
 20
35.9791
 30
0.0
 11
276.651
 21
35.9791
 31
0.0
  0
LINE
  8
0
 62
     0
 10
276.651
 20
35.9791
 30
0.0
 11
276.651
 21
36.5799
 31
0.0
  0
LINE
  8
0
 62
     0
 10
276.651
 20
36.5799
 30
0.0
 11
278.176
 21
36.5799
 31
0.0
  0
LINE
  8
0
 62
     0
 10
278.176
 20
36.5799
 30
0.0
 11
278.176
 21
32.1097
 31
0.0
  0
LINE
  8
0
 62
     0
 10
278.176
 20
32.1097
 30
0.0
 11
279.902
 21
32.1097
 31
0.0
  0
LINE
  8
0
 62
     0
 10
279.902
 20
32.1097
 30
0.0
 11
279.902
 21
30.9094
 31
0.0
  0
LINE
  8
0
 62
     0
 10
279.902
 20
30.9094
 30
0.0
 11
283.202
 21
30.9094
 31
0.0
  0
LINE
  8
0
 62
     0
 10
283.202
 20
30.9094
 30
0.0
 11
283.202
 21
32.1097
 31
0.0
  0
LINE
  8
0
 62
     0
 10
283.202
 20
32.1097
 30
0.0
 11
284.926
 21
32.1097
 31
0.0
  0
LINE
  8
0
 62
     0
 10
284.926
 20
32.1097
 30
0.0
 11
284.926
 21
38.3798
 31
0.0
  0
LINE
  8
0
 62
     0
 10
284.926
 20
38.3798
 30
0.0
 11
285.751
 21
38.3798
 31
0.0
  0
LINE
  8
0
 62
     0
 10
285.751
 20
38.3798
 30
0.0
 11
285.751
 21
41.1798
 31
0.0
  0
LINE
  8
0
 62
     0
 10
285.751
 20
41.1798
 30
0.0
 11
284.926
 21
41.1798
 31
0.0
  0
LINE
  8
0
 62
     0
 10
284.926
 20
41.1798
 30
0.0
 11
284.926
 21
44.4101
 31
0.0
  0
LINE
  8
0
 62
     0
 10
284.926
 20
44.4101
 30
0.0
 11
278.176
 21
44.4101
 31
0.0
  0
LINE
  8
0
 62
     0
 10
278.176
 20
44.4101
 30
0.0
 11
278.176
 21
41.1798
 31
0.0
  0
LINE
  8
0
 62
     0
 10
278.176
 20
41.1798
 30
0.0
 11
276.651
 21
41.1798
 31
0.0
  0
LINE
  8
0
 62
     0
 10
276.651
 20
41.1798
 30
0.0
 11
276.651
 21
41.7795
 31
0.0
  0
LINE
  8
0
 62
     0
 10
276.651
 20
41.7795
 30
0.0
 11
277.452
 21
41.7795
 31
0.0
  0
LINE
  8
0
 62
     0
 10
277.452
 20
41.7795
 30
0.0
 11
277.452
 21
44.88
 31
0.0
  0
LINE
  8
0
 62
     0
 10
277.452
 20
44.88
 30
0.0
 11
276.651
 21
44.88
 31
0.0
  0
LINE
  8
0
 62
     0
 10
276.651
 20
44.88
 30
0.0
 11
276.651
 21
45.8791
 31
0.0
  0
LINE
  8
0
 62
     0
 10
276.651
 20
45.8791
 30
0.0
 11
262.651
 21
45.8791
 31
0.0
  0
LINE
  8
0
 62
     0
 10
322.182
 20
45.8791
 30
0.0
 11
322.182
 21
44.88
 31
0.0
  0
LINE
  8
0
 62
     0
 10
322.182
 20
44.88
 30
0.0
 11
321.382
 21
44.88
 31
0.0
  0
LINE
  8
0
 62
     0
 10
321.382
 20
44.88
 30
0.0
 11
321.382
 21
41.7795
 31
0.0
  0
LINE
  8
0
 62
     0
 10
321.382
 20
41.7795
 30
0.0
 11
322.182
 21
41.7795
 31
0.0
  0
LINE
  8
0
 62
     0
 10
322.182
 20
41.7795
 30
0.0
 11
322.182
 21
35.9791
 31
0.0
  0
LINE
  8
0
 62
     0
 10
322.182
 20
35.9791
 30
0.0
 11
321.382
 21
35.9791
 31
0.0
  0
LINE
  8
0
 62
     0
 10
321.382
 20
35.9791
 30
0.0
 11
321.382
 21
32.88
 31
0.0
  0
LINE
  8
0
 62
     0
 10
321.382
 20
32.88
 30
0.0
 11
322.182
 21
32.88
 31
0.0
  0
LINE
  8
0
 62
     0
 10
322.182
 20
32.88
 30
0.0
 11
322.182
 21
31.8795
 31
0.0
  0
LINE
  8
0
 62
     0
 10
322.182
 20
31.8795
 30
0.0
 11
336.182
 21
31.8795
 31
0.0
  0
LINE
  8
0
 62
     0
 10
336.182
 20
31.8795
 30
0.0
 11
336.182
 21
32.88
 31
0.0
  0
LINE
  8
0
 62
     0
 10
336.182
 20
32.88
 30
0.0
 11
336.983
 21
32.88
 31
0.0
  0
LINE
  8
0
 62
     0
 10
336.983
 20
32.88
 30
0.0
 11
336.983
 21
35.9791
 31
0.0
  0
LINE
  8
0
 62
     0
 10
336.983
 20
35.9791
 30
0.0
 11
336.182
 21
35.9791
 31
0.0
  0
LINE
  8
0
 62
     0
 10
336.182
 20
35.9791
 30
0.0
 11
336.182
 21
41.7795
 31
0.0
  0
LINE
  8
0
 62
     0
 10
336.182
 20
41.7795
 30
0.0
 11
336.983
 21
41.7795
 31
0.0
  0
LINE
  8
0
 62
     0
 10
336.983
 20
41.7795
 30
0.0
 11
336.983
 21
44.88
 31
0.0
  0
LINE
  8
0
 62
     0
 10
336.983
 20
44.88
 30
0.0
 11
336.182
 21
44.88
 31
0.0
  0
LINE
  8
0
 62
     0
 10
336.182
 20
44.88
 30
0.0
 11
336.182
 21
45.8791
 31
0.0
  0
LINE
  8
0
 62
     0
 10
336.182
 20
45.8791
 30
0.0
 11
322.182
 21
45.8791
 31
0.0
  0
LINE
  8
0
 62
     0
 10
226.932
 20
45.8791
 30
0.0
 11
226.932
 21
44.88
 31
0.0
  0
LINE
  8
0
 62
     0
 10
226.932
 20
44.88
 30
0.0
 11
226.132
 21
44.88
 31
0.0
  0
LINE
  8
0
 62
     0
 10
226.132
 20
44.88
 30
0.0
 11
226.132
 21
41.7795
 31
0.0
  0
LINE
  8
0
 62
     0
 10
226.132
 20
41.7795
 30
0.0
 11
226.932
 21
41.7795
 31
0.0
  0
LINE
  8
0
 62
     0
 10
226.932
 20
41.7795
 30
0.0
 11
226.932
 21
35.9791
 31
0.0
  0
LINE
  8
0
 62
     0
 10
226.932
 20
35.9791
 30
0.0
 11
226.132
 21
35.9791
 31
0.0
  0
LINE
  8
0
 62
     0
 10
226.132
 20
35.9791
 30
0.0
 11
226.132
 21
32.88
 31
0.0
  0
LINE
  8
0
 62
     0
 10
226.132
 20
32.88
 30
0.0
 11
226.932
 21
32.88
 31
0.0
  0
LINE
  8
0
 62
     0
 10
226.932
 20
32.88
 30
0.0
 11
226.932
 21
31.8795
 31
0.0
  0
LINE
  8
0
 62
     0
 10
226.932
 20
31.8795
 30
0.0
 11
240.932
 21
31.8795
 31
0.0
  0
LINE
  8
0
 62
     0
 10
240.932
 20
31.8795
 30
0.0
 11
240.932
 21
32.88
 31
0.0
  0
LINE
  8
0
 62
     0
 10
240.932
 20
32.88
 30
0.0
 11
241.733
 21
32.88
 31
0.0
  0
LINE
  8
0
 62
     0
 10
241.733
 20
32.88
 30
0.0
 11
241.733
 21
35.9791
 31
0.0
  0
LINE
  8
0
 62
     0
 10
241.733
 20
35.9791
 30
0.0
 11
240.932
 21
35.9791
 31
0.0
  0
LINE
  8
0
 62
     0
 10
240.932
 20
35.9791
 30
0.0
 11
240.932
 21
41.7795
 31
0.0
  0
LINE
  8
0
 62
     0
 10
240.932
 20
41.7795
 30
0.0
 11
241.733
 21
41.7795
 31
0.0
  0
LINE
  8
0
 62
     0
 10
241.733
 20
41.7795
 30
0.0
 11
241.733
 21
44.88
 31
0.0
  0
LINE
  8
0
 62
     0
 10
241.733
 20
44.88
 30
0.0
 11
240.932
 21
44.88
 31
0.0
  0
LINE
  8
0
 62
     0
 10
240.932
 20
44.88
 30
0.0
 11
240.932
 21
45.8791
 31
0.0
  0
LINE
  8
0
 62
     0
 10
240.932
 20
45.8791
 30
0.0
 11
226.932
 21
45.8791
 31
0.0
  0
LINE
  8
0
 62
     0
 10
207.882
 20
45.8791
 30
0.0
 11
207.882
 21
44.88
 31
0.0
  0
LINE
  8
0
 62
     0
 10
207.882
 20
44.88
 30
0.0
 11
207.082
 21
44.88
 31
0.0
  0
LINE
  8
0
 62
     0
 10
207.082
 20
44.88
 30
0.0
 11
207.082
 21
41.7795
 31
0.0
  0
LINE
  8
0
 62
     0
 10
207.082
 20
41.7795
 30
0.0
 11
207.882
 21
41.7795
 31
0.0
  0
LINE
  8
0
 62
     0
 10
207.882
 20
41.7795
 30
0.0
 11
207.882
 21
35.9791
 31
0.0
  0
LINE
  8
0
 62
     0
 10
207.882
 20
35.9791
 30
0.0
 11
207.082
 21
35.9791
 31
0.0
  0
LINE
  8
0
 62
     0
 10
207.082
 20
35.9791
 30
0.0
 11
207.082
 21
32.88
 31
0.0
  0
LINE
  8
0
 62
     0
 10
207.082
 20
32.88
 30
0.0
 11
207.882
 21
32.88
 31
0.0
  0
LINE
  8
0
 62
     0
 10
207.882
 20
32.88
 30
0.0
 11
207.882
 21
31.8795
 31
0.0
  0
LINE
  8
0
 62
     0
 10
207.882
 20
31.8795
 30
0.0
 11
221.882
 21
31.8795
 31
0.0
  0
LINE
  8
0
 62
     0
 10
221.882
 20
31.8795
 30
0.0
 11
221.882
 21
32.88
 31
0.0
  0
LINE
  8
0
 62
     0
 10
221.882
 20
32.88
 30
0.0
 11
222.683
 21
32.88
 31
0.0
  0
LINE
  8
0
 62
     0
 10
222.683
 20
32.88
 30
0.0
 11
222.683
 21
35.9791
 31
0.0
  0
LINE
  8
0
 62
     0
 10
222.683
 20
35.9791
 30
0.0
 11
221.882
 21
35.9791
 31
0.0
  0
LINE
  8
0
 62
     0
 10
221.882
 20
35.9791
 30
0.0
 11
221.882
 21
41.7795
 31
0.0
  0
LINE
  8
0
 62
     0
 10
221.882
 20
41.7795
 30
0.0
 11
222.683
 21
41.7795
 31
0.0
  0
LINE
  8
0
 62
     0
 10
222.683
 20
41.7795
 30
0.0
 11
222.683
 21
44.88
 31
0.0
  0
LINE
  8
0
 62
     0
 10
222.683
 20
44.88
 30
0.0
 11
221.882
 21
44.88
 31
0.0
  0
LINE
  8
0
 62
     0
 10
221.882
 20
44.88
 30
0.0
 11
221.882
 21
45.8791
 31
0.0
  0
LINE
  8
0
 62
     0
 10
221.882
 20
45.8791
 30
0.0
 11
207.882
 21
45.8791
 31
0.0
  0
LINE
  8
0
 62
     0
 10
188.832
 20
45.8791
 30
0.0
 11
188.832
 21
44.88
 31
0.0
  0
LINE
  8
0
 62
     0
 10
188.832
 20
44.88
 30
0.0
 11
188.032
 21
44.88
 31
0.0
  0
LINE
  8
0
 62
     0
 10
188.032
 20
44.88
 30
0.0
 11
188.032
 21
41.7795
 31
0.0
  0
LINE
  8
0
 62
     0
 10
188.032
 20
41.7795
 30
0.0
 11
188.832
 21
41.7795
 31
0.0
  0
LINE
  8
0
 62
     0
 10
188.832
 20
41.7795
 30
0.0
 11
188.832
 21
35.9791
 31
0.0
  0
LINE
  8
0
 62
     0
 10
188.832
 20
35.9791
 30
0.0
 11
188.032
 21
35.9791
 31
0.0
  0
LINE
  8
0
 62
     0
 10
188.032
 20
35.9791
 30
0.0
 11
188.032
 21
32.88
 31
0.0
  0
LINE
  8
0
 62
     0
 10
188.032
 20
32.88
 30
0.0
 11
188.832
 21
32.88
 31
0.0
  0
LINE
  8
0
 62
     0
 10
188.832
 20
32.88
 30
0.0
 11
188.832
 21
31.8795
 31
0.0
  0
LINE
  8
0
 62
     0
 10
188.832
 20
31.8795
 30
0.0
 11
202.832
 21
31.8795
 31
0.0
  0
LINE
  8
0
 62
     0
 10
202.832
 20
31.8795
 30
0.0
 11
202.832
 21
32.88
 31
0.0
  0
LINE
  8
0
 62
     0
 10
202.832
 20
32.88
 30
0.0
 11
203.633
 21
32.88
 31
0.0
  0
LINE
  8
0
 62
     0
 10
203.633
 20
32.88
 30
0.0
 11
203.633
 21
35.9791
 31
0.0
  0
LINE
  8
0
 62
     0
 10
203.633
 20
35.9791
 30
0.0
 11
202.832
 21
35.9791
 31
0.0
  0
LINE
  8
0
 62
     0
 10
202.832
 20
35.9791
 30
0.0
 11
202.832
 21
41.7795
 31
0.0
  0
LINE
  8
0
 62
     0
 10
202.832
 20
41.7795
 30
0.0
 11
203.633
 21
41.7795
 31
0.0
  0
LINE
  8
0
 62
     0
 10
203.633
 20
41.7795
 30
0.0
 11
203.633
 21
44.88
 31
0.0
  0
LINE
  8
0
 62
     0
 10
203.633
 20
44.88
 30
0.0
 11
202.832
 21
44.88
 31
0.0
  0
LINE
  8
0
 62
     0
 10
202.832
 20
44.88
 30
0.0
 11
202.832
 21
45.8791
 31
0.0
  0
LINE
  8
0
 62
     0
 10
202.832
 20
45.8791
 30
0.0
 11
188.832
 21
45.8791
 31
0.0
  0
LINE
  8
0
 62
     0
 10
169.782
 20
45.8791
 30
0.0
 11
169.782
 21
44.88
 31
0.0
  0
LINE
  8
0
 62
     0
 10
169.782
 20
44.88
 30
0.0
 11
168.982
 21
44.88
 31
0.0
  0
LINE
  8
0
 62
     0
 10
168.982
 20
44.88
 30
0.0
 11
168.982
 21
41.7795
 31
0.0
  0
LINE
  8
0
 62
     0
 10
168.982
 20
41.7795
 30
0.0
 11
169.782
 21
41.7795
 31
0.0
  0
LINE
  8
0
 62
     0
 10
169.782
 20
41.7795
 30
0.0
 11
169.782
 21
35.9791
 31
0.0
  0
LINE
  8
0
 62
     0
 10
169.782
 20
35.9791
 30
0.0
 11
168.982
 21
35.9791
 31
0.0
  0
LINE
  8
0
 62
     0
 10
168.982
 20
35.9791
 30
0.0
 11
168.982
 21
32.88
 31
0.0
  0
LINE
  8
0
 62
     0
 10
168.982
 20
32.88
 30
0.0
 11
169.782
 21
32.88
 31
0.0
  0
LINE
  8
0
 62
     0
 10
169.782
 20
32.88
 30
0.0
 11
169.782
 21
31.8795
 31
0.0
  0
LINE
  8
0
 62
     0
 10
169.782
 20
31.8795
 30
0.0
 11
183.782
 21
31.8795
 31
0.0
  0
LINE
  8
0
 62
     0
 10
183.782
 20
31.8795
 30
0.0
 11
183.782
 21
32.88
 31
0.0
  0
LINE
  8
0
 62
     0
 10
183.782
 20
32.88
 30
0.0
 11
184.583
 21
32.88
 31
0.0
  0
LINE
  8
0
 62
     0
 10
184.583
 20
32.88
 30
0.0
 11
184.583
 21
35.9791
 31
0.0
  0
LINE
  8
0
 62
     0
 10
184.583
 20
35.9791
 30
0.0
 11
183.782
 21
35.9791
 31
0.0
  0
LINE
  8
0
 62
     0
 10
183.782
 20
35.9791
 30
0.0
 11
183.782
 21
41.7795
 31
0.0
  0
LINE
  8
0
 62
     0
 10
183.782
 20
41.7795
 30
0.0
 11
184.583
 21
41.7795
 31
0.0
  0
LINE
  8
0
 62
     0
 10
184.583
 20
41.7795
 30
0.0
 11
184.583
 21
44.88
 31
0.0
  0
LINE
  8
0
 62
     0
 10
184.583
 20
44.88
 30
0.0
 11
183.782
 21
44.88
 31
0.0
  0
LINE
  8
0
 62
     0
 10
183.782
 20
44.88
 30
0.0
 11
183.782
 21
45.8791
 31
0.0
  0
LINE
  8
0
 62
     0
 10
183.782
 20
45.8791
 30
0.0
 11
169.782
 21
45.8791
 31
0.0
  0
LINE
  8
0
 62
     0
 10
150.732
 20
45.8791
 30
0.0
 11
150.732
 21
44.88
 31
0.0
  0
LINE
  8
0
 62
     0
 10
150.732
 20
44.88
 30
0.0
 11
149.932
 21
44.88
 31
0.0
  0
LINE
  8
0
 62
     0
 10
149.932
 20
44.88
 30
0.0
 11
149.932
 21
41.7795
 31
0.0
  0
LINE
  8
0
 62
     0
 10
149.932
 20
41.7795
 30
0.0
 11
150.732
 21
41.7795
 31
0.0
  0
LINE
  8
0
 62
     0
 10
150.732
 20
41.7795
 30
0.0
 11
150.732
 21
35.9791
 31
0.0
  0
LINE
  8
0
 62
     0
 10
150.732
 20
35.9791
 30
0.0
 11
149.932
 21
35.9791
 31
0.0
  0
LINE
  8
0
 62
     0
 10
149.932
 20
35.9791
 30
0.0
 11
149.932
 21
32.88
 31
0.0
  0
LINE
  8
0
 62
     0
 10
149.932
 20
32.88
 30
0.0
 11
150.732
 21
32.88
 31
0.0
  0
LINE
  8
0
 62
     0
 10
150.732
 20
32.88
 30
0.0
 11
150.732
 21
31.8795
 31
0.0
  0
LINE
  8
0
 62
     0
 10
150.732
 20
31.8795
 30
0.0
 11
164.732
 21
31.8795
 31
0.0
  0
LINE
  8
0
 62
     0
 10
164.732
 20
31.8795
 30
0.0
 11
164.732
 21
32.88
 31
0.0
  0
LINE
  8
0
 62
     0
 10
164.732
 20
32.88
 30
0.0
 11
165.533
 21
32.88
 31
0.0
  0
LINE
  8
0
 62
     0
 10
165.533
 20
32.88
 30
0.0
 11
165.533
 21
35.9791
 31
0.0
  0
LINE
  8
0
 62
     0
 10
165.533
 20
35.9791
 30
0.0
 11
164.732
 21
35.9791
 31
0.0
  0
LINE
  8
0
 62
     0
 10
164.732
 20
35.9791
 30
0.0
 11
164.732
 21
41.7795
 31
0.0
  0
LINE
  8
0
 62
     0
 10
164.732
 20
41.7795
 30
0.0
 11
165.533
 21
41.7795
 31
0.0
  0
LINE
  8
0
 62
     0
 10
165.533
 20
41.7795
 30
0.0
 11
165.533
 21
44.88
 31
0.0
  0
LINE
  8
0
 62
     0
 10
165.533
 20
44.88
 30
0.0
 11
164.732
 21
44.88
 31
0.0
  0
LINE
  8
0
 62
     0
 10
164.732
 20
44.88
 30
0.0
 11
164.732
 21
45.8791
 31
0.0
  0
LINE
  8
0
 62
     0
 10
164.732
 20
45.8791
 30
0.0
 11
150.732
 21
45.8791
 31
0.0
  0
LINE
  8
0
 62
     0
 10
131.682
 20
45.8791
 30
0.0
 11
131.682
 21
44.88
 31
0.0
  0
LINE
  8
0
 62
     0
 10
131.682
 20
44.88
 30
0.0
 11
130.882
 21
44.88
 31
0.0
  0
LINE
  8
0
 62
     0
 10
130.882
 20
44.88
 30
0.0
 11
130.882
 21
41.7795
 31
0.0
  0
LINE
  8
0
 62
     0
 10
130.882
 20
41.7795
 30
0.0
 11
131.682
 21
41.7795
 31
0.0
  0
LINE
  8
0
 62
     0
 10
131.682
 20
41.7795
 30
0.0
 11
131.682
 21
35.9791
 31
0.0
  0
LINE
  8
0
 62
     0
 10
131.682
 20
35.9791
 30
0.0
 11
130.882
 21
35.9791
 31
0.0
  0
LINE
  8
0
 62
     0
 10
130.882
 20
35.9791
 30
0.0
 11
130.882
 21
32.88
 31
0.0
  0
LINE
  8
0
 62
     0
 10
130.882
 20
32.88
 30
0.0
 11
131.682
 21
32.88
 31
0.0
  0
LINE
  8
0
 62
     0
 10
131.682
 20
32.88
 30
0.0
 11
131.682
 21
31.8795
 31
0.0
  0
LINE
  8
0
 62
     0
 10
131.682
 20
31.8795
 30
0.0
 11
145.682
 21
31.8795
 31
0.0
  0
LINE
  8
0
 62
     0
 10
145.682
 20
31.8795
 30
0.0
 11
145.682
 21
32.88
 31
0.0
  0
LINE
  8
0
 62
     0
 10
145.682
 20
32.88
 30
0.0
 11
146.483
 21
32.88
 31
0.0
  0
LINE
  8
0
 62
     0
 10
146.483
 20
32.88
 30
0.0
 11
146.483
 21
35.9791
 31
0.0
  0
LINE
  8
0
 62
     0
 10
146.483
 20
35.9791
 30
0.0
 11
145.682
 21
35.9791
 31
0.0
  0
LINE
  8
0
 62
     0
 10
145.682
 20
35.9791
 30
0.0
 11
145.682
 21
41.7795
 31
0.0
  0
LINE
  8
0
 62
     0
 10
145.682
 20
41.7795
 30
0.0
 11
146.483
 21
41.7795
 31
0.0
  0
LINE
  8
0
 62
     0
 10
146.483
 20
41.7795
 30
0.0
 11
146.483
 21
44.88
 31
0.0
  0
LINE
  8
0
 62
     0
 10
146.483
 20
44.88
 30
0.0
 11
145.682
 21
44.88
 31
0.0
  0
LINE
  8
0
 62
     0
 10
145.682
 20
44.88
 30
0.0
 11
145.682
 21
45.8791
 31
0.0
  0
LINE
  8
0
 62
     0
 10
145.682
 20
45.8791
 30
0.0
 11
131.682
 21
45.8791
 31
0.0
  0
LINE
  8
0
 62
     0
 10
112.632
 20
45.8791
 30
0.0
 11
112.632
 21
44.88
 31
0.0
  0
LINE
  8
0
 62
     0
 10
112.632
 20
44.88
 30
0.0
 11
111.832
 21
44.88
 31
0.0
  0
LINE
  8
0
 62
     0
 10
111.832
 20
44.88
 30
0.0
 11
111.832
 21
41.7795
 31
0.0
  0
LINE
  8
0
 62
     0
 10
111.832
 20
41.7795
 30
0.0
 11
112.632
 21
41.7795
 31
0.0
  0
LINE
  8
0
 62
     0
 10
112.632
 20
41.7795
 30
0.0
 11
112.632
 21
35.9791
 31
0.0
  0
LINE
  8
0
 62
     0
 10
112.632
 20
35.9791
 30
0.0
 11
111.832
 21
35.9791
 31
0.0
  0
LINE
  8
0
 62
     0
 10
111.832
 20
35.9791
 30
0.0
 11
111.832
 21
32.88
 31
0.0
  0
LINE
  8
0
 62
     0
 10
111.832
 20
32.88
 30
0.0
 11
112.632
 21
32.88
 31
0.0
  0
LINE
  8
0
 62
     0
 10
112.632
 20
32.88
 30
0.0
 11
112.632
 21
31.8795
 31
0.0
  0
LINE
  8
0
 62
     0
 10
112.632
 20
31.8795
 30
0.0
 11
126.632
 21
31.8795
 31
0.0
  0
LINE
  8
0
 62
     0
 10
126.632
 20
31.8795
 30
0.0
 11
126.632
 21
32.88
 31
0.0
  0
LINE
  8
0
 62
     0
 10
126.632
 20
32.88
 30
0.0
 11
127.433
 21
32.88
 31
0.0
  0
LINE
  8
0
 62
     0
 10
127.433
 20
32.88
 30
0.0
 11
127.433
 21
35.9791
 31
0.0
  0
LINE
  8
0
 62
     0
 10
127.433
 20
35.9791
 30
0.0
 11
126.632
 21
35.9791
 31
0.0
  0
LINE
  8
0
 62
     0
 10
126.632
 20
35.9791
 30
0.0
 11
126.632
 21
41.7795
 31
0.0
  0
LINE
  8
0
 62
     0
 10
126.632
 20
41.7795
 30
0.0
 11
127.433
 21
41.7795
 31
0.0
  0
LINE
  8
0
 62
     0
 10
127.433
 20
41.7795
 30
0.0
 11
127.433
 21
44.88
 31
0.0
  0
LINE
  8
0
 62
     0
 10
127.433
 20
44.88
 30
0.0
 11
126.632
 21
44.88
 31
0.0
  0
LINE
  8
0
 62
     0
 10
126.632
 20
44.88
 30
0.0
 11
126.632
 21
45.8791
 31
0.0
  0
LINE
  8
0
 62
     0
 10
126.632
 20
45.8791
 30
0.0
 11
112.632
 21
45.8791
 31
0.0
  0
LINE
  8
0
 62
     0
 10
93.5824
 20
45.8791
 30
0.0
 11
93.5824
 21
44.88
 31
0.0
  0
LINE
  8
0
 62
     0
 10
93.5824
 20
44.88
 30
0.0
 11
92.782
 21
44.88
 31
0.0
  0
LINE
  8
0
 62
     0
 10
92.782
 20
44.88
 30
0.0
 11
92.782
 21
41.7795
 31
0.0
  0
LINE
  8
0
 62
     0
 10
92.782
 20
41.7795
 30
0.0
 11
93.5824
 21
41.7795
 31
0.0
  0
LINE
  8
0
 62
     0
 10
93.5824
 20
41.7795
 30
0.0
 11
93.5824
 21
35.9791
 31
0.0
  0
LINE
  8
0
 62
     0
 10
93.5824
 20
35.9791
 30
0.0
 11
92.782
 21
35.9791
 31
0.0
  0
LINE
  8
0
 62
     0
 10
92.782
 20
35.9791
 30
0.0
 11
92.782
 21
32.88
 31
0.0
  0
LINE
  8
0
 62
     0
 10
92.782
 20
32.88
 30
0.0
 11
93.5824
 21
32.88
 31
0.0
  0
LINE
  8
0
 62
     0
 10
93.5824
 20
32.88
 30
0.0
 11
93.5824
 21
31.8795
 31
0.0
  0
LINE
  8
0
 62
     0
 10
93.5824
 20
31.8795
 30
0.0
 11
107.582
 21
31.8795
 31
0.0
  0
LINE
  8
0
 62
     0
 10
107.582
 20
31.8795
 30
0.0
 11
107.582
 21
32.88
 31
0.0
  0
LINE
  8
0
 62
     0
 10
107.582
 20
32.88
 30
0.0
 11
108.383
 21
32.88
 31
0.0
  0
LINE
  8
0
 62
     0
 10
108.383
 20
32.88
 30
0.0
 11
108.383
 21
35.9791
 31
0.0
  0
LINE
  8
0
 62
     0
 10
108.383
 20
35.9791
 30
0.0
 11
107.582
 21
35.9791
 31
0.0
  0
LINE
  8
0
 62
     0
 10
107.582
 20
35.9791
 30
0.0
 11
107.582
 21
41.7795
 31
0.0
  0
LINE
  8
0
 62
     0
 10
107.582
 20
41.7795
 30
0.0
 11
108.383
 21
41.7795
 31
0.0
  0
LINE
  8
0
 62
     0
 10
108.383
 20
41.7795
 30
0.0
 11
108.383
 21
44.88
 31
0.0
  0
LINE
  8
0
 62
     0
 10
108.383
 20
44.88
 30
0.0
 11
107.582
 21
44.88
 31
0.0
  0
LINE
  8
0
 62
     0
 10
107.582
 20
44.88
 30
0.0
 11
107.582
 21
45.8791
 31
0.0
  0
LINE
  8
0
 62
     0
 10
107.582
 20
45.8791
 30
0.0
 11
93.5824
 21
45.8791
 31
0.0
  0
LINE
  8
0
 62
     0
 10
74.5324
 20
45.8791
 30
0.0
 11
74.5324
 21
44.88
 31
0.0
  0
LINE
  8
0
 62
     0
 10
74.5324
 20
44.88
 30
0.0
 11
73.732
 21
44.88
 31
0.0
  0
LINE
  8
0
 62
     0
 10
73.732
 20
44.88
 30
0.0
 11
73.732
 21
41.7795
 31
0.0
  0
LINE
  8
0
 62
     0
 10
73.732
 20
41.7795
 30
0.0
 11
74.5324
 21
41.7795
 31
0.0
  0
LINE
  8
0
 62
     0
 10
74.5324
 20
41.7795
 30
0.0
 11
74.5324
 21
35.9791
 31
0.0
  0
LINE
  8
0
 62
     0
 10
74.5324
 20
35.9791
 30
0.0
 11
73.732
 21
35.9791
 31
0.0
  0
LINE
  8
0
 62
     0
 10
73.732
 20
35.9791
 30
0.0
 11
73.732
 21
32.88
 31
0.0
  0
LINE
  8
0
 62
     0
 10
73.732
 20
32.88
 30
0.0
 11
74.5324
 21
32.88
 31
0.0
  0
LINE
  8
0
 62
     0
 10
74.5324
 20
32.88
 30
0.0
 11
74.5324
 21
31.8795
 31
0.0
  0
LINE
  8
0
 62
     0
 10
74.5324
 20
31.8795
 30
0.0
 11
88.5321
 21
31.8795
 31
0.0
  0
LINE
  8
0
 62
     0
 10
88.5321
 20
31.8795
 30
0.0
 11
88.5321
 21
32.88
 31
0.0
  0
LINE
  8
0
 62
     0
 10
88.5321
 20
32.88
 30
0.0
 11
89.3329
 21
32.88
 31
0.0
  0
LINE
  8
0
 62
     0
 10
89.3329
 20
32.88
 30
0.0
 11
89.3329
 21
35.9791
 31
0.0
  0
LINE
  8
0
 62
     0
 10
89.3329
 20
35.9791
 30
0.0
 11
88.5321
 21
35.9791
 31
0.0
  0
LINE
  8
0
 62
     0
 10
88.5321
 20
35.9791
 30
0.0
 11
88.5321
 21
41.7795
 31
0.0
  0
LINE
  8
0
 62
     0
 10
88.5321
 20
41.7795
 30
0.0
 11
89.3329
 21
41.7795
 31
0.0
  0
LINE
  8
0
 62
     0
 10
89.3329
 20
41.7795
 30
0.0
 11
89.3329
 21
44.88
 31
0.0
  0
LINE
  8
0
 62
     0
 10
89.3329
 20
44.88
 30
0.0
 11
88.5321
 21
44.88
 31
0.0
  0
LINE
  8
0
 62
     0
 10
88.5321
 20
44.88
 30
0.0
 11
88.5321
 21
45.8791
 31
0.0
  0
LINE
  8
0
 62
     0
 10
88.5321
 20
45.8791
 30
0.0
 11
74.5324
 21
45.8791
 31
0.0
  0
LINE
  8
0
 62
     0
 10
55.4824
 20
45.8791
 30
0.0
 11
55.4824
 21
44.88
 31
0.0
  0
LINE
  8
0
 62
     0
 10
55.4824
 20
44.88
 30
0.0
 11
54.682
 21
44.88
 31
0.0
  0
LINE
  8
0
 62
     0
 10
54.682
 20
44.88
 30
0.0
 11
54.682
 21
41.7795
 31
0.0
  0
LINE
  8
0
 62
     0
 10
54.682
 20
41.7795
 30
0.0
 11
55.4824
 21
41.7795
 31
0.0
  0
LINE
  8
0
 62
     0
 10
55.4824
 20
41.7795
 30
0.0
 11
55.4824
 21
35.9791
 31
0.0
  0
LINE
  8
0
 62
     0
 10
55.4824
 20
35.9791
 30
0.0
 11
54.682
 21
35.9791
 31
0.0
  0
LINE
  8
0
 62
     0
 10
54.682
 20
35.9791
 30
0.0
 11
54.682
 21
32.88
 31
0.0
  0
LINE
  8
0
 62
     0
 10
54.682
 20
32.88
 30
0.0
 11
55.4824
 21
32.88
 31
0.0
  0
LINE
  8
0
 62
     0
 10
55.4824
 20
32.88
 30
0.0
 11
55.4824
 21
31.8795
 31
0.0
  0
LINE
  8
0
 62
     0
 10
55.4824
 20
31.8795
 30
0.0
 11
69.4821
 21
31.8795
 31
0.0
  0
LINE
  8
0
 62
     0
 10
69.4821
 20
31.8795
 30
0.0
 11
69.4821
 21
32.88
 31
0.0
  0
LINE
  8
0
 62
     0
 10
69.4821
 20
32.88
 30
0.0
 11
70.2829
 21
32.88
 31
0.0
  0
LINE
  8
0
 62
     0
 10
70.2829
 20
32.88
 30
0.0
 11
70.2829
 21
35.9791
 31
0.0
  0
LINE
  8
0
 62
     0
 10
70.2829
 20
35.9791
 30
0.0
 11
69.4821
 21
35.9791
 31
0.0
  0
LINE
  8
0
 62
     0
 10
69.4821
 20
35.9791
 30
0.0
 11
69.4821
 21
41.7795
 31
0.0
  0
LINE
  8
0
 62
     0
 10
69.4821
 20
41.7795
 30
0.0
 11
70.2829
 21
41.7795
 31
0.0
  0
LINE
  8
0
 62
     0
 10
70.2829
 20
41.7795
 30
0.0
 11
70.2829
 21
44.88
 31
0.0
  0
LINE
  8
0
 62
     0
 10
70.2829
 20
44.88
 30
0.0
 11
69.4821
 21
44.88
 31
0.0
  0
LINE
  8
0
 62
     0
 10
69.4821
 20
44.88
 30
0.0
 11
69.4821
 21
45.8791
 31
0.0
  0
LINE
  8
0
 62
     0
 10
69.4821
 20
45.8791
 30
0.0
 11
55.4824
 21
45.8791
 31
0.0
  0
LINE
  8
0
 62
     0
 10
36.4324
 20
45.8791
 30
0.0
 11
36.4324
 21
44.88
 31
0.0
  0
LINE
  8
0
 62
     0
 10
36.4324
 20
44.88
 30
0.0
 11
35.632
 21
44.88
 31
0.0
  0
LINE
  8
0
 62
     0
 10
35.632
 20
44.88
 30
0.0
 11
35.632
 21
41.7795
 31
0.0
  0
LINE
  8
0
 62
     0
 10
35.632
 20
41.7795
 30
0.0
 11
36.4324
 21
41.7795
 31
0.0
  0
LINE
  8
0
 62
     0
 10
36.4324
 20
41.7795
 30
0.0
 11
36.4324
 21
35.9791
 31
0.0
  0
LINE
  8
0
 62
     0
 10
36.4324
 20
35.9791
 30
0.0
 11
35.632
 21
35.9791
 31
0.0
  0
LINE
  8
0
 62
     0
 10
35.632
 20
35.9791
 30
0.0
 11
35.632
 21
32.88
 31
0.0
  0
LINE
  8
0
 62
     0
 10
35.632
 20
32.88
 30
0.0
 11
36.4324
 21
32.88
 31
0.0
  0
LINE
  8
0
 62
     0
 10
36.4324
 20
32.88
 30
0.0
 11
36.4324
 21
31.8795
 31
0.0
  0
LINE
  8
0
 62
     0
 10
36.4324
 20
31.8795
 30
0.0
 11
50.4321
 21
31.8795
 31
0.0
  0
LINE
  8
0
 62
     0
 10
50.4321
 20
31.8795
 30
0.0
 11
50.4321
 21
32.88
 31
0.0
  0
LINE
  8
0
 62
     0
 10
50.4321
 20
32.88
 30
0.0
 11
51.2329
 21
32.88
 31
0.0
  0
LINE
  8
0
 62
     0
 10
51.2329
 20
32.88
 30
0.0
 11
51.2329
 21
35.9791
 31
0.0
  0
LINE
  8
0
 62
     0
 10
51.2329
 20
35.9791
 30
0.0
 11
50.4321
 21
35.9791
 31
0.0
  0
LINE
  8
0
 62
     0
 10
50.4321
 20
35.9791
 30
0.0
 11
50.4321
 21
41.7795
 31
0.0
  0
LINE
  8
0
 62
     0
 10
50.4321
 20
41.7795
 30
0.0
 11
51.2329
 21
41.7795
 31
0.0
  0
LINE
  8
0
 62
     0
 10
51.2329
 20
41.7795
 30
0.0
 11
51.2329
 21
44.88
 31
0.0
  0
LINE
  8
0
 62
     0
 10
51.2329
 20
44.88
 30
0.0
 11
50.4321
 21
44.88
 31
0.0
  0
LINE
  8
0
 62
     0
 10
50.4321
 20
44.88
 30
0.0
 11
50.4321
 21
45.8791
 31
0.0
  0
LINE
  8
0
 62
     0
 10
50.4321
 20
45.8791
 30
0.0
 11
36.4324
 21
45.8791
 31
0.0
  0
LINE
  8
0
 62
     0
 10
15.0013
 20
45.8791
 30
0.0
 11
15.0013
 21
44.88
 31
0.0
  0
LINE
  8
0
 62
     0
 10
15.0013
 20
44.88
 30
0.0
 11
14.2021
 21
44.88
 31
0.0
  0
LINE
  8
0
 62
     0
 10
14.2021
 20
44.88
 30
0.0
 11
14.2021
 21
41.7795
 31
0.0
  0
LINE
  8
0
 62
     0
 10
14.2021
 20
41.7795
 30
0.0
 11
15.0013
 21
41.7795
 31
0.0
  0
LINE
  8
0
 62
     0
 10
15.0013
 20
41.7795
 30
0.0
 11
15.0013
 21
35.9791
 31
0.0
  0
LINE
  8
0
 62
     0
 10
15.0013
 20
35.9791
 30
0.0
 11
14.2021
 21
35.9791
 31
0.0
  0
LINE
  8
0
 62
     0
 10
14.2021
 20
35.9791
 30
0.0
 11
14.2021
 21
32.88
 31
0.0
  0
LINE
  8
0
 62
     0
 10
14.2021
 20
32.88
 30
0.0
 11
15.0013
 21
32.88
 31
0.0
  0
LINE
  8
0
 62
     0
 10
15.0013
 20
32.88
 30
0.0
 11
15.0013
 21
31.8795
 31
0.0
  0
LINE
  8
0
 62
     0
 10
15.0013
 20
31.8795
 30
0.0
 11
29.0008
 21
31.8795
 31
0.0
  0
LINE
  8
0
 62
     0
 10
29.0008
 20
31.8795
 30
0.0
 11
29.0008
 21
32.88
 31
0.0
  0
LINE
  8
0
 62
     0
 10
29.0008
 20
32.88
 30
0.0
 11
29.8015
 21
32.88
 31
0.0
  0
LINE
  8
0
 62
     0
 10
29.8015
 20
32.88
 30
0.0
 11
29.8015
 21
35.9791
 31
0.0
  0
LINE
  8
0
 62
     0
 10
29.8015
 20
35.9791
 30
0.0
 11
29.0008
 21
35.9791
 31
0.0
  0
LINE
  8
0
 62
     0
 10
29.0008
 20
35.9791
 30
0.0
 11
29.0008
 21
41.7795
 31
0.0
  0
LINE
  8
0
 62
     0
 10
29.0008
 20
41.7795
 30
0.0
 11
29.8015
 21
41.7795
 31
0.0
  0
LINE
  8
0
 62
     0
 10
29.8015
 20
41.7795
 30
0.0
 11
29.8015
 21
44.88
 31
0.0
  0
LINE
  8
0
 62
     0
 10
29.8015
 20
44.88
 30
0.0
 11
29.0008
 21
44.88
 31
0.0
  0
LINE
  8
0
 62
     0
 10
29.0008
 20
44.88
 30
0.0
 11
29.0008
 21
45.8791
 31
0.0
  0
LINE
  8
0
 62
     0
 10
29.0008
 20
45.8791
 30
0.0
 11
15.0013
 21
45.8791
 31
0.0
  0
LINE
  8
0
 62
     0
 10
255.506
 20
64.9291
 30
0.0
 11
255.506
 21
63.93
 31
0.0
  0
LINE
  8
0
 62
     0
 10
255.506
 20
63.93
 30
0.0
 11
254.707
 21
63.93
 31
0.0
  0
LINE
  8
0
 62
     0
 10
254.707
 20
63.93
 30
0.0
 11
254.707
 21
60.8295
 31
0.0
  0
LINE
  8
0
 62
     0
 10
254.707
 20
60.8295
 30
0.0
 11
255.506
 21
60.8295
 31
0.0
  0
LINE
  8
0
 62
     0
 10
255.506
 20
60.8295
 30
0.0
 11
255.506
 21
55.0291
 31
0.0
  0
LINE
  8
0
 62
     0
 10
255.506
 20
55.0291
 30
0.0
 11
254.707
 21
55.0291
 31
0.0
  0
LINE
  8
0
 62
     0
 10
254.707
 20
55.0291
 30
0.0
 11
254.707
 21
51.9299
 31
0.0
  0
LINE
  8
0
 62
     0
 10
254.707
 20
51.9299
 30
0.0
 11
255.506
 21
51.9299
 31
0.0
  0
LINE
  8
0
 62
     0
 10
255.506
 20
51.9299
 30
0.0
 11
255.506
 21
50.9295
 31
0.0
  0
LINE
  8
0
 62
     0
 10
255.506
 20
50.9295
 30
0.0
 11
269.507
 21
50.9295
 31
0.0
  0
LINE
  8
0
 62
     0
 10
269.507
 20
50.9295
 30
0.0
 11
269.507
 21
51.9299
 31
0.0
  0
LINE
  8
0
 62
     0
 10
269.507
 20
51.9299
 30
0.0
 11
270.308
 21
51.9299
 31
0.0
  0
LINE
  8
0
 62
     0
 10
270.308
 20
51.9299
 30
0.0
 11
270.308
 21
55.0291
 31
0.0
  0
LINE
  8
0
 62
     0
 10
270.308
 20
55.0291
 30
0.0
 11
269.507
 21
55.0291
 31
0.0
  0
LINE
  8
0
 62
     0
 10
269.507
 20
55.0291
 30
0.0
 11
269.507
 21
60.8295
 31
0.0
  0
LINE
  8
0
 62
     0
 10
269.507
 20
60.8295
 30
0.0
 11
270.308
 21
60.8295
 31
0.0
  0
LINE
  8
0
 62
     0
 10
270.308
 20
60.8295
 30
0.0
 11
270.308
 21
63.93
 31
0.0
  0
LINE
  8
0
 62
     0
 10
270.308
 20
63.93
 30
0.0
 11
269.507
 21
63.93
 31
0.0
  0
LINE
  8
0
 62
     0
 10
269.507
 20
63.93
 30
0.0
 11
269.507
 21
64.9291
 31
0.0
  0
LINE
  8
0
 62
     0
 10
269.507
 20
64.9291
 30
0.0
 11
255.506
 21
64.9291
 31
0.0
  0
LINE
  8
0
 62
     0
 10
236.457
 20
64.9291
 30
0.0
 11
236.457
 21
63.93
 31
0.0
  0
LINE
  8
0
 62
     0
 10
236.457
 20
63.93
 30
0.0
 11
235.657
 21
63.93
 31
0.0
  0
LINE
  8
0
 62
     0
 10
235.657
 20
63.93
 30
0.0
 11
235.657
 21
60.8295
 31
0.0
  0
LINE
  8
0
 62
     0
 10
235.657
 20
60.8295
 30
0.0
 11
236.457
 21
60.8295
 31
0.0
  0
LINE
  8
0
 62
     0
 10
236.457
 20
60.8295
 30
0.0
 11
236.457
 21
55.0291
 31
0.0
  0
LINE
  8
0
 62
     0
 10
236.457
 20
55.0291
 30
0.0
 11
235.657
 21
55.0291
 31
0.0
  0
LINE
  8
0
 62
     0
 10
235.657
 20
55.0291
 30
0.0
 11
235.657
 21
51.9299
 31
0.0
  0
LINE
  8
0
 62
     0
 10
235.657
 20
51.9299
 30
0.0
 11
236.457
 21
51.9299
 31
0.0
  0
LINE
  8
0
 62
     0
 10
236.457
 20
51.9299
 30
0.0
 11
236.457
 21
50.9295
 31
0.0
  0
LINE
  8
0
 62
     0
 10
236.457
 20
50.9295
 30
0.0
 11
250.457
 21
50.9295
 31
0.0
  0
LINE
  8
0
 62
     0
 10
250.457
 20
50.9295
 30
0.0
 11
250.457
 21
51.9299
 31
0.0
  0
LINE
  8
0
 62
     0
 10
250.457
 20
51.9299
 30
0.0
 11
251.256
 21
51.9299
 31
0.0
  0
LINE
  8
0
 62
     0
 10
251.256
 20
51.9299
 30
0.0
 11
251.256
 21
55.0291
 31
0.0
  0
LINE
  8
0
 62
     0
 10
251.256
 20
55.0291
 30
0.0
 11
250.457
 21
55.0291
 31
0.0
  0
LINE
  8
0
 62
     0
 10
250.457
 20
55.0291
 30
0.0
 11
250.457
 21
60.8295
 31
0.0
  0
LINE
  8
0
 62
     0
 10
250.457
 20
60.8295
 30
0.0
 11
251.256
 21
60.8295
 31
0.0
  0
LINE
  8
0
 62
     0
 10
251.256
 20
60.8295
 30
0.0
 11
251.256
 21
63.93
 31
0.0
  0
LINE
  8
0
 62
     0
 10
251.256
 20
63.93
 30
0.0
 11
250.457
 21
63.93
 31
0.0
  0
LINE
  8
0
 62
     0
 10
250.457
 20
63.93
 30
0.0
 11
250.457
 21
64.9291
 31
0.0
  0
LINE
  8
0
 62
     0
 10
250.457
 20
64.9291
 30
0.0
 11
236.457
 21
64.9291
 31
0.0
  0
LINE
  8
0
 62
     0
 10
217.407
 20
64.9291
 30
0.0
 11
217.407
 21
63.93
 31
0.0
  0
LINE
  8
0
 62
     0
 10
217.407
 20
63.93
 30
0.0
 11
216.607
 21
63.93
 31
0.0
  0
LINE
  8
0
 62
     0
 10
216.607
 20
63.93
 30
0.0
 11
216.607
 21
60.8295
 31
0.0
  0
LINE
  8
0
 62
     0
 10
216.607
 20
60.8295
 30
0.0
 11
217.407
 21
60.8295
 31
0.0
  0
LINE
  8
0
 62
     0
 10
217.407
 20
60.8295
 30
0.0
 11
217.407
 21
55.0291
 31
0.0
  0
LINE
  8
0
 62
     0
 10
217.407
 20
55.0291
 30
0.0
 11
216.607
 21
55.0291
 31
0.0
  0
LINE
  8
0
 62
     0
 10
216.607
 20
55.0291
 30
0.0
 11
216.607
 21
51.9299
 31
0.0
  0
LINE
  8
0
 62
     0
 10
216.607
 20
51.9299
 30
0.0
 11
217.407
 21
51.9299
 31
0.0
  0
LINE
  8
0
 62
     0
 10
217.407
 20
51.9299
 30
0.0
 11
217.407
 21
50.9295
 31
0.0
  0
LINE
  8
0
 62
     0
 10
217.407
 20
50.9295
 30
0.0
 11
231.407
 21
50.9295
 31
0.0
  0
LINE
  8
0
 62
     0
 10
231.407
 20
50.9295
 30
0.0
 11
231.407
 21
51.9299
 31
0.0
  0
LINE
  8
0
 62
     0
 10
231.407
 20
51.9299
 30
0.0
 11
232.208
 21
51.9299
 31
0.0
  0
LINE
  8
0
 62
     0
 10
232.208
 20
51.9299
 30
0.0
 11
232.208
 21
55.0291
 31
0.0
  0
LINE
  8
0
 62
     0
 10
232.208
 20
55.0291
 30
0.0
 11
231.407
 21
55.0291
 31
0.0
  0
LINE
  8
0
 62
     0
 10
231.407
 20
55.0291
 30
0.0
 11
231.407
 21
60.8295
 31
0.0
  0
LINE
  8
0
 62
     0
 10
231.407
 20
60.8295
 30
0.0
 11
232.208
 21
60.8295
 31
0.0
  0
LINE
  8
0
 62
     0
 10
232.208
 20
60.8295
 30
0.0
 11
232.208
 21
63.93
 31
0.0
  0
LINE
  8
0
 62
     0
 10
232.208
 20
63.93
 30
0.0
 11
231.407
 21
63.93
 31
0.0
  0
LINE
  8
0
 62
     0
 10
231.407
 20
63.93
 30
0.0
 11
231.407
 21
64.9291
 31
0.0
  0
LINE
  8
0
 62
     0
 10
231.407
 20
64.9291
 30
0.0
 11
217.407
 21
64.9291
 31
0.0
  0
LINE
  8
0
 62
     0
 10
198.357
 20
64.9291
 30
0.0
 11
198.357
 21
63.93
 31
0.0
  0
LINE
  8
0
 62
     0
 10
198.357
 20
63.93
 30
0.0
 11
197.557
 21
63.93
 31
0.0
  0
LINE
  8
0
 62
     0
 10
197.557
 20
63.93
 30
0.0
 11
197.557
 21
60.8295
 31
0.0
  0
LINE
  8
0
 62
     0
 10
197.557
 20
60.8295
 30
0.0
 11
198.357
 21
60.8295
 31
0.0
  0
LINE
  8
0
 62
     0
 10
198.357
 20
60.8295
 30
0.0
 11
198.357
 21
55.0291
 31
0.0
  0
LINE
  8
0
 62
     0
 10
198.357
 20
55.0291
 30
0.0
 11
197.557
 21
55.0291
 31
0.0
  0
LINE
  8
0
 62
     0
 10
197.557
 20
55.0291
 30
0.0
 11
197.557
 21
51.9299
 31
0.0
  0
LINE
  8
0
 62
     0
 10
197.557
 20
51.9299
 30
0.0
 11
198.357
 21
51.9299
 31
0.0
  0
LINE
  8
0
 62
     0
 10
198.357
 20
51.9299
 30
0.0
 11
198.357
 21
50.9295
 31
0.0
  0
LINE
  8
0
 62
     0
 10
198.357
 20
50.9295
 30
0.0
 11
212.357
 21
50.9295
 31
0.0
  0
LINE
  8
0
 62
     0
 10
212.357
 20
50.9295
 30
0.0
 11
212.357
 21
51.9299
 31
0.0
  0
LINE
  8
0
 62
     0
 10
212.357
 20
51.9299
 30
0.0
 11
213.158
 21
51.9299
 31
0.0
  0
LINE
  8
0
 62
     0
 10
213.158
 20
51.9299
 30
0.0
 11
213.158
 21
55.0291
 31
0.0
  0
LINE
  8
0
 62
     0
 10
213.158
 20
55.0291
 30
0.0
 11
212.357
 21
55.0291
 31
0.0
  0
LINE
  8
0
 62
     0
 10
212.357
 20
55.0291
 30
0.0
 11
212.357
 21
60.8295
 31
0.0
  0
LINE
  8
0
 62
     0
 10
212.357
 20
60.8295
 30
0.0
 11
213.158
 21
60.8295
 31
0.0
  0
LINE
  8
0
 62
     0
 10
213.158
 20
60.8295
 30
0.0
 11
213.158
 21
63.93
 31
0.0
  0
LINE
  8
0
 62
     0
 10
213.158
 20
63.93
 30
0.0
 11
212.357
 21
63.93
 31
0.0
  0
LINE
  8
0
 62
     0
 10
212.357
 20
63.93
 30
0.0
 11
212.357
 21
64.9291
 31
0.0
  0
LINE
  8
0
 62
     0
 10
212.357
 20
64.9291
 30
0.0
 11
198.357
 21
64.9291
 31
0.0
  0
LINE
  8
0
 62
     0
 10
179.307
 20
64.9291
 30
0.0
 11
179.307
 21
63.93
 31
0.0
  0
LINE
  8
0
 62
     0
 10
179.307
 20
63.93
 30
0.0
 11
178.507
 21
63.93
 31
0.0
  0
LINE
  8
0
 62
     0
 10
178.507
 20
63.93
 30
0.0
 11
178.507
 21
60.8295
 31
0.0
  0
LINE
  8
0
 62
     0
 10
178.507
 20
60.8295
 30
0.0
 11
179.307
 21
60.8295
 31
0.0
  0
LINE
  8
0
 62
     0
 10
179.307
 20
60.8295
 30
0.0
 11
179.307
 21
55.0291
 31
0.0
  0
LINE
  8
0
 62
     0
 10
179.307
 20
55.0291
 30
0.0
 11
178.507
 21
55.0291
 31
0.0
  0
LINE
  8
0
 62
     0
 10
178.507
 20
55.0291
 30
0.0
 11
178.507
 21
51.9299
 31
0.0
  0
LINE
  8
0
 62
     0
 10
178.507
 20
51.9299
 30
0.0
 11
179.307
 21
51.9299
 31
0.0
  0
LINE
  8
0
 62
     0
 10
179.307
 20
51.9299
 30
0.0
 11
179.307
 21
50.9295
 31
0.0
  0
LINE
  8
0
 62
     0
 10
179.307
 20
50.9295
 30
0.0
 11
193.307
 21
50.9295
 31
0.0
  0
LINE
  8
0
 62
     0
 10
193.307
 20
50.9295
 30
0.0
 11
193.307
 21
51.9299
 31
0.0
  0
LINE
  8
0
 62
     0
 10
193.307
 20
51.9299
 30
0.0
 11
194.108
 21
51.9299
 31
0.0
  0
LINE
  8
0
 62
     0
 10
194.108
 20
51.9299
 30
0.0
 11
194.108
 21
55.0291
 31
0.0
  0
LINE
  8
0
 62
     0
 10
194.108
 20
55.0291
 30
0.0
 11
193.307
 21
55.0291
 31
0.0
  0
LINE
  8
0
 62
     0
 10
193.307
 20
55.0291
 30
0.0
 11
193.307
 21
60.8295
 31
0.0
  0
LINE
  8
0
 62
     0
 10
193.307
 20
60.8295
 30
0.0
 11
194.108
 21
60.8295
 31
0.0
  0
LINE
  8
0
 62
     0
 10
194.108
 20
60.8295
 30
0.0
 11
194.108
 21
63.93
 31
0.0
  0
LINE
  8
0
 62
     0
 10
194.108
 20
63.93
 30
0.0
 11
193.307
 21
63.93
 31
0.0
  0
LINE
  8
0
 62
     0
 10
193.307
 20
63.93
 30
0.0
 11
193.307
 21
64.9291
 31
0.0
  0
LINE
  8
0
 62
     0
 10
193.307
 20
64.9291
 30
0.0
 11
179.307
 21
64.9291
 31
0.0
  0
LINE
  8
0
 62
     0
 10
160.257
 20
64.9291
 30
0.0
 11
160.257
 21
63.93
 31
0.0
  0
LINE
  8
0
 62
     0
 10
160.257
 20
63.93
 30
0.0
 11
159.457
 21
63.93
 31
0.0
  0
LINE
  8
0
 62
     0
 10
159.457
 20
63.93
 30
0.0
 11
159.457
 21
60.8295
 31
0.0
  0
LINE
  8
0
 62
     0
 10
159.457
 20
60.8295
 30
0.0
 11
160.257
 21
60.8295
 31
0.0
  0
LINE
  8
0
 62
     0
 10
160.257
 20
60.8295
 30
0.0
 11
160.257
 21
55.0291
 31
0.0
  0
LINE
  8
0
 62
     0
 10
160.257
 20
55.0291
 30
0.0
 11
159.457
 21
55.0291
 31
0.0
  0
LINE
  8
0
 62
     0
 10
159.457
 20
55.0291
 30
0.0
 11
159.457
 21
51.9299
 31
0.0
  0
LINE
  8
0
 62
     0
 10
159.457
 20
51.9299
 30
0.0
 11
160.257
 21
51.9299
 31
0.0
  0
LINE
  8
0
 62
     0
 10
160.257
 20
51.9299
 30
0.0
 11
160.257
 21
50.9295
 31
0.0
  0
LINE
  8
0
 62
     0
 10
160.257
 20
50.9295
 30
0.0
 11
174.257
 21
50.9295
 31
0.0
  0
LINE
  8
0
 62
     0
 10
174.257
 20
50.9295
 30
0.0
 11
174.257
 21
51.9299
 31
0.0
  0
LINE
  8
0
 62
     0
 10
174.257
 20
51.9299
 30
0.0
 11
175.058
 21
51.9299
 31
0.0
  0
LINE
  8
0
 62
     0
 10
175.058
 20
51.9299
 30
0.0
 11
175.058
 21
55.0291
 31
0.0
  0
LINE
  8
0
 62
     0
 10
175.058
 20
55.0291
 30
0.0
 11
174.257
 21
55.0291
 31
0.0
  0
LINE
  8
0
 62
     0
 10
174.257
 20
55.0291
 30
0.0
 11
174.257
 21
60.8295
 31
0.0
  0
LINE
  8
0
 62
     0
 10
174.257
 20
60.8295
 30
0.0
 11
175.058
 21
60.8295
 31
0.0
  0
LINE
  8
0
 62
     0
 10
175.058
 20
60.8295
 30
0.0
 11
175.058
 21
63.93
 31
0.0
  0
LINE
  8
0
 62
     0
 10
175.058
 20
63.93
 30
0.0
 11
174.257
 21
63.93
 31
0.0
  0
LINE
  8
0
 62
     0
 10
174.257
 20
63.93
 30
0.0
 11
174.257
 21
64.9291
 31
0.0
  0
LINE
  8
0
 62
     0
 10
174.257
 20
64.9291
 30
0.0
 11
160.257
 21
64.9291
 31
0.0
  0
LINE
  8
0
 62
     0
 10
141.207
 20
64.9291
 30
0.0
 11
141.207
 21
63.93
 31
0.0
  0
LINE
  8
0
 62
     0
 10
141.207
 20
63.93
 30
0.0
 11
140.407
 21
63.93
 31
0.0
  0
LINE
  8
0
 62
     0
 10
140.407
 20
63.93
 30
0.0
 11
140.407
 21
60.8295
 31
0.0
  0
LINE
  8
0
 62
     0
 10
140.407
 20
60.8295
 30
0.0
 11
141.207
 21
60.8295
 31
0.0
  0
LINE
  8
0
 62
     0
 10
141.207
 20
60.8295
 30
0.0
 11
141.207
 21
55.0291
 31
0.0
  0
LINE
  8
0
 62
     0
 10
141.207
 20
55.0291
 30
0.0
 11
140.407
 21
55.0291
 31
0.0
  0
LINE
  8
0
 62
     0
 10
140.407
 20
55.0291
 30
0.0
 11
140.407
 21
51.9299
 31
0.0
  0
LINE
  8
0
 62
     0
 10
140.407
 20
51.9299
 30
0.0
 11
141.207
 21
51.9299
 31
0.0
  0
LINE
  8
0
 62
     0
 10
141.207
 20
51.9299
 30
0.0
 11
141.207
 21
50.9295
 31
0.0
  0
LINE
  8
0
 62
     0
 10
141.207
 20
50.9295
 30
0.0
 11
155.207
 21
50.9295
 31
0.0
  0
LINE
  8
0
 62
     0
 10
155.207
 20
50.9295
 30
0.0
 11
155.207
 21
51.9299
 31
0.0
  0
LINE
  8
0
 62
     0
 10
155.207
 20
51.9299
 30
0.0
 11
156.008
 21
51.9299
 31
0.0
  0
LINE
  8
0
 62
     0
 10
156.008
 20
51.9299
 30
0.0
 11
156.008
 21
55.0291
 31
0.0
  0
LINE
  8
0
 62
     0
 10
156.008
 20
55.0291
 30
0.0
 11
155.207
 21
55.0291
 31
0.0
  0
LINE
  8
0
 62
     0
 10
155.207
 20
55.0291
 30
0.0
 11
155.207
 21
60.8295
 31
0.0
  0
LINE
  8
0
 62
     0
 10
155.207
 20
60.8295
 30
0.0
 11
156.008
 21
60.8295
 31
0.0
  0
LINE
  8
0
 62
     0
 10
156.008
 20
60.8295
 30
0.0
 11
156.008
 21
63.93
 31
0.0
  0
LINE
  8
0
 62
     0
 10
156.008
 20
63.93
 30
0.0
 11
155.207
 21
63.93
 31
0.0
  0
LINE
  8
0
 62
     0
 10
155.207
 20
63.93
 30
0.0
 11
155.207
 21
64.9291
 31
0.0
  0
LINE
  8
0
 62
     0
 10
155.207
 20
64.9291
 30
0.0
 11
141.207
 21
64.9291
 31
0.0
  0
LINE
  8
0
 62
     0
 10
122.157
 20
64.9291
 30
0.0
 11
122.157
 21
63.93
 31
0.0
  0
LINE
  8
0
 62
     0
 10
122.157
 20
63.93
 30
0.0
 11
121.357
 21
63.93
 31
0.0
  0
LINE
  8
0
 62
     0
 10
121.357
 20
63.93
 30
0.0
 11
121.357
 21
60.8295
 31
0.0
  0
LINE
  8
0
 62
     0
 10
121.357
 20
60.8295
 30
0.0
 11
122.157
 21
60.8295
 31
0.0
  0
LINE
  8
0
 62
     0
 10
122.157
 20
60.8295
 30
0.0
 11
122.157
 21
55.0291
 31
0.0
  0
LINE
  8
0
 62
     0
 10
122.157
 20
55.0291
 30
0.0
 11
121.357
 21
55.0291
 31
0.0
  0
LINE
  8
0
 62
     0
 10
121.357
 20
55.0291
 30
0.0
 11
121.357
 21
51.9299
 31
0.0
  0
LINE
  8
0
 62
     0
 10
121.357
 20
51.9299
 30
0.0
 11
122.157
 21
51.9299
 31
0.0
  0
LINE
  8
0
 62
     0
 10
122.157
 20
51.9299
 30
0.0
 11
122.157
 21
50.9295
 31
0.0
  0
LINE
  8
0
 62
     0
 10
122.157
 20
50.9295
 30
0.0
 11
136.157
 21
50.9295
 31
0.0
  0
LINE
  8
0
 62
     0
 10
136.157
 20
50.9295
 30
0.0
 11
136.157
 21
51.9299
 31
0.0
  0
LINE
  8
0
 62
     0
 10
136.157
 20
51.9299
 30
0.0
 11
136.958
 21
51.9299
 31
0.0
  0
LINE
  8
0
 62
     0
 10
136.958
 20
51.9299
 30
0.0
 11
136.958
 21
55.0291
 31
0.0
  0
LINE
  8
0
 62
     0
 10
136.958
 20
55.0291
 30
0.0
 11
136.157
 21
55.0291
 31
0.0
  0
LINE
  8
0
 62
     0
 10
136.157
 20
55.0291
 30
0.0
 11
136.157
 21
60.8295
 31
0.0
  0
LINE
  8
0
 62
     0
 10
136.157
 20
60.8295
 30
0.0
 11
136.958
 21
60.8295
 31
0.0
  0
LINE
  8
0
 62
     0
 10
136.958
 20
60.8295
 30
0.0
 11
136.958
 21
63.93
 31
0.0
  0
LINE
  8
0
 62
     0
 10
136.958
 20
63.93
 30
0.0
 11
136.157
 21
63.93
 31
0.0
  0
LINE
  8
0
 62
     0
 10
136.157
 20
63.93
 30
0.0
 11
136.157
 21
64.9291
 31
0.0
  0
LINE
  8
0
 62
     0
 10
136.157
 20
64.9291
 30
0.0
 11
122.157
 21
64.9291
 31
0.0
  0
LINE
  8
0
 62
     0
 10
103.107
 20
64.9291
 30
0.0
 11
103.107
 21
63.93
 31
0.0
  0
LINE
  8
0
 62
     0
 10
103.107
 20
63.93
 30
0.0
 11
102.307
 21
63.93
 31
0.0
  0
LINE
  8
0
 62
     0
 10
102.307
 20
63.93
 30
0.0
 11
102.307
 21
60.8295
 31
0.0
  0
LINE
  8
0
 62
     0
 10
102.307
 20
60.8295
 30
0.0
 11
103.107
 21
60.8295
 31
0.0
  0
LINE
  8
0
 62
     0
 10
103.107
 20
60.8295
 30
0.0
 11
103.107
 21
55.0291
 31
0.0
  0
LINE
  8
0
 62
     0
 10
103.107
 20
55.0291
 30
0.0
 11
102.307
 21
55.0291
 31
0.0
  0
LINE
  8
0
 62
     0
 10
102.307
 20
55.0291
 30
0.0
 11
102.307
 21
51.9299
 31
0.0
  0
LINE
  8
0
 62
     0
 10
102.307
 20
51.9299
 30
0.0
 11
103.107
 21
51.9299
 31
0.0
  0
LINE
  8
0
 62
     0
 10
103.107
 20
51.9299
 30
0.0
 11
103.107
 21
50.9295
 31
0.0
  0
LINE
  8
0
 62
     0
 10
103.107
 20
50.9295
 30
0.0
 11
117.107
 21
50.9295
 31
0.0
  0
LINE
  8
0
 62
     0
 10
117.107
 20
50.9295
 30
0.0
 11
117.107
 21
51.9299
 31
0.0
  0
LINE
  8
0
 62
     0
 10
117.107
 20
51.9299
 30
0.0
 11
117.908
 21
51.9299
 31
0.0
  0
LINE
  8
0
 62
     0
 10
117.908
 20
51.9299
 30
0.0
 11
117.908
 21
55.0291
 31
0.0
  0
LINE
  8
0
 62
     0
 10
117.908
 20
55.0291
 30
0.0
 11
117.107
 21
55.0291
 31
0.0
  0
LINE
  8
0
 62
     0
 10
117.107
 20
55.0291
 30
0.0
 11
117.107
 21
60.8295
 31
0.0
  0
LINE
  8
0
 62
     0
 10
117.107
 20
60.8295
 30
0.0
 11
117.908
 21
60.8295
 31
0.0
  0
LINE
  8
0
 62
     0
 10
117.908
 20
60.8295
 30
0.0
 11
117.908
 21
63.93
 31
0.0
  0
LINE
  8
0
 62
     0
 10
117.908
 20
63.93
 30
0.0
 11
117.107
 21
63.93
 31
0.0
  0
LINE
  8
0
 62
     0
 10
117.107
 20
63.93
 30
0.0
 11
117.107
 21
64.9291
 31
0.0
  0
LINE
  8
0
 62
     0
 10
117.107
 20
64.9291
 30
0.0
 11
103.107
 21
64.9291
 31
0.0
  0
LINE
  8
0
 62
     0
 10
84.0574
 20
64.9291
 30
0.0
 11
84.0574
 21
63.93
 31
0.0
  0
LINE
  8
0
 62
     0
 10
84.0574
 20
63.93
 30
0.0
 11
83.257
 21
63.93
 31
0.0
  0
LINE
  8
0
 62
     0
 10
83.257
 20
63.93
 30
0.0
 11
83.257
 21
60.8295
 31
0.0
  0
LINE
  8
0
 62
     0
 10
83.257
 20
60.8295
 30
0.0
 11
84.0574
 21
60.8295
 31
0.0
  0
LINE
  8
0
 62
     0
 10
84.0574
 20
60.8295
 30
0.0
 11
84.0574
 21
55.0291
 31
0.0
  0
LINE
  8
0
 62
     0
 10
84.0574
 20
55.0291
 30
0.0
 11
83.257
 21
55.0291
 31
0.0
  0
LINE
  8
0
 62
     0
 10
83.257
 20
55.0291
 30
0.0
 11
83.257
 21
51.9299
 31
0.0
  0
LINE
  8
0
 62
     0
 10
83.257
 20
51.9299
 30
0.0
 11
84.0574
 21
51.9299
 31
0.0
  0
LINE
  8
0
 62
     0
 10
84.0574
 20
51.9299
 30
0.0
 11
84.0574
 21
50.9295
 31
0.0
  0
LINE
  8
0
 62
     0
 10
84.0574
 20
50.9295
 30
0.0
 11
98.0571
 21
50.9295
 31
0.0
  0
LINE
  8
0
 62
     0
 10
98.0571
 20
50.9295
 30
0.0
 11
98.0571
 21
51.9299
 31
0.0
  0
LINE
  8
0
 62
     0
 10
98.0571
 20
51.9299
 30
0.0
 11
98.8579
 21
51.9299
 31
0.0
  0
LINE
  8
0
 62
     0
 10
98.8579
 20
51.9299
 30
0.0
 11
98.8579
 21
55.0291
 31
0.0
  0
LINE
  8
0
 62
     0
 10
98.8579
 20
55.0291
 30
0.0
 11
98.0571
 21
55.0291
 31
0.0
  0
LINE
  8
0
 62
     0
 10
98.0571
 20
55.0291
 30
0.0
 11
98.0571
 21
60.8295
 31
0.0
  0
LINE
  8
0
 62
     0
 10
98.0571
 20
60.8295
 30
0.0
 11
98.8579
 21
60.8295
 31
0.0
  0
LINE
  8
0
 62
     0
 10
98.8579
 20
60.8295
 30
0.0
 11
98.8579
 21
63.93
 31
0.0
  0
LINE
  8
0
 62
     0
 10
98.8579
 20
63.93
 30
0.0
 11
98.0571
 21
63.93
 31
0.0
  0
LINE
  8
0
 62
     0
 10
98.0571
 20
63.93
 30
0.0
 11
98.0571
 21
64.9291
 31
0.0
  0
LINE
  8
0
 62
     0
 10
98.0571
 20
64.9291
 30
0.0
 11
84.0574
 21
64.9291
 31
0.0
  0
LINE
  8
0
 62
     0
 10
65.0074
 20
64.9291
 30
0.0
 11
65.0074
 21
63.93
 31
0.0
  0
LINE
  8
0
 62
     0
 10
65.0074
 20
63.93
 30
0.0
 11
64.207
 21
63.93
 31
0.0
  0
LINE
  8
0
 62
     0
 10
64.207
 20
63.93
 30
0.0
 11
64.207
 21
60.8295
 31
0.0
  0
LINE
  8
0
 62
     0
 10
64.207
 20
60.8295
 30
0.0
 11
65.0074
 21
60.8295
 31
0.0
  0
LINE
  8
0
 62
     0
 10
65.0074
 20
60.8295
 30
0.0
 11
65.0074
 21
55.0291
 31
0.0
  0
LINE
  8
0
 62
     0
 10
65.0074
 20
55.0291
 30
0.0
 11
64.207
 21
55.0291
 31
0.0
  0
LINE
  8
0
 62
     0
 10
64.207
 20
55.0291
 30
0.0
 11
64.207
 21
51.9299
 31
0.0
  0
LINE
  8
0
 62
     0
 10
64.207
 20
51.9299
 30
0.0
 11
65.0074
 21
51.9299
 31
0.0
  0
LINE
  8
0
 62
     0
 10
65.0074
 20
51.9299
 30
0.0
 11
65.0074
 21
50.9295
 31
0.0
  0
LINE
  8
0
 62
     0
 10
65.0074
 20
50.9295
 30
0.0
 11
79.0071
 21
50.9295
 31
0.0
  0
LINE
  8
0
 62
     0
 10
79.0071
 20
50.9295
 30
0.0
 11
79.0071
 21
51.9299
 31
0.0
  0
LINE
  8
0
 62
     0
 10
79.0071
 20
51.9299
 30
0.0
 11
79.8079
 21
51.9299
 31
0.0
  0
LINE
  8
0
 62
     0
 10
79.8079
 20
51.9299
 30
0.0
 11
79.8079
 21
55.0291
 31
0.0
  0
LINE
  8
0
 62
     0
 10
79.8079
 20
55.0291
 30
0.0
 11
79.0071
 21
55.0291
 31
0.0
  0
LINE
  8
0
 62
     0
 10
79.0071
 20
55.0291
 30
0.0
 11
79.0071
 21
60.8295
 31
0.0
  0
LINE
  8
0
 62
     0
 10
79.0071
 20
60.8295
 30
0.0
 11
79.8079
 21
60.8295
 31
0.0
  0
LINE
  8
0
 62
     0
 10
79.8079
 20
60.8295
 30
0.0
 11
79.8079
 21
63.93
 31
0.0
  0
LINE
  8
0
 62
     0
 10
79.8079
 20
63.93
 30
0.0
 11
79.0071
 21
63.93
 31
0.0
  0
LINE
  8
0
 62
     0
 10
79.0071
 20
63.93
 30
0.0
 11
79.0071
 21
64.9291
 31
0.0
  0
LINE
  8
0
 62
     0
 10
79.0071
 20
64.9291
 30
0.0
 11
65.0074
 21
64.9291
 31
0.0
  0
LINE
  8
0
 62
     0
 10
45.9574
 20
64.9291
 30
0.0
 11
45.9574
 21
63.93
 31
0.0
  0
LINE
  8
0
 62
     0
 10
45.9574
 20
63.93
 30
0.0
 11
45.157
 21
63.93
 31
0.0
  0
LINE
  8
0
 62
     0
 10
45.157
 20
63.93
 30
0.0
 11
45.157
 21
60.8295
 31
0.0
  0
LINE
  8
0
 62
     0
 10
45.157
 20
60.8295
 30
0.0
 11
45.9574
 21
60.8295
 31
0.0
  0
LINE
  8
0
 62
     0
 10
45.9574
 20
60.8295
 30
0.0
 11
45.9574
 21
55.0291
 31
0.0
  0
LINE
  8
0
 62
     0
 10
45.9574
 20
55.0291
 30
0.0
 11
45.157
 21
55.0291
 31
0.0
  0
LINE
  8
0
 62
     0
 10
45.157
 20
55.0291
 30
0.0
 11
45.157
 21
51.9299
 31
0.0
  0
LINE
  8
0
 62
     0
 10
45.157
 20
51.9299
 30
0.0
 11
45.9574
 21
51.9299
 31
0.0
  0
LINE
  8
0
 62
     0
 10
45.9574
 20
51.9299
 30
0.0
 11
45.9574
 21
50.9295
 31
0.0
  0
LINE
  8
0
 62
     0
 10
45.9574
 20
50.9295
 30
0.0
 11
59.9571
 21
50.9295
 31
0.0
  0
LINE
  8
0
 62
     0
 10
59.9571
 20
50.9295
 30
0.0
 11
59.9571
 21
51.9299
 31
0.0
  0
LINE
  8
0
 62
     0
 10
59.9571
 20
51.9299
 30
0.0
 11
60.7579
 21
51.9299
 31
0.0
  0
LINE
  8
0
 62
     0
 10
60.7579
 20
51.9299
 30
0.0
 11
60.7579
 21
55.0291
 31
0.0
  0
LINE
  8
0
 62
     0
 10
60.7579
 20
55.0291
 30
0.0
 11
59.9571
 21
55.0291
 31
0.0
  0
LINE
  8
0
 62
     0
 10
59.9571
 20
55.0291
 30
0.0
 11
59.9571
 21
60.8295
 31
0.0
  0
LINE
  8
0
 62
     0
 10
59.9571
 20
60.8295
 30
0.0
 11
60.7579
 21
60.8295
 31
0.0
  0
LINE
  8
0
 62
     0
 10
60.7579
 20
60.8295
 30
0.0
 11
60.7579
 21
63.93
 31
0.0
  0
LINE
  8
0
 62
     0
 10
60.7579
 20
63.93
 30
0.0
 11
59.9571
 21
63.93
 31
0.0
  0
LINE
  8
0
 62
     0
 10
59.9571
 20
63.93
 30
0.0
 11
59.9571
 21
64.9291
 31
0.0
  0
LINE
  8
0
 62
     0
 10
59.9571
 20
64.9291
 30
0.0
 11
45.9574
 21
64.9291
 31
0.0
  0
LINE
  8
0
 62
     0
 10
19.7638
 20
64.9291
 30
0.0
 11
19.7638
 21
63.93
 31
0.0
  0
LINE
  8
0
 62
     0
 10
19.7638
 20
63.93
 30
0.0
 11
18.9632
 21
63.93
 31
0.0
  0
LINE
  8
0
 62
     0
 10
18.9632
 20
63.93
 30
0.0
 11
18.9632
 21
60.8295
 31
0.0
  0
LINE
  8
0
 62
     0
 10
18.9632
 20
60.8295
 30
0.0
 11
19.7638
 21
60.8295
 31
0.0
  0
LINE
  8
0
 62
     0
 10
19.7638
 20
60.8295
 30
0.0
 11
19.7638
 21
55.0291
 31
0.0
  0
LINE
  8
0
 62
     0
 10
19.7638
 20
55.0291
 30
0.0
 11
18.9632
 21
55.0291
 31
0.0
  0
LINE
  8
0
 62
     0
 10
18.9632
 20
55.0291
 30
0.0
 11
18.9632
 21
51.9299
 31
0.0
  0
LINE
  8
0
 62
     0
 10
18.9632
 20
51.9299
 30
0.0
 11
19.7638
 21
51.9299
 31
0.0
  0
LINE
  8
0
 62
     0
 10
19.7638
 20
51.9299
 30
0.0
 11
19.7638
 21
50.9295
 31
0.0
  0
LINE
  8
0
 62
     0
 10
19.7638
 20
50.9295
 30
0.0
 11
33.7633
 21
50.9295
 31
0.0
  0
LINE
  8
0
 62
     0
 10
33.7633
 20
50.9295
 30
0.0
 11
33.7633
 21
51.9299
 31
0.0
  0
LINE
  8
0
 62
     0
 10
33.7633
 20
51.9299
 30
0.0
 11
34.564
 21
51.9299
 31
0.0
  0
LINE
  8
0
 62
     0
 10
34.564
 20
51.9299
 30
0.0
 11
34.564
 21
55.0291
 31
0.0
  0
LINE
  8
0
 62
     0
 10
34.564
 20
55.0291
 30
0.0
 11
33.7633
 21
55.0291
 31
0.0
  0
LINE
  8
0
 62
     0
 10
33.7633
 20
55.0291
 30
0.0
 11
33.7633
 21
60.8295
 31
0.0
  0
LINE
  8
0
 62
     0
 10
33.7633
 20
60.8295
 30
0.0
 11
34.564
 21
60.8295
 31
0.0
  0
LINE
  8
0
 62
     0
 10
34.564
 20
60.8295
 30
0.0
 11
34.564
 21
63.93
 31
0.0
  0
LINE
  8
0
 62
     0
 10
34.564
 20
63.93
 30
0.0
 11
33.7633
 21
63.93
 31
0.0
  0
LINE
  8
0
 62
     0
 10
33.7633
 20
63.93
 30
0.0
 11
33.7633
 21
64.9291
 31
0.0
  0
LINE
  8
0
 62
     0
 10
33.7633
 20
64.9291
 30
0.0
 11
19.7638
 21
64.9291
 31
0.0
  0
LINE
  8
0
 62
     0
 10
283.439
 20
83.5547
 30
0.0
 11
283.439
 21
82.7292
 31
0.0
  0
LINE
  8
0
 62
     0
 10
283.439
 20
82.7292
 30
0.0
 11
277.169
 21
82.7292
 31
0.0
  0
LINE
  8
0
 62
     0
 10
277.169
 20
82.7292
 30
0.0
 11
277.169
 21
81.0038
 31
0.0
  0
LINE
  8
0
 62
     0
 10
277.169
 20
81.0038
 30
0.0
 11
275.969
 21
81.0038
 31
0.0
  0
LINE
  8
0
 62
     0
 10
275.969
 20
81.0038
 30
0.0
 11
275.969
 21
77.705
 31
0.0
  0
LINE
  8
0
 62
     0
 10
275.969
 20
77.705
 30
0.0
 11
277.169
 21
77.705
 31
0.0
  0
LINE
  8
0
 62
     0
 10
277.169
 20
77.705
 30
0.0
 11
277.169
 21
75.9795
 31
0.0
  0
LINE
  8
0
 62
     0
 10
277.169
 20
75.9795
 30
0.0
 11
281.638
 21
75.9795
 31
0.0
  0
LINE
  8
0
 62
     0
 10
281.638
 20
75.9795
 30
0.0
 11
281.638
 21
74.4541
 31
0.0
  0
LINE
  8
0
 62
     0
 10
281.638
 20
74.4541
 30
0.0
 11
281.039
 21
74.4541
 31
0.0
  0
LINE
  8
0
 62
     0
 10
281.039
 20
74.4541
 30
0.0
 11
281.039
 21
75.2546
 31
0.0
  0
LINE
  8
0
 62
     0
 10
281.039
 20
75.2546
 30
0.0
 11
277.938
 21
75.2546
 31
0.0
  0
LINE
  8
0
 62
     0
 10
277.938
 20
75.2546
 30
0.0
 11
277.938
 21
74.4541
 31
0.0
  0
LINE
  8
0
 62
     0
 10
277.938
 20
74.4541
 30
0.0
 11
276.939
 21
74.4541
 31
0.0
  0
LINE
  8
0
 62
     0
 10
276.939
 20
74.4541
 30
0.0
 11
276.939
 21
60.4545
 31
0.0
  0
LINE
  8
0
 62
     0
 10
276.939
 20
60.4545
 30
0.0
 11
277.938
 21
60.4545
 31
0.0
  0
LINE
  8
0
 62
     0
 10
277.938
 20
60.4545
 30
0.0
 11
277.938
 21
59.654
 31
0.0
  0
LINE
  8
0
 62
     0
 10
277.938
 20
59.654
 30
0.0
 11
281.039
 21
59.654
 31
0.0
  0
LINE
  8
0
 62
     0
 10
281.039
 20
59.654
 30
0.0
 11
281.039
 21
60.4545
 31
0.0
  0
LINE
  8
0
 62
     0
 10
281.039
 20
60.4545
 30
0.0
 11
281.638
 21
60.4545
 31
0.0
  0
LINE
  8
0
 62
     0
 10
281.638
 20
60.4545
 30
0.0
 11
281.638
 21
58.9291
 31
0.0
  0
LINE
  8
0
 62
     0
 10
281.638
 20
58.9291
 30
0.0
 11
277.169
 21
58.9291
 31
0.0
  0
LINE
  8
0
 62
     0
 10
277.169
 20
58.9291
 30
0.0
 11
277.169
 21
57.205
 31
0.0
  0
LINE
  8
0
 62
     0
 10
277.169
 20
57.205
 30
0.0
 11
275.969
 21
57.205
 31
0.0
  0
LINE
  8
0
 62
     0
 10
275.969
 20
57.205
 30
0.0
 11
275.969
 21
53.9048
 31
0.0
  0
LINE
  8
0
 62
     0
 10
275.969
 20
53.9048
 30
0.0
 11
277.169
 21
53.9048
 31
0.0
  0
LINE
  8
0
 62
     0
 10
277.169
 20
53.9048
 30
0.0
 11
277.169
 21
52.1794
 31
0.0
  0
LINE
  8
0
 62
     0
 10
277.169
 20
52.1794
 30
0.0
 11
283.439
 21
52.1794
 31
0.0
  0
LINE
  8
0
 62
     0
 10
283.439
 20
52.1794
 30
0.0
 11
283.439
 21
51.3539
 31
0.0
  0
LINE
  8
0
 62
     0
 10
283.439
 20
51.3539
 30
0.0
 11
286.238
 21
51.3539
 31
0.0
  0
LINE
  8
0
 62
     0
 10
286.238
 20
51.3539
 30
0.0
 11
286.238
 21
52.1794
 31
0.0
  0
LINE
  8
0
 62
     0
 10
286.238
 20
52.1794
 30
0.0
 11
289.468
 21
52.1794
 31
0.0
  0
LINE
  8
0
 62
     0
 10
289.468
 20
52.1794
 30
0.0
 11
289.468
 21
58.9291
 31
0.0
  0
LINE
  8
0
 62
     0
 10
289.468
 20
58.9291
 30
0.0
 11
286.238
 21
58.9291
 31
0.0
  0
LINE
  8
0
 62
     0
 10
286.238
 20
58.9291
 30
0.0
 11
286.238
 21
60.4545
 31
0.0
  0
LINE
  8
0
 62
     0
 10
286.238
 20
60.4545
 30
0.0
 11
286.839
 21
60.4545
 31
0.0
  0
LINE
  8
0
 62
     0
 10
286.839
 20
60.4545
 30
0.0
 11
286.839
 21
59.654
 31
0.0
  0
LINE
  8
0
 62
     0
 10
286.839
 20
59.654
 30
0.0
 11
289.938
 21
59.654
 31
0.0
  0
LINE
  8
0
 62
     0
 10
289.938
 20
59.654
 30
0.0
 11
289.938
 21
60.4545
 31
0.0
  0
LINE
  8
0
 62
     0
 10
289.938
 20
60.4545
 30
0.0
 11
290.938
 21
60.4545
 31
0.0
  0
LINE
  8
0
 62
     0
 10
290.938
 20
60.4545
 30
0.0
 11
290.938
 21
74.4541
 31
0.0
  0
LINE
  8
0
 62
     0
 10
290.938
 20
74.4541
 30
0.0
 11
289.938
 21
74.4541
 31
0.0
  0
LINE
  8
0
 62
     0
 10
289.938
 20
74.4541
 30
0.0
 11
289.938
 21
75.2546
 31
0.0
  0
LINE
  8
0
 62
     0
 10
289.938
 20
75.2546
 30
0.0
 11
286.839
 21
75.2546
 31
0.0
  0
LINE
  8
0
 62
     0
 10
286.839
 20
75.2546
 30
0.0
 11
286.839
 21
74.4541
 31
0.0
  0
LINE
  8
0
 62
     0
 10
286.839
 20
74.4541
 30
0.0
 11
286.238
 21
74.4541
 31
0.0
  0
LINE
  8
0
 62
     0
 10
286.238
 20
74.4541
 30
0.0
 11
286.238
 21
75.9795
 31
0.0
  0
LINE
  8
0
 62
     0
 10
286.238
 20
75.9795
 30
0.0
 11
289.468
 21
75.9795
 31
0.0
  0
LINE
  8
0
 62
     0
 10
289.468
 20
75.9795
 30
0.0
 11
289.468
 21
82.7292
 31
0.0
  0
LINE
  8
0
 62
     0
 10
289.468
 20
82.7292
 30
0.0
 11
286.238
 21
82.7292
 31
0.0
  0
LINE
  8
0
 62
     0
 10
286.238
 20
82.7292
 30
0.0
 11
286.238
 21
83.5547
 31
0.0
  0
LINE
  8
0
 62
     0
 10
286.238
 20
83.5547
 30
0.0
 11
283.439
 21
83.5547
 31
0.0
  0
LINE
  8
0
 62
     0
 10
341.232
 20
83.9791
 30
0.0
 11
341.232
 21
82.98
 31
0.0
  0
LINE
  8
0
 62
     0
 10
341.232
 20
82.98
 30
0.0
 11
340.432
 21
82.98
 31
0.0
  0
LINE
  8
0
 62
     0
 10
340.432
 20
82.98
 30
0.0
 11
340.432
 21
79.8795
 31
0.0
  0
LINE
  8
0
 62
     0
 10
340.432
 20
79.8795
 30
0.0
 11
341.232
 21
79.8795
 31
0.0
  0
LINE
  8
0
 62
     0
 10
341.232
 20
79.8795
 30
0.0
 11
341.232
 21
74.0791
 31
0.0
  0
LINE
  8
0
 62
     0
 10
341.232
 20
74.0791
 30
0.0
 11
340.432
 21
74.0791
 31
0.0
  0
LINE
  8
0
 62
     0
 10
340.432
 20
74.0791
 30
0.0
 11
340.432
 21
70.9799
 31
0.0
  0
LINE
  8
0
 62
     0
 10
340.432
 20
70.9799
 30
0.0
 11
341.232
 21
70.9799
 31
0.0
  0
LINE
  8
0
 62
     0
 10
341.232
 20
70.9799
 30
0.0
 11
341.232
 21
69.9795
 31
0.0
  0
LINE
  8
0
 62
     0
 10
341.232
 20
69.9795
 30
0.0
 11
355.233
 21
69.9795
 31
0.0
  0
LINE
  8
0
 62
     0
 10
355.233
 20
69.9795
 30
0.0
 11
355.233
 21
70.9799
 31
0.0
  0
LINE
  8
0
 62
     0
 10
355.233
 20
70.9799
 30
0.0
 11
356.034
 21
70.9799
 31
0.0
  0
LINE
  8
0
 62
     0
 10
356.034
 20
70.9799
 30
0.0
 11
356.034
 21
74.0791
 31
0.0
  0
LINE
  8
0
 62
     0
 10
356.034
 20
74.0791
 30
0.0
 11
355.233
 21
74.0791
 31
0.0
  0
LINE
  8
0
 62
     0
 10
355.233
 20
74.0791
 30
0.0
 11
355.233
 21
79.8795
 31
0.0
  0
LINE
  8
0
 62
     0
 10
355.233
 20
79.8795
 30
0.0
 11
356.034
 21
79.8795
 31
0.0
  0
LINE
  8
0
 62
     0
 10
356.034
 20
79.8795
 30
0.0
 11
356.034
 21
82.98
 31
0.0
  0
LINE
  8
0
 62
     0
 10
356.034
 20
82.98
 30
0.0
 11
355.233
 21
82.98
 31
0.0
  0
LINE
  8
0
 62
     0
 10
355.233
 20
82.98
 30
0.0
 11
355.233
 21
83.9791
 31
0.0
  0
LINE
  8
0
 62
     0
 10
355.233
 20
83.9791
 30
0.0
 11
341.232
 21
83.9791
 31
0.0
  0
LINE
  8
0
 62
     0
 10
322.182
 20
83.9791
 30
0.0
 11
322.182
 21
82.98
 31
0.0
  0
LINE
  8
0
 62
     0
 10
322.182
 20
82.98
 30
0.0
 11
321.382
 21
82.98
 31
0.0
  0
LINE
  8
0
 62
     0
 10
321.382
 20
82.98
 30
0.0
 11
321.382
 21
79.8795
 31
0.0
  0
LINE
  8
0
 62
     0
 10
321.382
 20
79.8795
 30
0.0
 11
322.182
 21
79.8795
 31
0.0
  0
LINE
  8
0
 62
     0
 10
322.182
 20
79.8795
 30
0.0
 11
322.182
 21
74.0791
 31
0.0
  0
LINE
  8
0
 62
     0
 10
322.182
 20
74.0791
 30
0.0
 11
321.382
 21
74.0791
 31
0.0
  0
LINE
  8
0
 62
     0
 10
321.382
 20
74.0791
 30
0.0
 11
321.382
 21
70.9799
 31
0.0
  0
LINE
  8
0
 62
     0
 10
321.382
 20
70.9799
 30
0.0
 11
322.182
 21
70.9799
 31
0.0
  0
LINE
  8
0
 62
     0
 10
322.182
 20
70.9799
 30
0.0
 11
322.182
 21
69.9795
 31
0.0
  0
LINE
  8
0
 62
     0
 10
322.182
 20
69.9795
 30
0.0
 11
336.182
 21
69.9795
 31
0.0
  0
LINE
  8
0
 62
     0
 10
336.182
 20
69.9795
 30
0.0
 11
336.182
 21
70.9799
 31
0.0
  0
LINE
  8
0
 62
     0
 10
336.182
 20
70.9799
 30
0.0
 11
336.983
 21
70.9799
 31
0.0
  0
LINE
  8
0
 62
     0
 10
336.983
 20
70.9799
 30
0.0
 11
336.983
 21
74.0791
 31
0.0
  0
LINE
  8
0
 62
     0
 10
336.983
 20
74.0791
 30
0.0
 11
336.182
 21
74.0791
 31
0.0
  0
LINE
  8
0
 62
     0
 10
336.182
 20
74.0791
 30
0.0
 11
336.182
 21
79.8795
 31
0.0
  0
LINE
  8
0
 62
     0
 10
336.182
 20
79.8795
 30
0.0
 11
336.983
 21
79.8795
 31
0.0
  0
LINE
  8
0
 62
     0
 10
336.983
 20
79.8795
 30
0.0
 11
336.983
 21
82.98
 31
0.0
  0
LINE
  8
0
 62
     0
 10
336.983
 20
82.98
 30
0.0
 11
336.182
 21
82.98
 31
0.0
  0
LINE
  8
0
 62
     0
 10
336.182
 20
82.98
 30
0.0
 11
336.182
 21
83.9791
 31
0.0
  0
LINE
  8
0
 62
     0
 10
336.182
 20
83.9791
 30
0.0
 11
322.182
 21
83.9791
 31
0.0
  0
LINE
  8
0
 62
     0
 10
303.132
 20
83.9791
 30
0.0
 11
303.132
 21
82.98
 31
0.0
  0
LINE
  8
0
 62
     0
 10
303.132
 20
82.98
 30
0.0
 11
302.332
 21
82.98
 31
0.0
  0
LINE
  8
0
 62
     0
 10
302.332
 20
82.98
 30
0.0
 11
302.332
 21
79.8795
 31
0.0
  0
LINE
  8
0
 62
     0
 10
302.332
 20
79.8795
 30
0.0
 11
303.132
 21
79.8795
 31
0.0
  0
LINE
  8
0
 62
     0
 10
303.132
 20
79.8795
 30
0.0
 11
303.132
 21
74.0791
 31
0.0
  0
LINE
  8
0
 62
     0
 10
303.132
 20
74.0791
 30
0.0
 11
302.332
 21
74.0791
 31
0.0
  0
LINE
  8
0
 62
     0
 10
302.332
 20
74.0791
 30
0.0
 11
302.332
 21
70.9799
 31
0.0
  0
LINE
  8
0
 62
     0
 10
302.332
 20
70.9799
 30
0.0
 11
303.132
 21
70.9799
 31
0.0
  0
LINE
  8
0
 62
     0
 10
303.132
 20
70.9799
 30
0.0
 11
303.132
 21
69.9795
 31
0.0
  0
LINE
  8
0
 62
     0
 10
303.132
 20
69.9795
 30
0.0
 11
317.132
 21
69.9795
 31
0.0
  0
LINE
  8
0
 62
     0
 10
317.132
 20
69.9795
 30
0.0
 11
317.132
 21
70.9799
 31
0.0
  0
LINE
  8
0
 62
     0
 10
317.132
 20
70.9799
 30
0.0
 11
317.933
 21
70.9799
 31
0.0
  0
LINE
  8
0
 62
     0
 10
317.933
 20
70.9799
 30
0.0
 11
317.933
 21
74.0791
 31
0.0
  0
LINE
  8
0
 62
     0
 10
317.933
 20
74.0791
 30
0.0
 11
317.132
 21
74.0791
 31
0.0
  0
LINE
  8
0
 62
     0
 10
317.132
 20
74.0791
 30
0.0
 11
317.132
 21
79.8795
 31
0.0
  0
LINE
  8
0
 62
     0
 10
317.132
 20
79.8795
 30
0.0
 11
317.933
 21
79.8795
 31
0.0
  0
LINE
  8
0
 62
     0
 10
317.933
 20
79.8795
 30
0.0
 11
317.933
 21
82.98
 31
0.0
  0
LINE
  8
0
 62
     0
 10
317.933
 20
82.98
 30
0.0
 11
317.132
 21
82.98
 31
0.0
  0
LINE
  8
0
 62
     0
 10
317.132
 20
82.98
 30
0.0
 11
317.132
 21
83.9791
 31
0.0
  0
LINE
  8
0
 62
     0
 10
317.132
 20
83.9791
 30
0.0
 11
303.132
 21
83.9791
 31
0.0
  0
LINE
  8
0
 62
     0
 10
250.745
 20
83.9791
 30
0.0
 11
250.745
 21
82.98
 31
0.0
  0
LINE
  8
0
 62
     0
 10
250.745
 20
82.98
 30
0.0
 11
249.946
 21
82.98
 31
0.0
  0
LINE
  8
0
 62
     0
 10
249.946
 20
82.98
 30
0.0
 11
249.946
 21
79.8795
 31
0.0
  0
LINE
  8
0
 62
     0
 10
249.946
 20
79.8795
 30
0.0
 11
250.745
 21
79.8795
 31
0.0
  0
LINE
  8
0
 62
     0
 10
250.745
 20
79.8795
 30
0.0
 11
250.745
 21
74.0791
 31
0.0
  0
LINE
  8
0
 62
     0
 10
250.745
 20
74.0791
 30
0.0
 11
249.946
 21
74.0791
 31
0.0
  0
LINE
  8
0
 62
     0
 10
249.946
 20
74.0791
 30
0.0
 11
249.946
 21
70.9799
 31
0.0
  0
LINE
  8
0
 62
     0
 10
249.946
 20
70.9799
 30
0.0
 11
250.745
 21
70.9799
 31
0.0
  0
LINE
  8
0
 62
     0
 10
250.745
 20
70.9799
 30
0.0
 11
250.745
 21
69.9795
 31
0.0
  0
LINE
  8
0
 62
     0
 10
250.745
 20
69.9795
 30
0.0
 11
264.746
 21
69.9795
 31
0.0
  0
LINE
  8
0
 62
     0
 10
264.746
 20
69.9795
 30
0.0
 11
264.746
 21
70.9799
 31
0.0
  0
LINE
  8
0
 62
     0
 10
264.746
 20
70.9799
 30
0.0
 11
265.545
 21
70.9799
 31
0.0
  0
LINE
  8
0
 62
     0
 10
265.545
 20
70.9799
 30
0.0
 11
265.545
 21
74.0791
 31
0.0
  0
LINE
  8
0
 62
     0
 10
265.545
 20
74.0791
 30
0.0
 11
264.746
 21
74.0791
 31
0.0
  0
LINE
  8
0
 62
     0
 10
264.746
 20
74.0791
 30
0.0
 11
264.746
 21
79.8795
 31
0.0
  0
LINE
  8
0
 62
     0
 10
264.746
 20
79.8795
 30
0.0
 11
265.545
 21
79.8795
 31
0.0
  0
LINE
  8
0
 62
     0
 10
265.545
 20
79.8795
 30
0.0
 11
265.545
 21
82.98
 31
0.0
  0
LINE
  8
0
 62
     0
 10
265.545
 20
82.98
 30
0.0
 11
264.746
 21
82.98
 31
0.0
  0
LINE
  8
0
 62
     0
 10
264.746
 20
82.98
 30
0.0
 11
264.746
 21
83.9791
 31
0.0
  0
LINE
  8
0
 62
     0
 10
264.746
 20
83.9791
 30
0.0
 11
250.745
 21
83.9791
 31
0.0
  0
LINE
  8
0
 62
     0
 10
231.695
 20
83.9791
 30
0.0
 11
231.695
 21
82.98
 31
0.0
  0
LINE
  8
0
 62
     0
 10
231.695
 20
82.98
 30
0.0
 11
230.896
 21
82.98
 31
0.0
  0
LINE
  8
0
 62
     0
 10
230.896
 20
82.98
 30
0.0
 11
230.896
 21
79.8795
 31
0.0
  0
LINE
  8
0
 62
     0
 10
230.896
 20
79.8795
 30
0.0
 11
231.695
 21
79.8795
 31
0.0
  0
LINE
  8
0
 62
     0
 10
231.695
 20
79.8795
 30
0.0
 11
231.695
 21
74.0791
 31
0.0
  0
LINE
  8
0
 62
     0
 10
231.695
 20
74.0791
 30
0.0
 11
230.896
 21
74.0791
 31
0.0
  0
LINE
  8
0
 62
     0
 10
230.896
 20
74.0791
 30
0.0
 11
230.896
 21
70.9799
 31
0.0
  0
LINE
  8
0
 62
     0
 10
230.896
 20
70.9799
 30
0.0
 11
231.695
 21
70.9799
 31
0.0
  0
LINE
  8
0
 62
     0
 10
231.695
 20
70.9799
 30
0.0
 11
231.695
 21
69.9795
 31
0.0
  0
LINE
  8
0
 62
     0
 10
231.695
 20
69.9795
 30
0.0
 11
245.696
 21
69.9795
 31
0.0
  0
LINE
  8
0
 62
     0
 10
245.696
 20
69.9795
 30
0.0
 11
245.696
 21
70.9799
 31
0.0
  0
LINE
  8
0
 62
     0
 10
245.696
 20
70.9799
 30
0.0
 11
246.495
 21
70.9799
 31
0.0
  0
LINE
  8
0
 62
     0
 10
246.495
 20
70.9799
 30
0.0
 11
246.495
 21
74.0791
 31
0.0
  0
LINE
  8
0
 62
     0
 10
246.495
 20
74.0791
 30
0.0
 11
245.696
 21
74.0791
 31
0.0
  0
LINE
  8
0
 62
     0
 10
245.696
 20
74.0791
 30
0.0
 11
245.696
 21
79.8795
 31
0.0
  0
LINE
  8
0
 62
     0
 10
245.696
 20
79.8795
 30
0.0
 11
246.495
 21
79.8795
 31
0.0
  0
LINE
  8
0
 62
     0
 10
246.495
 20
79.8795
 30
0.0
 11
246.495
 21
82.98
 31
0.0
  0
LINE
  8
0
 62
     0
 10
246.495
 20
82.98
 30
0.0
 11
245.696
 21
82.98
 31
0.0
  0
LINE
  8
0
 62
     0
 10
245.696
 20
82.98
 30
0.0
 11
245.696
 21
83.9791
 31
0.0
  0
LINE
  8
0
 62
     0
 10
245.696
 20
83.9791
 30
0.0
 11
231.695
 21
83.9791
 31
0.0
  0
LINE
  8
0
 62
     0
 10
212.645
 20
83.9791
 30
0.0
 11
212.645
 21
82.98
 31
0.0
  0
LINE
  8
0
 62
     0
 10
212.645
 20
82.98
 30
0.0
 11
211.846
 21
82.98
 31
0.0
  0
LINE
  8
0
 62
     0
 10
211.846
 20
82.98
 30
0.0
 11
211.846
 21
79.8795
 31
0.0
  0
LINE
  8
0
 62
     0
 10
211.846
 20
79.8795
 30
0.0
 11
212.645
 21
79.8795
 31
0.0
  0
LINE
  8
0
 62
     0
 10
212.645
 20
79.8795
 30
0.0
 11
212.645
 21
74.0791
 31
0.0
  0
LINE
  8
0
 62
     0
 10
212.645
 20
74.0791
 30
0.0
 11
211.846
 21
74.0791
 31
0.0
  0
LINE
  8
0
 62
     0
 10
211.846
 20
74.0791
 30
0.0
 11
211.846
 21
70.9799
 31
0.0
  0
LINE
  8
0
 62
     0
 10
211.846
 20
70.9799
 30
0.0
 11
212.645
 21
70.9799
 31
0.0
  0
LINE
  8
0
 62
     0
 10
212.645
 20
70.9799
 30
0.0
 11
212.645
 21
69.9795
 31
0.0
  0
LINE
  8
0
 62
     0
 10
212.645
 20
69.9795
 30
0.0
 11
226.646
 21
69.9795
 31
0.0
  0
LINE
  8
0
 62
     0
 10
226.646
 20
69.9795
 30
0.0
 11
226.646
 21
70.9799
 31
0.0
  0
LINE
  8
0
 62
     0
 10
226.646
 20
70.9799
 30
0.0
 11
227.445
 21
70.9799
 31
0.0
  0
LINE
  8
0
 62
     0
 10
227.445
 20
70.9799
 30
0.0
 11
227.445
 21
74.0791
 31
0.0
  0
LINE
  8
0
 62
     0
 10
227.445
 20
74.0791
 30
0.0
 11
226.646
 21
74.0791
 31
0.0
  0
LINE
  8
0
 62
     0
 10
226.646
 20
74.0791
 30
0.0
 11
226.646
 21
79.8795
 31
0.0
  0
LINE
  8
0
 62
     0
 10
226.646
 20
79.8795
 30
0.0
 11
227.445
 21
79.8795
 31
0.0
  0
LINE
  8
0
 62
     0
 10
227.445
 20
79.8795
 30
0.0
 11
227.445
 21
82.98
 31
0.0
  0
LINE
  8
0
 62
     0
 10
227.445
 20
82.98
 30
0.0
 11
226.646
 21
82.98
 31
0.0
  0
LINE
  8
0
 62
     0
 10
226.646
 20
82.98
 30
0.0
 11
226.646
 21
83.9791
 31
0.0
  0
LINE
  8
0
 62
     0
 10
226.646
 20
83.9791
 30
0.0
 11
212.645
 21
83.9791
 31
0.0
  0
LINE
  8
0
 62
     0
 10
193.595
 20
83.9791
 30
0.0
 11
193.595
 21
82.98
 31
0.0
  0
LINE
  8
0
 62
     0
 10
193.595
 20
82.98
 30
0.0
 11
192.796
 21
82.98
 31
0.0
  0
LINE
  8
0
 62
     0
 10
192.796
 20
82.98
 30
0.0
 11
192.796
 21
79.8795
 31
0.0
  0
LINE
  8
0
 62
     0
 10
192.796
 20
79.8795
 30
0.0
 11
193.595
 21
79.8795
 31
0.0
  0
LINE
  8
0
 62
     0
 10
193.595
 20
79.8795
 30
0.0
 11
193.595
 21
74.0791
 31
0.0
  0
LINE
  8
0
 62
     0
 10
193.595
 20
74.0791
 30
0.0
 11
192.796
 21
74.0791
 31
0.0
  0
LINE
  8
0
 62
     0
 10
192.796
 20
74.0791
 30
0.0
 11
192.796
 21
70.9799
 31
0.0
  0
LINE
  8
0
 62
     0
 10
192.796
 20
70.9799
 30
0.0
 11
193.595
 21
70.9799
 31
0.0
  0
LINE
  8
0
 62
     0
 10
193.595
 20
70.9799
 30
0.0
 11
193.595
 21
69.9795
 31
0.0
  0
LINE
  8
0
 62
     0
 10
193.595
 20
69.9795
 30
0.0
 11
207.596
 21
69.9795
 31
0.0
  0
LINE
  8
0
 62
     0
 10
207.596
 20
69.9795
 30
0.0
 11
207.596
 21
70.9799
 31
0.0
  0
LINE
  8
0
 62
     0
 10
207.596
 20
70.9799
 30
0.0
 11
208.395
 21
70.9799
 31
0.0
  0
LINE
  8
0
 62
     0
 10
208.395
 20
70.9799
 30
0.0
 11
208.395
 21
74.0791
 31
0.0
  0
LINE
  8
0
 62
     0
 10
208.395
 20
74.0791
 30
0.0
 11
207.596
 21
74.0791
 31
0.0
  0
LINE
  8
0
 62
     0
 10
207.596
 20
74.0791
 30
0.0
 11
207.596
 21
79.8795
 31
0.0
  0
LINE
  8
0
 62
     0
 10
207.596
 20
79.8795
 30
0.0
 11
208.395
 21
79.8795
 31
0.0
  0
LINE
  8
0
 62
     0
 10
208.395
 20
79.8795
 30
0.0
 11
208.395
 21
82.98
 31
0.0
  0
LINE
  8
0
 62
     0
 10
208.395
 20
82.98
 30
0.0
 11
207.596
 21
82.98
 31
0.0
  0
LINE
  8
0
 62
     0
 10
207.596
 20
82.98
 30
0.0
 11
207.596
 21
83.9791
 31
0.0
  0
LINE
  8
0
 62
     0
 10
207.596
 20
83.9791
 30
0.0
 11
193.595
 21
83.9791
 31
0.0
  0
LINE
  8
0
 62
     0
 10
174.545
 20
83.9791
 30
0.0
 11
174.545
 21
82.98
 31
0.0
  0
LINE
  8
0
 62
     0
 10
174.545
 20
82.98
 30
0.0
 11
173.746
 21
82.98
 31
0.0
  0
LINE
  8
0
 62
     0
 10
173.746
 20
82.98
 30
0.0
 11
173.746
 21
79.8795
 31
0.0
  0
LINE
  8
0
 62
     0
 10
173.746
 20
79.8795
 30
0.0
 11
174.545
 21
79.8795
 31
0.0
  0
LINE
  8
0
 62
     0
 10
174.545
 20
79.8795
 30
0.0
 11
174.545
 21
74.0791
 31
0.0
  0
LINE
  8
0
 62
     0
 10
174.545
 20
74.0791
 30
0.0
 11
173.746
 21
74.0791
 31
0.0
  0
LINE
  8
0
 62
     0
 10
173.746
 20
74.0791
 30
0.0
 11
173.746
 21
70.9799
 31
0.0
  0
LINE
  8
0
 62
     0
 10
173.746
 20
70.9799
 30
0.0
 11
174.545
 21
70.9799
 31
0.0
  0
LINE
  8
0
 62
     0
 10
174.545
 20
70.9799
 30
0.0
 11
174.545
 21
69.9795
 31
0.0
  0
LINE
  8
0
 62
     0
 10
174.545
 20
69.9795
 30
0.0
 11
188.546
 21
69.9795
 31
0.0
  0
LINE
  8
0
 62
     0
 10
188.546
 20
69.9795
 30
0.0
 11
188.546
 21
70.9799
 31
0.0
  0
LINE
  8
0
 62
     0
 10
188.546
 20
70.9799
 30
0.0
 11
189.345
 21
70.9799
 31
0.0
  0
LINE
  8
0
 62
     0
 10
189.345
 20
70.9799
 30
0.0
 11
189.345
 21
74.0791
 31
0.0
  0
LINE
  8
0
 62
     0
 10
189.345
 20
74.0791
 30
0.0
 11
188.546
 21
74.0791
 31
0.0
  0
LINE
  8
0
 62
     0
 10
188.546
 20
74.0791
 30
0.0
 11
188.546
 21
79.8795
 31
0.0
  0
LINE
  8
0
 62
     0
 10
188.546
 20
79.8795
 30
0.0
 11
189.345
 21
79.8795
 31
0.0
  0
LINE
  8
0
 62
     0
 10
189.345
 20
79.8795
 30
0.0
 11
189.345
 21
82.98
 31
0.0
  0
LINE
  8
0
 62
     0
 10
189.345
 20
82.98
 30
0.0
 11
188.546
 21
82.98
 31
0.0
  0
LINE
  8
0
 62
     0
 10
188.546
 20
82.98
 30
0.0
 11
188.546
 21
83.9791
 31
0.0
  0
LINE
  8
0
 62
     0
 10
188.546
 20
83.9791
 30
0.0
 11
174.545
 21
83.9791
 31
0.0
  0
LINE
  8
0
 62
     0
 10
155.495
 20
83.9791
 30
0.0
 11
155.495
 21
82.98
 31
0.0
  0
LINE
  8
0
 62
     0
 10
155.495
 20
82.98
 30
0.0
 11
154.696
 21
82.98
 31
0.0
  0
LINE
  8
0
 62
     0
 10
154.696
 20
82.98
 30
0.0
 11
154.696
 21
79.8795
 31
0.0
  0
LINE
  8
0
 62
     0
 10
154.696
 20
79.8795
 30
0.0
 11
155.495
 21
79.8795
 31
0.0
  0
LINE
  8
0
 62
     0
 10
155.495
 20
79.8795
 30
0.0
 11
155.495
 21
74.0791
 31
0.0
  0
LINE
  8
0
 62
     0
 10
155.495
 20
74.0791
 30
0.0
 11
154.696
 21
74.0791
 31
0.0
  0
LINE
  8
0
 62
     0
 10
154.696
 20
74.0791
 30
0.0
 11
154.696
 21
70.9799
 31
0.0
  0
LINE
  8
0
 62
     0
 10
154.696
 20
70.9799
 30
0.0
 11
155.495
 21
70.9799
 31
0.0
  0
LINE
  8
0
 62
     0
 10
155.495
 20
70.9799
 30
0.0
 11
155.495
 21
69.9795
 31
0.0
  0
LINE
  8
0
 62
     0
 10
155.495
 20
69.9795
 30
0.0
 11
169.496
 21
69.9795
 31
0.0
  0
LINE
  8
0
 62
     0
 10
169.496
 20
69.9795
 30
0.0
 11
169.496
 21
70.9799
 31
0.0
  0
LINE
  8
0
 62
     0
 10
169.496
 20
70.9799
 30
0.0
 11
170.295
 21
70.9799
 31
0.0
  0
LINE
  8
0
 62
     0
 10
170.295
 20
70.9799
 30
0.0
 11
170.295
 21
74.0791
 31
0.0
  0
LINE
  8
0
 62
     0
 10
170.295
 20
74.0791
 30
0.0
 11
169.496
 21
74.0791
 31
0.0
  0
LINE
  8
0
 62
     0
 10
169.496
 20
74.0791
 30
0.0
 11
169.496
 21
79.8795
 31
0.0
  0
LINE
  8
0
 62
     0
 10
169.496
 20
79.8795
 30
0.0
 11
170.295
 21
79.8795
 31
0.0
  0
LINE
  8
0
 62
     0
 10
170.295
 20
79.8795
 30
0.0
 11
170.295
 21
82.98
 31
0.0
  0
LINE
  8
0
 62
     0
 10
170.295
 20
82.98
 30
0.0
 11
169.496
 21
82.98
 31
0.0
  0
LINE
  8
0
 62
     0
 10
169.496
 20
82.98
 30
0.0
 11
169.496
 21
83.9791
 31
0.0
  0
LINE
  8
0
 62
     0
 10
169.496
 20
83.9791
 30
0.0
 11
155.495
 21
83.9791
 31
0.0
  0
LINE
  8
0
 62
     0
 10
136.445
 20
83.9791
 30
0.0
 11
136.445
 21
82.98
 31
0.0
  0
LINE
  8
0
 62
     0
 10
136.445
 20
82.98
 30
0.0
 11
135.646
 21
82.98
 31
0.0
  0
LINE
  8
0
 62
     0
 10
135.646
 20
82.98
 30
0.0
 11
135.646
 21
79.8795
 31
0.0
  0
LINE
  8
0
 62
     0
 10
135.646
 20
79.8795
 30
0.0
 11
136.445
 21
79.8795
 31
0.0
  0
LINE
  8
0
 62
     0
 10
136.445
 20
79.8795
 30
0.0
 11
136.445
 21
74.0791
 31
0.0
  0
LINE
  8
0
 62
     0
 10
136.445
 20
74.0791
 30
0.0
 11
135.646
 21
74.0791
 31
0.0
  0
LINE
  8
0
 62
     0
 10
135.646
 20
74.0791
 30
0.0
 11
135.646
 21
70.9799
 31
0.0
  0
LINE
  8
0
 62
     0
 10
135.646
 20
70.9799
 30
0.0
 11
136.445
 21
70.9799
 31
0.0
  0
LINE
  8
0
 62
     0
 10
136.445
 20
70.9799
 30
0.0
 11
136.445
 21
69.9795
 31
0.0
  0
LINE
  8
0
 62
     0
 10
136.445
 20
69.9795
 30
0.0
 11
150.446
 21
69.9795
 31
0.0
  0
LINE
  8
0
 62
     0
 10
150.446
 20
69.9795
 30
0.0
 11
150.446
 21
70.9799
 31
0.0
  0
LINE
  8
0
 62
     0
 10
150.446
 20
70.9799
 30
0.0
 11
151.245
 21
70.9799
 31
0.0
  0
LINE
  8
0
 62
     0
 10
151.245
 20
70.9799
 30
0.0
 11
151.245
 21
74.0791
 31
0.0
  0
LINE
  8
0
 62
     0
 10
151.245
 20
74.0791
 30
0.0
 11
150.446
 21
74.0791
 31
0.0
  0
LINE
  8
0
 62
     0
 10
150.446
 20
74.0791
 30
0.0
 11
150.446
 21
79.8795
 31
0.0
  0
LINE
  8
0
 62
     0
 10
150.446
 20
79.8795
 30
0.0
 11
151.245
 21
79.8795
 31
0.0
  0
LINE
  8
0
 62
     0
 10
151.245
 20
79.8795
 30
0.0
 11
151.245
 21
82.98
 31
0.0
  0
LINE
  8
0
 62
     0
 10
151.245
 20
82.98
 30
0.0
 11
150.446
 21
82.98
 31
0.0
  0
LINE
  8
0
 62
     0
 10
150.446
 20
82.98
 30
0.0
 11
150.446
 21
83.9791
 31
0.0
  0
LINE
  8
0
 62
     0
 10
150.446
 20
83.9791
 30
0.0
 11
136.445
 21
83.9791
 31
0.0
  0
LINE
  8
0
 62
     0
 10
117.395
 20
83.9791
 30
0.0
 11
117.395
 21
82.98
 31
0.0
  0
LINE
  8
0
 62
     0
 10
117.395
 20
82.98
 30
0.0
 11
116.596
 21
82.98
 31
0.0
  0
LINE
  8
0
 62
     0
 10
116.596
 20
82.98
 30
0.0
 11
116.596
 21
79.8795
 31
0.0
  0
LINE
  8
0
 62
     0
 10
116.596
 20
79.8795
 30
0.0
 11
117.395
 21
79.8795
 31
0.0
  0
LINE
  8
0
 62
     0
 10
117.395
 20
79.8795
 30
0.0
 11
117.395
 21
74.0791
 31
0.0
  0
LINE
  8
0
 62
     0
 10
117.395
 20
74.0791
 30
0.0
 11
116.596
 21
74.0791
 31
0.0
  0
LINE
  8
0
 62
     0
 10
116.596
 20
74.0791
 30
0.0
 11
116.596
 21
70.9799
 31
0.0
  0
LINE
  8
0
 62
     0
 10
116.596
 20
70.9799
 30
0.0
 11
117.395
 21
70.9799
 31
0.0
  0
LINE
  8
0
 62
     0
 10
117.395
 20
70.9799
 30
0.0
 11
117.395
 21
69.9795
 31
0.0
  0
LINE
  8
0
 62
     0
 10
117.395
 20
69.9795
 30
0.0
 11
131.396
 21
69.9795
 31
0.0
  0
LINE
  8
0
 62
     0
 10
131.396
 20
69.9795
 30
0.0
 11
131.396
 21
70.9799
 31
0.0
  0
LINE
  8
0
 62
     0
 10
131.396
 20
70.9799
 30
0.0
 11
132.195
 21
70.9799
 31
0.0
  0
LINE
  8
0
 62
     0
 10
132.195
 20
70.9799
 30
0.0
 11
132.195
 21
74.0791
 31
0.0
  0
LINE
  8
0
 62
     0
 10
132.195
 20
74.0791
 30
0.0
 11
131.396
 21
74.0791
 31
0.0
  0
LINE
  8
0
 62
     0
 10
131.396
 20
74.0791
 30
0.0
 11
131.396
 21
79.8795
 31
0.0
  0
LINE
  8
0
 62
     0
 10
131.396
 20
79.8795
 30
0.0
 11
132.195
 21
79.8795
 31
0.0
  0
LINE
  8
0
 62
     0
 10
132.195
 20
79.8795
 30
0.0
 11
132.195
 21
82.98
 31
0.0
  0
LINE
  8
0
 62
     0
 10
132.195
 20
82.98
 30
0.0
 11
131.396
 21
82.98
 31
0.0
  0
LINE
  8
0
 62
     0
 10
131.396
 20
82.98
 30
0.0
 11
131.396
 21
83.9791
 31
0.0
  0
LINE
  8
0
 62
     0
 10
131.396
 20
83.9791
 30
0.0
 11
117.395
 21
83.9791
 31
0.0
  0
LINE
  8
0
 62
     0
 10
98.3449
 20
83.9791
 30
0.0
 11
98.3449
 21
82.98
 31
0.0
  0
LINE
  8
0
 62
     0
 10
98.3449
 20
82.98
 30
0.0
 11
97.5459
 21
82.98
 31
0.0
  0
LINE
  8
0
 62
     0
 10
97.5459
 20
82.98
 30
0.0
 11
97.5459
 21
79.8795
 31
0.0
  0
LINE
  8
0
 62
     0
 10
97.5459
 20
79.8795
 30
0.0
 11
98.3449
 21
79.8795
 31
0.0
  0
LINE
  8
0
 62
     0
 10
98.3449
 20
79.8795
 30
0.0
 11
98.3449
 21
74.0791
 31
0.0
  0
LINE
  8
0
 62
     0
 10
98.3449
 20
74.0791
 30
0.0
 11
97.5459
 21
74.0791
 31
0.0
  0
LINE
  8
0
 62
     0
 10
97.5459
 20
74.0791
 30
0.0
 11
97.5459
 21
70.9799
 31
0.0
  0
LINE
  8
0
 62
     0
 10
97.5459
 20
70.9799
 30
0.0
 11
98.3449
 21
70.9799
 31
0.0
  0
LINE
  8
0
 62
     0
 10
98.3449
 20
70.9799
 30
0.0
 11
98.3449
 21
69.9795
 31
0.0
  0
LINE
  8
0
 62
     0
 10
98.3449
 20
69.9795
 30
0.0
 11
112.346
 21
69.9795
 31
0.0
  0
LINE
  8
0
 62
     0
 10
112.346
 20
69.9795
 30
0.0
 11
112.346
 21
70.9799
 31
0.0
  0
LINE
  8
0
 62
     0
 10
112.346
 20
70.9799
 30
0.0
 11
113.145
 21
70.9799
 31
0.0
  0
LINE
  8
0
 62
     0
 10
113.145
 20
70.9799
 30
0.0
 11
113.145
 21
74.0791
 31
0.0
  0
LINE
  8
0
 62
     0
 10
113.145
 20
74.0791
 30
0.0
 11
112.346
 21
74.0791
 31
0.0
  0
LINE
  8
0
 62
     0
 10
112.346
 20
74.0791
 30
0.0
 11
112.346
 21
79.8795
 31
0.0
  0
LINE
  8
0
 62
     0
 10
112.346
 20
79.8795
 30
0.0
 11
113.145
 21
79.8795
 31
0.0
  0
LINE
  8
0
 62
     0
 10
113.145
 20
79.8795
 30
0.0
 11
113.145
 21
82.98
 31
0.0
  0
LINE
  8
0
 62
     0
 10
113.145
 20
82.98
 30
0.0
 11
112.346
 21
82.98
 31
0.0
  0
LINE
  8
0
 62
     0
 10
112.346
 20
82.98
 30
0.0
 11
112.346
 21
83.9791
 31
0.0
  0
LINE
  8
0
 62
     0
 10
112.346
 20
83.9791
 30
0.0
 11
98.3449
 21
83.9791
 31
0.0
  0
LINE
  8
0
 62
     0
 10
79.2949
 20
83.9791
 30
0.0
 11
79.2949
 21
82.98
 31
0.0
  0
LINE
  8
0
 62
     0
 10
79.2949
 20
82.98
 30
0.0
 11
78.4959
 21
82.98
 31
0.0
  0
LINE
  8
0
 62
     0
 10
78.4959
 20
82.98
 30
0.0
 11
78.4959
 21
79.8795
 31
0.0
  0
LINE
  8
0
 62
     0
 10
78.4959
 20
79.8795
 30
0.0
 11
79.2949
 21
79.8795
 31
0.0
  0
LINE
  8
0
 62
     0
 10
79.2949
 20
79.8795
 30
0.0
 11
79.2949
 21
74.0791
 31
0.0
  0
LINE
  8
0
 62
     0
 10
79.2949
 20
74.0791
 30
0.0
 11
78.4959
 21
74.0791
 31
0.0
  0
LINE
  8
0
 62
     0
 10
78.4959
 20
74.0791
 30
0.0
 11
78.4959
 21
70.9799
 31
0.0
  0
LINE
  8
0
 62
     0
 10
78.4959
 20
70.9799
 30
0.0
 11
79.2949
 21
70.9799
 31
0.0
  0
LINE
  8
0
 62
     0
 10
79.2949
 20
70.9799
 30
0.0
 11
79.2949
 21
69.9795
 31
0.0
  0
LINE
  8
0
 62
     0
 10
79.2949
 20
69.9795
 30
0.0
 11
93.296
 21
69.9795
 31
0.0
  0
LINE
  8
0
 62
     0
 10
93.296
 20
69.9795
 30
0.0
 11
93.296
 21
70.9799
 31
0.0
  0
LINE
  8
0
 62
     0
 10
93.296
 20
70.9799
 30
0.0
 11
94.0954
 21
70.9799
 31
0.0
  0
LINE
  8
0
 62
     0
 10
94.0954
 20
70.9799
 30
0.0
 11
94.0954
 21
74.0791
 31
0.0
  0
LINE
  8
0
 62
     0
 10
94.0954
 20
74.0791
 30
0.0
 11
93.296
 21
74.0791
 31
0.0
  0
LINE
  8
0
 62
     0
 10
93.296
 20
74.0791
 30
0.0
 11
93.296
 21
79.8795
 31
0.0
  0
LINE
  8
0
 62
     0
 10
93.296
 20
79.8795
 30
0.0
 11
94.0954
 21
79.8795
 31
0.0
  0
LINE
  8
0
 62
     0
 10
94.0954
 20
79.8795
 30
0.0
 11
94.0954
 21
82.98
 31
0.0
  0
LINE
  8
0
 62
     0
 10
94.0954
 20
82.98
 30
0.0
 11
93.296
 21
82.98
 31
0.0
  0
LINE
  8
0
 62
     0
 10
93.296
 20
82.98
 30
0.0
 11
93.296
 21
83.9791
 31
0.0
  0
LINE
  8
0
 62
     0
 10
93.296
 20
83.9791
 30
0.0
 11
79.2949
 21
83.9791
 31
0.0
  0
LINE
  8
0
 62
     0
 10
60.2449
 20
83.9791
 30
0.0
 11
60.2449
 21
82.98
 31
0.0
  0
LINE
  8
0
 62
     0
 10
60.2449
 20
82.98
 30
0.0
 11
59.4445
 21
82.98
 31
0.0
  0
LINE
  8
0
 62
     0
 10
59.4445
 20
82.98
 30
0.0
 11
59.4445
 21
79.8795
 31
0.0
  0
LINE
  8
0
 62
     0
 10
59.4445
 20
79.8795
 30
0.0
 11
60.2449
 21
79.8795
 31
0.0
  0
LINE
  8
0
 62
     0
 10
60.2449
 20
79.8795
 30
0.0
 11
60.2449
 21
74.0791
 31
0.0
  0
LINE
  8
0
 62
     0
 10
60.2449
 20
74.0791
 30
0.0
 11
59.4445
 21
74.0791
 31
0.0
  0
LINE
  8
0
 62
     0
 10
59.4445
 20
74.0791
 30
0.0
 11
59.4445
 21
70.9799
 31
0.0
  0
LINE
  8
0
 62
     0
 10
59.4445
 20
70.9799
 30
0.0
 11
60.2449
 21
70.9799
 31
0.0
  0
LINE
  8
0
 62
     0
 10
60.2449
 20
70.9799
 30
0.0
 11
60.2449
 21
69.9795
 31
0.0
  0
LINE
  8
0
 62
     0
 10
60.2449
 20
69.9795
 30
0.0
 11
74.246
 21
69.9795
 31
0.0
  0
LINE
  8
0
 62
     0
 10
74.246
 20
69.9795
 30
0.0
 11
74.246
 21
70.9799
 31
0.0
  0
LINE
  8
0
 62
     0
 10
74.246
 20
70.9799
 30
0.0
 11
75.0454
 21
70.9799
 31
0.0
  0
LINE
  8
0
 62
     0
 10
75.0454
 20
70.9799
 30
0.0
 11
75.0454
 21
74.0791
 31
0.0
  0
LINE
  8
0
 62
     0
 10
75.0454
 20
74.0791
 30
0.0
 11
74.246
 21
74.0791
 31
0.0
  0
LINE
  8
0
 62
     0
 10
74.246
 20
74.0791
 30
0.0
 11
74.246
 21
79.8795
 31
0.0
  0
LINE
  8
0
 62
     0
 10
74.246
 20
79.8795
 30
0.0
 11
75.0454
 21
79.8795
 31
0.0
  0
LINE
  8
0
 62
     0
 10
75.0454
 20
79.8795
 30
0.0
 11
75.0454
 21
82.98
 31
0.0
  0
LINE
  8
0
 62
     0
 10
75.0454
 20
82.98
 30
0.0
 11
74.246
 21
82.98
 31
0.0
  0
LINE
  8
0
 62
     0
 10
74.246
 20
82.98
 30
0.0
 11
74.246
 21
83.9791
 31
0.0
  0
LINE
  8
0
 62
     0
 10
74.246
 20
83.9791
 30
0.0
 11
60.2449
 21
83.9791
 31
0.0
  0
LINE
  8
0
 62
     0
 10
41.1949
 20
83.9791
 30
0.0
 11
41.1949
 21
82.98
 31
0.0
  0
LINE
  8
0
 62
     0
 10
41.1949
 20
82.98
 30
0.0
 11
40.3959
 21
82.98
 31
0.0
  0
LINE
  8
0
 62
     0
 10
40.3959
 20
82.98
 30
0.0
 11
40.3959
 21
79.8795
 31
0.0
  0
LINE
  8
0
 62
     0
 10
40.3959
 20
79.8795
 30
0.0
 11
41.1949
 21
79.8795
 31
0.0
  0
LINE
  8
0
 62
     0
 10
41.1949
 20
79.8795
 30
0.0
 11
41.1949
 21
74.0791
 31
0.0
  0
LINE
  8
0
 62
     0
 10
41.1949
 20
74.0791
 30
0.0
 11
40.3959
 21
74.0791
 31
0.0
  0
LINE
  8
0
 62
     0
 10
40.3959
 20
74.0791
 30
0.0
 11
40.3959
 21
70.9799
 31
0.0
  0
LINE
  8
0
 62
     0
 10
40.3959
 20
70.9799
 30
0.0
 11
41.1949
 21
70.9799
 31
0.0
  0
LINE
  8
0
 62
     0
 10
41.1949
 20
70.9799
 30
0.0
 11
41.1949
 21
69.9795
 31
0.0
  0
LINE
  8
0
 62
     0
 10
41.1949
 20
69.9795
 30
0.0
 11
55.196
 21
69.9795
 31
0.0
  0
LINE
  8
0
 62
     0
 10
55.196
 20
69.9795
 30
0.0
 11
55.196
 21
70.9799
 31
0.0
  0
LINE
  8
0
 62
     0
 10
55.196
 20
70.9799
 30
0.0
 11
55.9954
 21
70.9799
 31
0.0
  0
LINE
  8
0
 62
     0
 10
55.9954
 20
70.9799
 30
0.0
 11
55.9954
 21
74.0791
 31
0.0
  0
LINE
  8
0
 62
     0
 10
55.9954
 20
74.0791
 30
0.0
 11
55.196
 21
74.0791
 31
0.0
  0
LINE
  8
0
 62
     0
 10
55.196
 20
74.0791
 30
0.0
 11
55.196
 21
79.8795
 31
0.0
  0
LINE
  8
0
 62
     0
 10
55.196
 20
79.8795
 30
0.0
 11
55.9954
 21
79.8795
 31
0.0
  0
LINE
  8
0
 62
     0
 10
55.9954
 20
79.8795
 30
0.0
 11
55.9954
 21
82.98
 31
0.0
  0
LINE
  8
0
 62
     0
 10
55.9954
 20
82.98
 30
0.0
 11
55.196
 21
82.98
 31
0.0
  0
LINE
  8
0
 62
     0
 10
55.196
 20
82.98
 30
0.0
 11
55.196
 21
83.9791
 31
0.0
  0
LINE
  8
0
 62
     0
 10
55.196
 20
83.9791
 30
0.0
 11
41.1949
 21
83.9791
 31
0.0
  0
LINE
  8
0
 62
     0
 10
17.3826
 20
83.9791
 30
0.0
 11
17.3826
 21
82.98
 31
0.0
  0
LINE
  8
0
 62
     0
 10
17.3826
 20
82.98
 30
0.0
 11
16.5819
 21
82.98
 31
0.0
  0
LINE
  8
0
 62
     0
 10
16.5819
 20
82.98
 30
0.0
 11
16.5819
 21
79.8795
 31
0.0
  0
LINE
  8
0
 62
     0
 10
16.5819
 20
79.8795
 30
0.0
 11
17.3826
 21
79.8795
 31
0.0
  0
LINE
  8
0
 62
     0
 10
17.3826
 20
79.8795
 30
0.0
 11
17.3826
 21
74.0791
 31
0.0
  0
LINE
  8
0
 62
     0
 10
17.3826
 20
74.0791
 30
0.0
 11
16.5819
 21
74.0791
 31
0.0
  0
LINE
  8
0
 62
     0
 10
16.5819
 20
74.0791
 30
0.0
 11
16.5819
 21
70.9799
 31
0.0
  0
LINE
  8
0
 62
     0
 10
16.5819
 20
70.9799
 30
0.0
 11
17.3826
 21
70.9799
 31
0.0
  0
LINE
  8
0
 62
     0
 10
17.3826
 20
70.9799
 30
0.0
 11
17.3826
 21
69.9795
 31
0.0
  0
LINE
  8
0
 62
     0
 10
17.3826
 20
69.9795
 30
0.0
 11
31.3821
 21
69.9795
 31
0.0
  0
LINE
  8
0
 62
     0
 10
31.3821
 20
69.9795
 30
0.0
 11
31.3821
 21
70.9799
 31
0.0
  0
LINE
  8
0
 62
     0
 10
31.3821
 20
70.9799
 30
0.0
 11
32.1827
 21
70.9799
 31
0.0
  0
LINE
  8
0
 62
     0
 10
32.1827
 20
70.9799
 30
0.0
 11
32.1827
 21
74.0791
 31
0.0
  0
LINE
  8
0
 62
     0
 10
32.1827
 20
74.0791
 30
0.0
 11
31.3821
 21
74.0791
 31
0.0
  0
LINE
  8
0
 62
     0
 10
31.3821
 20
74.0791
 30
0.0
 11
31.3821
 21
79.8795
 31
0.0
  0
LINE
  8
0
 62
     0
 10
31.3821
 20
79.8795
 30
0.0
 11
32.1827
 21
79.8795
 31
0.0
  0
LINE
  8
0
 62
     0
 10
32.1827
 20
79.8795
 30
0.0
 11
32.1827
 21
82.98
 31
0.0
  0
LINE
  8
0
 62
     0
 10
32.1827
 20
82.98
 30
0.0
 11
31.3821
 21
82.98
 31
0.0
  0
LINE
  8
0
 62
     0
 10
31.3821
 20
82.98
 30
0.0
 11
31.3821
 21
83.9791
 31
0.0
  0
LINE
  8
0
 62
     0
 10
31.3821
 20
83.9791
 30
0.0
 11
17.3826
 21
83.9791
 31
0.0
  0
LINE
  8
0
 62
     0
 10
269.795
 20
103.029
 30
0.0
 11
269.795
 21
102.03
 31
0.0
  0
LINE
  8
0
 62
     0
 10
269.795
 20
102.03
 30
0.0
 11
268.996
 21
102.03
 31
0.0
  0
LINE
  8
0
 62
     0
 10
268.996
 20
102.03
 30
0.0
 11
268.996
 21
98.9295
 31
0.0
  0
LINE
  8
0
 62
     0
 10
268.996
 20
98.9295
 30
0.0
 11
269.795
 21
98.9295
 31
0.0
  0
LINE
  8
0
 62
     0
 10
269.795
 20
98.9295
 30
0.0
 11
269.795
 21
98.3298
 31
0.0
  0
LINE
  8
0
 62
     0
 10
269.795
 20
98.3298
 30
0.0
 11
268.271
 21
98.3298
 31
0.0
  0
LINE
  8
0
 62
     0
 10
268.271
 20
98.3298
 30
0.0
 11
268.271
 21
101.56
 31
0.0
  0
LINE
  8
0
 62
     0
 10
268.271
 20
101.56
 30
0.0
 11
261.52
 21
101.56
 31
0.0
  0
LINE
  8
0
 62
     0
 10
261.52
 20
101.56
 30
0.0
 11
261.52
 21
98.3298
 31
0.0
  0
LINE
  8
0
 62
     0
 10
261.52
 20
98.3298
 30
0.0
 11
260.696
 21
98.3298
 31
0.0
  0
LINE
  8
0
 62
     0
 10
260.696
 20
98.3298
 30
0.0
 11
260.696
 21
95.5298
 31
0.0
  0
LINE
  8
0
 62
     0
 10
260.696
 20
95.5298
 30
0.0
 11
261.52
 21
95.5298
 31
0.0
  0
LINE
  8
0
 62
     0
 10
261.52
 20
95.5298
 30
0.0
 11
261.52
 21
89.2598
 31
0.0
  0
LINE
  8
0
 62
     0
 10
261.52
 20
89.2598
 30
0.0
 11
263.245
 21
89.2598
 31
0.0
  0
LINE
  8
0
 62
     0
 10
263.245
 20
89.2598
 30
0.0
 11
263.245
 21
88.0593
 31
0.0
  0
LINE
  8
0
 62
     0
 10
263.245
 20
88.0593
 30
0.0
 11
266.546
 21
88.0593
 31
0.0
  0
LINE
  8
0
 62
     0
 10
266.546
 20
88.0593
 30
0.0
 11
266.546
 21
89.2598
 31
0.0
  0
LINE
  8
0
 62
     0
 10
266.546
 20
89.2598
 30
0.0
 11
268.271
 21
89.2598
 31
0.0
  0
LINE
  8
0
 62
     0
 10
268.271
 20
89.2598
 30
0.0
 11
268.271
 21
93.7299
 31
0.0
  0
LINE
  8
0
 62
     0
 10
268.271
 20
93.7299
 30
0.0
 11
269.795
 21
93.7299
 31
0.0
  0
LINE
  8
0
 62
     0
 10
269.795
 20
93.7299
 30
0.0
 11
269.795
 21
93.1291
 31
0.0
  0
LINE
  8
0
 62
     0
 10
269.795
 20
93.1291
 30
0.0
 11
268.996
 21
93.1291
 31
0.0
  0
LINE
  8
0
 62
     0
 10
268.996
 20
93.1291
 30
0.0
 11
268.996
 21
90.0299
 31
0.0
  0
LINE
  8
0
 62
     0
 10
268.996
 20
90.0299
 30
0.0
 11
269.795
 21
90.0299
 31
0.0
  0
LINE
  8
0
 62
     0
 10
269.795
 20
90.0299
 30
0.0
 11
269.795
 21
89.0309
 31
0.0
  0
LINE
  8
0
 62
     0
 10
269.795
 20
89.0309
 30
0.0
 11
283.796
 21
89.0309
 31
0.0
  0
LINE
  8
0
 62
     0
 10
283.796
 20
89.0309
 30
0.0
 11
283.796
 21
90.0299
 31
0.0
  0
LINE
  8
0
 62
     0
 10
283.796
 20
90.0299
 30
0.0
 11
284.595
 21
90.0299
 31
0.0
  0
LINE
  8
0
 62
     0
 10
284.595
 20
90.0299
 30
0.0
 11
284.595
 21
93.1291
 31
0.0
  0
LINE
  8
0
 62
     0
 10
284.595
 20
93.1291
 30
0.0
 11
283.796
 21
93.1291
 31
0.0
  0
LINE
  8
0
 62
     0
 10
283.796
 20
93.1291
 30
0.0
 11
283.796
 21
93.7299
 31
0.0
  0
LINE
  8
0
 62
     0
 10
283.796
 20
93.7299
 30
0.0
 11
285.32
 21
93.7299
 31
0.0
  0
LINE
  8
0
 62
     0
 10
285.32
 20
93.7299
 30
0.0
 11
285.32
 21
89.2598
 31
0.0
  0
LINE
  8
0
 62
     0
 10
285.32
 20
89.2598
 30
0.0
 11
287.045
 21
89.2598
 31
0.0
  0
LINE
  8
0
 62
     0
 10
287.045
 20
89.2598
 30
0.0
 11
287.045
 21
88.0593
 31
0.0
  0
LINE
  8
0
 62
     0
 10
287.045
 20
88.0593
 30
0.0
 11
290.346
 21
88.0593
 31
0.0
  0
LINE
  8
0
 62
     0
 10
290.346
 20
88.0593
 30
0.0
 11
290.346
 21
89.2598
 31
0.0
  0
LINE
  8
0
 62
     0
 10
290.346
 20
89.2598
 30
0.0
 11
292.071
 21
89.2598
 31
0.0
  0
LINE
  8
0
 62
     0
 10
292.071
 20
89.2598
 30
0.0
 11
292.071
 21
95.5298
 31
0.0
  0
LINE
  8
0
 62
     0
 10
292.071
 20
95.5298
 30
0.0
 11
292.895
 21
95.5298
 31
0.0
  0
LINE
  8
0
 62
     0
 10
292.895
 20
95.5298
 30
0.0
 11
292.895
 21
98.3298
 31
0.0
  0
LINE
  8
0
 62
     0
 10
292.895
 20
98.3298
 30
0.0
 11
292.071
 21
98.3298
 31
0.0
  0
LINE
  8
0
 62
     0
 10
292.071
 20
98.3298
 30
0.0
 11
292.071
 21
101.56
 31
0.0
  0
LINE
  8
0
 62
     0
 10
292.071
 20
101.56
 30
0.0
 11
285.32
 21
101.56
 31
0.0
  0
LINE
  8
0
 62
     0
 10
285.32
 20
101.56
 30
0.0
 11
285.32
 21
98.3298
 31
0.0
  0
LINE
  8
0
 62
     0
 10
285.32
 20
98.3298
 30
0.0
 11
283.796
 21
98.3298
 31
0.0
  0
LINE
  8
0
 62
     0
 10
283.796
 20
98.3298
 30
0.0
 11
283.796
 21
98.9295
 31
0.0
  0
LINE
  8
0
 62
     0
 10
283.796
 20
98.9295
 30
0.0
 11
284.595
 21
98.9295
 31
0.0
  0
LINE
  8
0
 62
     0
 10
284.595
 20
98.9295
 30
0.0
 11
284.595
 21
102.03
 31
0.0
  0
LINE
  8
0
 62
     0
 10
284.595
 20
102.03
 30
0.0
 11
283.796
 21
102.03
 31
0.0
  0
LINE
  8
0
 62
     0
 10
283.796
 20
102.03
 30
0.0
 11
283.796
 21
103.029
 31
0.0
  0
LINE
  8
0
 62
     0
 10
283.796
 20
103.029
 30
0.0
 11
269.795
 21
103.029
 31
0.0
  0
LINE
  8
0
 62
     0
 10
341.232
 20
103.029
 30
0.0
 11
341.232
 21
102.03
 31
0.0
  0
LINE
  8
0
 62
     0
 10
341.232
 20
102.03
 30
0.0
 11
340.432
 21
102.03
 31
0.0
  0
LINE
  8
0
 62
     0
 10
340.432
 20
102.03
 30
0.0
 11
340.432
 21
98.9295
 31
0.0
  0
LINE
  8
0
 62
     0
 10
340.432
 20
98.9295
 30
0.0
 11
341.232
 21
98.9295
 31
0.0
  0
LINE
  8
0
 62
     0
 10
341.232
 20
98.9295
 30
0.0
 11
341.232
 21
93.1291
 31
0.0
  0
LINE
  8
0
 62
     0
 10
341.232
 20
93.1291
 30
0.0
 11
340.432
 21
93.1291
 31
0.0
  0
LINE
  8
0
 62
     0
 10
340.432
 20
93.1291
 30
0.0
 11
340.432
 21
90.0299
 31
0.0
  0
LINE
  8
0
 62
     0
 10
340.432
 20
90.0299
 30
0.0
 11
341.232
 21
90.0299
 31
0.0
  0
LINE
  8
0
 62
     0
 10
341.232
 20
90.0299
 30
0.0
 11
341.232
 21
89.0309
 31
0.0
  0
LINE
  8
0
 62
     0
 10
341.232
 20
89.0309
 30
0.0
 11
355.233
 21
89.0309
 31
0.0
  0
LINE
  8
0
 62
     0
 10
355.233
 20
89.0309
 30
0.0
 11
355.233
 21
90.0299
 31
0.0
  0
LINE
  8
0
 62
     0
 10
355.233
 20
90.0299
 30
0.0
 11
356.034
 21
90.0299
 31
0.0
  0
LINE
  8
0
 62
     0
 10
356.034
 20
90.0299
 30
0.0
 11
356.034
 21
93.1291
 31
0.0
  0
LINE
  8
0
 62
     0
 10
356.034
 20
93.1291
 30
0.0
 11
355.233
 21
93.1291
 31
0.0
  0
LINE
  8
0
 62
     0
 10
355.233
 20
93.1291
 30
0.0
 11
355.233
 21
98.9295
 31
0.0
  0
LINE
  8
0
 62
     0
 10
355.233
 20
98.9295
 30
0.0
 11
356.034
 21
98.9295
 31
0.0
  0
LINE
  8
0
 62
     0
 10
356.034
 20
98.9295
 30
0.0
 11
356.034
 21
102.03
 31
0.0
  0
LINE
  8
0
 62
     0
 10
356.034
 20
102.03
 30
0.0
 11
355.233
 21
102.03
 31
0.0
  0
LINE
  8
0
 62
     0
 10
355.233
 20
102.03
 30
0.0
 11
355.233
 21
103.029
 31
0.0
  0
LINE
  8
0
 62
     0
 10
355.233
 20
103.029
 30
0.0
 11
341.232
 21
103.029
 31
0.0
  0
LINE
  8
0
 62
     0
 10
322.182
 20
103.029
 30
0.0
 11
322.182
 21
102.03
 31
0.0
  0
LINE
  8
0
 62
     0
 10
322.182
 20
102.03
 30
0.0
 11
321.382
 21
102.03
 31
0.0
  0
LINE
  8
0
 62
     0
 10
321.382
 20
102.03
 30
0.0
 11
321.382
 21
98.9295
 31
0.0
  0
LINE
  8
0
 62
     0
 10
321.382
 20
98.9295
 30
0.0
 11
322.182
 21
98.9295
 31
0.0
  0
LINE
  8
0
 62
     0
 10
322.182
 20
98.9295
 30
0.0
 11
322.182
 21
93.1291
 31
0.0
  0
LINE
  8
0
 62
     0
 10
322.182
 20
93.1291
 30
0.0
 11
321.382
 21
93.1291
 31
0.0
  0
LINE
  8
0
 62
     0
 10
321.382
 20
93.1291
 30
0.0
 11
321.382
 21
90.0299
 31
0.0
  0
LINE
  8
0
 62
     0
 10
321.382
 20
90.0299
 30
0.0
 11
322.182
 21
90.0299
 31
0.0
  0
LINE
  8
0
 62
     0
 10
322.182
 20
90.0299
 30
0.0
 11
322.182
 21
89.0309
 31
0.0
  0
LINE
  8
0
 62
     0
 10
322.182
 20
89.0309
 30
0.0
 11
336.182
 21
89.0309
 31
0.0
  0
LINE
  8
0
 62
     0
 10
336.182
 20
89.0309
 30
0.0
 11
336.182
 21
90.0299
 31
0.0
  0
LINE
  8
0
 62
     0
 10
336.182
 20
90.0299
 30
0.0
 11
336.983
 21
90.0299
 31
0.0
  0
LINE
  8
0
 62
     0
 10
336.983
 20
90.0299
 30
0.0
 11
336.983
 21
93.1291
 31
0.0
  0
LINE
  8
0
 62
     0
 10
336.983
 20
93.1291
 30
0.0
 11
336.182
 21
93.1291
 31
0.0
  0
LINE
  8
0
 62
     0
 10
336.182
 20
93.1291
 30
0.0
 11
336.182
 21
98.9295
 31
0.0
  0
LINE
  8
0
 62
     0
 10
336.182
 20
98.9295
 30
0.0
 11
336.983
 21
98.9295
 31
0.0
  0
LINE
  8
0
 62
     0
 10
336.983
 20
98.9295
 30
0.0
 11
336.983
 21
102.03
 31
0.0
  0
LINE
  8
0
 62
     0
 10
336.983
 20
102.03
 30
0.0
 11
336.182
 21
102.03
 31
0.0
  0
LINE
  8
0
 62
     0
 10
336.182
 20
102.03
 30
0.0
 11
336.182
 21
103.029
 31
0.0
  0
LINE
  8
0
 62
     0
 10
336.182
 20
103.029
 30
0.0
 11
322.182
 21
103.029
 31
0.0
  0
LINE
  8
0
 62
     0
 10
303.132
 20
103.029
 30
0.0
 11
303.132
 21
102.03
 31
0.0
  0
LINE
  8
0
 62
     0
 10
303.132
 20
102.03
 30
0.0
 11
302.332
 21
102.03
 31
0.0
  0
LINE
  8
0
 62
     0
 10
302.332
 20
102.03
 30
0.0
 11
302.332
 21
98.9295
 31
0.0
  0
LINE
  8
0
 62
     0
 10
302.332
 20
98.9295
 30
0.0
 11
303.132
 21
98.9295
 31
0.0
  0
LINE
  8
0
 62
     0
 10
303.132
 20
98.9295
 30
0.0
 11
303.132
 21
93.1291
 31
0.0
  0
LINE
  8
0
 62
     0
 10
303.132
 20
93.1291
 30
0.0
 11
302.332
 21
93.1291
 31
0.0
  0
LINE
  8
0
 62
     0
 10
302.332
 20
93.1291
 30
0.0
 11
302.332
 21
90.0299
 31
0.0
  0
LINE
  8
0
 62
     0
 10
302.332
 20
90.0299
 30
0.0
 11
303.132
 21
90.0299
 31
0.0
  0
LINE
  8
0
 62
     0
 10
303.132
 20
90.0299
 30
0.0
 11
303.132
 21
89.0309
 31
0.0
  0
LINE
  8
0
 62
     0
 10
303.132
 20
89.0309
 30
0.0
 11
317.132
 21
89.0309
 31
0.0
  0
LINE
  8
0
 62
     0
 10
317.132
 20
89.0309
 30
0.0
 11
317.132
 21
90.0299
 31
0.0
  0
LINE
  8
0
 62
     0
 10
317.132
 20
90.0299
 30
0.0
 11
317.933
 21
90.0299
 31
0.0
  0
LINE
  8
0
 62
     0
 10
317.933
 20
90.0299
 30
0.0
 11
317.933
 21
93.1291
 31
0.0
  0
LINE
  8
0
 62
     0
 10
317.933
 20
93.1291
 30
0.0
 11
317.132
 21
93.1291
 31
0.0
  0
LINE
  8
0
 62
     0
 10
317.132
 20
93.1291
 30
0.0
 11
317.132
 21
98.9295
 31
0.0
  0
LINE
  8
0
 62
     0
 10
317.132
 20
98.9295
 30
0.0
 11
317.933
 21
98.9295
 31
0.0
  0
LINE
  8
0
 62
     0
 10
317.933
 20
98.9295
 30
0.0
 11
317.933
 21
102.03
 31
0.0
  0
LINE
  8
0
 62
     0
 10
317.933
 20
102.03
 30
0.0
 11
317.132
 21
102.03
 31
0.0
  0
LINE
  8
0
 62
     0
 10
317.132
 20
102.03
 30
0.0
 11
317.132
 21
103.029
 31
0.0
  0
LINE
  8
0
 62
     0
 10
317.132
 20
103.029
 30
0.0
 11
303.132
 21
103.029
 31
0.0
  0
LINE
  8
0
 62
     0
 10
241.22
 20
103.029
 30
0.0
 11
241.22
 21
102.03
 31
0.0
  0
LINE
  8
0
 62
     0
 10
241.22
 20
102.03
 30
0.0
 11
240.421
 21
102.03
 31
0.0
  0
LINE
  8
0
 62
     0
 10
240.421
 20
102.03
 30
0.0
 11
240.421
 21
98.9295
 31
0.0
  0
LINE
  8
0
 62
     0
 10
240.421
 20
98.9295
 30
0.0
 11
241.22
 21
98.9295
 31
0.0
  0
LINE
  8
0
 62
     0
 10
241.22
 20
98.9295
 30
0.0
 11
241.22
 21
93.1291
 31
0.0
  0
LINE
  8
0
 62
     0
 10
241.22
 20
93.1291
 30
0.0
 11
240.421
 21
93.1291
 31
0.0
  0
LINE
  8
0
 62
     0
 10
240.421
 20
93.1291
 30
0.0
 11
240.421
 21
90.0299
 31
0.0
  0
LINE
  8
0
 62
     0
 10
240.421
 20
90.0299
 30
0.0
 11
241.22
 21
90.0299
 31
0.0
  0
LINE
  8
0
 62
     0
 10
241.22
 20
90.0299
 30
0.0
 11
241.22
 21
89.0309
 31
0.0
  0
LINE
  8
0
 62
     0
 10
241.22
 20
89.0309
 30
0.0
 11
255.221
 21
89.0309
 31
0.0
  0
LINE
  8
0
 62
     0
 10
255.221
 20
89.0309
 30
0.0
 11
255.221
 21
90.0299
 31
0.0
  0
LINE
  8
0
 62
     0
 10
255.221
 20
90.0299
 30
0.0
 11
256.02
 21
90.0299
 31
0.0
  0
LINE
  8
0
 62
     0
 10
256.02
 20
90.0299
 30
0.0
 11
256.02
 21
93.1291
 31
0.0
  0
LINE
  8
0
 62
     0
 10
256.02
 20
93.1291
 30
0.0
 11
255.221
 21
93.1291
 31
0.0
  0
LINE
  8
0
 62
     0
 10
255.221
 20
93.1291
 30
0.0
 11
255.221
 21
98.9295
 31
0.0
  0
LINE
  8
0
 62
     0
 10
255.221
 20
98.9295
 30
0.0
 11
256.02
 21
98.9295
 31
0.0
  0
LINE
  8
0
 62
     0
 10
256.02
 20
98.9295
 30
0.0
 11
256.02
 21
102.03
 31
0.0
  0
LINE
  8
0
 62
     0
 10
256.02
 20
102.03
 30
0.0
 11
255.221
 21
102.03
 31
0.0
  0
LINE
  8
0
 62
     0
 10
255.221
 20
102.03
 30
0.0
 11
255.221
 21
103.029
 31
0.0
  0
LINE
  8
0
 62
     0
 10
255.221
 20
103.029
 30
0.0
 11
241.22
 21
103.029
 31
0.0
  0
LINE
  8
0
 62
     0
 10
222.17
 20
103.029
 30
0.0
 11
222.17
 21
102.03
 31
0.0
  0
LINE
  8
0
 62
     0
 10
222.17
 20
102.03
 30
0.0
 11
221.371
 21
102.03
 31
0.0
  0
LINE
  8
0
 62
     0
 10
221.371
 20
102.03
 30
0.0
 11
221.371
 21
98.9295
 31
0.0
  0
LINE
  8
0
 62
     0
 10
221.371
 20
98.9295
 30
0.0
 11
222.17
 21
98.9295
 31
0.0
  0
LINE
  8
0
 62
     0
 10
222.17
 20
98.9295
 30
0.0
 11
222.17
 21
93.1291
 31
0.0
  0
LINE
  8
0
 62
     0
 10
222.17
 20
93.1291
 30
0.0
 11
221.371
 21
93.1291
 31
0.0
  0
LINE
  8
0
 62
     0
 10
221.371
 20
93.1291
 30
0.0
 11
221.371
 21
90.0299
 31
0.0
  0
LINE
  8
0
 62
     0
 10
221.371
 20
90.0299
 30
0.0
 11
222.17
 21
90.0299
 31
0.0
  0
LINE
  8
0
 62
     0
 10
222.17
 20
90.0299
 30
0.0
 11
222.17
 21
89.0309
 31
0.0
  0
LINE
  8
0
 62
     0
 10
222.17
 20
89.0309
 30
0.0
 11
236.171
 21
89.0309
 31
0.0
  0
LINE
  8
0
 62
     0
 10
236.171
 20
89.0309
 30
0.0
 11
236.171
 21
90.0299
 31
0.0
  0
LINE
  8
0
 62
     0
 10
236.171
 20
90.0299
 30
0.0
 11
236.97
 21
90.0299
 31
0.0
  0
LINE
  8
0
 62
     0
 10
236.97
 20
90.0299
 30
0.0
 11
236.97
 21
93.1291
 31
0.0
  0
LINE
  8
0
 62
     0
 10
236.97
 20
93.1291
 30
0.0
 11
236.171
 21
93.1291
 31
0.0
  0
LINE
  8
0
 62
     0
 10
236.171
 20
93.1291
 30
0.0
 11
236.171
 21
98.9295
 31
0.0
  0
LINE
  8
0
 62
     0
 10
236.171
 20
98.9295
 30
0.0
 11
236.97
 21
98.9295
 31
0.0
  0
LINE
  8
0
 62
     0
 10
236.97
 20
98.9295
 30
0.0
 11
236.97
 21
102.03
 31
0.0
  0
LINE
  8
0
 62
     0
 10
236.97
 20
102.03
 30
0.0
 11
236.171
 21
102.03
 31
0.0
  0
LINE
  8
0
 62
     0
 10
236.171
 20
102.03
 30
0.0
 11
236.171
 21
103.029
 31
0.0
  0
LINE
  8
0
 62
     0
 10
236.171
 20
103.029
 30
0.0
 11
222.17
 21
103.029
 31
0.0
  0
LINE
  8
0
 62
     0
 10
203.12
 20
103.029
 30
0.0
 11
203.12
 21
102.03
 31
0.0
  0
LINE
  8
0
 62
     0
 10
203.12
 20
102.03
 30
0.0
 11
202.321
 21
102.03
 31
0.0
  0
LINE
  8
0
 62
     0
 10
202.321
 20
102.03
 30
0.0
 11
202.321
 21
98.9295
 31
0.0
  0
LINE
  8
0
 62
     0
 10
202.321
 20
98.9295
 30
0.0
 11
203.12
 21
98.9295
 31
0.0
  0
LINE
  8
0
 62
     0
 10
203.12
 20
98.9295
 30
0.0
 11
203.12
 21
93.1291
 31
0.0
  0
LINE
  8
0
 62
     0
 10
203.12
 20
93.1291
 30
0.0
 11
202.321
 21
93.1291
 31
0.0
  0
LINE
  8
0
 62
     0
 10
202.321
 20
93.1291
 30
0.0
 11
202.321
 21
90.0299
 31
0.0
  0
LINE
  8
0
 62
     0
 10
202.321
 20
90.0299
 30
0.0
 11
203.12
 21
90.0299
 31
0.0
  0
LINE
  8
0
 62
     0
 10
203.12
 20
90.0299
 30
0.0
 11
203.12
 21
89.0309
 31
0.0
  0
LINE
  8
0
 62
     0
 10
203.12
 20
89.0309
 30
0.0
 11
217.121
 21
89.0309
 31
0.0
  0
LINE
  8
0
 62
     0
 10
217.121
 20
89.0309
 30
0.0
 11
217.121
 21
90.0299
 31
0.0
  0
LINE
  8
0
 62
     0
 10
217.121
 20
90.0299
 30
0.0
 11
217.92
 21
90.0299
 31
0.0
  0
LINE
  8
0
 62
     0
 10
217.92
 20
90.0299
 30
0.0
 11
217.92
 21
93.1291
 31
0.0
  0
LINE
  8
0
 62
     0
 10
217.92
 20
93.1291
 30
0.0
 11
217.121
 21
93.1291
 31
0.0
  0
LINE
  8
0
 62
     0
 10
217.121
 20
93.1291
 30
0.0
 11
217.121
 21
98.9295
 31
0.0
  0
LINE
  8
0
 62
     0
 10
217.121
 20
98.9295
 30
0.0
 11
217.92
 21
98.9295
 31
0.0
  0
LINE
  8
0
 62
     0
 10
217.92
 20
98.9295
 30
0.0
 11
217.92
 21
102.03
 31
0.0
  0
LINE
  8
0
 62
     0
 10
217.92
 20
102.03
 30
0.0
 11
217.121
 21
102.03
 31
0.0
  0
LINE
  8
0
 62
     0
 10
217.121
 20
102.03
 30
0.0
 11
217.121
 21
103.029
 31
0.0
  0
LINE
  8
0
 62
     0
 10
217.121
 20
103.029
 30
0.0
 11
203.12
 21
103.029
 31
0.0
  0
LINE
  8
0
 62
     0
 10
184.07
 20
103.029
 30
0.0
 11
184.07
 21
102.03
 31
0.0
  0
LINE
  8
0
 62
     0
 10
184.07
 20
102.03
 30
0.0
 11
183.271
 21
102.03
 31
0.0
  0
LINE
  8
0
 62
     0
 10
183.271
 20
102.03
 30
0.0
 11
183.271
 21
98.9295
 31
0.0
  0
LINE
  8
0
 62
     0
 10
183.271
 20
98.9295
 30
0.0
 11
184.07
 21
98.9295
 31
0.0
  0
LINE
  8
0
 62
     0
 10
184.07
 20
98.9295
 30
0.0
 11
184.07
 21
93.1291
 31
0.0
  0
LINE
  8
0
 62
     0
 10
184.07
 20
93.1291
 30
0.0
 11
183.271
 21
93.1291
 31
0.0
  0
LINE
  8
0
 62
     0
 10
183.271
 20
93.1291
 30
0.0
 11
183.271
 21
90.0299
 31
0.0
  0
LINE
  8
0
 62
     0
 10
183.271
 20
90.0299
 30
0.0
 11
184.07
 21
90.0299
 31
0.0
  0
LINE
  8
0
 62
     0
 10
184.07
 20
90.0299
 30
0.0
 11
184.07
 21
89.0309
 31
0.0
  0
LINE
  8
0
 62
     0
 10
184.07
 20
89.0309
 30
0.0
 11
198.071
 21
89.0309
 31
0.0
  0
LINE
  8
0
 62
     0
 10
198.071
 20
89.0309
 30
0.0
 11
198.071
 21
90.0299
 31
0.0
  0
LINE
  8
0
 62
     0
 10
198.071
 20
90.0299
 30
0.0
 11
198.87
 21
90.0299
 31
0.0
  0
LINE
  8
0
 62
     0
 10
198.87
 20
90.0299
 30
0.0
 11
198.87
 21
93.1291
 31
0.0
  0
LINE
  8
0
 62
     0
 10
198.87
 20
93.1291
 30
0.0
 11
198.071
 21
93.1291
 31
0.0
  0
LINE
  8
0
 62
     0
 10
198.071
 20
93.1291
 30
0.0
 11
198.071
 21
98.9295
 31
0.0
  0
LINE
  8
0
 62
     0
 10
198.071
 20
98.9295
 30
0.0
 11
198.87
 21
98.9295
 31
0.0
  0
LINE
  8
0
 62
     0
 10
198.87
 20
98.9295
 30
0.0
 11
198.87
 21
102.03
 31
0.0
  0
LINE
  8
0
 62
     0
 10
198.87
 20
102.03
 30
0.0
 11
198.071
 21
102.03
 31
0.0
  0
LINE
  8
0
 62
     0
 10
198.071
 20
102.03
 30
0.0
 11
198.071
 21
103.029
 31
0.0
  0
LINE
  8
0
 62
     0
 10
198.071
 20
103.029
 30
0.0
 11
184.07
 21
103.029
 31
0.0
  0
LINE
  8
0
 62
     0
 10
165.02
 20
103.029
 30
0.0
 11
165.02
 21
102.03
 31
0.0
  0
LINE
  8
0
 62
     0
 10
165.02
 20
102.03
 30
0.0
 11
164.221
 21
102.03
 31
0.0
  0
LINE
  8
0
 62
     0
 10
164.221
 20
102.03
 30
0.0
 11
164.221
 21
98.9295
 31
0.0
  0
LINE
  8
0
 62
     0
 10
164.221
 20
98.9295
 30
0.0
 11
165.02
 21
98.9295
 31
0.0
  0
LINE
  8
0
 62
     0
 10
165.02
 20
98.9295
 30
0.0
 11
165.02
 21
93.1291
 31
0.0
  0
LINE
  8
0
 62
     0
 10
165.02
 20
93.1291
 30
0.0
 11
164.221
 21
93.1291
 31
0.0
  0
LINE
  8
0
 62
     0
 10
164.221
 20
93.1291
 30
0.0
 11
164.221
 21
90.0299
 31
0.0
  0
LINE
  8
0
 62
     0
 10
164.221
 20
90.0299
 30
0.0
 11
165.02
 21
90.0299
 31
0.0
  0
LINE
  8
0
 62
     0
 10
165.02
 20
90.0299
 30
0.0
 11
165.02
 21
89.0309
 31
0.0
  0
LINE
  8
0
 62
     0
 10
165.02
 20
89.0309
 30
0.0
 11
179.021
 21
89.0309
 31
0.0
  0
LINE
  8
0
 62
     0
 10
179.021
 20
89.0309
 30
0.0
 11
179.021
 21
90.0299
 31
0.0
  0
LINE
  8
0
 62
     0
 10
179.021
 20
90.0299
 30
0.0
 11
179.82
 21
90.0299
 31
0.0
  0
LINE
  8
0
 62
     0
 10
179.82
 20
90.0299
 30
0.0
 11
179.82
 21
93.1291
 31
0.0
  0
LINE
  8
0
 62
     0
 10
179.82
 20
93.1291
 30
0.0
 11
179.021
 21
93.1291
 31
0.0
  0
LINE
  8
0
 62
     0
 10
179.021
 20
93.1291
 30
0.0
 11
179.021
 21
98.9295
 31
0.0
  0
LINE
  8
0
 62
     0
 10
179.021
 20
98.9295
 30
0.0
 11
179.82
 21
98.9295
 31
0.0
  0
LINE
  8
0
 62
     0
 10
179.82
 20
98.9295
 30
0.0
 11
179.82
 21
102.03
 31
0.0
  0
LINE
  8
0
 62
     0
 10
179.82
 20
102.03
 30
0.0
 11
179.021
 21
102.03
 31
0.0
  0
LINE
  8
0
 62
     0
 10
179.021
 20
102.03
 30
0.0
 11
179.021
 21
103.029
 31
0.0
  0
LINE
  8
0
 62
     0
 10
179.021
 20
103.029
 30
0.0
 11
165.02
 21
103.029
 31
0.0
  0
LINE
  8
0
 62
     0
 10
145.97
 20
103.029
 30
0.0
 11
145.97
 21
102.03
 31
0.0
  0
LINE
  8
0
 62
     0
 10
145.97
 20
102.03
 30
0.0
 11
145.171
 21
102.03
 31
0.0
  0
LINE
  8
0
 62
     0
 10
145.171
 20
102.03
 30
0.0
 11
145.171
 21
98.9295
 31
0.0
  0
LINE
  8
0
 62
     0
 10
145.171
 20
98.9295
 30
0.0
 11
145.97
 21
98.9295
 31
0.0
  0
LINE
  8
0
 62
     0
 10
145.97
 20
98.9295
 30
0.0
 11
145.97
 21
93.1291
 31
0.0
  0
LINE
  8
0
 62
     0
 10
145.97
 20
93.1291
 30
0.0
 11
145.171
 21
93.1291
 31
0.0
  0
LINE
  8
0
 62
     0
 10
145.171
 20
93.1291
 30
0.0
 11
145.171
 21
90.0299
 31
0.0
  0
LINE
  8
0
 62
     0
 10
145.171
 20
90.0299
 30
0.0
 11
145.97
 21
90.0299
 31
0.0
  0
LINE
  8
0
 62
     0
 10
145.97
 20
90.0299
 30
0.0
 11
145.97
 21
89.0309
 31
0.0
  0
LINE
  8
0
 62
     0
 10
145.97
 20
89.0309
 30
0.0
 11
159.971
 21
89.0309
 31
0.0
  0
LINE
  8
0
 62
     0
 10
159.971
 20
89.0309
 30
0.0
 11
159.971
 21
90.0299
 31
0.0
  0
LINE
  8
0
 62
     0
 10
159.971
 20
90.0299
 30
0.0
 11
160.77
 21
90.0299
 31
0.0
  0
LINE
  8
0
 62
     0
 10
160.77
 20
90.0299
 30
0.0
 11
160.77
 21
93.1291
 31
0.0
  0
LINE
  8
0
 62
     0
 10
160.77
 20
93.1291
 30
0.0
 11
159.971
 21
93.1291
 31
0.0
  0
LINE
  8
0
 62
     0
 10
159.971
 20
93.1291
 30
0.0
 11
159.971
 21
98.9295
 31
0.0
  0
LINE
  8
0
 62
     0
 10
159.971
 20
98.9295
 30
0.0
 11
160.77
 21
98.9295
 31
0.0
  0
LINE
  8
0
 62
     0
 10
160.77
 20
98.9295
 30
0.0
 11
160.77
 21
102.03
 31
0.0
  0
LINE
  8
0
 62
     0
 10
160.77
 20
102.03
 30
0.0
 11
159.971
 21
102.03
 31
0.0
  0
LINE
  8
0
 62
     0
 10
159.971
 20
102.03
 30
0.0
 11
159.971
 21
103.029
 31
0.0
  0
LINE
  8
0
 62
     0
 10
159.971
 20
103.029
 30
0.0
 11
145.97
 21
103.029
 31
0.0
  0
LINE
  8
0
 62
     0
 10
126.92
 20
103.029
 30
0.0
 11
126.92
 21
102.03
 31
0.0
  0
LINE
  8
0
 62
     0
 10
126.92
 20
102.03
 30
0.0
 11
126.119
 21
102.03
 31
0.0
  0
LINE
  8
0
 62
     0
 10
126.119
 20
102.03
 30
0.0
 11
126.119
 21
98.9295
 31
0.0
  0
LINE
  8
0
 62
     0
 10
126.119
 20
98.9295
 30
0.0
 11
126.92
 21
98.9295
 31
0.0
  0
LINE
  8
0
 62
     0
 10
126.92
 20
98.9295
 30
0.0
 11
126.92
 21
93.1291
 31
0.0
  0
LINE
  8
0
 62
     0
 10
126.92
 20
93.1291
 30
0.0
 11
126.119
 21
93.1291
 31
0.0
  0
LINE
  8
0
 62
     0
 10
126.119
 20
93.1291
 30
0.0
 11
126.119
 21
90.0299
 31
0.0
  0
LINE
  8
0
 62
     0
 10
126.119
 20
90.0299
 30
0.0
 11
126.92
 21
90.0299
 31
0.0
  0
LINE
  8
0
 62
     0
 10
126.92
 20
90.0299
 30
0.0
 11
126.92
 21
89.0309
 31
0.0
  0
LINE
  8
0
 62
     0
 10
126.92
 20
89.0309
 30
0.0
 11
140.921
 21
89.0309
 31
0.0
  0
LINE
  8
0
 62
     0
 10
140.921
 20
89.0309
 30
0.0
 11
140.921
 21
90.0299
 31
0.0
  0
LINE
  8
0
 62
     0
 10
140.921
 20
90.0299
 30
0.0
 11
141.72
 21
90.0299
 31
0.0
  0
LINE
  8
0
 62
     0
 10
141.72
 20
90.0299
 30
0.0
 11
141.72
 21
93.1291
 31
0.0
  0
LINE
  8
0
 62
     0
 10
141.72
 20
93.1291
 30
0.0
 11
140.921
 21
93.1291
 31
0.0
  0
LINE
  8
0
 62
     0
 10
140.921
 20
93.1291
 30
0.0
 11
140.921
 21
98.9295
 31
0.0
  0
LINE
  8
0
 62
     0
 10
140.921
 20
98.9295
 30
0.0
 11
141.72
 21
98.9295
 31
0.0
  0
LINE
  8
0
 62
     0
 10
141.72
 20
98.9295
 30
0.0
 11
141.72
 21
102.03
 31
0.0
  0
LINE
  8
0
 62
     0
 10
141.72
 20
102.03
 30
0.0
 11
140.921
 21
102.03
 31
0.0
  0
LINE
  8
0
 62
     0
 10
140.921
 20
102.03
 30
0.0
 11
140.921
 21
103.029
 31
0.0
  0
LINE
  8
0
 62
     0
 10
140.921
 20
103.029
 30
0.0
 11
126.92
 21
103.029
 31
0.0
  0
LINE
  8
0
 62
     0
 10
107.87
 20
103.029
 30
0.0
 11
107.87
 21
102.03
 31
0.0
  0
LINE
  8
0
 62
     0
 10
107.87
 20
102.03
 30
0.0
 11
107.071
 21
102.03
 31
0.0
  0
LINE
  8
0
 62
     0
 10
107.071
 20
102.03
 30
0.0
 11
107.071
 21
98.9295
 31
0.0
  0
LINE
  8
0
 62
     0
 10
107.071
 20
98.9295
 30
0.0
 11
107.87
 21
98.9295
 31
0.0
  0
LINE
  8
0
 62
     0
 10
107.87
 20
98.9295
 30
0.0
 11
107.87
 21
93.1291
 31
0.0
  0
LINE
  8
0
 62
     0
 10
107.87
 20
93.1291
 30
0.0
 11
107.071
 21
93.1291
 31
0.0
  0
LINE
  8
0
 62
     0
 10
107.071
 20
93.1291
 30
0.0
 11
107.071
 21
90.0299
 31
0.0
  0
LINE
  8
0
 62
     0
 10
107.071
 20
90.0299
 30
0.0
 11
107.87
 21
90.0299
 31
0.0
  0
LINE
  8
0
 62
     0
 10
107.87
 20
90.0299
 30
0.0
 11
107.87
 21
89.0309
 31
0.0
  0
LINE
  8
0
 62
     0
 10
107.87
 20
89.0309
 30
0.0
 11
121.87
 21
89.0309
 31
0.0
  0
LINE
  8
0
 62
     0
 10
121.87
 20
89.0309
 30
0.0
 11
121.87
 21
90.0299
 31
0.0
  0
LINE
  8
0
 62
     0
 10
121.87
 20
90.0299
 30
0.0
 11
122.669
 21
90.0299
 31
0.0
  0
LINE
  8
0
 62
     0
 10
122.669
 20
90.0299
 30
0.0
 11
122.669
 21
93.1291
 31
0.0
  0
LINE
  8
0
 62
     0
 10
122.669
 20
93.1291
 30
0.0
 11
121.87
 21
93.1291
 31
0.0
  0
LINE
  8
0
 62
     0
 10
121.87
 20
93.1291
 30
0.0
 11
121.87
 21
98.9295
 31
0.0
  0
LINE
  8
0
 62
     0
 10
121.87
 20
98.9295
 30
0.0
 11
122.669
 21
98.9295
 31
0.0
  0
LINE
  8
0
 62
     0
 10
122.669
 20
98.9295
 30
0.0
 11
122.669
 21
102.03
 31
0.0
  0
LINE
  8
0
 62
     0
 10
122.669
 20
102.03
 30
0.0
 11
121.87
 21
102.03
 31
0.0
  0
LINE
  8
0
 62
     0
 10
121.87
 20
102.03
 30
0.0
 11
121.87
 21
103.029
 31
0.0
  0
LINE
  8
0
 62
     0
 10
121.87
 20
103.029
 30
0.0
 11
107.87
 21
103.029
 31
0.0
  0
LINE
  8
0
 62
     0
 10
88.8199
 20
103.029
 30
0.0
 11
88.8199
 21
102.03
 31
0.0
  0
LINE
  8
0
 62
     0
 10
88.8199
 20
102.03
 30
0.0
 11
88.0209
 21
102.03
 31
0.0
  0
LINE
  8
0
 62
     0
 10
88.0209
 20
102.03
 30
0.0
 11
88.0209
 21
98.9295
 31
0.0
  0
LINE
  8
0
 62
     0
 10
88.0209
 20
98.9295
 30
0.0
 11
88.8199
 21
98.9295
 31
0.0
  0
LINE
  8
0
 62
     0
 10
88.8199
 20
98.9295
 30
0.0
 11
88.8199
 21
93.1291
 31
0.0
  0
LINE
  8
0
 62
     0
 10
88.8199
 20
93.1291
 30
0.0
 11
88.0209
 21
93.1291
 31
0.0
  0
LINE
  8
0
 62
     0
 10
88.0209
 20
93.1291
 30
0.0
 11
88.0209
 21
90.0299
 31
0.0
  0
LINE
  8
0
 62
     0
 10
88.0209
 20
90.0299
 30
0.0
 11
88.8199
 21
90.0299
 31
0.0
  0
LINE
  8
0
 62
     0
 10
88.8199
 20
90.0299
 30
0.0
 11
88.8199
 21
89.0309
 31
0.0
  0
LINE
  8
0
 62
     0
 10
88.8199
 20
89.0309
 30
0.0
 11
102.821
 21
89.0309
 31
0.0
  0
LINE
  8
0
 62
     0
 10
102.821
 20
89.0309
 30
0.0
 11
102.821
 21
90.0299
 31
0.0
  0
LINE
  8
0
 62
     0
 10
102.821
 20
90.0299
 30
0.0
 11
103.619
 21
90.0299
 31
0.0
  0
LINE
  8
0
 62
     0
 10
103.619
 20
90.0299
 30
0.0
 11
103.619
 21
93.1291
 31
0.0
  0
LINE
  8
0
 62
     0
 10
103.619
 20
93.1291
 30
0.0
 11
102.821
 21
93.1291
 31
0.0
  0
LINE
  8
0
 62
     0
 10
102.821
 20
93.1291
 30
0.0
 11
102.821
 21
98.9295
 31
0.0
  0
LINE
  8
0
 62
     0
 10
102.821
 20
98.9295
 30
0.0
 11
103.619
 21
98.9295
 31
0.0
  0
LINE
  8
0
 62
     0
 10
103.619
 20
98.9295
 30
0.0
 11
103.619
 21
102.03
 31
0.0
  0
LINE
  8
0
 62
     0
 10
103.619
 20
102.03
 30
0.0
 11
102.821
 21
102.03
 31
0.0
  0
LINE
  8
0
 62
     0
 10
102.821
 20
102.03
 30
0.0
 11
102.821
 21
103.029
 31
0.0
  0
LINE
  8
0
 62
     0
 10
102.821
 20
103.029
 30
0.0
 11
88.8199
 21
103.029
 31
0.0
  0
LINE
  8
0
 62
     0
 10
69.7699
 20
103.029
 30
0.0
 11
69.7699
 21
102.03
 31
0.0
  0
LINE
  8
0
 62
     0
 10
69.7699
 20
102.03
 30
0.0
 11
68.9709
 21
102.03
 31
0.0
  0
LINE
  8
0
 62
     0
 10
68.9709
 20
102.03
 30
0.0
 11
68.9709
 21
98.9295
 31
0.0
  0
LINE
  8
0
 62
     0
 10
68.9709
 20
98.9295
 30
0.0
 11
69.7699
 21
98.9295
 31
0.0
  0
LINE
  8
0
 62
     0
 10
69.7699
 20
98.9295
 30
0.0
 11
69.7699
 21
93.1291
 31
0.0
  0
LINE
  8
0
 62
     0
 10
69.7699
 20
93.1291
 30
0.0
 11
68.9709
 21
93.1291
 31
0.0
  0
LINE
  8
0
 62
     0
 10
68.9709
 20
93.1291
 30
0.0
 11
68.9709
 21
90.0299
 31
0.0
  0
LINE
  8
0
 62
     0
 10
68.9709
 20
90.0299
 30
0.0
 11
69.7699
 21
90.0299
 31
0.0
  0
LINE
  8
0
 62
     0
 10
69.7699
 20
90.0299
 30
0.0
 11
69.7699
 21
89.0309
 31
0.0
  0
LINE
  8
0
 62
     0
 10
69.7699
 20
89.0309
 30
0.0
 11
83.771
 21
89.0309
 31
0.0
  0
LINE
  8
0
 62
     0
 10
83.771
 20
89.0309
 30
0.0
 11
83.771
 21
90.0299
 31
0.0
  0
LINE
  8
0
 62
     0
 10
83.771
 20
90.0299
 30
0.0
 11
84.5704
 21
90.0299
 31
0.0
  0
LINE
  8
0
 62
     0
 10
84.5704
 20
90.0299
 30
0.0
 11
84.5704
 21
93.1291
 31
0.0
  0
LINE
  8
0
 62
     0
 10
84.5704
 20
93.1291
 30
0.0
 11
83.771
 21
93.1291
 31
0.0
  0
LINE
  8
0
 62
     0
 10
83.771
 20
93.1291
 30
0.0
 11
83.771
 21
98.9295
 31
0.0
  0
LINE
  8
0
 62
     0
 10
83.771
 20
98.9295
 30
0.0
 11
84.5704
 21
98.9295
 31
0.0
  0
LINE
  8
0
 62
     0
 10
84.5704
 20
98.9295
 30
0.0
 11
84.5704
 21
102.03
 31
0.0
  0
LINE
  8
0
 62
     0
 10
84.5704
 20
102.03
 30
0.0
 11
83.771
 21
102.03
 31
0.0
  0
LINE
  8
0
 62
     0
 10
83.771
 20
102.03
 30
0.0
 11
83.771
 21
103.029
 31
0.0
  0
LINE
  8
0
 62
     0
 10
83.771
 20
103.029
 30
0.0
 11
69.7699
 21
103.029
 31
0.0
  0
LINE
  8
0
 62
     0
 10
50.7199
 20
103.029
 30
0.0
 11
50.7199
 21
102.03
 31
0.0
  0
LINE
  8
0
 62
     0
 10
50.7199
 20
102.03
 30
0.0
 11
49.9209
 21
102.03
 31
0.0
  0
LINE
  8
0
 62
     0
 10
49.9209
 20
102.03
 30
0.0
 11
49.9209
 21
98.9295
 31
0.0
  0
LINE
  8
0
 62
     0
 10
49.9209
 20
98.9295
 30
0.0
 11
50.7199
 21
98.9295
 31
0.0
  0
LINE
  8
0
 62
     0
 10
50.7199
 20
98.9295
 30
0.0
 11
50.7199
 21
93.1291
 31
0.0
  0
LINE
  8
0
 62
     0
 10
50.7199
 20
93.1291
 30
0.0
 11
49.9209
 21
93.1291
 31
0.0
  0
LINE
  8
0
 62
     0
 10
49.9209
 20
93.1291
 30
0.0
 11
49.9209
 21
90.0299
 31
0.0
  0
LINE
  8
0
 62
     0
 10
49.9209
 20
90.0299
 30
0.0
 11
50.7199
 21
90.0299
 31
0.0
  0
LINE
  8
0
 62
     0
 10
50.7199
 20
90.0299
 30
0.0
 11
50.7199
 21
89.0309
 31
0.0
  0
LINE
  8
0
 62
     0
 10
50.7199
 20
89.0309
 30
0.0
 11
64.721
 21
89.0309
 31
0.0
  0
LINE
  8
0
 62
     0
 10
64.721
 20
89.0309
 30
0.0
 11
64.721
 21
90.0299
 31
0.0
  0
LINE
  8
0
 62
     0
 10
64.721
 20
90.0299
 30
0.0
 11
65.5204
 21
90.0299
 31
0.0
  0
LINE
  8
0
 62
     0
 10
65.5204
 20
90.0299
 30
0.0
 11
65.5204
 21
93.1291
 31
0.0
  0
LINE
  8
0
 62
     0
 10
65.5204
 20
93.1291
 30
0.0
 11
64.721
 21
93.1291
 31
0.0
  0
LINE
  8
0
 62
     0
 10
64.721
 20
93.1291
 30
0.0
 11
64.721
 21
98.9295
 31
0.0
  0
LINE
  8
0
 62
     0
 10
64.721
 20
98.9295
 30
0.0
 11
65.5204
 21
98.9295
 31
0.0
  0
LINE
  8
0
 62
     0
 10
65.5204
 20
98.9295
 30
0.0
 11
65.5204
 21
102.03
 31
0.0
  0
LINE
  8
0
 62
     0
 10
65.5204
 20
102.03
 30
0.0
 11
64.721
 21
102.03
 31
0.0
  0
LINE
  8
0
 62
     0
 10
64.721
 20
102.03
 30
0.0
 11
64.721
 21
103.029
 31
0.0
  0
LINE
  8
0
 62
     0
 10
64.721
 20
103.029
 30
0.0
 11
50.7199
 21
103.029
 31
0.0
  0
LINE
  8
0
 62
     0
 10
31.6701
 20
103.029
 30
0.0
 11
31.6701
 21
102.03
 31
0.0
  0
LINE
  8
0
 62
     0
 10
31.6701
 20
102.03
 30
0.0
 11
30.8708
 21
102.03
 31
0.0
  0
LINE
  8
0
 62
     0
 10
30.8708
 20
102.03
 30
0.0
 11
30.8708
 21
98.9295
 31
0.0
  0
LINE
  8
0
 62
     0
 10
30.8708
 20
98.9295
 30
0.0
 11
31.6701
 21
98.9295
 31
0.0
  0
LINE
  8
0
 62
     0
 10
31.6701
 20
98.9295
 30
0.0
 11
31.6701
 21
93.1291
 31
0.0
  0
LINE
  8
0
 62
     0
 10
31.6701
 20
93.1291
 30
0.0
 11
30.8708
 21
93.1291
 31
0.0
  0
LINE
  8
0
 62
     0
 10
30.8708
 20
93.1291
 30
0.0
 11
30.8708
 21
90.0299
 31
0.0
  0
LINE
  8
0
 62
     0
 10
30.8708
 20
90.0299
 30
0.0
 11
31.6701
 21
90.0299
 31
0.0
  0
LINE
  8
0
 62
     0
 10
31.6701
 20
90.0299
 30
0.0
 11
31.6701
 21
89.0309
 31
0.0
  0
LINE
  8
0
 62
     0
 10
31.6701
 20
89.0309
 30
0.0
 11
45.671
 21
89.0309
 31
0.0
  0
LINE
  8
0
 62
     0
 10
45.671
 20
89.0309
 30
0.0
 11
45.671
 21
90.0299
 31
0.0
  0
LINE
  8
0
 62
     0
 10
45.671
 20
90.0299
 30
0.0
 11
46.4704
 21
90.0299
 31
0.0
  0
LINE
  8
0
 62
     0
 10
46.4704
 20
90.0299
 30
0.0
 11
46.4704
 21
93.1291
 31
0.0
  0
LINE
  8
0
 62
     0
 10
46.4704
 20
93.1291
 30
0.0
 11
45.671
 21
93.1291
 31
0.0
  0
LINE
  8
0
 62
     0
 10
45.671
 20
93.1291
 30
0.0
 11
45.671
 21
98.9295
 31
0.0
  0
LINE
  8
0
 62
     0
 10
45.671
 20
98.9295
 30
0.0
 11
46.4704
 21
98.9295
 31
0.0
  0
LINE
  8
0
 62
     0
 10
46.4704
 20
98.9295
 30
0.0
 11
46.4704
 21
102.03
 31
0.0
  0
LINE
  8
0
 62
     0
 10
46.4704
 20
102.03
 30
0.0
 11
45.671
 21
102.03
 31
0.0
  0
LINE
  8
0
 62
     0
 10
45.671
 20
102.03
 30
0.0
 11
45.671
 21
103.029
 31
0.0
  0
LINE
  8
0
 62
     0
 10
45.671
 20
103.029
 30
0.0
 11
31.6701
 21
103.029
 31
0.0
  0
LINE
  8
0
 62
     0
 10
12.6201
 20
103.029
 30
0.0
 11
12.6201
 21
102.03
 31
0.0
  0
LINE
  8
0
 62
     0
 10
12.6201
 20
102.03
 30
0.0
 11
11.8194
 21
102.03
 31
0.0
  0
LINE
  8
0
 62
     0
 10
11.8194
 20
102.03
 30
0.0
 11
11.8194
 21
98.9295
 31
0.0
  0
LINE
  8
0
 62
     0
 10
11.8194
 20
98.9295
 30
0.0
 11
12.6201
 21
98.9295
 31
0.0
  0
LINE
  8
0
 62
     0
 10
12.6201
 20
98.9295
 30
0.0
 11
12.6201
 21
93.1291
 31
0.0
  0
LINE
  8
0
 62
     0
 10
12.6201
 20
93.1291
 30
0.0
 11
11.8194
 21
93.1291
 31
0.0
  0
LINE
  8
0
 62
     0
 10
11.8194
 20
93.1291
 30
0.0
 11
11.8194
 21
90.0299
 31
0.0
  0
LINE
  8
0
 62
     0
 10
11.8194
 20
90.0299
 30
0.0
 11
12.6201
 21
90.0299
 31
0.0
  0
LINE
  8
0
 62
     0
 10
12.6201
 20
90.0299
 30
0.0
 11
12.6201
 21
89.0309
 31
0.0
  0
LINE
  8
0
 62
     0
 10
12.6201
 20
89.0309
 30
0.0
 11
26.6209
 21
89.0309
 31
0.0
  0
LINE
  8
0
 62
     0
 10
26.6209
 20
89.0309
 30
0.0
 11
26.6209
 21
90.0299
 31
0.0
  0
LINE
  8
0
 62
     0
 10
26.6209
 20
90.0299
 30
0.0
 11
27.4188
 21
90.0299
 31
0.0
  0
LINE
  8
0
 62
     0
 10
27.4188
 20
90.0299
 30
0.0
 11
27.4188
 21
93.1291
 31
0.0
  0
LINE
  8
0
 62
     0
 10
27.4188
 20
93.1291
 30
0.0
 11
26.6209
 21
93.1291
 31
0.0
  0
LINE
  8
0
 62
     0
 10
26.6209
 20
93.1291
 30
0.0
 11
26.6209
 21
98.9295
 31
0.0
  0
LINE
  8
0
 62
     0
 10
26.6209
 20
98.9295
 30
0.0
 11
27.4188
 21
98.9295
 31
0.0
  0
LINE
  8
0
 62
     0
 10
27.4188
 20
98.9295
 30
0.0
 11
27.4188
 21
102.03
 31
0.0
  0
LINE
  8
0
 62
     0
 10
27.4188
 20
102.03
 30
0.0
 11
26.6209
 21
102.03
 31
0.0
  0
LINE
  8
0
 62
     0
 10
26.6209
 20
102.03
 30
0.0
 11
26.6209
 21
103.029
 31
0.0
  0
LINE
  8
0
 62
     0
 10
26.6209
 20
103.029
 30
0.0
 11
12.6201
 21
103.029
 31
0.0
  0
LINE
  8
0
 62
     0
 10
341.232
 20
131.604
 30
0.0
 11
341.232
 21
130.605
 31
0.0
  0
LINE
  8
0
 62
     0
 10
341.232
 20
130.605
 30
0.0
 11
340.432
 21
130.605
 31
0.0
  0
LINE
  8
0
 62
     0
 10
340.432
 20
130.605
 30
0.0
 11
340.432
 21
127.504
 31
0.0
  0
LINE
  8
0
 62
     0
 10
340.432
 20
127.504
 30
0.0
 11
341.232
 21
127.504
 31
0.0
  0
LINE
  8
0
 62
     0
 10
341.232
 20
127.504
 30
0.0
 11
341.232
 21
121.706
 31
0.0
  0
LINE
  8
0
 62
     0
 10
341.232
 20
121.706
 30
0.0
 11
340.432
 21
121.706
 31
0.0
  0
LINE
  8
0
 62
     0
 10
340.432
 20
121.706
 30
0.0
 11
340.432
 21
118.605
 31
0.0
  0
LINE
  8
0
 62
     0
 10
340.432
 20
118.605
 30
0.0
 11
341.232
 21
118.605
 31
0.0
  0
LINE
  8
0
 62
     0
 10
341.232
 20
118.605
 30
0.0
 11
341.232
 21
117.604
 31
0.0
  0
LINE
  8
0
 62
     0
 10
341.232
 20
117.604
 30
0.0
 11
355.233
 21
117.604
 31
0.0
  0
LINE
  8
0
 62
     0
 10
355.233
 20
117.604
 30
0.0
 11
355.233
 21
118.605
 31
0.0
  0
LINE
  8
0
 62
     0
 10
355.233
 20
118.605
 30
0.0
 11
356.034
 21
118.605
 31
0.0
  0
LINE
  8
0
 62
     0
 10
356.034
 20
118.605
 30
0.0
 11
356.034
 21
121.706
 31
0.0
  0
LINE
  8
0
 62
     0
 10
356.034
 20
121.706
 30
0.0
 11
355.233
 21
121.706
 31
0.0
  0
LINE
  8
0
 62
     0
 10
355.233
 20
121.706
 30
0.0
 11
355.233
 21
127.504
 31
0.0
  0
LINE
  8
0
 62
     0
 10
355.233
 20
127.504
 30
0.0
 11
356.034
 21
127.504
 31
0.0
  0
LINE
  8
0
 62
     0
 10
356.034
 20
127.504
 30
0.0
 11
356.034
 21
130.605
 31
0.0
  0
LINE
  8
0
 62
     0
 10
356.034
 20
130.605
 30
0.0
 11
355.233
 21
130.605
 31
0.0
  0
LINE
  8
0
 62
     0
 10
355.233
 20
130.605
 30
0.0
 11
355.233
 21
131.604
 31
0.0
  0
LINE
  8
0
 62
     0
 10
355.233
 20
131.604
 30
0.0
 11
341.232
 21
131.604
 31
0.0
  0
LINE
  8
0
 62
     0
 10
322.182
 20
131.604
 30
0.0
 11
322.182
 21
130.605
 31
0.0
  0
LINE
  8
0
 62
     0
 10
322.182
 20
130.605
 30
0.0
 11
321.382
 21
130.605
 31
0.0
  0
LINE
  8
0
 62
     0
 10
321.382
 20
130.605
 30
0.0
 11
321.382
 21
127.504
 31
0.0
  0
LINE
  8
0
 62
     0
 10
321.382
 20
127.504
 30
0.0
 11
322.182
 21
127.504
 31
0.0
  0
LINE
  8
0
 62
     0
 10
322.182
 20
127.504
 30
0.0
 11
322.182
 21
121.706
 31
0.0
  0
LINE
  8
0
 62
     0
 10
322.182
 20
121.706
 30
0.0
 11
321.382
 21
121.706
 31
0.0
  0
LINE
  8
0
 62
     0
 10
321.382
 20
121.706
 30
0.0
 11
321.382
 21
118.605
 31
0.0
  0
LINE
  8
0
 62
     0
 10
321.382
 20
118.605
 30
0.0
 11
322.182
 21
118.605
 31
0.0
  0
LINE
  8
0
 62
     0
 10
322.182
 20
118.605
 30
0.0
 11
322.182
 21
117.604
 31
0.0
  0
LINE
  8
0
 62
     0
 10
322.182
 20
117.604
 30
0.0
 11
336.182
 21
117.604
 31
0.0
  0
LINE
  8
0
 62
     0
 10
336.182
 20
117.604
 30
0.0
 11
336.182
 21
118.605
 31
0.0
  0
LINE
  8
0
 62
     0
 10
336.182
 20
118.605
 30
0.0
 11
336.983
 21
118.605
 31
0.0
  0
LINE
  8
0
 62
     0
 10
336.983
 20
118.605
 30
0.0
 11
336.983
 21
121.706
 31
0.0
  0
LINE
  8
0
 62
     0
 10
336.983
 20
121.706
 30
0.0
 11
336.182
 21
121.706
 31
0.0
  0
LINE
  8
0
 62
     0
 10
336.182
 20
121.706
 30
0.0
 11
336.182
 21
127.504
 31
0.0
  0
LINE
  8
0
 62
     0
 10
336.182
 20
127.504
 30
0.0
 11
336.983
 21
127.504
 31
0.0
  0
LINE
  8
0
 62
     0
 10
336.983
 20
127.504
 30
0.0
 11
336.983
 21
130.605
 31
0.0
  0
LINE
  8
0
 62
     0
 10
336.983
 20
130.605
 30
0.0
 11
336.182
 21
130.605
 31
0.0
  0
LINE
  8
0
 62
     0
 10
336.182
 20
130.605
 30
0.0
 11
336.182
 21
131.604
 31
0.0
  0
LINE
  8
0
 62
     0
 10
336.182
 20
131.604
 30
0.0
 11
322.182
 21
131.604
 31
0.0
  0
LINE
  8
0
 62
     0
 10
303.132
 20
131.604
 30
0.0
 11
303.132
 21
130.605
 31
0.0
  0
LINE
  8
0
 62
     0
 10
303.132
 20
130.605
 30
0.0
 11
302.332
 21
130.605
 31
0.0
  0
LINE
  8
0
 62
     0
 10
302.332
 20
130.605
 30
0.0
 11
302.332
 21
127.504
 31
0.0
  0
LINE
  8
0
 62
     0
 10
302.332
 20
127.504
 30
0.0
 11
303.132
 21
127.504
 31
0.0
  0
LINE
  8
0
 62
     0
 10
303.132
 20
127.504
 30
0.0
 11
303.132
 21
121.706
 31
0.0
  0
LINE
  8
0
 62
     0
 10
303.132
 20
121.706
 30
0.0
 11
302.332
 21
121.706
 31
0.0
  0
LINE
  8
0
 62
     0
 10
302.332
 20
121.706
 30
0.0
 11
302.332
 21
118.605
 31
0.0
  0
LINE
  8
0
 62
     0
 10
302.332
 20
118.605
 30
0.0
 11
303.132
 21
118.605
 31
0.0
  0
LINE
  8
0
 62
     0
 10
303.132
 20
118.605
 30
0.0
 11
303.132
 21
117.604
 31
0.0
  0
LINE
  8
0
 62
     0
 10
303.132
 20
117.604
 30
0.0
 11
317.132
 21
117.604
 31
0.0
  0
LINE
  8
0
 62
     0
 10
317.132
 20
117.604
 30
0.0
 11
317.132
 21
118.605
 31
0.0
  0
LINE
  8
0
 62
     0
 10
317.132
 20
118.605
 30
0.0
 11
317.933
 21
118.605
 31
0.0
  0
LINE
  8
0
 62
     0
 10
317.933
 20
118.605
 30
0.0
 11
317.933
 21
121.706
 31
0.0
  0
LINE
  8
0
 62
     0
 10
317.933
 20
121.706
 30
0.0
 11
317.132
 21
121.706
 31
0.0
  0
LINE
  8
0
 62
     0
 10
317.132
 20
121.706
 30
0.0
 11
317.132
 21
127.504
 31
0.0
  0
LINE
  8
0
 62
     0
 10
317.132
 20
127.504
 30
0.0
 11
317.933
 21
127.504
 31
0.0
  0
LINE
  8
0
 62
     0
 10
317.933
 20
127.504
 30
0.0
 11
317.933
 21
130.605
 31
0.0
  0
LINE
  8
0
 62
     0
 10
317.933
 20
130.605
 30
0.0
 11
317.132
 21
130.605
 31
0.0
  0
LINE
  8
0
 62
     0
 10
317.132
 20
130.605
 30
0.0
 11
317.132
 21
131.604
 31
0.0
  0
LINE
  8
0
 62
     0
 10
317.132
 20
131.604
 30
0.0
 11
303.132
 21
131.604
 31
0.0
  0
LINE
  8
0
 62
     0
 10
279.32
 20
131.604
 30
0.0
 11
279.32
 21
130.605
 31
0.0
  0
LINE
  8
0
 62
     0
 10
279.32
 20
130.605
 30
0.0
 11
278.521
 21
130.605
 31
0.0
  0
LINE
  8
0
 62
     0
 10
278.521
 20
130.605
 30
0.0
 11
278.521
 21
127.504
 31
0.0
  0
LINE
  8
0
 62
     0
 10
278.521
 20
127.504
 30
0.0
 11
279.32
 21
127.504
 31
0.0
  0
LINE
  8
0
 62
     0
 10
279.32
 20
127.504
 30
0.0
 11
279.32
 21
121.706
 31
0.0
  0
LINE
  8
0
 62
     0
 10
279.32
 20
121.706
 30
0.0
 11
278.521
 21
121.706
 31
0.0
  0
LINE
  8
0
 62
     0
 10
278.521
 20
121.706
 30
0.0
 11
278.521
 21
118.605
 31
0.0
  0
LINE
  8
0
 62
     0
 10
278.521
 20
118.605
 30
0.0
 11
279.32
 21
118.605
 31
0.0
  0
LINE
  8
0
 62
     0
 10
279.32
 20
118.605
 30
0.0
 11
279.32
 21
117.604
 31
0.0
  0
LINE
  8
0
 62
     0
 10
279.32
 20
117.604
 30
0.0
 11
293.321
 21
117.604
 31
0.0
  0
LINE
  8
0
 62
     0
 10
293.321
 20
117.604
 30
0.0
 11
293.321
 21
118.605
 31
0.0
  0
LINE
  8
0
 62
     0
 10
293.321
 20
118.605
 30
0.0
 11
294.12
 21
118.605
 31
0.0
  0
LINE
  8
0
 62
     0
 10
294.12
 20
118.605
 30
0.0
 11
294.12
 21
121.706
 31
0.0
  0
LINE
  8
0
 62
     0
 10
294.12
 20
121.706
 30
0.0
 11
293.321
 21
121.706
 31
0.0
  0
LINE
  8
0
 62
     0
 10
293.321
 20
121.706
 30
0.0
 11
293.321
 21
127.504
 31
0.0
  0
LINE
  8
0
 62
     0
 10
293.321
 20
127.504
 30
0.0
 11
294.12
 21
127.504
 31
0.0
  0
LINE
  8
0
 62
     0
 10
294.12
 20
127.504
 30
0.0
 11
294.12
 21
130.605
 31
0.0
  0
LINE
  8
0
 62
     0
 10
294.12
 20
130.605
 30
0.0
 11
293.321
 21
130.605
 31
0.0
  0
LINE
  8
0
 62
     0
 10
293.321
 20
130.605
 30
0.0
 11
293.321
 21
131.604
 31
0.0
  0
LINE
  8
0
 62
     0
 10
293.321
 20
131.604
 30
0.0
 11
279.32
 21
131.604
 31
0.0
  0
LINE
  8
0
 62
     0
 10
260.27
 20
131.604
 30
0.0
 11
260.27
 21
130.605
 31
0.0
  0
LINE
  8
0
 62
     0
 10
260.27
 20
130.605
 30
0.0
 11
259.471
 21
130.605
 31
0.0
  0
LINE
  8
0
 62
     0
 10
259.471
 20
130.605
 30
0.0
 11
259.471
 21
127.504
 31
0.0
  0
LINE
  8
0
 62
     0
 10
259.471
 20
127.504
 30
0.0
 11
260.27
 21
127.504
 31
0.0
  0
LINE
  8
0
 62
     0
 10
260.27
 20
127.504
 30
0.0
 11
260.27
 21
121.706
 31
0.0
  0
LINE
  8
0
 62
     0
 10
260.27
 20
121.706
 30
0.0
 11
259.471
 21
121.706
 31
0.0
  0
LINE
  8
0
 62
     0
 10
259.471
 20
121.706
 30
0.0
 11
259.471
 21
118.605
 31
0.0
  0
LINE
  8
0
 62
     0
 10
259.471
 20
118.605
 30
0.0
 11
260.27
 21
118.605
 31
0.0
  0
LINE
  8
0
 62
     0
 10
260.27
 20
118.605
 30
0.0
 11
260.27
 21
117.604
 31
0.0
  0
LINE
  8
0
 62
     0
 10
260.27
 20
117.604
 30
0.0
 11
274.271
 21
117.604
 31
0.0
  0
LINE
  8
0
 62
     0
 10
274.271
 20
117.604
 30
0.0
 11
274.271
 21
118.605
 31
0.0
  0
LINE
  8
0
 62
     0
 10
274.271
 20
118.605
 30
0.0
 11
275.07
 21
118.605
 31
0.0
  0
LINE
  8
0
 62
     0
 10
275.07
 20
118.605
 30
0.0
 11
275.07
 21
121.706
 31
0.0
  0
LINE
  8
0
 62
     0
 10
275.07
 20
121.706
 30
0.0
 11
274.271
 21
121.706
 31
0.0
  0
LINE
  8
0
 62
     0
 10
274.271
 20
121.706
 30
0.0
 11
274.271
 21
127.504
 31
0.0
  0
LINE
  8
0
 62
     0
 10
274.271
 20
127.504
 30
0.0
 11
275.07
 21
127.504
 31
0.0
  0
LINE
  8
0
 62
     0
 10
275.07
 20
127.504
 30
0.0
 11
275.07
 21
130.605
 31
0.0
  0
LINE
  8
0
 62
     0
 10
275.07
 20
130.605
 30
0.0
 11
274.271
 21
130.605
 31
0.0
  0
LINE
  8
0
 62
     0
 10
274.271
 20
130.605
 30
0.0
 11
274.271
 21
131.604
 31
0.0
  0
LINE
  8
0
 62
     0
 10
274.271
 20
131.604
 30
0.0
 11
260.27
 21
131.604
 31
0.0
  0
LINE
  8
0
 62
     0
 10
241.22
 20
131.604
 30
0.0
 11
241.22
 21
130.605
 31
0.0
  0
LINE
  8
0
 62
     0
 10
241.22
 20
130.605
 30
0.0
 11
240.421
 21
130.605
 31
0.0
  0
LINE
  8
0
 62
     0
 10
240.421
 20
130.605
 30
0.0
 11
240.421
 21
127.504
 31
0.0
  0
LINE
  8
0
 62
     0
 10
240.421
 20
127.504
 30
0.0
 11
241.22
 21
127.504
 31
0.0
  0
LINE
  8
0
 62
     0
 10
241.22
 20
127.504
 30
0.0
 11
241.22
 21
121.706
 31
0.0
  0
LINE
  8
0
 62
     0
 10
241.22
 20
121.706
 30
0.0
 11
240.421
 21
121.706
 31
0.0
  0
LINE
  8
0
 62
     0
 10
240.421
 20
121.706
 30
0.0
 11
240.421
 21
118.605
 31
0.0
  0
LINE
  8
0
 62
     0
 10
240.421
 20
118.605
 30
0.0
 11
241.22
 21
118.605
 31
0.0
  0
LINE
  8
0
 62
     0
 10
241.22
 20
118.605
 30
0.0
 11
241.22
 21
117.604
 31
0.0
  0
LINE
  8
0
 62
     0
 10
241.22
 20
117.604
 30
0.0
 11
255.221
 21
117.604
 31
0.0
  0
LINE
  8
0
 62
     0
 10
255.221
 20
117.604
 30
0.0
 11
255.221
 21
118.605
 31
0.0
  0
LINE
  8
0
 62
     0
 10
255.221
 20
118.605
 30
0.0
 11
256.02
 21
118.605
 31
0.0
  0
LINE
  8
0
 62
     0
 10
256.02
 20
118.605
 30
0.0
 11
256.02
 21
121.706
 31
0.0
  0
LINE
  8
0
 62
     0
 10
256.02
 20
121.706
 30
0.0
 11
255.221
 21
121.706
 31
0.0
  0
LINE
  8
0
 62
     0
 10
255.221
 20
121.706
 30
0.0
 11
255.221
 21
127.504
 31
0.0
  0
LINE
  8
0
 62
     0
 10
255.221
 20
127.504
 30
0.0
 11
256.02
 21
127.504
 31
0.0
  0
LINE
  8
0
 62
     0
 10
256.02
 20
127.504
 30
0.0
 11
256.02
 21
130.605
 31
0.0
  0
LINE
  8
0
 62
     0
 10
256.02
 20
130.605
 30
0.0
 11
255.221
 21
130.605
 31
0.0
  0
LINE
  8
0
 62
     0
 10
255.221
 20
130.605
 30
0.0
 11
255.221
 21
131.604
 31
0.0
  0
LINE
  8
0
 62
     0
 10
255.221
 20
131.604
 30
0.0
 11
241.22
 21
131.604
 31
0.0
  0
LINE
  8
0
 62
     0
 10
222.17
 20
131.604
 30
0.0
 11
222.17
 21
130.605
 31
0.0
  0
LINE
  8
0
 62
     0
 10
222.17
 20
130.605
 30
0.0
 11
221.371
 21
130.605
 31
0.0
  0
LINE
  8
0
 62
     0
 10
221.371
 20
130.605
 30
0.0
 11
221.371
 21
127.504
 31
0.0
  0
LINE
  8
0
 62
     0
 10
221.371
 20
127.504
 30
0.0
 11
222.17
 21
127.504
 31
0.0
  0
LINE
  8
0
 62
     0
 10
222.17
 20
127.504
 30
0.0
 11
222.17
 21
121.706
 31
0.0
  0
LINE
  8
0
 62
     0
 10
222.17
 20
121.706
 30
0.0
 11
221.371
 21
121.706
 31
0.0
  0
LINE
  8
0
 62
     0
 10
221.371
 20
121.706
 30
0.0
 11
221.371
 21
118.605
 31
0.0
  0
LINE
  8
0
 62
     0
 10
221.371
 20
118.605
 30
0.0
 11
222.17
 21
118.605
 31
0.0
  0
LINE
  8
0
 62
     0
 10
222.17
 20
118.605
 30
0.0
 11
222.17
 21
117.604
 31
0.0
  0
LINE
  8
0
 62
     0
 10
222.17
 20
117.604
 30
0.0
 11
236.171
 21
117.604
 31
0.0
  0
LINE
  8
0
 62
     0
 10
236.171
 20
117.604
 30
0.0
 11
236.171
 21
118.605
 31
0.0
  0
LINE
  8
0
 62
     0
 10
236.171
 20
118.605
 30
0.0
 11
236.97
 21
118.605
 31
0.0
  0
LINE
  8
0
 62
     0
 10
236.97
 20
118.605
 30
0.0
 11
236.97
 21
121.706
 31
0.0
  0
LINE
  8
0
 62
     0
 10
236.97
 20
121.706
 30
0.0
 11
236.171
 21
121.706
 31
0.0
  0
LINE
  8
0
 62
     0
 10
236.171
 20
121.706
 30
0.0
 11
236.171
 21
127.504
 31
0.0
  0
LINE
  8
0
 62
     0
 10
236.171
 20
127.504
 30
0.0
 11
236.97
 21
127.504
 31
0.0
  0
LINE
  8
0
 62
     0
 10
236.97
 20
127.504
 30
0.0
 11
236.97
 21
130.605
 31
0.0
  0
LINE
  8
0
 62
     0
 10
236.97
 20
130.605
 30
0.0
 11
236.171
 21
130.605
 31
0.0
  0
LINE
  8
0
 62
     0
 10
236.171
 20
130.605
 30
0.0
 11
236.171
 21
131.604
 31
0.0
  0
LINE
  8
0
 62
     0
 10
236.171
 20
131.604
 30
0.0
 11
222.17
 21
131.604
 31
0.0
  0
LINE
  8
0
 62
     0
 10
193.595
 20
131.604
 30
0.0
 11
193.595
 21
130.605
 31
0.0
  0
LINE
  8
0
 62
     0
 10
193.595
 20
130.605
 30
0.0
 11
192.796
 21
130.605
 31
0.0
  0
LINE
  8
0
 62
     0
 10
192.796
 20
130.605
 30
0.0
 11
192.796
 21
127.504
 31
0.0
  0
LINE
  8
0
 62
     0
 10
192.796
 20
127.504
 30
0.0
 11
193.595
 21
127.504
 31
0.0
  0
LINE
  8
0
 62
     0
 10
193.595
 20
127.504
 30
0.0
 11
193.595
 21
121.706
 31
0.0
  0
LINE
  8
0
 62
     0
 10
193.595
 20
121.706
 30
0.0
 11
192.796
 21
121.706
 31
0.0
  0
LINE
  8
0
 62
     0
 10
192.796
 20
121.706
 30
0.0
 11
192.796
 21
118.605
 31
0.0
  0
LINE
  8
0
 62
     0
 10
192.796
 20
118.605
 30
0.0
 11
193.595
 21
118.605
 31
0.0
  0
LINE
  8
0
 62
     0
 10
193.595
 20
118.605
 30
0.0
 11
193.595
 21
117.604
 31
0.0
  0
LINE
  8
0
 62
     0
 10
193.595
 20
117.604
 30
0.0
 11
207.596
 21
117.604
 31
0.0
  0
LINE
  8
0
 62
     0
 10
207.596
 20
117.604
 30
0.0
 11
207.596
 21
118.605
 31
0.0
  0
LINE
  8
0
 62
     0
 10
207.596
 20
118.605
 30
0.0
 11
208.395
 21
118.605
 31
0.0
  0
LINE
  8
0
 62
     0
 10
208.395
 20
118.605
 30
0.0
 11
208.395
 21
121.706
 31
0.0
  0
LINE
  8
0
 62
     0
 10
208.395
 20
121.706
 30
0.0
 11
207.596
 21
121.706
 31
0.0
  0
LINE
  8
0
 62
     0
 10
207.596
 20
121.706
 30
0.0
 11
207.596
 21
127.504
 31
0.0
  0
LINE
  8
0
 62
     0
 10
207.596
 20
127.504
 30
0.0
 11
208.395
 21
127.504
 31
0.0
  0
LINE
  8
0
 62
     0
 10
208.395
 20
127.504
 30
0.0
 11
208.395
 21
130.605
 31
0.0
  0
LINE
  8
0
 62
     0
 10
208.395
 20
130.605
 30
0.0
 11
207.596
 21
130.605
 31
0.0
  0
LINE
  8
0
 62
     0
 10
207.596
 20
130.605
 30
0.0
 11
207.596
 21
131.604
 31
0.0
  0
LINE
  8
0
 62
     0
 10
207.596
 20
131.604
 30
0.0
 11
193.595
 21
131.604
 31
0.0
  0
LINE
  8
0
 62
     0
 10
174.545
 20
131.604
 30
0.0
 11
174.545
 21
130.605
 31
0.0
  0
LINE
  8
0
 62
     0
 10
174.545
 20
130.605
 30
0.0
 11
173.746
 21
130.605
 31
0.0
  0
LINE
  8
0
 62
     0
 10
173.746
 20
130.605
 30
0.0
 11
173.746
 21
127.504
 31
0.0
  0
LINE
  8
0
 62
     0
 10
173.746
 20
127.504
 30
0.0
 11
174.545
 21
127.504
 31
0.0
  0
LINE
  8
0
 62
     0
 10
174.545
 20
127.504
 30
0.0
 11
174.545
 21
121.706
 31
0.0
  0
LINE
  8
0
 62
     0
 10
174.545
 20
121.706
 30
0.0
 11
173.746
 21
121.706
 31
0.0
  0
LINE
  8
0
 62
     0
 10
173.746
 20
121.706
 30
0.0
 11
173.746
 21
118.605
 31
0.0
  0
LINE
  8
0
 62
     0
 10
173.746
 20
118.605
 30
0.0
 11
174.545
 21
118.605
 31
0.0
  0
LINE
  8
0
 62
     0
 10
174.545
 20
118.605
 30
0.0
 11
174.545
 21
117.604
 31
0.0
  0
LINE
  8
0
 62
     0
 10
174.545
 20
117.604
 30
0.0
 11
188.546
 21
117.604
 31
0.0
  0
LINE
  8
0
 62
     0
 10
188.546
 20
117.604
 30
0.0
 11
188.546
 21
118.605
 31
0.0
  0
LINE
  8
0
 62
     0
 10
188.546
 20
118.605
 30
0.0
 11
189.345
 21
118.605
 31
0.0
  0
LINE
  8
0
 62
     0
 10
189.345
 20
118.605
 30
0.0
 11
189.345
 21
121.706
 31
0.0
  0
LINE
  8
0
 62
     0
 10
189.345
 20
121.706
 30
0.0
 11
188.546
 21
121.706
 31
0.0
  0
LINE
  8
0
 62
     0
 10
188.546
 20
121.706
 30
0.0
 11
188.546
 21
127.504
 31
0.0
  0
LINE
  8
0
 62
     0
 10
188.546
 20
127.504
 30
0.0
 11
189.345
 21
127.504
 31
0.0
  0
LINE
  8
0
 62
     0
 10
189.345
 20
127.504
 30
0.0
 11
189.345
 21
130.605
 31
0.0
  0
LINE
  8
0
 62
     0
 10
189.345
 20
130.605
 30
0.0
 11
188.546
 21
130.605
 31
0.0
  0
LINE
  8
0
 62
     0
 10
188.546
 20
130.605
 30
0.0
 11
188.546
 21
131.604
 31
0.0
  0
LINE
  8
0
 62
     0
 10
188.546
 20
131.604
 30
0.0
 11
174.545
 21
131.604
 31
0.0
  0
LINE
  8
0
 62
     0
 10
155.495
 20
131.604
 30
0.0
 11
155.495
 21
130.605
 31
0.0
  0
LINE
  8
0
 62
     0
 10
155.495
 20
130.605
 30
0.0
 11
154.696
 21
130.605
 31
0.0
  0
LINE
  8
0
 62
     0
 10
154.696
 20
130.605
 30
0.0
 11
154.696
 21
127.504
 31
0.0
  0
LINE
  8
0
 62
     0
 10
154.696
 20
127.504
 30
0.0
 11
155.495
 21
127.504
 31
0.0
  0
LINE
  8
0
 62
     0
 10
155.495
 20
127.504
 30
0.0
 11
155.495
 21
121.706
 31
0.0
  0
LINE
  8
0
 62
     0
 10
155.495
 20
121.706
 30
0.0
 11
154.696
 21
121.706
 31
0.0
  0
LINE
  8
0
 62
     0
 10
154.696
 20
121.706
 30
0.0
 11
154.696
 21
118.605
 31
0.0
  0
LINE
  8
0
 62
     0
 10
154.696
 20
118.605
 30
0.0
 11
155.495
 21
118.605
 31
0.0
  0
LINE
  8
0
 62
     0
 10
155.495
 20
118.605
 30
0.0
 11
155.495
 21
117.604
 31
0.0
  0
LINE
  8
0
 62
     0
 10
155.495
 20
117.604
 30
0.0
 11
169.496
 21
117.604
 31
0.0
  0
LINE
  8
0
 62
     0
 10
169.496
 20
117.604
 30
0.0
 11
169.496
 21
118.605
 31
0.0
  0
LINE
  8
0
 62
     0
 10
169.496
 20
118.605
 30
0.0
 11
170.295
 21
118.605
 31
0.0
  0
LINE
  8
0
 62
     0
 10
170.295
 20
118.605
 30
0.0
 11
170.295
 21
121.706
 31
0.0
  0
LINE
  8
0
 62
     0
 10
170.295
 20
121.706
 30
0.0
 11
169.496
 21
121.706
 31
0.0
  0
LINE
  8
0
 62
     0
 10
169.496
 20
121.706
 30
0.0
 11
169.496
 21
127.504
 31
0.0
  0
LINE
  8
0
 62
     0
 10
169.496
 20
127.504
 30
0.0
 11
170.295
 21
127.504
 31
0.0
  0
LINE
  8
0
 62
     0
 10
170.295
 20
127.504
 30
0.0
 11
170.295
 21
130.605
 31
0.0
  0
LINE
  8
0
 62
     0
 10
170.295
 20
130.605
 30
0.0
 11
169.496
 21
130.605
 31
0.0
  0
LINE
  8
0
 62
     0
 10
169.496
 20
130.605
 30
0.0
 11
169.496
 21
131.604
 31
0.0
  0
LINE
  8
0
 62
     0
 10
169.496
 20
131.604
 30
0.0
 11
155.495
 21
131.604
 31
0.0
  0
LINE
  8
0
 62
     0
 10
136.445
 20
131.604
 30
0.0
 11
136.445
 21
130.605
 31
0.0
  0
LINE
  8
0
 62
     0
 10
136.445
 20
130.605
 30
0.0
 11
135.644
 21
130.605
 31
0.0
  0
LINE
  8
0
 62
     0
 10
135.644
 20
130.605
 30
0.0
 11
135.644
 21
127.504
 31
0.0
  0
LINE
  8
0
 62
     0
 10
135.644
 20
127.504
 30
0.0
 11
136.445
 21
127.504
 31
0.0
  0
LINE
  8
0
 62
     0
 10
136.445
 20
127.504
 30
0.0
 11
136.445
 21
121.706
 31
0.0
  0
LINE
  8
0
 62
     0
 10
136.445
 20
121.706
 30
0.0
 11
135.644
 21
121.706
 31
0.0
  0
LINE
  8
0
 62
     0
 10
135.644
 20
121.706
 30
0.0
 11
135.644
 21
118.605
 31
0.0
  0
LINE
  8
0
 62
     0
 10
135.644
 20
118.605
 30
0.0
 11
136.445
 21
118.605
 31
0.0
  0
LINE
  8
0
 62
     0
 10
136.445
 20
118.605
 30
0.0
 11
136.445
 21
117.604
 31
0.0
  0
LINE
  8
0
 62
     0
 10
136.445
 20
117.604
 30
0.0
 11
150.446
 21
117.604
 31
0.0
  0
LINE
  8
0
 62
     0
 10
150.446
 20
117.604
 30
0.0
 11
150.446
 21
118.605
 31
0.0
  0
LINE
  8
0
 62
     0
 10
150.446
 20
118.605
 30
0.0
 11
151.245
 21
118.605
 31
0.0
  0
LINE
  8
0
 62
     0
 10
151.245
 20
118.605
 30
0.0
 11
151.245
 21
121.706
 31
0.0
  0
LINE
  8
0
 62
     0
 10
151.245
 20
121.706
 30
0.0
 11
150.446
 21
121.706
 31
0.0
  0
LINE
  8
0
 62
     0
 10
150.446
 20
121.706
 30
0.0
 11
150.446
 21
127.504
 31
0.0
  0
LINE
  8
0
 62
     0
 10
150.446
 20
127.504
 30
0.0
 11
151.245
 21
127.504
 31
0.0
  0
LINE
  8
0
 62
     0
 10
151.245
 20
127.504
 30
0.0
 11
151.245
 21
130.605
 31
0.0
  0
LINE
  8
0
 62
     0
 10
151.245
 20
130.605
 30
0.0
 11
150.446
 21
130.605
 31
0.0
  0
LINE
  8
0
 62
     0
 10
150.446
 20
130.605
 30
0.0
 11
150.446
 21
131.604
 31
0.0
  0
LINE
  8
0
 62
     0
 10
150.446
 20
131.604
 30
0.0
 11
136.445
 21
131.604
 31
0.0
  0
LINE
  8
0
 62
     0
 10
107.87
 20
131.604
 30
0.0
 11
107.87
 21
130.605
 31
0.0
  0
LINE
  8
0
 62
     0
 10
107.87
 20
130.605
 30
0.0
 11
107.071
 21
130.605
 31
0.0
  0
LINE
  8
0
 62
     0
 10
107.071
 20
130.605
 30
0.0
 11
107.071
 21
127.504
 31
0.0
  0
LINE
  8
0
 62
     0
 10
107.071
 20
127.504
 30
0.0
 11
107.87
 21
127.504
 31
0.0
  0
LINE
  8
0
 62
     0
 10
107.87
 20
127.504
 30
0.0
 11
107.87
 21
121.706
 31
0.0
  0
LINE
  8
0
 62
     0
 10
107.87
 20
121.706
 30
0.0
 11
107.071
 21
121.706
 31
0.0
  0
LINE
  8
0
 62
     0
 10
107.071
 20
121.706
 30
0.0
 11
107.071
 21
118.605
 31
0.0
  0
LINE
  8
0
 62
     0
 10
107.071
 20
118.605
 30
0.0
 11
107.87
 21
118.605
 31
0.0
  0
LINE
  8
0
 62
     0
 10
107.87
 20
118.605
 30
0.0
 11
107.87
 21
117.604
 31
0.0
  0
LINE
  8
0
 62
     0
 10
107.87
 20
117.604
 30
0.0
 11
121.87
 21
117.604
 31
0.0
  0
LINE
  8
0
 62
     0
 10
121.87
 20
117.604
 30
0.0
 11
121.87
 21
118.605
 31
0.0
  0
LINE
  8
0
 62
     0
 10
121.87
 20
118.605
 30
0.0
 11
122.669
 21
118.605
 31
0.0
  0
LINE
  8
0
 62
     0
 10
122.669
 20
118.605
 30
0.0
 11
122.669
 21
121.706
 31
0.0
  0
LINE
  8
0
 62
     0
 10
122.669
 20
121.706
 30
0.0
 11
121.87
 21
121.706
 31
0.0
  0
LINE
  8
0
 62
     0
 10
121.87
 20
121.706
 30
0.0
 11
121.87
 21
127.504
 31
0.0
  0
LINE
  8
0
 62
     0
 10
121.87
 20
127.504
 30
0.0
 11
122.669
 21
127.504
 31
0.0
  0
LINE
  8
0
 62
     0
 10
122.669
 20
127.504
 30
0.0
 11
122.669
 21
130.605
 31
0.0
  0
LINE
  8
0
 62
     0
 10
122.669
 20
130.605
 30
0.0
 11
121.87
 21
130.605
 31
0.0
  0
LINE
  8
0
 62
     0
 10
121.87
 20
130.605
 30
0.0
 11
121.87
 21
131.604
 31
0.0
  0
LINE
  8
0
 62
     0
 10
121.87
 20
131.604
 30
0.0
 11
107.87
 21
131.604
 31
0.0
  0
LINE
  8
0
 62
     0
 10
88.8199
 20
131.604
 30
0.0
 11
88.8199
 21
130.605
 31
0.0
  0
LINE
  8
0
 62
     0
 10
88.8199
 20
130.605
 30
0.0
 11
88.0209
 21
130.605
 31
0.0
  0
LINE
  8
0
 62
     0
 10
88.0209
 20
130.605
 30
0.0
 11
88.0209
 21
127.504
 31
0.0
  0
LINE
  8
0
 62
     0
 10
88.0209
 20
127.504
 30
0.0
 11
88.8199
 21
127.504
 31
0.0
  0
LINE
  8
0
 62
     0
 10
88.8199
 20
127.504
 30
0.0
 11
88.8199
 21
121.706
 31
0.0
  0
LINE
  8
0
 62
     0
 10
88.8199
 20
121.706
 30
0.0
 11
88.0209
 21
121.706
 31
0.0
  0
LINE
  8
0
 62
     0
 10
88.0209
 20
121.706
 30
0.0
 11
88.0209
 21
118.605
 31
0.0
  0
LINE
  8
0
 62
     0
 10
88.0209
 20
118.605
 30
0.0
 11
88.8199
 21
118.605
 31
0.0
  0
LINE
  8
0
 62
     0
 10
88.8199
 20
118.605
 30
0.0
 11
88.8199
 21
117.604
 31
0.0
  0
LINE
  8
0
 62
     0
 10
88.8199
 20
117.604
 30
0.0
 11
102.821
 21
117.604
 31
0.0
  0
LINE
  8
0
 62
     0
 10
102.821
 20
117.604
 30
0.0
 11
102.821
 21
118.605
 31
0.0
  0
LINE
  8
0
 62
     0
 10
102.821
 20
118.605
 30
0.0
 11
103.619
 21
118.605
 31
0.0
  0
LINE
  8
0
 62
     0
 10
103.619
 20
118.605
 30
0.0
 11
103.619
 21
121.706
 31
0.0
  0
LINE
  8
0
 62
     0
 10
103.619
 20
121.706
 30
0.0
 11
102.821
 21
121.706
 31
0.0
  0
LINE
  8
0
 62
     0
 10
102.821
 20
121.706
 30
0.0
 11
102.821
 21
127.504
 31
0.0
  0
LINE
  8
0
 62
     0
 10
102.821
 20
127.504
 30
0.0
 11
103.619
 21
127.504
 31
0.0
  0
LINE
  8
0
 62
     0
 10
103.619
 20
127.504
 30
0.0
 11
103.619
 21
130.605
 31
0.0
  0
LINE
  8
0
 62
     0
 10
103.619
 20
130.605
 30
0.0
 11
102.821
 21
130.605
 31
0.0
  0
LINE
  8
0
 62
     0
 10
102.821
 20
130.605
 30
0.0
 11
102.821
 21
131.604
 31
0.0
  0
LINE
  8
0
 62
     0
 10
102.821
 20
131.604
 30
0.0
 11
88.8199
 21
131.604
 31
0.0
  0
LINE
  8
0
 62
     0
 10
69.7699
 20
131.604
 30
0.0
 11
69.7699
 21
130.605
 31
0.0
  0
LINE
  8
0
 62
     0
 10
69.7699
 20
130.605
 30
0.0
 11
68.9709
 21
130.605
 31
0.0
  0
LINE
  8
0
 62
     0
 10
68.9709
 20
130.605
 30
0.0
 11
68.9709
 21
127.504
 31
0.0
  0
LINE
  8
0
 62
     0
 10
68.9709
 20
127.504
 30
0.0
 11
69.7699
 21
127.504
 31
0.0
  0
LINE
  8
0
 62
     0
 10
69.7699
 20
127.504
 30
0.0
 11
69.7699
 21
121.706
 31
0.0
  0
LINE
  8
0
 62
     0
 10
69.7699
 20
121.706
 30
0.0
 11
68.9709
 21
121.706
 31
0.0
  0
LINE
  8
0
 62
     0
 10
68.9709
 20
121.706
 30
0.0
 11
68.9709
 21
118.605
 31
0.0
  0
LINE
  8
0
 62
     0
 10
68.9709
 20
118.605
 30
0.0
 11
69.7699
 21
118.605
 31
0.0
  0
LINE
  8
0
 62
     0
 10
69.7699
 20
118.605
 30
0.0
 11
69.7699
 21
117.604
 31
0.0
  0
LINE
  8
0
 62
     0
 10
69.7699
 20
117.604
 30
0.0
 11
83.771
 21
117.604
 31
0.0
  0
LINE
  8
0
 62
     0
 10
83.771
 20
117.604
 30
0.0
 11
83.771
 21
118.605
 31
0.0
  0
LINE
  8
0
 62
     0
 10
83.771
 20
118.605
 30
0.0
 11
84.5704
 21
118.605
 31
0.0
  0
LINE
  8
0
 62
     0
 10
84.5704
 20
118.605
 30
0.0
 11
84.5704
 21
121.706
 31
0.0
  0
LINE
  8
0
 62
     0
 10
84.5704
 20
121.706
 30
0.0
 11
83.771
 21
121.706
 31
0.0
  0
LINE
  8
0
 62
     0
 10
83.771
 20
121.706
 30
0.0
 11
83.771
 21
127.504
 31
0.0
  0
LINE
  8
0
 62
     0
 10
83.771
 20
127.504
 30
0.0
 11
84.5704
 21
127.504
 31
0.0
  0
LINE
  8
0
 62
     0
 10
84.5704
 20
127.504
 30
0.0
 11
84.5704
 21
130.605
 31
0.0
  0
LINE
  8
0
 62
     0
 10
84.5704
 20
130.605
 30
0.0
 11
83.771
 21
130.605
 31
0.0
  0
LINE
  8
0
 62
     0
 10
83.771
 20
130.605
 30
0.0
 11
83.771
 21
131.604
 31
0.0
  0
LINE
  8
0
 62
     0
 10
83.771
 20
131.604
 30
0.0
 11
69.7699
 21
131.604
 31
0.0
  0
LINE
  8
0
 62
     0
 10
50.7199
 20
131.604
 30
0.0
 11
50.7199
 21
130.605
 31
0.0
  0
LINE
  8
0
 62
     0
 10
50.7199
 20
130.605
 30
0.0
 11
49.9209
 21
130.605
 31
0.0
  0
LINE
  8
0
 62
     0
 10
49.9209
 20
130.605
 30
0.0
 11
49.9209
 21
127.504
 31
0.0
  0
LINE
  8
0
 62
     0
 10
49.9209
 20
127.504
 30
0.0
 11
50.7199
 21
127.504
 31
0.0
  0
LINE
  8
0
 62
     0
 10
50.7199
 20
127.504
 30
0.0
 11
50.7199
 21
121.706
 31
0.0
  0
LINE
  8
0
 62
     0
 10
50.7199
 20
121.706
 30
0.0
 11
49.9209
 21
121.706
 31
0.0
  0
LINE
  8
0
 62
     0
 10
49.9209
 20
121.706
 30
0.0
 11
49.9209
 21
118.605
 31
0.0
  0
LINE
  8
0
 62
     0
 10
49.9209
 20
118.605
 30
0.0
 11
50.7199
 21
118.605
 31
0.0
  0
LINE
  8
0
 62
     0
 10
50.7199
 20
118.605
 30
0.0
 11
50.7199
 21
117.604
 31
0.0
  0
LINE
  8
0
 62
     0
 10
50.7199
 20
117.604
 30
0.0
 11
64.721
 21
117.604
 31
0.0
  0
LINE
  8
0
 62
     0
 10
64.721
 20
117.604
 30
0.0
 11
64.721
 21
118.605
 31
0.0
  0
LINE
  8
0
 62
     0
 10
64.721
 20
118.605
 30
0.0
 11
65.5204
 21
118.605
 31
0.0
  0
LINE
  8
0
 62
     0
 10
65.5204
 20
118.605
 30
0.0
 11
65.5204
 21
121.706
 31
0.0
  0
LINE
  8
0
 62
     0
 10
65.5204
 20
121.706
 30
0.0
 11
64.721
 21
121.706
 31
0.0
  0
LINE
  8
0
 62
     0
 10
64.721
 20
121.706
 30
0.0
 11
64.721
 21
127.504
 31
0.0
  0
LINE
  8
0
 62
     0
 10
64.721
 20
127.504
 30
0.0
 11
65.5204
 21
127.504
 31
0.0
  0
LINE
  8
0
 62
     0
 10
65.5204
 20
127.504
 30
0.0
 11
65.5204
 21
130.605
 31
0.0
  0
LINE
  8
0
 62
     0
 10
65.5204
 20
130.605
 30
0.0
 11
64.721
 21
130.605
 31
0.0
  0
LINE
  8
0
 62
     0
 10
64.721
 20
130.605
 30
0.0
 11
64.721
 21
131.604
 31
0.0
  0
LINE
  8
0
 62
     0
 10
64.721
 20
131.604
 30
0.0
 11
50.7199
 21
131.604
 31
0.0
  0
LINE
  8
0
 62
     0
 10
12.6201
 20
131.604
 30
0.0
 11
12.6201
 21
130.605
 31
0.0
  0
LINE
  8
0
 62
     0
 10
12.6201
 20
130.605
 30
0.0
 11
11.8194
 21
130.605
 31
0.0
  0
LINE
  8
0
 62
     0
 10
11.8194
 20
130.605
 30
0.0
 11
11.8194
 21
127.504
 31
0.0
  0
LINE
  8
0
 62
     0
 10
11.8194
 20
127.504
 30
0.0
 11
12.6201
 21
127.504
 31
0.0
  0
LINE
  8
0
 62
     0
 10
12.6201
 20
127.504
 30
0.0
 11
12.6201
 21
121.706
 31
0.0
  0
LINE
  8
0
 62
     0
 10
12.6201
 20
121.706
 30
0.0
 11
11.8194
 21
121.706
 31
0.0
  0
LINE
  8
0
 62
     0
 10
11.8194
 20
121.706
 30
0.0
 11
11.8194
 21
118.605
 31
0.0
  0
LINE
  8
0
 62
     0
 10
11.8194
 20
118.605
 30
0.0
 11
12.6201
 21
118.605
 31
0.0
  0
LINE
  8
0
 62
     0
 10
12.6201
 20
118.605
 30
0.0
 11
12.6201
 21
117.604
 31
0.0
  0
LINE
  8
0
 62
     0
 10
12.6201
 20
117.604
 30
0.0
 11
26.6209
 21
117.604
 31
0.0
  0
LINE
  8
0
 62
     0
 10
26.6209
 20
117.604
 30
0.0
 11
26.6209
 21
118.605
 31
0.0
  0
LINE
  8
0
 62
     0
 10
26.6209
 20
118.605
 30
0.0
 11
27.4188
 21
118.605
 31
0.0
  0
LINE
  8
0
 62
     0
 10
27.4188
 20
118.605
 30
0.0
 11
27.4188
 21
121.706
 31
0.0
  0
LINE
  8
0
 62
     0
 10
27.4188
 20
121.706
 30
0.0
 11
26.6209
 21
121.706
 31
0.0
  0
LINE
  8
0
 62
     0
 10
26.6209
 20
121.706
 30
0.0
 11
26.6209
 21
127.504
 31
0.0
  0
LINE
  8
0
 62
     0
 10
26.6209
 20
127.504
 30
0.0
 11
27.4188
 21
127.504
 31
0.0
  0
LINE
  8
0
 62
     0
 10
27.4188
 20
127.504
 30
0.0
 11
27.4188
 21
130.605
 31
0.0
  0
LINE
  8
0
 62
     0
 10
27.4188
 20
130.605
 30
0.0
 11
26.6209
 21
130.605
 31
0.0
  0
LINE
  8
0
 62
     0
 10
26.6209
 20
130.605
 30
0.0
 11
26.6209
 21
131.604
 31
0.0
  0
LINE
  8
0
 62
     0
 10
26.6209
 20
131.604
 30
0.0
 11
12.6201
 21
131.604
 31
0.0
  0
LINE
  8
0
 62
     0
 10
4.63158
 20
145.557
 30
0.0
 11
4.21404
 21
145.343
 31
0.0
  0
LINE
  8
0
 62
     0
 10
4.21404
 20
145.343
 30
0.0
 11
3.88193
 21
145.011
 31
0.0
  0
LINE
  8
0
 62
     0
 10
3.88193
 20
145.011
 30
0.0
 11
3.66832
 21
144.593
 31
0.0
  0
LINE
  8
0
 62
     0
 10
3.66832
 20
144.593
 30
0.0
 11
3.59392
 21
144.129
 31
0.0
  0
LINE
  8
0
 62
     0
 10
3.59392
 20
144.129
 30
0.0
 11
3.66832
 21
143.666
 31
0.0
  0
LINE
  8
0
 62
     0
 10
3.66832
 20
143.666
 30
0.0
 11
3.88193
 21
143.249
 31
0.0
  0
LINE
  8
0
 62
     0
 10
3.88193
 20
143.249
 30
0.0
 11
4.21404
 21
142.916
 31
0.0
  0
LINE
  8
0
 62
     0
 10
4.21404
 20
142.916
 30
0.0
 11
4.63158
 21
142.704
 31
0.0
  0
LINE
  8
0
 62
     0
 10
4.63158
 20
142.704
 30
0.0
 11
5.0946
 21
142.63
 31
0.0
  0
LINE
  8
0
 62
     0
 10
5.0946
 20
142.63
 30
0.0
 11
5.559
 21
142.704
 31
0.0
  0
LINE
  8
0
 62
     0
 10
5.559
 20
142.704
 30
0.0
 11
5.97655
 21
142.916
 31
0.0
  0
LINE
  8
0
 62
     0
 10
5.97655
 20
142.916
 30
0.0
 11
6.30865
 21
143.249
 31
0.0
  0
LINE
  8
0
 62
     0
 10
6.30865
 20
143.249
 30
0.0
 11
6.52089
 21
143.666
 31
0.0
  0
LINE
  8
0
 62
     0
 10
6.52089
 20
143.666
 30
0.0
 11
6.59391
 21
144.129
 31
0.0
  0
LINE
  8
0
 62
     0
 10
6.59391
 20
144.129
 30
0.0
 11
6.52089
 21
144.593
 31
0.0
  0
LINE
  8
0
 62
     0
 10
6.52089
 20
144.593
 30
0.0
 11
6.30865
 21
145.011
 31
0.0
  0
LINE
  8
0
 62
     0
 10
6.30865
 20
145.011
 30
0.0
 11
5.97655
 21
145.343
 31
0.0
  0
LINE
  8
0
 62
     0
 10
5.97655
 20
145.343
 30
0.0
 11
5.559
 21
145.557
 31
0.0
  0
LINE
  8
0
 62
     0
 10
5.559
 20
145.557
 30
0.0
 11
5.0946
 21
145.63
 31
0.0
  0
LINE
  8
0
 62
     0
 10
5.0946
 20
145.63
 30
0.0
 11
4.63158
 21
145.557
 31
0.0
  0
LINE
  8
0
 62
     0
 10
362.296
 20
145.557
 30
0.0
 11
361.876
 21
145.343
 31
0.0
  0
LINE
  8
0
 62
     0
 10
361.876
 20
145.343
 30
0.0
 11
361.544
 21
145.011
 31
0.0
  0
LINE
  8
0
 62
     0
 10
361.544
 20
145.011
 30
0.0
 11
361.333
 21
144.593
 31
0.0
  0
LINE
  8
0
 62
     0
 10
361.333
 20
144.593
 30
0.0
 11
361.259
 21
144.129
 31
0.0
  0
LINE
  8
0
 62
     0
 10
361.259
 20
144.129
 30
0.0
 11
361.333
 21
143.666
 31
0.0
  0
LINE
  8
0
 62
     0
 10
361.333
 20
143.666
 30
0.0
 11
361.544
 21
143.249
 31
0.0
  0
LINE
  8
0
 62
     0
 10
361.544
 20
143.249
 30
0.0
 11
361.876
 21
142.916
 31
0.0
  0
LINE
  8
0
 62
     0
 10
361.876
 20
142.916
 30
0.0
 11
362.296
 21
142.704
 31
0.0
  0
LINE
  8
0
 62
     0
 10
362.296
 20
142.704
 30
0.0
 11
362.758
 21
142.63
 31
0.0
  0
LINE
  8
0
 62
     0
 10
362.758
 20
142.63
 30
0.0
 11
363.224
 21
142.704
 31
0.0
  0
LINE
  8
0
 62
     0
 10
363.224
 20
142.704
 30
0.0
 11
363.64
 21
142.916
 31
0.0
  0
LINE
  8
0
 62
     0
 10
363.64
 20
142.916
 30
0.0
 11
363.971
 21
143.249
 31
0.0
  0
LINE
  8
0
 62
     0
 10
363.971
 20
143.249
 30
0.0
 11
364.187
 21
143.666
 31
0.0
  0
LINE
  8
0
 62
     0
 10
364.187
 20
143.666
 30
0.0
 11
364.257
 21
144.129
 31
0.0
  0
LINE
  8
0
 62
     0
 10
364.257
 20
144.129
 30
0.0
 11
364.187
 21
144.593
 31
0.0
  0
LINE
  8
0
 62
     0
 10
364.187
 20
144.593
 30
0.0
 11
363.971
 21
145.011
 31
0.0
  0
LINE
  8
0
 62
     0
 10
363.971
 20
145.011
 30
0.0
 11
363.64
 21
145.343
 31
0.0
  0
LINE
  8
0
 62
     0
 10
363.64
 20
145.343
 30
0.0
 11
363.224
 21
145.557
 31
0.0
  0
LINE
  8
0
 62
     0
 10
363.224
 20
145.557
 30
0.0
 11
362.758
 21
145.63
 31
0.0
  0
LINE
  8
0
 62
     0
 10
362.758
 20
145.63
 30
0.0
 11
362.296
 21
145.557
 31
0.0
  0
LINE
  8
0
 62
     0
 10
243.073
 20
145.557
 30
0.0
 11
242.656
 21
145.343
 31
0.0
  0
LINE
  8
0
 62
     0
 10
242.656
 20
145.343
 30
0.0
 11
242.324
 21
145.011
 31
0.0
  0
LINE
  8
0
 62
     0
 10
242.324
 20
145.011
 30
0.0
 11
242.11
 21
144.593
 31
0.0
  0
LINE
  8
0
 62
     0
 10
242.11
 20
144.593
 30
0.0
 11
242.037
 21
144.129
 31
0.0
  0
LINE
  8
0
 62
     0
 10
242.037
 20
144.129
 30
0.0
 11
242.11
 21
143.666
 31
0.0
  0
LINE
  8
0
 62
     0
 10
242.11
 20
143.666
 30
0.0
 11
242.324
 21
143.249
 31
0.0
  0
LINE
  8
0
 62
     0
 10
242.324
 20
143.249
 30
0.0
 11
242.656
 21
142.916
 31
0.0
  0
LINE
  8
0
 62
     0
 10
242.656
 20
142.916
 30
0.0
 11
243.073
 21
142.704
 31
0.0
  0
LINE
  8
0
 62
     0
 10
243.073
 20
142.704
 30
0.0
 11
243.538
 21
142.63
 31
0.0
  0
LINE
  8
0
 62
     0
 10
243.538
 20
142.63
 30
0.0
 11
244.001
 21
142.704
 31
0.0
  0
LINE
  8
0
 62
     0
 10
244.001
 20
142.704
 30
0.0
 11
244.42
 21
142.916
 31
0.0
  0
LINE
  8
0
 62
     0
 10
244.42
 20
142.916
 30
0.0
 11
244.751
 21
143.249
 31
0.0
  0
LINE
  8
0
 62
     0
 10
244.751
 20
143.249
 30
0.0
 11
244.963
 21
143.666
 31
0.0
  0
LINE
  8
0
 62
     0
 10
244.963
 20
143.666
 30
0.0
 11
245.037
 21
144.129
 31
0.0
  0
LINE
  8
0
 62
     0
 10
245.037
 20
144.129
 30
0.0
 11
244.963
 21
144.593
 31
0.0
  0
LINE
  8
0
 62
     0
 10
244.963
 20
144.593
 30
0.0
 11
244.751
 21
145.011
 31
0.0
  0
LINE
  8
0
 62
     0
 10
244.751
 20
145.011
 30
0.0
 11
244.42
 21
145.343
 31
0.0
  0
LINE
  8
0
 62
     0
 10
244.42
 20
145.343
 30
0.0
 11
244.001
 21
145.557
 31
0.0
  0
LINE
  8
0
 62
     0
 10
244.001
 20
145.557
 30
0.0
 11
243.538
 21
145.63
 31
0.0
  0
LINE
  8
0
 62
     0
 10
243.538
 20
145.63
 30
0.0
 11
243.073
 21
145.557
 31
0.0
  0
LINE
  8
0
 62
     0
 10
123.853
 20
145.557
 30
0.0
 11
123.435
 21
145.343
 31
0.0
  0
LINE
  8
0
 62
     0
 10
123.435
 20
145.343
 30
0.0
 11
123.103
 21
145.011
 31
0.0
  0
LINE
  8
0
 62
     0
 10
123.103
 20
145.011
 30
0.0
 11
122.889
 21
144.593
 31
0.0
  0
LINE
  8
0
 62
     0
 10
122.889
 20
144.593
 30
0.0
 11
122.816
 21
144.129
 31
0.0
  0
LINE
  8
0
 62
     0
 10
122.816
 20
144.129
 30
0.0
 11
122.889
 21
143.666
 31
0.0
  0
LINE
  8
0
 62
     0
 10
122.889
 20
143.666
 30
0.0
 11
123.103
 21
143.249
 31
0.0
  0
LINE
  8
0
 62
     0
 10
123.103
 20
143.249
 30
0.0
 11
123.435
 21
142.916
 31
0.0
  0
LINE
  8
0
 62
     0
 10
123.435
 20
142.916
 30
0.0
 11
123.853
 21
142.704
 31
0.0
  0
LINE
  8
0
 62
     0
 10
123.853
 20
142.704
 30
0.0
 11
124.317
 21
142.63
 31
0.0
  0
LINE
  8
0
 62
     0
 10
124.317
 20
142.63
 30
0.0
 11
124.78
 21
142.704
 31
0.0
  0
LINE
  8
0
 62
     0
 10
124.78
 20
142.704
 30
0.0
 11
125.198
 21
142.916
 31
0.0
  0
LINE
  8
0
 62
     0
 10
125.198
 20
142.916
 30
0.0
 11
125.53
 21
143.249
 31
0.0
  0
LINE
  8
0
 62
     0
 10
125.53
 20
143.249
 30
0.0
 11
125.741
 21
143.666
 31
0.0
  0
LINE
  8
0
 62
     0
 10
125.741
 20
143.666
 30
0.0
 11
125.816
 21
144.129
 31
0.0
  0
LINE
  8
0
 62
     0
 10
125.816
 20
144.129
 30
0.0
 11
125.741
 21
144.593
 31
0.0
  0
LINE
  8
0
 62
     0
 10
125.741
 20
144.593
 30
0.0
 11
125.53
 21
145.011
 31
0.0
  0
LINE
  8
0
 62
     0
 10
125.53
 20
145.011
 30
0.0
 11
125.198
 21
145.343
 31
0.0
  0
LINE
  8
0
 62
     0
 10
125.198
 20
145.343
 30
0.0
 11
124.78
 21
145.557
 31
0.0
  0
LINE
  8
0
 62
     0
 10
124.78
 20
145.557
 30
0.0
 11
124.317
 21
145.63
 31
0.0
  0
LINE
  8
0
 62
     0
 10
124.317
 20
145.63
 30
0.0
 11
123.853
 21
145.557
 31
0.0
  0
ENDSEC
  0
EOF
